<svg width="20" height="20" viewBox="0 0 20 20" fill="none" xmlns="http://www.w3.org/2000/svg">
<path d="M8.33329 3.33301C7.44924 3.33301 6.60139 3.6842 5.97627 4.30932C5.35115 4.93444 4.99996 5.78229 4.99996 6.66634C4.99996 7.5504 5.35115 8.39824 5.97627 9.02336C6.60139 9.64849 7.44924 9.99967 8.33329 9.99967C9.21735 9.99967 10.0652 9.64849 10.6903 9.02336C11.3154 8.39824 11.6666 7.5504 11.6666 6.66634C11.6666 5.78229 11.3154 4.93444 10.6903 4.30932C10.0652 3.6842 9.21735 3.33301 8.33329 3.33301ZM8.33329 4.99967C8.77532 4.99967 9.19924 5.17527 9.5118 5.48783C9.82436 5.80039 9.99996 6.22431 9.99996 6.66634C9.99996 7.10837 9.82436 7.53229 9.5118 7.84485C9.19924 8.15741 8.77532 8.33301 8.33329 8.33301C7.89127 8.33301 7.46734 8.15741 7.15478 7.84485C6.84222 7.53229 6.66663 7.10837 6.66663 6.66634C6.66663 6.22431 6.84222 5.80039 7.15478 5.48783C7.46734 5.17527 7.89127 4.99967 8.33329 4.99967ZM14.1666 9.99967C14.0333 9.99967 13.9666 10.0663 13.9666 10.1997L13.75 11.2497C13.5666 11.3997 13.3 11.533 13.1 11.6663L12.0333 11.2497C11.9666 11.2497 11.8333 11.2497 11.7666 11.333L10.9666 12.7997C10.9 12.8663 10.9 12.9997 11.0333 13.0663L11.9 13.7497V14.583L11.0333 15.2663C10.9666 15.333 10.9 15.4663 10.9666 15.533L11.7666 16.9997C11.8333 17.083 11.9666 17.083 12.0333 17.083L13.1 16.6663C13.3 16.7997 13.5666 16.933 13.75 17.083L13.9666 18.133C13.9666 18.2663 14.0333 18.333 14.1666 18.333H15.8333C15.9 18.333 16.0333 18.2663 16.0333 18.133L16.1666 17.083C16.4333 16.933 16.7 16.7997 16.9 16.6663L17.9166 17.083C18.0333 17.083 18.1666 17.083 18.1666 16.9997L19.0333 15.533C19.1 15.4663 19.0333 15.333 18.9666 15.2663L18.1 14.583V13.7497L18.9666 13.0663C19.0333 12.9997 19.1 12.8663 19.0333 12.7997L18.1666 11.333C18.1666 11.2497 18.0333 11.2497 17.9166 11.2497L16.9 11.6663C16.7 11.533 16.4333 11.3997 16.1666 11.2497L16.0333 10.1997C16.0333 10.0663 15.9 9.99967 15.8333 9.99967H14.1666ZM8.33329 10.833C6.10829 10.833 1.66663 11.9413 1.66663 14.1663V16.6663H9.72496C9.49163 16.1747 9.32496 15.6413 9.24163 15.083H3.24996V14.1663C3.24996 13.633 5.85829 12.4163 8.33329 12.4163C8.69163 12.4163 9.05829 12.4497 9.41663 12.4997C9.58329 11.9663 9.80829 11.4663 10.1 11.008C9.44996 10.8997 8.83329 10.833 8.33329 10.833ZM15.0333 12.9163C15.7 12.9163 16.25 13.4663 16.25 14.1997C16.25 14.8663 15.7 15.4163 15.0333 15.4163C14.3 15.4163 13.75 14.8663 13.75 14.1997C13.75 13.4663 14.3 12.9163 15.0333 12.9163Z" fill="#5B998A"/>
</svg>
