<svg width="16" height="16" viewBox="0 0 16 16" fill="none" xmlns="http://www.w3.org/2000/svg">
<g id="alarm">
<path id="Vector" d="M10.5798 10.1667L8.33317 8.83333V5.81333C8.33317 5.54667 8.11983 5.33333 7.85317 5.33333H7.81317C7.5465 5.33333 7.33317 5.54667 7.33317 5.81333V8.96C7.33317 9.19333 7.45317 9.41333 7.65983 9.53333L10.0932 10.9933C10.3198 11.1267 10.6132 11.06 10.7465 10.8333C10.8865 10.6 10.8132 10.3 10.5798 10.1667ZM14.1198 3.34L12.0665 1.63333C11.7865 1.4 11.3665 1.43333 11.1265 1.72C10.8932 2 10.9332 2.42 11.2132 2.66L13.2598 4.36667C13.5398 4.6 13.9598 4.56667 14.1998 4.28C14.2564 4.21305 14.2991 4.13561 14.3257 4.05212C14.3523 3.96863 14.3621 3.88072 14.3547 3.79342C14.3473 3.70612 14.3227 3.62113 14.2824 3.54333C14.2421 3.46553 14.1869 3.39644 14.1198 3.34ZM2.73317 4.36667L4.77983 2.66C5.0665 2.42 5.1065 2 4.8665 1.72C4.81123 1.65256 4.74312 1.59676 4.66612 1.55584C4.58912 1.51493 4.50476 1.4897 4.41794 1.48164C4.33112 1.47358 4.24356 1.48284 4.16034 1.50888C4.07713 1.53492 3.99991 1.57722 3.93317 1.63333L1.87983 3.34C1.81281 3.39644 1.75757 3.46553 1.71727 3.54333C1.67698 3.62113 1.65241 3.70612 1.64498 3.79342C1.63755 3.88072 1.6474 3.96863 1.67397 4.05212C1.70054 4.13561 1.74331 4.21305 1.79983 4.28C2.03317 4.56667 2.45317 4.6 2.73317 4.36667ZM7.99983 2.66667C6.40844 2.66676 4.88227 3.29902 3.75705 4.42436C2.63183 5.5497 1.99974 7.07595 1.99983 8.66733C1.99992 10.2587 2.63218 11.7849 3.75752 12.9101C4.88287 14.0353 6.40911 14.6674 8.0005 14.6673C8.78847 14.6673 9.56872 14.512 10.2967 14.2105C11.0247 13.9089 11.6861 13.4669 12.2433 12.9096C12.8004 12.3524 13.2424 11.6909 13.5439 10.9629C13.8454 10.2349 14.0005 9.45464 14.0005 8.66667C14.0005 7.87869 13.8452 7.09844 13.5436 6.37046C13.242 5.64249 12.8 4.98104 12.2428 4.42389C11.6856 3.86674 11.0241 3.42479 10.2961 3.12329C9.56808 2.82178 8.78781 2.66662 7.99983 2.66667ZM7.99983 13.3333C5.4265 13.3333 3.33317 11.24 3.33317 8.66667C3.33317 6.09333 5.4265 4 7.99983 4C10.5732 4 12.6665 6.09333 12.6665 8.66667C12.6665 11.24 10.5732 13.3333 7.99983 13.3333Z" fill="#CB0000"/>
</g>
</svg>
