<svg width="16" height="16" viewBox="0 0 16 16" fill="none" xmlns="http://www.w3.org/2000/svg">
<g id="clarity:alert-line" clip-path="url(#clip0_312_20256)">
<path id="Vector" d="M8.00003 1.11133C4.08003 1.11133 0.888916 3.90244 0.888916 7.33355C0.888916 10.7647 4.08003 13.5558 8.00003 13.5558C8.73343 13.5549 9.46322 13.4532 10.1689 13.2536L12.6267 14.818C12.6938 14.861 12.7712 14.8853 12.8509 14.8881C12.9306 14.8909 13.0095 14.8723 13.0795 14.8341C13.1495 14.7959 13.2079 14.7396 13.2487 14.6711C13.2894 14.6026 13.311 14.5244 13.3111 14.4447V11.4536C13.8672 10.9201 14.311 10.2807 14.6163 9.57318C14.9216 8.86563 15.0823 8.10414 15.0889 7.33355C15.1111 3.90244 11.92 1.11133 8.00003 1.11133ZM12.5734 10.938C12.5287 10.9794 12.493 11.0296 12.4685 11.0854C12.4441 11.1412 12.4313 11.2015 12.4311 11.2624V13.6358L10.4845 12.3958C10.4302 12.3614 10.3691 12.3393 10.3054 12.3309C10.2417 12.3224 10.177 12.3279 10.1156 12.3469C9.43057 12.5596 8.71732 12.6675 8.00003 12.6669C4.56892 12.6669 1.7778 10.2758 1.7778 7.33355C1.7778 4.39133 4.56892 2.00022 8.00003 2.00022C11.4311 2.00022 14.2222 4.39133 14.2222 7.33355C14.2121 8.0158 14.0603 8.68851 13.7765 9.309C13.4926 9.92948 13.0829 10.4842 12.5734 10.938Z" fill="#CB0000"/>
<path id="Vector_2" d="M8.00001 9.16866C8.11789 9.16866 8.23093 9.12184 8.31428 9.03849C8.39763 8.95514 8.44446 8.84209 8.44446 8.72422V3.76866C8.44446 3.65079 8.39763 3.53774 8.31428 3.45439C8.23093 3.37104 8.11789 3.32422 8.00001 3.32422C7.88214 3.32422 7.76909 3.37104 7.68574 3.45439C7.60239 3.53774 7.55557 3.65079 7.55557 3.76866V8.71533C7.55439 8.77444 7.56501 8.83319 7.58682 8.88814C7.60862 8.9431 7.64117 8.99314 7.68256 9.03536C7.72395 9.07758 7.77334 9.11111 7.82785 9.134C7.88236 9.15689 7.94089 9.16867 8.00001 9.16866Z" fill="#CB0000"/>
<path id="Vector_3" d="M7.99999 11.2755C8.32645 11.2755 8.5911 11.0108 8.5911 10.6844C8.5911 10.3579 8.32645 10.0933 7.99999 10.0933C7.67352 10.0933 7.40887 10.3579 7.40887 10.6844C7.40887 11.0108 7.67352 11.2755 7.99999 11.2755Z" fill="#CB0000"/>
</g>
<defs>
<clipPath id="clip0_312_20256">
<rect width="16" height="16" fill="white"/>
</clipPath>
</defs>
</svg>
