<svg width="35" height="24" viewBox="0 0 35 24" fill="none" xmlns="http://www.w3.org/2000/svg">
<path d="M9.70935 2.18246C10.724 2.18246 11.5377 2.55329 12.1506 3.29493C12.7686 4.03658 13.0777 5.13874 13.0777 6.60143C13.0777 7.56969 12.9334 8.38601 12.645 9.0504C12.3618 9.70964 11.9626 10.2092 11.4476 10.5491C10.9377 10.8839 10.3428 11.0513 9.663 11.0513C9.23038 11.0513 8.8544 10.9946 8.53508 10.8813C8.21576 10.768 7.9428 10.6212 7.71618 10.441C7.48957 10.2556 7.29901 10.0547 7.1445 9.8384H7.03634C7.06209 10.0444 7.08527 10.2736 7.10587 10.526C7.13162 10.7732 7.1445 10.9998 7.1445 11.2058V14.69H5.32129V2.3447H6.80458L7.05952 3.5267H7.1445C7.30416 3.28463 7.4973 3.06059 7.72391 2.85458C7.95567 2.64857 8.23379 2.48633 8.55826 2.36788C8.88788 2.24427 9.27158 2.18246 9.70935 2.18246ZM9.22265 3.66575C8.72307 3.66575 8.32135 3.76619 8.01748 3.96705C7.71876 4.16276 7.49987 4.4589 7.36081 4.85548C7.2269 5.25205 7.1548 5.74905 7.1445 6.34649V6.60143C7.1445 7.23492 7.20888 7.77313 7.33764 8.21605C7.47154 8.65383 7.69043 8.9886 7.9943 9.22037C8.30332 9.44698 8.72049 9.56029 9.24583 9.56029C9.68875 9.56029 10.0544 9.43925 10.3428 9.19719C10.6364 8.95512 10.8553 8.61005 10.9995 8.16198C11.1437 7.7139 11.2158 7.18599 11.2158 6.57826C11.2158 5.65635 11.051 4.94046 10.7214 4.43058C10.3969 3.92069 9.89734 3.66575 9.22265 3.66575Z" fill="#232F3E"/>
<path d="M18.5318 2.18246C19.6134 2.18246 20.4297 2.42195 20.9808 2.90093C21.537 3.37991 21.8152 4.12671 21.8152 5.14132V10.8968H20.525L20.1774 9.68389H20.1156C19.8735 9.99291 19.6237 10.2479 19.3662 10.4487C19.1087 10.6496 18.81 10.7989 18.47 10.8968C18.1353 10.9998 17.7258 11.0513 17.2417 11.0513C16.7318 11.0513 16.276 10.9586 15.8743 10.7732C15.4726 10.5826 15.1558 10.2942 14.924 9.90793C14.6923 9.52166 14.5764 9.03238 14.5764 8.44009C14.5764 7.55939 14.9034 6.89757 15.5575 6.45465C16.2168 6.01172 17.2108 5.76708 18.5396 5.72073L20.0229 5.66665V5.21857C20.0229 4.62629 19.8838 4.20396 19.6057 3.9516C19.3327 3.69923 18.9464 3.57305 18.4469 3.57305C18.0194 3.57305 17.6048 3.63485 17.2031 3.75846C16.8013 3.88207 16.4099 4.034 16.0288 4.21426L15.4417 2.93183C15.8588 2.71037 16.3327 2.53011 16.8631 2.39105C17.3988 2.25199 17.955 2.18246 18.5318 2.18246ZM20.0151 6.81002L18.9104 6.84865C18.0039 6.87955 17.3679 7.03406 17.0022 7.31217C16.6365 7.59029 16.4537 7.97141 16.4537 8.45554C16.4537 8.87787 16.5799 9.18689 16.8322 9.3826C17.0846 9.57316 17.4168 9.66844 17.8288 9.66844C18.4572 9.66844 18.9773 9.49076 19.3894 9.13538C19.8065 8.77486 20.0151 8.24696 20.0151 7.55166V6.81002Z" fill="#232F3E"/>
<path d="M23.0667 2.3447H25.0444L26.7981 7.22719C26.8753 7.44866 26.9449 7.66755 27.0067 7.88386C27.0736 8.09502 27.1303 8.30361 27.1766 8.50962C27.2281 8.71563 27.2693 8.92165 27.3002 9.12766H27.3466C27.3981 8.85984 27.4702 8.56113 27.5629 8.23151C27.6608 7.89674 27.7689 7.56196 27.8874 7.22719L29.5715 2.3447H31.5261L27.8565 12.0711C27.6453 12.6273 27.3852 13.1011 27.0762 13.4925C26.7723 13.8891 26.4118 14.1878 25.9946 14.3887C25.5775 14.5947 25.1011 14.6977 24.5654 14.6977C24.3079 14.6977 24.0839 14.6823 23.8933 14.6514C23.7028 14.6256 23.5405 14.5973 23.4066 14.5664V13.114C23.5148 13.1398 23.6512 13.1629 23.8161 13.1835C23.9809 13.2041 24.1508 13.2144 24.3259 13.2144C24.6504 13.2144 24.9311 13.1501 25.168 13.0213C25.4049 12.8925 25.6058 12.7097 25.7706 12.4728C25.9354 12.241 26.0719 11.9758 26.1801 11.6771L26.4813 10.8736L23.0667 2.3447Z" fill="#232F3E"/>
<path d="M30.423 17.7601C15.8562 24.6927 6.81589 18.8924 1.02889 15.3694C0.67079 15.1474 0.0621489 15.4213 0.590228 16.0279C2.51817 18.3655 8.83643 24 17.0836 24C25.3365 24 30.2461 19.4969 30.8603 18.7113C31.4703 17.9324 31.0394 17.5027 30.4229 17.7601H30.423ZM34.5141 15.5008C34.1229 14.9914 32.1355 14.8964 30.8847 15.0501C29.632 15.1993 27.7516 15.9649 27.9151 16.4246C27.999 16.5968 28.1702 16.5195 29.0308 16.4422C29.8937 16.3561 32.3111 16.051 32.8148 16.7095C33.3209 17.3725 32.0438 20.531 31.8106 21.0404C31.5852 21.5498 31.8967 21.6811 32.32 21.3419C32.7375 21.0027 33.4932 20.1245 34.0004 18.8816C34.5041 17.6319 34.8113 15.8886 34.514 15.5008H34.5141Z" fill="#FF9900"/>
<path d="M30.423 17.7601C15.8562 24.6927 6.81589 18.8924 1.02889 15.3694C0.67079 15.1474 0.0621489 15.4213 0.590228 16.0279C2.51817 18.3655 8.83643 24 17.0836 24C25.3365 24 30.2461 19.4969 30.8603 18.7113C31.4703 17.9324 31.0394 17.5027 30.4229 17.7601H30.423ZM34.5141 15.5008C34.1229 14.9914 32.1355 14.8964 30.8847 15.0501C29.632 15.1993 27.7516 15.9649 27.9151 16.4246C27.999 16.5968 28.1702 16.5195 29.0308 16.4422C29.8937 16.3561 32.3111 16.051 32.8148 16.7095C33.3209 17.3725 32.0438 20.531 31.8106 21.0404C31.5852 21.5498 31.8967 21.6811 32.32 21.3419C32.7375 21.0027 33.4932 20.1245 34.0004 18.8816C34.5041 17.6319 34.8113 15.8886 34.514 15.5008H34.5141Z" fill="#FF9900"/>
</svg>
