<svg width="17" height="16" viewBox="0 0 17 16" fill="none" xmlns="http://www.w3.org/2000/svg">
<path d="M2.49463 8.016C2.49463 6.928 2.76663 5.92 3.3053 4.99733C3.84396 4.07467 4.57463 3.344 5.4973 2.80533C6.41996 2.26667 7.42263 2 8.5053 2C9.31596 2 10.0946 2.16 10.836 2.47467C11.5773 2.78933 12.212 3.22133 12.7506 3.75467C13.2893 4.288 13.716 4.928 14.0306 5.67467C14.3453 6.42133 14.5053 7.19467 14.5053 8.016C14.5053 8.82667 14.3453 9.60533 14.0306 10.3467C13.716 11.088 13.284 11.728 12.7506 12.2613C12.2173 12.7947 11.5773 13.2213 10.836 13.536C10.0946 13.8507 9.3213 14.0107 8.5053 14.0107C7.6893 14.0107 6.9053 13.8507 6.16396 13.536C5.42263 13.2213 4.78263 12.7893 4.24396 12.256C3.7053 11.7227 3.28396 11.0827 2.96396 10.3467C2.64396 9.61067 2.49463 8.832 2.49463 8.016ZM3.8173 8.016C3.8173 9.28 4.27596 10.3787 5.19863 11.312C6.1213 12.2347 7.21996 12.6933 8.5053 12.6933C9.34796 12.6933 10.132 12.4853 10.8466 12.064C11.5613 11.6427 12.1373 11.0773 12.5586 10.3573C12.98 9.63733 13.1933 8.85867 13.1933 8.016C13.1933 7.17333 12.98 6.38933 12.5586 5.66933C12.1373 4.94933 11.5666 4.37867 10.8466 3.95733C10.1266 3.536 9.34796 3.328 8.5053 3.328C7.66263 3.328 6.87863 3.536 6.16396 3.95733C5.4493 4.37867 4.8733 4.94933 4.44663 5.66933C4.01996 6.38933 3.8173 7.17333 3.8173 8.016ZM5.92396 9.13067C5.95596 9.01333 6.0253 8.92267 6.12663 8.85867L8.0413 7.744V4.464C8.0413 4.34133 8.08396 4.23467 8.1693 4.14933C8.25463 4.064 8.3613 4.02133 8.48396 4.02133C8.60663 4.02133 8.7133 4.064 8.79863 4.14933C8.88396 4.23467 8.92663 4.34133 8.92663 4.464V8.02133C8.92663 8.12267 8.89463 8.208 8.83596 8.288C8.7773 8.368 8.70263 8.416 8.61196 8.44267L6.56396 9.632C6.49996 9.67467 6.43063 9.696 6.3453 9.696C6.17463 9.696 6.04663 9.62133 5.9613 9.472C5.90684 9.36682 5.89353 9.24513 5.92396 9.13067Z" fill="#006633"/>
</svg>
