<svg width="60" height="50" viewBox="0 0 60 50" fill="none" xmlns="http://www.w3.org/2000/svg">
<path d="M59.8912 43.9392H0.108643V43.9684H59.8912V43.9392Z" fill="#EBEBEB"/>
<path d="M53.9007 46.0985H49.9407V46.1277H53.9007V46.0985Z" fill="#EBEBEB"/>
<path d="M39.7113 46.4637H38.6722V46.4929H39.7113V46.4637Z" fill="#EBEBEB"/>
<path d="M49.8213 44.8531H47.5269V44.8823H49.8213V44.8531Z" fill="#EBEBEB"/>
<path d="M11.5448 45.0788H6.38074V45.108H11.5448V45.0788Z" fill="#EBEBEB"/>
<path d="M13.3674 45.0788H12.6106V45.108H13.3674V45.0788Z" fill="#EBEBEB"/>
<path d="M27.0291 45.645H15.8282V45.6741H27.0291V45.645Z" fill="#EBEBEB"/>
<path d="M28.4455 37.9536H5.35865C5.17779 37.9533 5.00444 37.8724 4.87666 37.7287C4.74889 37.585 4.67712 37.3903 4.67712 37.1873V0.759609C4.6787 0.557766 4.75116 0.364771 4.87876 0.222544C5.00637 0.080317 5.17882 0.000345768 5.35865 0H28.4455C28.6266 0 28.8002 0.080737 28.9282 0.22445C29.0563 0.368163 29.1282 0.563079 29.1282 0.76632V37.1873C29.1282 37.3905 29.0563 37.5855 28.9282 37.7292C28.8002 37.8729 28.6266 37.9536 28.4455 37.9536ZM5.35865 0.0268414C5.18571 0.0271969 5.01997 0.104556 4.8978 0.241938C4.77563 0.37932 4.70702 0.565499 4.70702 0.759609V37.1873C4.70702 37.3814 4.77563 37.5676 4.8978 37.705C5.01997 37.8424 5.18571 37.9197 5.35865 37.9201H28.4455C28.6185 37.9197 28.7844 37.8424 28.9068 37.7051C29.0291 37.5677 29.098 37.3815 29.0983 37.1873V0.759609C29.098 0.565376 29.0291 0.3792 28.9068 0.241856C28.7844 0.104512 28.6185 0.0271962 28.4455 0.0268414H5.35865Z" fill="#EBEBEB"/>
<path d="M54.3085 37.9536H31.2204C31.0395 37.9533 30.866 37.8724 30.738 37.7288C30.6101 37.5851 30.538 37.3904 30.5377 37.1873V0.759609C30.5396 0.557644 30.6123 0.36465 30.7401 0.22246C30.8679 0.0802701 31.0405 0.000341997 31.2204 0H54.3085C54.4881 0.000698478 54.6602 0.0808258 54.7876 0.223015C54.9149 0.365204 54.9872 0.557998 54.9888 0.759609V37.1873C54.9888 37.3901 54.9172 37.5846 54.7897 37.7282C54.6622 37.8719 54.4891 37.9529 54.3085 37.9536ZM31.2204 0.0268414C31.0474 0.0271962 30.8815 0.104512 30.7592 0.241856C30.6368 0.3792 30.5679 0.565376 30.5676 0.759609V37.1873C30.5679 37.3815 30.6368 37.5677 30.7592 37.7051C30.8815 37.8424 31.0474 37.9197 31.2204 37.9201H54.3085C54.4815 37.9197 54.6474 37.8424 54.7697 37.7051C54.8921 37.5677 54.961 37.3815 54.9613 37.1873V0.759609C54.961 0.565376 54.8921 0.3792 54.7697 0.241856C54.6474 0.104512 54.4815 0.0271962 54.3085 0.0268414H31.2204Z" fill="#EBEBEB"/>
<path d="M49.307 39.2972C49.307 39.2972 48.3887 37.2841 49.4385 35.2898C50.4883 33.2954 50.792 32.8311 50.1224 32.4231C49.4528 32.0151 49.1467 34.0148 49.1467 34.0148C49.1467 34.0148 48.5824 32.6392 49.0487 31.1964C49.515 29.7537 49.8067 27.4118 49.1683 27.1609C48.5298 26.9099 49.0487 30.0852 48.4939 31.1683C48.4939 31.1683 48.0312 29.9604 47.9547 28.8062C47.8781 27.6521 47.9977 25.804 47.4955 25.3303C46.9934 24.8565 46.6705 25.1853 47.1643 27.7366C47.4608 29.2567 47.625 30.8056 47.6546 32.3614C47.6546 32.3614 46.5641 29.0142 45.8324 28.9176C45.1006 28.821 45.1018 29.904 45.7284 30.8435C46.3549 31.7829 47.5625 33.4686 47.761 34.3329C47.761 34.3329 46.5653 31.8151 45.4892 32.5882C44.4131 33.3612 46.4266 34.8818 47.3246 35.4307C48.2225 35.9796 48.8442 39.4273 48.8442 39.4273L49.307 39.2972Z" fill="#E0E0E0"/>
<path d="M48.5815 40.1278C48.5815 40.1278 49.477 38.0959 48.4033 36.1217C47.3296 34.1475 47.0199 33.6845 47.6859 33.2672C48.3519 32.8498 48.6807 34.8441 48.6807 34.8441C48.6807 34.8441 49.2283 33.4591 48.7453 32.0257C48.2622 30.5924 47.943 28.2532 48.5755 27.9928C49.208 27.7325 48.7321 30.9159 49.2929 31.9895C49.2929 31.9895 49.7424 30.7816 49.8046 29.6208C49.8668 28.4599 49.7257 26.6186 50.2231 26.1381C50.7205 25.6576 51.0445 25.9797 50.5818 28.5377C50.3039 30.0626 50.1581 31.6141 50.1466 33.1705C50.1466 33.1705 51.1976 29.8073 51.9281 29.6986C52.6586 29.5899 52.6706 30.6743 52.0548 31.6231C51.4391 32.572 50.2518 34.275 50.0641 35.1447C50.0641 35.1447 51.231 32.6082 52.3167 33.3638C53.4023 34.1194 51.4068 35.6708 50.516 36.2345C49.6253 36.7981 49.043 40.2526 49.043 40.2526L48.5815 40.1278Z" fill="#E6E6E6"/>
<path d="M52.7088 38.6769H45.3173L45.9151 44.0022H52.111L52.7088 38.6769Z" fill="#F0F0F0"/>
<path d="M39.5244 4.97363H26.059V21.6985H39.5244V4.97363Z" fill="#E9E9E9"/>
<path d="M38.9672 5.63672H26.652V21.0705H38.9672V5.63672Z" fill="#F4F4F4"/>
<path d="M30.1325 5.63672L26.652 20.2679V12.347L28.2446 5.63672H30.1325Z" fill="#FEFEFE"/>
<path d="M31.6884 5.63672L28.0177 21.0705H27.3254L30.9961 5.63672H31.6884Z" fill="#FEFEFE"/>
<path d="M38.9672 9.84546V17.7677L38.1876 21.0705H36.2997L38.9672 9.84546Z" fill="#FEFEFE"/>
<path d="M33.0306 4.97363H32.5524V21.6985H33.0306V4.97363Z" fill="#E9E9E9"/>
<path d="M39.2663 8.36774H26.2935V8.90456H39.2663V8.36774Z" fill="#E9E9E9"/>
<path d="M21.1114 4.97363H7.646V21.6985H21.1114V4.97363Z" fill="#E9E9E9"/>
<path d="M20.5543 5.63672H8.23914V21.0705H20.5543V5.63672Z" fill="#F4F4F4"/>
<path d="M11.7197 5.63672L8.23914 20.2679V12.347L9.83174 5.63672H11.7197Z" fill="#FEFEFE"/>
<path d="M13.2754 5.63672L9.60476 21.0705H8.91248L12.5831 5.63672H13.2754Z" fill="#FEFEFE"/>
<path d="M20.5541 9.84546V17.7677L19.7745 21.0705H17.8866L20.5541 9.84546Z" fill="#FEFEFE"/>
<path d="M14.6178 4.97363H14.1395V21.6985H14.6178V4.97363Z" fill="#E9E9E9"/>
<path d="M20.8534 8.36774H7.88062V8.90456H20.8534V8.36774Z" fill="#E9E9E9"/>
<path d="M30.0002 50.0002C42.8036 50.0002 53.1827 49.32 53.1827 48.4809C53.1827 47.6419 42.8036 46.9617 30.0002 46.9617C17.1969 46.9617 6.81775 47.6419 6.81775 48.4809C6.81775 49.32 17.1969 50.0002 30.0002 50.0002Z" fill="#F5F5F5"/>
<path d="M45.7422 44.0023H27.3901C27.2803 44.0043 27.1713 43.9801 27.0703 43.9314C26.9694 43.8828 26.8788 43.8107 26.8044 43.72C26.73 43.6293 26.6735 43.5219 26.6386 43.405C26.6038 43.288 26.5914 43.1641 26.6022 43.0414L28.9157 9.72598C28.9367 9.46635 29.0424 9.22457 29.2126 9.04718C29.3828 8.86978 29.6054 8.7693 29.8376 8.76506H48.1885C48.2984 8.76316 48.4074 8.78732 48.5084 8.83597C48.6094 8.88461 48.7001 8.95664 48.7746 9.04735C48.8491 9.13805 48.9056 9.24539 48.9406 9.36233C48.9756 9.47928 48.9882 9.60319 48.9776 9.72598L46.664 43.0414C46.6428 43.3009 46.537 43.5425 46.3669 43.7199C46.1968 43.8972 45.9743 43.9978 45.7422 44.0023Z" fill="#2E353A"/>
<path opacity="0.2" d="M45.7422 44.0023H27.3901C27.2803 44.0043 27.1713 43.9801 27.0703 43.9314C26.9694 43.8828 26.8788 43.8107 26.8044 43.72C26.73 43.6293 26.6735 43.5219 26.6386 43.405C26.6038 43.288 26.5914 43.1641 26.6022 43.0414L28.9157 9.72598C28.9367 9.46635 29.0424 9.22457 29.2126 9.04718C29.3828 8.86978 29.6054 8.7693 29.8376 8.76506H48.1885C48.2984 8.76316 48.4074 8.78732 48.5084 8.83597C48.6094 8.88461 48.7001 8.95664 48.7746 9.04735C48.8491 9.13805 48.9056 9.24539 48.9406 9.36233C48.9756 9.47928 48.9882 9.60319 48.9776 9.72598L46.664 43.0414C46.6428 43.3009 46.537 43.5425 46.3669 43.7199C46.1968 43.8972 45.9743 43.9978 45.7422 44.0023Z" fill="#FEFEFE"/>
<path d="M43.2561 10.9433H34.468C34.4296 10.9441 34.3915 10.9358 34.3561 10.9188C34.3208 10.9019 34.289 10.8768 34.2629 10.8451C34.2369 10.8134 34.217 10.7759 34.2048 10.735C34.1925 10.6941 34.1881 10.6508 34.1918 10.6078L34.3269 8.6605C34.3343 8.56956 34.3713 8.48487 34.4309 8.4227C34.4905 8.36053 34.5684 8.32525 34.6498 8.32364H43.4378C43.4762 8.32304 43.5144 8.33157 43.5496 8.34867C43.5849 8.36578 43.6166 8.39106 43.6426 8.42287C43.6685 8.45469 43.6882 8.4923 43.7003 8.53325C43.7124 8.57421 43.7167 8.61757 43.7128 8.6605L43.5777 10.6025C43.5715 10.694 43.5351 10.7797 43.4756 10.8427C43.4161 10.9057 43.3378 10.9416 43.2561 10.9433Z" fill="#5B998A"/>
<path opacity="0.2" d="M43.2561 10.9433H34.468C34.4296 10.9441 34.3915 10.9358 34.3561 10.9188C34.3208 10.9019 34.289 10.8768 34.2629 10.8451C34.2369 10.8134 34.217 10.7759 34.2048 10.735C34.1925 10.6941 34.1881 10.6508 34.1918 10.6078L34.3269 8.6605C34.3343 8.56956 34.3713 8.48487 34.4309 8.4227C34.4905 8.36053 34.5684 8.32525 34.6498 8.32364H43.4378C43.4762 8.32304 43.5144 8.33157 43.5496 8.34867C43.5849 8.36578 43.6166 8.39106 43.6426 8.42287C43.6685 8.45469 43.6882 8.4923 43.7003 8.53325C43.7124 8.57421 43.7167 8.61757 43.7128 8.6605L43.5777 10.6025C43.5715 10.694 43.5351 10.7797 43.4756 10.8427C43.4161 10.9057 43.3378 10.9416 43.2561 10.9433Z" fill="black"/>
<path d="M39.6847 8.9286H38.3097L38.3635 8.15557C38.3803 7.9471 38.4652 7.75297 38.6018 7.61051C38.7384 7.46805 38.9172 7.38733 39.1036 7.38388C39.1919 7.38229 39.2795 7.40165 39.3607 7.44067C39.4419 7.4797 39.5149 7.53752 39.5748 7.61036C39.6347 7.68319 39.6803 7.7694 39.7085 7.86335C39.7367 7.9573 39.7469 8.05688 39.7385 8.15557L39.6847 8.9286Z" fill="#5B998A"/>
<path opacity="0.4" d="M39.6847 8.9286H38.3097L38.3635 8.15557C38.3803 7.9471 38.4652 7.75297 38.6018 7.61051C38.7384 7.46805 38.9172 7.38733 39.1036 7.38388C39.1919 7.38229 39.2795 7.40165 39.3607 7.44067C39.4419 7.4797 39.5149 7.53752 39.5748 7.61036C39.6347 7.68319 39.6803 7.7694 39.7085 7.86335C39.7367 7.9573 39.7469 8.05688 39.7385 8.15557L39.6847 8.9286Z" fill="#FEFEFE"/>
<path d="M45.4943 42.6104H27.8297L30.0847 10.1553H47.7481L45.4943 42.6104Z" fill="#FEFEFE"/>
<path d="M41.6217 11.8544H35.9782C35.8877 11.8558 35.798 11.8358 35.7149 11.7957C35.6318 11.7555 35.5571 11.6961 35.4959 11.6214C35.4346 11.5467 35.3881 11.4583 35.3593 11.362C35.3305 11.2657 35.3202 11.1637 35.3289 11.0626L35.4007 10.0319C35.418 9.81806 35.5051 9.61898 35.6453 9.47284C35.7854 9.3267 35.9687 9.2438 36.1599 9.24006H41.8046C41.8951 9.23866 41.9849 9.25868 42.068 9.29882C42.1512 9.33896 42.2259 9.39831 42.2873 9.47301C42.3486 9.54772 42.3953 9.63609 42.4242 9.73238C42.4531 9.82868 42.4636 9.93072 42.455 10.0319L42.3833 11.0626C42.3654 11.2766 42.2778 11.4757 42.1373 11.6218C41.9967 11.7679 41.8132 11.8507 41.6217 11.8544ZM36.1384 9.50981C36.0122 9.51221 35.8913 9.56682 35.7989 9.66318C35.7064 9.75954 35.6489 9.89084 35.6374 10.0319L35.5657 11.0626C35.5598 11.1293 35.5665 11.1967 35.5854 11.2603C35.6043 11.3239 35.635 11.3824 35.6754 11.4318C35.7158 11.4812 35.765 11.5205 35.8199 11.547C35.8747 11.5736 35.934 11.5869 35.9937 11.586H41.6396C41.7661 11.5836 41.8873 11.5288 41.98 11.4322C42.0727 11.3356 42.1303 11.204 42.1418 11.0626L42.2135 10.0319C42.219 9.96517 42.212 9.89791 42.1929 9.83445C42.1738 9.77099 42.143 9.71275 42.1025 9.66352C42.062 9.61429 42.0128 9.57517 41.9579 9.54869C41.9031 9.5222 41.8439 9.50896 41.7843 9.50981H36.1384Z" fill="#5B998A"/>
<g opacity="0.4">
<path d="M41.6217 11.8544H35.9782C35.8877 11.8558 35.798 11.8358 35.7149 11.7957C35.6318 11.7555 35.5571 11.6961 35.4959 11.6214C35.4346 11.5467 35.3881 11.4583 35.3593 11.362C35.3305 11.2657 35.3202 11.1637 35.3289 11.0626L35.4007 10.0319C35.418 9.81806 35.5051 9.61898 35.6453 9.47284C35.7854 9.3267 35.9687 9.2438 36.1599 9.24006H41.8046C41.8951 9.23866 41.9849 9.25868 42.068 9.29882C42.1512 9.33896 42.2259 9.39831 42.2873 9.47301C42.3486 9.54772 42.3953 9.63609 42.4242 9.73238C42.4531 9.82868 42.4636 9.93072 42.455 10.0319L42.3833 11.0626C42.3654 11.2766 42.2778 11.4757 42.1373 11.6218C41.9967 11.7679 41.8132 11.8507 41.6217 11.8544ZM36.1384 9.50981C36.0122 9.51221 35.8913 9.56682 35.7989 9.66318C35.7064 9.75954 35.6489 9.89084 35.6374 10.0319L35.5657 11.0626C35.5598 11.1293 35.5665 11.1967 35.5854 11.2603C35.6043 11.3239 35.635 11.3824 35.6754 11.4318C35.7158 11.4812 35.765 11.5205 35.8199 11.547C35.8747 11.5736 35.934 11.5869 35.9937 11.586H41.6396C41.7661 11.5836 41.8873 11.5288 41.98 11.4322C42.0727 11.3356 42.1303 11.204 42.1418 11.0626L42.2135 10.0319C42.219 9.96517 42.212 9.89791 42.1929 9.83445C42.1738 9.77099 42.143 9.71275 42.1025 9.66352C42.062 9.61429 42.0128 9.57517 41.9579 9.54869C41.9031 9.5222 41.8439 9.50896 41.7843 9.50981H36.1384Z" fill="#FEFEFE"/>
</g>
<path d="M41.33 9.83471H36.5474C36.5263 9.83519 36.5054 9.83066 36.486 9.82141C36.4665 9.81216 36.4491 9.7984 36.4348 9.78103C36.4204 9.76366 36.4095 9.74308 36.4027 9.72064C36.396 9.6982 36.3936 9.67442 36.3956 9.65084L36.4327 9.11402C36.4371 9.06416 36.4576 9.01787 36.4905 8.98396C36.5234 8.95005 36.5662 8.9309 36.6108 8.93015H41.3934C41.4145 8.92964 41.4354 8.93417 41.4547 8.94343C41.4741 8.95269 41.4915 8.96648 41.5058 8.98388C41.52 9.00127 41.5308 9.02187 41.5374 9.04431C41.544 9.06675 41.5463 9.09052 41.5441 9.11402L41.507 9.65084C41.5029 9.70058 41.4825 9.74686 41.4499 9.7808C41.4172 9.81473 41.3745 9.83393 41.33 9.83471Z" fill="#5B998A"/>
<path d="M45.3798 14.897H31.9885L32.1021 13.257H45.4934L45.3798 14.897Z" fill="#5B998A"/>
<path d="M39.9595 17.1798H31.0447L31.0746 16.757H39.9894L39.9595 17.1798Z" fill="#5B998A"/>
<path d="M39.8761 18.401H30.9613L30.99 17.9769H39.9048L39.8761 18.401Z" fill="#5B998A"/>
<path d="M39.7913 19.6223H30.8765L30.9052 19.1982H39.8199L39.7913 19.6223Z" fill="#5B998A"/>
<path d="M39.7064 20.8423H30.7916L30.8203 20.4196H39.7351L39.7064 20.8423Z" fill="#5B998A"/>
<path d="M45.5554 20.8423H41.9182L42.2028 16.757H45.84L45.5554 20.8423Z" fill="#5B998A"/>
<path d="M44.5487 18.2737C44.5654 18.0348 44.4004 17.871 44.1015 17.871C43.9855 17.8648 43.8697 17.8882 43.7629 17.9393C43.6561 17.9904 43.5609 18.068 43.4846 18.1663L43.255 17.9717C43.3665 17.8321 43.5043 17.722 43.6583 17.6496C43.8124 17.5772 43.9789 17.5442 44.1458 17.553C44.624 17.553 44.9182 17.8039 44.8883 18.224C44.8452 18.8481 44.2534 18.895 44.2199 19.3795H43.8863C43.9282 18.789 44.5188 18.7031 44.5487 18.2737ZM43.7978 19.9821C43.8021 19.9152 43.8295 19.8528 43.8742 19.8082C43.9188 19.7635 43.9772 19.7403 44.037 19.7432C44.0645 19.742 44.0919 19.7475 44.1173 19.7594C44.1427 19.7712 44.1655 19.7891 44.1841 19.8119C44.2028 19.8346 44.2168 19.8616 44.2253 19.891C44.2337 19.9203 44.2364 19.9514 44.2331 19.9821C44.2285 20.047 44.2024 20.1077 44.1599 20.1519C44.1173 20.1962 44.0615 20.2209 44.0035 20.221C43.9753 20.2233 43.947 20.2187 43.9206 20.2074C43.8943 20.1961 43.8704 20.1785 43.8508 20.1557C43.8311 20.1329 43.8162 20.1055 43.8071 20.0755C43.7979 20.0455 43.7948 20.0136 43.7978 19.9821Z" fill="#FEFEFE"/>
<path d="M39.5306 23.3626H30.6158L30.6457 22.9385H39.5605L39.5306 23.3626Z" fill="#5B998A"/>
<path d="M39.4459 24.5825H30.5311L30.561 24.1597H39.4758L39.4459 24.5825Z" fill="#5B998A"/>
<path d="M39.3618 25.8039H30.447L30.4757 25.3811H39.3905L39.3618 25.8039Z" fill="#5B998A"/>
<path d="M39.2767 27.025H30.3619L30.3906 26.601H39.3054L39.2767 27.025Z" fill="#5B998A"/>
<path d="M45.1261 27.0251H41.4889L41.7723 22.9385H45.4094L45.1261 27.0251Z" fill="#5B998A"/>
<path d="M44.1194 24.4565C44.1361 24.2163 43.9711 24.0539 43.6722 24.0539C43.5562 24.0477 43.4404 24.071 43.3336 24.1221C43.2267 24.1733 43.1316 24.2509 43.0553 24.3491L42.8257 24.1572C42.937 24.0173 43.0747 23.9072 43.2289 23.8347C43.383 23.7623 43.5496 23.7294 43.7164 23.7385C44.1947 23.7385 44.4888 23.9894 44.4589 24.4095C44.4159 25.0336 43.8241 25.0805 43.7906 25.565H43.457C43.4976 24.9624 44.0895 24.8859 44.1194 24.4565ZM43.3685 26.1703C43.3725 26.1043 43.3989 26.0426 43.4423 25.9979C43.4857 25.9532 43.5428 25.9289 43.6017 25.9301C43.6293 25.9288 43.6568 25.9344 43.6823 25.9463C43.7078 25.9582 43.7307 25.9763 43.7493 25.9991C43.768 26.022 43.782 26.0492 43.7904 26.0787C43.7987 26.1083 43.8012 26.1395 43.7977 26.1703C43.793 26.2351 43.7668 26.2956 43.7243 26.3398C43.6818 26.384 43.6261 26.4087 43.5682 26.4092C43.5405 26.4105 43.5129 26.4051 43.4872 26.3934C43.4616 26.3817 43.4385 26.3638 43.4195 26.3412C43.4006 26.3185 43.3862 26.2915 43.3774 26.262C43.3686 26.2325 43.3656 26.2012 43.3685 26.1703Z" fill="#FEFEFE"/>
<path d="M39.1013 29.5442H30.1865L30.2164 29.1215H39.1312L39.1013 29.5442Z" fill="#5B998A"/>
<path d="M39.0163 30.7656H30.1016L30.1315 30.3415H39.0462L39.0163 30.7656Z" fill="#5B998A"/>
<path d="M38.9317 31.987H30.0181L30.0468 31.5629H38.9615L38.9317 31.987Z" fill="#5B998A"/>
<path d="M38.8483 33.2066H29.9335L29.9622 32.7839H38.8769L38.8483 33.2066Z" fill="#5B998A"/>
<path d="M44.6972 33.2067H41.0601L41.3434 29.1215H44.9806L44.6972 33.2067Z" fill="#5B998A"/>
<path d="M43.6903 30.6381C43.707 30.3992 43.542 30.2354 43.2419 30.2354C43.1261 30.2293 43.0105 30.2527 42.9039 30.3039C42.7973 30.355 42.7023 30.4325 42.6262 30.5307L42.3966 30.3307C42.5079 30.1909 42.6457 30.0807 42.7998 30.0082C42.9539 29.9358 43.1205 29.9029 43.2874 29.912C43.7656 29.912 44.0586 30.1616 44.0299 30.5763C43.9868 31.2017 43.395 31.2474 43.3615 31.7318H43.0327C43.0686 31.1507 43.6604 31.0675 43.6903 30.6381ZM42.9394 32.3438C42.9437 32.2781 42.9703 32.2167 43.0136 32.1723C43.057 32.1278 43.1139 32.1037 43.1726 32.1049C43.2001 32.1037 43.2275 32.1093 43.2529 32.1211C43.2783 32.133 43.3011 32.1509 43.3198 32.1736C43.3384 32.1963 43.3524 32.2233 43.3609 32.2527C43.3693 32.2821 43.372 32.3132 43.3687 32.3438C43.3642 32.4087 43.338 32.4694 43.2955 32.5136C43.253 32.5579 43.1971 32.5826 43.1391 32.5827C43.1114 32.5843 43.0837 32.579 43.0579 32.5674C43.0322 32.5557 43.009 32.5379 42.99 32.5152C42.971 32.4924 42.9566 32.4653 42.9479 32.4358C42.9392 32.4062 42.9363 32.3748 42.9394 32.3438Z" fill="#FEFEFE"/>
<path d="M38.6717 35.7271H29.757L29.7868 35.303H38.7016L38.6717 35.7271Z" fill="#5B998A"/>
<path d="M38.5869 36.9485H29.6721L29.702 36.5244H38.6168L38.5869 36.9485Z" fill="#5B998A"/>
<path d="M38.5021 38.1685H29.5873L29.6172 37.7457H38.532L38.5021 38.1685Z" fill="#5B998A"/>
<path d="M38.4173 39.3897H29.5026L29.5325 38.9656H38.4472L38.4173 39.3897Z" fill="#5B998A"/>
<path d="M44.2677 39.3896H40.6305L40.9139 35.303H44.551L44.2677 39.3896Z" fill="#5B998A"/>
<path d="M43.261 36.8209C43.2777 36.5806 43.1127 36.4182 42.8126 36.4182C42.6968 36.412 42.5812 36.4354 42.4745 36.4865C42.3679 36.5377 42.273 36.6153 42.1969 36.7135L41.9673 36.5189C42.0786 36.379 42.2163 36.2689 42.3705 36.1964C42.5246 36.124 42.6912 36.0911 42.858 36.1002C43.3363 36.1002 43.6292 36.3511 43.6005 36.7712C43.5575 37.3953 42.9657 37.4422 42.9322 37.9267H42.5986C42.6392 37.3322 43.2311 37.2503 43.261 36.8209ZM42.5101 38.5293C42.5141 38.4633 42.5405 38.4016 42.5839 38.3569C42.6273 38.3122 42.6844 38.2879 42.7433 38.2891C42.7709 38.2879 42.7984 38.2934 42.8239 38.3053C42.8494 38.3173 42.8723 38.3353 42.8909 38.3582C42.9096 38.381 42.9236 38.4082 42.932 38.4377C42.9403 38.4673 42.9428 38.4985 42.9394 38.5293C42.9346 38.5941 42.9084 38.6546 42.8659 38.6988C42.8234 38.743 42.7677 38.7678 42.7098 38.7682C42.6821 38.7695 42.6545 38.7641 42.6288 38.7524C42.6032 38.7407 42.5801 38.7228 42.5611 38.7002C42.5422 38.6775 42.5278 38.6505 42.519 38.621C42.5102 38.5915 42.5072 38.5602 42.5101 38.5293Z" fill="#FEFEFE"/>
<path opacity="0.7" d="M45.3798 14.897H31.9885L32.1021 13.257H45.4934L45.3798 14.897Z" fill="#FEFEFE"/>
<path opacity="0.7" d="M39.9595 17.1798H31.0447L31.0746 16.757H39.9894L39.9595 17.1798Z" fill="#FEFEFE"/>
<path opacity="0.7" d="M39.8761 18.401H30.9613L30.99 17.9769H39.9048L39.8761 18.401Z" fill="#FEFEFE"/>
<path opacity="0.7" d="M39.7913 19.6223H30.8765L30.9052 19.1982H39.8199L39.7913 19.6223Z" fill="#FEFEFE"/>
<path opacity="0.7" d="M39.7064 20.8423H30.7916L30.8203 20.4196H39.7351L39.7064 20.8423Z" fill="#FEFEFE"/>
<path opacity="0.7" d="M45.5554 20.8423H41.9182L42.2028 16.757H45.84L45.5554 20.8423Z" fill="#FEFEFE"/>
<path opacity="0.7" d="M39.5306 23.3626H30.6158L30.6457 22.9385H39.5605L39.5306 23.3626Z" fill="#FEFEFE"/>
<path opacity="0.7" d="M39.4459 24.5825H30.5311L30.561 24.1597H39.4758L39.4459 24.5825Z" fill="#FEFEFE"/>
<path opacity="0.7" d="M39.3618 25.8039H30.447L30.4757 25.3811H39.3905L39.3618 25.8039Z" fill="#FEFEFE"/>
<path opacity="0.7" d="M39.2767 27.025H30.3619L30.3906 26.601H39.3054L39.2767 27.025Z" fill="#FEFEFE"/>
<path opacity="0.7" d="M45.1261 27.0251H41.4889L41.7723 22.9385H45.4094L45.1261 27.0251Z" fill="#FEFEFE"/>
<path opacity="0.7" d="M39.1013 29.5442H30.1865L30.2164 29.1215H39.1312L39.1013 29.5442Z" fill="#FEFEFE"/>
<path opacity="0.7" d="M39.0163 30.7656H30.1016L30.1315 30.3415H39.0462L39.0163 30.7656Z" fill="#FEFEFE"/>
<path opacity="0.7" d="M38.9317 31.987H30.0181L30.0468 31.5629H38.9615L38.9317 31.987Z" fill="#FEFEFE"/>
<path opacity="0.7" d="M38.8483 33.2066H29.9335L29.9622 32.7839H38.8769L38.8483 33.2066Z" fill="#FEFEFE"/>
<path opacity="0.7" d="M44.6972 33.2067H41.0601L41.3434 29.1215H44.9806L44.6972 33.2067Z" fill="#FEFEFE"/>
<path opacity="0.7" d="M38.6717 35.7271H29.757L29.7868 35.303H38.7016L38.6717 35.7271Z" fill="#FEFEFE"/>
<path opacity="0.7" d="M38.5869 36.9485H29.6721L29.702 36.5244H38.6168L38.5869 36.9485Z" fill="#FEFEFE"/>
<path opacity="0.7" d="M38.5021 38.1685H29.5873L29.6172 37.7457H38.532L38.5021 38.1685Z" fill="#FEFEFE"/>
<path opacity="0.7" d="M38.4173 39.3897H29.5026L29.5325 38.9656H38.4472L38.4173 39.3897Z" fill="#FEFEFE"/>
<path opacity="0.7" d="M44.2677 39.3896H40.6305L40.9139 35.303H44.551L44.2677 39.3896Z" fill="#FEFEFE"/>
<path d="M24.0214 27.1098V30.8059C24.0223 31.5346 23.7716 32.2355 23.322 32.7612L20.2491 36.3701H21.9888L25.1812 32.8431C25.4193 32.5803 25.6085 32.267 25.7378 31.9214C25.8671 31.5758 25.934 31.2048 25.9345 30.83V27.1098H24.0214Z" fill="#5B998A"/>
<path opacity="0.4" d="M25.9345 27.1098V30.826C25.9349 31.0342 25.9141 31.2418 25.8723 31.4447C25.7676 31.9762 25.5275 32.4621 25.1812 32.8431L21.9888 36.3701H20.2491L23.322 32.7612C23.7716 32.2355 24.0223 31.5346 24.0214 30.8059V27.1098H25.9345Z" fill="#FEFEFE"/>
<path opacity="0.2" d="M25.9346 27.1098V30.826C25.9351 31.0342 25.9143 31.2418 25.8725 31.4447L24.0216 30.6059V27.1098H25.9346Z" fill="black"/>
<path d="M19.0406 36.7725L16.4652 47.7855C16.4421 47.8857 16.39 47.9745 16.3171 48.0379C16.2441 48.1013 16.1545 48.1357 16.0623 48.1357H11.4602C11.4223 48.1356 11.3849 48.1257 11.3509 48.1069C11.3169 48.088 11.2872 48.0607 11.2641 48.027C11.2409 47.9934 11.2249 47.9543 11.2174 47.9126C11.21 47.8709 11.2112 47.8278 11.2211 47.7868L13.7977 36.7725H13.3027L10.7583 47.6499C10.7305 47.7705 10.7275 47.8966 10.7497 48.0186C10.7719 48.1406 10.8186 48.2554 10.8863 48.354C10.954 48.4527 11.0409 48.5327 11.1404 48.5879C11.2398 48.6431 11.3492 48.6721 11.4602 48.6726H16.0623C16.2601 48.6724 16.4523 48.5987 16.609 48.463C16.7656 48.3273 16.8777 48.1372 16.9279 47.9223L19.5344 36.7725H19.0406Z" fill="#5B998A"/>
<g opacity="0.4">
<path d="M19.0406 36.7725L16.4652 47.7855C16.4421 47.8857 16.39 47.9745 16.3171 48.0379C16.2441 48.1013 16.1545 48.1357 16.0623 48.1357H11.4602C11.4223 48.1356 11.3849 48.1257 11.3509 48.1069C11.3169 48.088 11.2872 48.0607 11.2641 48.027C11.2409 47.9934 11.2249 47.9543 11.2174 47.9126C11.21 47.8709 11.2112 47.8278 11.2211 47.7868L13.7977 36.7725H13.3027L10.7583 47.6499C10.7305 47.7705 10.7275 47.8966 10.7497 48.0186C10.7719 48.1406 10.8186 48.2554 10.8863 48.354C10.954 48.4527 11.0409 48.5327 11.1404 48.5879C11.2398 48.6431 11.3492 48.6721 11.4602 48.6726H16.0623C16.2601 48.6724 16.4523 48.5987 16.609 48.463C16.7656 48.3273 16.8777 48.1372 16.9279 47.9223L19.5344 36.7725H19.0406Z" fill="#FEFEFE"/>
</g>
<path d="M20.0943 48.6727L17.2785 36.6209L16.8158 36.7565L19.5993 48.6727H20.0943Z" fill="#5B998A"/>
<path d="M25.8328 48.6727L23.017 36.6209L22.5543 36.7565L25.3378 48.6727H25.8328Z" fill="#5B998A"/>
<g opacity="0.5">
<path d="M20.0943 48.6727L17.2785 36.6209L16.8158 36.7565L19.5993 48.6727H20.0943Z" fill="#FEFEFE"/>
</g>
<g opacity="0.5">
<path d="M25.8328 48.6727L23.017 36.6209L22.5543 36.7565L25.3378 48.6727H25.8328Z" fill="#FEFEFE"/>
</g>
<path opacity="0.2" d="M13.3027 36.7725H13.7977L13.4091 38.4326L12.9512 38.2756L13.3027 36.7725Z" fill="black"/>
<path opacity="0.2" d="M17.2785 36.6209L17.9182 39.3601L17.3813 39.1775L16.8158 36.7565L17.2785 36.6209Z" fill="black"/>
<path opacity="0.2" d="M19.0404 36.7725H19.5342L18.7235 40.2484L18.2644 40.0914L19.0404 36.7725Z" fill="black"/>
<path opacity="0.2" d="M24.1469 41.4899L23.6077 41.3047L22.5543 36.79L23.017 36.6424L24.1469 41.4899Z" fill="black"/>
<path d="M12.8659 36.9565L10.6301 23.3708L10.6002 23.1654C10.5781 23.0385 10.5811 22.9077 10.609 22.7822C10.6369 22.6568 10.689 22.5397 10.7616 22.4394C10.8317 22.3451 10.9198 22.2696 11.0193 22.2185C11.1188 22.1674 11.2273 22.142 11.3367 22.1441H16.1767C16.4064 22.1568 16.6258 22.255 16.8003 22.4231C16.9748 22.5913 17.0945 22.8199 17.1404 23.0728L17.1763 23.3023L19.4109 36.8572L18.9398 36.9538L16.698 23.3587L16.6693 23.1681C16.6444 23.0384 16.5831 22.9211 16.4945 22.8335C16.4058 22.7458 16.2944 22.6923 16.1767 22.6809H11.3319C11.2926 22.6792 11.2535 22.6875 11.2175 22.7052C11.1815 22.7228 11.1495 22.7494 11.1239 22.7829C11.0959 22.8238 11.0763 22.8711 11.0664 22.9214C11.0565 22.9717 11.0565 23.0239 11.0665 23.0742L11.1 23.2996L13.337 36.8545L12.8659 36.9565Z" fill="#5B998A"/>
<g opacity="0.5">
<path d="M12.8659 36.9565L10.6301 23.3708L10.6002 23.1654C10.5781 23.0385 10.5811 22.9077 10.609 22.7822C10.6369 22.6568 10.689 22.5397 10.7616 22.4394C10.8317 22.3451 10.9198 22.2696 11.0193 22.2185C11.1188 22.1674 11.2273 22.142 11.3367 22.1441H16.1767C16.4064 22.1568 16.6258 22.255 16.8003 22.4231C16.9748 22.5913 17.0945 22.8199 17.1404 23.0728L17.1763 23.3023L19.4109 36.8572L18.9398 36.9538L16.698 23.3587L16.6693 23.1681C16.6444 23.0384 16.5831 22.9211 16.4945 22.8335C16.4058 22.7458 16.2944 22.6923 16.1767 22.6809H11.3319C11.2926 22.6792 11.2535 22.6875 11.2175 22.7052C11.1815 22.7228 11.1495 22.7494 11.1239 22.7829C11.0959 22.8238 11.0763 22.8711 11.0664 22.9214C11.0565 22.9717 11.0565 23.0239 11.0665 23.0742L11.1 23.2996L13.337 36.8545L12.8659 36.9565Z" fill="#FEFEFE"/>
</g>
<path d="M13.8443 35.6091H23.0424C23.201 35.6091 23.353 35.6798 23.4652 35.8057C23.5773 35.9315 23.6403 36.1022 23.6403 36.2802V37.1753H13.2465V36.2775C13.2471 36.1 13.3104 35.93 13.4224 35.8047C13.5344 35.6795 13.6861 35.6091 13.8443 35.6091Z" fill="#5B998A"/>
<path d="M23.7834 36.394H13.1026C12.9699 36.394 12.8623 36.5148 12.8623 36.6637V36.908C12.8623 37.057 12.9699 37.1777 13.1026 37.1777H23.7834C23.9161 37.1777 24.0237 37.057 24.0237 36.908V36.6637C24.0237 36.5148 23.9161 36.394 23.7834 36.394Z" fill="#5B998A"/>
<path opacity="0.6" d="M23.7834 36.394H13.1026C12.9699 36.394 12.8623 36.5148 12.8623 36.6637V36.908C12.8623 37.057 12.9699 37.1777 13.1026 37.1777H23.7834C23.9161 37.1777 24.0237 37.057 24.0237 36.908V36.6637C24.0237 36.5148 23.9161 36.394 23.7834 36.394Z" fill="#FEFEFE"/>
<path d="M17.8438 28.8544H11.7663L10.86 23.3519H16.9363L17.8354 28.8034L17.8438 28.8544Z" fill="#5B998A"/>
<path d="M23.8218 17.1289C23.8218 17.1289 23.0578 15.1372 22.992 14.9238C22.9263 14.7105 23.004 13.6328 22.9454 13.4476C22.8868 13.2624 21.9996 13.1295 21.8119 13.1537C21.6242 13.1778 21.7892 14.8447 21.8669 14.9762C21.9683 15.1115 22.0825 15.2339 22.2077 15.3412L22.8832 17.6227L23.8218 17.1289Z" fill="#B97964"/>
<path d="M19.9567 20.8878C20.478 20.9804 22.6122 21.3266 23.0893 20.9696C23.4743 20.6811 22.3898 16.004 22.3898 16.004L23.3547 15.5624C23.3547 15.5624 25.6468 21.2286 24.4224 22.5224C23.8007 23.18 22.0527 23.3464 19.5382 23.3464L19.9567 20.8878Z" fill="#5B998A"/>
<path opacity="0.8" d="M19.9567 20.8878C20.478 20.9804 22.6122 21.3266 23.0893 20.9696C23.4743 20.6811 22.3898 16.004 22.3898 16.004L23.3547 15.5624C23.3547 15.5624 25.6468 21.2286 24.4224 22.5224C23.8007 23.18 22.0527 23.3464 19.5382 23.3464L19.9567 20.8878Z" fill="#FEFEFE"/>
<path opacity="0.1" d="M20.84 23.3332C20.4693 23.3453 20.0736 23.3507 19.6575 23.3507L20.0162 21.8087C20.4048 22.2273 20.6889 22.7529 20.84 23.3332Z" fill="black"/>
<path d="M22.9658 24.1559L25.4958 27.1595" stroke="#2E353A" stroke-width="2" stroke-miterlimit="10"/>
<path d="M21.152 25.9247C21.152 25.9247 23.083 25.8576 23.2838 25.8347C23.4847 25.8119 24.3205 25.2751 24.4998 25.2536C24.6792 25.2322 25.1574 26.0803 25.2172 26.2817C25.277 26.483 23.8625 27.0198 23.7226 26.9983C23.5706 26.9517 23.4235 26.887 23.2838 26.8051L21.152 27.0869V25.9247Z" fill="#B97964"/>
<path d="M20.016 47.6207L20.9689 47.4744L21.1004 44.9325L20.1499 45.0801L20.016 47.6207Z" fill="#B97964"/>
<path d="M21.0407 47.3453L19.9646 47.2688C19.9466 47.2673 19.9288 47.2735 19.9148 47.2863C19.9008 47.299 19.8917 47.3172 19.8893 47.3373L19.7841 48.2902C19.7811 48.3402 19.7959 48.3894 19.8253 48.4272C19.8547 48.4649 19.8962 48.488 19.9407 48.4915C20.3161 48.5116 20.4967 48.4995 20.9701 48.5291C21.2619 48.5478 21.8346 48.6176 22.2351 48.5733C22.6357 48.529 22.5867 48.0862 22.4145 48.0647C22.0032 48.0124 21.458 47.6742 21.2021 47.4165C21.1568 47.3733 21.1 47.3483 21.0407 47.3453Z" fill="#2E353A"/>
<path d="M21.3712 47.5521C21.2852 47.5434 21.2002 47.5245 21.1177 47.4957C21.1135 47.4945 21.1097 47.492 21.1067 47.4884C21.1038 47.4848 21.1018 47.4804 21.101 47.4756C21.1007 47.4706 21.1016 47.4657 21.1035 47.4613C21.1054 47.4568 21.1082 47.453 21.1118 47.4501C21.144 47.4286 21.4274 47.2394 21.5422 47.2984C21.555 47.3054 21.5661 47.316 21.5742 47.3292C21.5824 47.3423 21.5874 47.3576 21.5888 47.3736C21.5946 47.3974 21.5944 47.4225 21.5883 47.4461C21.5822 47.4698 21.5703 47.4911 21.5541 47.5078C21.5002 47.5477 21.435 47.5635 21.3712 47.5521ZM21.5231 47.3494C21.4621 47.3172 21.2971 47.3964 21.1811 47.4675C21.3509 47.5172 21.4764 47.5199 21.5254 47.4742C21.5353 47.4626 21.5423 47.4484 21.5459 47.4329C21.5494 47.4174 21.5494 47.4011 21.5458 47.3856C21.5453 47.3779 21.5429 47.3704 21.5389 47.364C21.5349 47.3576 21.5294 47.3526 21.5231 47.3494Z" fill="#5B998A"/>
<path d="M21.1225 47.4958C21.1194 47.497 21.116 47.497 21.1129 47.4958C21.1068 47.491 21.1026 47.4838 21.101 47.4757C21.101 47.4663 21.101 47.1509 21.199 47.0529C21.2125 47.0404 21.2283 47.0315 21.2452 47.0266C21.2622 47.0217 21.2799 47.0211 21.297 47.0247C21.316 47.0266 21.3338 47.0355 21.3477 47.0501C21.3616 47.0647 21.3707 47.0841 21.3736 47.1052C21.3891 47.2247 21.2337 47.4394 21.1344 47.4958C21.1326 47.4968 21.1305 47.4973 21.1285 47.4973C21.1264 47.4973 21.1243 47.4968 21.1225 47.4958ZM21.2779 47.0771C21.2689 47.0763 21.2599 47.0777 21.2515 47.0812C21.243 47.0847 21.2353 47.0901 21.2289 47.0972C21.1667 47.1549 21.1512 47.3321 21.1476 47.4327C21.2403 47.3565 21.305 47.2448 21.3293 47.1187C21.3293 47.1039 21.321 47.0851 21.2887 47.0784L21.2779 47.0771Z" fill="#5B998A"/>
<path opacity="0.2" d="M20.1504 45.0799L21.101 44.9337L21.0256 46.3858L20.0763 46.4797L20.1504 45.0799Z" fill="black"/>
<path d="M20.0546 32.6805L19.8226 31.0459L14.4828 30.6876C14.4828 30.6876 13.9149 34.0884 14.3513 34.9943C15.1297 36.6114 19.3276 35.7995 20.5555 35.9538C19.8214 39.3238 19.8931 45.9093 19.8931 45.9093L21.6472 46.0596C21.6472 46.0596 22.997 38.9641 23.2697 35.5915C23.4538 33.3167 21.7739 33.373 20.0546 32.6805Z" fill="#2E353A"/>
<path d="M19.6878 46.0021L21.7957 46.1578L21.9763 45.1445L19.6603 45.0237L19.6878 46.0021Z" fill="#5B998A"/>
<path d="M22.2137 46.6717L23.1727 46.7509L23.7729 44.2962L22.8152 44.2184L22.2137 46.6717Z" fill="#B97964"/>
<path d="M23.2674 46.6407L22.2283 46.3159C22.2112 46.3095 22.1925 46.311 22.1764 46.3201C22.1603 46.3291 22.148 46.345 22.1423 46.3642L21.8625 47.2715C21.8565 47.2957 21.8549 47.321 21.8576 47.346C21.8604 47.3709 21.8676 47.395 21.8787 47.4168C21.8898 47.4387 21.9047 47.4578 21.9224 47.4732C21.9401 47.4885 21.9604 47.4998 21.982 47.5063C22.3407 47.6123 22.5237 47.6405 22.9816 47.7828C23.2626 47.87 23.8102 48.0713 24.2107 48.1223C24.6113 48.1733 24.6448 47.7278 24.4798 47.6674C24.0876 47.5197 23.6189 47.0608 23.4144 46.7494C23.3778 46.6955 23.3259 46.6572 23.2674 46.6407Z" fill="#2E353A"/>
<path d="M23.5517 46.9212C23.4683 46.8931 23.388 46.8544 23.3125 46.8058C23.3086 46.804 23.3052 46.8008 23.3031 46.7967C23.3009 46.7925 23.3 46.7877 23.3006 46.7829C23.3009 46.778 23.3024 46.7733 23.3049 46.7693C23.3074 46.7653 23.3109 46.7621 23.3149 46.7601C23.3496 46.7467 23.6629 46.6259 23.7633 46.7132C23.7749 46.7228 23.7841 46.7357 23.79 46.7505C23.7958 46.7653 23.7982 46.7816 23.7968 46.7977C23.7983 46.8231 23.7934 46.8484 23.7826 46.8707C23.7718 46.893 23.7556 46.9115 23.7358 46.9239C23.6763 46.9488 23.6106 46.9478 23.5517 46.9212ZM23.737 46.7574C23.6832 46.7118 23.5074 46.7575 23.3783 46.7937C23.5349 46.8823 23.6581 46.9145 23.7131 46.8809C23.7251 46.8721 23.7348 46.8599 23.7413 46.8455C23.7478 46.8311 23.7508 46.8151 23.7501 46.7991C23.7514 46.7912 23.7506 46.7831 23.7478 46.7757C23.7451 46.7683 23.7405 46.762 23.7346 46.7574H23.737Z" fill="#5B998A"/>
<path d="M23.3188 46.8085H23.3044C23.3017 46.8056 23.2995 46.8021 23.2983 46.7981C23.297 46.7941 23.2967 46.7898 23.2973 46.7856C23.2973 46.7762 23.3535 46.4676 23.4706 46.3951C23.4864 46.3869 23.5035 46.3827 23.5209 46.3827C23.5382 46.3827 23.5553 46.3869 23.5711 46.3951C23.5894 46.4016 23.6054 46.4147 23.6164 46.4324C23.6274 46.4502 23.6329 46.4715 23.6321 46.4931C23.6237 46.6125 23.4324 46.787 23.3248 46.8192C23.3217 46.8165 23.3196 46.8127 23.3188 46.8085ZM23.5436 46.4354C23.535 46.4326 23.526 46.432 23.5171 46.4333C23.5083 46.4347 23.4998 46.4382 23.4922 46.4434C23.4204 46.4864 23.3726 46.6555 23.3499 46.7534C23.4479 46.7024 23.5771 46.5669 23.589 46.485C23.589 46.4703 23.589 46.4515 23.5567 46.438L23.5436 46.4354Z" fill="#5B998A"/>
<path opacity="0.2" d="M22.8151 44.2184L23.7728 44.2976L23.4296 45.7L22.4827 45.5698L22.8151 44.2184Z" fill="black"/>
<path d="M24.0983 45.527L22.41 44.97C22.41 44.97 23.4239 38.5845 24.4402 36.3701C24.3637 36.3419 24.2621 36.3056 24.1365 36.264C23.9106 36.1875 23.6105 36.0923 23.2577 35.9822C20.8043 35.2186 15.8315 33.7866 15.8315 33.7866L18.1033 31.4071C18.1033 31.4071 27.152 32.9558 27.3397 35.6319C27.4294 36.919 24.0983 45.527 24.0983 45.527Z" fill="#2E353A"/>
<path d="M22.1925 45.0114L24.2251 45.6569L24.5898 44.7081L22.3467 44.0478L22.1925 45.0114Z" fill="#5B998A"/>
<path opacity="0.2" d="M24.1411 36.2639C23.9151 36.1874 23.615 36.0922 23.2623 35.9821C23.3328 35.3325 23.334 34.5877 23.0554 34.2079C22.5018 33.451 21.0778 33.0067 20.2672 32.8457C19.5892 32.7115 17.3115 32.4431 17.3115 32.4431C17.3115 32.4431 20.2672 32.125 23.2898 33.1141C24.7772 33.6053 24.4866 35.244 24.1411 36.2639Z" fill="black"/>
<path d="M19.9565 20.8878C19.9565 20.8878 20.7313 24.1088 19.8262 31.0459C18.1391 31.0056 15.3042 30.9318 14.4828 30.9117C14.4625 29.9454 15.0974 25.2106 14.3549 20.6435C14.8895 20.54 15.4302 20.4799 15.9726 20.4637C16.7664 20.4319 17.5612 20.4512 18.3531 20.5214C18.8952 20.5971 19.4312 20.7196 19.9565 20.8878Z" fill="#5B998A"/>
<path opacity="0.7" d="M19.9565 20.8878C19.9565 20.8878 20.7313 24.1088 19.8262 31.0459C18.1391 31.0056 15.3042 30.9318 14.4828 30.9117C14.4625 29.9454 15.0974 25.2106 14.3549 20.6435C14.8895 20.54 15.4302 20.4799 15.9726 20.4637C16.7664 20.4319 17.5612 20.4512 18.3531 20.5214C18.8952 20.5971 19.4312 20.7196 19.9565 20.8878Z" fill="#FEFEFE"/>
<path opacity="0.1" d="M16.2296 26.5286C15.7513 26.4105 15.181 25.8938 14.7111 25.3838C14.7111 24.4766 14.6716 23.5116 14.5844 22.5279C15.2491 23.6324 17.0498 26.7312 16.2296 26.5286Z" fill="black"/>
<path d="M14.3513 20.6436C12.5231 21.3831 15.7322 26.9392 16.7282 27.5123C17.7242 28.0854 22.7866 26.8856 22.7866 26.8856L22.5869 25.7368C22.5869 25.7368 18.108 25.8643 17.6955 25.7475C17.283 25.6307 16.3026 23.262 15.7382 22.144C15.4245 21.4956 14.9401 20.9716 14.3513 20.6436Z" fill="#5B998A"/>
<path opacity="0.8" d="M14.3513 20.6436C12.5231 21.3831 15.7322 26.9392 16.7282 27.5123C17.7242 28.0854 22.7866 26.8856 22.7866 26.8856L22.5869 25.7368C22.5869 25.7368 18.108 25.8643 17.6955 25.7475C17.283 25.6307 16.3026 23.262 15.7382 22.144C15.4245 21.4956 14.9401 20.9716 14.3513 20.6436Z" fill="#FEFEFE"/>
<path d="M22.2283 25.6333L22.4877 27.1592L22.966 26.9754L22.7866 25.6333H22.2283Z" fill="#5B998A"/>
<path opacity="0.7" d="M22.2283 25.6333L22.4877 27.1592L22.966 26.9754L22.7866 25.6333H22.2283Z" fill="#FEFEFE"/>
<path d="M22.3574 16.3436L23.6439 15.7718L23.394 15.2793L22.2522 15.7275L22.3574 16.3436Z" fill="#5B998A"/>
<path opacity="0.7" d="M22.3574 16.3436L23.6439 15.7718L23.394 15.2793L22.2522 15.7275L22.3574 16.3436Z" fill="#FEFEFE"/>
<path opacity="0.1" d="M15.6813 20.4772C15.6813 20.4772 15.7159 21.104 16.8124 21.7079L17.5704 21.0919C17.5704 21.0919 17.7868 22.6648 17.9291 23.8391C17.9291 23.8391 17.9195 21.9602 17.7761 21.2382L18.3559 21.469C18.3559 21.469 17.8621 20.5175 17.0216 20.2987C16.1811 20.08 15.6813 20.4772 15.6813 20.4772Z" fill="black"/>
<path d="M16.2616 17.4683C16.3955 18.3313 16.515 19.9095 15.9686 20.4705L17.5648 20.9698L18.3444 20.5282C17.4943 20.2786 17.5301 19.5673 17.6916 18.903L16.2616 17.4683Z" fill="#B97964"/>
<path opacity="0.2" d="M16.8475 18.0533L17.6965 18.9029C17.6572 19.0575 17.6296 19.2155 17.614 19.3753C17.2887 19.3149 16.8487 18.9015 16.8212 18.5177C16.8042 18.3624 16.8132 18.205 16.8475 18.0533Z" fill="black"/>
<path d="M17.3939 15.0699C17.046 15.494 17.3461 15.9785 18.4569 16.5677C18.7211 15.9141 18.5597 14.823 18.201 14.6324C17.8423 14.4418 17.6976 14.7022 17.3939 15.0699Z" fill="#2E353A"/>
<path d="M15.7955 16.4039C16.0777 17.5272 16.1925 18.1996 16.8166 18.6599C17.7564 19.3511 18.9078 18.5257 18.9305 17.33C18.9496 16.2563 18.4857 14.5989 17.4061 14.3881C17.1684 14.3405 16.9239 14.3617 16.6956 14.4498C16.4674 14.5379 16.2629 14.69 16.1016 14.8916C15.9403 15.0931 15.8276 15.3376 15.774 15.6018C15.7204 15.866 15.7278 16.1412 15.7955 16.4012V16.4039Z" fill="#B97964"/>
<path d="M17.3698 16.3478C17.3878 16.4405 17.4464 16.5049 17.5002 16.4915C17.554 16.478 17.5827 16.3935 17.5647 16.3009C17.5468 16.2083 17.4894 16.1439 17.4356 16.1559C17.3818 16.168 17.3579 16.2552 17.3698 16.3478Z" fill="#2E353A"/>
<path d="M18.3089 16.1209C18.3269 16.2135 18.3854 16.2779 18.4393 16.2645C18.4931 16.2511 18.5229 16.1665 18.505 16.0726C18.4871 15.9786 18.4285 15.9156 18.3747 15.929C18.3209 15.9424 18.291 16.0283 18.3089 16.1209Z" fill="#2E353A"/>
<path d="M18.0114 16.2391C18.1641 16.4987 18.3484 16.7332 18.559 16.9356C18.5112 16.9945 18.4525 17.041 18.387 17.0718C18.3216 17.1027 18.2509 17.1171 18.1799 17.1141L18.0114 16.2391Z" fill="#A24E3F"/>
<path d="M17.05 16.0779C17.0411 16.0816 17.0314 16.0822 17.0223 16.0796C17.0131 16.077 17.0048 16.0713 16.9986 16.0633C16.9923 16.0553 16.9884 16.0453 16.9874 16.0347C16.9863 16.0242 16.9881 16.0135 16.9926 16.0041C17.0239 15.9228 17.0722 15.8512 17.1334 15.7954C17.1946 15.7396 17.2669 15.7011 17.3441 15.6833C17.3566 15.6809 17.3695 15.6841 17.3799 15.6921C17.3904 15.7001 17.3977 15.7124 17.4003 15.7263C17.4018 15.7408 17.3982 15.7554 17.3905 15.7671C17.3827 15.7788 17.3713 15.7867 17.3585 15.7894C17.2978 15.8045 17.2412 15.8356 17.1934 15.8802C17.1455 15.9248 17.1079 15.9815 17.0835 16.0457C17.0806 16.0537 17.0761 16.0608 17.0703 16.0664C17.0644 16.072 17.0575 16.0759 17.05 16.0779Z" fill="#2E353A"/>
<path d="M18.6678 15.6619C18.6586 15.6645 18.6489 15.664 18.64 15.6604C18.631 15.6568 18.6233 15.6503 18.6176 15.6418C18.5805 15.5857 18.5322 15.5402 18.4765 15.509C18.4208 15.4777 18.3594 15.4616 18.2972 15.4619C18.284 15.4631 18.271 15.4583 18.261 15.4488C18.2509 15.4393 18.2446 15.4257 18.2434 15.4109C18.2426 15.3965 18.2468 15.3822 18.255 15.3711C18.2632 15.3599 18.2748 15.3525 18.2876 15.3505C18.3665 15.3485 18.4446 15.3677 18.5155 15.4065C18.5864 15.4452 18.6481 15.5024 18.6953 15.5733C18.6994 15.579 18.7024 15.5856 18.7041 15.5926C18.7059 15.5996 18.7064 15.607 18.7057 15.6142C18.7049 15.6215 18.7028 15.6285 18.6996 15.6348C18.6964 15.6411 18.6921 15.6467 18.687 15.6512C18.6815 15.6565 18.6749 15.6602 18.6678 15.6619Z" fill="#2E353A"/>
<path d="M16.011 15.2996C16.5204 15.3667 16.573 15.9545 16.0708 17.212C15.4909 16.9087 14.9804 15.9612 15.1442 15.5559C15.308 15.1506 15.5603 15.2392 16.011 15.2996Z" fill="#2E353A"/>
<path d="M15.4879 17.4323C15.5492 17.5605 15.6323 17.6739 15.7326 17.766C15.833 17.8581 15.9485 17.9271 16.0726 17.9691C16.405 18.0778 16.5748 17.745 16.4863 17.3907C16.4062 17.0712 16.136 16.6297 15.8012 16.6767C15.4664 16.7236 15.3373 17.1142 15.4879 17.4323Z" fill="#B97964"/>
<path d="M15.1835 15.4593C15.1835 15.4593 14.9312 15.0942 15.4227 14.3641C15.9141 13.6341 17.1145 13.4099 18.0352 13.6112C18.9558 13.8126 18.4082 14.9533 18.0794 15.1425L18.12 14.964C17.7681 15.1701 17.3806 15.2882 16.9842 15.3103L17.1659 15.1211C17.1659 15.1211 15.7216 15.5411 15.1835 15.4593Z" fill="#2E353A"/>
<path d="M18.1187 17.4225C18.0978 17.5605 18.0862 17.7 18.084 17.8399L18.0195 17.8506C17.7229 17.8949 17.5735 17.805 17.497 17.6936C17.4606 17.6376 17.4365 17.5728 17.4264 17.5044C17.4215 17.4657 17.4215 17.4264 17.4264 17.3876C17.6203 17.4519 17.8242 17.4684 18.0242 17.4359C18.0792 17.4306 18.1187 17.4225 18.1187 17.4225Z" fill="#2E353A"/>
<path d="M18.0171 17.4359L18.0039 17.5594C17.7265 17.5997 17.5257 17.5863 17.4264 17.5044C17.4215 17.4657 17.4215 17.4264 17.4264 17.3876C17.618 17.4507 17.8194 17.4672 18.0171 17.4359Z" fill="#FEFEFE"/>
<path d="M18.0193 17.8495C17.7228 17.8938 17.5733 17.8039 17.4968 17.6925C17.6092 17.6782 17.723 17.6864 17.8328 17.7167C17.9059 17.7378 17.9712 17.7843 18.0193 17.8495Z" fill="#A24E3F"/>
<path d="M16.2497 19.9404C16.2497 19.9404 17.113 20.6678 17.5649 20.8356C17.5649 20.8356 17.7777 20.3873 17.6905 20.0169L18.3445 20.5283C18.418 20.836 18.418 21.16 18.3445 21.4677L17.5649 20.9698L16.8284 21.5737C16.8284 21.5737 15.7392 21.2194 15.6758 20.4773L16.2497 19.9404Z" fill="#5B998A"/>
<path opacity="0.8" d="M16.2497 19.9404C16.2497 19.9404 17.113 20.6678 17.5649 20.8356C17.5649 20.8356 17.7777 20.3873 17.6905 20.0169L18.3445 20.5283C18.418 20.836 18.418 21.16 18.3445 21.4677L17.5649 20.9698L16.8284 21.5737C16.8284 21.5737 15.7392 21.2194 15.6758 20.4773L16.2497 19.9404Z" fill="#FEFEFE"/>
<path d="M30.4982 26.8237H18.5812C18.5039 26.8237 18.4413 26.894 18.4413 26.9808V27.374C18.4413 27.4607 18.5039 27.531 18.5812 27.531H30.4982C30.5755 27.531 30.6381 27.4607 30.6381 27.374V26.9808C30.6381 26.894 30.5755 26.8237 30.4982 26.8237Z" fill="#5B998A"/>
<path opacity="0.5" d="M30.598 26.9622V27.3554C30.598 27.4427 30.5765 27.5125 30.5 27.5125H18.5817C18.504 27.5125 18.4023 27.4427 18.4023 27.3554V26.9622C18.4023 26.8763 18.504 26.8414 18.5817 26.8414H30.5C30.5765 26.8414 30.598 26.8763 30.598 26.9622Z" fill="#FEFEFE"/>
<path opacity="0.2" d="M23.4241 26.9622V27.3554C23.4241 27.4427 23.3978 27.5125 23.3213 27.5125H18.5817C18.504 27.5125 18.4023 27.4427 18.4023 27.3554V26.9622C18.4023 26.8763 18.504 26.8414 18.5817 26.8414H23.3213C23.3978 26.8414 23.4241 26.8763 23.4241 26.9622Z" fill="black"/>
<path d="M20.7171 7.26454C20.6141 6.84549 20.418 6.46267 20.1472 6.15195C19.8763 5.84123 19.5396 5.61279 19.1686 5.48804C18.7976 5.3633 18.4045 5.34634 18.0261 5.43874C17.6476 5.53114 17.2963 5.72989 17.005 6.01636C16.7137 6.30282 16.492 6.66761 16.3606 7.07655C16.2292 7.48548 16.1925 7.92516 16.2539 8.35437C16.3153 8.78359 16.4727 9.18827 16.7116 9.5305C16.9504 9.87274 17.2627 10.1413 17.6192 10.311C17.7724 10.3816 17.896 10.515 17.9648 10.6841L18.0425 10.8814L20.2437 10.2104L20.2209 9.99565C20.2051 9.8095 20.2516 9.6234 20.3513 9.47358C20.5564 9.16001 20.6959 8.79851 20.7592 8.41602C20.8226 8.03353 20.8082 7.63992 20.7171 7.26454Z" fill="#5B998A"/>
<path d="M18.761 10.8868C18.761 10.8868 18.4298 9.72053 17.8451 9.20384L18.1691 9.10453L18.1942 8.54488L18.7239 9.40515L18.6809 8.35834L19.2034 9.31255L19.256 8.77572L19.7187 8.64151C19.4655 9.27973 19.4203 9.99749 19.5907 10.6694" stroke="#FEFEFE" stroke-linecap="round" stroke-linejoin="round"/>
<path d="M19.1773 10.6909C18.7875 10.8103 18.5699 11.3136 18.6919 11.8142C18.8138 12.3148 19.2275 12.6194 19.6173 12.504C20.0071 12.3886 20.2235 11.8826 20.1027 11.382C19.982 10.8815 19.5671 10.5728 19.1773 10.6909Z" fill="#2E353A"/>
<path d="M19.928 12.0435L19.1436 12.2838C18.9563 12.341 18.7565 12.3167 18.5845 12.2156C18.4124 12.1146 18.2808 11.9443 18.2158 11.7389L17.9587 10.9243C17.9536 10.9082 17.9515 10.891 17.9525 10.874C17.9536 10.8569 17.9578 10.8403 17.9649 10.8252C17.972 10.81 17.9818 10.7967 17.9937 10.786C18.0056 10.7754 18.0193 10.7676 18.0341 10.7632L20.1958 10.1016C20.2105 10.097 20.2259 10.0959 20.241 10.0984C20.2561 10.1009 20.2706 10.1068 20.2835 10.1159C20.2964 10.125 20.3075 10.137 20.3161 10.1512C20.3247 10.1653 20.3305 10.1814 20.3333 10.1982L20.4804 11.045C20.5174 11.259 20.4811 11.4808 20.3787 11.6659C20.2762 11.8511 20.1152 11.986 19.928 12.0435Z" fill="#5B998A"/>
<path opacity="0.4" d="M19.928 12.0435L19.1436 12.2838C18.9563 12.341 18.7565 12.3167 18.5845 12.2156C18.4124 12.1146 18.2808 11.9443 18.2158 11.7389L17.9587 10.9243C17.9536 10.9082 17.9515 10.891 17.9525 10.874C17.9536 10.8569 17.9578 10.8403 17.9649 10.8252C17.972 10.81 17.9818 10.7967 17.9937 10.786C18.0056 10.7754 18.0193 10.7676 18.0341 10.7632L20.1958 10.1016C20.2105 10.097 20.2259 10.0959 20.241 10.0984C20.2561 10.1009 20.2706 10.1068 20.2835 10.1159C20.2964 10.125 20.3075 10.137 20.3161 10.1512C20.3247 10.1653 20.3305 10.1814 20.3333 10.1982L20.4804 11.045C20.5174 11.259 20.4811 11.4808 20.3787 11.6659C20.2762 11.8511 20.1152 11.986 19.928 12.0435Z" fill="#FEFEFE"/>
<path d="M15.4582 9.83047C15.244 9.78629 15.0267 9.76339 14.8089 9.76202C14.7007 9.76129 14.5925 9.76802 14.4849 9.78216C14.4311 9.79155 14.3773 9.79826 14.3259 9.81302C14.2996 9.82108 14.2733 9.8251 14.2482 9.83584L14.1729 9.86268L14.0868 9.89355L14.1382 9.809C14.2832 9.56801 14.3986 9.30619 14.4813 9.0306C14.5225 8.8939 14.5525 8.7533 14.571 8.61053C14.5801 8.53981 14.5857 8.46857 14.5878 8.39714C14.5913 8.32607 14.5913 8.25483 14.5878 8.18376C14.5832 8.11339 14.5744 8.04344 14.5614 7.97439L14.5387 7.8724L14.5088 7.77174C14.4876 7.70594 14.4616 7.6422 14.4311 7.58117C14.4017 7.51961 14.3686 7.46042 14.3319 7.40402C14.2949 7.34772 14.255 7.29395 14.2123 7.24297L14.1466 7.16781L14.0748 7.09802C14.0282 7.04971 13.9732 7.01213 13.9242 6.96382C13.8751 6.9155 13.8166 6.88866 13.7628 6.84974L13.6432 6.76117L13.7759 6.69004C13.8393 6.65514 13.9062 6.61354 13.9696 6.57059C14.033 6.52765 14.0963 6.48336 14.1585 6.43639C14.2817 6.3421 14.3988 6.23805 14.5088 6.12503C14.5626 6.06866 14.6153 6.01095 14.6667 5.95056C14.7181 5.89017 14.7647 5.82575 14.8089 5.76133C14.8532 5.69691 14.8962 5.62712 14.9285 5.55868C14.9671 5.49006 15.0019 5.41879 15.0325 5.34529C15.0641 5.27227 15.0913 5.19695 15.1138 5.11982L15.1449 5.0044L15.1676 4.88496C15.181 4.80612 15.189 4.72626 15.1916 4.64607C15.1979 4.48428 15.185 4.32225 15.1533 4.16427L15.1294 4.04483L15.0959 3.92807C15.0756 3.84888 15.0433 3.77507 15.017 3.69857C14.9907 3.62207 14.9524 3.55095 14.9201 3.47579L14.7492 3.07317L15.0768 3.30937C15.1342 3.35232 15.1963 3.39392 15.2645 3.43284C15.3326 3.47176 15.396 3.50934 15.463 3.54289C15.5963 3.61279 15.7337 3.67243 15.8743 3.72139C15.9448 3.7442 16.0154 3.76568 16.0859 3.78312C16.1565 3.80121 16.2279 3.81465 16.2999 3.82338C16.3709 3.83361 16.4424 3.83854 16.514 3.83815C16.5847 3.83755 16.6554 3.83217 16.7256 3.82204L16.8284 3.80191L16.93 3.77104C16.9957 3.74686 17.0596 3.71725 17.1213 3.68247C17.1521 3.66585 17.1817 3.64656 17.2098 3.62476C17.2398 3.6052 17.2682 3.58275 17.2947 3.55766C17.3496 3.50972 17.4015 3.45771 17.4501 3.40198C17.498 3.34406 17.5423 3.28263 17.5829 3.21811C17.625 3.15326 17.663 3.08508 17.6965 3.01412C17.7335 2.94567 17.7586 2.86783 17.7909 2.79536C17.8232 2.72289 17.8423 2.64237 17.8686 2.56587L18.0181 2.12567L18.0922 2.58466C18.1047 2.65973 18.1219 2.73372 18.1436 2.8061C18.2067 3.03055 18.3029 3.2415 18.4282 3.43016C18.5108 3.55334 18.6086 3.6627 18.7187 3.75494C18.773 3.80136 18.8306 3.84266 18.8909 3.87841C18.9512 3.91517 19.014 3.94658 19.0786 3.97235C19.1435 3.99779 19.2098 4.01841 19.2771 4.03409C19.3454 4.04952 19.4145 4.06027 19.484 4.0663C19.5537 4.07033 19.6235 4.07033 19.6932 4.0663C19.7637 4.0663 19.8343 4.05556 19.9048 4.04885C19.9754 4.04214 20.0459 4.02335 20.1153 4.01127L20.3245 3.95491L20.5313 3.88512L20.7358 3.80325L21.0192 3.68918L20.8566 3.97235C20.8267 4.02201 20.7968 4.0824 20.7693 4.14011C20.7418 4.19782 20.7167 4.25687 20.6928 4.31861C20.6457 4.43895 20.6085 4.56382 20.5816 4.6917C20.5548 4.81788 20.5416 4.94718 20.5421 5.07687C20.5434 5.20399 20.5632 5.33002 20.6007 5.44997L20.633 5.53854L20.6736 5.63652C20.7029 5.69093 20.7361 5.74255 20.7729 5.79085C20.8098 5.83878 20.8497 5.88364 20.8924 5.92506C20.9367 5.96825 20.9834 6.00815 21.0323 6.0445C21.0808 6.08163 21.1311 6.11568 21.183 6.1465C21.2344 6.17871 21.2894 6.20287 21.3432 6.23239L21.5106 6.30352L21.6828 6.36391L21.8023 6.40686L21.7019 6.4941C21.6343 6.55303 21.5707 6.61763 21.5118 6.68735C21.4522 6.75724 21.3971 6.83168 21.3468 6.91014C21.3193 6.94906 21.2978 6.99066 21.2738 7.03092C21.2508 7.07148 21.23 7.11361 21.2117 7.15708C21.1907 7.2 21.1731 7.2449 21.1591 7.29128C21.1425 7.33465 21.1293 7.37956 21.1196 7.42549C21.1112 7.47246 21.0969 7.51809 21.0921 7.5597L21.0801 7.7033C21.0801 7.75161 21.0801 7.79993 21.0873 7.84824C21.0897 7.89641 21.0969 7.94413 21.1088 7.9905C21.1167 8.0362 21.1279 8.08109 21.1423 8.12471L21.1913 8.25891C21.2078 8.30572 21.2282 8.35066 21.2523 8.39312L21.3193 8.52733L21.3444 8.5743H21.2978C21.1209 8.57482 20.9449 8.60098 20.7741 8.65214C20.6885 8.67758 20.6058 8.71406 20.5278 8.76084C20.5083 8.77253 20.4896 8.78553 20.4716 8.79976C20.4521 8.81209 20.4341 8.82695 20.4178 8.84405C20.3999 8.8587 20.3832 8.87485 20.3675 8.89237L20.3209 8.94739L20.3651 8.88968C20.3796 8.8706 20.3956 8.85308 20.413 8.83734C20.4292 8.81948 20.4468 8.80331 20.4656 8.78903C20.4835 8.77561 20.5015 8.7595 20.5206 8.74742C20.5979 8.6954 20.6801 8.65309 20.7657 8.62127C20.9378 8.5585 21.1169 8.52282 21.2978 8.51525L21.2774 8.56222L21.2033 8.42801C21.1764 8.38589 21.1532 8.34094 21.134 8.29381L21.0778 8.1596C21.0599 8.11201 21.0463 8.06256 21.0371 8.01197C21.0222 7.96289 21.0125 7.91197 21.0084 7.86032C21.0084 7.80932 20.9976 7.75698 20.9964 7.70598V7.54896C20.9964 7.49796 21.0132 7.44696 21.0204 7.39596C21.0295 7.34478 21.0423 7.29451 21.0586 7.24565C21.0717 7.19564 21.0889 7.14712 21.11 7.10071C21.128 7.05444 21.1488 7.0096 21.1722 6.9665C21.194 6.92036 21.2179 6.87556 21.244 6.8323C21.2955 6.74669 21.3527 6.6655 21.4149 6.58938C21.4773 6.51167 21.5448 6.43943 21.617 6.37331L21.6397 6.50752L21.4592 6.44981L21.281 6.37868C21.2224 6.35049 21.1614 6.325 21.1064 6.29144C21.0491 6.26005 20.9936 6.22463 20.9403 6.18542C20.8856 6.14688 20.8332 6.10429 20.7836 6.05792C20.7345 6.01127 20.6889 5.96009 20.6473 5.90493C20.6027 5.84962 20.5627 5.78987 20.5278 5.72643L20.4787 5.6298L20.4393 5.52647C20.3932 5.38983 20.3674 5.24567 20.3628 5.09969C20.358 4.95324 20.3697 4.80671 20.3974 4.66352C20.424 4.52272 20.4616 4.38485 20.5098 4.2515C20.5337 4.1844 20.56 4.1173 20.5887 4.05556C20.6174 3.99383 20.6473 3.92941 20.6844 3.86365L20.8039 4.03275L20.5911 4.11998L20.3747 4.19514C20.3006 4.21795 20.2264 4.23674 20.1523 4.25687C20.0782 4.277 20.0029 4.28908 19.9263 4.29848C19.8498 4.31035 19.7728 4.31752 19.6956 4.31995C19.6159 4.32488 19.5361 4.32488 19.4565 4.31995C19.3786 4.3136 19.3011 4.30195 19.2245 4.28506C19.1472 4.26761 19.0709 4.24475 18.9961 4.21661C18.9215 4.18681 18.8488 4.15138 18.7785 4.11059C18.7078 4.06939 18.6403 4.02182 18.5765 3.96833C18.449 3.86293 18.3354 3.73777 18.2393 3.59658C18.1438 3.45752 18.0635 3.30613 18.0001 3.14564C17.9678 3.06605 17.9395 2.98451 17.9153 2.90139C17.8894 2.81669 17.8687 2.73016 17.8531 2.64237L18.0767 2.66116C18.0492 2.74436 18.0241 2.82891 17.9942 2.91078C17.9635 2.99363 17.9292 3.0747 17.8913 3.15369C17.8565 3.23418 17.8165 3.31177 17.7718 3.38587C17.7249 3.46105 17.6738 3.53277 17.6187 3.6006C17.5617 3.66752 17.5001 3.72943 17.4346 3.78581C17.4023 3.81495 17.3679 3.84099 17.3318 3.86365C17.2973 3.88948 17.2613 3.91279 17.2242 3.93343C17.1498 3.97498 17.0726 4.00998 16.9934 4.03811L16.8738 4.07167L16.7543 4.09582C16.675 4.10715 16.5951 4.11208 16.5151 4.11059C16.4352 4.11076 16.3553 4.10493 16.276 4.09314C16.1956 4.08242 16.1158 4.06674 16.0369 4.04617C15.9592 4.02738 15.8826 4.00322 15.8073 3.97638C15.6575 3.92375 15.5113 3.85917 15.3697 3.78312C15.298 3.74689 15.2286 3.70662 15.1605 3.66502C15.0923 3.62342 15.0254 3.57913 14.9548 3.53081L15.1115 3.37111C15.1461 3.45163 15.1832 3.52947 15.2143 3.61268C15.2463 3.69469 15.2746 3.77845 15.2992 3.86365L15.335 3.99785L15.3613 4.13206C15.3774 4.22077 15.3894 4.31037 15.3972 4.40047C15.4019 4.48987 15.4019 4.57949 15.3972 4.66889C15.3936 4.75903 15.384 4.84875 15.3685 4.9373L15.3422 5.07151L15.3063 5.20571C15.2802 5.29202 15.2491 5.3763 15.2131 5.45802C15.1782 5.53936 15.1382 5.61784 15.0935 5.69288C15.0498 5.76623 15.0027 5.83701 14.9524 5.90493C14.901 5.97472 14.8484 6.03913 14.7934 6.1049C14.7384 6.17066 14.6798 6.22837 14.6212 6.28742C14.502 6.40255 14.3762 6.5088 14.2446 6.60549C14.1784 6.6538 14.1115 6.69854 14.0437 6.73969C13.9744 6.78264 13.9062 6.8229 13.8309 6.86048L13.8393 6.70077C13.8955 6.74372 13.9588 6.78264 14.0091 6.82693C14.0593 6.87122 14.1191 6.91685 14.1681 6.97053L14.2446 7.04837L14.3151 7.13158C14.3611 7.18878 14.4042 7.24882 14.4443 7.31141C14.4838 7.37522 14.5194 7.44203 14.5507 7.51138C14.5824 7.5797 14.6096 7.65058 14.632 7.72343L14.6619 7.83482L14.6834 7.94755C14.6961 8.02334 14.7041 8.10002 14.7073 8.17705C14.7158 8.48117 14.6686 8.78401 14.5686 9.06683C14.4734 9.34694 14.3451 9.61144 14.1872 9.85329L14.1525 9.7996L14.2326 9.7741C14.2601 9.76471 14.2876 9.76068 14.3151 9.75397C14.3689 9.74055 14.424 9.73653 14.479 9.72847C14.5889 9.72111 14.699 9.72111 14.8089 9.72847C15.0276 9.74149 15.2448 9.77561 15.4582 9.83047Z" fill="#5B998A"/>
<path opacity="0.7" d="M15.4582 9.83047C15.244 9.78629 15.0267 9.76339 14.8089 9.76202C14.7007 9.76129 14.5925 9.76802 14.4849 9.78216C14.4311 9.79155 14.3773 9.79826 14.3259 9.81302C14.2996 9.82108 14.2733 9.8251 14.2482 9.83584L14.1729 9.86268L14.0868 9.89355L14.1382 9.809C14.2832 9.56801 14.3986 9.30619 14.4813 9.0306C14.5225 8.8939 14.5525 8.7533 14.571 8.61053C14.5801 8.53981 14.5857 8.46857 14.5878 8.39714C14.5913 8.32607 14.5913 8.25483 14.5878 8.18376C14.5832 8.11339 14.5744 8.04344 14.5614 7.97439L14.5387 7.8724L14.5088 7.77174C14.4876 7.70594 14.4616 7.6422 14.4311 7.58117C14.4017 7.51961 14.3686 7.46042 14.3319 7.40402C14.2949 7.34772 14.255 7.29395 14.2123 7.24297L14.1466 7.16781L14.0748 7.09802C14.0282 7.04971 13.9732 7.01213 13.9242 6.96382C13.8751 6.9155 13.8166 6.88866 13.7628 6.84974L13.6432 6.76117L13.7759 6.69004C13.8393 6.65514 13.9062 6.61354 13.9696 6.57059C14.033 6.52765 14.0963 6.48336 14.1585 6.43639C14.2817 6.3421 14.3988 6.23805 14.5088 6.12503C14.5626 6.06866 14.6153 6.01095 14.6667 5.95056C14.7181 5.89017 14.7647 5.82575 14.8089 5.76133C14.8532 5.69691 14.8962 5.62712 14.9285 5.55868C14.9671 5.49006 15.0019 5.41879 15.0325 5.34529C15.0641 5.27227 15.0913 5.19695 15.1138 5.11982L15.1449 5.0044L15.1676 4.88496C15.181 4.80612 15.189 4.72626 15.1916 4.64607C15.1979 4.48428 15.185 4.32225 15.1533 4.16427L15.1294 4.04483L15.0959 3.92807C15.0756 3.84888 15.0433 3.77507 15.017 3.69857C14.9907 3.62207 14.9524 3.55095 14.9201 3.47579L14.7492 3.07317L15.0768 3.30937C15.1342 3.35232 15.1963 3.39392 15.2645 3.43284C15.3326 3.47176 15.396 3.50934 15.463 3.54289C15.5963 3.61279 15.7337 3.67243 15.8743 3.72139C15.9448 3.7442 16.0154 3.76568 16.0859 3.78312C16.1565 3.80121 16.2279 3.81465 16.2999 3.82338C16.3709 3.83361 16.4424 3.83854 16.514 3.83815C16.5847 3.83755 16.6554 3.83217 16.7256 3.82204L16.8284 3.80191L16.93 3.77104C16.9957 3.74686 17.0596 3.71725 17.1213 3.68247C17.1521 3.66585 17.1817 3.64656 17.2098 3.62476C17.2398 3.6052 17.2682 3.58275 17.2947 3.55766C17.3496 3.50972 17.4015 3.45771 17.4501 3.40198C17.498 3.34406 17.5423 3.28263 17.5829 3.21811C17.625 3.15326 17.663 3.08508 17.6965 3.01412C17.7335 2.94567 17.7586 2.86783 17.7909 2.79536C17.8232 2.72289 17.8423 2.64237 17.8686 2.56587L18.0181 2.12567L18.0922 2.58466C18.1047 2.65973 18.1219 2.73372 18.1436 2.8061C18.2067 3.03055 18.3029 3.2415 18.4282 3.43016C18.5108 3.55334 18.6086 3.6627 18.7187 3.75494C18.773 3.80136 18.8306 3.84266 18.8909 3.87841C18.9512 3.91517 19.014 3.94658 19.0786 3.97235C19.1435 3.99779 19.2098 4.01841 19.2771 4.03409C19.3454 4.04952 19.4145 4.06027 19.484 4.0663C19.5537 4.07033 19.6235 4.07033 19.6932 4.0663C19.7637 4.0663 19.8343 4.05556 19.9048 4.04885C19.9754 4.04214 20.0459 4.02335 20.1153 4.01127L20.3245 3.95491L20.5313 3.88512L20.7358 3.80325L21.0192 3.68918L20.8566 3.97235C20.8267 4.02201 20.7968 4.0824 20.7693 4.14011C20.7418 4.19782 20.7167 4.25687 20.6928 4.31861C20.6457 4.43895 20.6085 4.56382 20.5816 4.6917C20.5548 4.81788 20.5416 4.94718 20.5421 5.07687C20.5434 5.20399 20.5632 5.33002 20.6007 5.44997L20.633 5.53854L20.6736 5.63652C20.7029 5.69093 20.7361 5.74255 20.7729 5.79085C20.8098 5.83878 20.8497 5.88364 20.8924 5.92506C20.9367 5.96825 20.9834 6.00815 21.0323 6.0445C21.0808 6.08163 21.1311 6.11568 21.183 6.1465C21.2344 6.17871 21.2894 6.20287 21.3432 6.23239L21.5106 6.30352L21.6828 6.36391L21.8023 6.40686L21.7019 6.4941C21.6343 6.55303 21.5707 6.61763 21.5118 6.68735C21.4522 6.75724 21.3971 6.83168 21.3468 6.91014C21.3193 6.94906 21.2978 6.99066 21.2738 7.03092C21.2508 7.07148 21.23 7.11361 21.2117 7.15708C21.1907 7.2 21.1731 7.2449 21.1591 7.29128C21.1425 7.33465 21.1293 7.37956 21.1196 7.42549C21.1112 7.47246 21.0969 7.51809 21.0921 7.5597L21.0801 7.7033C21.0801 7.75161 21.0801 7.79993 21.0873 7.84824C21.0897 7.89641 21.0969 7.94413 21.1088 7.9905C21.1167 8.0362 21.1279 8.08109 21.1423 8.12471L21.1913 8.25891C21.2078 8.30572 21.2282 8.35066 21.2523 8.39312L21.3193 8.52733L21.3444 8.5743H21.2978C21.1209 8.57482 20.9449 8.60098 20.7741 8.65214C20.6885 8.67758 20.6058 8.71406 20.5278 8.76084C20.5083 8.77253 20.4896 8.78553 20.4716 8.79976C20.4521 8.81209 20.4341 8.82695 20.4178 8.84405C20.3999 8.8587 20.3832 8.87485 20.3675 8.89237L20.3209 8.94739L20.3651 8.88968C20.3796 8.8706 20.3956 8.85308 20.413 8.83734C20.4292 8.81948 20.4468 8.80331 20.4656 8.78903C20.4835 8.77561 20.5015 8.7595 20.5206 8.74742C20.5979 8.6954 20.6801 8.65309 20.7657 8.62127C20.9378 8.5585 21.1169 8.52282 21.2978 8.51525L21.2774 8.56222L21.2033 8.42801C21.1764 8.38589 21.1532 8.34094 21.134 8.29381L21.0778 8.1596C21.0599 8.11201 21.0463 8.06256 21.0371 8.01197C21.0222 7.96289 21.0125 7.91197 21.0084 7.86032C21.0084 7.80932 20.9976 7.75698 20.9964 7.70598V7.54896C20.9964 7.49796 21.0132 7.44696 21.0204 7.39596C21.0295 7.34478 21.0423 7.29451 21.0586 7.24565C21.0717 7.19564 21.0889 7.14712 21.11 7.10071C21.128 7.05444 21.1488 7.0096 21.1722 6.9665C21.194 6.92036 21.2179 6.87556 21.244 6.8323C21.2955 6.74669 21.3527 6.6655 21.4149 6.58938C21.4773 6.51167 21.5448 6.43943 21.617 6.37331L21.6397 6.50752L21.4592 6.44981L21.281 6.37868C21.2224 6.35049 21.1614 6.325 21.1064 6.29144C21.0491 6.26005 20.9936 6.22463 20.9403 6.18542C20.8856 6.14688 20.8332 6.10429 20.7836 6.05792C20.7345 6.01127 20.6889 5.96009 20.6473 5.90493C20.6027 5.84962 20.5627 5.78987 20.5278 5.72643L20.4787 5.6298L20.4393 5.52647C20.3932 5.38983 20.3674 5.24567 20.3628 5.09969C20.358 4.95324 20.3697 4.80671 20.3974 4.66352C20.424 4.52272 20.4616 4.38485 20.5098 4.2515C20.5337 4.1844 20.56 4.1173 20.5887 4.05556C20.6174 3.99383 20.6473 3.92941 20.6844 3.86365L20.8039 4.03275L20.5911 4.11998L20.3747 4.19514C20.3006 4.21795 20.2264 4.23674 20.1523 4.25687C20.0782 4.277 20.0029 4.28908 19.9263 4.29848C19.8498 4.31035 19.7728 4.31752 19.6956 4.31995C19.6159 4.32488 19.5361 4.32488 19.4565 4.31995C19.3786 4.3136 19.3011 4.30195 19.2245 4.28506C19.1472 4.26761 19.0709 4.24475 18.9961 4.21661C18.9215 4.18681 18.8488 4.15138 18.7785 4.11059C18.7078 4.06939 18.6403 4.02182 18.5765 3.96833C18.449 3.86293 18.3354 3.73777 18.2393 3.59658C18.1438 3.45752 18.0635 3.30613 18.0001 3.14564C17.9678 3.06605 17.9395 2.98451 17.9153 2.90139C17.8894 2.81669 17.8687 2.73016 17.8531 2.64237L18.0767 2.66116C18.0492 2.74436 18.0241 2.82891 17.9942 2.91078C17.9635 2.99363 17.9292 3.0747 17.8913 3.15369C17.8565 3.23418 17.8165 3.31177 17.7718 3.38587C17.7249 3.46105 17.6738 3.53277 17.6187 3.6006C17.5617 3.66752 17.5001 3.72943 17.4346 3.78581C17.4023 3.81495 17.3679 3.84099 17.3318 3.86365C17.2973 3.88948 17.2613 3.91279 17.2242 3.93343C17.1498 3.97498 17.0726 4.00998 16.9934 4.03811L16.8738 4.07167L16.7543 4.09582C16.675 4.10715 16.5951 4.11208 16.5151 4.11059C16.4352 4.11076 16.3553 4.10493 16.276 4.09314C16.1956 4.08242 16.1158 4.06674 16.0369 4.04617C15.9592 4.02738 15.8826 4.00322 15.8073 3.97638C15.6575 3.92375 15.5113 3.85917 15.3697 3.78312C15.298 3.74689 15.2286 3.70662 15.1605 3.66502C15.0923 3.62342 15.0254 3.57913 14.9548 3.53081L15.1115 3.37111C15.1461 3.45163 15.1832 3.52947 15.2143 3.61268C15.2463 3.69469 15.2746 3.77845 15.2992 3.86365L15.335 3.99785L15.3613 4.13206C15.3774 4.22077 15.3894 4.31037 15.3972 4.40047C15.4019 4.48987 15.4019 4.57949 15.3972 4.66889C15.3936 4.75903 15.384 4.84875 15.3685 4.9373L15.3422 5.07151L15.3063 5.20571C15.2802 5.29202 15.2491 5.3763 15.2131 5.45802C15.1782 5.53936 15.1382 5.61784 15.0935 5.69288C15.0498 5.76623 15.0027 5.83701 14.9524 5.90493C14.901 5.97472 14.8484 6.03913 14.7934 6.1049C14.7384 6.17066 14.6798 6.22837 14.6212 6.28742C14.502 6.40255 14.3762 6.5088 14.2446 6.60549C14.1784 6.6538 14.1115 6.69854 14.0437 6.73969C13.9744 6.78264 13.9062 6.8229 13.8309 6.86048L13.8393 6.70077C13.8955 6.74372 13.9588 6.78264 14.0091 6.82693C14.0593 6.87122 14.1191 6.91685 14.1681 6.97053L14.2446 7.04837L14.3151 7.13158C14.3611 7.18878 14.4042 7.24882 14.4443 7.31141C14.4838 7.37522 14.5194 7.44203 14.5507 7.51138C14.5824 7.5797 14.6096 7.65058 14.632 7.72343L14.6619 7.83482L14.6834 7.94755C14.6961 8.02334 14.7041 8.10002 14.7073 8.17705C14.7158 8.48117 14.6686 8.78401 14.5686 9.06683C14.4734 9.34694 14.3451 9.61144 14.1872 9.85329L14.1525 9.7996L14.2326 9.7741C14.2601 9.76471 14.2876 9.76068 14.3151 9.75397C14.3689 9.74055 14.424 9.73653 14.479 9.72847C14.5889 9.72111 14.699 9.72111 14.8089 9.72847C15.0276 9.74149 15.2448 9.77561 15.4582 9.83047Z" fill="#FEFEFE"/>
</svg>
