<svg width="68" height="50" viewBox="0 0 68 50" fill="none" xmlns="http://www.w3.org/2000/svg">
<path d="M67.5333 43.9152H0.466675V43.9469H67.5333V43.9152Z" fill="#EBEBEB"/>
<path d="M60.8132 46.0734H56.3707V46.1051H60.8132V46.0734Z" fill="#EBEBEB"/>
<path d="M44.8943 46.4383H43.7286V46.47H44.8943V46.4383Z" fill="#EBEBEB"/>
<path d="M56.2366 44.8287H53.6626V44.8604H56.2366V44.8287Z" fill="#EBEBEB"/>
<path d="M13.2965 45.054H7.5033V45.0857H13.2965V45.054Z" fill="#EBEBEB"/>
<path d="M15.3408 45.054H14.4917V45.0857H15.3408V45.054Z" fill="#EBEBEB"/>
<path d="M30.6668 45.6201H18.1012V45.6518H30.6668V45.6201Z" fill="#EBEBEB"/>
<path d="M32.2563 37.9329H6.35648C6.15358 37.9325 5.95912 37.8517 5.81577 37.7081C5.67243 37.5645 5.59192 37.3699 5.59192 37.167V0.759194C5.59369 0.557461 5.67497 0.364571 5.81813 0.222422C5.96128 0.0802731 6.15474 0.000345579 6.35648 0H32.2563C32.4594 0 32.6542 0.0806929 32.7978 0.224327C32.9415 0.367961 33.0222 0.562771 33.0222 0.765901V37.167C33.0222 37.3701 32.9415 37.5649 32.7978 37.7086C32.6542 37.8522 32.4594 37.9329 32.2563 37.9329ZM6.35648 0.0268268C6.16247 0.0271821 5.97654 0.104499 5.83948 0.241806C5.70243 0.379113 5.62545 0.56519 5.62545 0.759194V37.167C5.62545 37.361 5.70243 37.5471 5.83948 37.6844C5.97654 37.8217 6.16247 37.899 6.35648 37.8993H32.2563C32.4504 37.899 32.6365 37.8217 32.7737 37.6845C32.911 37.5472 32.9883 37.3611 32.9886 37.167V0.759194C32.9883 0.565067 32.911 0.378992 32.7737 0.241724C32.6365 0.104455 32.4504 0.0271813 32.2563 0.0268268H6.35648Z" fill="#EBEBEB"/>
<path d="M61.2707 37.9329H35.3695C35.1665 37.9325 34.9719 37.8517 34.8284 37.7082C34.6848 37.5646 34.604 37.37 34.6036 37.167V0.759194C34.6058 0.557339 34.6873 0.36445 34.8307 0.222338C34.9741 0.0802263 35.1677 0.00034181 35.3695 0H61.2707C61.4722 0.000698096 61.6653 0.0807816 61.8081 0.222893C61.951 0.365004 62.0321 0.557693 62.0339 0.759194V37.167C62.0339 37.3696 61.9536 37.564 61.8105 37.7076C61.6674 37.8512 61.4733 37.9322 61.2707 37.9329ZM35.3695 0.0268268C35.1754 0.0271813 34.9893 0.104455 34.8521 0.241724C34.7148 0.378992 34.6375 0.565067 34.6372 0.759194V37.167C34.6375 37.3611 34.7148 37.5472 34.8521 37.6845C34.9893 37.8217 35.1754 37.899 35.3695 37.8993H61.2707C61.4648 37.899 61.6509 37.8217 61.7881 37.6845C61.9254 37.5472 62.0027 37.3611 62.003 37.167V0.759194C62.0027 0.565067 61.9254 0.378992 61.7881 0.241724C61.6509 0.104455 61.4648 0.0271813 61.2707 0.0268268H35.3695Z" fill="#EBEBEB"/>
<path d="M11.9217 24.5155H12.6769L12.6769 8.62072H11.9217L11.9217 24.5155Z" fill="#E0E0E0"/>
<path d="M26.7286 8.62213H12.3575V24.5169H26.7286V8.62213Z" fill="#E0E0E0"/>
<path d="M27.1874 8.62213H12.2811V24.5169H27.1874V8.62213Z" fill="#F0F0F0"/>
<path d="M26.557 9.12909H12.8888V23.7858H26.557V9.12909Z" fill="#FEFEFE"/>
<path d="M26.5569 9.12909H26.1613V23.7858H26.5569V9.12909Z" fill="#E0E0E0"/>
<path d="M12.8525 19.668V20.0637H26.2028V19.668H12.8525Z" fill="#E0E0E0"/>
<path d="M26.557 19.0054H12.6769V19.6693H26.557V19.0054Z" fill="#F0F0F0"/>
<path d="M37.1803 43.6671H56.9529V18.6284L37.1803 18.6284V43.6671Z" fill="#F0F0F0"/>
<path d="M37.8791 24.8938L56.254 24.8938V19.5392L37.8791 19.5392V24.8938Z" fill="#E0E0E0"/>
<path d="M55.2091 24.8938H56.2527V20.407H55.2091V24.8938Z" fill="#EBEBEB"/>
<path d="M50.1616 24.8938H51.2052V20.407H50.1616V24.8938Z" fill="#EBEBEB"/>
<path d="M43.6708 24.7163L44.6992 24.8936L45.4614 20.472L44.433 20.2947L43.6708 24.7163Z" fill="#EBEBEB"/>
<path d="M53.9174 24.8938H54.9609V20.9972H53.9174V24.8938Z" fill="#EBEBEB"/>
<path d="M51.5164 24.8938H52.5599V20.9972H51.5164V24.8938Z" fill="#EBEBEB"/>
<path d="M45.4603 24.8938H46.5039V20.9972H45.4603V24.8938Z" fill="#EBEBEB"/>
<path d="M47.948 24.6672L48.9667 24.8936L49.812 21.0898L48.7933 20.8634L47.948 24.6672Z" fill="#EBEBEB"/>
<path d="M53.0147 24.8938H53.5365V20.183H53.0147V24.8938Z" fill="#EBEBEB"/>
<path d="M46.8057 24.8938H47.3275V20.183H46.8057V24.8938Z" fill="#EBEBEB"/>
<path d="M56.2527 25.7429H37.8778V31.0975H56.2527V25.7429Z" fill="#E0E0E0"/>
<path d="M38.9214 26.6093H37.8778V31.0961H38.9214V26.6093Z" fill="#EBEBEB"/>
<path d="M43.9687 26.6093H42.9252V31.0961H43.9687V26.6093Z" fill="#EBEBEB"/>
<path d="M49.6993 26.4958L48.6709 26.6731L49.433 31.0946L50.4614 30.9174L49.6993 26.4958Z" fill="#EBEBEB"/>
<path d="M40.2157 27.2009H39.1721V31.0975H40.2157V27.2009Z" fill="#EBEBEB"/>
<path d="M42.614 27.2009H41.5704V31.0975H42.614V27.2009Z" fill="#EBEBEB"/>
<path d="M48.6701 27.2009H47.6266V31.0975H48.6701V27.2009Z" fill="#EBEBEB"/>
<path d="M45.3415 27.0652L44.3228 27.2916L45.1681 31.0954L46.1868 30.869L45.3415 27.0652Z" fill="#EBEBEB"/>
<path d="M41.1185 26.3867H40.5967V31.0975H41.1185V26.3867Z" fill="#EBEBEB"/>
<path d="M47.3261 26.3867H46.8043V31.0975H47.3261V26.3867Z" fill="#EBEBEB"/>
<path d="M55.2091 31.0961H56.2527V26.6093H55.2091V31.0961Z" fill="#EBEBEB"/>
<path d="M53.9174 31.0961H54.9609V27.1995H53.9174V31.0961Z" fill="#EBEBEB"/>
<path d="M51.5164 31.0961H52.5599V27.1995H51.5164V31.0961Z" fill="#EBEBEB"/>
<path d="M53.0147 31.0961H53.5365V26.3853H53.0147V31.0961Z" fill="#EBEBEB"/>
<path d="M37.8791 37.2985H56.254V31.9439L37.8791 31.9439V37.2985Z" fill="#E0E0E0"/>
<path d="M44.6623 37.2985H45.7058V32.8117H44.6623V37.2985Z" fill="#EBEBEB"/>
<path d="M38.1718 37.1194L39.2002 37.2966L39.9623 32.8751L38.9339 32.6978L38.1718 37.1194Z" fill="#EBEBEB"/>
<path d="M48.418 37.2985H49.4615V33.4019H48.418V37.2985Z" fill="#EBEBEB"/>
<path d="M46.0183 37.2985H47.0619V33.4019H46.0183V37.2985Z" fill="#EBEBEB"/>
<path d="M39.9608 37.2985H41.0044V33.4019H39.9608V37.2985Z" fill="#EBEBEB"/>
<path d="M42.4494 37.0702L43.4681 37.2966L44.3135 33.4929L43.2948 33.2665L42.4494 37.0702Z" fill="#EBEBEB"/>
<path d="M47.5152 37.2985H48.037V32.5877H47.5152V37.2985Z" fill="#EBEBEB"/>
<path d="M41.3062 37.2985H41.828V32.5877H41.3062V37.2985Z" fill="#EBEBEB"/>
<path d="M50.181 37.1197L51.2094 37.2969L51.9715 32.8754L50.9431 32.6981L50.181 37.1197Z" fill="#EBEBEB"/>
<path d="M51.9711 37.2985H53.0146V33.4019H51.9711V37.2985Z" fill="#EBEBEB"/>
<path d="M54.4587 37.0697L55.4774 37.2961L56.3228 33.4924L55.3041 33.266L54.4587 37.0697Z" fill="#EBEBEB"/>
<path d="M53.3138 37.2985H53.8356V32.5877H53.3138V37.2985Z" fill="#EBEBEB"/>
<path d="M24.1278 28.2726H12.6514C12.3551 28.2721 12.0615 28.3299 11.7876 28.4429C11.5136 28.5559 11.2647 28.7218 11.0549 28.9311C10.8451 29.1404 10.6786 29.389 10.565 29.6626C10.4513 29.9363 10.3928 30.2297 10.3926 30.526V39.4888H26.3826V30.526C26.3826 30.23 26.3243 29.9369 26.2109 29.6634C26.0976 29.3899 25.9315 29.1414 25.7221 28.9321C25.5127 28.7229 25.2641 28.5569 24.9906 28.4437C24.717 28.3306 24.4239 28.2724 24.1278 28.2726Z" fill="#E6E6E6"/>
<path d="M29.7761 34.9149H27.7226C27.3668 34.9149 27.0256 35.0562 26.7741 35.3078C26.5225 35.5593 26.3812 35.9005 26.3812 36.2562V43.6671H31.1134V36.2549C31.1131 35.9001 30.9722 35.5599 30.7215 35.3087C30.4709 35.0576 30.131 34.916 29.7761 34.9149Z" fill="#E0E0E0"/>
<path d="M29.7761 34.9149H29.7318C29.3761 34.9149 29.0349 35.0562 28.7834 35.3078C28.5318 35.5593 28.3905 35.9005 28.3905 36.2562V43.6671H31.1121V36.2549C31.1117 35.9003 30.971 35.5603 30.7206 35.3092C30.4703 35.0581 30.1307 34.9163 29.7761 34.9149Z" fill="#EBEBEB"/>
<path d="M27.8205 40.2615H12.0692V43.6658H27.8205V40.2615Z" fill="#E6E6E6"/>
<path d="M27.842 37.1482H12.6514C11.8995 37.1482 11.2899 37.7577 11.2899 38.5096V39.3587C11.2899 40.1106 11.8995 40.7202 12.6514 40.7202H27.842C28.5939 40.7202 29.2034 40.1106 29.2034 39.3587V38.5096C29.2034 37.7577 28.5939 37.1482 27.842 37.1482Z" fill="#F5F5F5"/>
<path d="M14.5615 37.1482H12.6769C11.925 37.1482 11.3154 37.7577 11.3154 38.5096V39.3587C11.3154 40.1106 11.925 40.7202 12.6769 40.7202H14.5615C15.3134 40.7202 15.9229 40.1106 15.9229 39.3587V38.5096C15.9229 37.7577 15.3134 37.1482 14.5615 37.1482Z" fill="#E0E0E0"/>
<path d="M12.4729 34.9149H10.4193C10.0636 34.9149 9.72242 35.0562 9.47087 35.3078C9.21932 35.5593 9.078 35.9005 9.078 36.2562V43.6671H13.8129V36.2549C13.8126 35.8996 13.6713 35.559 13.42 35.3078C13.1688 35.0566 12.8282 34.9153 12.4729 34.9149Z" fill="#E0E0E0"/>
<path d="M12.473 34.9149H12.4301C12.0743 34.9149 11.7332 35.0562 11.4816 35.3078C11.2301 35.5593 11.0887 35.9005 11.0887 36.2562V43.6671H13.813V36.2549C13.8126 35.8996 13.6713 35.559 13.4201 35.3078C13.1689 35.0566 12.8283 34.9153 12.473 34.9149Z" fill="#F0F0F0"/>
<path d="M46.5655 12.6796C48.0738 12.6796 49.2965 11.4569 49.2965 9.94866C49.2965 8.4404 48.0738 7.21771 46.5655 7.21771C45.0573 7.21771 43.8346 8.4404 43.8346 9.94866C43.8346 11.4569 45.0573 12.6796 46.5655 12.6796Z" fill="#E0E0E0"/>
<path d="M48.8598 10.3216C49.0652 9.05582 48.2057 7.86317 46.9399 7.65771C45.6742 7.45225 44.4815 8.31178 44.2761 9.57754C44.0706 10.8433 44.9301 12.0359 46.1959 12.2414C47.4617 12.4469 48.6543 11.5873 48.8598 10.3216Z" fill="#F0F0F0"/>
<path d="M46.457 8.35516V9.97818L45.3812 9.36921" fill="#F0F0F0"/>
<path d="M46.4569 10.0948C46.4366 10.0949 46.4166 10.0893 46.3992 10.0787L45.3262 9.47111C45.301 9.45499 45.2829 9.42981 45.2757 9.40077C45.2686 9.37172 45.2728 9.34103 45.2876 9.31503C45.3024 9.28904 45.3267 9.26972 45.3553 9.26107C45.3839 9.25242 45.4148 9.25511 45.4415 9.26857L46.3429 9.77961V8.35512C46.346 8.3265 46.3595 8.30003 46.381 8.28079C46.4024 8.26156 46.4301 8.25092 46.4589 8.25092C46.4877 8.25092 46.5155 8.26156 46.5369 8.28079C46.5583 8.30003 46.5719 8.3265 46.575 8.35512V9.97813C46.5751 9.9985 46.5698 10.0185 46.5597 10.0362C46.5495 10.0539 46.5349 10.0685 46.5173 10.0787C46.4991 10.0898 46.4782 10.0954 46.4569 10.0948Z" fill="#E0E0E0"/>
<path d="M34 49.974C48.3633 49.974 60.0071 49.1471 60.0071 48.127C60.0071 47.1069 48.3633 46.28 34 46.28C19.6367 46.28 7.99292 47.1069 7.99292 48.127C7.99292 49.1471 19.6367 49.974 34 49.974Z" fill="#F5F5F5"/>
<path d="M52.5989 20.23H48.9773C48.6475 20.23 48.3313 20.361 48.0981 20.5942C47.8649 20.8274 47.7339 21.1436 47.7339 21.4734V22.973C47.7339 23.3028 47.8649 23.619 48.0981 23.8522C48.3313 24.0854 48.6475 24.2164 48.9773 24.2164H50.5252L50.941 25.5296L51.3608 24.2164H52.5922C52.922 24.2164 53.2382 24.0854 53.4714 23.8522C53.7046 23.619 53.8356 23.3028 53.8356 22.973V21.4734C53.8356 21.1448 53.7055 20.8295 53.4738 20.5965C53.2421 20.3635 52.9275 20.2318 52.5989 20.23Z" fill="#5B998A"/>
<path d="M49.3824 22.1319C49.3824 22.1815 49.3677 22.23 49.3401 22.2713C49.3126 22.3125 49.2734 22.3447 49.2276 22.3637C49.1817 22.3827 49.1313 22.3876 49.0826 22.3779C49.034 22.3683 48.9893 22.3444 48.9542 22.3093C48.9191 22.2742 48.8952 22.2295 48.8856 22.1809C48.8759 22.1322 48.8808 22.0818 48.8998 22.0359C48.9188 21.9901 48.951 21.9509 48.9922 21.9234C49.0335 21.8958 49.082 21.8811 49.1316 21.8811C49.1645 21.8811 49.1971 21.8876 49.2276 21.9002C49.258 21.9128 49.2856 21.9313 49.3089 21.9546C49.3322 21.9779 49.3507 22.0055 49.3633 22.0359C49.3759 22.0664 49.3824 22.099 49.3824 22.1319ZM50.2382 21.8811C50.1886 21.8811 50.1401 21.8958 50.0988 21.9234C50.0576 21.9509 50.0254 21.9901 50.0064 22.0359C49.9874 22.0818 49.9825 22.1322 49.9922 22.1809C50.0018 22.2295 50.0257 22.2742 50.0608 22.3093C50.0959 22.3444 50.1406 22.3683 50.1892 22.3779C50.2379 22.3876 50.2883 22.3827 50.3342 22.3637C50.38 22.3447 50.4192 22.3125 50.4467 22.2713C50.4743 22.23 50.489 22.1815 50.489 22.1319C50.4876 22.0663 50.4605 22.0039 50.4137 21.958C50.3668 21.9121 50.3038 21.8865 50.2382 21.8865V21.8811ZM51.3448 21.8811C51.2952 21.8811 51.2467 21.8958 51.2054 21.9234C51.1642 21.9509 51.132 21.9901 51.113 22.0359C51.094 22.0818 51.0891 22.1322 51.0988 22.1809C51.1084 22.2295 51.1323 22.2742 51.1674 22.3093C51.2025 22.3444 51.2472 22.3683 51.2958 22.3779C51.3445 22.3876 51.3949 22.3827 51.4408 22.3637C51.4866 22.3447 51.5258 22.3125 51.5533 22.2713C51.5809 22.23 51.5956 22.1815 51.5956 22.1319C51.5942 22.0663 51.5671 22.0039 51.5203 21.958C51.4734 21.9121 51.4104 21.8865 51.3448 21.8865V21.8811ZM52.4514 21.8811C52.4018 21.8811 52.3533 21.8958 52.312 21.9234C52.2708 21.9509 52.2386 21.9901 52.2196 22.0359C52.2006 22.0818 52.1957 22.1322 52.2054 22.1809C52.215 22.2295 52.2389 22.2742 52.274 22.3093C52.3091 22.3444 52.3538 22.3683 52.4024 22.3779C52.4511 22.3876 52.5015 22.3827 52.5474 22.3637C52.5932 22.3447 52.6324 22.3125 52.6599 22.2713C52.6875 22.23 52.7022 22.1815 52.7022 22.1319C52.7008 22.0663 52.6737 22.0039 52.6269 21.958C52.58 21.9121 52.517 21.8865 52.4514 21.8865V21.8811Z" fill="#FEFEFE"/>
<path d="M15.4225 24.6564H11.8076C11.6443 24.6564 11.4826 24.6885 11.3318 24.751C11.1809 24.8135 11.0439 24.9051 10.9284 25.0206C10.8129 25.136 10.7213 25.2731 10.6589 25.424C10.5964 25.5748 10.5642 25.7365 10.5642 25.8998V27.3994C10.5642 27.7292 10.6952 28.0454 10.9284 28.2786C11.1616 28.5118 11.4779 28.6428 11.8076 28.6428H13.3555L13.7713 29.9546L14.1912 28.6428H15.4225C15.7523 28.6428 16.0686 28.5118 16.3017 28.2786C16.5349 28.0454 16.6659 27.7292 16.6659 27.3994V25.8998C16.6659 25.7365 16.6338 25.5748 16.5713 25.424C16.5088 25.2731 16.4172 25.136 16.3017 25.0206C16.1863 24.9051 16.0492 24.8135 15.8983 24.751C15.7475 24.6885 15.5858 24.6564 15.4225 24.6564Z" fill="#5B998A"/>
<path d="M12.206 26.5584C12.206 26.608 12.1913 26.6565 12.1637 26.6978C12.1362 26.739 12.097 26.7712 12.0512 26.7901C12.0053 26.8091 11.9549 26.8141 11.9062 26.8044C11.8576 26.7947 11.8129 26.7708 11.7778 26.7358C11.7427 26.7007 11.7188 26.656 11.7092 26.6073C11.6995 26.5587 11.7045 26.5082 11.7234 26.4624C11.7424 26.4166 11.7746 26.3774 11.8158 26.3498C11.8571 26.3223 11.9056 26.3076 11.9552 26.3076C12.0217 26.3076 12.0855 26.334 12.1325 26.381C12.1796 26.4281 12.206 26.4919 12.206 26.5584ZM13.0618 26.3076C13.0122 26.3076 12.9637 26.3223 12.9224 26.3498C12.8812 26.3774 12.849 26.4166 12.83 26.4624C12.8111 26.5082 12.8061 26.5587 12.8158 26.6073C12.8254 26.656 12.8493 26.7007 12.8844 26.7358C12.9195 26.7708 12.9642 26.7947 13.0128 26.8044C13.0615 26.8141 13.1119 26.8091 13.1578 26.7901C13.2036 26.7712 13.2428 26.739 13.2703 26.6978C13.2979 26.6565 13.3126 26.608 13.3126 26.5584C13.3115 26.4927 13.2846 26.4301 13.2376 26.3841C13.1907 26.3381 13.1275 26.3126 13.0618 26.3129V26.3076ZM14.1684 26.3076C14.1187 26.307 14.0699 26.3213 14.0283 26.3485C13.9867 26.3758 13.9541 26.4148 13.9347 26.4605C13.9153 26.5063 13.91 26.5568 13.9194 26.6057C13.9287 26.6545 13.9524 26.6994 13.9874 26.7348C14.0223 26.7701 14.067 26.7943 14.1158 26.8042C14.1645 26.8141 14.2151 26.8093 14.261 26.7904C14.307 26.7715 14.3464 26.7393 14.3741 26.698C14.4017 26.6567 14.4165 26.6081 14.4165 26.5584C14.4155 26.4932 14.3889 26.4309 14.3425 26.385C14.2961 26.3392 14.2336 26.3133 14.1684 26.3129V26.3076ZM15.275 26.3076C15.2254 26.3076 15.1769 26.3223 15.1356 26.3498C15.0944 26.3774 15.0622 26.4166 15.0432 26.4624C15.0243 26.5082 15.0193 26.5587 15.029 26.6073C15.0386 26.656 15.0625 26.7007 15.0976 26.7358C15.1327 26.7708 15.1774 26.7947 15.226 26.8044C15.2747 26.8141 15.3251 26.8091 15.371 26.7901C15.4168 26.7712 15.456 26.739 15.4835 26.6978C15.5111 26.6565 15.5258 26.608 15.5258 26.5584C15.5247 26.4927 15.4978 26.4301 15.4508 26.3841C15.4039 26.3381 15.3407 26.3126 15.275 26.3129V26.3076Z" fill="#FEFEFE"/>
<path d="M55.8637 48.3148H38.8395C35.6592 48.3148 35.4553 44.5698 38.0696 42.8073C38.5475 42.4895 39.0766 42.2563 39.6336 42.1179C44.8098 40.7564 52.0825 31.6045 57.205 35.434L57.2198 35.4448C62.3222 39.3011 58.7556 48.3148 55.8637 48.3148Z" fill="#090D0A"/>
<path opacity="0.5" d="M55.8637 48.3148H38.8395C35.6592 48.3148 35.4553 44.5698 38.0696 42.8073C38.5475 42.4895 39.0766 42.2563 39.6336 42.1179C44.8098 40.7564 52.0825 31.6045 57.205 35.434L57.2198 35.4448C62.3222 39.3011 58.7556 48.3148 55.8637 48.3148Z" fill="#FEFEFE"/>
<path opacity="0.2" d="M57.1916 35.4273C56.7624 35.3992 56.242 35.5199 55.6813 35.9894C54.2259 37.21 56.4391 43.0863 52.9584 45.5303C51.0161 46.8944 42.6368 47.4953 39.8401 45.8227C37.7758 44.5873 37.749 43.8107 38.0696 42.8074C38.5475 42.4896 39.0766 42.2563 39.6336 42.1179C44.8031 40.7497 52.0758 31.5978 57.1916 35.4273Z" fill="black"/>
<path d="M43.9553 34.3194L42.9399 33.6045L43.6991 32.8278C43.6991 32.8278 44.4785 33.2302 44.4047 33.9478L43.9553 34.3194Z" fill="#E4897B"/>
<path d="M42.5416 32.8157L43.2458 32.3731L43.6992 32.8278L42.94 33.6044L42.5416 32.8157Z" fill="#E4897B"/>
<path d="M48.9505 32.4724C47.9888 32.7554 47.5153 34.4468 46.7212 36.0443L44.4101 33.748L43.675 34.3998C43.675 34.3998 45.7917 37.7626 46.791 37.7626C48.0384 37.7626 49.3328 34.2979 49.3328 34.2979L48.9505 32.4724Z" fill="#090D0A"/>
<path opacity="0.1" d="M49.3328 34.2979C49.3328 34.2979 49.1276 34.8465 48.7962 35.5051C48.481 36.1463 48.0518 36.8934 47.5891 37.3454C47.3275 37.5989 47.0525 37.7599 46.7843 37.7599C45.785 37.7599 43.6683 34.3972 43.6683 34.3972L44.4034 33.7453L46.7145 36.0416C47.5086 34.4441 47.9807 32.7527 48.9451 32.4697L49.3328 34.2979Z" fill="#FEFEFE"/>
<path opacity="0.2" d="M48.8017 35.5078C48.4865 36.1489 48.0572 36.896 47.5945 37.3481C47.6441 35.8149 48.3993 34.3193 48.3993 34.3193C48.6075 34.6864 48.7441 35.0897 48.8017 35.5078Z" fill="black"/>
<path d="M48.0303 41.8161C48.0303 41.8161 39.8683 40.6438 39.4364 42.4344C38.9817 44.3284 45.5354 45.6054 49.4521 45.7395C53.3688 45.8736 54.4929 44.9347 53.8638 40.1059H48.4984L48.0303 41.8161Z" fill="#5B998A"/>
<path opacity="0.6" d="M48.0303 41.8161C48.0303 41.8161 39.8683 40.6438 39.4364 42.4344C38.9817 44.3284 45.5354 45.6054 49.4521 45.7395C53.3688 45.8736 54.4929 44.9347 53.8638 40.1059H48.4984L48.0303 41.8161Z" fill="#FEFEFE"/>
<path d="M43.4846 45.5503L41.7744 45.5517L40.9535 45.553L40.8556 44.6879L41.6148 44.5859L43.4699 44.3391L43.4846 45.5503Z" fill="#E4897B"/>
<path d="M41.0407 44.5792L41.2486 45.5664C41.2515 45.5794 41.2517 45.5928 41.2493 45.6059C41.2469 45.619 41.2418 45.6314 41.2344 45.6424C41.227 45.6535 41.2174 45.6629 41.2062 45.6701C41.1951 45.6773 41.1825 45.6822 41.1694 45.6844L40.6772 45.773C40.6772 45.773 40.0239 45.9393 39.8402 45.8226C39.3036 45.4792 38.7886 43.3089 39.0072 43.148C39.0863 43.089 39.2245 43.1788 39.2943 43.2499C39.5142 43.4739 39.9824 44.1003 40.1688 44.2854C40.3848 44.5027 40.7697 44.5094 40.9387 44.5C40.9624 44.4989 40.9856 44.5063 41.0043 44.5208C41.023 44.5353 41.0359 44.556 41.0407 44.5792Z" fill="#090D0A"/>
<path opacity="0.2" d="M43.4846 45.5503L41.7744 45.5517L41.6147 44.5859L43.4698 44.3391L43.4846 45.5503Z" fill="black"/>
<path d="M45.9848 44.0239L47.6078 44.5645L48.3872 44.8234L48.2061 45.6738L47.4536 45.5302L45.616 45.1788L45.9848 44.0239Z" fill="#E4897B"/>
<path d="M47.9969 45.718L48.1109 44.7161C48.1125 44.7029 48.1168 44.6903 48.1233 44.6788C48.1299 44.6673 48.1387 44.6572 48.1491 44.6491C48.1596 44.641 48.1715 44.635 48.1843 44.6316C48.1971 44.6281 48.2104 44.6272 48.2235 44.6289L48.7185 44.7013C48.7185 44.7013 49.3892 44.7496 49.5233 44.9186C49.9257 45.4136 49.7272 47.6361 49.4696 47.7193C49.3744 47.7502 49.2725 47.6214 49.2282 47.5329C49.0941 47.2498 48.8446 46.5067 48.7265 46.2734C48.5924 45.9984 48.2262 45.871 48.0639 45.8253C48.0419 45.8183 48.023 45.8036 48.0107 45.784C47.9985 45.7643 47.9935 45.741 47.9969 45.718Z" fill="#090D0A"/>
<path opacity="0.2" d="M45.9848 44.0239L47.6078 44.5645L47.4536 45.5302L45.616 45.1788L45.9848 44.0239Z" fill="black"/>
<path d="M47.1719 45.6805L46.7091 45.7247L46.9854 44.1232L47.5166 44.4035L47.1719 45.6805Z" fill="#5B998A"/>
<path opacity="0.6" d="M47.1719 45.6805L46.7091 45.7247L46.9854 44.1232L47.5166 44.4035L47.1719 45.6805Z" fill="#FEFEFE"/>
<path d="M48.7212 46.2612C48.7332 46.3338 48.7224 46.4083 48.6903 46.4745C48.6773 46.4943 48.6593 46.5104 48.6381 46.521C48.6169 46.5316 48.5933 46.5364 48.5696 46.5348C48.5553 46.5355 48.5411 46.5323 48.5284 46.5257C48.5157 46.5192 48.5049 46.5093 48.4972 46.4973C48.4274 46.3793 48.5911 46.0158 48.6112 45.9755C48.6125 45.971 48.6154 45.9671 48.6193 45.9646C48.6233 45.9622 48.628 45.9613 48.6327 45.9621C48.6378 45.9625 48.6426 45.9646 48.6465 45.968C48.6503 45.9714 48.653 45.9759 48.6541 45.9809C48.6859 46.0718 48.7084 46.1657 48.7212 46.2612ZM48.528 46.4356C48.5289 46.4474 48.5326 46.4589 48.5388 46.4691C48.5413 46.4743 48.5454 46.4785 48.5504 46.4811C48.5555 46.4838 48.5613 46.4847 48.5669 46.4839C48.5832 46.4858 48.5996 46.483 48.6144 46.4759C48.6291 46.4688 48.6415 46.4576 48.6501 46.4436C48.6892 46.3161 48.682 46.1788 48.63 46.056C48.5735 46.1754 48.5389 46.304 48.528 46.4356Z" fill="#5B998A"/>
<path d="M48.6581 45.9836V45.9943C48.6138 46.111 48.4126 46.3417 48.2986 46.3256C48.28 46.3223 48.2629 46.3129 48.2503 46.2988C48.2376 46.2847 48.2301 46.2667 48.2289 46.2478C48.2237 46.229 48.2227 46.2093 48.226 46.1901C48.2292 46.1708 48.2366 46.1526 48.2477 46.1365C48.3308 46.0023 48.6192 45.9594 48.6353 45.9608C48.6398 45.9599 48.6444 45.9605 48.6485 45.9624C48.6525 45.9644 48.6559 45.9675 48.6581 45.9715C48.6591 45.9755 48.6591 45.9796 48.6581 45.9836ZM48.2718 46.229V46.2398C48.2799 46.2733 48.2933 46.2746 48.3 46.2773C48.367 46.2867 48.5213 46.1365 48.5884 46.0211C48.4739 46.035 48.3673 46.0865 48.2852 46.1673C48.2738 46.1858 48.2686 46.2074 48.2705 46.229H48.2718Z" fill="#5B998A"/>
<path d="M41.9299 44.4612C41.9299 44.4612 49.5232 41.5102 51.8491 42.0039C54.175 42.4975 54.1857 43.7141 53.0067 44.8488C51.8276 45.9836 50.0665 45.5463 50.0665 45.5463C50.0665 45.5463 51.4507 44.7174 51.3541 44.205C51.2576 43.6926 50.3776 44.8636 50.3776 44.8636C50.3776 44.8636 45.7889 45.9863 41.9997 45.6898L41.9299 44.4612Z" fill="#5B998A"/>
<path d="M40.2211 44.3015C40.177 44.2431 40.1526 44.1722 40.1514 44.099C40.1535 44.0754 40.1618 44.0529 40.1755 44.0335C40.1891 44.0142 40.2077 43.9989 40.2292 43.989C40.2417 43.9821 40.2558 43.9785 40.2701 43.9785C40.2844 43.9785 40.2985 43.9821 40.311 43.989C40.4263 44.0628 40.4451 44.4612 40.4451 44.5068C40.4457 44.5113 40.4447 44.516 40.4422 44.5199C40.4398 44.5238 40.4361 44.5267 40.4317 44.5282C40.4275 44.531 40.4226 44.5325 40.4176 44.5325C40.4126 44.5325 40.4077 44.531 40.4035 44.5282C40.335 44.4593 40.2738 44.3833 40.2211 44.3015ZM40.3123 44.0574C40.3055 44.0478 40.2969 44.0395 40.2868 44.0333C40.2823 44.0301 40.2769 44.0284 40.2714 44.0284C40.2659 44.0284 40.2605 44.0301 40.256 44.0333C40.2405 44.0389 40.227 44.0488 40.217 44.0619C40.207 44.075 40.201 44.0907 40.1997 44.1071C40.2237 44.2383 40.2936 44.3566 40.3968 44.441C40.3916 44.3092 40.363 44.1793 40.3123 44.0574Z" fill="#5B998A"/>
<path d="M40.4036 44.5188V44.5068C40.3902 44.3834 40.4613 44.0856 40.5713 44.0467C40.5894 44.041 40.609 44.0416 40.6268 44.0485C40.6445 44.0553 40.6595 44.0679 40.6692 44.0843C40.6944 44.1141 40.707 44.1526 40.7041 44.1916C40.6906 44.3485 40.4546 44.5188 40.4358 44.5269C40.432 44.5294 40.4276 44.5308 40.423 44.5308C40.4185 44.5308 40.4141 44.5294 40.4103 44.5269C40.4074 44.5248 40.4051 44.522 40.4036 44.5188ZM40.6343 44.1232V44.1138C40.6128 44.0883 40.5994 44.0936 40.5927 44.095C40.5283 44.1164 40.4586 44.3203 40.4586 44.4545C40.5243 44.3995 40.6517 44.2841 40.6598 44.1862C40.6612 44.1644 40.6555 44.1428 40.6437 44.1245L40.6343 44.1232Z" fill="#5B998A"/>
<path opacity="0.7" d="M41.9299 44.4612C41.9299 44.4612 49.5232 41.5102 51.8491 42.0039C54.175 42.4975 54.1857 43.7141 53.0067 44.8488C51.8276 45.9836 50.0665 45.5463 50.0665 45.5463C50.0665 45.5463 51.4507 44.7174 51.3541 44.205C51.2576 43.6926 50.3776 44.8636 50.3776 44.8636C50.3776 44.8636 45.7889 45.9863 41.9997 45.6898L41.9299 44.4612Z" fill="#FEFEFE"/>
<path d="M41.8374 44.4384L42.2639 44.2426L42.5094 45.8401L41.9165 45.7435L41.8374 44.4384Z" fill="#5B998A"/>
<path opacity="0.6" d="M41.8374 44.4384L42.2639 44.2426L42.5094 45.8401L41.9165 45.7435L41.8374 44.4384Z" fill="#FEFEFE"/>
<path d="M54.403 32.7286C53.5835 37.2891 53.8812 40.2401 53.8812 40.2401C53.8812 40.2401 50.0678 40.1877 48.5012 40.0992C47.6655 34.5716 48.9505 32.4711 48.9505 32.4711C49.3602 32.389 49.7746 32.3321 50.1912 32.3007C50.2784 32.294 50.3683 32.29 50.4595 32.286C51.1986 32.2855 51.9371 32.3271 52.6714 32.4107C52.8055 32.4255 52.9517 32.4442 53.0885 32.4643C53.7874 32.5703 54.403 32.7286 54.403 32.7286Z" fill="#090D0A"/>
<path opacity="0.1" d="M54.403 32.7286C54.3011 33.2946 54.2166 33.8365 54.1468 34.3489C54.0368 35.1537 53.9631 35.8995 53.9148 36.5621C53.9 36.7619 53.8866 36.9564 53.8772 37.1415C53.8383 37.8202 53.8276 38.401 53.8289 38.8705C53.8289 39.7531 53.8812 40.24 53.8812 40.24C53.8812 40.24 50.0678 40.1877 48.5012 40.0992C47.6642 34.5715 48.9518 32.471 48.9518 32.471C49.3611 32.3888 49.775 32.332 50.1912 32.3007C50.2784 32.294 50.3683 32.2899 50.4595 32.2859C51.1986 32.2847 51.9371 32.3264 52.6714 32.4107C52.8055 32.4254 52.9517 32.4442 53.0885 32.4643C53.7873 32.5689 54.403 32.7286 54.403 32.7286Z" fill="#FEFEFE"/>
<path opacity="0.2" d="M50.9974 37.7626C51.9746 37.6465 52.9388 37.439 53.8773 37.1429C53.8384 37.8216 53.8276 38.4024 53.829 38.8719C52.0088 39.0395 51.2657 38.6894 51.2657 38.6894L50.9974 37.7626Z" fill="black"/>
<path opacity="0.2" d="M54.1468 34.3502C54.0368 35.155 53.963 35.9008 53.9147 36.5634C53.3929 35.5011 53.7806 34.2268 53.7806 34.2268L54.1468 34.3502Z" fill="black"/>
<path d="M51.2039 39.635H48.4301C48.3762 39.6342 48.3245 39.6132 48.2853 39.5762C48.2461 39.5392 48.2221 39.4889 48.2181 39.4352L47.8318 35.7532C47.8292 35.7285 47.8318 35.7035 47.8395 35.6799C47.8472 35.6563 47.8599 35.6345 47.8766 35.6161C47.8933 35.5978 47.9138 35.5831 47.9366 35.5732C47.9594 35.5633 47.984 35.5584 48.0089 35.5587H50.7827C50.8356 35.5598 50.8862 35.5802 50.925 35.616C50.9638 35.6518 50.9881 35.7007 50.9933 35.7532L51.381 39.4352C51.3845 39.4603 51.3825 39.4859 51.3751 39.5102C51.3678 39.5345 51.3553 39.5569 51.3385 39.5759C51.3216 39.5949 51.3009 39.61 51.2777 39.6202C51.2545 39.6304 51.2293 39.6355 51.2039 39.635Z" fill="#090D0A"/>
<path opacity="0.6" d="M51.2039 39.635H48.4301C48.3762 39.6342 48.3245 39.6132 48.2853 39.5762C48.2461 39.5392 48.2221 39.4889 48.2181 39.4352L47.8318 35.7532C47.8292 35.7285 47.8318 35.7035 47.8395 35.6799C47.8472 35.6563 47.8599 35.6345 47.8766 35.6161C47.8933 35.5978 47.9138 35.5831 47.9366 35.5732C47.9594 35.5633 47.984 35.5584 48.0089 35.5587H50.7827C50.8356 35.5598 50.8862 35.5802 50.925 35.616C50.9638 35.6518 50.9881 35.7007 50.9933 35.7532L51.381 39.4352C51.3845 39.4603 51.3825 39.4859 51.3751 39.5102C51.3678 39.5345 51.3553 39.5569 51.3385 39.5759C51.3216 39.5949 51.3009 39.61 51.2777 39.6202C51.2545 39.6304 51.2293 39.6355 51.2039 39.635Z" fill="#FEFEFE"/>
<path opacity="0.2" d="M51.0886 39.635H48.4301C48.3762 39.6342 48.3245 39.6132 48.2853 39.5762C48.2461 39.5392 48.2221 39.4889 48.2181 39.4352L47.8318 35.7532C47.8292 35.7285 47.8318 35.7035 47.8395 35.6799C47.8472 35.6563 47.8599 35.6345 47.8766 35.6161C47.8933 35.5978 47.9138 35.5831 47.9366 35.5732C47.9594 35.5633 47.984 35.5584 48.0089 35.5587H50.6674C50.7202 35.5598 50.7708 35.5802 50.8096 35.616C50.8484 35.6518 50.8727 35.7007 50.878 35.7532L51.2656 39.4352C51.2691 39.4603 51.2671 39.4859 51.2598 39.5102C51.2524 39.5345 51.2399 39.5569 51.2231 39.5759C51.2063 39.5949 51.1855 39.61 51.1623 39.6202C51.1391 39.6304 51.1139 39.6355 51.0886 39.635Z" fill="#FEFEFE"/>
<path d="M49.4709 37.2985C49.4327 37.2982 49.3948 37.306 49.3599 37.3216C49.3249 37.3371 49.2937 37.3599 49.2683 37.3885C49.2429 37.4171 49.2239 37.4508 49.2126 37.4873C49.2013 37.5238 49.1979 37.5623 49.2027 37.6003C49.2106 37.6817 49.2482 37.7573 49.3083 37.8127C49.3684 37.8681 49.4468 37.8995 49.5286 37.9007C49.5667 37.901 49.6045 37.8932 49.6393 37.8777C49.6741 37.8623 49.7053 37.8396 49.7307 37.8111C49.756 37.7827 49.7751 37.7492 49.7865 37.7128C49.7979 37.6765 49.8015 37.6381 49.7969 37.6003C49.715 37.5987 49.6366 37.5671 49.5765 37.5114C49.5164 37.4558 49.4788 37.38 49.4709 37.2985Z" fill="#090D0A"/>
<path opacity="0.3" d="M50.0719 35.8566H48.6058C48.5698 35.8561 48.5346 35.8455 48.5043 35.8261C48.4739 35.8066 48.4496 35.7791 48.4341 35.7466L48.3469 35.5641H50.2811L50.2302 35.7466C50.2202 35.7801 50.1991 35.8093 50.1703 35.8293C50.1415 35.8493 50.1068 35.8589 50.0719 35.8566Z" fill="black"/>
<path d="M50.933 37.6445L50.2919 37.5922L50.3187 38.4453L50.8552 38.727L52.0919 38.6143L52.1925 38.0389C51.7861 37.4433 50.933 37.6445 50.933 37.6445Z" fill="#E4897B"/>
<path d="M54.4031 32.7286C55.0617 32.9271 55.9952 36.7526 55.8463 37.5976C55.6975 38.4427 54.0731 38.8048 52.0088 38.7579V37.7599L54.4031 37.0611L54.0007 35.5856C54.0007 35.5856 53.668 34.5005 53.8169 33.7413C53.8986 33.3496 54.1041 32.9946 54.4031 32.7286Z" fill="#090D0A"/>
<path opacity="0.1" d="M54.4031 32.7286C55.0617 32.9271 55.9952 36.7526 55.8463 37.5976C55.6975 38.4427 54.0731 38.8048 52.0088 38.7579V37.7599L54.4031 37.0611L54.0007 35.5856C54.0007 35.5856 53.668 34.5005 53.8169 33.7413C53.8986 33.3496 54.1041 32.9946 54.4031 32.7286Z" fill="#FEFEFE"/>
<path d="M52.3522 32.3677C52.0182 32.7164 51.4937 33.0089 50.6527 32.978C50.0075 32.9525 49.9177 32.5474 50.0303 32.3248C50.422 32.2443 50.599 32.0739 50.654 31.8567C50.709 31.6394 50.6326 31.3469 50.5199 31.076L51.6077 30.1599L51.7915 30.0043C51.7915 30.0566 51.7848 30.1116 51.7821 30.1693C51.7694 30.3819 51.7694 30.5951 51.7821 30.8077C51.8183 31.4073 51.9605 32.0579 52.3522 32.3677Z" fill="#E4897B"/>
<path opacity="0.2" d="M51.7834 30.8078C51.5809 31.2222 51.2254 31.7226 50.654 31.8567C50.713 31.626 50.6326 31.347 50.5199 31.076L51.6077 30.1599C51.6654 30.1599 51.7244 30.1599 51.7821 30.1693C51.7699 30.382 51.7703 30.5952 51.7834 30.8078Z" fill="black"/>
<path d="M49.2912 28.3384C49.1316 28.7032 49.1114 29.4866 49.6668 29.2921C50.2221 29.0976 49.5595 27.712 49.2912 28.3384Z" fill="#090D0A"/>
<path d="M51.9511 29.1472C51.9028 30.1237 51.9256 30.6991 51.4373 31.2021C50.7023 31.9586 49.4897 31.5133 49.2429 30.5395C49.023 29.6609 49.1383 28.211 50.0906 27.8193C50.3019 27.7328 50.5316 27.7012 50.7584 27.7275C50.9851 27.7538 51.2015 27.8372 51.3873 27.9698C51.5731 28.1025 51.7223 28.28 51.8209 28.4859C51.9195 28.6918 51.9643 28.9193 51.9511 29.1472Z" fill="#E4897B"/>
<path d="M50.4703 29.4235C50.4703 29.5026 50.43 29.5684 50.3777 29.5684C50.3254 29.5684 50.2825 29.504 50.2812 29.4235C50.2798 29.343 50.3227 29.28 50.3737 29.28C50.4247 29.28 50.4689 29.3443 50.4703 29.4235Z" fill="#090D0A"/>
<path d="M49.5689 29.4262C49.5689 29.5053 49.5286 29.5697 49.4763 29.5697C49.424 29.5697 49.3811 29.5053 49.3811 29.4262C49.3811 29.347 49.4213 29.2827 49.4737 29.2827C49.526 29.2827 49.5689 29.3457 49.5689 29.4262Z" fill="#090D0A"/>
<path d="M49.8559 29.4651C49.761 29.7007 49.6337 29.9219 49.4777 30.1223C49.533 30.1588 49.5954 30.1832 49.6608 30.194C49.7262 30.2049 49.7931 30.2019 49.8573 30.1854L49.8559 29.4651Z" fill="#DE5753"/>
<path d="M50.7439 29.1325C50.7358 29.1337 50.7276 29.1327 50.7201 29.1296C50.7125 29.1265 50.7059 29.1215 50.701 29.115C50.6663 29.0674 50.6209 29.0285 50.5685 29.0015C50.5161 28.9745 50.4581 28.9601 50.3992 28.9594C50.3868 28.9602 50.3746 28.9562 50.3651 28.9482C50.3556 28.9402 50.3496 28.9288 50.3482 28.9165C50.3477 28.9103 50.3483 28.9041 50.3502 28.8982C50.3521 28.8923 50.3551 28.8868 50.3591 28.8821C50.363 28.8774 50.3679 28.8735 50.3734 28.8706C50.3789 28.8678 50.385 28.8661 50.3911 28.8655C50.4657 28.8651 50.5392 28.8822 50.6059 28.9155C50.6726 28.9489 50.7304 28.9975 50.7748 29.0574C50.7824 29.0672 50.7858 29.0796 50.7843 29.0919C50.7828 29.1042 50.7765 29.1154 50.7667 29.1231C50.76 29.1281 50.7522 29.1314 50.7439 29.1325Z" fill="#090D0A"/>
<path d="M49.1772 29.1177C49.1684 29.1202 49.1591 29.1202 49.1504 29.1177C49.1448 29.1149 49.1398 29.1112 49.1357 29.1065C49.1317 29.1019 49.1285 29.0965 49.1265 29.0906C49.1245 29.0847 49.1237 29.0785 49.1241 29.0724C49.1245 29.0662 49.1262 29.0602 49.1289 29.0546C49.1586 28.9864 49.2044 28.9264 49.2623 28.8797C49.3202 28.8329 49.3886 28.8009 49.4616 28.7864C49.4677 28.7856 49.474 28.7861 49.48 28.7878C49.486 28.7895 49.4915 28.7923 49.4964 28.7962C49.5013 28.8001 49.5053 28.8049 49.5083 28.8103C49.5113 28.8158 49.5132 28.8218 49.5139 28.8279C49.5148 28.8339 49.5146 28.8401 49.5131 28.846C49.5117 28.8519 49.509 28.8574 49.5054 28.8623C49.5018 28.8671 49.4972 28.8712 49.492 28.8743C49.4868 28.8774 49.481 28.8794 49.475 28.8802C49.4174 28.8911 49.3634 28.916 49.3178 28.9527C49.2721 28.9894 49.2363 29.0369 49.2134 29.0908C49.2099 29.0978 49.2048 29.1039 49.1985 29.1086C49.1922 29.1133 49.1849 29.1164 49.1772 29.1177Z" fill="#090D0A"/>
<path d="M50.4166 28.3638C50.4166 28.3638 50.6849 28.1707 50.8083 28.3786C50.9317 28.5865 50.9237 29.1405 50.9237 29.1405L50.9773 29.0425C50.9773 29.0425 51.3247 30.2766 51.8277 29.9654C52.3307 29.6542 53.0698 28.4014 51.8948 27.7629C51.8948 27.7629 51.77 27.4651 50.9934 27.3176C50.2168 27.17 49.2778 27.6502 49.1155 28.164C48.9532 28.6777 49.1799 28.9688 49.1799 28.9688C49.2048 28.8569 49.2558 28.7526 49.3288 28.6643C49.3392 28.7166 49.3624 28.7656 49.3964 28.8068C49.4303 28.848 49.4739 28.8801 49.5233 28.9004C49.5154 28.7954 49.5372 28.6903 49.5864 28.5972C49.612 28.6885 49.6579 28.7728 49.7205 28.844C49.7768 28.3155 50.1363 28.2082 50.249 28.2123C50.2893 28.2167 50.3272 28.2338 50.3573 28.261C50.3874 28.2882 50.4082 28.3242 50.4166 28.3638Z" fill="#090D0A"/>
<path d="M52.3388 29.956C52.3029 30.0722 52.2443 30.1801 52.1665 30.2736C52.0887 30.3671 51.9932 30.4442 51.8854 30.5006C51.5957 30.6495 51.3837 30.404 51.4079 30.0982C51.4293 29.8205 51.6051 29.4087 51.923 29.3886C51.9925 29.3855 52.0617 29.3996 52.1245 29.4296C52.1873 29.4597 52.2417 29.5048 52.2828 29.5609C52.324 29.6171 52.3506 29.6825 52.3604 29.7515C52.3701 29.8204 52.3627 29.8906 52.3388 29.956Z" fill="#E4897B"/>
<path d="M49.8881 30.5127C49.9718 30.6003 50.0489 30.694 50.1188 30.793L50.1764 30.7648C50.4353 30.6307 50.5131 30.4872 50.5198 30.3624C50.5216 30.3023 50.5091 30.2426 50.4836 30.1881C50.47 30.157 50.4519 30.1281 50.43 30.1022C50.3064 30.2544 50.1512 30.378 49.9752 30.4644C49.9229 30.4966 49.8881 30.5127 49.8881 30.5127Z" fill="#090D0A"/>
<path d="M49.9753 30.467L50.0464 30.5475C50.2892 30.4241 50.4488 30.3034 50.4837 30.1907C50.4701 30.1596 50.452 30.1307 50.4301 30.1049C50.3065 30.2571 50.1513 30.3806 49.9753 30.467Z" fill="#FEFEFE"/>
<path d="M50.1765 30.7648C50.4354 30.6307 50.5132 30.4872 50.5199 30.3624C50.4224 30.4142 50.3347 30.4828 50.261 30.565C50.2124 30.621 50.1828 30.6909 50.1765 30.7648Z" fill="#A24E3F"/>
<path d="M26.5435 33.6916L26.6133 34.436C26.6133 34.436 30.9699 35.0986 31.6674 35.7774C32.3649 36.4561 34.8397 47.1908 34.8397 47.1908L33.8417 47.3249C33.8417 47.3249 30.3784 39.411 30.1933 38.2655C30.1933 38.2655 27.1431 38.3795 25.0613 38.3795C22.9796 38.3795 22.7314 33.6849 22.7314 33.6849L26.5435 33.6916Z" fill="#5B998A"/>
<path opacity="0.3" d="M34.8396 47.1921L33.8417 47.3263C33.8417 47.3263 32.4252 44.0897 31.3562 41.4566C30.7513 39.9718 30.259 38.6787 30.1933 38.2656C30.1933 38.2656 28.082 38.3434 26.1693 38.3702C25.783 38.3702 25.4061 38.3783 25.056 38.3783C22.9742 38.3783 22.7261 33.6836 22.7261 33.6836H26.5381L26.6079 34.428C26.6079 34.428 30.9659 35.0893 31.662 35.7694C32.3582 36.4494 34.8396 47.1921 34.8396 47.1921Z" fill="#FEFEFE"/>
<path d="M35.6095 48.1539C34.9389 48.1539 34.849 48.1431 34.4707 48.1297C34.1475 48.119 34.0683 48.1592 33.8108 48.1539C33.5935 48.1539 33.6015 47.9406 33.6686 47.7018C33.7021 47.5811 33.7531 47.3276 33.8027 47.1344L34.7873 47.062C34.9214 47.3303 35.238 47.7045 35.6162 47.7555C35.9945 47.8065 35.8778 48.1539 35.6095 48.1539Z" fill="#090D0A"/>
<path opacity="0.2" d="M31.3563 41.4619C30.7513 39.9771 30.2591 38.684 30.1933 38.2709C30.1933 38.2709 28.0821 38.3487 26.1693 38.3755L25.9628 34.7285C25.9628 34.7285 28.6562 35.1148 30.467 36.6747C30.6963 36.8679 31.143 39.855 31.3563 41.4619Z" fill="black"/>
<path d="M30.4172 39.077H22.6228V38.5982C22.6228 38.4384 22.6862 38.2853 22.7992 38.1723C22.9121 38.0594 23.0653 37.9959 23.225 37.9959H29.815C29.9747 37.9959 30.1279 38.0594 30.2408 38.1723C30.3538 38.2853 30.4172 38.4384 30.4172 38.5982V39.077Z" fill="#090D0A"/>
<path opacity="0.2" d="M30.4172 39.077H22.6228V38.5982C22.6228 38.4384 22.6862 38.2853 22.7992 38.1723C22.9121 38.0594 23.0653 37.9959 23.225 37.9959H29.815C29.9747 37.9959 30.1279 38.0594 30.2408 38.1723C30.3538 38.2853 30.4172 38.4384 30.4172 38.5982V39.077Z" fill="#FEFEFE"/>
<path d="M30.1463 46.0855L27.1417 45.8239V41.8777H26.0861V45.8226L23.0708 46.0909C22.9426 46.1035 22.8237 46.1634 22.7372 46.2588C22.6506 46.3543 22.6027 46.4785 22.6027 46.6073V47.0097H30.6158V46.6073C30.617 46.4773 30.5695 46.3516 30.4826 46.255C30.3957 46.1584 30.2757 46.0979 30.1463 46.0855Z" fill="#090D0A"/>
<path d="M23.5738 47.4993C23.5738 47.6359 23.5333 47.7694 23.4574 47.883C23.3815 47.9966 23.2736 48.0852 23.1474 48.1375C23.0212 48.1897 22.8823 48.2034 22.7483 48.1768C22.6143 48.1501 22.4912 48.0843 22.3946 47.9877C22.298 47.8911 22.2322 47.768 22.2055 47.634C22.1789 47.5 22.1926 47.3611 22.2448 47.2349C22.2971 47.1087 22.3857 47.0008 22.4993 46.9249C22.6129 46.849 22.7464 46.8085 22.883 46.8085C23.0663 46.8085 23.242 46.8812 23.3715 47.0108C23.5011 47.1403 23.5738 47.316 23.5738 47.4993Z" fill="#090D0A"/>
<path d="M30.3328 48.19C30.7143 48.19 31.0235 47.8808 31.0235 47.4993C31.0235 47.1177 30.7143 46.8085 30.3328 46.8085C29.9512 46.8085 29.642 47.1177 29.642 47.4993C29.642 47.8808 29.9512 48.19 30.3328 48.19Z" fill="#090D0A"/>
<path d="M25.9037 38.8195H27.3242V42.1849C27.3242 42.3169 27.2717 42.4435 27.1784 42.5368C27.0851 42.6301 26.9585 42.6826 26.8265 42.6826H26.4027C26.2707 42.6826 26.1441 42.6301 26.0508 42.5368C25.9575 42.4435 25.905 42.3169 25.905 42.1849V38.8195H25.9037Z" fill="#090D0A"/>
<path opacity="0.2" d="M25.9037 38.8195H27.3242V42.1849C27.3242 42.3169 27.2717 42.4435 27.1784 42.5368C27.0851 42.6301 26.9585 42.6826 26.8265 42.6826H26.4027C26.2707 42.6826 26.1441 42.6301 26.0508 42.5368C25.9575 42.4435 25.905 42.3169 25.905 42.1849V38.8195H25.9037Z" fill="#FEFEFE"/>
<path d="M22.5678 39.2018H30.471C30.605 39.2018 30.7137 39.0931 30.7137 38.959V38.904C30.7137 38.7699 30.605 38.6612 30.471 38.6612H22.5678C22.4338 38.6612 22.3251 38.7699 22.3251 38.904V38.959C22.3251 39.0931 22.4338 39.2018 22.5678 39.2018Z" fill="#090D0A"/>
<path opacity="0.2" d="M23.5738 47.4993C23.5738 47.6359 23.5333 47.7694 23.4574 47.883C23.3815 47.9966 23.2736 48.0852 23.1474 48.1375C23.0212 48.1897 22.8823 48.2034 22.7483 48.1768C22.6143 48.1501 22.4912 48.0843 22.3946 47.9877C22.298 47.8911 22.2322 47.768 22.2055 47.634C22.1789 47.5 22.1926 47.3611 22.2448 47.2349C22.2971 47.1087 22.3857 47.0008 22.4993 46.9249C22.6129 46.849 22.7464 46.8085 22.883 46.8085C23.0663 46.8085 23.242 46.8812 23.3715 47.0108C23.5011 47.1403 23.5738 47.316 23.5738 47.4993Z" fill="#FEFEFE"/>
<path opacity="0.2" d="M30.3328 48.19C30.7143 48.19 31.0235 47.8808 31.0235 47.4993C31.0235 47.1177 30.7143 46.8085 30.3328 46.8085C29.9512 46.8085 29.642 47.1177 29.642 47.4993C29.642 47.8808 29.9512 48.19 30.3328 48.19Z" fill="#FEFEFE"/>
<path d="M31.0798 32.4415H28.6721C27.9666 32.4415 27.4569 31.807 27.5347 31.0263L27.6366 29.9828C27.7144 29.2008 28.3475 28.5663 29.0531 28.5663H31.4608C32.1663 28.5663 32.676 29.2008 32.5996 29.9828L32.4963 31.0263C32.4198 31.807 31.7854 32.4415 31.0798 32.4415Z" fill="#090D0A"/>
<path opacity="0.2" d="M31.0798 32.4415H28.6721C27.9666 32.4415 27.4569 31.807 27.5347 31.0263L27.6366 29.9828C27.7144 29.2008 28.3475 28.5663 29.0531 28.5663H31.4608C32.1663 28.5663 32.676 29.2008 32.5996 29.9828L32.4963 31.0263C32.4198 31.807 31.7854 32.4415 31.0798 32.4415Z" fill="#FEFEFE"/>
<path d="M30.8585 31.9331H29.4394C29.0223 31.9331 28.7205 31.5589 28.7687 31.0961L28.8304 30.4804C28.8747 30.0177 29.2503 29.6434 29.6674 29.6434H31.0893C31.5064 29.6434 31.8082 30.0177 31.7599 30.4804L31.6982 31.0961C31.6499 31.5589 31.2757 31.9331 30.8585 31.9331Z" fill="#090D0A"/>
<path d="M29.7292 31.0129C29.7292 31.0129 29.4046 37.5385 27.9989 38.6585H29.5025C29.5025 38.6585 30.8439 36.4359 30.9418 31.0129H29.7292Z" fill="#090D0A"/>
<path d="M30.939 28.2941L31.1979 28.1599C31.2465 28.1351 31.3002 28.1221 31.3548 28.1221C31.4094 28.1221 31.4632 28.1351 31.5117 28.1599L31.9758 28.388C32.0672 28.4329 32.1465 28.4991 32.2069 28.581C32.2674 28.6629 32.3073 28.7582 32.3233 28.8588L32.3447 28.9862C31.9302 29.2464 31.2918 29.2223 31.2918 29.2223L31.108 29.237C31.0705 29.2409 31.0326 29.2373 30.9966 29.2264C30.9605 29.2155 30.927 29.1976 30.8979 29.1736C30.8688 29.1497 30.8448 29.1202 30.8272 29.0868C30.8096 29.0535 30.7988 29.017 30.7955 28.9795L30.7633 28.6173C30.7572 28.5521 30.7706 28.4865 30.8019 28.4289C30.8332 28.3714 30.8809 28.3244 30.939 28.2941Z" fill="#B97964"/>
<path opacity="0.2" d="M30.939 28.2941L31.1979 28.1599C31.2465 28.1351 31.3002 28.1221 31.3548 28.1221C31.4094 28.1221 31.4632 28.1351 31.5117 28.1599L31.9758 28.388C32.0672 28.4329 32.1465 28.4991 32.2069 28.581C32.2674 28.6629 32.3073 28.7582 32.3233 28.8588L32.3447 28.9862C31.9302 29.2464 31.2918 29.2223 31.2918 29.2223L31.108 29.237C31.0705 29.2409 31.0326 29.2373 30.9966 29.2264C30.9605 29.2155 30.927 29.1976 30.8979 29.1736C30.8688 29.1497 30.8448 29.1202 30.8272 29.0868C30.8096 29.0535 30.7988 29.017 30.7955 28.9795L30.7633 28.6173C30.7572 28.5521 30.7706 28.4865 30.8019 28.4289C30.8332 28.3714 30.8809 28.3244 30.939 28.2941Z" fill="black"/>
<path d="M29.0371 28.6133L28.0982 29.8004H27.2048L27.3215 28.1439C27.9976 28.274 29.0371 28.6133 29.0371 28.6133Z" fill="#5B998A"/>
<path opacity="0.2" d="M28.0189 29.8004H27.2463L27.7265 28.6133C27.7265 28.6133 28.0015 29.0304 28.0189 29.8004Z" fill="black"/>
<path d="M26.6012 34.1396L22.6698 33.7747C22.7932 33.3562 22.9019 32.9458 22.9931 32.5501C23.1084 32.0659 23.1996 31.6018 23.2721 31.1685C23.3445 30.7353 23.4062 30.3329 23.4491 29.968L23.4612 29.8648C23.4612 29.8071 23.4746 29.7507 23.48 29.6971C23.5189 29.3443 23.543 29.0372 23.5591 28.7836C23.5926 28.2887 23.5926 28.003 23.5926 28.003C24.9396 27.745 26.3297 27.8276 27.6368 28.2431C28.2216 29.8902 26.6012 34.1396 26.6012 34.1396Z" fill="#5B998A"/>
<path d="M26.5877 28.506C26.528 28.6297 26.4367 28.7355 26.3231 28.8127C26.2094 28.8898 26.0774 28.9356 25.9403 28.9454C25.8033 28.9552 25.6661 28.9287 25.5426 28.8685C25.4191 28.8083 25.3137 28.7166 25.237 28.6026L25.0667 28.3491L24.8574 28.0339C25.2089 27.826 25.347 27.1607 25.394 26.5893C25.4087 26.4095 25.4141 26.2405 25.4141 26.097L26.2967 27.3042C26.2349 27.432 26.1899 27.5673 26.1625 27.7066C26.1514 27.764 26.1469 27.8225 26.1491 27.881C26.1505 28.1157 26.2672 28.333 26.5877 28.506Z" fill="#B97964"/>
<path opacity="0.2" d="M26.294 27.3109C26.2322 27.4387 26.1872 27.574 26.1599 27.7133C25.9278 28.0111 25.567 28.3263 25.0694 28.3464L24.8574 28.0339C25.2089 27.826 25.347 27.1607 25.394 26.5893C25.4087 26.4095 25.4141 26.2405 25.4141 26.097L26.294 27.3109Z" fill="black"/>
<path d="M24.1734 25.2949C24.1734 25.2949 23.7374 25.1312 23.8662 24.8294C23.995 24.5276 24.1506 24.5303 24.1506 24.5303C24.0847 24.4069 24.0489 24.2697 24.0461 24.1298C24.0433 23.99 24.0736 23.8514 24.1345 23.7255C24.3504 23.3231 24.8279 23.4867 24.8279 23.4867C24.8298 23.3603 24.8747 23.2383 24.9551 23.1408C25.0356 23.0433 25.1468 22.9761 25.2706 22.9502C25.3969 22.9293 25.5265 22.9502 25.6398 23.0098C25.7532 23.0693 25.8439 23.1643 25.8983 23.2802C25.8983 23.2802 26.1988 22.8898 26.6387 22.9972C27.0787 23.1045 27.1672 23.7174 27.1672 23.7174C27.2874 23.6783 27.418 23.6869 27.532 23.7416C27.6459 23.7964 27.7343 23.8929 27.7789 24.0112C27.8387 24.1347 27.8637 24.2721 27.8512 24.4087C27.8386 24.5454 27.7891 24.676 27.7078 24.7865C27.7078 24.7865 27.9881 24.6524 28.0807 25.1044C28.1732 25.5564 27.7011 25.9534 27.7011 25.9534C27.7011 25.9534 27.9559 25.9843 27.8245 26.3183C27.693 26.6523 27.2785 26.6576 27.2785 26.6576C27.2785 26.6576 27.4395 26.7395 27.135 27.0144C26.8305 27.2894 25.85 26.8964 25.85 26.8964L24.1734 25.2949Z" fill="#090D0A"/>
<path d="M25.3725 24.5786C24.4336 24.6269 24.1653 25.1446 24.1425 26.1144C24.1197 27.3216 24.4322 28.168 25.5898 27.8488C27.1592 27.4155 26.9284 24.4968 25.3725 24.5786Z" fill="#B97964"/>
<path d="M24.7447 26.0299C24.6771 26.1737 24.5925 26.3088 24.4926 26.4323C24.5222 26.4697 24.5615 26.4982 24.6062 26.5148C24.6509 26.5313 24.6993 26.5353 24.7461 26.5262L24.7447 26.0299Z" fill="#A24E3F"/>
<path d="M25.3148 25.9226C25.3148 26.0004 25.3604 26.0567 25.4114 26.0567C25.4624 26.0567 25.5026 25.9923 25.5013 25.9145C25.4999 25.8367 25.4557 25.7804 25.4034 25.7804C25.351 25.7804 25.3121 25.8461 25.3148 25.9226Z" fill="#090D0A"/>
<path d="M25.4249 25.7848L25.2559 25.7227C25.2559 25.7227 25.343 25.863 25.4249 25.7848Z" fill="#090D0A"/>
<path d="M24.3557 25.9347C24.3557 26.0125 24.4014 26.0689 24.4537 26.0689C24.506 26.0689 24.5449 26.0045 24.5422 25.9267C24.5395 25.8489 24.4966 25.7925 24.4456 25.7925C24.3946 25.7925 24.3544 25.8583 24.3557 25.9347Z" fill="#090D0A"/>
<path d="M24.4671 25.7955L24.2968 25.7348C24.2968 25.7348 24.3853 25.8737 24.4671 25.7955Z" fill="#090D0A"/>
<path d="M25.7038 25.4357C25.6982 25.4358 25.6927 25.4347 25.6876 25.4324C25.6825 25.4301 25.6779 25.4266 25.6743 25.4223C25.6237 25.3771 25.5635 25.344 25.4982 25.3254C25.4329 25.3068 25.3643 25.3033 25.2974 25.315C25.2922 25.316 25.2869 25.3159 25.2817 25.3148C25.2765 25.3137 25.2716 25.3116 25.2673 25.3086C25.2629 25.3057 25.2592 25.3018 25.2563 25.2974C25.2534 25.293 25.2514 25.288 25.2505 25.2828C25.2489 25.2725 25.2514 25.262 25.2574 25.2535C25.2634 25.245 25.2724 25.2392 25.2827 25.2372C25.363 25.2225 25.4457 25.227 25.5241 25.2503C25.6024 25.2736 25.6741 25.3151 25.7333 25.3714C25.7407 25.3789 25.7448 25.389 25.7448 25.3995C25.7448 25.4101 25.7407 25.4202 25.7333 25.4277C25.7249 25.434 25.7143 25.4369 25.7038 25.4357Z" fill="#090D0A"/>
<path d="M24.2377 25.4076C24.2316 25.4075 24.2256 25.4062 24.2201 25.4037C24.2145 25.4011 24.2096 25.3974 24.2056 25.3928C24.1992 25.3843 24.1964 25.3736 24.1979 25.363C24.1994 25.3524 24.2051 25.3429 24.2136 25.3365C24.2687 25.2902 24.3334 25.257 24.4031 25.2391C24.4727 25.2212 24.5455 25.2192 24.616 25.2332C24.6211 25.2347 24.6259 25.2373 24.6301 25.2407C24.6342 25.2441 24.6377 25.2483 24.6402 25.253C24.6427 25.2578 24.6442 25.263 24.6446 25.2683C24.6451 25.2737 24.6445 25.2791 24.6428 25.2842C24.6395 25.294 24.6324 25.3022 24.6232 25.3069C24.6139 25.3117 24.6032 25.3126 24.5932 25.3097C24.5343 25.299 24.4737 25.3017 24.4159 25.3175C24.3581 25.3333 24.3046 25.3618 24.2592 25.4009C24.2528 25.405 24.2454 25.4074 24.2377 25.4076Z" fill="#090D0A"/>
<path d="M26.4791 26.1037C26.4791 26.1037 26.0003 25.3565 26.0365 24.7623C26.0365 24.7623 24.1398 24.1011 24.1465 25.9897C24.1465 25.9897 23.8783 24.3264 25.4879 24.2043C27.0975 24.0823 27.2128 26.439 26.4174 27.1848C26.4161 27.1821 26.7755 26.5704 26.4791 26.1037Z" fill="#090D0A"/>
<path d="M26.3369 26.3103C26.3381 26.2561 26.35 26.2026 26.372 26.1531C26.3939 26.1035 26.4254 26.0587 26.4646 26.0213C26.5039 25.9839 26.5501 25.9547 26.6007 25.9352C26.6513 25.9157 26.7052 25.9064 26.7594 25.9079C27.0518 25.9253 27.2209 26.5141 26.5059 26.6952C26.404 26.7234 26.3396 26.6255 26.3369 26.3103Z" fill="#B97964"/>
<path d="M24.9715 27.0721C24.9447 27.074 24.9178 27.074 24.891 27.0721C24.8858 27.0711 24.8809 27.0692 24.8764 27.0663C24.872 27.0634 24.8682 27.0597 24.8652 27.0553C24.8622 27.0509 24.8601 27.046 24.859 27.0409C24.8579 27.0357 24.8579 27.0303 24.8588 27.0252C24.8596 27.02 24.8615 27.0151 24.8642 27.0107C24.867 27.0062 24.8706 27.0024 24.8748 26.9994C24.8791 26.9964 24.8839 26.9943 24.889 26.9932C24.8941 26.9921 24.8993 26.992 24.9044 26.993C25.0055 27.0107 25.1095 26.9939 25.1998 26.9452C25.2901 26.8966 25.3614 26.8189 25.4021 26.7247C25.404 26.7198 25.4069 26.7153 25.4106 26.7114C25.4143 26.7076 25.4187 26.7046 25.4235 26.7025C25.4284 26.7003 25.4336 26.6992 25.4389 26.6991C25.4442 26.699 25.4495 26.7 25.4544 26.7019C25.4593 26.7038 25.4638 26.7067 25.4676 26.7104C25.4715 26.7141 25.4745 26.7185 25.4766 26.7233C25.4787 26.7282 25.4799 26.7334 25.48 26.7387C25.4801 26.744 25.4791 26.7493 25.4772 26.7542C25.4361 26.8529 25.3654 26.9365 25.2748 26.9934C25.1843 27.0503 25.0783 27.0778 24.9715 27.0721Z" fill="#090D0A"/>
<path d="M26.8239 25.7616C26.5999 24.5987 24.8803 23.6222 24.2351 24.9743C24.3433 24.6354 24.5525 24.3377 24.8347 24.1212C24.8347 24.1212 26.5784 23.6235 26.8856 25.6101L26.8239 25.7616Z" fill="#5B998A"/>
<path d="M25.9077 48.1539C25.2371 48.1539 25.1472 48.1431 24.7689 48.1297C24.4457 48.119 24.3665 48.1592 24.109 48.1539C23.8917 48.1539 23.8998 47.9406 23.9668 47.7018C24.0004 47.5811 24.0513 47.3276 24.101 47.1344L25.0855 47.062C25.2196 47.3303 25.5362 47.7045 25.9144 47.7555C26.2927 47.8065 26.1747 48.1539 25.9077 48.1539Z" fill="#090D0A"/>
<path d="M22.7328 33.6916C22.7328 33.6916 21.3915 35.6862 22.1185 37.3253C22.8455 38.9644 26.522 38.224 26.522 38.224L24.0996 47.1384L25.2585 47.3303C25.2585 47.3303 29.367 38.4949 29.4716 36.9886C29.5763 35.4823 25.1405 34.5152 25.1405 34.5152L22.7328 33.6916Z" fill="#5B998A"/>
<path opacity="0.3" d="M22.7328 33.6916C22.7328 33.6916 21.3915 35.6862 22.1185 37.3253C22.8455 38.9644 26.522 38.224 26.522 38.224L24.0996 47.1384L25.2585 47.3303C25.2585 47.3303 29.367 38.4949 29.4716 36.9886C29.5763 35.4823 25.1405 34.5152 25.1405 34.5152L22.7328 33.6916Z" fill="#FEFEFE"/>
<path opacity="0.2" d="M26.8239 29.1069C26.8239 29.1069 24.946 30.4295 23.4612 29.8608C23.4612 29.8031 23.4746 29.7467 23.48 29.6931C23.5189 29.3403 23.543 29.0332 23.5591 28.7796C24.0403 28.5598 24.5399 28.3825 25.052 28.2498C25.5792 28.6514 26.1818 28.9429 26.8239 29.1069Z" fill="black"/>
<path d="M24.2083 28.0057C25.0346 28.4081 25.8877 28.9084 26.7877 29.0922C27.3054 29.0587 27.8849 28.8481 28.4053 28.7059L29.9653 28.2337C30.0321 28.2127 30.1044 28.2173 30.168 28.2467C30.2316 28.2761 30.282 28.3281 30.3093 28.3926C30.3366 28.4571 30.3389 28.5295 30.3157 28.5956C30.2925 28.6617 30.2456 28.7168 30.1839 28.7501C29.697 29.0184 29.2061 29.2652 28.6977 29.4906C28.07 29.7481 27.4905 30.0486 26.7823 30.1129C26.5282 30.11 26.2755 30.073 26.0312 30.003C25.2066 29.761 24.4126 29.4248 23.6651 29.001C23.5461 28.9232 23.4607 28.8035 23.4258 28.6657C23.3908 28.528 23.4088 28.3821 23.4763 28.2569C23.5437 28.1318 23.6557 28.0366 23.79 27.9901C23.9243 27.9435 24.0712 27.9491 24.2016 28.0057H24.2083Z" fill="#B97864"/>
<path d="M23.7642 27.8569C23.0413 28.0286 23.0171 29.2693 23.6811 29.8514L25.2907 28.4927C25.2907 28.4927 24.6214 27.653 23.7642 27.8569Z" fill="#5B998A"/>
<path d="M30.0068 28.2405L30.8988 28.219L30.4964 29.1217C30.4964 29.1217 29.6916 29.0935 29.7305 28.6831L30.0068 28.2405Z" fill="#B97964"/>
<path d="M31.6648 28.6603L31.0531 29.3189L30.4938 29.1217L30.8989 28.219L31.6648 28.6603Z" fill="#B97964"/>
<path d="M43.6415 39.1012C44.2652 40.3916 44.8661 41.6819 45.2725 43.0635C45.459 44.0024 45.4938 44.9575 45.5636 45.8897C45.6119 46.6609 45.64 47.4309 45.6508 48.2048L44.96 48.2773C44.7414 47.1894 44.5361 45.9755 44.3457 44.8783C44.2545 44.382 44.1847 43.8938 44.06 43.4163C43.5851 42.1863 42.9265 40.92 42.3806 39.7102L43.6415 39.1012Z" fill="#DC897C"/>
<path d="M44.6716 40.7899L43.5784 41.313L42.8997 41.6417L42.4879 40.6518L42.0574 39.6149L42.4209 37.725C43.5369 38.2132 44.6716 40.7899 44.6716 40.7899Z" fill="#5B998A"/>
<path opacity="0.2" d="M43.5784 41.3131L42.8997 41.6417L42.4879 40.6518C42.5724 40.0911 42.6435 39.6149 42.6435 39.6149C42.6435 39.6149 43.4376 40.3272 43.5784 41.3131Z" fill="black"/>
<path d="M40.3042 34.2979C40.3163 34.3784 40.3686 34.4321 40.4209 34.4321C40.4732 34.4321 40.5054 34.3529 40.4934 34.2724C40.4813 34.192 40.4276 34.1383 40.3753 34.1383C40.323 34.1383 40.2841 34.2188 40.3042 34.2979Z" fill="#090D0A"/>
<path d="M40.3539 34.4374C40.4869 34.667 40.6507 34.8773 40.8408 35.0624C40.7926 35.1104 40.7345 35.1473 40.6705 35.1705C40.6066 35.1936 40.5383 35.2025 40.4706 35.1966L40.3539 34.4374Z" fill="#DE5753"/>
<path d="M39.9354 33.8995C39.9234 33.8991 39.9119 33.8943 39.9032 33.8861C39.8945 33.8771 39.8896 33.8651 39.8896 33.8526C39.8896 33.8401 39.8945 33.828 39.9032 33.819C39.9557 33.7652 40.0204 33.7249 40.0919 33.7015C40.1634 33.6781 40.2395 33.6724 40.3136 33.6849C40.3197 33.6862 40.3255 33.6886 40.3307 33.6922C40.3358 33.6957 40.3402 33.7002 40.3436 33.7055C40.3469 33.7107 40.3492 33.7166 40.3503 33.7227C40.3514 33.7289 40.3512 33.7352 40.3499 33.7412C40.3486 33.7473 40.3461 33.7531 40.3426 33.7583C40.339 33.7634 40.3345 33.7678 40.3293 33.7712C40.324 33.7745 40.3182 33.7768 40.312 33.7779C40.3059 33.779 40.2996 33.7788 40.2935 33.7775C40.2346 33.7691 40.1744 33.7749 40.1182 33.7945C40.062 33.8141 40.0112 33.8469 39.9703 33.8901C39.9654 33.8939 39.9597 33.8967 39.9538 33.8983C39.9478 33.8999 39.9415 33.9003 39.9354 33.8995Z" fill="#090D0A"/>
<path d="M40.5537 35.5105C40.5281 35.8343 40.39 36.1389 40.1634 36.3716C40.0137 36.5253 39.8299 36.6416 39.6269 36.711C39.4326 36.7784 39.2245 36.7965 39.0215 36.7635C38.8185 36.7304 38.6269 36.6474 38.464 36.5219C37.8899 36.0953 37.8147 35.5145 37.6028 34.5421C37.5506 34.3166 37.557 34.0816 37.6212 33.8593C37.6854 33.6369 37.8054 33.4347 37.9698 33.2719C38.1342 33.109 38.3374 32.9908 38.5603 32.9286C38.7832 32.8664 39.0183 32.8622 39.2433 32.9164C40.268 33.1591 40.6275 34.5957 40.5537 35.5105Z" fill="#E4897B"/>
<path d="M37.9716 36.1288C38.374 36.3823 39.8951 35.67 39.6442 34.4722C39.6442 34.4722 40.2438 33.8163 40.2143 33.0612C40.1848 32.306 39.6778 31.9881 39.1251 32.1303C38.6342 32.2496 38.6356 32.5166 38.6356 32.5166C38.6356 32.5166 36.3338 32.6789 36.7792 33.6326C35.8 34.6064 37.4766 35.8136 37.9716 36.1288Z" fill="#090D0A"/>
<path d="M39.2312 34.6587C39.2855 34.9003 39.418 35.1171 39.6081 35.2757C39.8589 35.4823 40.0628 35.2999 40.0588 35.0075C40.0588 34.7392 39.9246 34.314 39.6336 34.2215C39.3425 34.1289 39.1748 34.3677 39.2312 34.6587Z" fill="#E4897B"/>
<path opacity="0.2" d="M40.4839 35.8484C40.4169 36.0443 40.3075 36.223 40.1633 36.3716C40.0136 36.5253 39.8298 36.6415 39.6268 36.7109C39.4904 36.6419 39.3594 36.5625 39.2351 36.4735L39.439 35.9732C39.439 35.9732 40.0641 36.279 40.4839 35.8484Z" fill="black"/>
<path d="M38.2989 37.3562L38.1272 36.1798C38.1272 36.1798 38.8931 35.6433 39.6952 36.0041L40.9024 37.4594L38.2989 37.3562Z" fill="#E4897B"/>
<path d="M41.042 37.3145L40.7616 36.8947C40.7616 36.8947 38.7282 36.1422 37.8416 37.1066C37.8416 37.1066 39.8254 38.1555 41.042 37.3145Z" fill="#5B998A"/>
<path opacity="0.2" d="M41.042 37.3145L40.7616 36.8947C40.7616 36.8947 38.7282 36.1422 37.8416 37.1066C37.8416 37.1066 39.8254 38.1555 41.042 37.3145Z" fill="black"/>
<path d="M33.234 48.7199L32.4681 48.2263L32.7619 47.7877L33.56 46.5966L34.3272 47.0902L33.4446 48.406L33.234 48.7199Z" fill="#E4897B"/>
<path d="M32.5245 48.1632L33.5976 48.1525C33.615 48.1529 33.6318 48.159 33.6454 48.1699C33.659 48.1808 33.6686 48.1959 33.6727 48.2128L33.8524 48.9921C33.859 49.0257 33.8525 49.0604 33.8343 49.0894C33.8161 49.1183 33.7876 49.1391 33.7545 49.1477H33.7263C33.3803 49.1477 33.1295 49.1263 32.6962 49.1303C32.4279 49.1303 31.6231 49.1692 31.2556 49.1719C30.8881 49.1746 30.8344 48.8124 30.9873 48.7775C31.658 48.6233 32.1704 48.414 32.385 48.2169C32.4234 48.1825 32.473 48.1634 32.5245 48.1632Z" fill="#090D0A"/>
<path d="M32.7311 47.4912L34.1341 47.8695L41.7502 42.091L37.8429 41.2352C37.5638 41.1756 37.2732 41.2022 37.0096 41.3117C36.7461 41.4212 36.5221 41.6084 36.3674 41.8482L32.7311 47.4912Z" fill="#090D0A"/>
<path opacity="0.2" d="M32.7311 47.4912L34.1341 47.8695L41.7502 42.091L37.8429 41.2352C37.5638 41.1756 37.2732 41.2022 37.0096 41.3117C36.7461 41.4212 36.5221 41.6084 36.3674 41.8482L32.7311 47.4912Z" fill="black"/>
<path d="M28.5675 48.7481L27.7761 48.296L28.0471 47.8427L28.7808 46.6113L29.5722 47.0634L28.7607 48.4235L28.5675 48.7481Z" fill="#E4897B"/>
<path d="M27.807 48.1445H28.8801C28.8976 48.1446 28.9145 48.1507 28.9281 48.1616C28.9417 48.1726 28.9513 48.1878 28.9552 48.2048L29.1282 48.9868C29.1343 49.0205 29.1273 49.0553 29.1086 49.0839C29.0899 49.1126 29.0609 49.133 29.0276 49.1411H28.9995C28.6547 49.1411 28.4026 49.1142 27.9693 49.1142C27.701 49.1142 26.8962 49.1424 26.5287 49.1424C26.1612 49.1424 26.1116 48.7776 26.2605 48.74C26.9311 48.5925 27.4475 48.3886 27.6648 48.1941C27.7047 48.161 27.7552 48.1434 27.807 48.1445Z" fill="#090D0A"/>
<path d="M43.5878 45.1251L38.2627 45.1385C38.1286 44.6664 37.9596 43.0233 37.4391 40.9911C37.2983 40.4399 37.1306 39.8604 36.9334 39.2662C36.7697 38.7288 36.5707 38.2027 36.3379 37.6915C36.8197 37.4002 37.3492 37.1963 37.9019 37.0892C40.2586 36.6868 42.4208 37.725 42.4208 37.725C42.4208 37.725 43.3557 40.3272 43.5878 45.1251Z" fill="#5B998A"/>
<path opacity="0.2" d="M37.4392 40.9912C37.2983 40.4399 37.1306 39.8604 36.9335 39.2662L37.305 39.116C37.305 39.116 37.8898 40.4345 37.4392 40.9912Z" fill="black"/>
<path d="M35.1092 41.9032L35.7276 42.1956L35.9637 41.1548C35.9637 41.1548 35.4701 40.9817 35.0999 41.2339L35.1092 41.9032Z" fill="#E4897B"/>
<path d="M36.6142 42.5484L36.6423 41.6001L35.9636 41.1548L35.7275 42.1957L36.6142 42.5484Z" fill="#E4897B"/>
<path d="M37.0368 39.3212C36.008 39.8778 34.833 40.3942 33.9383 41.1226C33.9182 41.14 33.9249 41.1481 33.9477 41.0703C33.952 41.0207 33.9456 40.9709 33.9289 40.924C33.9141 40.873 33.8812 40.8292 33.8364 40.8006C33.8189 40.7939 33.8296 40.81 33.8538 40.8261C33.8873 40.847 33.9228 40.8646 33.9598 40.8784C34.3729 41.0354 34.9456 41.0877 35.4084 41.1467L35.4781 41.8375C35.3319 41.8791 35.1951 41.9072 35.0516 41.9341C34.5151 42.0266 33.9584 42.0923 33.3937 41.9059C33.151 41.8329 32.9463 41.6683 32.8228 41.447C32.6994 41.2257 32.667 40.965 32.7324 40.7202C33.0088 39.7396 35.509 38.5164 36.4265 38.0616L37.0368 39.3225V39.3212Z" fill="#DC897C"/>
<path d="M38.0118 44.0051L37.7731 44.6168C37.7731 44.6168 34.9201 41.0918 33.3467 40.8906C31.7733 40.6894 28.1155 47.388 28.1155 47.388L29.5024 47.8078L33.4057 44.2667C35.0153 47.0754 36.9401 49.1357 39.2284 49.1357H41.4631C43.962 49.1357 43.9901 46.3484 43.4965 43.985L38.0118 44.0051Z" fill="#090D0A"/>
<path d="M36.3379 37.6915C35.4432 38.0188 34.3916 39.0113 34.3916 39.0113C34.3916 39.0113 35.2769 40.5458 35.3654 40.4868C35.4539 40.4278 37.2701 39.9073 37.2701 39.9073C37.2701 39.9073 37.6403 39.4272 37.3559 38.6143C37.282 38.3848 37.149 38.1787 36.9703 38.0167C36.7917 37.8548 36.5735 37.7426 36.3379 37.6915Z" fill="#5B998A"/>
<path d="M45.3221 47.7421L46.2946 47.7904L45.7808 48.74C45.7808 48.74 44.9157 48.6448 44.9841 48.2035L45.3221 47.7421Z" fill="#E4897B"/>
<path d="M47.0914 48.3322L46.3738 48.9989L45.7809 48.74L46.2946 47.7903L47.0914 48.3322Z" fill="#E4897B"/>
<path d="M15.1837 38.1234C15.8356 38.7806 16.4781 39.517 17.2588 40.0146C17.2588 40.0146 17.307 40.0401 17.3111 40.0441C17.2901 40.0363 17.2677 40.0327 17.2453 40.0334C17.2252 40.0334 17.2574 40.0334 17.2923 40.0334C18.1829 39.7812 19.0105 39.2004 19.8301 38.7538C19.8935 38.7156 19.9688 38.702 20.0416 38.7157C20.1144 38.7294 20.1796 38.7693 20.2248 38.828C20.27 38.8866 20.2921 38.9599 20.2869 39.0337C20.2816 39.1076 20.2494 39.177 20.1963 39.2286C19.5578 39.8201 17.8369 41.4016 16.9328 41.0703C16.3802 40.8677 15.9188 40.4868 15.4842 40.1206C15.0597 39.7526 14.6596 39.3575 14.2864 38.9375C13.7753 38.3299 14.6284 37.556 15.1837 38.1247V38.1234Z" fill="#E9B376"/>
<path d="M16.3051 39.0515C16.1911 39.9046 15.5003 40.7416 15.5003 40.7416L15.3554 40.6423L14.6499 40.1742C14.6499 40.1742 14.6365 40.134 14.6163 40.0629C14.5962 39.9918 14.5707 39.9086 14.5399 39.7946C14.3776 39.2259 14.0852 38.1622 14.049 37.7209C14.9248 37.7008 15.3192 38.1179 16.3051 39.0515Z" fill="#5B998A"/>
<path opacity="0.7" d="M16.3051 39.0515C16.1911 39.9046 15.5003 40.7416 15.5003 40.7416L15.3554 40.6423L14.6499 40.1742C14.6499 40.1742 14.6365 40.134 14.6163 40.0629C14.5962 39.9918 14.5707 39.9086 14.5399 39.7946C14.3776 39.2259 14.0852 38.1622 14.049 37.7209C14.9248 37.7008 15.3192 38.1179 16.3051 39.0515Z" fill="#FEFEFE"/>
<path opacity="0.2" d="M15.3554 40.6424L14.6499 40.1742C14.6499 40.1742 14.6365 40.134 14.6163 40.0629C14.6425 39.847 14.6819 39.6329 14.7344 39.4218C14.9203 39.568 15.0721 39.7529 15.1793 39.9637C15.2866 40.1744 15.3467 40.406 15.3554 40.6424Z" fill="black"/>
<path d="M14.497 43.2579L15.0992 44.3122C16.7088 43.9366 21.8837 43.1479 22.5181 44.9225C23.3082 47.1263 17.6035 48.8848 14.4473 48.9921C11.2912 49.0994 8.53742 48.3483 10.5333 43.7462L14.497 43.2579Z" fill="#090D0A"/>
<path opacity="0.2" d="M14.497 43.2579L15.0992 44.3122C16.7088 43.9366 21.8837 43.1479 22.5181 44.9225C23.3082 47.1263 17.6035 48.8848 14.4473 48.9921C11.2912 49.0994 8.53742 48.3483 10.5333 43.7462L14.497 43.2579Z" fill="black"/>
<path d="M21.6047 48.0384C21.6011 48.0407 21.5969 48.0419 21.5926 48.0419C21.5884 48.0419 21.5842 48.0407 21.5806 48.0384C21.5787 48.0354 21.5776 48.0319 21.5776 48.0284C21.5776 48.0248 21.5787 48.0213 21.5806 48.0183C21.5913 47.9834 21.6959 47.6803 21.8019 47.6481C21.813 47.6454 21.8246 47.6456 21.8357 47.6486C21.8467 47.6517 21.8568 47.6575 21.8649 47.6655C21.8795 47.6778 21.8906 47.6937 21.8972 47.7115C21.9037 47.7294 21.9056 47.7487 21.9025 47.7675C21.8852 47.8245 21.8505 47.8747 21.8032 47.911C21.7416 47.9602 21.6751 48.0029 21.6047 48.0384ZM21.6315 47.9807C21.7301 47.9379 21.8097 47.8607 21.8555 47.7634C21.8585 47.7508 21.8577 47.7376 21.8532 47.7254C21.8486 47.7132 21.8406 47.7026 21.83 47.695C21.8271 47.6913 21.8231 47.6886 21.8185 47.6872C21.814 47.6857 21.8091 47.6857 21.8046 47.687C21.7956 47.6903 21.7874 47.6953 21.7804 47.7017C21.7142 47.7849 21.6638 47.8795 21.6315 47.9807Z" fill="#090D0A"/>
<path d="M21.5979 48.0425C21.5953 48.0446 21.592 48.0458 21.5886 48.0458C21.5851 48.0458 21.5818 48.0446 21.5792 48.0425C21.5684 48.0344 21.4236 47.8506 21.445 47.7259C21.4476 47.7104 21.4533 47.6957 21.4619 47.6825C21.4704 47.6693 21.4816 47.6581 21.4947 47.6494C21.506 47.6392 21.5204 47.6329 21.5356 47.6314C21.5508 47.63 21.5661 47.6335 21.5792 47.6414C21.6556 47.6964 21.6462 47.9419 21.6087 48.0357V48.0451L21.5979 48.0425ZM21.5161 47.683C21.5027 47.6937 21.4937 47.709 21.4906 47.7259C21.4947 47.8188 21.5291 47.9079 21.5886 47.9794C21.6114 47.8748 21.6047 47.7018 21.5591 47.6709C21.5591 47.6709 21.5456 47.6602 21.5228 47.6709V47.6776L21.5161 47.683Z" fill="#090D0A"/>
<path d="M16.0555 48.5562C16.0576 48.5528 16.0606 48.5501 16.0642 48.5485C16.0678 48.5468 16.0717 48.5462 16.0757 48.5468C16.0793 48.547 16.0827 48.5485 16.0854 48.5509C16.088 48.5534 16.0898 48.5566 16.0904 48.5602C16.0985 48.5964 16.1534 48.913 16.077 48.9921C16.0684 48.9998 16.0579 49.0051 16.0466 49.0075C16.0353 49.0098 16.0236 49.0091 16.0126 49.0055C15.9937 49.0024 15.9761 48.9941 15.9616 48.9816C15.9472 48.969 15.9365 48.9527 15.9308 48.9344C15.9175 48.8768 15.9237 48.8165 15.9482 48.7627C15.9767 48.6903 16.0127 48.6211 16.0555 48.5562ZM16.0555 48.6206C15.9902 48.7056 15.9574 48.8112 15.963 48.9183C15.9667 48.9312 15.9741 48.9427 15.9844 48.9513C15.9947 48.9599 16.0073 48.9653 16.0207 48.9666C16.0244 48.9692 16.0289 48.9705 16.0334 48.9705C16.0379 48.9705 16.0424 48.9692 16.0461 48.9666C16.0522 48.9596 16.0567 48.9513 16.0596 48.9425C16.0797 48.8361 16.0797 48.7269 16.0596 48.6206H16.0555Z" fill="#090D0A"/>
<path d="M18.1212 46.9587L16.8228 47.4214L16.1991 47.6441L16.3587 48.3268L16.9623 48.1981L18.4378 47.8829L18.1212 46.9587Z" fill="#EBB376"/>
<path d="M16.5291 48.359L16.4191 47.5542C16.4177 47.5436 16.4141 47.5333 16.4086 47.5241C16.4031 47.5149 16.3959 47.5069 16.3872 47.5005C16.3786 47.4941 16.3688 47.4895 16.3584 47.487C16.348 47.4845 16.3372 47.4841 16.3266 47.4858L15.9242 47.5528C15.9242 47.5528 15.3876 47.6025 15.2763 47.742C14.9624 48.1444 15.1583 49.9337 15.3675 49.9967C15.444 50.0195 15.5245 49.9149 15.558 49.8425C15.664 49.6118 15.8504 49.0095 15.9416 48.8191C16.0462 48.5951 16.344 48.4864 16.4674 48.4475C16.4868 48.443 16.5039 48.4315 16.5153 48.4151C16.5267 48.3988 16.5316 48.3788 16.5291 48.359Z" fill="#5B998A"/>
<path d="M16.0582 48.5562C16.0612 48.5541 16.0647 48.553 16.0683 48.553C16.0719 48.553 16.0754 48.5541 16.0783 48.5562C16.0904 48.5562 16.3077 48.6501 16.3466 48.7694C16.3513 48.7844 16.3531 48.8002 16.3517 48.8158C16.3503 48.8315 16.3458 48.8467 16.3386 48.8607C16.3343 48.8755 16.325 48.8884 16.3123 48.8972C16.2996 48.906 16.2842 48.9102 16.2688 48.9089C16.1763 48.8982 16.0649 48.6782 16.0529 48.579V48.5562C16.0546 48.5558 16.0565 48.5558 16.0582 48.5562ZM16.305 48.8311C16.3104 48.8146 16.3104 48.7967 16.305 48.7802C16.2795 48.7037 16.1588 48.6367 16.0971 48.6058C16.1266 48.7091 16.2165 48.8566 16.2715 48.862C16.2715 48.862 16.2876 48.862 16.2997 48.8392V48.8311H16.305Z" fill="#090D0A"/>
<path opacity="0.2" d="M18.1213 46.9587L16.8229 47.4214L16.9624 48.1981L18.4378 47.8829L18.1213 46.9587Z" fill="black"/>
<path d="M17.193 48.3147L17.5659 48.3416L17.3164 47.0566L16.8926 47.29L17.193 48.3147Z" fill="#5B998A"/>
<path opacity="0.6" d="M17.193 48.3147L17.5659 48.3416L17.3164 47.0566L16.8926 47.29L17.193 48.3147Z" fill="#FEFEFE"/>
<path opacity="0.2" d="M11.7754 43.325L13.7203 45.4819C13.7203 45.4819 15.8665 45.4336 18.4821 46.7105C18.4821 46.7105 21.2841 45.553 21.5416 44.5912C21.8796 43.3317 15.1032 44.3163 15.1032 44.3163L11.7754 43.325Z" fill="black"/>
<path d="M14.4768 44.1875L10.5105 43.7274C10.5865 43.3178 10.6313 42.903 10.6446 42.4867C10.6605 41.8934 10.6372 41.2997 10.5749 40.7094C10.5199 40.1447 10.4407 39.4955 10.3066 38.7336C10.2798 38.5974 10.2838 38.4569 10.3183 38.3224C10.3528 38.1879 10.417 38.0628 10.5061 37.9563C10.5952 37.8498 10.707 37.7646 10.8334 37.7069C10.9597 37.6493 11.0973 37.6206 11.2362 37.623C11.3958 37.623 11.5634 37.6311 11.7351 37.6418C12.3425 37.669 12.9472 37.7393 13.5446 37.8524C13.7377 37.8913 13.9376 37.9396 14.1294 37.9865C14.8175 38.1649 15.2441 39.0314 15.185 39.7302C15.1618 40.2733 15.1018 40.8143 15.0053 41.3492C14.8832 42.1379 14.7397 42.9079 14.4768 44.1875Z" fill="#5B998A"/>
<path opacity="0.7" d="M14.4768 44.1875L10.5105 43.7274C10.5865 43.3178 10.6313 42.903 10.6446 42.4867C10.6605 41.8934 10.6372 41.2997 10.5749 40.7094C10.5199 40.1447 10.4407 39.4955 10.3066 38.7336C10.2798 38.5974 10.2838 38.4569 10.3183 38.3224C10.3528 38.1879 10.417 38.0628 10.5061 37.9563C10.5952 37.8498 10.707 37.7646 10.8334 37.7069C10.9597 37.6493 11.0973 37.6206 11.2362 37.623C11.3958 37.623 11.5634 37.6311 11.7351 37.6418C12.3425 37.669 12.9472 37.7393 13.5446 37.8524C13.7377 37.8913 13.9376 37.9396 14.1294 37.9865C14.8175 38.1649 15.2441 39.0314 15.185 39.7302C15.1618 40.2733 15.1018 40.8143 15.0053 41.3492C14.8832 42.1379 14.7397 42.9079 14.4768 44.1875Z" fill="#FEFEFE"/>
<path opacity="0.2" d="M10.6474 42.488C10.6633 41.8947 10.64 41.301 10.5776 40.7108C11.0739 40.1246 11.5434 39.6377 11.5434 39.6377C11.5434 39.6377 12.3214 41.6403 10.6474 42.488Z" fill="black"/>
<path d="M11.2737 39.4204C11.3193 40.2694 11.3113 41.5906 11.4655 42.4021L11.4253 42.3029C11.3985 42.264 11.4146 42.3029 11.4427 42.3243C11.479 42.3603 11.5175 42.3939 11.5581 42.4249C12.0946 42.8273 12.7385 43.1372 13.3434 43.4578L14.1066 43.8508C14.1728 43.884 14.2244 43.9403 14.2518 44.0091C14.2791 44.0779 14.2802 44.1543 14.2549 44.2239C14.2296 44.2934 14.1795 44.3512 14.1144 44.3863C14.0492 44.4214 13.9734 44.4313 13.9014 44.4141C13.6103 44.3444 13.3313 44.2612 13.0483 44.1754C12.2435 43.9071 11.4172 43.6496 10.7251 43.1251C10.5899 43.0202 10.4849 42.8813 10.4206 42.7227C10.1108 41.6228 10.0866 40.5605 10.0638 39.4391C10.092 38.6571 11.2241 38.6424 11.271 39.4244L11.2737 39.4204Z" fill="#E9B376"/>
<path d="M15.177 43.8025L14.9355 43.6268C14.8908 43.5944 14.8389 43.5732 14.7843 43.5651C14.7297 43.5569 14.6739 43.562 14.6217 43.5799L14.1254 43.7462C14.0275 43.7793 13.939 43.8353 13.8672 43.9095C13.7953 43.9836 13.7422 44.0739 13.7122 44.1727L13.6747 44.2975C14.0556 44.614 14.7008 44.6771 14.7008 44.6771L14.8819 44.7146C14.919 44.7236 14.9575 44.7251 14.9951 44.719C15.0328 44.713 15.0689 44.6996 15.1013 44.6795C15.1338 44.6594 15.1619 44.6331 15.1841 44.602C15.2063 44.571 15.2221 44.5359 15.2306 44.4987L15.3111 44.1392C15.324 44.0761 15.3182 44.0106 15.2944 43.9508C15.2706 43.891 15.2297 43.8394 15.177 43.8025Z" fill="#EBB376"/>
<path d="M10.9116 37.678C10.1363 37.9556 9.91368 38.6317 9.89758 40.0414C10.3 40.4076 11.5219 40.4277 11.5219 40.4277C11.5219 40.4277 11.7339 38.2896 10.9116 37.678Z" fill="#5B998A"/>
<path d="M20.3035 44.5792V44.8984C20.3035 44.9802 20.207 45.0138 20.1252 45.0138H13.7458C13.6626 45.0138 13.5647 44.9802 13.5647 44.8984V44.5792H20.3035Z" fill="#090D0A"/>
<path opacity="0.4" d="M20.3035 44.5792V44.8984C20.3035 44.9802 20.207 45.0138 20.1252 45.0138H13.7458C13.6626 45.0138 13.5647 44.9802 13.5647 44.8984V44.5792H20.3035Z" fill="#FEFEFE"/>
<path opacity="0.2" d="M20.3036 44.5792V44.8984C20.3036 44.9802 20.207 45.0138 20.1252 45.0138H15.9134C15.8316 45.0138 15.7336 44.9802 15.7336 44.8984V44.5792H20.3036Z" fill="black"/>
<path d="M21.3727 41.2607L20.6121 44.7092C20.5981 44.7644 20.5663 44.8134 20.5217 44.8488C20.4772 44.8841 20.4222 44.9039 20.3653 44.9051H16.2072C16.1813 44.9044 16.156 44.8977 16.1331 44.8855C16.1102 44.8734 16.0905 44.8561 16.0754 44.8351C16.0603 44.814 16.0503 44.7898 16.0462 44.7642C16.0421 44.7387 16.0439 44.7125 16.0516 44.6878L16.8108 41.266C16.8263 41.2138 16.8593 41.1685 16.9042 41.1378C16.9492 41.107 17.0033 41.0926 17.0576 41.097H21.2157C21.3271 41.097 21.3914 41.148 21.3727 41.2607Z" fill="#090D0A"/>
<path opacity="0.4" d="M21.3726 41.2607L20.6121 44.7092C20.598 44.7644 20.5662 44.8134 20.5217 44.8488C20.4771 44.8841 20.4221 44.9039 20.3653 44.9051H16.352C16.3261 44.9043 16.3007 44.8976 16.2778 44.8855C16.2549 44.8733 16.2352 44.8561 16.22 44.8351C16.2048 44.8141 16.1947 44.7899 16.1904 44.7643C16.186 44.7388 16.1876 44.7126 16.1951 44.6878L16.9556 41.266C16.9711 41.2138 17.0041 41.1685 17.049 41.1378C17.094 41.107 17.1481 41.0926 17.2024 41.097H21.2157C21.327 41.097 21.3914 41.148 21.3726 41.2607Z" fill="#FEFEFE"/>
<path opacity="0.2" d="M19.3244 43.0125C19.3111 43.1523 19.2487 43.283 19.1483 43.3812C19.0479 43.4794 18.9159 43.5389 18.7758 43.549C18.5437 43.549 18.4056 43.3089 18.4726 43.0125C18.5397 42.7161 18.7691 42.4867 18.9958 42.476C18.93 42.771 19.0722 43.0125 19.3029 43.0125H19.3244Z" fill="black"/>
<path d="M19.983 39.3386L20.8763 39.3614L20.4739 38.4573C20.4739 38.4573 19.6772 38.4855 19.708 38.896L19.983 39.3386Z" fill="#EBB376"/>
<path d="M21.6422 38.9214L21.0305 38.2615L20.4712 38.4573L20.8763 39.3614L21.6422 38.9214Z" fill="#EBB376"/>
<path d="M11.5393 37.6324C11.4481 37.6257 11.7271 38.7457 13.0818 39.022C14.4366 39.2984 14.3319 38.0523 14.226 37.7397C14.226 37.7397 12.4447 37.6914 11.5393 37.6324Z" fill="#EBB376"/>
<path d="M11.9109 33.2529C11.9109 33.2529 12.6875 32.3918 14.108 32.8358C15.5285 33.2798 15.4681 35.8149 14.7465 36.735C13.6163 36.6954 12.4857 36.8009 11.3824 37.0489C11.3824 37.0489 10.6983 35.2099 11.0377 34.1288C11.3771 33.0477 11.9109 33.2529 11.9109 33.2529Z" fill="#090D0A"/>
<path d="M12.1966 35.7813C12.2865 36.3795 12.3562 37.4633 11.9283 37.8067C11.9283 37.8067 12.4863 37.7879 13.5688 38.6437C13.9618 38.1984 13.7298 38.0146 13.7298 38.0146C13.0899 37.7853 13.1262 37.3024 13.2563 36.8611L12.1966 35.7813Z" fill="#EBB376"/>
<path opacity="0.2" d="M12.6312 36.2227L13.263 36.8611C13.2311 36.9645 13.2082 37.0704 13.1946 37.1777C12.9491 37.1133 12.6205 36.8008 12.6057 36.5365C12.5953 36.4312 12.6039 36.3249 12.6312 36.2227Z" fill="black"/>
<path d="M11.8358 34.5607C11.9028 35.5171 11.9122 35.9222 12.3937 36.4386C13.1194 37.2058 14.2716 36.9751 14.4795 36.0362C14.674 35.1885 14.5305 33.7667 13.6023 33.3468C13.4065 33.2499 13.1884 33.207 12.9705 33.2225C12.7526 33.2381 12.5427 33.3115 12.3627 33.4352C12.1826 33.559 12.0389 33.7285 11.9462 33.9264C11.8536 34.1242 11.8155 34.3432 11.8358 34.5607Z" fill="#EBB376"/>
<path d="M13.0134 34.8545C13.0134 34.9363 13.0577 35.002 13.11 35.0047C13.1623 35.0074 13.1999 34.943 13.1985 34.8625C13.1972 34.7821 13.1529 34.715 13.102 34.7136C13.051 34.7123 13.0107 34.774 13.0134 34.8545Z" fill="#090D0A"/>
<path d="M14.014 34.8652C14.014 34.9457 14.0596 35.0128 14.1106 35.0155C14.1616 35.0181 14.2005 34.9538 14.1991 34.8733C14.1978 34.7928 14.1535 34.7257 14.1026 34.7244C14.0516 34.723 14.014 34.7847 14.014 34.8652Z" fill="#090D0A"/>
<path d="M14.0758 34.7273L14.2623 34.6788C14.2623 34.6788 14.1697 34.8271 14.0758 34.7273Z" fill="#090D0A"/>
<path d="M13.7109 35.0302C13.786 35.2171 13.8842 35.3937 14.0033 35.556C13.9632 35.5834 13.9173 35.6013 13.8693 35.6085C13.8212 35.6157 13.7721 35.612 13.7257 35.5976L13.7109 35.0302Z" fill="#D58745"/>
<path d="M12.8525 34.3448C12.8585 34.3457 12.8647 34.3453 12.8705 34.3434C12.8764 34.3416 12.8817 34.3383 12.886 34.334C12.9279 34.2953 12.9788 34.2676 13.0341 34.2536C13.0894 34.2395 13.1473 34.2395 13.2026 34.2536C13.2082 34.2554 13.2142 34.256 13.2201 34.2555C13.226 34.2549 13.2317 34.2531 13.2368 34.2502C13.242 34.2473 13.2465 34.2433 13.2501 34.2386C13.2537 34.2339 13.2562 34.2285 13.2576 34.2227C13.2609 34.2103 13.2593 34.197 13.253 34.1857C13.2468 34.1745 13.2364 34.1661 13.224 34.1624C13.154 34.1436 13.0804 34.1428 13.0101 34.1602C12.9397 34.1776 12.8749 34.2124 12.8216 34.2616C12.813 34.2704 12.8082 34.2822 12.8082 34.2945C12.8082 34.3068 12.813 34.3186 12.8216 34.3273C12.8293 34.3369 12.8404 34.3431 12.8525 34.3448Z" fill="#090D0A"/>
<path d="M14.4031 34.3528C14.4139 34.357 14.4258 34.357 14.4366 34.3528C14.4418 34.3496 14.4463 34.3453 14.4498 34.3403C14.4533 34.3352 14.4558 34.3295 14.457 34.3235C14.4583 34.3175 14.4583 34.3113 14.4571 34.3053C14.4559 34.2992 14.4535 34.2935 14.45 34.2885C14.4132 34.2223 14.3616 34.1655 14.2992 34.1225C14.2369 34.0794 14.1655 34.0513 14.0906 34.0403C14.0846 34.0399 14.0786 34.0408 14.073 34.0429C14.0674 34.045 14.0622 34.0482 14.0579 34.0523C14.0537 34.0565 14.0503 34.0615 14.048 34.0671C14.0458 34.0726 14.0447 34.0786 14.0449 34.0846C14.0452 34.0971 14.0499 34.1092 14.0583 34.1185C14.0666 34.1279 14.0781 34.1339 14.0906 34.1355C14.1498 34.1446 14.2062 34.1672 14.2553 34.2016C14.3044 34.2361 14.3449 34.2814 14.3736 34.3341C14.377 34.339 14.3814 34.3432 14.3865 34.3464C14.3915 34.3496 14.3972 34.3518 14.4031 34.3528Z" fill="#090D0A"/>
<path d="M13.0752 34.7166L13.2616 34.6694C13.2616 34.6694 13.1731 34.8164 13.0752 34.7166Z" fill="#090D0A"/>
<path d="M12.0343 35.1348C12.0343 35.1348 12.7721 34.5554 12.6044 33.6486C12.6044 33.6486 13.9243 33.1268 14.4447 34.4534C14.4447 34.4534 14.5547 33.316 13.314 33.0933C12.0732 32.8707 10.6045 34.5527 12.0102 35.8283L12.0343 35.1348Z" fill="#090D0A"/>
<path d="M11.5312 35.3333C11.5791 35.4221 11.644 35.5004 11.7223 35.564C11.8005 35.6275 11.8906 35.6749 11.9873 35.7035C12.2381 35.7719 12.3508 35.5251 12.2703 35.2703C12.1965 35.0409 11.9779 34.7337 11.7338 34.7726C11.4896 34.8115 11.4065 35.1066 11.5312 35.3333Z" fill="#EBB376"/>
<path d="M14.5895 35.0168C14.5834 35.0167 14.5776 35.0148 14.5727 35.0111C14.5679 35.0075 14.5644 35.0024 14.5627 34.9967C14.0892 33.3294 12.5265 33.6728 12.5104 33.6754C12.507 33.6762 12.5034 33.6763 12.4999 33.6758C12.4965 33.6752 12.4931 33.6739 12.4902 33.6721C12.4872 33.6702 12.4846 33.6677 12.4825 33.6649C12.4805 33.662 12.479 33.6588 12.4782 33.6553C12.4774 33.6519 12.4773 33.6483 12.4779 33.6449C12.4785 33.6414 12.4798 33.6381 12.4816 33.6351C12.4835 33.6321 12.4859 33.6295 12.4888 33.6274C12.4917 33.6254 12.4949 33.6239 12.4983 33.6231C12.5144 33.6231 14.1281 33.265 14.615 34.9819C14.616 34.9853 14.6163 34.9889 14.6159 34.9925C14.6155 34.9961 14.6144 34.9995 14.6127 35.0026C14.6109 35.0058 14.6085 35.0085 14.6057 35.0107C14.6029 35.0129 14.5996 35.0145 14.5962 35.0154L14.5895 35.0168Z" fill="#090D0A"/>
<path d="M13.7726 35.8752C13.7258 35.9849 13.6873 36.0979 13.6573 36.2133H13.5942C13.3112 36.1824 13.1918 36.0791 13.1409 35.9651C13.118 35.9109 13.1084 35.8521 13.1127 35.7934C13.1148 35.7601 13.1211 35.7272 13.1315 35.6955C13.2984 35.7921 13.4841 35.8516 13.6761 35.8699C13.7351 35.8726 13.7726 35.8752 13.7726 35.8752Z" fill="#090D0A"/>
<path d="M13.676 35.8645L13.6398 35.9624C13.3715 35.9342 13.1878 35.8779 13.1127 35.788C13.1147 35.7547 13.121 35.7218 13.1314 35.6901C13.2983 35.7867 13.4841 35.8462 13.676 35.8645Z" fill="#FEFEFE"/>
<path d="M13.5942 36.2079C13.3112 36.177 13.1918 36.0737 13.1409 35.9597C13.2484 35.9736 13.3527 36.0059 13.4494 36.055C13.5123 36.0897 13.5629 36.1431 13.5942 36.2079Z" fill="#DE5753"/>
<path d="M13.5487 40.3446C13.5444 40.3448 13.5402 40.3441 13.5362 40.3425C13.5323 40.3409 13.5287 40.3384 13.5259 40.3352C12.8132 39.571 12.2758 38.6605 11.9512 37.6673C11.9491 37.6591 11.9504 37.6504 11.9546 37.6432C11.9589 37.6359 11.9658 37.6306 11.974 37.6284C11.9779 37.6274 11.9821 37.6272 11.9861 37.6278C11.9901 37.6284 11.994 37.6298 11.9975 37.6319C12.001 37.634 12.004 37.6368 12.0065 37.6401C12.0089 37.6434 12.0106 37.6472 12.0115 37.6512C12.3275 38.6172 12.8471 39.5041 13.5353 40.252C13.6158 39.9838 13.9497 38.7095 13.4467 37.733C13.4443 37.7257 13.4445 37.7178 13.4474 37.7107C13.4502 37.7036 13.4555 37.6977 13.4623 37.6942C13.4691 37.6906 13.4769 37.6896 13.4844 37.6913C13.4919 37.693 13.4985 37.6973 13.5031 37.7035C14.0785 38.8208 13.5836 40.3084 13.5782 40.3231C13.5764 40.3283 13.5734 40.3329 13.5695 40.3367C13.5655 40.3404 13.5607 40.3431 13.5554 40.3446H13.5487Z" fill="#090D0A"/>
<path d="M13.5903 40.2883L13.6922 40.4224C13.7013 40.4338 13.7063 40.448 13.7063 40.4626C13.7063 40.4773 13.7013 40.4915 13.6922 40.5029L13.5889 40.637C13.5827 40.6443 13.575 40.6502 13.5664 40.6543C13.5577 40.6583 13.5482 40.6604 13.5386 40.6604C13.529 40.6604 13.5196 40.6583 13.5109 40.6543C13.5022 40.6502 13.4945 40.6443 13.4883 40.637L13.3917 40.527C13.3833 40.5158 13.3787 40.5022 13.3787 40.4881C13.3787 40.4741 13.3833 40.4604 13.3917 40.4492L13.4776 40.2936C13.4832 40.2839 13.4912 40.2758 13.5008 40.2699C13.5103 40.2641 13.5212 40.2607 13.5325 40.2602C13.5437 40.2597 13.5548 40.262 13.5649 40.2669C13.575 40.2718 13.5837 40.2791 13.5903 40.2883Z" fill="#FEFEFE"/>
<path opacity="0.7" d="M10.9116 37.678C10.1363 37.9556 9.91368 38.6317 9.89758 40.0414C10.3 40.4076 11.5219 40.4277 11.5219 40.4277C11.5219 40.4277 11.7339 38.2896 10.9116 37.678Z" fill="#FEFEFE"/>
<path d="M19.0226 48.4368L20.3827 48.6608L21.0359 48.7681L21.2264 48.0934L20.6362 47.9137L19.1929 47.4751L19.0226 48.4368Z" fill="#EBB376"/>
<path d="M21.0937 47.9835L20.7999 48.74C20.7961 48.7501 20.7943 48.7609 20.7946 48.7717C20.7949 48.7826 20.7974 48.7932 20.8019 48.8031C20.8064 48.8129 20.8128 48.8218 20.8208 48.8292C20.8287 48.8365 20.838 48.8422 20.8482 48.846L21.2278 48.9801C21.2278 48.9801 21.7254 49.1974 21.8864 49.1276C22.3572 48.9251 23.0507 47.2659 22.8978 47.1156C22.8414 47.058 22.7207 47.1156 22.6563 47.1586C22.4524 47.3088 21.9977 47.7447 21.826 47.8681C21.6248 48.013 21.3177 47.9674 21.1849 47.9392C21.1669 47.9345 21.1478 47.9363 21.1311 47.9445C21.1143 47.9526 21.1011 47.9664 21.0937 47.9835Z" fill="#5B998A"/>
<path opacity="0.2" d="M19.0226 48.4368L20.3827 48.6608L20.6362 47.9137L19.1929 47.4751L19.0226 48.4368Z" fill="black"/>
<path d="M20.4014 47.7729C20.4014 47.7729 14.8564 44.6556 12.941 44.7442C11.0255 44.8327 10.7519 46.5201 11.5406 47.5757C12.3293 48.6313 13.7887 48.8889 13.7887 48.8889C13.7887 48.8889 12.7974 47.4832 12.941 47.0915C13.0845 46.6998 13.6452 47.2471 13.6452 47.2471C13.6452 47.2471 17.1326 48.3738 20.1868 48.6327L20.4014 47.7729Z" fill="#090D0A"/>
<path d="M20.4914 47.687L20.1775 47.4764L19.7738 48.7145H20.258L20.4914 47.687Z" fill="#5B998A"/>
<path opacity="0.6" d="M20.4914 47.687L20.1775 47.4764L19.7738 48.7145H20.258L20.4914 47.687Z" fill="#FEFEFE"/>
</svg>
