<svg width="52" height="50" viewBox="0 0 52 50" fill="none" xmlns="http://www.w3.org/2000/svg">
<path d="M43.9871 45.6876C34.0624 51.4375 17.9702 51.4375 8.04341 45.6876C0.609416 41.3796 -1.25965 35.0662 2.44783 29.7518H49.5826C53.2901 35.0662 51.4211 41.3796 43.9871 45.6876Z" fill="#FAFAFA"/>
<path opacity="0.2" d="M2.10217 17.5035C1.55953 19.056 1.15102 20.6522 0.881142 22.2745L26.0005 29.7508L2.10217 17.5035ZM23.0922 0L26.0005 29.7508L28.9087 0H23.0922ZM12.0258 4.21175L26.0005 29.7508L17.0146 1.49378C15.2532 2.20603 13.5793 3.11798 12.0258 4.21175ZM4.43111 12.4851L25.9973 29.7508L7.56878 8.18775C6.38559 9.51474 5.33472 10.954 4.43111 12.4851ZM49.8988 17.5035L26.0005 29.7508L51.1187 22.2745C50.8492 20.6522 50.4411 19.056 49.8988 17.5035ZM26.0005 29.7508H51.3936C51.4641 28.9812 51.5028 28.2027 51.5099 27.4155L26.0005 29.7508ZM0.606278 29.7508H26.0005L0.48999 27.4155C0.498448 28.2027 0.53721 28.9812 0.606278 29.7508ZM44.4311 8.18458L26.0005 29.7508L47.5667 12.4851C46.6637 10.9541 45.6135 9.51485 44.4311 8.18775V8.18458ZM34.9811 1.49378L26.0005 29.7508L39.9699 4.21175C38.4162 3.11816 36.7424 2.20622 34.9811 1.49378Z" fill="#5B998A"/>
<path d="M26.0153 49.0853C31.4855 49.0853 35.9199 46.5162 35.9199 43.347C35.9199 40.1778 31.4855 37.6087 26.0153 37.6087C20.5452 37.6087 16.1107 40.1778 16.1107 43.347C16.1107 46.5162 20.5452 49.0853 26.0153 49.0853Z" fill="#E6E6E6"/>
<path d="M30.3973 39.5814C30.355 38.539 30.9481 32.5142 30.9481 32.5142L27.4214 33.9943C27.747 36.6192 28.2766 38.6564 28.2957 40.1544C28.2957 40.1544 29.1847 41.0466 29.6806 41.6164C30.0981 42.1134 30.5579 42.5732 31.0549 42.9907C31.4376 43.2963 32.3023 43.4982 32.4683 43.2455C31.8668 42.5478 31.1627 41.775 30.724 41.0255C30.5147 40.684 30.4259 40.3003 30.3973 39.5814Z" fill="#FFA8A7"/>
<path d="M33.6185 44.0606C33.6566 44.0659 33.6259 44.5099 33.387 44.6621C33.1111 44.8386 32.3541 45.0797 31.4714 44.8122C30.5887 44.5447 30.1563 44.1705 29.856 43.792C29.5558 43.4136 29.1372 42.8797 28.746 42.719C28.3824 42.57 28.006 42.3226 27.9066 42.1788C27.8073 42.035 27.9362 41.4843 27.9362 41.4843L33.6185 44.0606Z" fill="#090D0A"/>
<path d="M28.2766 39.7325C28.244 39.745 28.2159 39.767 28.1959 39.7957C28.1759 39.8243 28.165 39.8583 28.1646 39.8932C28.1477 40.0994 28.2174 40.3024 28.117 40.6481C28.0112 40.9825 27.9446 41.328 27.9182 41.6777C27.913 41.9685 28.4955 42.2645 28.8612 42.4865C29.227 42.7085 29.6372 43.1208 29.9776 43.5489C30.318 43.9771 31.1542 44.5004 31.7431 44.6061C32.6438 44.7625 33.2802 44.5966 33.5286 44.2826C33.8363 43.8936 33.7094 43.6197 32.7728 42.9484C32.5952 42.8205 31.9905 42.2803 31.7864 42.0869C31.2335 41.5636 30.7197 40.8753 30.576 40.0782C30.5708 39.9844 30.5335 39.8951 30.4702 39.8256C30.4115 39.7871 30.3415 39.7693 30.2715 39.7748C30.0923 39.7736 29.9139 39.8004 29.7429 39.8541C29.5896 39.9027 29.2915 39.944 29.2566 40.1322C29.2515 40.2197 29.2579 40.3074 29.2756 40.3933C29.2756 40.4345 29.2905 40.5762 29.2535 40.5941C29.2164 40.6121 29.1541 40.5074 29.135 40.4747C29.0441 40.3214 29.0209 40.2326 28.8813 40.1776C28.7418 40.1226 28.3654 40.0582 28.2904 39.889L28.2766 39.7325Z" fill="#37474F"/>
<path d="M32.9198 43.0573C31.5941 42.9453 31.0169 43.7329 30.853 44.2519C31.1273 44.4176 31.4269 44.5369 31.74 44.605C32.6407 44.7615 33.3141 44.605 33.5625 44.2879C33.8522 43.921 33.7729 43.5754 32.9198 43.0573Z" fill="#FAFAFA"/>
<path d="M30.9577 42.7613C30.9429 42.759 30.9294 42.7515 30.9196 42.7401C30.9088 42.7256 30.9039 42.7075 30.9058 42.6894C30.9078 42.6714 30.9165 42.6548 30.9302 42.6429C31.1585 42.4367 31.7453 42.2084 32.2094 42.3384C32.2176 42.3409 32.2253 42.3451 32.232 42.3506C32.2386 42.3562 32.244 42.363 32.248 42.3707C32.2519 42.3784 32.2543 42.3868 32.2549 42.3954C32.2555 42.404 32.2544 42.4127 32.2517 42.4209C32.2494 42.4295 32.2455 42.4376 32.2402 42.4447C32.2349 42.4518 32.2282 42.4578 32.2205 42.4623C32.2128 42.4668 32.2044 42.4698 32.1956 42.471C32.1868 42.4722 32.1778 42.4717 32.1692 42.4695C31.7358 42.3501 31.1934 42.5805 31.0116 42.7444C31.0045 42.7512 30.996 42.7562 30.9866 42.7592C30.9773 42.7621 30.9674 42.7628 30.9577 42.7613Z" fill="#F0F0F0"/>
<path d="M30.4628 42.3258C30.4483 42.3235 30.4352 42.3159 30.4258 42.3046C30.4147 42.2905 30.4095 42.2725 30.4112 42.2546C30.413 42.2367 30.4216 42.2201 30.4353 42.2084C30.6637 41.997 31.2515 41.7718 31.7145 41.9029C31.7229 41.9054 31.7307 41.9096 31.7374 41.9152C31.7442 41.9208 31.7497 41.9278 31.7536 41.9356C31.7576 41.9434 31.7599 41.9519 31.7604 41.9607C31.761 41.9694 31.7598 41.9782 31.7568 41.9864C31.7521 42.0037 31.7408 42.0184 31.7254 42.0275C31.71 42.0365 31.6917 42.0393 31.6743 42.0351C31.2409 41.9145 30.6986 42.1408 30.5167 42.3089C30.5098 42.3158 30.5012 42.321 30.4919 42.3239C30.4825 42.3268 30.4725 42.3275 30.4628 42.3258Z" fill="#F0F0F0"/>
<path d="M30.02 41.8468C30.0049 41.8446 29.9913 41.8367 29.9819 41.8246C29.9711 41.8103 29.9662 41.7923 29.9682 41.7745C29.9702 41.7566 29.9788 41.7401 29.9925 41.7284C30.2208 41.5223 30.8097 41.2939 31.2716 41.4229C31.28 41.4256 31.2877 41.4298 31.2943 41.4355C31.3009 41.4411 31.3064 41.448 31.3103 41.4558C31.3143 41.4636 31.3166 41.4721 31.3172 41.4808C31.3179 41.4895 31.3167 41.4982 31.3139 41.5064C31.3117 41.515 31.3078 41.5231 31.3025 41.5302C31.2971 41.5373 31.2904 41.5433 31.2828 41.5478C31.2751 41.5524 31.2667 41.5553 31.2578 41.5566C31.249 41.5578 31.2401 41.5573 31.2315 41.5551C30.798 41.4356 30.2557 41.6661 30.0739 41.8299C30.0667 41.8365 30.0581 41.8415 30.0488 41.8444C30.0395 41.8473 30.0296 41.8482 30.02 41.8468Z" fill="#F0F0F0"/>
<path d="M29.5864 41.3711C29.5723 41.3688 29.5595 41.3612 29.5505 41.35C29.5395 41.3359 29.5342 41.3181 29.5358 41.3002C29.5374 41.2824 29.5456 41.2658 29.559 41.2538C29.8761 40.9599 30.485 40.8309 30.9481 40.9588C30.9565 40.9613 30.9643 40.9655 30.971 40.9711C30.9777 40.9768 30.9832 40.9837 30.9872 40.9915C30.9911 40.9993 30.9935 41.0079 30.994 41.0166C30.9946 41.0253 30.9933 41.0341 30.9904 41.0424C30.9854 41.0595 30.9741 41.074 30.9588 41.083C30.9435 41.0921 30.9253 41.0949 30.9079 41.091C30.4903 40.9747 29.9226 41.091 29.6393 41.3532C29.6323 41.3597 29.6239 41.3648 29.6148 41.3679C29.6057 41.371 29.596 41.3721 29.5864 41.3711Z" fill="#F0F0F0"/>
<path d="M24.0808 34.5239L20.8607 34.1105C20.7106 36.1276 20.7856 37.9882 20.5858 39.8774C20.4547 40.4398 20.3035 42.9876 20.3395 43.7339C20.3934 44.8556 21.7138 44.882 21.8703 44.2361C22.0267 43.5901 22.6103 40.4641 22.6579 40.1755C22.9708 38.8974 24.0533 34.6254 24.0808 34.5239Z" fill="#FFA8A7"/>
<path d="M22.1821 44.845C22.1038 45.4899 21.9706 45.9117 21.7085 46.2753C21.4463 46.639 20.9833 46.7268 20.5297 46.584C20.0762 46.4413 19.5053 46.103 19.4081 45.5353C19.3108 44.9676 19.3605 44.5839 19.5011 43.9929L22.1821 44.845Z" fill="#090D0A"/>
<path d="M20.5857 39.8774C20.3955 39.8774 20.3384 40.8954 20.1766 41.7591C20.0022 42.6842 19.6872 43.051 19.536 43.809C19.3637 44.6748 19.388 45.0691 19.6766 45.6188C19.9652 46.1686 21.0689 46.7669 21.6746 46.0481C22.1694 45.4613 22.2296 44.7795 22.2413 43.9031C22.2529 42.9971 22.3565 42.3765 22.4368 41.6946C22.513 41.0424 22.8174 40.2601 22.6578 40.1755C22.6388 40.2706 22.6197 40.3922 22.6007 40.4863C22.5859 40.5571 22.5447 40.9092 22.439 40.9092C22.4347 40.8265 22.439 40.7436 22.4516 40.6618C22.4664 40.5889 22.4524 40.5131 22.4125 40.4504C22.3575 40.3938 22.2855 40.3567 22.2074 40.3446C22.0235 40.296 21.4674 40.2389 21.2761 40.2051C21.182 40.1903 21.0868 40.1797 20.9928 40.1744C20.9117 40.1675 20.8301 40.1728 20.7507 40.1903C20.7282 40.1958 20.7072 40.2059 20.6889 40.2201C20.6707 40.2344 20.6557 40.2523 20.6449 40.2728C20.6328 40.304 20.6274 40.3376 20.6291 40.3711C20.6249 40.4319 20.6132 40.4919 20.5942 40.5497C20.5857 40.5741 20.5646 40.6047 20.5382 40.5963C20.5117 40.5878 20.5096 40.5635 20.5107 40.5413C20.516 40.4356 20.535 40.3605 20.5477 40.2379C20.553 40.1818 20.5678 40.1047 20.572 40.0476C20.5762 39.9905 20.5783 39.9324 20.5857 39.8774Z" fill="#37474F"/>
<path d="M19.4525 44.3112C19.387 44.8524 19.3965 45.2267 19.6227 45.6569C19.9113 46.2077 21.1028 46.8124 21.7127 46.0935C22.014 45.7362 22.1166 45.2964 22.1821 44.844C21.8819 44.2372 20.0118 43.8555 19.4525 44.3112Z" fill="#FAFAFA"/>
<path d="M21.754 43.8555C21.7458 43.8546 21.7379 43.8521 21.7307 43.8481C21.2269 43.602 20.6625 43.5072 20.1059 43.5753C20.0878 43.5781 20.0694 43.5739 20.0545 43.5634C20.0395 43.553 20.0291 43.5372 20.0255 43.5193C20.0239 43.5104 20.0241 43.5013 20.0261 43.4926C20.0281 43.4838 20.0319 43.4755 20.0373 43.4683C20.0426 43.461 20.0494 43.455 20.0572 43.4505C20.065 43.446 20.0737 43.4431 20.0826 43.4421C20.6708 43.3672 21.2681 43.4676 21.7995 43.7307C21.8073 43.7349 21.8143 43.7407 21.8199 43.7476C21.8256 43.7545 21.8298 43.7625 21.8323 43.771C21.8349 43.7795 21.8357 43.7885 21.8348 43.7974C21.8339 43.8063 21.8312 43.8149 21.8269 43.8227C21.8196 43.835 21.8087 43.8447 21.7956 43.8506C21.7826 43.8564 21.768 43.8582 21.754 43.8555Z" fill="#F0F0F0"/>
<path d="M20.1915 42.9304C20.1785 42.9286 20.1663 42.923 20.1563 42.9143C20.1464 42.9057 20.1392 42.8944 20.1355 42.8818C20.1331 42.8732 20.1325 42.8642 20.1336 42.8554C20.1348 42.8465 20.1378 42.838 20.1423 42.8303C20.1468 42.8226 20.1529 42.8159 20.16 42.8106C20.1672 42.8053 20.1754 42.8015 20.1841 42.7994C21.0499 42.5826 21.865 43.0531 21.8988 43.0732C21.9067 43.0773 21.9137 43.0831 21.9193 43.0901C21.9249 43.0971 21.9289 43.1052 21.9312 43.1138C21.9335 43.1225 21.934 43.1315 21.9326 43.1403C21.9312 43.1492 21.928 43.1576 21.9231 43.1651C21.913 43.1804 21.8973 43.1912 21.8794 43.1954C21.8615 43.1995 21.8428 43.1966 21.8269 43.1873C21.8185 43.1873 21.0277 42.7275 20.2221 42.9294C20.2122 42.9324 20.2016 42.9327 20.1915 42.9304Z" fill="#F0F0F0"/>
<path d="M20.2782 42.3194C20.2653 42.3174 20.2531 42.312 20.243 42.3036C20.233 42.2952 20.2254 42.2842 20.2211 42.2718C20.2187 42.2632 20.218 42.2542 20.2191 42.2454C20.2202 42.2365 20.2231 42.2279 20.2275 42.2202C20.2319 42.2124 20.2378 42.2056 20.2449 42.2001C20.252 42.1947 20.2601 42.1906 20.2687 42.1883C20.5639 42.1146 20.8708 42.1006 21.1715 42.1473C21.4721 42.1939 21.7604 42.3003 22.0194 42.46C22.0268 42.4648 22.0332 42.4711 22.0382 42.4784C22.0431 42.4857 22.0465 42.494 22.0482 42.5027C22.0499 42.5114 22.0498 42.5203 22.0479 42.529C22.0461 42.5376 22.0425 42.5458 22.0373 42.553C22.0262 42.5679 22.0097 42.5778 21.9914 42.5807C21.973 42.5837 21.9543 42.5795 21.939 42.5689C21.4491 42.2739 20.8626 42.1839 20.3067 42.3183C20.2974 42.3205 20.2877 42.3209 20.2782 42.3194Z" fill="#F0F0F0"/>
<path d="M20.3775 41.6354C20.3647 41.6333 20.3528 41.6277 20.3429 41.6193C20.3331 41.611 20.3257 41.6001 20.3215 41.5878C20.3187 41.5793 20.3178 41.5703 20.3187 41.5614C20.3196 41.5525 20.3223 41.5438 20.3266 41.536C20.331 41.5282 20.3369 41.5213 20.344 41.5159C20.3511 41.5104 20.3593 41.5065 20.368 41.5043C21.2623 41.2517 22.0943 41.7729 22.1292 41.7951C22.1368 41.7997 22.1434 41.8058 22.1486 41.8131C22.1538 41.8203 22.1574 41.8285 22.1593 41.8372C22.1612 41.846 22.1612 41.855 22.1595 41.8637C22.1578 41.8724 22.1543 41.8807 22.1493 41.8881C22.1441 41.8957 22.1375 41.9022 22.1298 41.9072C22.1221 41.9122 22.1134 41.9156 22.1044 41.9173C22.0954 41.9189 22.0861 41.9188 22.0771 41.9169C22.0681 41.915 22.0596 41.9113 22.052 41.9061C22.0436 41.9061 21.2401 41.3986 20.4092 41.6333C20.3989 41.6361 20.3881 41.6368 20.3775 41.6354Z" fill="#EBEBEB"/>
<path d="M23.901 16.181C23.3069 17.2381 22.0658 19.0089 21.9093 22.1191C21.663 27.018 21.5182 29.5605 21.5182 29.5605C21.2306 30.4887 21.0171 30.5679 20.8479 33.0248C20.7126 34.9858 20.6904 37.4247 20.6904 37.4247C20.6904 37.4247 22.1239 38.1869 23.3016 37.7746C23.8397 36.2058 24.7108 32.7351 25.3166 30.6282C25.8674 28.7158 26.4795 25.6341 26.4795 25.6341L27.3569 30.3502C27.1873 31.3728 27.1575 32.4138 27.2681 33.4445C27.413 34.7564 27.9204 37.3613 27.9204 37.3613C27.9204 37.3613 29.5178 37.9459 30.5464 37.2556C30.5464 37.2556 31.0644 31.605 31.1099 30.0193C31.1786 27.6396 31.2399 23.6572 31.0538 20.3885C30.983 19.1389 30.5474 17.0214 30.392 16.1778L23.901 16.181Z" fill="#37474F"/>
<path d="M20.6555 36.9606C21.1122 37.2778 22.7963 37.6224 23.4486 37.4142L23.1938 38.1299C23.1938 38.1299 22.7709 38.2789 21.8882 38.1859C21.0054 38.0929 20.6555 37.6795 20.6555 37.6795V36.9606Z" fill="#455A64"/>
<path d="M27.8474 37.078C28.3707 37.2894 29.9829 37.2566 30.5823 36.9078L30.5252 37.7271C30.5252 37.7271 30.244 37.9787 29.2926 38.0326C28.3919 38.0844 27.9732 37.8265 27.9732 37.8265L27.8474 37.078Z" fill="#455A64"/>
<path d="M26.4741 25.6342L27.137 21.7871C27.137 21.7871 29.2132 21.6434 29.9987 20.9583C29.9987 20.9583 28.987 22.2481 27.5757 22.3971L26.8864 25.6342L27.3473 30.3089L26.4741 25.6342Z" fill="#090D0A"/>
<path d="M22.9317 6.64323C22.9317 6.64323 23.0702 7.68771 22.715 8.54613C22.4845 9.10748 22.0986 10.1319 21.6578 11.2525C21.2455 12.3096 20.7433 15.2211 24.1707 16.2296C26.1518 16.8132 28.9406 16.2529 29.8794 15.5118C32.3891 13.5296 31.8785 11.2588 29.0833 8.35689C28.4353 7.68242 28.1953 6.19922 28.1953 6.19922L22.9317 6.64323Z" fill="#37474F"/>
<path d="M28.0536 9.68048C29.153 9.72488 29.4406 9.73228 31.2431 10.3708L33.2443 11.0833L35.7603 12.3097C35.8047 12.6501 35.8978 13.2812 35.6123 13.7622C35.3808 14.1523 34.9833 14.0963 34.2465 13.9271C33.183 13.6829 30.1869 12.9239 30.1869 12.9239L28.0536 9.68048Z" fill="#FFA8A7"/>
<path d="M32.6755 10.8772C32.7654 12.2135 32.9367 12.4629 33.4504 13.0359L33.3447 11.1256L33.2475 11.0781L32.6755 10.8772Z" fill="#F28F8F"/>
<path d="M32.887 11.3888C32.8964 11.9294 33.0592 12.4563 33.3564 12.908C33.7154 13.4349 34.2465 13.8205 34.8586 13.999C35.2455 14.0931 35.7488 13.9937 35.7974 13.0729C35.8555 11.9608 35.3861 11.0178 34.958 9.83056C34.3755 8.21521 34.218 7.82195 34.1281 7.34305C34.071 7.03753 34.107 6.45292 33.978 6.16325C33.8328 5.82571 33.6444 5.50839 33.4177 5.2192C33.1703 4.88937 32.9483 5.10292 32.9113 5.15895C32.6766 4.938 32.3827 4.94751 32.2516 5.14309C32.1341 5.12622 32.0142 5.14713 31.9094 5.2028C31.8045 5.25848 31.72 5.34603 31.6681 5.45284C31.4915 5.40738 31.2368 5.52473 31.2452 5.75519C31.2676 5.84773 31.3098 5.9343 31.3689 6.00891C31.3541 6.1548 31.6522 6.73307 31.555 6.92019C31.4577 7.1073 31.2315 7.11259 30.945 7.16439C30.6405 7.22042 30.3561 7.37582 30.2895 7.58726C30.2377 7.75218 30.3382 7.81983 30.4862 7.81878C30.6173 7.81878 30.9429 7.75006 31.1924 7.74372C31.5592 7.7342 31.7009 7.71835 31.8848 7.79552C32.0989 7.87551 32.302 7.98206 32.4895 8.11267C32.628 8.2279 32.7781 8.38225 32.8415 8.90237C32.905 9.4225 32.887 10.7968 32.887 11.3888Z" fill="#FFA8A7"/>
<path opacity="0.5" d="M31.9418 6.51426C31.8942 6.53995 31.8395 6.54951 31.7859 6.54151C31.7324 6.5335 31.6828 6.50837 31.6448 6.46986C31.6997 6.57557 31.7389 6.64218 31.778 6.70138C31.8393 6.79229 31.9598 6.87158 32.0782 6.75741C32.1966 6.64323 32.1691 6.53646 32.112 6.34723C32.0973 6.38562 32.0744 6.4204 32.0451 6.44922C32.0157 6.47803 31.9805 6.50021 31.9418 6.51426ZM33.0719 6.06813C33.0329 6.06549 32.9955 6.05175 32.964 6.02852C32.9325 6.0053 32.9084 5.97356 32.8943 5.93705C32.8943 5.95079 32.8943 6.0121 32.8996 6.06391C32.8996 6.08399 32.8996 6.10302 32.8996 6.11782C32.8996 6.17808 32.7812 6.26688 32.722 6.27111C32.6628 6.27534 32.5603 6.26054 32.4852 6.09774C32.4858 6.10159 32.4858 6.10551 32.4852 6.10936C32.4883 6.16531 32.4741 6.22085 32.4446 6.26849C32.4151 6.31613 32.3718 6.35357 32.3203 6.37577C32.2864 6.39312 32.2479 6.39969 32.2101 6.39459C32.1723 6.38948 32.137 6.37296 32.1089 6.34723C32.142 6.44388 32.1918 6.53403 32.2558 6.61363C32.3615 6.73944 32.5095 6.61998 32.5444 6.54386C32.5466 6.57474 32.5578 6.60431 32.5766 6.62892C32.5953 6.65353 32.6209 6.67211 32.6501 6.68235C32.7622 6.72252 32.8616 6.62843 32.888 6.40537C32.888 6.40537 32.888 6.39797 32.888 6.39374C32.9525 6.5872 33.1364 6.56923 33.1925 6.44872C33.2476 6.27999 33.2831 6.10545 33.2982 5.92859C33.2971 6.00893 33.2094 6.07448 33.0719 6.06813Z" fill="#F28F8F"/>
<path d="M32.9419 6.3652V6.37471C32.9599 6.43814 33.0022 6.49206 33.0593 6.49417C33.0736 6.49496 33.0879 6.49283 33.1013 6.48793C33.1148 6.48302 33.1271 6.47543 33.1375 6.46563C33.1604 6.44158 33.1768 6.41212 33.1851 6.38C33.2297 6.23104 33.2619 6.07864 33.2813 5.92436V5.93599V5.92965C33.2919 5.84296 33.2972 5.75098 33.3162 5.66324C33.3257 5.61884 33.3394 5.57549 33.3521 5.53321C33.3646 5.49033 33.3682 5.44537 33.3627 5.40106C33.3723 5.4453 33.3723 5.49108 33.3627 5.53532C33.3532 5.57972 33.3426 5.62201 33.3373 5.66641C33.3236 5.75416 33.3257 5.84296 33.3204 5.93387V5.92225V5.92965C33.3117 6.08842 33.2894 6.24617 33.2538 6.40114C33.2451 6.44606 33.2243 6.48774 33.1936 6.52166C33.1766 6.54008 33.156 6.55484 33.1331 6.56502C33.1102 6.5752 33.0854 6.58059 33.0604 6.58086C33.0087 6.58153 32.959 6.56177 32.9219 6.52589C32.8879 6.49327 32.8622 6.45305 32.8468 6.40854V6.41806L32.9419 6.3652Z" fill="#F28F8F"/>
<path d="M33.5212 5.62415C33.5054 5.67326 33.479 5.71835 33.444 5.75629C33.4095 5.79558 33.3709 5.83103 33.3288 5.86201L33.3024 5.81761C33.3936 5.7773 33.47 5.70971 33.5212 5.62415Z" fill="#F28F8F"/>
<path d="M32.2527 5.14313C32.2914 5.21722 32.3233 5.29472 32.3478 5.37465C32.3732 5.45288 32.3975 5.53216 32.4176 5.61145L32.4514 5.72985L32.4789 5.85037L32.5318 6.09563V6.11255L32.5741 6.36944L32.5931 6.49736C32.5954 6.53429 32.6055 6.57031 32.6227 6.60307C32.6312 6.61463 32.6419 6.62434 32.6543 6.63161C32.6666 6.63888 32.6804 6.64356 32.6946 6.64536C32.7081 6.64766 32.7221 6.64644 32.735 6.64181C32.748 6.63718 32.7595 6.6293 32.7686 6.61893C32.8146 6.55743 32.8421 6.48408 32.8479 6.4075V6.38953C32.8565 6.29075 32.8586 6.19152 32.8542 6.09246V5.77637C32.8542 5.67065 32.8542 5.56494 32.8595 5.46556C32.8595 5.4127 32.8669 5.35985 32.8722 5.3091C32.8748 5.25678 32.8885 5.2056 32.9124 5.15898C32.8963 5.20767 32.8902 5.25907 32.8944 5.31016C32.8944 5.36196 32.8944 5.41588 32.8944 5.46451L32.9155 5.77426L32.9377 6.08401L32.9451 6.24047C32.948 6.29584 32.9462 6.35136 32.9398 6.40644V6.41278C32.9338 6.51151 32.8968 6.60582 32.8341 6.68236C32.8142 6.70483 32.7889 6.722 32.7607 6.73233C32.7325 6.74266 32.7021 6.74583 32.6724 6.74156C32.6444 6.73703 32.6175 6.72735 32.5931 6.71302C32.567 6.69763 32.5449 6.67625 32.5286 6.65065C32.5049 6.60696 32.4912 6.55859 32.4884 6.50899L32.4705 6.3779L32.4451 6.11466V6.10621L32.4081 5.86623L32.3901 5.74465L32.3647 5.62308C32.3376 5.46089 32.3001 5.30058 32.2527 5.14313Z" fill="#F28F8F"/>
<path d="M31.6713 5.45178C31.8428 5.67302 31.9866 5.91444 32.0994 6.17065L32.1755 6.36517C32.1978 6.42752 32.2257 6.48768 32.259 6.54489C32.295 6.60304 32.3299 6.65061 32.3901 6.64427C32.4226 6.64046 32.4538 6.62971 32.4817 6.61275C32.5096 6.59578 32.5336 6.573 32.5519 6.54595C32.5399 6.58117 32.5196 6.61299 32.4927 6.63874C32.4659 6.66449 32.4332 6.68343 32.3975 6.69395C32.3558 6.70302 32.3122 6.69543 32.276 6.67281C32.244 6.65067 32.2161 6.62312 32.1935 6.59141C32.1511 6.5326 32.1156 6.46911 32.0878 6.40217L32.0085 6.21188C31.9556 6.08502 31.8954 5.96134 31.8394 5.83553C31.7833 5.70973 31.7241 5.58604 31.6713 5.45178Z" fill="#F28F8F"/>
<path d="M32.1047 6.32606L32.1142 6.34826C32.1446 6.42175 32.1635 6.49948 32.1702 6.57872C32.1709 6.62076 32.1617 6.66237 32.1433 6.7002C32.1249 6.73802 32.0979 6.77101 32.0645 6.79649C32.0302 6.82498 31.9865 6.83968 31.9419 6.83772C31.8978 6.83405 31.8561 6.81668 31.8224 6.78804C31.7644 6.73109 31.7171 6.66412 31.6829 6.59035L31.4503 6.18228C31.4122 6.11356 31.3731 6.04591 31.3361 5.97085C31.2958 5.90309 31.2669 5.82916 31.2505 5.75201C31.2752 5.82727 31.3109 5.8985 31.3562 5.96345L31.4831 6.16114C31.5687 6.29223 31.6469 6.43071 31.7252 6.56392C31.7577 6.63196 31.8009 6.6944 31.8531 6.74892C31.8779 6.773 31.9105 6.78741 31.945 6.78955C31.9795 6.79168 32.0137 6.7814 32.0412 6.76055C32.0724 6.74043 32.0983 6.71313 32.1167 6.68093C32.1351 6.64874 32.1454 6.6126 32.147 6.57555C32.1459 6.49799 32.1349 6.42089 32.1142 6.34614L32.1047 6.32606Z" fill="#F28F8F"/>
<path d="M32.6491 6.62317C32.7963 6.71888 32.9234 6.84241 33.0233 6.98683C33.1261 7.12506 33.1939 7.2861 33.221 7.45622C33.1785 7.29315 33.0968 7.14292 32.9831 7.01855C32.8763 6.89271 32.7459 6.78893 32.5994 6.71303L32.6491 6.62317Z" fill="#F28F8F"/>
<path d="M33.8141 7.62007C33.6619 7.72578 33.4652 7.72578 33.3278 7.81353C33.1904 7.90127 32.8869 8.10213 32.5698 7.96153C32.3267 7.85582 31.9566 7.74376 31.76 7.7501C31.8028 7.76077 31.8448 7.77419 31.8858 7.79027C32.0999 7.87026 32.303 7.97681 32.4905 8.10742C32.629 8.22265 32.7791 8.377 32.8425 8.89712C32.8425 8.92672 32.8499 8.96161 32.8531 9.00284C32.8531 9.00284 32.8669 8.58737 32.9747 8.37911C33.0825 8.17085 33.3902 8.04505 33.6841 7.87167C33.9779 7.6983 33.9663 7.51752 33.8141 7.62007Z" fill="#F28F8F"/>
<path d="M25.9943 9.78514C25.2187 9.88681 24.4519 10.0465 23.7003 10.263C23.3757 10.4311 22.7012 10.7799 22.9031 12.8583C22.9719 13.5656 23.5607 14.646 23.5374 15.885C23.5226 16.7381 23.0089 17.2593 22.5004 18.9339C24.1517 20.6909 30.1342 20.7173 30.9334 19.2288C30.7346 16.9929 30.2917 16.8343 30.4999 14.7274C30.4999 14.7274 30.9323 13.7907 30.8594 13.1977C30.7537 12.3287 30.5539 12.0285 29.705 11.095C29.2152 10.5569 28.6606 10.0818 28.0537 9.68048C27.3656 9.66521 26.6773 9.70019 25.9943 9.78514Z" fill="#5B998A"/>
<path d="M25.156 9.29672C24.8906 9.07049 24.4847 8.93094 23.8599 8.4235C22.9898 7.71837 22.0754 5.37886 23.3313 4.84605C23.2108 2.96853 25.8569 2.25177 27.0398 2.48223C30.4851 3.15459 29.0622 5.40318 29.0622 5.40318L25.156 9.29672Z" fill="#37474F"/>
<path d="M28.2904 4.19592C28.7228 4.54267 28.9575 4.64415 29.1235 6.52168C29.2525 7.98586 28.9543 8.54615 28.3274 8.88868C28.1054 9.01025 27.6656 9.11068 27.2364 9.10962L27.3062 9.79467C27.3062 9.79467 28.097 10.7123 28.0885 11.8889C25.4689 10.7831 25.0418 10.0082 25.0418 10.0082L24.7024 7.70042C24.6295 7.86005 24.2066 8.11589 23.7996 7.70888C23.3207 7.23104 23.3366 6.58828 23.6759 6.31131C24.0153 6.03433 24.4931 6.19925 24.714 6.61048C25.1306 6.72677 25.4023 6.32716 25.1898 4.79639C26.0323 4.21812 27.2132 3.77939 28.2904 4.19592Z" fill="#FFA8A7"/>
<path d="M28.2206 3.41043C28.4754 4.0627 28.375 5.19176 27.4521 5.64317C27.6106 5.1981 27.507 4.401 27.507 4.401C27.507 4.401 26.9837 6.05969 25.028 5.98675L24.7299 4.23396C25.601 3.45695 27.0165 2.7867 28.2206 3.41043Z" fill="#37474F"/>
<path d="M27.2364 9.10642C25.9541 9.0599 25.2278 8.57783 25.0417 8.09576C25.0417 8.09576 25.1358 8.70258 25.5777 8.98061C26.1137 9.31679 27.2692 9.44577 27.2692 9.44577L27.2364 9.10642Z" fill="#F28F8F"/>
<path d="M27.729 7.74372L26.8347 7.53229C26.8179 7.58957 26.813 7.64969 26.8203 7.70893C26.8276 7.76818 26.847 7.8253 26.8772 7.87679C26.9074 7.92828 26.9478 7.97305 26.9959 8.00834C27.0441 8.04363 27.0989 8.06871 27.1571 8.08201C27.2776 8.10922 27.4039 8.08935 27.5103 8.02646C27.6166 7.96357 27.6949 7.86242 27.729 7.74372Z" fill="#B16668"/>
<path d="M27.3558 8.08416C27.2903 8.09842 27.2225 8.09842 27.1571 8.08416C27.0764 8.06552 27.0028 8.0243 26.9448 7.96532C26.8867 7.90635 26.8467 7.83206 26.8293 7.75116C26.9411 7.74376 27.0522 7.77202 27.1468 7.83186C27.2415 7.89171 27.3146 7.98006 27.3558 8.08416Z" fill="#F28F8F"/>
<path d="M26.2532 6.19079C26.2588 6.24014 26.279 6.28671 26.3111 6.32458C26.3433 6.36244 26.386 6.3899 26.4338 6.40345C26.4815 6.41701 26.5323 6.41605 26.5795 6.40071C26.6268 6.38536 26.6684 6.35632 26.6991 6.31727C26.7298 6.27823 26.7482 6.23093 26.752 6.1814C26.7557 6.13187 26.7447 6.08234 26.7202 6.0391C26.6958 5.99586 26.659 5.96086 26.6146 5.93855C26.5703 5.91625 26.5203 5.90763 26.471 5.91381C26.4054 5.92175 26.3457 5.95537 26.3048 6.00729C26.264 6.05921 26.2454 6.1252 26.2532 6.19079Z" fill="#090D0A"/>
<path d="M28.0588 5.98571C28.0643 6.03513 28.0843 6.08183 28.1163 6.11985C28.1484 6.15787 28.191 6.18549 28.2388 6.1992C28.2866 6.21292 28.3374 6.2121 28.3847 6.19686C28.432 6.18161 28.4738 6.15263 28.5046 6.1136C28.5354 6.07457 28.5539 6.02726 28.5577 5.97768C28.5615 5.9281 28.5505 5.87851 28.5261 5.83521C28.5016 5.79191 28.4649 5.75686 28.4204 5.73453C28.376 5.71219 28.326 5.70358 28.2766 5.70978C28.2442 5.71359 28.2128 5.72374 28.1844 5.73967C28.1559 5.7556 28.1308 5.77699 28.1106 5.80261C28.0903 5.82824 28.0754 5.8576 28.0665 5.88901C28.0576 5.92043 28.055 5.95329 28.0588 5.98571Z" fill="#090D0A"/>
<path d="M27.2744 5.75311L27.6085 7.39806L28.3612 6.98894L27.2744 5.75311Z" fill="#F28F8F"/>
<path d="M28.7079 5.45919L28.1149 5.33233C28.1215 5.29346 28.136 5.25635 28.1574 5.22323C28.1788 5.19011 28.2067 5.16167 28.2394 5.13964C28.2721 5.1176 28.309 5.10243 28.3477 5.09503C28.3864 5.08763 28.4263 5.08816 28.4648 5.09658C28.544 5.11438 28.6134 5.16192 28.6587 5.22939C28.7039 5.29685 28.7216 5.37911 28.7079 5.45919Z" fill="#090D0A"/>
<path d="M25.9805 5.69704L26.5091 5.38835C26.4905 5.35322 26.4651 5.32218 26.4343 5.29707C26.4035 5.27195 26.368 5.25327 26.3298 5.24213C26.2917 5.23099 26.2517 5.22762 26.2122 5.23222C26.1727 5.23681 26.1346 5.24929 26.1 5.26889C26.0279 5.31036 25.9751 5.37846 25.9527 5.45854C25.9304 5.53861 25.9404 5.62426 25.9805 5.69704Z" fill="#090D0A"/>
<path d="M26.4022 6.88003C26.4139 7.09146 26.1908 7.27858 25.8969 7.29444C25.603 7.3103 25.3609 7.15172 25.3493 6.93817C25.3377 6.72463 25.5607 6.53962 25.8546 6.52271C26.1485 6.50579 26.3906 6.66648 26.4022 6.88003Z" fill="#F28F8F"/>
<path d="M29.5452 6.31131C29.6203 6.51111 29.4617 6.75638 29.19 6.85998C28.9183 6.96358 28.635 6.88641 28.5557 6.6866C28.4764 6.4868 28.6382 6.24154 28.9109 6.13793C29.1837 6.03433 29.4691 6.11468 29.5452 6.31131Z" fill="#F28F8F"/>
<path d="M21.0289 22.1191C20.8893 21.9077 20.6969 21.7184 20.6641 21.4594C20.6534 21.3931 20.6583 21.3252 20.6785 21.2611C20.6987 21.1971 20.7336 21.1386 20.7804 21.0905C20.8036 21.0742 20.8228 21.0529 20.8364 21.0281C20.8434 21.0059 20.8455 20.9825 20.8428 20.9594C20.8335 20.8624 20.8545 20.7648 20.903 20.6803C20.9262 20.6463 20.9563 20.6176 20.9912 20.5959C21.0262 20.5743 21.0653 20.5602 21.106 20.5545C21.0829 20.41 21.1062 20.262 21.1726 20.1316C21.253 19.9783 21.439 19.8747 21.5215 20.0714C21.5597 20.1691 21.5881 20.2704 21.6061 20.3737C21.6529 20.6306 21.6692 20.8921 21.6547 21.1528C21.642 21.4245 21.5934 22.192 21.1737 22.1656C21.1409 22.1603 21.0468 22.1487 21.0289 22.1191Z" fill="#F28F8F"/>
<path d="M23.9561 10.209C22.605 10.4205 22.2033 10.6488 21.3512 11.7673C20.3723 13.0518 19.0487 14.5751 18.6565 15.1682C18.1723 15.9019 18.0486 16.1937 18.7686 17.1599C19.1439 17.6568 19.6724 18.2636 20.201 18.9381C20.6239 19.4667 21.1345 20.0449 21.5352 20.5915C21.5907 20.6522 21.6278 20.7275 21.6424 20.8085C21.657 20.8894 21.6484 20.9729 21.6176 21.0492C21.5675 21.1491 21.5234 21.2518 21.4855 21.3569C21.4648 21.499 21.4552 21.6425 21.4569 21.7861C21.4421 21.9288 21.3734 22.0853 21.2349 22.1254C21.1673 22.1428 21.0964 22.1428 21.0288 22.1254C21.1336 22.2332 21.2545 22.3242 21.3872 22.395C21.5214 22.4666 21.6778 22.4847 21.8248 22.4457C21.9633 22.4024 22.0796 22.2935 22.2244 22.2724C22.3016 22.2618 22.382 22.2777 22.4602 22.2724C22.5394 22.2624 22.6134 22.2276 22.6716 22.173C22.7657 22.0853 22.8196 21.9478 22.9401 21.9034C22.9998 21.89 23.0602 21.8797 23.1209 21.8728C23.1811 21.8545 23.2359 21.8218 23.2807 21.7776C23.3254 21.7334 23.3588 21.679 23.3778 21.619C23.4147 21.4993 23.43 21.3741 23.4233 21.249C23.4231 20.9121 23.4044 20.5754 23.3672 20.2405C23.3491 20.1265 23.3108 20.0166 23.2541 19.9159C23.196 19.7975 23.141 19.676 23.0755 19.5607C22.6304 18.7806 21.2392 16.1905 21.2392 16.1905L23.6791 13.7231C23.6791 13.7231 24.9583 11.5485 23.9561 10.209Z" fill="#FFA8A7"/>
<path d="M21.2435 16.181C20.6874 16.5837 19.9283 16.5097 19.6577 16.4516C20.2656 16.9802 21.3735 16.4146 21.3735 16.4146L21.2435 16.181Z" fill="#F28F8F"/>
<path d="M18.3477 37.4068C18.3291 37.4101 18.31 37.4062 18.2941 37.396C18.2782 37.3859 18.2668 37.3701 18.262 37.3518L18.2451 37.2821C18.2232 37.1943 18.1705 37.1174 18.0965 37.0654C18.0225 37.0134 17.9323 36.9897 17.8423 36.9987L17.7704 37.0061C17.7511 37.0095 17.7312 37.005 17.7151 36.9937C17.6991 36.9824 17.6882 36.9652 17.6848 36.9459C17.6814 36.9265 17.6859 36.9066 17.6972 36.8906C17.7085 36.8745 17.7257 36.8636 17.7451 36.8602L17.8148 36.8423C17.9026 36.8204 17.9795 36.7676 18.0315 36.6937C18.0835 36.6197 18.1072 36.5295 18.0982 36.4395L18.0908 36.3676C18.0874 36.3483 18.0919 36.3284 18.1032 36.3123C18.1145 36.2963 18.1317 36.2853 18.151 36.282C18.1704 36.2786 18.1903 36.2831 18.2063 36.2944C18.2224 36.3057 18.2333 36.3229 18.2367 36.3422L18.2546 36.412C18.2763 36.4999 18.329 36.5769 18.403 36.629C18.4771 36.681 18.5674 36.7046 18.6574 36.6953L18.7282 36.6879C18.7469 36.6863 18.7654 36.6917 18.7803 36.703C18.7951 36.7144 18.8052 36.7309 18.8086 36.7492C18.8121 36.7677 18.8083 36.7868 18.7981 36.8026C18.7878 36.8183 18.7719 36.8295 18.7536 36.8338L18.6838 36.8518C18.5963 36.8739 18.5196 36.9268 18.4678 37.0007C18.416 37.0746 18.3925 37.1647 18.4016 37.2546L18.4079 37.3265C18.4098 37.345 18.4047 37.3635 18.3935 37.3784C18.3823 37.3933 18.366 37.4034 18.3477 37.4068ZM18.0601 36.8782C18.1465 36.9101 18.223 36.9641 18.2821 37.0347C18.3139 36.9479 18.3678 36.871 18.4386 36.8116C18.3522 36.7797 18.2757 36.7258 18.2166 36.6552C18.1848 36.7419 18.1309 36.8188 18.0601 36.8782Z" fill="#E0E0E0"/>
<path d="M16.1836 35.137C16.1651 35.1403 16.1462 35.1364 16.1305 35.1262C16.1148 35.116 16.1035 35.1002 16.099 35.0821L16.081 35.0123C16.0591 34.9246 16.0064 34.8476 15.9324 34.7956C15.8584 34.7436 15.7682 34.7199 15.6782 34.729L15.6064 34.7364C15.5877 34.738 15.5692 34.7326 15.5543 34.7213C15.5395 34.7099 15.5294 34.6935 15.526 34.6751C15.5228 34.6566 15.5267 34.6377 15.5369 34.622C15.5471 34.6063 15.5628 34.595 15.581 34.5905L15.6508 34.5725C15.7385 34.5506 15.8154 34.4979 15.8674 34.4239C15.9195 34.3499 15.9431 34.2597 15.9341 34.1697L15.9267 34.0979C15.9253 34.0793 15.9308 34.0608 15.9421 34.046C15.9534 34.0312 15.9697 34.0211 15.988 34.0175C16.0064 34.0145 16.0253 34.0185 16.0409 34.0287C16.0565 34.0388 16.0678 34.0544 16.0726 34.0725L16.0905 34.1422C16.1122 34.2301 16.165 34.3071 16.239 34.3592C16.313 34.4113 16.4033 34.4348 16.4933 34.4256L16.5652 34.4182C16.5838 34.4168 16.6022 34.4223 16.617 34.4336C16.6318 34.4449 16.642 34.4612 16.6456 34.4795C16.6485 34.4979 16.6446 34.5167 16.6344 34.5324C16.6242 34.548 16.6086 34.5593 16.5906 34.5641L16.5208 34.582C16.433 34.6037 16.3559 34.6564 16.3038 34.7305C16.2518 34.8045 16.2282 34.8948 16.2375 34.9848L16.2449 35.0567C16.2465 35.0753 16.2411 35.0939 16.2298 35.1087C16.2184 35.1236 16.202 35.1337 16.1836 35.137ZM15.896 34.6085C15.9828 34.6402 16.0597 34.6942 16.1191 34.7649C16.1508 34.6782 16.2048 34.6013 16.2755 34.5419C16.1888 34.5101 16.1119 34.4561 16.0525 34.3854C16.021 34.4729 15.9671 34.5506 15.896 34.6106V34.6085Z" fill="#E0E0E0"/>
<path d="M33.6269 32.2975C33.6084 32.3001 33.5895 32.2957 33.5741 32.2851C33.5586 32.2746 33.5477 32.2586 33.5434 32.2404L33.5275 32.1696C33.5079 32.0814 33.4571 32.0033 33.3844 31.9497C33.3118 31.8961 33.2221 31.8706 33.1321 31.8778L33.0602 31.8831C33.0415 31.8841 33.0231 31.8782 33.0085 31.8665C32.9938 31.8548 32.9841 31.8381 32.981 31.8197C32.9783 31.8011 32.9828 31.7823 32.9933 31.7668C33.0039 31.7514 33.0198 31.7404 33.038 31.7361L33.1089 31.7203C33.1971 31.7003 33.2752 31.6492 33.3289 31.5765C33.3827 31.5037 33.4085 31.4141 33.4017 31.3238L33.3964 31.253C33.395 31.2344 33.4007 31.216 33.4123 31.2014C33.424 31.1868 33.4407 31.1772 33.4591 31.1744C33.4775 31.1716 33.4963 31.1758 33.5118 31.1863C33.5272 31.1968 33.5381 31.2127 33.5423 31.2308L33.5582 31.3006C33.5778 31.389 33.6287 31.4674 33.7016 31.5212C33.7744 31.575 33.8643 31.6007 33.9546 31.5934L34.0265 31.5881C34.0451 31.5871 34.0634 31.5931 34.0778 31.6048C34.0923 31.6165 34.1019 31.6332 34.1047 31.6516C34.1076 31.6701 34.1033 31.6891 34.0927 31.7046C34.0821 31.7201 34.066 31.731 34.0476 31.7351L33.9779 31.7509C33.8897 31.7707 33.8117 31.8216 33.7579 31.8942C33.7041 31.9667 33.6783 32.0562 33.685 32.1463L33.6903 32.2182C33.6918 32.237 33.6861 32.2557 33.6743 32.2704C33.6626 32.2852 33.6456 32.2949 33.6269 32.2975ZM33.3531 31.7636C33.4387 31.7978 33.5141 31.8535 33.5719 31.9254C33.6058 31.8396 33.6616 31.7641 33.7337 31.7065C33.6473 31.6737 33.5716 31.6177 33.5148 31.5448C33.4807 31.631 33.4241 31.7066 33.351 31.7636H33.3531Z" fill="#E0E0E0"/>
<path d="M35.3659 34.8801C35.3485 34.8732 35.3344 34.86 35.3263 34.8432C35.3183 34.8263 35.3169 34.807 35.3225 34.7892L35.3447 34.7205C35.3718 34.6342 35.3669 34.541 35.331 34.4579C35.2951 34.3749 35.2306 34.3075 35.1491 34.268L35.0846 34.2363C35.0679 34.2281 35.0548 34.2138 35.0479 34.1964C35.0411 34.179 35.041 34.1597 35.0476 34.1422C35.0545 34.1249 35.0677 34.1107 35.0846 34.1027C35.1015 34.0947 35.1207 34.0933 35.1386 34.0989L35.2083 34.12C35.2944 34.1473 35.3874 34.1427 35.4703 34.1069C35.5532 34.0712 35.6205 34.0068 35.6597 33.9255L35.6915 33.861C35.6997 33.8442 35.7139 33.8311 35.7313 33.8243C35.7487 33.8175 35.7681 33.8174 35.7856 33.824C35.8029 33.8309 35.817 33.8441 35.8251 33.861C35.8331 33.8778 35.8345 33.8971 35.8289 33.9149L35.8078 33.9836C35.7804 34.0699 35.785 34.163 35.8207 34.2461C35.8564 34.3292 35.9209 34.3967 36.0023 34.4361L36.0678 34.4678C36.0768 34.4714 36.0851 34.4768 36.092 34.4836C36.099 34.4904 36.1045 34.4985 36.1084 34.5074C36.1122 34.5163 36.1142 34.5259 36.1143 34.5356C36.1145 34.5454 36.1127 34.555 36.109 34.564C36.1054 34.5731 36.1001 34.5813 36.0933 34.5882C36.0865 34.5952 36.0784 34.6007 36.0695 34.6046C36.0605 34.6084 36.0509 34.6104 36.0412 34.6106C36.0315 34.6107 36.0219 34.6089 36.0128 34.6053L35.9441 34.5841C35.8579 34.5565 35.7647 34.561 35.6815 34.5968C35.5984 34.6325 35.5309 34.6971 35.4917 34.7786L35.4599 34.8431C35.4519 34.8601 35.4377 34.8733 35.4202 34.8802C35.4027 34.8871 35.3833 34.887 35.3659 34.8801ZM35.3976 34.2807C35.4541 34.3536 35.4905 34.44 35.5033 34.5313C35.5753 34.474 35.6615 34.4374 35.7528 34.4255C35.696 34.3528 35.6596 34.2664 35.6471 34.175C35.5749 34.232 35.4887 34.2685 35.3976 34.2807Z" fill="#E0E0E0"/>
<path d="M18.3508 33.0143C18.3225 33.0189 18.2935 33.0128 18.2695 32.9971C18.2454 32.9815 18.2281 32.9574 18.2208 32.9297L18.1944 32.824C18.1606 32.6896 18.0797 32.5718 17.9664 32.4921C17.8531 32.4123 17.7149 32.3759 17.577 32.3895L17.4713 32.4011C17.4426 32.4037 17.4141 32.3955 17.3912 32.378C17.3683 32.3606 17.3528 32.3353 17.3476 32.307C17.3427 32.2787 17.3487 32.2495 17.3644 32.2254C17.3801 32.2013 17.4043 32.184 17.4322 32.177L17.5379 32.1495C17.6724 32.1161 17.7903 32.0352 17.87 31.9218C17.9496 31.8084 17.9856 31.67 17.9713 31.5321L17.9608 31.4264C17.9583 31.3979 17.9666 31.3695 17.984 31.3469C18.0014 31.3242 18.0267 31.3089 18.0549 31.304C18.083 31.2991 18.112 31.3049 18.1361 31.3203C18.1601 31.3358 18.1776 31.3596 18.1849 31.3873L18.2113 31.493C18.2451 31.6275 18.3262 31.7453 18.4398 31.8249C18.5534 31.9045 18.6918 31.9405 18.8297 31.9264L18.9355 31.9159C18.964 31.9133 18.9924 31.9216 19.0151 31.939C19.0378 31.9564 19.0532 31.9818 19.0581 32.01C19.0632 32.0382 19.0573 32.0673 19.0415 32.0913C19.0258 32.1153 19.0014 32.1323 18.9735 32.1389L18.8678 32.1664C18.7333 32.1998 18.6154 32.2807 18.5357 32.3941C18.4561 32.5076 18.4201 32.6459 18.4344 32.7838L18.4449 32.8895C18.4478 32.9183 18.4397 32.9472 18.4223 32.9703C18.4048 32.9934 18.3793 33.0091 18.3508 33.0143ZM17.9111 32.2066C18.0441 32.2551 18.1619 32.3378 18.2525 32.4466C18.3006 32.3136 18.3831 32.1958 18.4915 32.1051C18.3588 32.0566 18.2413 31.9738 18.151 31.8651C18.1028 31.9983 18.02 32.1161 17.9111 32.2066Z" fill="#E0E0E0"/>
<path d="M33.1511 37.4153C33.1228 37.4106 33.0973 37.3953 33.0799 37.3725C33.0624 37.3498 33.0542 37.3212 33.057 37.2926L33.0676 37.1816C33.0807 37.0436 33.0437 36.9055 32.9633 36.7925C32.883 36.6795 32.7646 36.5993 32.6299 36.5664L32.5242 36.5399C32.4968 36.5325 32.4731 36.5152 32.4577 36.4913C32.4424 36.4674 32.4366 36.4386 32.4413 36.4106C32.4461 36.3825 32.4611 36.3573 32.4835 36.3398C32.5058 36.3223 32.5339 36.3137 32.5623 36.3158L32.668 36.3264C32.8059 36.3398 32.944 36.303 33.057 36.2228C33.17 36.1426 33.2503 36.0244 33.2833 35.8898L33.3107 35.7841C33.3158 35.7545 33.3324 35.7281 33.3569 35.7108C33.3814 35.6934 33.4117 35.6865 33.4413 35.6916C33.4709 35.6966 33.4972 35.7132 33.5146 35.7377C33.5319 35.7622 33.5389 35.7925 33.5338 35.8221L33.5243 35.9278C33.5109 36.0657 33.5477 36.2039 33.6279 36.3169C33.7081 36.4299 33.8263 36.5102 33.9609 36.5431L34.0666 36.5695C34.0941 36.5769 34.1178 36.5943 34.1331 36.6182C34.1484 36.6421 34.1543 36.6709 34.1495 36.6989C34.1448 36.7269 34.1297 36.7521 34.1074 36.7697C34.085 36.7872 34.0569 36.7957 34.0286 36.7937L33.9228 36.7831C33.785 36.7699 33.647 36.8068 33.534 36.887C33.4211 36.9671 33.3407 37.0852 33.3076 37.2197L33.2801 37.3254C33.2742 37.3541 33.2575 37.3793 33.2335 37.3961C33.2095 37.4128 33.18 37.4197 33.1511 37.4153ZM33.0063 36.5072C33.1155 36.5972 33.1987 36.7147 33.2473 36.8476C33.3372 36.738 33.4548 36.6545 33.5877 36.6055C33.4788 36.5157 33.3956 36.3986 33.3467 36.2661C33.2567 36.3753 33.1392 36.4585 33.0063 36.5072Z" fill="#E0E0E0"/>
<path d="M32.9557 17.6293L33.258 17.993L33.7136 17.8714C34.053 17.7816 34.9516 17.5426 35.1873 16.8037C35.2441 16.6248 35.2307 16.4311 35.15 16.2617C35.0693 16.0923 34.9273 15.9598 34.7527 15.8912C34.578 15.8226 34.3838 15.8228 34.2094 15.8919C34.0349 15.961 33.8933 16.0938 33.813 16.2635C33.8604 16.0728 33.8301 15.8711 33.7288 15.7028C33.6275 15.5345 33.4635 15.4133 33.2728 15.3659C33.0821 15.3185 32.8805 15.3488 32.7122 15.4501C32.5438 15.5515 32.4227 15.7155 32.3753 15.9061C32.1364 16.6451 32.7315 17.3608 32.9557 17.6293Z" fill="#5B998A"/>
<path opacity="0.25" d="M32.9557 17.6293L33.258 17.993L33.7136 17.8714C34.053 17.7816 34.9516 17.5426 35.1873 16.8037C35.2441 16.6248 35.2307 16.4311 35.15 16.2617C35.0693 16.0923 34.9273 15.9598 34.7527 15.8912C34.578 15.8226 34.3838 15.8228 34.2094 15.8919C34.0349 15.961 33.8933 16.0938 33.813 16.2635C33.8604 16.0728 33.8301 15.8711 33.7288 15.7028C33.6275 15.5345 33.4635 15.4133 33.2728 15.3659C33.0821 15.3185 32.8805 15.3488 32.7122 15.4501C32.5438 15.5515 32.4227 15.7155 32.3753 15.9061C32.1364 16.6451 32.7315 17.3608 32.9557 17.6293Z" fill="#FEFEFE"/>
<path d="M19.9103 8.78402L20.423 8.91194L20.7539 8.50176C21.0003 8.19624 21.6525 7.38645 21.3766 6.56397C21.3102 6.3638 21.1699 6.19648 20.9844 6.09612C20.7989 5.99576 20.5821 5.9699 20.3782 6.02381C20.1742 6.07772 19.9986 6.20734 19.8869 6.38627C19.7752 6.5652 19.736 6.77998 19.7771 6.98684C19.6842 6.79808 19.5231 6.65164 19.3263 6.57715C19.1296 6.50266 18.9119 6.50568 18.7173 6.58559C18.5227 6.6655 18.3657 6.81635 18.278 7.00761C18.1904 7.19888 18.1787 7.41628 18.2453 7.61585C18.5212 8.44044 19.5308 8.68993 19.9103 8.78402Z" fill="#5B998A"/>
<path opacity="0.35" d="M19.9103 8.78402L20.423 8.91194L20.7539 8.50176C21.0003 8.19624 21.6525 7.38645 21.3766 6.56397C21.3102 6.3638 21.1699 6.19648 20.9844 6.09612C20.7989 5.99576 20.5821 5.9699 20.3782 6.02381C20.1742 6.07772 19.9986 6.20734 19.8869 6.38627C19.7752 6.5652 19.736 6.77998 19.7771 6.98684C19.6842 6.79808 19.5231 6.65164 19.3263 6.57715C19.1296 6.50266 18.9119 6.50568 18.7173 6.58559C18.5227 6.6655 18.3657 6.81635 18.278 7.00761C18.1904 7.19888 18.1787 7.41628 18.2453 7.61585C18.5212 8.44044 19.5308 8.68993 19.9103 8.78402Z" fill="#FEFEFE"/>
<path d="M18.463 11.631L18.7686 11.6045L18.8743 11.317C18.9514 11.1055 19.1576 10.5368 18.8521 10.1382C18.7767 10.0457 18.6696 9.98455 18.5516 9.9666C18.4336 9.94864 18.3131 9.97519 18.2136 10.0411C18.1141 10.107 18.0427 10.2075 18.0132 10.3232C17.9836 10.4388 17.9982 10.5613 18.0539 10.6668C17.9691 10.5734 17.851 10.5171 17.7251 10.5099C17.5992 10.5028 17.4754 10.5454 17.3806 10.6286C17.2858 10.7118 17.2274 10.8289 17.2181 10.9547C17.2088 11.0805 17.2493 11.2049 17.3308 11.3011C17.6363 11.7018 18.2368 11.65 18.463 11.631Z" fill="#5B998A"/>
<path d="M11.3333 25.7039C10.4326 25.1923 9.19362 25.2705 7.82565 26.0602C5.07701 27.6459 2.84216 31.5141 2.84216 34.693C2.84216 36.2788 3.39929 37.3951 4.3 37.9163L6.00309 38.8963C6.9038 39.4154 8.14914 39.3393 9.52345 38.5464C12.2721 36.9606 14.508 33.0925 14.508 29.9136C14.508 28.3278 13.953 27.2157 13.0554 26.6934C12.678 26.4746 11.7139 25.9196 11.3333 25.7039Z" fill="#5B998A"/>
<path opacity="0.15" d="M3.02493 33.0406C2.907 33.5836 2.8457 34.1374 2.84204 34.693C2.84204 36.2787 3.39917 37.3951 4.29987 37.9163L6.00297 38.8963C6.90367 39.4154 8.14902 39.3392 9.52333 38.5464C10.0017 38.266 10.4496 37.9365 10.8596 37.5632L3.02493 33.0406Z" fill="black"/>
<path d="M13.049 34.822C13.9497 33.2606 14.5068 31.5014 14.5068 29.9136C14.5068 26.7357 12.2752 25.447 9.5223 27.037C6.76944 28.627 4.53882 32.4909 4.53882 35.6688C4.53882 38.8466 6.77473 40.1353 9.52336 38.5464C10.2461 38.1182 10.9018 37.5861 11.4696 36.967L13.5036 37.3391C13.5624 37.3497 13.623 37.3445 13.6791 37.3238C13.7352 37.3031 13.7847 37.2678 13.8226 37.2215C13.8604 37.1753 13.8852 37.1197 13.8944 37.0607C13.9035 37.0016 13.8967 36.9411 13.8747 36.8856L13.049 34.822Z" fill="#5B998A"/>
<path opacity="0.35" d="M13.049 34.822C13.9497 33.2606 14.5068 31.5014 14.5068 29.9136C14.5068 26.7357 12.2752 25.447 9.5223 27.037C6.76944 28.627 4.53882 32.4909 4.53882 35.6688C4.53882 38.8466 6.77473 40.1353 9.52336 38.5464C10.2461 38.1182 10.9018 37.5861 11.4696 36.967L13.5036 37.3391C13.5624 37.3497 13.623 37.3445 13.6791 37.3238C13.7352 37.3031 13.7847 37.2678 13.8226 37.2215C13.8604 37.1753 13.8852 37.1197 13.8944 37.0607C13.9035 37.0016 13.8967 36.9411 13.8747 36.8856L13.049 34.822Z" fill="#FEFEFE"/>
<path d="M11.9379 31.9676C12.1234 31.736 12.2301 31.4512 12.2424 31.1547C12.2424 30.8724 12.1366 30.7551 12.0309 30.717C12.1283 30.5274 12.1811 30.318 12.1853 30.1049C12.1853 29.8173 12.0225 29.4843 11.6747 29.682L10.3754 30.4305C10.46 29.8427 10.423 29.3902 10.2549 28.9441C10.1005 28.535 9.7115 28.6619 9.50218 28.8384C9.4492 28.8754 9.40512 28.9237 9.37312 28.9798C9.34112 29.036 9.32201 29.0985 9.31718 29.163C9.31718 29.2031 9.31718 29.2845 9.32564 29.3892C9.33621 29.6397 9.36158 30.2254 9.32564 30.3787C9.28969 30.532 8.88903 31.5765 8.63214 32.2266C8.62243 32.2509 8.61707 32.2766 8.61628 32.3027V35.8294C8.61628 35.8897 8.64905 35.9204 8.69134 35.9056L8.70614 35.8982L11.0414 34.5524C11.2186 34.436 11.3661 34.2798 11.4722 34.0962C11.5783 33.9127 11.64 33.7069 11.6525 33.4952C11.6528 33.3886 11.6414 33.2822 11.6186 33.1781C11.826 32.9371 11.9554 32.6389 11.9897 32.3228C11.9944 32.2023 11.9768 32.0818 11.9379 31.9676ZM11.5013 33.0248C11.4661 33.0484 11.4397 33.083 11.4262 33.1231C11.4094 33.1603 11.4067 33.2025 11.4188 33.2415C11.4559 33.354 11.4737 33.4719 11.4717 33.5904C11.4603 33.7353 11.4155 33.8756 11.3409 34.0003C11.2662 34.125 11.1637 34.2307 11.0414 34.3092L8.79388 35.6096V32.2404C8.90806 31.9507 9.42818 30.6113 9.49161 30.3787C9.54236 30.1842 9.52755 29.7444 9.50747 29.2792C9.50747 29.2031 9.50113 29.1408 9.50007 29.0985C9.56767 29.0264 9.6541 28.9748 9.74956 28.9494C9.78431 28.9381 9.821 28.934 9.8574 28.9373C9.89379 28.9406 9.92913 28.9513 9.96126 28.9687C9.9934 28.9861 10.0217 29.0099 10.0443 29.0386C10.067 29.0672 10.0836 29.1002 10.0931 29.1355C10.2602 29.5795 10.2866 30.0298 10.1798 30.6398C10.1749 30.6556 10.1738 30.6724 10.1765 30.6888C10.1793 30.7051 10.1859 30.7206 10.1957 30.7339C10.2046 30.7436 10.2169 30.7496 10.2301 30.7506C10.2432 30.7516 10.2563 30.7475 10.2665 30.7392L11.6799 29.9262C11.9284 29.7835 12.0098 30.0531 12.0098 30.2074C12.0046 30.4066 11.9398 30.5995 11.8237 30.7614C11.792 30.8031 11.777 30.8551 11.7814 30.9073C11.7814 30.9517 11.8131 30.976 11.8491 30.9665C11.8575 30.9665 12.0605 30.9168 12.0605 31.2572C12.0526 31.4883 11.9547 31.7072 11.7878 31.8672C11.7548 31.8981 11.7319 31.9383 11.7222 31.9824C11.7167 32 11.7152 32.0187 11.7178 32.0369C11.7203 32.0552 11.7269 32.0727 11.737 32.0881C11.737 32.0881 11.8079 32.1685 11.8079 32.419C11.8089 32.5681 11.6429 32.9487 11.5013 33.029V33.0248ZM8.26424 32.2848L7.24513 32.8704C7.21807 32.8885 7.1962 32.9132 7.1817 32.9423C7.16522 32.9733 7.15618 33.0077 7.15527 33.0428V37.1477C7.15527 37.2069 7.18805 37.2387 7.23033 37.2228L7.24513 37.2165L8.26424 36.6297C8.29154 36.612 8.31347 36.5871 8.32767 36.5578C8.34426 36.5269 8.35331 36.4925 8.3541 36.4574V32.3524C8.3541 32.2858 8.31498 32.2531 8.26424 32.2837V32.2848ZM7.75257 36.2946C7.64686 36.3559 7.56017 36.2946 7.56017 36.1498C7.56139 36.0777 7.57942 36.0069 7.61283 35.9431C7.64623 35.8792 7.69408 35.824 7.75257 35.7819C7.85829 35.7206 7.94498 35.7819 7.94498 35.9278C7.94359 35.9995 7.92547 36.0699 7.89207 36.1334C7.85867 36.1969 7.8109 36.2518 7.75257 36.2935V36.2946Z" fill="#FAFAFA"/>
<path d="M40.6971 25.7039C41.5978 25.1923 42.8368 25.2705 44.2048 26.0602C46.9534 27.6459 49.1883 31.5141 49.1883 34.693C49.1883 36.2788 48.6312 37.3951 47.7305 37.9163L46.0274 38.8963C45.1267 39.4154 43.8813 39.3393 42.507 38.5464C39.7584 36.9606 37.5225 33.0925 37.5225 29.9136C37.5225 28.3278 38.0775 27.2157 38.975 26.6934C39.3524 26.4746 40.3166 25.9196 40.6971 25.7039Z" fill="#5B998A"/>
<path opacity="0.15" d="M49.0054 33.0406C49.1234 33.5836 49.1847 34.1374 49.1883 34.693C49.1883 36.2787 48.6312 37.3951 47.7305 37.9163L46.0274 38.8963C45.1267 39.4154 43.8814 39.3392 42.507 38.5464C42.0286 38.266 41.5808 37.9365 41.1708 37.5632L49.0054 33.0406Z" fill="black"/>
<path d="M38.9814 34.822C38.0807 33.2606 37.5236 31.5014 37.5236 29.9136C37.5236 26.7357 39.7552 25.447 42.5081 27.037C45.261 28.627 47.4916 32.4909 47.4916 35.6688C47.4916 38.8466 45.2557 40.1353 42.507 38.5464C41.7843 38.1182 41.1286 37.5861 40.5608 36.967L38.5268 37.3391C38.468 37.3497 38.4074 37.3445 38.3513 37.3238C38.2952 37.3031 38.2457 37.2678 38.2078 37.2215C38.17 37.1753 38.1452 37.1197 38.136 37.0607C38.1269 37.0016 38.1337 36.9411 38.1557 36.8856L38.9814 34.822Z" fill="#5B998A"/>
<path opacity="0.35" d="M38.9814 34.822C38.0807 33.2606 37.5236 31.5014 37.5236 29.9136C37.5236 26.7357 39.7552 25.447 42.5081 27.037C45.261 28.627 47.4916 32.4909 47.4916 35.6688C47.4916 38.8466 45.2557 40.1353 42.507 38.5464C41.7843 38.1182 41.1286 37.5861 40.5608 36.967L38.5268 37.3391C38.468 37.3497 38.4074 37.3445 38.3513 37.3238C38.2952 37.3031 38.2457 37.2678 38.2078 37.2215C38.17 37.1753 38.1452 37.1197 38.136 37.0607C38.1269 37.0016 38.1337 36.9411 38.1557 36.8856L38.9814 34.822Z" fill="#FEFEFE"/>
<path d="M44.1625 37.0812C44.1109 37.0767 44.061 37.0606 44.0165 37.0341C43.972 37.0075 43.9341 36.9712 43.9057 36.9279L42.451 35.0673L41.0143 35.2449C40.9683 35.2476 40.9223 35.2395 40.8801 35.2211C40.8378 35.2027 40.8005 35.1747 40.7712 35.1392C40.7107 35.0755 40.6645 34.9996 40.6357 34.9167C40.6069 34.8337 40.5962 34.7456 40.6041 34.6581L40.8832 32.6432L39.6886 30.4083C39.5892 30.2212 39.5829 30.0161 39.6823 29.9083C39.712 29.8762 39.7509 29.854 39.7937 29.8449C39.8365 29.8358 39.881 29.8403 39.9212 29.8576L41.5069 30.4654L42.2142 28.9611C42.2314 28.9215 42.2602 28.8882 42.2969 28.8655C42.3335 28.8429 42.3762 28.8319 42.4193 28.8342C42.5652 28.8448 42.71 28.9949 42.7724 29.1989L43.5071 31.6093L45.1468 32.8779C45.2155 32.9366 45.2708 33.0094 45.3091 33.0912C45.3474 33.1731 45.3677 33.2622 45.3688 33.3525C45.3706 33.397 45.362 33.4413 45.3436 33.4819C45.3253 33.5225 45.2977 33.5582 45.2631 33.5862L44.1002 34.4235L44.3772 36.7429C44.3972 36.9036 44.3444 37.0262 44.2376 37.0695C44.2135 37.0781 44.1881 37.082 44.1625 37.0812ZM42.4901 34.8823C42.5038 34.8822 42.5173 34.8854 42.5296 34.8914C42.5419 34.8975 42.5526 34.9063 42.5609 34.9172L44.0473 36.8201C44.1055 36.893 44.153 36.9089 44.1731 36.9015C44.1932 36.8941 44.2143 36.8507 44.2038 36.7619L43.9194 34.3907C43.9174 34.3747 43.9198 34.3585 43.9263 34.3438C43.9329 34.3291 43.9432 34.3164 43.9564 34.3072L45.1584 33.4382C45.1694 33.4259 45.1777 33.4115 45.1828 33.3958C45.1879 33.3802 45.1897 33.3636 45.188 33.3473C45.1867 33.2848 45.1725 33.2232 45.1463 33.1664C45.1202 33.1097 45.0825 33.0589 45.0358 33.0174L43.3739 31.734C43.3589 31.7225 43.3478 31.7066 43.3422 31.6886L42.6022 29.2507C42.5567 29.1017 42.4605 29.0182 42.4087 29.0139C42.4002 29.0139 42.3907 29.0139 42.3791 29.0383L41.6391 30.6177C41.6294 30.6381 41.6124 30.6541 41.5914 30.6625C41.5705 30.6709 41.5471 30.6711 41.526 30.6631L39.863 30.0288C39.8345 30.0182 39.8271 30.0288 39.8229 30.0288C39.8032 30.077 39.7957 30.1294 39.8011 30.1812C39.8064 30.233 39.8244 30.2827 39.8535 30.3259L41.0566 32.584C41.0658 32.6007 41.0695 32.62 41.0672 32.639L40.7828 34.6825C40.7788 34.7438 40.7877 34.8053 40.8088 34.863C40.8299 34.9207 40.8628 34.9733 40.9054 35.0176C40.9167 35.032 40.9307 35.044 40.9467 35.0529C40.9627 35.0618 40.9803 35.0674 40.9984 35.0694L42.4848 34.8854L42.4901 34.8823Z" fill="#FAFAFA"/>
</svg>
