<svg width="97" height="64" viewBox="0 0 97 64" fill="none" xmlns="http://www.w3.org/2000/svg">
<g clip-path="url(#clip0_140_25673)">
<path d="M25.8826 49.9439C24.4064 42.5569 22.9935 32.7451 25.8428 25.7269C27.4679 21.724 30.3734 18.3211 33.2689 15.0215C36.0196 11.8869 38.8895 8.70995 42.6523 6.72774C47.8911 3.96793 54.178 3.85836 60.1746 3.81766C66.4681 3.77504 73.355 3.92531 78.1547 7.77529C81.1638 10.189 86.3517 16.6965 87.6823 20.2096C91.754 30.9607 92.1468 40.471 90.5467 51.7901L25.8826 49.9439Z" fill="white"/>
<mask id="mask0_140_25673" style="mask-type:luminance" maskUnits="userSpaceOnUse" x="24" y="3" width="68" height="49">
<path d="M25.8886 49.9439C24.4127 42.5569 23.0002 32.7451 25.8488 25.7269C27.4736 21.724 30.3785 18.3211 33.2735 15.0215C36.0235 11.8869 38.893 8.70995 42.6551 6.72774C47.893 3.96793 54.1787 3.85836 60.1742 3.81766C66.4666 3.77504 73.3521 3.92531 78.1509 7.77529C81.1594 10.189 86.3464 16.6965 87.6765 20.2096C91.7475 30.9607 92.1403 40.471 90.5404 51.7901L25.8886 49.9439Z" fill="white"/>
</mask>
<g mask="url(#mask0_140_25673)">
<path d="M79.4174 2.00293C80.4542 7.01515 80.2569 12.3808 80.0542 17.5149C79.5501 30.2788 79.0462 43.0427 78.5421 55.8064L80.1157 55.7997C81.2648 39.3643 81.4729 18.4667 80.7389 2.00293H79.4174Z" fill="#F6F2E6"/>
</g>
<mask id="mask1_140_25673" style="mask-type:luminance" maskUnits="userSpaceOnUse" x="24" y="3" width="68" height="49">
<path d="M25.8886 49.9439C24.4127 42.5569 23.0002 32.7451 25.8488 25.7269C27.4736 21.724 30.3785 18.3211 33.2735 15.0215C36.0235 11.8869 38.893 8.70995 42.6551 6.72774C47.893 3.96793 54.1787 3.85836 60.1742 3.81766C66.4666 3.77504 73.3521 3.92531 78.1509 7.77529C81.1594 10.189 86.3464 16.6965 87.6765 20.2096C91.7475 30.9607 92.1403 40.471 90.5404 51.7901L25.8886 49.9439Z" fill="white"/>
</mask>
<g mask="url(#mask1_140_25673)">
<path d="M50.352 54.2762C50.4548 36.9235 50.4798 19.3722 50.4243 2.02319L48.9665 2.03996C47.9869 16.8222 47.3998 37.8506 48.1103 52.6185L50.352 54.2762Z" fill="#F6F2E6"/>
</g>
<mask id="mask2_140_25673" style="mask-type:luminance" maskUnits="userSpaceOnUse" x="24" y="3" width="68" height="49">
<path d="M25.8886 49.9439C24.4127 42.5569 23.0002 32.7451 25.8488 25.7269C27.4736 21.724 30.3785 18.3211 33.2735 15.0215C36.0235 11.8869 38.893 8.70995 42.6551 6.72774C47.893 3.96793 54.1787 3.85836 60.1742 3.81766C66.4666 3.77504 73.3521 3.92531 78.1509 7.77529C81.1594 10.189 86.3464 16.6965 87.6765 20.2096C91.7475 30.9607 92.1403 40.471 90.5404 51.7901L25.8886 49.9439Z" fill="white"/>
</mask>
<g mask="url(#mask2_140_25673)">
<path d="M67.2969 54.203C67.6596 36.861 67.9887 19.3223 68.2751 1.98755L67.5725 2.0358C66.8336 16.828 64.8745 37.5685 64.9501 52.3098L67.2969 54.203Z" fill="#F6F2E6"/>
</g>
<mask id="mask3_140_25673" style="mask-type:luminance" maskUnits="userSpaceOnUse" x="24" y="3" width="68" height="49">
<path d="M25.8886 49.9439C24.4127 42.5569 23.0002 32.7451 25.8488 25.7269C27.4736 21.724 30.3785 18.3211 33.2735 15.0215C36.0235 11.8869 38.893 8.70995 42.6551 6.72774C47.893 3.96793 54.1787 3.85836 60.1742 3.81766C66.4666 3.77504 73.3521 3.92531 78.1509 7.77529C81.1594 10.189 86.3464 16.6965 87.6765 20.2096C91.7475 30.9607 92.1403 40.471 90.5404 51.7901L25.8886 49.9439Z" fill="white"/>
</mask>
<g mask="url(#mask3_140_25673)">
<path d="M40.0039 54.203C40.3668 36.861 40.6957 19.3223 40.9822 1.98755L40.2796 2.0358C39.5408 16.828 37.5816 37.5685 37.6573 52.3098L40.0039 54.203Z" fill="#F6F2E6"/>
</g>
<mask id="mask4_140_25673" style="mask-type:luminance" maskUnits="userSpaceOnUse" x="24" y="3" width="68" height="49">
<path d="M25.8886 49.9439C24.4127 42.5569 23.0002 32.7451 25.8488 25.7269C27.4736 21.724 30.3785 18.3211 33.2735 15.0215C36.0235 11.8869 38.893 8.70995 42.6551 6.72774C47.893 3.96793 54.1787 3.85836 60.1742 3.81766C66.4666 3.77504 73.3521 3.92531 78.1509 7.77529C81.1594 10.189 86.3464 16.6965 87.6765 20.2096C91.7475 30.9607 92.1403 40.471 90.5404 51.7901L25.8886 49.9439Z" fill="white"/>
</mask>
<g mask="url(#mask4_140_25673)">
<path d="M30.8612 55.2198C33.0307 38.2159 33.6983 19.1466 32.8519 2.00293H34.2741C34.1422 19.0849 34.7294 37.2223 36.0329 54.2452L30.8612 55.2198Z" fill="#F6F2E6"/>
</g>
<mask id="mask5_140_25673" style="mask-type:luminance" maskUnits="userSpaceOnUse" x="24" y="3" width="68" height="49">
<path d="M25.8886 49.9439C24.4127 42.5569 23.0002 32.7451 25.8488 25.7269C27.4736 21.724 30.3785 18.3211 33.2735 15.0215C36.0235 11.8869 38.893 8.70995 42.6551 6.72774C47.893 3.96793 54.1787 3.85836 60.1742 3.81766C66.4666 3.77504 73.3521 3.92531 78.1509 7.77529C81.1594 10.189 86.3464 16.6965 87.6765 20.2096C91.7475 30.9607 92.1403 40.471 90.5404 51.7901L25.8886 49.9439Z" fill="white"/>
</mask>
<g mask="url(#mask5_140_25673)">
<path d="M70.9401 55.2198C73.1095 38.2159 73.7772 19.1466 72.9307 2.00293H74.3529C74.2211 19.0849 74.8082 37.2223 76.1118 54.2452L70.9401 55.2198Z" fill="#F6F2E6"/>
</g>
<mask id="mask6_140_25673" style="mask-type:luminance" maskUnits="userSpaceOnUse" x="24" y="3" width="68" height="49">
<path d="M25.8886 49.9439C24.4127 42.5569 23.0002 32.7451 25.8488 25.7269C27.4736 21.724 30.3785 18.3211 33.2735 15.0215C36.0235 11.8869 38.893 8.70995 42.6551 6.72774C47.893 3.96793 54.1787 3.85836 60.1742 3.81766C66.4666 3.77504 73.3521 3.92531 78.1509 7.77529C81.1594 10.189 86.3464 16.6965 87.6765 20.2096C91.7475 30.9607 92.1403 40.471 90.5404 51.7901L25.8886 49.9439Z" fill="white"/>
</mask>
<g mask="url(#mask6_140_25673)">
<path d="M54.21 55.2198C56.3794 38.2159 57.0471 19.1466 56.2006 2.00293H57.6228C57.491 19.0849 58.0781 37.2223 59.3817 54.2452L54.21 55.2198Z" fill="#F6F2E6"/>
</g>
<path d="M85.0013 50.396C87.2162 50.494 89.4821 50.6081 91.5156 51.0768C93.5493 51.5456 95.3384 52.4448 95.6315 53.5319C96.0014 54.904 93.9887 56.1052 91.8944 56.9871C82.9192 60.7666 69.8021 62.0422 58.2502 60.259C53.1014 59.4643 48.2063 58.1025 42.868 57.8529C39.5104 57.6958 36.1709 57.991 32.8173 58.0688C29.4637 58.1466 25.8859 57.9735 23.0879 57.0099C20.7449 56.203 19.1722 54.8665 18.9353 53.4812C18.6759 51.9649 19.8212 50.1052 23.2421 49.944C27.5 49.7436 31.9412 49.7859 36.2294 49.7157C46.5734 49.5463 56.944 49.577 67.3092 49.8077C73.2104 49.939 79.1096 50.1351 85.0013 50.396Z" fill="#E9C9AF"/>
<path d="M47.2219 56.7765C47.4066 56.6422 47.0994 56.442 46.8537 56.393C46.0352 56.2301 45.2167 56.067 44.3982 55.904C43.5637 55.7379 42.1915 56.1584 43.3628 56.7396C44.1298 57.1203 46.3163 56.7844 47.2219 56.7765Z" fill="#C0917E"/>
<path d="M68.8054 58.4113C68.8962 58.107 69.2626 57.9072 69.6013 57.7369C69.8674 57.603 70.1335 57.4692 70.3997 57.3353C70.7663 57.151 71.1963 56.9584 71.6157 57.0548C72.0264 57.1492 72.2577 57.4852 72.6239 57.6572C72.9574 57.8139 73.3685 57.8206 73.7494 57.8862C74.1303 57.9519 74.5396 58.1243 74.608 58.421L68.8054 58.4113Z" fill="#C0917E"/>
<path d="M59.1574 54.7805C79.6236 54.7805 96.2148 54.1646 96.2148 53.4048C96.2148 52.645 79.6236 52.0291 59.1574 52.0291C38.6911 52.0291 22.1 52.645 22.1 53.4048C22.1 54.1646 38.6911 54.7805 59.1574 54.7805Z" fill="#E1B69A"/>
<path d="M31.7646 50.5847L31.8635 51.7518L31.9421 52.7031L32.0196 53.7889H37.2021L37.0045 53.2182C36.938 53.0322 36.8461 52.859 36.7334 52.703C36.4923 52.3696 36.1526 52.113 35.7559 51.9762L35.5792 51.9164C35.4217 51.8609 35.2704 51.7902 35.1294 51.7027C35.1165 51.6963 35.1034 51.6899 35.0903 51.6813C34.958 51.6001 34.836 51.5061 34.7223 51.4012C34.4774 51.1747 34.2783 50.899 34.1447 50.5847H31.7646Z" fill="#AA6747"/>
<path d="M31.8634 51.7518L31.942 52.7031L32.0196 53.7889H37.202L37.0044 53.2182C36.938 53.0322 36.8461 52.859 36.7333 52.703C36.4923 52.3695 36.1526 52.113 35.7559 51.9762L35.5791 51.9164C35.4217 51.8608 35.2704 51.7902 35.1293 51.7026L34.7094 53.2503H33.1314C32.8769 52.4242 32.3438 51.8159 31.8634 51.7518Z" fill="#602D13"/>
<path d="M32.633 33.2788L33.5713 40.2732L34.138 50.5848H31.7647C31.4599 47.8071 30.0116 44.8256 30.7253 40.8003L28.1438 33.6867L32.633 33.2788Z" fill="#AA6747"/>
<path d="M30.3928 32.7847L30.1396 40.6783C30.1396 40.6783 27.2866 49.7992 27.8049 50.8534H24.9784C25.7047 47.6205 24.8779 45.0155 27.0133 40.4272L26.1244 34.5406L30.3928 32.7847Z" fill="#CE8E68"/>
<path d="M29.276 16.4148C27.1416 16.9996 27.1858 18.4479 27.2499 19.7854C27.314 21.1229 26.8223 21.5572 26.8223 21.5572L29.276 21.492V16.4148Z" fill="#824D35"/>
<path d="M32.7579 22.4323C33.5971 23.2526 35.1277 26.5978 36.3666 29.5081L35.4426 29.4947C34.0561 29.4744 32.8208 28.6142 32.3208 27.3207L30.9197 23.6955C30.757 23.3193 30.8096 22.8846 31.0575 22.5581C31.471 22.0131 32.2687 21.9542 32.7579 22.4323Z" fill="#CE8E68"/>
<path d="M32.7444 29.7146C32.7282 30.1132 32.7053 30.5132 32.677 30.9105L29.1647 30.8822L26.9574 30.8634L27.9567 29.0291L27.9579 29.0278L28.3728 28.2656C28.3728 28.2656 27.4315 26.6589 26.35 24.8718C26.28 24.7574 26.2274 24.6389 26.1924 24.5189C25.9177 23.6247 26.5144 22.6429 27.5055 22.5365L27.9862 22.4893L31.9322 22.0988C32.2662 22.0664 32.5612 22.3116 32.5881 22.6456C32.6123 22.9581 32.6433 23.3796 32.6715 23.8833C32.7093 24.5082 32.7442 25.2584 32.7657 26.0865C32.7765 26.5014 32.7833 26.9349 32.7846 27.3821C32.7858 27.3889 32.7858 27.397 32.7846 27.4051C32.7889 28.1496 32.778 28.9294 32.7444 29.7146Z" fill="#5E6F64"/>
<path d="M32.1807 23.4241C34.6134 25.556 34.0175 26.815 32.5351 27.51L32.1807 23.4241Z" fill="#5E6F64"/>
<path d="M33.6265 39.9392L28.0293 40.0389H28.028L26.3931 40.0685C26.3931 40.0685 24.0174 33.5339 27.9566 29.0291L27.9579 29.0278L29.376 29.2069L32.7375 29.6298L32.7443 29.7147L33.6265 39.9392Z" fill="#5E6F64"/>
<path d="M33.8272 25.9437C33.8433 26.7679 33.1645 27.2177 32.7848 27.405C32.6541 27.4696 32.5585 27.502 32.5396 27.5086C32.537 27.51 32.5357 27.51 32.5357 27.51L29.8234 27.906L29.3763 29.2069L28.944 30.4675C28.944 30.4675 29.0289 30.621 29.1649 30.8823C29.8949 32.2816 32.105 36.7583 30.6059 37.0371C28.8283 37.3683 27.5178 34.8526 27.5178 34.8526C27.5178 34.8526 27.0854 37.6095 28.0296 40.0391H28.0283L26.3933 40.0686C26.3933 40.0686 24.0177 33.5341 27.9569 29.0293L27.9581 29.028L28.373 28.2658C28.373 28.2658 27.4317 26.6591 26.3502 24.872C26.2802 24.7575 26.2276 24.639 26.1926 24.5191L27.9866 22.4895L29.8963 23.2895L28.8499 24.9285L29.1866 26.2766C30.1912 26.4073 31.4598 26.2834 32.4174 26.142C32.5386 26.1244 32.6557 26.1056 32.7662 26.0868C33.3992 25.9831 33.8262 25.8861 33.8262 25.8861C33.8272 25.9059 33.8272 25.9248 33.8272 25.9437Z" fill="#445859"/>
<path d="M26.2693 23.4433C25.7408 24.4911 25.3887 25.873 25.1587 29.0277L27.73 29.2123L28.4174 24.0435C28.4496 23.635 28.259 23.2407 27.9189 23.012C27.3513 22.63 26.5773 22.8325 26.2693 23.4433Z" fill="#CE8E68"/>
<path d="M27.9863 22.4892C29.7031 24.0972 31.146 24.1626 31.146 24.1626C31.146 24.1626 31.6311 23.1875 31.5903 22.1328L27.9863 22.4892Z" fill="#CE8E68"/>
<path d="M25.1587 29.0275C26.3118 31.6907 30.7229 33.7446 30.7229 33.7446L30.8991 32.2681L27.657 28.1511L25.1587 29.0275Z" fill="#CE8E68"/>
<path d="M30.1218 34.6687L30.9374 35.2241L30.1817 36.0745C30.0647 36.2061 29.8682 36.2304 29.7227 36.1314C29.5771 36.0323 29.5277 35.8405 29.6073 35.6835L30.1218 34.6687Z" fill="#AA6747"/>
<path d="M28.029 33.4922C27.8027 33.4922 27.5783 33.4675 27.3605 33.4184C26.9945 33.3355 26.763 33.1597 26.7081 32.923C26.6636 32.7306 26.7461 32.5483 26.8231 32.4292C27.0268 32.1144 27.3989 31.8962 27.8184 31.8455C28.1706 31.803 28.5529 31.8691 28.9556 32.0419L28.9282 32.1057L28.9566 32.0424C29.2189 32.155 29.5781 32.3091 29.7922 32.5226C29.8999 32.63 29.9016 32.731 29.8841 32.7967C29.8042 33.0964 29.1399 33.3057 28.8582 33.3819C28.5856 33.4554 28.306 33.4922 28.029 33.4922ZM28.0291 31.972C27.9633 31.972 27.8988 31.9758 27.8353 31.9835C27.4562 32.0292 27.1215 32.2241 26.94 32.5046C26.8888 32.5837 26.8083 32.7391 26.8436 32.8915C26.9004 33.1369 27.2111 33.242 27.3912 33.2827C27.8537 33.3873 28.3484 33.3752 28.822 33.2475C29.25 33.132 29.703 32.9367 29.7498 32.7607C29.7574 32.732 29.76 32.6865 29.6942 32.6208C29.499 32.4262 29.1539 32.278 28.902 32.1699L28.9283 32.1055L28.9009 32.1693C28.5946 32.0381 28.3023 31.972 28.0291 31.972Z" fill="black"/>
<path d="M30.5255 36.5677L30.897 36.4837C31.071 36.4444 31.1803 36.2714 31.1409 36.0973L30.3865 32.7576C30.3472 32.5835 30.1741 32.4742 30.0001 32.5137L29.6286 32.5976C29.4545 32.6369 29.3452 32.81 29.3846 32.9841L30.1391 36.3237C30.1784 36.4978 30.3514 36.607 30.5255 36.5677Z" fill="black"/>
<path d="M34.6591 54.2179C34.5604 54.2179 34.4713 54.15 34.4488 54.0495L29.7784 33.3756C29.7522 33.2593 29.8251 33.1436 29.9414 33.1175C30.058 33.0909 30.1733 33.1642 30.1995 33.2805L34.8699 53.9545C34.8961 54.0707 34.8231 54.1863 34.7068 54.2126C34.6908 54.2161 34.6748 54.2179 34.6591 54.2179Z" fill="black"/>
<path d="M30.8991 32.2683L32.149 35.2195L30.2712 35.2658L29.8932 33.6159C29.7413 32.9526 30.22 32.3113 30.8991 32.2683Z" fill="#CE8E68"/>
<path d="M32.0522 35.2979L30.628 35.801L29.529 35.2711C29.4372 35.2268 29.3851 35.1278 29.4009 35.027C29.4206 34.9007 29.5388 34.8143 29.6652 34.8339L30.4752 34.9598L31.3566 33.9722L32.0522 35.2979Z" fill="#CE8E68"/>
<path d="M31.6942 34.5077L30.5672 35.2408L29.4158 34.8371C29.3197 34.8033 29.2568 34.7107 29.2612 34.6089C29.2666 34.4811 29.3745 34.382 29.5022 34.3874L30.3213 34.4221L31.0869 33.342L31.6942 34.5077Z" fill="#CE8E68"/>
<path d="M30.2377 33.3391L30.318 33.3954C30.4058 33.4571 30.427 33.5782 30.3653 33.666L30.0557 34.1069C29.994 34.1947 29.8729 34.216 29.7851 34.1543L29.7049 34.098C29.6171 34.0363 29.5958 33.9152 29.6575 33.8274L29.9671 33.3864C30.0288 33.2985 30.1499 33.2774 30.2377 33.3391Z" fill="#CE8E68"/>
<path d="M31.3562 35.2104L32.1489 35.2197L31.5843 36.4174C31.5279 36.5422 31.3808 36.5977 31.256 36.5411C31.1311 36.4847 31.0756 36.3376 31.1321 36.2128L31.3562 35.2104Z" fill="#CE8E68"/>
<path d="M30.3001 36.1325L30.322 36.035C30.346 35.9282 30.4518 35.861 30.5587 35.885L31.4597 36.0867C31.5664 36.1106 31.6336 36.2165 31.6097 36.3234L31.5878 36.4209C31.5639 36.5277 31.458 36.5949 31.3511 36.5709L30.4501 36.3692C30.3434 36.3453 30.2762 36.2393 30.3001 36.1325Z" fill="#CE8E68"/>
<path d="M29.1827 33.8882L29.2128 33.7929C29.2457 33.6885 29.357 33.6305 29.4613 33.6636L30.3339 33.9389C30.4382 33.9718 30.4962 34.0832 30.4632 34.1875L30.4331 34.2828C30.4002 34.3872 30.289 34.4451 30.1845 34.4121L29.312 34.1368C29.2076 34.1038 29.1498 33.9925 29.1827 33.8882Z" fill="#CE8E68"/>
<path d="M30.9173 19.5884L31.2392 23.4069L28.6264 23.526L28.5521 19.7668L30.9173 19.5884Z" fill="#CE8E68"/>
<path d="M31.1144 21.9168L30.6618 21.9551C29.9345 22.0167 29.295 21.477 29.2335 20.7497L29.1478 19.7383L30.9173 19.5884L31.1144 21.9168Z" fill="#AA6747"/>
<path d="M31.1356 22.1779C31.5175 23.0082 32.8322 22.5423 33.6074 23.4242C33.8211 21.7876 32.1637 21.4944 32.4602 19.9583L31.0447 21.0442L31.1356 22.1779Z" fill="#824D35"/>
<path d="M31.3259 21.1002L28.9503 21.2198L28.6716 18.7184C28.6652 18.6194 28.665 18.5223 28.673 18.4273C28.6855 18.2316 28.7268 18.0438 28.7916 17.8655C28.9016 17.5682 29.0762 17.2996 29.3028 17.0825C29.599 16.7976 29.981 16.6006 30.4118 16.5444C31.0228 16.4657 31.5533 16.48 31.9535 16.7101C32.35 16.9353 32.62 17.3716 32.7143 18.1338C32.7256 18.2281 32.7495 18.323 32.7569 18.4221L32.8257 19.3657C32.8903 20.2584 32.2187 21.0356 31.3259 21.1002Z" fill="#CE8E68"/>
<path d="M29.1173 19.4101L28.4004 19.3628C27.5074 16.7946 29.232 16.7334 29.232 16.7334C29.232 16.7334 29.4959 17.1943 29.61 17.7609C29.61 17.7609 29.8955 18.9034 29.1173 19.4101Z" fill="#824D35"/>
<path d="M31.2926 18.7198C31.4655 19.0941 31.3255 19.5395 30.9799 19.7147C30.6343 19.8898 30.214 19.7283 30.041 19.3541C29.8681 18.9798 30.0081 18.5344 30.3537 18.3593C30.6993 18.1842 31.1197 18.3456 31.2926 18.7198Z" fill="black"/>
<path d="M30.9992 18.5184L30.4757 19.6341C30.3329 19.5786 30.2079 19.4654 30.1349 19.3068C30.134 19.3046 30.1331 19.3034 30.1332 19.3013L30.5505 18.409C30.7074 18.3806 30.8697 18.4217 30.9992 18.5184Z" fill="#403634"/>
<path d="M31.2347 18.8586L31.2346 18.8597L30.8677 19.6405C30.7818 19.6721 30.6929 19.6802 30.6057 19.668L31.1003 18.6135C31.139 18.6574 31.1725 18.7094 31.1992 18.7671C31.2136 18.7972 31.2246 18.8279 31.2347 18.8586Z" fill="#403634"/>
<path d="M29.1173 19.4102C30.259 18.5085 29.9669 16.6634 29.9669 16.6634C29.9669 16.6634 30.5344 17.7318 32.535 17.3563C32.3667 15.7083 29.4645 15.7546 28.5964 16.9807L29.1173 19.4102Z" fill="#824D35"/>
<path d="M28.9076 19.4606L28.8501 19.3287L29.7794 18.9233L30.0806 18.8271L30.1242 18.9642L29.8299 19.0579L28.9076 19.4606Z" fill="black"/>
<path d="M28.6342 20.1206L28.2368 19.8857C28.2368 19.8857 28.0742 20.557 26.8219 21.5799C25.5697 22.6015 25.9699 24.3805 25.9699 24.3805C26.5856 23.8272 29.717 24.557 29.8962 23.2894C30.0741 22.0205 28.676 20.9961 28.6342 20.1206ZM29.4181 23.3686C29.2777 23.5784 29.0387 23.7286 28.7858 23.73C29.2862 23.3005 29.4933 22.5708 29.3403 21.9288C29.4625 22.1497 29.5557 22.3916 29.5807 22.6431C29.6058 22.8946 29.5585 23.1574 29.4181 23.3686Z" fill="#824D35"/>
<path d="M29.4605 19.6892C28.8979 18.7967 28.4468 18.7663 28.1007 18.9818C27.6703 19.2497 27.7126 20.1048 28.247 20.4613C28.7142 20.773 29.3494 20.4494 29.4306 19.8938L29.4605 19.6892Z" fill="#CE8E68"/>
<path d="M28.5281 19.6283L28.4196 19.7561L28.8342 20.1084L28.9428 19.9807L28.5281 19.6283Z" fill="#AA6747"/>
<path d="M30.4431 17.9661C29.9997 18.1372 29.8852 17.909 30.2048 17.7267C30.5487 17.5309 30.9947 17.7531 30.4431 17.9661Z" fill="black"/>
<path d="M32.1437 17.7602C31.6687 17.7755 31.6361 17.5222 31.9978 17.4557C32.3871 17.3843 32.7347 17.7413 32.1437 17.7602Z" fill="black"/>
<path d="M31.1957 20.3373C31.146 20.3373 31.0963 20.329 31.0491 20.312C30.8919 20.2549 30.7763 20.1046 30.7615 19.9381L30.9048 19.9253C30.9147 20.0355 30.9942 20.1389 31.0982 20.1767C31.2023 20.2146 31.3295 20.1862 31.4079 20.1078L31.5096 20.2096C31.4269 20.2923 31.3115 20.3373 31.1957 20.3373Z" fill="#824D35"/>
<path d="M33.0572 18.5202C33.1922 18.9097 33.0089 19.3392 32.6477 19.4792C32.2865 19.6194 31.8842 19.4171 31.7491 19.0276C31.6141 18.6381 31.7974 18.2087 32.1586 18.0686C32.5198 17.9285 32.9221 18.1307 33.0572 18.5202Z" fill="black"/>
<path d="M33.1469 18.4572L32.8912 18.4958L32.9127 18.6381L33.1684 18.5995L33.1469 18.4572Z" fill="black"/>
<path d="M32.7852 18.2908L32.1541 19.3493C32.0174 19.28 31.9042 19.155 31.8472 18.9898C31.8466 18.9875 31.8457 18.9864 31.8462 18.9842L32.3496 18.1375C32.5084 18.1248 32.6658 18.1818 32.7852 18.2908Z" fill="#403634"/>
<path d="M32.9858 18.6527L32.9857 18.6537L32.5435 19.3944C32.455 19.4175 32.3655 19.4166 32.28 19.396L32.8764 18.3955C32.9104 18.443 32.9388 18.498 32.9597 18.5581C32.971 18.5894 32.9789 18.6212 32.9858 18.6527Z" fill="#403634"/>
<path d="M31.4379 18.4537L31.5887 18.3804C31.7211 18.6534 31.8792 18.8317 32.0304 18.9838C32.1883 19.1429 32.2253 19.3753 32.1247 19.5763C32.0406 19.7442 31.8819 19.849 31.7026 19.8621C31.6655 19.8648 31.6274 19.8635 31.589 19.858L31.6125 19.6921L31.4379 18.4537Z" fill="#CE8E68"/>
<path d="M31.7024 19.8621C31.6653 19.8648 31.6273 19.8635 31.5889 19.858L31.6123 19.6921C31.7961 19.7172 31.92 19.6103 31.9747 19.5013C32.0287 19.3935 32.0404 19.2318 31.9113 19.102C31.7499 18.9396 31.581 18.7486 31.4379 18.4537L31.5887 18.3804C31.7211 18.6534 31.8792 18.8317 32.0304 18.9838C32.1883 19.1429 32.2253 19.3753 32.1247 19.5763C32.0405 19.7442 31.8818 19.849 31.7024 19.8621Z" fill="#AA6747"/>
<path d="M24.9784 50.8535L24.7428 51.9228L24.5489 52.7944L24.3164 53.7892H29.7103L29.6888 53.2663C29.6799 53.0959 29.6442 52.9374 29.5844 52.7944C29.4568 52.4888 29.2173 52.2538 28.8921 52.1285L28.747 52.0737C28.6184 52.0228 28.4994 51.9582 28.3946 51.8779C28.3845 51.872 28.3745 51.8661 28.3649 51.8583C28.2664 51.7839 28.1809 51.6977 28.106 51.6018C27.9449 51.3942 27.8396 51.1416 27.8049 50.8538H24.9784V50.8535Z" fill="#CE8E68"/>
<path d="M24.7427 51.9229L24.5487 52.7944L24.3163 53.7892H29.8627L29.8411 53.2663C29.8322 53.096 29.7965 52.9374 29.7367 52.7944C29.6091 52.4889 29.2171 52.2539 28.892 52.1286L28.7469 52.0738C28.6182 52.0228 28.4993 51.9582 28.3945 51.8779L27.5771 53.2958H25.7166C25.5904 52.2322 25.1648 51.9816 24.7427 51.9229Z" fill="#602D13"/>
<path d="M46.9041 21.9512L49.9504 23.0461L49.9532 25.26C49.9532 25.26 46.6001 25.3916 45.072 24.8636L46.9041 21.9512Z" fill="#854830"/>
<path d="M42.1633 20.8337L39.8387 20.9385L38.7207 17.7616L41.0453 17.6567L41.1388 17.9222L41.8453 19.9301L42.1633 20.8337Z" fill="#854830"/>
<path d="M41.8454 19.9302L41.2745 19.9564C40.5441 19.9894 39.7885 19.5542 39.5891 18.9855L39.2439 18.0067L41.1389 17.9224L41.8454 19.9302Z" fill="#643D22"/>
<path d="M42.0588 15.2279C42.0588 15.2279 42.1402 14.5249 41.9724 14.2334C41.843 14.0088 41.1427 13.4846 41.1427 13.4846C40.0987 13.8018 38.513 14.6179 38.3941 14.7649C38.2752 14.9118 37.9145 16.0334 37.7334 16.4711C37.4755 17.0947 37.5149 17.3373 38.5613 18.1999C38.4511 18.6757 38.7551 19.0869 39.222 19.1864L38.7206 16.8015L42.0588 15.2279Z" fill="#303030"/>
<path d="M41.7907 19.037L39.4096 19.5234L38.9045 17.052C38.8858 16.9564 38.8733 16.8618 38.8692 16.7682C38.8567 16.576 38.8734 16.3878 38.9139 16.2059C38.9835 15.9024 39.1197 15.6188 39.313 15.3787C39.5655 15.0638 39.9276 14.8696 40.3253 14.7146C40.6851 14.5743 42.4121 14.562 42.7687 15.9722C42.7916 16.0626 42.827 16.152 42.8467 16.2476L43.0326 17.1581C43.2083 18.0195 42.6522 18.8614 41.7907 19.037Z" fill="#854830"/>
<path d="M42.4623 16.6289C42.4935 16.7773 42.4395 16.9142 42.3415 16.935C42.2434 16.9556 42.1387 16.8522 42.1074 16.7037C42.0761 16.5553 42.1301 16.4182 42.2282 16.3976C42.3261 16.377 42.4309 16.4804 42.4623 16.6289Z" fill="#303030"/>
<path d="M39.2386 17.7654C40.1533 17.3806 38.8729 15.523 38.8729 15.523C38.8729 15.523 37.7852 15.4284 38.5341 17.8097L39.2386 17.7654Z" fill="#303030"/>
<path d="M39.609 17.7706C38.9483 16.9723 38.505 16.9997 38.1951 17.2531C37.8097 17.5684 37.9589 18.396 38.5244 18.6758C39.0187 18.9204 39.5967 18.525 39.6057 17.9736L39.609 17.7706Z" fill="#854830"/>
<path d="M41.988 17.7034C41.9521 17.7107 41.9149 17.7143 41.8768 17.7138L41.8788 17.5493C42.0609 17.5506 42.1682 17.4308 42.2076 17.3177C42.2466 17.2059 42.2376 17.047 42.0955 16.9369C41.9178 16.7991 41.729 16.6345 41.5524 16.3652L41.69 16.2747C41.8534 16.5239 42.0299 16.6776 42.1963 16.8066C42.3703 16.9417 42.4357 17.1635 42.363 17.3719C42.3023 17.546 42.161 17.6681 41.988 17.7034Z" fill="#643D22"/>
<path d="M38.693 17.8292L38.6034 17.9673L39.0517 18.2581L39.1413 18.12L38.693 17.8292Z" fill="#643D22"/>
<path d="M42.2278 15.7699C41.7625 15.807 41.7186 15.5599 42.0704 15.4779C42.4489 15.3897 42.8067 15.7238 42.2278 15.7699Z" fill="#303030"/>
<path d="M40.5353 16.0956C40.1251 16.3183 39.9848 16.1103 40.2731 15.8926C40.5832 15.6583 41.0458 15.8186 40.5353 16.0956Z" fill="#303030"/>
<path d="M39.1192 16.7482C39.5193 16.6994 39.7835 16.3251 39.7835 16.3251L39.5374 15.2224L38.6514 15.6525L39.1192 16.7482Z" fill="#303030"/>
<path d="M41.0819 17.0109C41.1132 17.1592 41.0592 17.2963 40.9611 17.3169C40.8631 17.3375 40.7582 17.2341 40.727 17.0858C40.6958 16.9374 40.7498 16.8003 40.8478 16.7797C40.9459 16.7591 41.0507 16.8625 41.0819 17.0109Z" fill="#303030"/>
<path d="M41.2927 17.8746C41.4252 17.834 41.644 17.7889 41.9468 17.7984C42.0305 17.801 42.0855 17.8921 42.0456 17.9657C41.7513 18.5073 41.4081 18.2458 41.242 18.0616C41.1852 17.9986 41.2117 17.8994 41.2927 17.8746Z" fill="#FDFAF7"/>
<path d="M39.3551 15.96L39.7233 17.647L39.2931 17.8015L38.7207 16.5296L39.3551 15.96Z" fill="#303030"/>
<path d="M38.9841 15.6426L40.8307 14.7883C39.7839 14.2461 38.8766 15.0744 38.9841 15.6426Z" fill="#303030"/>
<path d="M40.121 14.8C41.2117 15.5225 41.8951 14.5666 41.8951 14.5666C41.2005 13.864 40.121 14.8 40.121 14.8Z" fill="#303030"/>
<path d="M46.102 25.636C42.9935 24.8636 41.1754 23.0399 41.1754 23.0399L41.6921 21.2105C41.9193 20.406 42.8059 19.9888 43.5707 20.326L47.1018 21.8434L46.102 25.636Z" fill="#FFDECF"/>
<path d="M45.9759 31.3039H38.6044L37.7281 22.7416C37.6267 21.7412 38.3308 20.8387 39.3257 20.6939L42.5163 20.2301C43.4233 20.0979 44.27 20.6358 44.5583 21.47C44.5982 21.5827 44.6278 21.7024 44.6448 21.8255L44.8157 23.0391L45.2339 26.0189L45.9759 31.3039Z" fill="#FFDECF"/>
<path d="M39.9729 31.3038H38.6043L37.728 22.7415C37.7269 22.7324 37.7257 22.7232 37.7257 22.7141H38.2703L39.9729 31.3038Z" fill="#F1CCB4"/>
<path d="M44.1634 25.5466L40.5255 27.1548L40.6419 27.4181L44.2798 25.8099L44.1634 25.5466Z" fill="#F1CCB4"/>
<path d="M41.4561 21.3245C40.0365 21.5638 39.457 20.6727 39.457 20.6727H39.4593L41.0811 20.3284L42.5133 20.2283C42.4535 20.5371 42.2575 21.1893 41.4561 21.3245Z" fill="#854830"/>
<path d="M42.5807 41.2053H39.2385L39.2023 40.5828L39.0239 37.4938L38.7957 33.5334H42.1367L42.3567 37.331L42.56 40.8453L42.5807 41.2053Z" fill="#854830"/>
<path d="M48.8367 41.2053H45.4945L44.9832 39.6369L44.202 37.2397L42.9935 33.5334H46.3357L47.4913 37.0789L48.3252 39.6369L48.8367 41.2053Z" fill="#854830"/>
<path d="M39.2386 41.2052L38.6049 31.3039L42.1633 30.8633L42.5808 41.2052H39.2386Z" fill="#A36955"/>
<path d="M45.4946 41.2052L42.5133 32.5479L45.8499 30.407L48.8368 41.2052H45.4946Z" fill="#A36955"/>
<path d="M48.8365 41.2048H45.4946L46.9536 48.4463H50.2954L48.8365 41.2048Z" fill="#854830"/>
<path d="M42.5808 41.2048H39.2391L38.1918 49.7656L41.2017 49.7993L42.5808 41.2048Z" fill="#854830"/>
<path d="M46.7933 34.6888H39.0573L38.6049 31.3039L45.8499 30.407L46.7933 34.6888Z" fill="#A36955"/>
<path d="M45.9049 30.8023L38.5944 31.7017L38.6119 31.8445L45.9224 30.9451L45.9049 30.8023Z" fill="#824D35"/>
<path d="M39.2549 31.6849L39.1111 31.6921L39.5913 41.2074L39.7351 41.2002L39.2549 31.6849Z" fill="#824D35"/>
<path d="M39.2808 33.3489L39.2476 33.2088C40.5204 32.9066 40.7192 31.5082 40.7211 31.4941L40.8638 31.5128C40.8616 31.5279 40.6515 33.0235 39.2808 33.3489Z" fill="#824D35"/>
<path d="M46.1289 32.4109C45.8057 32.4109 45.1277 32.2527 44.6606 31.044L44.7949 30.9922C45.3653 32.4683 46.2384 32.2617 46.2755 32.2523L46.3124 32.3915C46.3021 32.394 46.2344 32.4109 46.1289 32.4109Z" fill="#824D35"/>
<path d="M34.1375 28.387L36.8555 28.0465C37.3863 26.8303 38.7207 24.0328 38.7207 24.0328L38.9235 20.8022C37.4041 20.9596 36.6397 21.2014 36.0336 22.7609C35.3547 24.5076 34.5855 26.9597 34.1375 28.387Z" fill="#854830"/>
<path d="M37.3727 26.9023L37.6741 26.2524L35.3406 26.3213L37.3727 26.9023Z" fill="#643D22"/>
<path d="M36.2624 26.6589C39.1312 27.4159 41.8503 28.405 41.8503 28.405L43.0345 29.8729L41.0821 29.4676C35.102 30.6637 34.1378 28.3892 34.1378 28.3892L36.2624 26.6589Z" fill="#854830"/>
<path d="M43.7609 29.9543L44.0124 31.1514C44.0318 31.2442 43.9787 31.337 43.8887 31.3672C43.7924 31.3995 43.6879 31.3489 43.6535 31.2533L43.2495 30.1332L43.7609 29.9543Z" fill="#854830"/>
<path d="M42.9391 29.3452L43.7609 29.9544L43.8308 31.4047C43.8355 31.5041 43.7577 31.5878 43.6584 31.5903C43.585 31.5921 43.5182 31.5486 43.4902 31.4808L43.1407 30.6337L41.7047 29.9327L42.9391 29.3452Z" fill="#854830"/>
<path d="M42.675 29.6111L43.9493 29.6658L44.2812 30.3137C44.3054 30.361 44.3591 30.3853 44.4106 30.3722C44.4714 30.3569 44.5083 30.2952 44.4932 30.2344L44.2644 29.3125L43.495 28.8826L42.675 29.6111Z" fill="#854830"/>
<path d="M43.4957 28.883L41.8588 30.7024C41.8588 30.7024 41.8267 30.6858 41.7707 30.6537C41.5383 30.5188 40.8921 30.1039 40.4118 29.3995C40.2998 29.2367 40.1972 29.0583 40.11 28.8654L40.3362 27.9453L40.9637 28.131L41.0509 28.158L43.4957 28.883Z" fill="#854830"/>
<path d="M42.0899 29.9314L42.8239 30.8937L42.8642 31.5688C42.8687 31.6438 42.8006 31.7025 42.7271 31.6872L42.7198 31.6856C42.6806 31.6774 42.6486 31.6494 42.6356 31.6117L42.4441 31.0624L41.8594 30.7022L42.0899 29.9314Z" fill="#854830"/>
<path d="M47.2058 50.9002H50.7474L50.0154 46.2913L46.603 46.7056L47.2058 50.9002Z" fill="#F0E9EA"/>
<path d="M46.9293 53.789H54.9644L54.7543 53.0719C54.6851 52.8379 54.5819 52.6207 54.4502 52.4243C54.1708 52.0065 53.7617 51.6849 53.2755 51.5135L53.0579 51.4369C52.8444 51.3617 52.6442 51.2628 52.4585 51.143C52.2988 51.04 52.1507 50.923 52.0169 50.7906C51.7249 50.5065 51.4951 50.1583 51.3472 49.7656H46.8324L46.9074 52.4242L46.9293 53.789Z" fill="black"/>
<path d="M51.6028 50.1167H50.0154V50.321H51.6028V50.1167Z" fill="#FDFAF7"/>
<path d="M52.012 50.6697H50.4248V50.874H52.012V50.6697Z" fill="#FDFAF7"/>
<path d="M48.417 52.0658C48.3617 52.0087 48.3328 51.9331 48.3352 51.8529C48.3403 51.6903 48.4768 51.5581 48.6394 51.5581C48.7195 51.5581 48.7941 51.5895 48.8494 51.6464C48.9047 51.7035 48.9336 51.779 48.9312 51.8593C48.9261 52.0218 48.7896 52.1541 48.6271 52.1541C48.5468 52.1541 48.4722 52.1227 48.417 52.0658ZM48.5395 51.8593C48.5387 51.8839 48.5473 51.9065 48.5638 51.9235C48.6161 51.9776 48.7249 51.9306 48.727 51.8529C48.7278 51.8283 48.7192 51.8057 48.7027 51.7886C48.6863 51.7716 48.6638 51.7623 48.6395 51.7623C48.586 51.7623 48.541 51.8058 48.5395 51.8593Z" fill="#FDFAF7"/>
<path d="M49.3755 52.0658C49.3202 52.0087 49.2913 51.9331 49.2937 51.8529C49.2988 51.6903 49.4354 51.5581 49.598 51.5581C49.6781 51.5581 49.7527 51.5895 49.808 51.6464C49.8633 51.7035 49.8923 51.779 49.8898 51.8593C49.8847 52.0218 49.7484 52.1541 49.5858 52.1541C49.5053 52.1541 49.4307 52.1227 49.3755 52.0658ZM49.4979 51.8593C49.4971 51.8839 49.5057 51.9065 49.5221 51.9235C49.5746 51.9774 49.6831 51.9311 49.6854 51.8529C49.6862 51.8283 49.6776 51.8057 49.6611 51.7886C49.6447 51.7716 49.6222 51.7623 49.5978 51.7623C49.5454 51.7623 49.4995 51.8068 49.4979 51.8593Z" fill="#FDFAF7"/>
<path d="M46.9292 53.7891H54.9643L54.7543 53.0719C54.685 52.8379 54.5818 52.6207 54.4501 52.4243H46.9073L46.9292 53.7891Z" fill="#F0E9EA"/>
<path d="M51.9388 53.0046H46.8859V53.2089H51.9388V53.0046Z" fill="#F1CCB4"/>
<path d="M50.4548 53.7888H54.9643L54.7542 53.0717C54.685 52.8377 54.5818 52.6205 54.4501 52.4241C54.1707 52.0063 53.7616 51.6846 53.2754 51.5133L53.0578 51.4367C52.8443 51.3614 52.6441 51.2626 52.4584 51.1428C51.4127 51.626 50.6338 52.6134 50.4548 53.7888Z" fill="#F0E9EA"/>
<path d="M51.3472 49.7655L51.4503 49.3658C51.5228 49.0843 51.3173 48.8164 51.0286 48.8164H50.6262C50.3084 48.8164 50.0072 48.9778 49.8267 49.2451L49.4751 49.7655H51.3472Z" fill="black"/>
<path d="M37.8475 50.9001L41.3856 51.0592L41.9456 46.65L38.4645 46.4617L37.8475 50.9001Z" fill="#FDFAF7"/>
<path d="M37.158 53.789H45.193L45.1225 53.0719C45.0988 52.8379 45.0378 52.6207 44.9443 52.4243C44.7462 52.0065 44.3997 51.6849 43.9468 51.5135L43.7441 51.4369C43.5452 51.3617 43.3642 51.2628 43.2019 51.143C43.0622 51.04 42.9368 50.923 42.8289 50.7906C42.5922 50.5065 42.4299 50.1583 42.3585 49.7656H37.8438L37.4017 52.4243L37.158 53.789Z" fill="black"/>
<path d="M42.5258 50.1167H40.9385V50.321H42.5258V50.1167Z" fill="#FDFAF7"/>
<path d="M42.8277 50.6697H41.2404V50.874H42.8277V50.6697Z" fill="#FDFAF7"/>
<path d="M38.9896 52.0601C38.9409 51.9993 38.9235 51.9168 38.9421 51.8337L38.9423 51.8336C38.9773 51.6789 39.1267 51.5581 39.282 51.5581C39.3638 51.5581 39.4382 51.5924 39.4861 51.6521C39.5347 51.7131 39.5521 51.7957 39.5333 51.8786C39.4984 52.033 39.3493 52.1541 39.1936 52.1541C39.1117 52.1541 39.0374 52.1198 38.9896 52.0601ZM39.1414 51.8786C39.1364 51.901 39.1392 51.9201 39.1492 51.9325C39.1606 51.9468 39.1796 51.9499 39.1937 51.9499C39.2545 51.9499 39.3202 51.8956 39.3344 51.8338C39.3394 51.8113 39.3366 51.7921 39.3266 51.7798C39.3152 51.7655 39.2961 51.7624 39.282 51.7624C39.2212 51.7623 39.1556 51.8168 39.1414 51.8786Z" fill="#FDFAF7"/>
<path d="M39.9483 52.0601C39.8997 51.9993 39.8823 51.9168 39.9008 51.8337L39.9009 51.8336C39.9359 51.6789 40.0853 51.5581 40.2407 51.5581C40.3227 51.5581 40.3968 51.5924 40.4447 51.6523C40.4933 51.7134 40.5107 51.7959 40.4919 51.8785C40.457 52.0331 40.3079 52.1542 40.1521 52.1542C40.0704 52.1541 39.9962 52.12 39.9483 52.0601ZM40.1001 51.8786C40.0951 51.901 40.0979 51.9201 40.1079 51.9326C40.1193 51.9468 40.1383 51.9498 40.1522 51.9498C40.2133 51.9498 40.2789 51.8955 40.2929 51.8336C40.2979 51.8112 40.2953 51.7921 40.2853 51.7797C40.2738 51.7653 40.2549 51.7623 40.2409 51.7623C40.1799 51.7623 40.1142 51.8168 40.1001 51.8786Z" fill="#FDFAF7"/>
<path d="M37.158 53.7891H45.193L45.1225 53.0719C45.0988 52.8379 45.0378 52.6207 44.9443 52.4243H37.4015L37.158 53.7891Z" fill="#FDFAF7"/>
<path d="M42.359 53.0046H37.3062V53.2089H42.359V53.0046Z" fill="#F1CCB4"/>
<path d="M40.6835 53.7888H45.193L45.1225 53.0717C45.0988 52.8377 45.0378 52.6205 44.9443 52.4241C44.7462 52.0063 44.3997 51.6846 43.9468 51.5133L43.7441 51.4367C43.5452 51.3614 43.3642 51.2626 43.2019 51.1428C42.062 51.626 41.091 52.6134 40.6835 53.7888Z" fill="#FDFAF7"/>
<path d="M42.3583 49.7655L42.5391 49.3658C42.6664 49.0843 42.513 48.8164 42.2243 48.8164H41.8218C41.5039 48.8164 41.1714 48.9778 40.9389 49.2451L40.4862 49.7655H42.3583Z" fill="black"/>
<path d="M39.4594 20.6726C37.703 20.7078 36.7152 20.7581 36.0121 22.5158C35.309 24.2735 34.8738 25.5626 34.8738 25.5626L37.523 26.5775L38.9196 24.0728L39.4594 20.6726Z" fill="#FFDECF"/>
<path d="M39.2385 41.2053L38.1989 46.8508H37.6823L37.5129 48.1326H42.2931L42.5807 41.2053H39.2385Z" fill="#A36955"/>
<path d="M45.4945 41.2053L46.1967 46.8508H45.6801L45.9151 48.1326H50.6237L48.8367 41.2053H45.4945Z" fill="#A36955"/>
<path d="M39.5911 41.1935L38.7229 46.9001L38.8651 46.9218L39.7333 41.2152L39.5911 41.1935Z" fill="#824D35"/>
<path d="M46.8362 46.923L45.9049 41.025L43.7794 34.7607H43.2495V34.6167H43.8826L46.044 40.9907L46.9784 46.9005L46.8362 46.923Z" fill="#824D35"/>
<path d="M50.2955 46.7786H46.1968V46.9226H50.2955V46.7786Z" fill="#824D35"/>
<path d="M42.3463 46.7786H38.1989V46.9226H42.3463V46.7786Z" fill="#824D35"/>
<path d="M43.5864 33.6549L43.4653 33.5986C43.4419 33.5877 42.8907 33.3245 42.6989 32.6651L42.837 32.6249C42.9568 33.0367 43.2385 33.2811 43.4022 33.3936L43.0814 31.223L43.2238 31.2019L43.5864 33.6549Z" fill="#824D35"/>
<path d="M36.8056 24.7017L35.5965 25.0206C35.5027 25.0453 35.4422 25.1365 35.4561 25.2325C35.4708 25.3353 35.5649 25.4076 35.6679 25.3952L36.8766 25.2508L36.8056 24.7017Z" fill="#CE8E68"/>
<path d="M37.7389 25.1732L36.8057 24.7017L35.4484 25.3026C35.3554 25.3437 35.3146 25.4533 35.3579 25.5452C35.3897 25.613 35.4603 25.6542 35.535 25.6486L36.4693 25.5796L37.768 26.5705L37.7389 25.1732Z" fill="#CE8E68"/>
<path d="M37.4245 25.9472L36.7904 24.808L36.0462 24.8017C35.9919 24.8012 35.9451 24.7633 35.9334 24.7103C35.9196 24.6477 35.959 24.5857 36.0216 24.5715L36.9688 24.3579L37.7144 24.8638L37.4245 25.9472Z" fill="#CE8E68"/>
<path d="M38.2054 27.2086C37.1951 27.2126 37.1422 26.6598 37.1422 26.6598L37.7144 24.8635C38.1197 25.1957 38.3288 25.7109 38.2695 26.2315L38.2054 27.2086Z" fill="#CE8E68"/>
<path d="M37.5152 25.9981L36.2996 25.7686L35.6643 26.0412C35.5938 26.0715 35.5713 26.1606 35.619 26.2207L35.6238 26.2267C35.6492 26.2587 35.6896 26.2751 35.73 26.2698L36.3197 26.193L37.1424 26.6599L37.5152 25.9981Z" fill="#CE8E68"/>
<path d="M50.56 25.2606C50.56 25.2606 48.6825 25.4337 46.9039 25.1915L47.6294 22.2119L50.0302 22.9619L50.56 25.2606Z" fill="#3E4147"/>
<path d="M51.7735 13.5123C51.7735 13.5512 51.7609 13.5887 51.7374 13.6221L51.465 13.9974L50.9452 13.907L51.451 13.3831C51.5177 13.315 51.6247 13.3067 51.6999 13.3637C51.7485 13.401 51.7735 13.4567 51.7735 13.5123Z" fill="#3E4147"/>
<path d="M51.519 14.4394L51.74 15.9767L50.5601 15.2858L50.6018 14.2629L50.6934 14.1934L51.519 14.4394Z" fill="#3E4147"/>
<path d="M52.0472 13.5331C52.0472 13.5678 52.0374 13.6012 52.018 13.6304L51.7567 14.0195C51.7567 14.0167 51.4621 13.8834 51.2397 13.7833L51.7638 13.3913C51.843 13.3315 51.9555 13.3482 52.0139 13.4288C52.036 13.4594 52.0472 13.497 52.0472 13.5331Z" fill="#3E4147"/>
<path d="M50.3716 14.0538L49.9609 13.9113L50.3198 13.5077C50.3467 13.4775 50.3836 13.4624 50.4221 13.4624C50.4557 13.4624 50.4875 13.4742 50.5143 13.4976C50.5613 13.5395 50.5746 13.6099 50.5428 13.6653L50.3716 14.0538Z" fill="#3E4147"/>
<path d="M50.9284 15.3538L49.8652 15.0856L49.8054 14.3921L50.3113 14.356L50.9284 15.3538Z" fill="#3E4147"/>
<path d="M49.8652 15.0847L52.2899 15.417C52.324 16.1856 52.7921 17.156 51.9888 18.2319L50.8641 18.2256L50.6652 17.6021L50.6386 17.5148L49.8652 15.0847Z" fill="#3E4147"/>
<path d="M52.2668 14.9286L52.289 15.4164L51.5219 15.6582L51.8165 14.7756L52.2668 14.9286Z" fill="#3E4147"/>
<path d="M52.6058 14.2642L52.3709 14.5797L52.0262 14.4184L52.4419 14.0988C52.5016 14.053 52.5878 14.0765 52.617 14.1461L52.6198 14.153C52.635 14.1892 52.6295 14.2323 52.6058 14.2642Z" fill="#3E4147"/>
<path d="M49.6664 15.4749C49.5843 15.5638 49.4621 15.7042 49.3745 15.8029L49.1826 15.3554C49.1437 15.2651 49.2007 15.1637 49.298 15.1498L49.3077 15.1483C49.3592 15.1414 49.4105 15.1609 49.4439 15.2012L49.6664 15.4749Z" fill="#3E4147"/>
<path d="M50.8645 18.2252L49.5525 16.1975L49.9207 15.7903L50.7964 15.9737L50.8645 18.2252Z" fill="#3E4147"/>
<path d="M50.56 25.2605C51.5799 22.81 52.0804 17.6711 52.0804 17.6711L51.4515 17.7653L49.5524 23.2846L50.56 25.2605Z" fill="#3E4147"/>
<path d="M49.6796 16.3064L49.491 16.0008L49.3344 15.6425L49.4663 15.5852L49.6183 15.9344L49.8019 16.2307L49.6796 16.3064Z" fill="#3E4147"/>
<path d="M49.56 15.43L49.4442 15.5156L49.8402 16.0513L49.956 15.9657L49.56 15.43Z" fill="#3E4147"/>
<path d="M49.9904 14.5223L49.8467 14.5166L49.8628 14.1143L50.1499 13.7161L50.2668 13.8003L50.0049 14.1633L49.9904 14.5223Z" fill="#3E4147"/>
<path d="M50.1713 14.566L50.1083 14.1594L50.269 13.8447L50.3973 13.9103L50.2578 14.1834L50.3135 14.5441L50.1713 14.566Z" fill="#3E4147"/>
<path d="M51.1541 13.7689L50.6755 14.2705L50.7797 14.3699L51.2583 13.8683L51.1541 13.7689Z" fill="#3E4147"/>
<path d="M51.2213 14.5635L51.0784 14.5468C51.1259 14.1361 51.1342 14.1267 51.1525 14.1064C51.1687 14.0878 51.3953 13.8071 51.3953 13.8071L51.5073 13.8976C51.4456 13.9739 51.312 14.1393 51.2708 14.1891C51.2614 14.2372 51.2391 14.4098 51.2213 14.5635Z" fill="#3E4147"/>
<path d="M51.4859 14.6084L51.3425 14.5953L51.382 14.1626L51.6868 13.8289L51.7931 13.926L51.5208 14.2239L51.4859 14.6084Z" fill="#3E4147"/>
<path d="M51.9411 14.9568L51.8033 14.9146L51.9123 14.5606L52.1607 14.3503L52.2536 14.46L52.0375 14.6433L51.9411 14.9568Z" fill="#3E4147"/>
<path d="M52.1948 15.0209L52.0522 15.0017L52.0963 14.6762L52.2894 14.4004L52.4074 14.483L52.2341 14.7302L52.1948 15.0209Z" fill="#3E4147"/>
<path d="M51.0632 17.3533C50.6421 18.703 48.6447 22.618 48.6447 22.618L49.2338 22.9223L51.3488 17.5558L51.0632 17.3533Z" fill="#3E4147"/>
<path d="M86.2514 18.3879C86.2514 18.3879 85.9728 22.1733 85.6606 22.423C85.3485 22.6727 83.0501 24.1264 83.0785 27.4999H89.2735V18.7003L86.2514 18.3879Z" fill="black"/>
<path d="M93.4235 28.0313H92.9181C92.9626 26.9867 92.8169 25.934 92.4867 24.942C92.5887 25.7406 92.7076 26.9214 92.6992 28.0313H87.9594V18.8161L89.7588 17.4587C91.0338 19.1341 90.7427 21.8554 90.9921 22.1869C91.2414 22.52 93.5678 23.5308 93.4235 28.0313Z" fill="black"/>
<path d="M72.5588 35.748H59.4719V42.5493H72.5588V35.748Z" fill="#DBA785"/>
<path d="M59.3239 36.4073C59.3239 35.5066 60.0567 34.7738 60.9574 34.7738H72.4106V29.795C72.4106 28.7047 73.2977 27.8176 74.3881 27.8176H76.3248V28.1139H74.3881C73.4611 28.1139 72.7069 28.868 72.7069 29.795V34.7738H72.7375V35.0701H72.7069V42.6975H59.3239V36.4073ZM72.4106 35.0702H60.9574C60.2201 35.0702 59.6202 35.67 59.6202 36.4075V42.4013H72.4106V35.0702Z" fill="#DBA785"/>
<path d="M59.6202 42.5493H59.3239V49.3985H59.6202V42.5493Z" fill="#DBA785"/>
<path d="M59.4992 53.8313C60.9561 53.8313 62.1371 52.6658 62.1371 51.2281C62.1371 49.7905 60.9561 48.625 59.4992 48.625C58.0423 48.625 56.8612 49.7905 56.8612 51.2281C56.8612 52.6658 58.0423 53.8313 59.4992 53.8313Z" fill="#DBA785"/>
<path d="M59.4992 49.7716C60.3149 49.7716 60.9786 50.425 60.9786 51.2282C60.9786 52.0314 60.3149 52.6849 59.4992 52.6849C58.6835 52.6849 58.0198 52.0314 58.0198 51.2282C58.0198 50.425 58.6835 49.7716 59.4992 49.7716ZM59.4992 49.5188C58.5425 49.5188 57.767 50.2841 57.767 51.2282C57.767 52.1722 58.5425 52.9377 59.4992 52.9377C60.4559 52.9377 61.2314 52.1724 61.2314 51.2282C61.2314 50.2842 60.456 49.5188 59.4992 49.5188Z" fill="#DBA785"/>
<path d="M75.027 44.1551L70.5828 47.7463L70.7416 47.943L75.1859 44.3518L75.027 44.1551Z" fill="#DBA785"/>
<path d="M76.2584 47.7202H70.6627V47.973H76.2584V47.7202Z" fill="#DBA785"/>
<path d="M70.7432 47.7427L70.5842 47.9392L75.0268 51.5327L75.1858 51.3361L70.7432 47.7427Z" fill="#DBA785"/>
<path d="M70.7893 47.8464H70.5365V52.925H70.7893V47.8464Z" fill="#DBA785"/>
<path d="M70.5829 47.7473L66.1387 51.3384L66.2976 51.535L70.7417 47.9439L70.5829 47.7473Z" fill="#DBA785"/>
<path d="M70.6628 47.7202H65.0673V47.973H70.6628V47.7202Z" fill="#DBA785"/>
<path d="M66.2998 44.1597L66.1407 44.3562L70.5827 47.9502L70.7417 47.7537L66.2998 44.1597Z" fill="#DBA785"/>
<path d="M70.7893 42.7681H70.5365V47.8466H70.7893V42.7681Z" fill="#DBA785"/>
<path d="M71.9945 47.7994C71.9945 48.5254 71.3982 49.114 70.6628 49.114C69.9273 49.114 69.3312 48.5254 69.3312 47.7994C69.3312 47.0734 69.9274 46.4849 70.6628 46.4849C71.3982 46.4849 71.9945 47.0734 71.9945 47.7994Z" fill="#DBA785"/>
<path d="M70.6629 42.9445C73.4054 42.9445 75.6366 45.1435 75.6366 47.8465C75.6366 50.5495 73.4054 52.7486 70.6629 52.7486C67.9204 52.7486 65.6892 50.5496 65.6892 47.8465C65.6892 45.1434 67.9204 42.9445 70.6629 42.9445ZM70.6629 42.1665C67.4852 42.1665 64.9092 44.7095 64.9092 47.8465C64.9092 50.9835 67.4852 53.5265 70.6629 53.5265C73.8406 53.5265 76.4166 50.9835 76.4166 47.8465C76.4166 44.7096 73.8406 42.1665 70.6629 42.1665Z" fill="#DBA785"/>
<path d="M70.6629 42.2847C73.7713 42.2847 76.3002 44.7797 76.3002 47.8466C76.3002 50.9135 73.7713 53.4084 70.6629 53.4084C67.5546 53.4084 65.0257 50.9135 65.0257 47.8466C65.0257 44.7797 67.5545 42.2847 70.6629 42.2847ZM70.6629 41.8618C67.3147 41.8618 64.6003 44.5412 64.6003 47.8466C64.6003 51.1519 67.3146 53.8314 70.6629 53.8314C74.0113 53.8314 76.7255 51.1519 76.7255 47.8466C76.7254 44.5412 74.0112 41.8618 70.6629 41.8618Z" fill="#DBA785"/>
<path d="M75.8841 26.6904L75.6636 27.9494L76.2597 28.7923C76.3095 28.8627 76.3994 28.8923 76.4812 28.8651C76.5839 28.8311 76.6394 28.7203 76.6054 28.6176L76.3869 27.9593L77.0877 27.0854L75.8841 26.6904Z" fill="#E09A78"/>
<path d="M76.5937 26.8787L76.1396 27.9217L76.6378 28.8261C76.6794 28.9016 76.7656 28.941 76.8499 28.9232C76.9558 28.9008 77.0234 28.7969 77.001 28.691L76.8573 28.0124L77.6515 27.2223L76.5937 26.8787Z" fill="#E09A78"/>
<path d="M77.7555 27.9131L77.7314 27.8888C77.6582 27.8145 77.5386 27.8136 77.4644 27.887L77.1745 28.1729C77.1002 28.2461 77.0995 28.3657 77.1727 28.4399L77.1968 28.4643C77.27 28.5385 77.3895 28.5393 77.4638 28.466L77.7537 28.1801C77.8279 28.1069 77.8288 27.9873 77.7555 27.9131Z" fill="#E09A78"/>
<path d="M76.0542 27.2591L75.9356 26.5989L75.0151 27.2377C74.9189 27.3024 74.8931 27.4328 74.9578 27.5291C75.0224 27.6253 75.1528 27.651 75.2491 27.5864L76.0542 27.2591Z" fill="#E09A78"/>
<path d="M75.4559 28.2603L75.4881 28.2471C75.5866 28.207 75.6339 28.0946 75.5939 27.9962L75.3181 27.3187C75.2781 27.2203 75.1657 27.1729 75.0673 27.213L75.035 27.2262C74.9366 27.2662 74.8892 27.3786 74.9293 27.477L75.205 28.1545C75.2451 28.253 75.3574 28.3003 75.4559 28.2603Z" fill="#E09A78"/>
<path d="M77.4844 28.8766L77.5155 28.8607C77.6102 28.8123 77.6478 28.6965 77.5995 28.6018L77.2702 27.9564C77.2219 27.8617 77.106 27.824 77.0113 27.8724L76.9802 27.8883C76.8855 27.9367 76.8478 28.0525 76.8962 28.1472L77.2256 28.7926C77.2737 28.8873 77.3897 28.9248 77.4844 28.8766Z" fill="#E09A78"/>
<path d="M75.041 28.0928L75.0535 27.8703C75.0634 27.6922 75.216 27.5557 75.3942 27.5657L78.1874 27.7221C78.3656 27.7321 78.502 27.8847 78.492 28.0629L78.4796 28.2853C78.4696 28.4635 78.3171 28.5999 78.1389 28.59L75.3457 28.4334C75.1674 28.4236 75.0311 28.271 75.041 28.0928Z" fill="black"/>
<path d="M78.5736 27.2288L75.9359 26.5989L76.1602 28.1723L77.5899 28.2567C78.1646 28.2907 78.6329 27.8014 78.5736 27.2288Z" fill="#E09A78"/>
<path d="M78.5736 27.2288L85.8521 28.5678C85.0246 31.0745 80.9535 31.1234 78.0012 27.9351L78.5736 27.2288Z" fill="#E09A78"/>
<path d="M76.6794 28.2135L76.1017 27.6106L75.4978 28.3603C75.4044 28.4763 75.4115 28.6437 75.5146 28.7512C75.6176 28.8587 75.7845 28.8731 75.9045 28.7847L76.6794 28.2135Z" fill="#E09A78"/>
<path d="M84.2927 40.4711C84.4735 37.4179 85.9312 30.7217 85.9312 30.7217L89.7586 32.9704L87.6023 40.4709H84.2927V40.4711Z" fill="#E09A78"/>
<path d="M87.4676 50.5898L84.4927 51.1282L84.2927 40.4712H87.6024L87.4676 50.5898Z" fill="#E09A78"/>
<path d="M87.7269 50.5789L84.3941 51.1368L84.3567 46.6841L87.6334 46.5364L87.7269 50.5789Z" fill="#F0E9EA"/>
<path d="M87.8679 53.4672H80.201L80.4015 52.7829C80.4675 52.5596 80.566 52.3523 80.6917 52.1649C80.9583 51.7662 81.3486 51.4592 81.8126 51.2958L82.0202 51.2227C82.2238 51.1509 82.4149 51.0565 82.5921 50.9422C82.7445 50.8439 82.8858 50.7323 83.0135 50.606C83.292 50.3349 83.5115 50.0027 83.6524 49.6279H87.9604L87.8889 52.1648L87.8679 53.4672Z" fill="black"/>
<path d="M84.9231 49.9634H83.4084V50.1583H84.9231V49.9634Z" fill="#FDFAF7"/>
<path d="M84.5324 50.4907H83.0179V50.6857H84.5324V50.4907Z" fill="#FDFAF7"/>
<path d="M86.2478 51.9072C86.0927 51.9072 85.9625 51.781 85.9575 51.6259C85.9552 51.5493 85.9829 51.4773 86.0356 51.4227C86.0884 51.3683 86.1595 51.3384 86.2361 51.3384C86.3912 51.3384 86.5214 51.4646 86.5264 51.6197C86.5287 51.6963 86.501 51.7683 86.4483 51.8229C86.3956 51.8774 86.3244 51.9072 86.2478 51.9072ZM86.2361 51.5334C86.2129 51.5334 86.1914 51.5424 86.1758 51.5585C86.16 51.5747 86.1518 51.5964 86.1526 51.6199C86.1546 51.6938 86.2585 51.7388 86.3082 51.6872C86.324 51.671 86.3322 51.6493 86.3314 51.6259C86.3299 51.5749 86.287 51.5334 86.2361 51.5334Z" fill="#FDFAF7"/>
<path d="M85.3331 51.9072C85.178 51.9072 85.0481 51.781 85.0431 51.6259C85.0408 51.5493 85.0684 51.4773 85.1212 51.4227C85.1739 51.3683 85.2451 51.3384 85.3216 51.3384C85.4768 51.3384 85.6069 51.4646 85.6119 51.6197C85.6142 51.6963 85.5866 51.7683 85.5339 51.8229C85.481 51.8774 85.4098 51.9072 85.3331 51.9072ZM85.3215 51.5334C85.2983 51.5334 85.2768 51.5424 85.2612 51.5585C85.2455 51.5747 85.2373 51.5964 85.238 51.6199C85.2404 51.6945 85.3439 51.7386 85.394 51.6872C85.4096 51.671 85.4178 51.6493 85.417 51.6259C85.4153 51.5758 85.3715 51.5334 85.3215 51.5334Z" fill="#FDFAF7"/>
<path d="M87.8679 53.4673H80.201L80.4015 52.783C80.4675 52.5598 80.566 52.3524 80.6917 52.165H87.8889L87.8679 53.4673Z" fill="#F0E9EA"/>
<path d="M87.9094 52.7188H83.0879V52.9137H87.9094V52.7188Z" fill="#94C19B"/>
<path d="M84.5039 53.4673H80.201L80.4015 52.783C80.4675 52.5598 80.566 52.3524 80.6917 52.165C80.9583 51.7663 81.3486 51.4594 81.8126 51.2959L82.0202 51.2228C82.2238 51.151 82.4149 51.0567 82.5921 50.9424C83.5898 51.4037 84.3331 52.3458 84.5039 53.4673Z" fill="#F0E9EA"/>
<path d="M83.6525 49.6283L83.5542 49.2468C83.4849 48.9783 83.6811 48.7227 83.9565 48.7227H84.3405C84.6437 48.7227 84.931 48.8766 85.1032 49.1316L85.4387 49.6281H83.6525V49.6283Z" fill="black"/>
<path d="M85.9313 30.7219C85.1469 32.9862 84.9214 35.8689 84.9214 35.8689L89.0347 36.2973L90.0971 30.7219H85.9313Z" fill="#824D35"/>
<path d="M84.9893 35.1886L84.9767 35.3276L88.7102 35.6665L88.7228 35.5275L84.9893 35.1886Z" fill="#643D22"/>
<path d="M66.2916 35.1103C70.8219 34.0701 73.229 30.8312 73.229 30.8312L72.0679 29.4975C71.5573 28.911 70.92 28.8739 70.5273 29.0746L64.9213 33.4857L66.2916 35.1103Z" fill="#5E6F64"/>
<path d="M66.2939 35.1107C65.2364 34.9129 64.45 34.058 63.8808 32.9416C63.4436 32.0857 63.1358 31.0755 62.9312 30.0884C62.8685 29.7863 62.8154 29.4862 62.7711 29.1929H64.2477C64.5151 30.9614 68.0818 32.1905 66.2939 35.1107Z" fill="#E6A978"/>
<path d="M64.4774 26.1467L63.6538 25.2928C63.59 25.2265 63.4865 25.2187 63.4135 25.2745C63.3351 25.3342 63.3187 25.4455 63.3767 25.5252L64.0555 26.4595L64.4774 26.1467Z" fill="#E6A978"/>
<path d="M64.5186 27.1377L64.4774 26.1466L63.3517 25.3006C63.2747 25.2427 63.1651 25.2595 63.1089 25.3378C63.0674 25.3957 63.066 25.473 63.1052 25.5324L63.5945 26.2741L63.3746 27.8081L64.5186 27.1377Z" fill="#E6A978"/>
<path d="M64.1611 27.2047L64.8114 26.1525L64.4723 25.5332C64.4476 25.488 64.4573 25.4317 64.4959 25.3976C64.5413 25.3571 64.6109 25.3611 64.6515 25.4064L65.2667 26.0921L65.1926 26.9435L64.1611 27.2047Z" fill="#E6A978"/>
<path d="M65.1925 26.9429L62.8411 27.2652C62.8081 28.0106 62.3542 28.9517 63.1332 29.9949L64.2239 29.9888L64.4168 29.3841L64.4427 29.2995L65.1925 26.9429Z" fill="#E6A978"/>
<path d="M63.5855 27.4999L63.2133 26.3868L62.6936 25.9868C62.6359 25.9424 62.5517 25.965 62.524 26.0324L62.5214 26.0391C62.5066 26.0749 62.5118 26.1159 62.5348 26.147L62.8712 26.5998L62.8416 27.2652L63.5855 27.4999Z" fill="#E6A978"/>
<path d="M64.2238 29.9888L65.5177 27.9899L65.8545 27.2049C65.8919 27.1177 65.8362 27.0188 65.7422 27.0056L65.7329 27.0043C65.6828 26.9973 65.6328 27.017 65.601 27.0563L65.1384 27.6272L64.2894 27.805L64.2238 29.9888Z" fill="#E6A978"/>
<path d="M71.6818 28.6939C71.8652 27.8857 72.3941 27.6163 73.4508 27.763L73.2164 28.901L71.6818 28.6939Z" fill="#FFDECF"/>
<path d="M72.3092 29.1826L74.5688 29.3739L75.0442 25.875L72.8919 26.1044L72.8431 26.3617L72.4748 28.307L72.3092 29.1826Z" fill="#E6A978"/>
<path d="M72.4749 28.307L73.0035 28.251C73.6798 28.1791 74.3136 27.6728 74.4173 27.1221L74.5976 26.1736L72.8431 26.3616L72.4749 28.307Z" fill="#D6895E"/>
<path d="M72.4451 27.1275L74.6576 27.5917L75.1396 25.2953C75.1576 25.2065 75.1696 25.1185 75.1739 25.0315C75.1865 24.8527 75.1719 24.6777 75.1352 24.5082C75.0719 24.2256 74.9466 23.961 74.7681 23.7368C74.5347 23.4426 74.1988 23.2601 73.8297 23.114C73.4957 22.9818 71.8893 22.9617 71.5506 24.2718C71.5289 24.3558 71.4956 24.4387 71.4768 24.5275L71.2993 25.3735C71.1314 26.174 71.6445 26.9599 72.4451 27.1275Z" fill="#E6A978"/>
<path d="M71.8741 24.8263C71.8443 24.9642 71.894 25.092 71.985 25.1117C72.0761 25.1314 72.174 25.0356 72.2039 24.8978C72.2337 24.7599 72.184 24.6322 72.093 24.6125C72.002 24.5926 71.904 24.6885 71.8741 24.8263Z" fill="#303030"/>
<path d="M74.8254 25.9573C73.9763 25.5949 75.1766 23.8732 75.1766 23.8732C75.1766 23.8732 76.1888 23.7906 75.4805 26.0021L74.8254 25.9573Z" fill="#643D22"/>
<path d="M74.4807 25.9602C75.0993 25.2209 75.5115 25.2484 75.7985 25.4859C76.1555 25.781 76.0126 26.5502 75.4851 26.8077C75.0241 27.0329 74.4884 26.6622 74.4828 26.1492L74.4807 25.9602Z" fill="#E6A978"/>
<path d="M72.2682 25.886C72.3015 25.893 72.336 25.8963 72.3715 25.8962L72.3706 25.7431C72.2011 25.7434 72.102 25.6315 72.0658 25.526C72.0301 25.4218 72.0392 25.2741 72.1721 25.1724C72.3381 25.045 72.5145 24.8928 72.6801 24.6432L72.5525 24.5583C72.3991 24.7894 72.2343 24.9315 72.0787 25.0506C71.9162 25.1753 71.8544 25.3814 71.9209 25.5756C71.9765 25.738 72.1074 25.8523 72.2682 25.886Z" fill="#D6895E"/>
<path d="M75.3311 26.0161L74.9126 26.2844L74.9953 26.4134L75.4138 26.145L75.3311 26.0161Z" fill="#DB773F"/>
<path d="M72.0548 24.0862C72.4874 24.1231 72.5295 23.8935 72.2026 23.8154C71.8509 23.7315 71.5164 24.0405 72.0548 24.0862Z" fill="#8C290B"/>
<path d="M73.6274 24.3975C74.0079 24.6067 74.1395 24.4139 73.8724 24.21C73.585 23.9906 73.1539 24.1373 73.6274 24.3975Z" fill="#643D22"/>
<path d="M73.1561 25.1887C73.1263 25.3265 73.176 25.4543 73.267 25.474C73.358 25.4937 73.456 25.3979 73.4859 25.2601C73.5157 25.1222 73.466 24.9945 73.375 24.9748C73.284 24.9549 73.1859 25.0508 73.1561 25.1887Z" fill="#303030"/>
<path d="M72.9142 26.0488C72.7912 26.0104 72.5877 25.9674 72.3062 25.9747C72.2283 25.9767 72.1767 26.0612 72.2136 26.1298C72.4847 26.635 72.8052 26.3934 72.9606 26.2229C73.0136 26.1646 72.9895 26.0722 72.9142 26.0488Z" fill="#FDFAF7"/>
<path d="M72.6691 28.8269C72.7817 28.3924 73.145 28.0545 73.5279 27.9292C74.3076 27.6742 75.1259 27.7823 75.1259 27.7823L74.9423 29.1438L72.6691 28.8269Z" fill="white"/>
<path d="M76.7558 24.3021C76.6275 24.9449 76.0025 25.3619 75.3597 25.2337C74.7168 25.1054 74.2998 24.4804 74.4281 23.8376C74.5563 23.1948 75.1814 22.7777 75.8242 22.906C76.4669 23.0342 76.884 23.6593 76.7558 24.3021Z" fill="#643D22"/>
<path d="M72.8202 24.0585C73.3635 23.6917 73.5065 22.954 73.1397 22.4107C72.7729 21.8675 72.0352 21.7244 71.4919 22.0912C70.9487 22.458 70.8056 23.1958 71.1724 23.739C71.5392 24.2822 72.277 24.4253 72.8202 24.0585Z" fill="#643D22"/>
<path d="M75.3907 22.7779C75.2452 23.5068 74.5365 23.9799 73.8075 23.8344C73.0785 23.6889 72.6056 22.9801 72.751 22.251C72.8964 21.5221 73.6053 21.049 74.3344 21.1945C75.0632 21.3401 75.5363 22.0489 75.3907 22.7779Z" fill="#643D22"/>
<path d="M76.3244 31.046L75.8303 35.8821L75.5099 39.0103H68.6523L69.0914 35.8821L69.3423 34.094L69.7311 31.3228L69.8904 30.1939C69.9067 30.0791 69.9338 29.9681 69.9714 29.8629C70.2397 29.0871 71.027 28.5863 71.8704 28.7098L74.8385 29.1412C75.7639 29.2753 76.419 30.1149 76.3244 31.046Z" fill="#5E6F64"/>
<path d="M69.7948 30.3864L69.276 34.0876L69.4142 34.107L69.9329 30.4058L69.7948 30.3864Z" fill="#445859"/>
<path d="M76.0185 34.0381L75.5101 39.0102H68.6525L69.2354 34.7545L76.0185 34.0381Z" fill="#445859"/>
<path d="M74.2367 39.0107H75.5098L76.3249 31.0459C76.3259 31.0374 76.3271 31.0289 76.3271 31.0204L75.1838 30.7219L74.2367 39.0107Z" fill="#445859"/>
<path d="M64.6771 50.2153H52.7095V50.7797H64.6771V50.2153Z" fill="#3E4147"/>
<path d="M60.4772 47.4589H57.0979L57.7964 43.061L61.0525 43.4564L60.4772 47.4589Z" fill="#F0E9EA"/>
<path d="M60.7412 50.2153H53.0743L53.2748 49.531C53.3408 49.3078 53.4393 49.1004 53.565 48.9132C53.8316 48.5145 54.2219 48.2075 54.6859 48.0441L54.8935 47.971C55.0971 47.8992 55.2882 47.8048 55.4654 47.6905C55.6178 47.5922 55.7591 47.4806 55.8868 47.3543C56.1653 47.0832 56.3848 46.751 56.5257 46.3762H60.8336L60.762 48.9131L60.7412 50.2153Z" fill="black"/>
<path d="M57.7964 46.7114H56.2817V46.9064H57.7964V46.7114Z" fill="#FDFAF7"/>
<path d="M57.4057 47.239H55.8912V47.434H57.4057V47.239Z" fill="#FDFAF7"/>
<path d="M59.121 48.6553C58.9659 48.6553 58.8357 48.5291 58.8308 48.3739C58.8285 48.2974 58.8562 48.2253 58.9089 48.1708C58.9616 48.1164 59.0328 48.0864 59.1093 48.0864C59.2645 48.0864 59.3947 48.2126 59.3997 48.3678C59.402 48.4443 59.3743 48.5164 59.3216 48.5709C59.2687 48.6253 59.1975 48.6553 59.121 48.6553ZM59.1092 48.2814C59.0861 48.2814 59.0645 48.2903 59.0489 48.3065C59.0332 48.3226 59.025 48.3443 59.0258 48.3678C59.0278 48.4418 59.1316 48.4867 59.1814 48.4351C59.1972 48.419 59.2053 48.3972 59.2046 48.3738C59.203 48.3228 59.1603 48.2814 59.1092 48.2814Z" fill="#FDFAF7"/>
<path d="M58.2063 48.6553C58.0512 48.6553 57.9211 48.5291 57.9163 48.3739C57.914 48.2974 57.9416 48.2253 57.9944 48.1708C58.0471 48.1163 58.1183 48.0864 58.1948 48.0864C58.3499 48.0864 58.4801 48.2126 58.4851 48.3678C58.4874 48.4443 58.4598 48.5164 58.407 48.5709C58.3542 48.6253 58.283 48.6553 58.2063 48.6553ZM58.1947 48.2814C58.1715 48.2814 58.15 48.2903 58.1344 48.3065C58.1186 48.3226 58.1104 48.3443 58.1112 48.3678C58.1135 48.4424 58.2171 48.4866 58.2671 48.4351C58.2827 48.419 58.2909 48.3972 58.2902 48.3738C58.2885 48.3239 58.2447 48.2814 58.1947 48.2814Z" fill="#FDFAF7"/>
<path d="M60.7412 50.2155H53.0743L53.2748 49.5312C53.3408 49.308 53.4393 49.1006 53.565 48.9133H60.7621L60.7412 50.2155Z" fill="#F0E9EA"/>
<path d="M60.7826 49.4668H55.9611V49.6617H60.7826V49.4668Z" fill="#94C19B"/>
<path d="M57.3771 50.2155H53.0742L53.2747 49.5312C53.3407 49.308 53.4391 49.1006 53.5648 48.9133C53.8315 48.5146 54.2217 48.2077 54.6857 48.0442L54.8934 47.9711C55.097 47.8993 55.2881 47.805 55.4653 47.6907C56.4631 48.1517 57.2063 49.0939 57.3771 50.2155Z" fill="#F0E9EA"/>
<path d="M56.5256 46.3763L56.4273 45.9949C56.3581 45.7263 56.5543 45.4707 56.8296 45.4707H57.2136C57.5169 45.4707 57.8042 45.6247 57.9764 45.8797L58.3119 46.3762H56.5256V46.3763Z" fill="black"/>
<path d="M62.1543 35.7807L61.1009 45.0725H57.0634L58.5113 37.5849C58.7359 36.4235 59.7924 35.6129 60.9723 35.6969L62.1543 35.7807Z" fill="#643D22"/>
<path d="M61.2821 35.6829L70.8247 36.2172L70.2088 41.628L58.7188 40.4915L58.8153 37.9292C58.8644 36.6222 59.9762 35.6098 61.2821 35.6829Z" fill="#643D22"/>
<path d="M64.1367 47.4589H60.7573L61.4558 43.061L64.7118 43.4564L64.1367 47.4589Z" fill="#F0E9EA"/>
<path d="M64.4005 50.2153H56.7336L56.9341 49.531C57.0001 49.3078 57.0986 49.1004 57.2243 48.9132C57.4909 48.5145 57.8812 48.2075 58.3452 48.0441L58.5528 47.971C58.7564 47.8992 58.9475 47.8048 59.1247 47.6905C59.277 47.5922 59.4184 47.4806 59.5461 47.3543C59.8246 47.0832 60.0441 46.751 60.185 46.3762H64.493L64.4215 48.9131L64.4005 50.2153Z" fill="black"/>
<path d="M61.4557 46.7114H59.941V46.9064H61.4557V46.7114Z" fill="#FDFAF7"/>
<path d="M61.065 47.239H59.5505V47.434H61.065V47.239Z" fill="#FDFAF7"/>
<path d="M62.7805 48.6553C62.6254 48.6553 62.4952 48.5291 62.4904 48.3739C62.4881 48.2974 62.5157 48.2253 62.5684 48.1708C62.6212 48.1164 62.6924 48.0864 62.7689 48.0864C62.924 48.0864 63.0542 48.2126 63.0592 48.3678C63.0615 48.4443 63.0339 48.5164 62.9811 48.5709C62.9283 48.6253 62.8571 48.6553 62.7805 48.6553ZM62.7688 48.2814C62.7456 48.2814 62.7241 48.2903 62.7085 48.3065C62.6927 48.3226 62.6845 48.3443 62.6853 48.3678C62.6874 48.4418 62.7912 48.4867 62.841 48.4351C62.8567 48.419 62.8649 48.3972 62.8641 48.3738C62.8626 48.3228 62.8197 48.2814 62.7688 48.2814Z" fill="#FDFAF7"/>
<path d="M61.8659 48.6553C61.7107 48.6553 61.5807 48.5291 61.5758 48.3739C61.5735 48.2974 61.6012 48.2253 61.6539 48.1708C61.7066 48.1164 61.7778 48.0864 61.8543 48.0864C62.0095 48.0864 62.1397 48.2126 62.1446 48.3678C62.147 48.4443 62.1193 48.5164 62.0666 48.5709C62.0137 48.6253 61.9425 48.6553 61.8659 48.6553ZM61.8542 48.2814C61.831 48.2814 61.8095 48.2903 61.7939 48.3065C61.7781 48.3226 61.77 48.3443 61.7708 48.3678C61.7731 48.4424 61.8766 48.4866 61.9267 48.4351C61.9423 48.419 61.9505 48.3972 61.9497 48.3738C61.948 48.3239 61.9043 48.2814 61.8542 48.2814Z" fill="#FDFAF7"/>
<path d="M64.4005 50.2155H56.7336L56.9341 49.5312C57.0001 49.308 57.0986 49.1006 57.2243 48.9133H64.4215L64.4005 50.2155Z" fill="#F0E9EA"/>
<path d="M64.442 49.4668H59.6205V49.6617H64.442V49.4668Z" fill="#F1CCB4"/>
<path d="M61.0364 50.2155H56.7335L56.934 49.5312C57 49.308 57.0984 49.1006 57.2241 48.9133C57.4908 48.5146 57.881 48.2077 58.345 48.0442L58.5527 47.9711C58.7563 47.8993 58.9474 47.805 59.1246 47.6907C60.1224 48.1517 60.8656 49.0939 61.0364 50.2155Z" fill="#F0E9EA"/>
<path d="M60.1851 46.3763L60.0867 45.9949C60.0175 45.7263 60.2137 45.4707 60.4891 45.4707H60.8731C61.1763 45.4707 61.4636 45.6247 61.6358 45.8797L61.9713 46.3762H60.1851V46.3763Z" fill="black"/>
<path d="M66.7207 35.7807L65.1733 45.0725H60.7228L62.1707 37.5849C62.3952 36.4235 63.4519 35.6129 64.6318 35.6969L66.7207 35.7807Z" fill="#824D35"/>
<path d="M64.9961 38.3136L63.8684 45.0918L64.006 45.1147L65.1337 38.3365L64.9961 38.3136Z" fill="#643D22"/>
<path d="M65.2933 44.3564H60.8336V44.496H65.2933V44.3564Z" fill="#643D22"/>
<path d="M64.9415 35.6829L74.4842 36.2172L73.8682 41.628L62.3782 40.4915L62.4747 37.9292C62.5238 36.6222 63.6356 35.6098 64.9415 35.6829Z" fill="#824D35"/>
<path d="M77.7641 35.7288H64.6772V42.53H77.7641V35.7288Z" fill="black"/>
<path d="M64.5291 36.388C64.5291 35.4873 65.2619 34.7545 66.1626 34.7545H77.6158V29.7757C77.6158 28.6854 78.5029 27.7983 79.5932 27.7983H81.53V28.0947H79.5932C78.6663 28.0947 77.9121 28.8487 77.9121 29.7757V34.7545H77.9427V35.0508H77.9121V42.6782H64.5291V36.388ZM77.6158 35.0508H66.1626C65.4253 35.0508 64.8254 35.6506 64.8254 36.388V42.3819H77.6158V35.0508Z" fill="#3E4147"/>
<path d="M64.8254 42.53H64.5291V49.3792H64.8254V42.53Z" fill="#3E4147"/>
<path d="M64.9172 53.8312C66.3856 53.8312 67.5759 52.6566 67.5759 51.2076C67.5759 49.7586 66.3856 48.584 64.9172 48.584C63.4489 48.584 62.2585 49.7586 62.2585 51.2076C62.2585 52.6566 63.4489 53.8312 64.9172 53.8312Z" fill="#3E4147"/>
<path d="M64.9172 49.7395C65.7393 49.7395 66.4083 50.398 66.4083 51.2075C66.4083 52.017 65.7393 52.6755 64.9172 52.6755C64.095 52.6755 63.4261 52.017 63.4261 51.2075C63.426 50.398 64.0949 49.7395 64.9172 49.7395ZM64.9172 49.4846C63.953 49.4846 63.1713 50.2559 63.1713 51.2075C63.1713 52.1589 63.953 52.9304 64.9172 52.9304C65.8814 52.9304 66.6631 52.159 66.6631 51.2075C66.663 50.2559 65.8814 49.4846 64.9172 49.4846Z" fill="white"/>
<path d="M80.5672 44.0788L76.088 47.6982L76.2481 47.8964L80.7273 44.2769L80.5672 44.0788Z" fill="#3E4147"/>
<path d="M81.8084 47.6721H76.1687V47.9268H81.8084V47.6721Z" fill="#3E4147"/>
<path d="M76.2509 47.7031L76.0907 47.9011L80.5676 51.5234L80.7278 51.3254L76.2509 47.7031Z" fill="#3E4147"/>
<path d="M76.2961 47.7993H76.0414V52.9178H76.2961V47.7993Z" fill="#3E4147"/>
<path d="M76.0881 47.6992L71.6089 51.3186L71.769 51.5167L76.2482 47.8973L76.0881 47.6992Z" fill="#3E4147"/>
<path d="M76.1687 47.6721H70.5292V47.9268H76.1687V47.6721Z" fill="#3E4147"/>
<path d="M71.7707 44.0805L71.6105 44.2786L76.0874 47.9009L76.2476 47.7029L71.7707 44.0805Z" fill="#3E4147"/>
<path d="M76.2961 42.6809H76.0414V47.7994H76.2961V42.6809Z" fill="#3E4147"/>
<path d="M76.1688 48.9297C76.8011 48.9297 77.3137 48.4236 77.3137 47.7994C77.3137 47.1752 76.8011 46.6692 76.1688 46.6692C75.5364 46.6692 75.0238 47.1752 75.0238 47.7994C75.0238 48.4236 75.5364 48.9297 76.1688 48.9297Z" fill="#3E4147"/>
<path d="M76.1688 42.8587C78.933 42.8587 81.1817 45.075 81.1817 47.7994C81.1817 50.5237 78.933 52.7401 76.1688 52.7401C73.4046 52.7401 71.1559 50.5237 71.1559 47.7994C71.1559 45.075 73.4046 42.8587 76.1688 42.8587ZM76.1688 42.0747C72.9661 42.0747 70.3698 44.6378 70.3698 47.7994C70.3698 50.9611 72.9661 53.524 76.1688 53.524C79.3715 53.524 81.9678 50.961 81.9678 47.7994C81.9678 44.6378 79.3715 42.0747 76.1688 42.0747Z" fill="white"/>
<path d="M76.1688 42.1938C79.3017 42.1938 81.8505 44.7085 81.8505 47.7994C81.8505 50.8904 79.3017 53.4051 76.1688 53.4051C73.036 53.4051 70.4871 50.8904 70.4871 47.7994C70.4871 44.7085 73.0359 42.1938 76.1688 42.1938ZM76.1688 41.7676C72.7942 41.7676 70.0586 44.4681 70.0586 47.7994C70.0586 51.1308 72.7942 53.8313 76.1688 53.8313C79.5434 53.8313 82.2791 51.1308 82.2791 47.7994C82.279 44.4681 79.5434 41.7676 76.1688 41.7676Z" fill="#3E4147"/>
<path d="M79.6649 36.2973L77.1365 35.9806C76.6428 34.8492 74.87 32.1972 74.87 32.1972L74.7166 29.1213C76.1299 29.2676 77.3374 29.6132 77.9012 31.0639C78.5326 32.6886 79.2483 34.9695 79.6649 36.2973Z" fill="#5E6F64"/>
<path d="M77.0438 35.7808C75.0272 37.6652 73.3534 39.7113 73.3534 39.7113L73.0302 41.4355L74.4509 40.2431C79.8769 38.5875 79.6645 36.2994 79.6645 36.2994L77.0438 35.7808Z" fill="#E6A978"/>
<path d="M73.1182 39.9138L71.9621 40.3899C71.7869 40.4619 71.6462 40.5989 71.5693 40.7719L71.1676 41.6754C71.098 41.8319 71.2191 42.0066 71.3901 41.9964C71.4428 41.9932 71.4929 41.9719 71.5316 41.936L73.1182 39.9138Z" fill="#D6895E"/>
<path d="M73.5364 39.5347L71.8082 41.1018L74.461 41.7676L75.0939 40.0239L73.5364 39.5347Z" fill="#E6A978"/>
<path d="M71.8083 41.1018L71.4622 42.4616C71.4151 42.6391 71.589 42.7952 71.7604 42.7293C71.8138 42.7087 71.8574 42.6687 71.8823 42.6171L72.2134 41.8483L73.0851 41.2782L71.8083 41.1018Z" fill="#E6A978"/>
<path d="M72.5109 41.2197L72.0181 42.0074C71.9177 42.1678 71.9754 42.3798 72.1432 42.4672C72.2829 42.5399 72.4547 42.5018 72.5504 42.3767L73.2472 41.4671L72.5109 41.2197Z" fill="#E6A978"/>
<path d="M73.1317 41.3806L72.6389 42.1683C72.5386 42.3287 72.5963 42.5407 72.7641 42.6281C72.9037 42.7008 73.0755 42.6627 73.1713 42.5376L73.8681 41.628L73.1317 41.3806Z" fill="#E6A978"/>
<path d="M73.7246 41.52L73.2318 42.3077C73.1315 42.4681 73.1892 42.6801 73.357 42.7675C73.4966 42.8402 73.6684 42.8021 73.7642 42.677L74.4611 41.7674L73.7246 41.52Z" fill="#E6A978"/>
<path d="M90.3167 31.1335L90.4522 31.1908C92.3549 31.9946 93.2526 34.1829 92.4626 36.0914L90.9629 40.7783L87.6733 40.1838L88.4581 34.1703C88.5532 32.9181 89.2448 31.788 90.3167 31.1335Z" fill="#EDB192"/>
<path d="M94.0071 52.201C93.9612 52.3061 93.9086 52.4099 93.8494 52.5084C93.8279 52.5434 93.8049 52.5785 93.782 52.6134C93.6755 52.7765 93.5515 52.9261 93.4101 53.0609L93.3898 53.0812C93.0097 53.4356 92.5137 53.65 91.9975 53.72V53.7281L90.2224 53.8736L90.2331 53.8695C89.5377 53.9221 88.83 53.7077 88.3502 53.1983L89.9461 53.0662C90.2413 53.3803 90.6241 53.5797 91.0352 53.6767L91.0878 53.6646C91.3466 53.5541 91.5879 53.4045 91.7941 53.213C91.8008 53.2062 91.8075 53.1996 91.8129 53.1914C91.9557 53.0566 92.0798 52.9069 92.1848 52.7453C92.236 52.6685 92.2833 52.5889 92.3264 52.5081C92.3561 52.4515 92.3844 52.3921 92.41 52.3329C92.7766 51.5093 92.7671 50.5092 92.3885 49.683C92.2698 49.4256 92.123 49.187 91.9544 48.962C91.8938 48.8798 91.8304 48.8002 91.7631 48.7221C91.3992 48.2868 90.9624 47.9027 90.5244 47.5386C90.0716 47.1613 89.6065 46.7892 89.1927 46.3728C88.9784 46.1571 88.7776 45.9294 88.601 45.6828C88.5646 45.6316 88.5296 45.5816 88.4945 45.5292C88.4743 45.4968 88.454 45.4658 88.4338 45.4321C88.1426 44.9576 87.9527 44.3997 87.9378 43.8511C87.9271 43.4925 87.9904 43.1381 88.1508 42.8132L89.7467 42.6812C89.5877 43.006 89.523 43.3604 89.5337 43.719C89.5486 44.2689 89.7386 44.8269 90.0297 45.3013C90.0499 45.3337 90.0702 45.366 90.0917 45.3971C90.1253 45.4497 90.1604 45.5009 90.1968 45.5507C90.3733 45.7973 90.5728 46.0252 90.7885 46.2407C91.2023 46.6572 91.6673 47.0292 92.1202 47.4067C92.6014 47.8069 93.0825 48.2315 93.4654 48.7221C93.4951 48.7572 93.5233 48.7935 93.5502 48.8299C93.7187 49.0563 93.8656 49.2949 93.9843 49.551C94.3643 50.3774 94.3724 51.3788 94.0071 52.201Z" fill="#3E4147"/>
<path d="M94.007 52.2011C93.9612 52.3062 93.9086 52.41 93.8493 52.5084H92.3263C92.356 52.4518 92.3842 52.3924 92.4098 52.3332C92.7764 51.5096 92.767 50.5095 92.3883 49.6833C92.2697 49.4259 92.1229 49.1873 91.9543 48.9623C91.8936 48.8801 91.8303 48.8005 91.7629 48.7224H93.4652C93.4949 48.7575 93.5232 48.7938 93.5501 48.8302C93.7185 49.0566 93.8655 49.2952 93.9841 49.5513C94.3643 50.3774 94.3723 51.3788 94.007 52.2011Z" fill="#002438"/>
<path d="M91.5433 39.759L91.4598 40.0851L91.3291 40.5933L91.2118 41.0529L91.0811 41.5611L90.8142 42.6016C90.6094 43.3969 89.8964 43.9279 89.1079 43.9279C88.9812 43.9279 88.8518 43.9131 88.7223 43.8848C87.8637 43.6934 87.2775 42.8982 87.3489 42.0221L87.4878 40.5839L87.539 40.0543L87.566 39.7725L87.6172 39.2468L87.6738 38.6538L91.5433 39.759Z" fill="#3E4147"/>
<path d="M91.4598 40.0851L91.329 40.5933L87.5658 39.7724L87.6171 39.2468L91.4598 40.0851Z" fill="#002438"/>
<path d="M91.2117 41.053L91.081 41.5611L87.4877 40.5839L87.5389 40.0542L91.2117 41.053Z" fill="#002438"/>
<path d="M85.7715 22.7046C84.2928 23.4993 83.3344 28.212 83.3344 28.212L87.0129 28.5113L85.7715 22.7046Z" fill="#E09A78"/>
<path d="M86.2513 26.8704L86.3114 27.9654L86.4224 30.0069L86.4559 30.6246L86.462 30.7274L86.8559 30.8158H86.8569L90.5226 31.6422L90.3882 29.3799L90.3861 29.3423L90.2784 27.5166L89.3573 27.369L89.2688 27.3548L89.2464 27.3507H89.2454L86.2871 26.8765L86.2513 26.8704Z" fill="#A36955"/>
<path d="M88.3869 34.2673C88.3869 34.2673 89.4265 32.7177 92.1482 31.7351L91.0771 29.3384L90.3862 29.3425L86.3965 29.5891L85.9314 30.7218C85.826 31.0871 86.5366 32.9377 88.3869 34.2673Z" fill="#824D35"/>
<path d="M91.3506 29.9671L86.2522 30.0466L86.2544 30.1863L91.3527 30.1067L91.3506 29.9671Z" fill="#643D22"/>
<path d="M91.8697 24.5363L91.0755 29.3388L91.073 29.3806L86.4442 29.5766L86.3006 28.1869L86.1857 27.082L86.1491 26.7333L86.1399 26.6445L85.8996 24.3301L85.7716 22.704L87.6093 22.0288L90.0176 22.1947C90.4473 22.2235 90.8352 22.3854 91.1448 22.6349C91.6893 23.0748 91.9937 23.7879 91.8697 24.5363Z" fill="#A36955"/>
<path d="M89.656 28.2443C89.656 28.2443 87.8366 28.8045 86.3007 28.1868C86.2864 28.1816 86.2706 28.175 86.2563 28.1685C86.2523 28.1685 86.2485 28.1672 86.2458 28.1645C85.8318 27.9908 85.53 27.7531 85.3511 27.4344V27.4331C85.2283 27.2125 85.1643 26.9512 85.1643 26.6443C85.1656 26.0565 85.4007 25.3004 85.8997 24.3299C86.1687 23.8061 86.5136 23.221 86.942 22.5654L88.1879 25.1737L89.1871 27.2634L89.2732 27.4436L89.656 28.2443Z" fill="#A36955"/>
<path d="M91.8697 24.5363L91.0756 29.3388L91.073 29.3806L86.4443 29.5766L86.3007 28.1869C86.2864 28.1816 86.2706 28.1751 86.2563 28.1686C86.2523 28.1686 86.2485 28.1673 86.2458 28.1646C85.8318 27.9909 85.53 27.7532 85.3511 27.4345V27.4332C85.2283 27.2126 85.1643 26.9513 85.1643 26.6444H87.2462L88.1879 25.1738L89.656 22.883L91.1449 22.6348C91.6894 23.0748 91.9937 23.7879 91.8697 24.5363Z" fill="#9A5B45"/>
<path d="M87.9476 23.258L88.9409 23.214C89.3045 23.1978 89.5863 22.89 89.5701 22.5265L89.4822 20.5586L87.1262 20.6629L87.2121 22.5846C87.2291 22.9737 87.5585 23.2751 87.9476 23.258Z" fill="#EDB192"/>
<path d="M87.1898 22.1003L87.2051 22.4505C88.2106 22.5115 89.2867 21.7968 88.9111 20.2202L87.1105 20.2996L87.1898 22.1003Z" fill="#E09A78"/>
<path d="M87.6368 16.8115C86.4913 16.7417 85.5061 17.6135 85.4362 18.7589L85.3945 19.4426C85.3299 20.5013 86.1356 21.4119 87.1943 21.4765L89.0993 21.5929C89.2794 21.6039 89.4343 21.4668 89.4453 21.2867L89.5842 19.0124C89.6541 17.8668 88.7822 16.8816 87.6368 16.8115Z" fill="#EDB192"/>
<path d="M85.9993 19.0402C85.9938 19.2035 86.0767 19.339 86.1846 19.3427C86.2925 19.3462 86.3846 19.2168 86.3901 19.0535C86.3956 18.8902 86.3126 18.7548 86.2047 18.751C86.0968 18.7475 86.0048 18.8769 85.9993 19.0402Z" fill="#303030"/>
<path d="M87.4431 19.1557C87.4376 19.319 87.5206 19.4544 87.6285 19.4581C87.7364 19.4619 87.8284 19.3323 87.8339 19.169C87.8394 19.0057 87.7565 18.8702 87.6486 18.8665C87.5405 18.8629 87.4486 18.9924 87.4431 19.1557Z" fill="#303030"/>
<path d="M89.2906 19.6466C89.2906 19.6466 86.7911 19.0215 87.3424 16.8147C90.5612 16.4206 90.7187 19.309 89.2906 19.6466Z" fill="black"/>
<path d="M89.2953 20.634C89.2953 20.634 88.6006 22.8048 89.3458 23.1887C90.0912 23.5725 90.9427 22.5044 91.6638 23.2487C91.6638 23.2487 91.7952 22.7314 90.6947 22.1389L90.3349 20.0938L89.2953 20.634Z" fill="black"/>
<path d="M88.8046 19.8603C89.2657 18.8939 89.7168 18.8097 90.0912 18.9857C90.7774 19.3084 90.5525 20.9205 89.2952 20.6341L88.8046 19.8603Z" fill="#EDB192"/>
<path d="M88.0881 16.7812C88.0881 16.7812 85.984 16.7028 85.42 19.0221C85.3176 17.0673 86.5701 16.6216 88.0881 16.7812Z" fill="black"/>
<path d="M86.0934 18.0948C86.5753 18.0742 86.5893 17.8153 86.2179 17.7755C85.8186 17.7327 85.4938 18.1204 86.0934 18.0948Z" fill="black"/>
<path d="M87.7872 18.1494C88.2647 18.2172 88.3257 17.9653 87.968 17.8583C87.5833 17.7432 87.193 18.065 87.7872 18.1494Z" fill="black"/>
<path d="M86.6387 20.2094L86.611 20.0276C86.4284 20.0555 86.3037 19.95 86.2481 19.8418C86.1932 19.7352 86.1797 19.5747 86.3066 19.4441C86.4689 19.2768 86.6387 19.0805 86.7809 18.7785L86.6144 18.7002C86.4837 18.9778 86.3257 19.1602 86.1747 19.3159C86.014 19.4811 85.9787 19.7206 86.0846 19.9259C86.1912 20.1333 86.4088 20.2444 86.6387 20.2094Z" fill="#E09A78"/>
<path d="M89.9561 19.5062L89.3104 20.0679L89.4312 20.2067L90.0769 19.6451L89.9561 19.5062Z" fill="#E09A78"/>
<path d="M87.0213 20.6884C86.8692 20.6884 86.7185 20.6118 86.6317 20.4862L86.8155 20.3593C86.8665 20.4333 86.9652 20.475 87.0531 20.4627C87.1418 20.4496 87.2232 20.381 87.251 20.2957L87.4633 20.3646C87.4094 20.5303 87.2576 20.6584 87.0853 20.6836C87.0641 20.6868 87.0427 20.6884 87.0213 20.6884Z" fill="#E38B7A"/>
<path d="M91.9872 31.3743C93.3158 33.8507 92.7692 35.8156 92.171 37.0029L88.1713 36.445L88.6927 31.8968L91.9872 31.3743Z" fill="#824D35"/>
<path d="M91.6613 31.8091C91.5741 31.8091 90.1664 31.7803 89.6915 30.0813L89.8259 30.0437C90.2844 31.6838 91.6511 31.6684 91.662 31.6694L91.6655 31.8091C91.6652 31.8091 91.6639 31.8091 91.6613 31.8091Z" fill="#643D22"/>
<path d="M80.6896 28.1671L80.112 27.5642L79.5081 28.3139C79.4146 28.4299 79.4218 28.5973 79.5248 28.7048C79.6279 28.8123 79.7948 28.8267 79.9147 28.7384L80.6896 28.1671Z" fill="#E09A78"/>
<path d="M79.0513 28.0464L79.0637 27.824C79.0737 27.6458 79.2263 27.5093 79.4045 27.5193L82.1977 27.6759C82.3758 27.6858 82.5123 27.8384 82.5023 28.0166L82.4899 28.2391C82.4799 28.4172 82.3273 28.5537 82.1492 28.5437L79.3559 28.3872C79.1776 28.3772 79.0413 28.2246 79.0513 28.0464Z" fill="black"/>
<path d="M82.584 27.1826L79.9464 26.5527L80.1705 28.1261L81.6003 28.2106C82.175 28.2445 82.6431 27.7552 82.584 27.1826Z" fill="#EDB192"/>
<path d="M79.8944 26.644L79.6738 27.9031L80.2699 28.7459C80.3197 28.8163 80.4097 28.8459 80.4915 28.8188C80.5941 28.7847 80.6497 28.6739 80.6156 28.5712L80.3972 27.9129L81.098 27.0391L79.8944 26.644Z" fill="#EDB192"/>
<path d="M80.6039 26.8325L80.1499 27.8756L80.6479 28.7798C80.6895 28.8553 80.7757 28.8947 80.86 28.8769C80.9659 28.8545 81.0335 28.7506 81.0111 28.6447L80.8675 27.9661L81.6616 27.1761L80.6039 26.8325Z" fill="#EDB192"/>
<path d="M81.7658 27.8666L81.7418 27.8423C81.6686 27.7681 81.549 27.7673 81.4748 27.8405L81.1849 28.1265C81.1106 28.1997 81.1099 28.3193 81.1831 28.3935L81.2071 28.4178C81.2803 28.4921 81.3999 28.493 81.4741 28.4196L81.7641 28.1337C81.8382 28.0604 81.8391 27.9409 81.7658 27.8666Z" fill="#EDB192"/>
<path d="M80.0645 27.2127L79.9458 26.5525L79.0254 27.1913C78.9291 27.256 78.9034 27.3864 78.968 27.4827C79.0327 27.5789 79.1631 27.6047 79.2593 27.54L80.0645 27.2127Z" fill="#EDB192"/>
<path d="M79.4662 28.2139L79.4985 28.2007C79.5969 28.1606 79.6443 28.0483 79.6042 27.9498L79.3285 27.2723C79.2885 27.1739 79.1761 27.1265 79.0776 27.1666L79.0454 27.1798C78.947 27.2198 78.8996 27.3322 78.9397 27.4307L79.2154 28.1082C79.2554 28.2066 79.3677 28.2539 79.4662 28.2139Z" fill="#EDB192"/>
<path d="M81.4946 28.8302L81.5258 28.8143C81.6205 28.7659 81.6581 28.6501 81.6097 28.5554L81.2804 27.91C81.232 27.8153 81.1162 27.7777 81.0214 27.826L80.9903 27.8419C80.8956 27.8902 80.858 28.0061 80.9064 28.1009L81.2357 28.7462C81.2841 28.8409 81.4001 28.8786 81.4946 28.8302Z" fill="#EDB192"/>
<path d="M82.5839 27.1826L89.8624 28.5216C89.0348 31.0284 84.9639 31.0773 82.0115 27.8889L82.5839 27.1826Z" fill="#EDB192"/>
<path d="M89.8623 28.5215C90.5505 27.5057 91.2703 25.3726 91.6827 24.0301C91.8834 23.3769 91.5181 22.6851 90.8661 22.4804C90.2523 22.2878 89.593 22.595 89.3458 23.1889L87.2463 28.2332L89.8623 28.5215Z" fill="#EDB192"/>
<path d="M88.2409 36.4451H88.1014V32.7465L87.3041 32.2087L87.382 32.093L88.2409 32.6722V36.4451Z" fill="#643D22"/>
<path d="M91.6088 36.9381L91.4769 36.8925C92.3517 34.3611 92.1019 32.269 90.5852 29.431L90.7085 29.3652C92.2456 32.2419 92.498 34.3652 91.6088 36.9381Z" fill="#643D22"/>
<path d="M88.1811 35.7971L88.162 35.9353L92.3405 36.5128L92.3596 36.3746L88.1811 35.7971Z" fill="#643D22"/>
</g>
<defs>
<clipPath id="clip0_140_25673">
<rect width="96" height="64" fill="white" transform="translate(0.5)"/>
</clipPath>
</defs>
</svg>
