<svg width="21" height="20" viewBox="0 0 21 20" fill="none" xmlns="http://www.w3.org/2000/svg">
<g id="community">
<path id="Vector" d="M6.45 2.35003C6.09196 2.35003 5.74858 2.49226 5.49541 2.74544C5.24223 2.99861 5.1 3.34199 5.1 3.70003C5.1 4.05807 5.24223 4.40145 5.49541 4.65462C5.74858 4.9078 6.09196 5.05003 6.45 5.05003C6.80804 5.05003 7.15142 4.9078 7.40459 4.65462C7.65777 4.40145 7.8 4.05807 7.8 3.70003C7.8 3.34199 7.65777 2.99861 7.40459 2.74544C7.15142 2.49226 6.80804 2.35003 6.45 2.35003ZM3.75 3.70003C3.75 2.98395 4.03446 2.29719 4.54081 1.79084C5.04716 1.28449 5.73392 1.00003 6.45 1.00003C7.16608 1.00003 7.85284 1.28449 8.35919 1.79084C8.86554 2.29719 9.15 2.98395 9.15 3.70003C9.15 4.41612 8.86554 5.10287 8.35919 5.60922C7.85284 6.11557 7.16608 6.40003 6.45 6.40003C5.73392 6.40003 5.04716 6.11557 4.54081 5.60922C4.03446 5.10287 3.75 4.41612 3.75 3.70003ZM3.0912 7.30003C2.211 7.30003 1.5 8.01193 1.5 8.89123V9.21523C1.5 9.40153 1.5 10.4824 2.13 11.5327C2.6232 12.3517 3.4593 13.087 4.8075 13.4164C4.99215 12.9256 5.32653 12.5052 5.7633 12.2149C4.3206 12.061 3.6384 11.4202 3.2883 10.8379C2.8527 10.1125 2.85 9.34033 2.85 9.21253V8.89123C2.85 8.75803 2.958 8.65003 3.0912 8.65003H6.927C6.98645 8.17411 7.14102 7.715 7.3815 7.30003H3.0912ZM13.6185 7.30003C13.8534 7.70683 14.0118 8.16313 14.0721 8.65003H17.9088C18.042 8.65003 18.15 8.75803 18.15 8.89123V9.21253C18.15 9.34033 18.1473 10.1125 17.7117 10.837C17.3616 11.4202 16.6794 12.061 15.2367 12.2149C15.6687 12.5029 16.0071 12.9223 16.1925 13.4164C17.5407 13.087 18.3768 12.3517 18.8691 11.5327C19.5 10.4824 19.5 9.40243 19.5 9.21433V8.89033C19.5 8.01283 18.7881 7.30003 17.9088 7.30003H13.6185ZM13.2 3.70003C13.2 3.34199 13.3422 2.99861 13.5954 2.74544C13.8486 2.49226 14.192 2.35003 14.55 2.35003C14.908 2.35003 15.2514 2.49226 15.5046 2.74544C15.7578 2.99861 15.9 3.34199 15.9 3.70003C15.9 4.05807 15.7578 4.40145 15.5046 4.65462C15.2514 4.9078 14.908 5.05003 14.55 5.05003C14.192 5.05003 13.8486 4.9078 13.5954 4.65462C13.3422 4.40145 13.2 4.05807 13.2 3.70003ZM14.55 1.00003C13.8339 1.00003 13.1472 1.28449 12.6408 1.79084C12.1345 2.29719 11.85 2.98395 11.85 3.70003C11.85 4.41612 12.1345 5.10287 12.6408 5.60922C13.1472 6.11557 13.8339 6.40003 14.55 6.40003C15.2661 6.40003 15.9528 6.11557 16.4592 5.60922C16.9655 5.10287 17.25 4.41612 17.25 3.70003C17.25 2.98395 16.9655 2.29719 16.4592 1.79084C15.9528 1.28449 15.2661 1.00003 14.55 1.00003ZM10.5 7.75003C10.3227 7.75003 10.1472 7.78495 9.98338 7.85279C9.81959 7.92064 9.67076 8.02008 9.54541 8.14544C9.42005 8.27079 9.32061 8.41962 9.25276 8.58341C9.18492 8.7472 9.15 8.92275 9.15 9.10003C9.15 9.27732 9.18492 9.45286 9.25276 9.61665C9.32061 9.78044 9.42005 9.92927 9.54541 10.0546C9.67076 10.18 9.81959 10.2794 9.98338 10.3473C10.1472 10.4151 10.3227 10.45 10.5 10.45C10.858 10.45 11.2014 10.3078 11.4546 10.0546C11.7078 9.80145 11.85 9.45807 11.85 9.10003C11.85 8.74199 11.7078 8.39861 11.4546 8.14544C11.2014 7.89226 10.858 7.75003 10.5 7.75003ZM7.8 9.10003C7.8 8.38395 8.08446 7.69719 8.59081 7.19084C9.09716 6.68449 9.78392 6.40003 10.5 6.40003C11.2161 6.40003 11.9028 6.68449 12.4092 7.19084C12.9155 7.69719 13.2 8.38395 13.2 9.10003C13.2 9.81611 12.9155 10.5029 12.4092 11.0092C11.9028 11.5156 11.2161 11.8 10.5 11.8C9.78392 11.8 9.09716 11.5156 8.59081 11.0092C8.08446 10.5029 7.8 9.81611 7.8 9.10003ZM5.55 14.2912C5.55 13.411 6.2619 12.7 7.1412 12.7H13.8588C14.7381 12.7 15.45 13.4119 15.45 14.2912V14.6152C15.45 14.8015 15.45 15.8824 14.82 16.9327C14.1513 18.0433 12.8517 19 10.5 19C8.1483 19 6.8478 18.0433 6.18 16.9327C5.55 15.8824 5.55 14.8024 5.55 14.6143V14.2912ZM7.1412 14.05C7.10952 14.05 7.07816 14.0563 7.0489 14.0684C7.01963 14.0805 6.99304 14.0983 6.97065 14.1207C6.94825 14.1431 6.93048 14.1697 6.91836 14.1989C6.90624 14.2282 6.9 14.2596 6.9 14.2912V14.6125C6.9 14.7403 6.9027 15.5125 7.3383 16.237C7.7397 16.9057 8.5776 17.65 10.5 17.65C12.4224 17.65 13.2603 16.9057 13.6617 16.237C14.0973 15.5125 14.1 14.7403 14.1 14.6125V14.2912C14.1 14.2273 14.0746 14.1659 14.0294 14.1207C13.9841 14.0754 13.9228 14.05 13.8588 14.05H7.1412Z" fill="#ABABAB"/>
</g>
</svg>
