<svg width="313" height="269" viewBox="0 0 313 269" fill="none" xmlns="http://www.w3.org/2000/svg">
<g opacity="0.5">
<path d="M74.7289 260.35L50.1224 260.022C27.8878 259.726 -13.0531 198.673 5.5131 137.38C21.8878 83.3234 63.9991 57.2207 104.229 54.0813C153.306 50.2516 157.766 -5.80083 211.713 0.492276C236.934 3.43431 279.114 26.4595 299.321 75.0988C312.525 106.883 324.148 156.232 293.989 227.903C285.888 247.155 269.573 259.311 251.721 259.407L74.7289 260.35Z" fill="#F5F5F5"/>
</g>
<g opacity="0.8">
<path d="M199.731 137.097C221.637 137.097 239.394 118.598 239.394 95.7785C239.394 72.9586 221.637 54.4595 199.731 54.4595C177.826 54.4595 160.068 72.9586 160.068 95.7785C160.068 118.598 177.826 137.097 199.731 137.097Z" fill="#585450"/>
<path d="M199.731 133.121C219.528 133.121 235.577 116.402 235.577 95.7784C235.577 75.1545 219.528 58.4355 199.731 58.4355C179.934 58.4355 163.885 75.1545 163.885 95.7784C163.885 116.402 179.934 133.121 199.731 133.121Z" fill="white"/>
<path d="M224.108 79.6235C200.057 88.4339 199.74 95.9603 199.74 95.9603C208.79 98.0049 224.108 79.6235 224.108 79.6235Z" fill="#585450"/>
<path d="M186.197 81.3926C186.197 81.3926 200.069 91.0356 199.495 97.8948C199.495 97.8948 194.351 98.3388 186.197 81.3926Z" fill="#585450"/>
<path d="M201.011 97.5766C201.868 96.8455 201.993 95.5293 201.291 94.6367C200.59 93.7441 199.326 93.6133 198.469 94.3444C197.612 95.0755 197.487 96.3916 198.189 97.2842C198.89 98.1768 200.154 98.3077 201.011 97.5766Z" fill="#949494"/>
<path d="M200.066 58.4355H199.414V66.6626H200.066V58.4355Z" fill="#949494"/>
<path d="M200.066 124.894H199.414V133.121H200.066V124.894Z" fill="#949494"/>
<path d="M235.587 95.4387H227.689V96.1177H235.587V95.4387Z" fill="#949494"/>
<path d="M171.791 95.4387H163.894V96.1177H171.791V95.4387Z" fill="#949494"/>
<path d="M224.855 69.1343L222.063 72.043L222.524 72.5231L225.316 69.6144L224.855 69.1343Z" fill="#949494"/>
<path d="M176.952 119.035L174.16 121.944L174.621 122.424L177.413 119.515L176.952 119.035Z" fill="#949494"/>
<path d="M211.391 126.706L210.782 126.948L212.187 130.792L212.796 130.55L211.391 126.706Z" fill="#949494"/>
<path d="M187.283 60.7561L186.673 60.9978L188.079 64.8419L188.688 64.6002L187.283 60.7561Z" fill="#949494"/>
<path d="M186.402 125.954L184.786 129.708L185.381 129.985L186.996 126.232L186.402 125.954Z" fill="#949494"/>
<path d="M214.118 61.5567L212.502 65.3103L213.097 65.5882L214.713 61.8346L214.118 61.5567Z" fill="#949494"/>
<path d="M169.811 107.278L166.121 108.742L166.353 109.377L170.043 107.913L169.811 107.278Z" fill="#949494"/>
<path d="M233.117 82.1634L229.427 83.6274L229.659 84.262L233.349 82.798L233.117 82.1634Z" fill="#949494"/>
<path d="M167.173 80.1829L166.906 80.8025L170.51 82.4857L170.776 81.8661L167.173 80.1829Z" fill="#949494"/>
<path d="M228.989 109.057L228.723 109.677L232.326 111.36L232.593 110.74L228.989 109.057Z" fill="#949494"/>
<path d="M175.054 68.7081L174.585 69.1802L177.331 72.137L177.799 71.6649L175.054 68.7081Z" fill="#949494"/>
<path d="M222.148 119.429L221.68 119.901L224.425 122.858L224.893 122.386L222.148 119.429Z" fill="#949494"/>
</g>
<path d="M104.443 28.8804V123.879H36.5306V44.513L51.152 28.8804H104.443Z" fill="#F6FFF6"/>
<path d="M36.5306 44.5427L51.0666 28.8804V44.5427H36.5306Z" fill="#2DA13B"/>
<path d="M57.6933 40.7052H87.3208C87.7459 40.7052 88.0904 40.3464 88.0904 39.9035C88.0904 39.4608 87.7459 39.1018 87.3208 39.1018H57.6933C57.2682 39.1018 56.9237 39.4607 56.9237 39.9035C56.9237 40.3464 57.2682 40.7052 57.6933 40.7052Z" fill="#2DA13B"/>
<path d="M53.653 46.9181H91.3608C91.7859 46.9181 92.1304 46.5592 92.1304 46.1164C92.1304 45.6736 91.7859 45.3147 91.3608 45.3147H53.653C53.2281 45.3147 52.8834 45.6736 52.8834 46.1164C52.8836 46.5592 53.2281 46.9181 53.653 46.9181Z" fill="#2DA13B"/>
<path d="M43.649 61.7494H98.2868C98.7117 61.7494 99.0564 61.3905 99.0564 60.9477C99.0564 60.5049 98.7119 60.146 98.2868 60.146H43.649C43.224 60.146 42.8794 60.5049 42.8794 60.9477C42.8795 61.3904 43.224 61.7494 43.649 61.7494Z" fill="#2DA13B"/>
<path d="M43.649 68.7638H98.2868C98.7117 68.7638 99.0564 68.4049 99.0564 67.9621C99.0564 67.5193 98.7119 67.1604 98.2868 67.1604H43.649C43.224 67.1604 42.8794 67.5193 42.8794 67.9621C42.8795 68.4049 43.224 68.7638 43.649 68.7638Z" fill="#2DA13B"/>
<path d="M43.649 75.7782H98.2868C98.7117 75.7782 99.0564 75.4193 99.0564 74.9765C99.0564 74.5337 98.7119 74.1748 98.2868 74.1748H43.649C43.224 74.1748 42.8794 74.5337 42.8794 74.9765C42.8795 75.4193 43.224 75.7782 43.649 75.7782Z" fill="#2DA13B"/>
<path d="M43.649 83.7802H98.2868C98.7117 83.7802 99.0564 83.4213 99.0564 82.9785C99.0564 82.5358 98.7119 82.1768 98.2868 82.1768H43.649C43.224 82.1768 42.8794 82.5357 42.8794 82.9785C42.8795 83.4212 43.224 83.7802 43.649 83.7802Z" fill="#2DA13B"/>
<path d="M43.649 90.7946H98.2868C98.7117 90.7946 99.0564 90.4357 99.0564 89.9929C99.0564 89.5501 98.7119 89.1912 98.2868 89.1912H43.649C43.224 89.1912 42.8794 89.5501 42.8794 89.9929C42.8795 90.4357 43.224 90.7946 43.649 90.7946Z" fill="#2DA13B"/>
<path d="M43.649 114.86H98.2868C98.7117 114.86 99.0564 114.501 99.0564 114.058C99.0564 113.615 98.7119 113.256 98.2868 113.256H43.649C43.224 113.256 42.8794 113.615 42.8794 114.058C42.8795 114.501 43.224 114.86 43.649 114.86Z" fill="#2DA13B"/>
<path d="M43.649 109.134H98.2868C98.7117 109.134 99.0564 108.775 99.0564 108.332C99.0564 107.889 98.7119 107.531 98.2868 107.531H43.649C43.224 107.531 42.8794 107.889 42.8794 108.332C42.8795 108.775 43.224 109.134 43.649 109.134Z" fill="#2DA13B"/>
<path d="M252.297 116.499C252.297 116.499 259.155 104.686 275.607 107.749C275.607 107.749 264.531 124.862 252.297 116.499Z" fill="#3F9896"/>
<path d="M241.587 119.617C241.587 119.617 243.63 95.9379 271.311 87.7236C271.311 87.7236 266.586 122.925 241.587 119.617Z" fill="#7FC6A6"/>
<path d="M258.597 110.642H68.1825V257.289H258.597V110.642Z" fill="#F5F5F5"/>
<path d="M261.951 252.203V116.526C261.951 111.751 258.235 107.88 253.65 107.88H68.7488C64.1645 107.88 60.4481 111.751 60.4481 116.526V252.203C60.4481 256.979 64.1645 260.85 68.7488 260.85H253.65C258.235 260.85 261.951 256.979 261.951 252.203ZM78.8039 257.29C76.3136 257.29 74.2948 255.187 74.2948 252.593V116.137C74.2948 113.543 76.3136 111.44 78.8039 111.44H253.567C256.345 111.44 258.597 113.787 258.597 116.681V252.049C258.597 254.943 256.345 257.29 253.567 257.29H78.8039Z" fill="#2DA13B"/>
<path d="M249.567 222.023H83.3254C81.1756 222.023 79.4329 220.208 79.4329 217.968V120.065C79.4329 117.825 81.1757 116.01 83.3254 116.01H249.567C251.717 116.01 253.459 117.825 253.459 120.065V217.968C253.459 220.208 251.717 222.023 249.567 222.023Z" fill="white"/>
<path d="M105.7 138.421H84.9244V125.284H105.7L105.7 138.421ZM85.6539 137.662H104.971V126.044H85.6539V137.662Z" fill="#2DA13B"/>
<path d="M129.411 138.421H108.635V125.284H129.411V138.421ZM109.365 137.662H128.682V126.044H109.365V137.662Z" fill="#2DA13B"/>
<path d="M152.758 125.664H132.712V138.041H152.758V125.664Z" fill="#2DA13B"/>
<path d="M176.469 125.664H156.423V138.041H176.469V125.664Z" fill="#2DA13B"/>
<path d="M200.18 125.664H180.134V138.041H200.18V125.664Z" fill="#2DA13B"/>
<path d="M223.892 125.664H203.845V138.041H223.892V125.664Z" fill="#2DA13B"/>
<path d="M247.603 125.664H227.557V138.041H247.603V125.664Z" fill="#2DA13B"/>
<path d="M105.335 141.87H85.2891V154.248H105.335V141.87Z" fill="#2DA13B"/>
<path d="M129.047 141.87H109V154.248H129.047V141.87Z" fill="#2DA13B"/>
<path d="M152.758 141.87H132.712V154.248H152.758V141.87Z" fill="#2DA13B"/>
<path d="M176.469 141.87H156.423V154.248H176.469V141.87Z" fill="#2DA13B"/>
<path d="M200.18 141.87H180.134V154.248H200.18V141.87Z" fill="#2DA13B"/>
<path d="M223.892 141.87H203.845V154.248H223.892V141.87Z" fill="#2DA13B"/>
<path d="M247.603 141.87H227.557V154.248H247.603V141.87Z" fill="#2DA13B"/>
<path d="M105.335 158.077H85.2891V170.454H105.335V158.077Z" fill="#2DA13B"/>
<path d="M129.047 158.077H109V170.454H129.047V158.077Z" fill="#2DA13B"/>
<path d="M152.758 158.077H132.712V170.454H152.758V158.077Z" fill="#2DA13B"/>
<path d="M176.469 158.077H156.423V170.454H176.469V158.077Z" fill="#2DA13B"/>
<path d="M200.18 158.077H180.134V170.454H200.18V158.077Z" fill="#2DA13B"/>
<path d="M223.892 158.077H203.845V170.454H223.892V158.077Z" fill="#2DA13B"/>
<path d="M247.603 158.077H227.557V170.454H247.603V158.077Z" fill="#2DA13B"/>
<path d="M105.335 174.283H85.2891V186.661H105.335V174.283Z" fill="#2DA13B"/>
<path d="M129.047 174.283H109V186.661H129.047V174.283Z" fill="#2DA13B"/>
<path d="M152.758 174.283H132.712V186.661H152.758V174.283Z" fill="#2DA13B"/>
<path d="M176.469 174.283H156.423V186.661H176.469V174.283Z" fill="#2DA13B"/>
<path d="M200.18 174.283H180.134V186.661H200.18V174.283Z" fill="#2DA13B"/>
<path d="M223.892 174.283H203.845V186.661H223.892V174.283Z" fill="#2DA13B"/>
<path d="M247.603 174.283H227.557V186.661H247.603V174.283Z" fill="#2DA13B"/>
<path d="M105.335 190.49H85.2889V202.867H105.335V190.49Z" fill="#2DA13B"/>
<path d="M129.047 190.49H109V202.867H129.047V190.49Z" fill="#2DA13B"/>
<path d="M152.758 190.49H132.712V202.867H152.758V190.49Z" fill="#2DA13B"/>
<path d="M176.469 190.49H156.423V202.867H176.469V190.49Z" fill="#2DA13B"/>
<path d="M200.545 203.247H179.77V190.11H200.545V203.247ZM180.499 202.487H199.816V190.87H180.499V202.487Z" fill="#2DA13B"/>
<path d="M224.256 203.247H203.48V190.11H224.256V203.247ZM204.21 202.487H223.527V190.87H204.21V202.487Z" fill="#2DA13B"/>
<path d="M247.968 203.247H227.192V190.11H247.968V203.247ZM227.921 202.487H247.238V190.87H227.921V202.487Z" fill="#2DA13B"/>
<path d="M142.258 184.349L136.367 175.211C136.232 175.002 136.286 174.717 136.487 174.576C136.689 174.435 136.962 174.491 137.097 174.701L142.051 182.386L148.346 165.609C148.434 165.374 148.689 165.258 148.915 165.35C149.141 165.442 149.253 165.707 149.165 165.943L142.258 184.349Z" fill="#2AEBBB"/>
<path d="M96.6897 151.386L90.7987 142.248C90.6634 142.038 90.7169 141.754 90.9185 141.613C91.1202 141.472 91.393 141.528 91.5283 141.738L96.4826 149.422L102.778 132.646C102.866 132.411 103.121 132.294 103.347 132.387C103.573 132.479 103.684 132.744 103.596 132.98L96.6897 151.386Z" fill="#3AA1C9"/>
<path d="M145.35 248.944H84.3821C81.6487 248.944 79.4329 246.636 79.4329 243.788V233.73C79.4329 230.882 81.6487 228.574 84.3821 228.574H145.35C148.083 228.574 150.299 230.882 150.299 233.73V243.788C150.299 246.636 148.083 248.944 145.35 248.944Z" fill="white"/>
<path d="M137.25 233.986C134.576 233.986 132.409 236.244 132.409 239.029C132.409 241.814 134.576 244.072 137.25 244.072C139.923 244.072 142.09 241.814 142.09 239.029C142.091 236.244 139.923 233.986 137.25 233.986ZM137.25 243.335C134.967 243.335 133.116 241.407 133.116 239.029C133.116 236.651 134.967 234.723 137.25 234.723C139.532 234.723 141.383 236.651 141.383 239.029C141.383 241.408 139.533 243.335 137.25 243.335Z" fill="#B1E8FC"/>
<path d="M139.935 239.341H136.834V235.89C136.834 235.777 136.922 235.685 137.031 235.685C137.14 235.685 137.228 235.777 137.228 235.89V238.931H139.935C140.044 238.931 140.132 239.022 140.132 239.136C140.132 239.249 140.044 239.341 139.935 239.341Z" fill="#B1E8FC"/>
<path d="M125.377 237.135H88.167C87.7805 237.135 87.4673 236.808 87.4673 236.406V236.305C87.4673 235.902 87.7805 235.576 88.167 235.576H125.377C125.763 235.576 126.076 235.902 126.076 236.305V236.406C126.076 236.808 125.763 237.135 125.377 237.135Z" fill="#B1E8FC"/>
<path d="M125.377 241.942H88.167C87.7805 241.942 87.4673 241.615 87.4673 241.213V241.112C87.4673 240.709 87.7805 240.383 88.167 240.383H125.377C125.763 240.383 126.076 240.709 126.076 241.112V241.213C126.076 241.615 125.763 241.942 125.377 241.942Z" fill="#B1E8FC"/>
<path d="M89.0584 245.524C89.0584 245.981 88.7022 246.352 88.2629 246.352C87.8235 246.352 87.4673 245.981 87.4673 245.524C87.4673 245.066 87.8235 244.695 88.2629 244.695C88.7022 244.695 89.0584 245.066 89.0584 245.524Z" fill="#B1E8FC"/>
<path d="M91.5195 245.524C91.5195 245.981 91.1633 246.352 90.7239 246.352C90.2845 246.352 89.9283 245.981 89.9283 245.524C89.9283 245.066 90.2845 244.695 90.7239 244.695C91.1633 244.695 91.5195 245.066 91.5195 245.524Z" fill="#B1E8FC"/>
<path d="M93.9807 245.524C93.9807 245.981 93.6245 246.352 93.1851 246.352C92.7457 246.352 92.3895 245.981 92.3895 245.524C92.3895 245.066 92.7457 244.695 93.1851 244.695C93.6245 244.695 93.9807 245.066 93.9807 245.524Z" fill="#B1E8FC"/>
<path d="M202.218 244.513H157.404C157.211 244.513 157.054 244.349 157.054 244.148V243.819C157.054 243.618 157.211 243.455 157.404 243.455H202.218C202.411 243.455 202.568 243.618 202.568 243.819V244.148C202.567 244.349 202.411 244.513 202.218 244.513Z" fill="#BBBBBB"/>
<path d="M202.218 248.944H157.404C157.211 248.944 157.054 248.781 157.054 248.58V248.251C157.054 248.05 157.211 247.886 157.404 247.886H202.218C202.411 247.886 202.568 248.05 202.568 248.251V248.58C202.567 248.781 202.411 248.944 202.218 248.944Z" fill="#BBBBBB"/>
<path d="M156.971 234.398C156.971 232.533 157.3 231.099 157.956 230.095C158.612 229.091 159.543 228.59 160.747 228.59C161.957 228.59 162.886 229.09 163.535 230.091C164.184 231.092 164.509 232.528 164.509 234.398C164.509 236.253 164.182 237.687 163.528 238.7C162.874 239.714 161.947 240.221 160.747 240.221C159.548 240.221 158.618 239.713 157.96 238.696C157.301 237.68 156.971 236.247 156.971 234.398ZM157.864 234.413C157.864 236.008 158.11 237.232 158.601 238.083C159.093 238.934 159.799 239.36 160.718 239.36C161.637 239.36 162.343 238.934 162.835 238.083C163.326 237.232 163.572 236.008 163.572 234.413C163.572 232.812 163.326 231.584 162.835 230.727C162.343 229.871 161.637 229.443 160.718 229.443C159.803 229.443 159.099 229.871 158.605 230.727C158.111 231.584 157.864 232.812 157.864 234.413Z" fill="#BBBBBB"/>
<path d="M168.484 234.054C167.756 233.709 167.22 233.32 166.876 232.888C166.532 232.456 166.36 231.953 166.36 231.379C166.36 230.53 166.66 229.85 167.26 229.34C167.86 228.829 168.666 228.574 169.679 228.574C170.721 228.574 171.531 228.824 172.109 229.325C172.687 229.825 172.976 230.528 172.976 231.432C172.976 232.012 172.805 232.516 172.463 232.945C172.121 233.375 171.601 233.744 170.903 234.054C171.768 234.374 172.41 234.778 172.828 235.266C173.246 235.754 173.455 236.343 173.455 237.034C173.455 238.03 173.133 238.813 172.489 239.382C171.845 239.951 170.959 240.236 169.834 240.236C168.629 240.236 167.685 239.952 167.002 239.386C166.318 238.819 165.976 238.04 165.976 237.05C165.976 236.404 166.171 235.849 166.559 235.384C166.947 234.919 167.589 234.476 168.484 234.054ZM169.635 234.428C168.7 234.768 168.016 235.157 167.581 235.594C167.146 236.031 166.928 236.546 166.928 237.141C166.928 237.827 167.182 238.371 167.691 238.772C168.2 239.174 168.892 239.374 169.767 239.374C170.608 239.374 171.277 239.171 171.774 238.765C172.27 238.358 172.518 237.812 172.518 237.126C172.518 236.481 172.309 235.958 171.891 235.559C171.473 235.161 170.721 234.783 169.635 234.428ZM169.782 233.726C170.539 233.447 171.105 233.118 171.478 232.739C171.852 232.361 172.039 231.925 172.039 231.432C172.039 230.807 171.833 230.317 171.42 229.961C171.007 229.605 170.436 229.427 169.709 229.427C168.976 229.427 168.393 229.603 167.961 229.953C167.528 230.304 167.312 230.769 167.312 231.348C167.312 231.836 167.495 232.259 167.861 232.617C168.227 232.976 168.868 233.345 169.782 233.726Z" fill="#BBBBBB"/>
<path d="M175.83 235.281V233.818H177.083V235.281H175.83ZM175.83 240.03V238.559H177.083V240.03H175.83Z" fill="#BBBBBB"/>
<path d="M181.464 233.551H182.674C183.466 233.551 184.091 233.36 184.551 232.979C185.011 232.598 185.241 232.082 185.241 231.432C185.241 230.843 185.037 230.364 184.628 229.995C184.22 229.627 183.689 229.443 183.035 229.443C182.465 229.443 181.975 229.567 181.564 229.816C181.153 230.065 180.788 230.456 180.469 230.99L179.739 230.54C180.112 229.89 180.575 229.399 181.125 229.069C181.676 228.739 182.308 228.574 183.021 228.574C183.974 228.574 184.741 228.841 185.322 229.374C185.902 229.908 186.192 230.614 186.192 231.493C186.192 232.067 186.053 232.549 185.775 232.937C185.498 233.326 185.061 233.65 184.466 233.909V234.023C185.194 234.278 185.731 234.633 186.078 235.091C186.424 235.548 186.598 236.127 186.598 236.828C186.598 237.84 186.272 238.658 185.62 239.283C184.969 239.908 184.112 240.22 183.05 240.22C182.205 240.22 181.454 240.025 180.797 239.633C180.141 239.242 179.613 238.678 179.215 237.941L180.012 237.438C180.346 238.083 180.759 238.567 181.251 238.89C181.742 239.213 182.313 239.374 182.962 239.374C183.763 239.374 184.414 239.145 184.913 238.688C185.412 238.231 185.661 237.636 185.661 236.905C185.661 236.117 185.39 235.494 184.846 235.037C184.303 234.58 183.557 234.351 182.608 234.351H181.465L181.464 233.551Z" fill="#BBBBBB"/>
<path d="M188.382 234.398C188.382 232.533 188.711 231.099 189.367 230.095C190.023 229.091 190.954 228.59 192.158 228.59C193.368 228.59 194.297 229.09 194.946 230.091C195.595 231.092 195.92 232.528 195.92 234.398C195.92 236.253 195.593 237.687 194.939 238.7C194.285 239.714 193.358 240.221 192.158 240.221C190.959 240.221 190.029 239.713 189.371 238.696C188.712 237.68 188.382 236.247 188.382 234.398ZM189.275 234.413C189.275 236.008 189.521 237.232 190.012 238.083C190.504 238.934 191.21 239.36 192.129 239.36C193.048 239.36 193.754 238.934 194.246 238.083C194.737 237.232 194.983 236.008 194.983 234.413C194.983 232.812 194.737 231.584 194.246 230.727C193.754 229.871 193.048 229.443 192.129 229.443C191.214 229.443 190.51 229.871 190.016 230.727C189.522 231.584 189.275 232.812 189.275 234.413Z" fill="#BBBBBB"/>
<path d="M228.667 237.738L228.686 238.896L228.706 240.054L230.309 240.332C230.474 241.014 230.744 241.652 231.1 242.226L230.201 243.637L231 244.442L231.8 245.246L233.122 244.261C233.685 244.612 234.307 244.87 234.967 245.018L235.289 246.678L236.4 246.658L237.511 246.638L237.778 244.967C238.433 244.795 239.045 244.514 239.596 244.144L240.951 245.08L241.723 244.247L242.495 243.414L241.55 242.037C241.886 241.45 242.134 240.803 242.276 240.115L243.87 239.779L243.85 238.621L243.831 237.464L242.227 237.186C242.062 236.504 241.793 235.866 241.437 235.291L242.336 233.88L241.536 233.076L240.737 232.272L239.415 233.256C238.851 232.906 238.23 232.648 237.57 232.499L237.248 230.839L236.136 230.859L235.025 230.88L234.759 232.55C234.104 232.722 233.491 233.003 232.94 233.374L231.586 232.437L230.814 233.27L230.042 234.103L230.987 235.48C230.65 236.067 230.402 236.715 230.26 237.403L228.667 237.738ZM232.1 238.834C232.06 236.435 233.894 234.457 236.196 234.416C238.498 234.374 240.397 236.284 240.437 238.683C240.477 241.082 238.643 243.06 236.341 243.102C234.039 243.143 232.14 241.233 232.1 238.834Z" fill="#B1E8FC"/>
<path d="M100.613 88.5049L102.372 89.297L104.328 90.2632C104.328 90.2632 107.365 90.8125 107.409 90.8022C107.416 90.8008 107.157 91.2731 107.157 91.2731C110.926 91.7575 122.804 92.2657 124.754 92.4925C125.93 92.6292 127.06 94.1518 127.772 95.34L126.807 96.0206C126.807 96.0206 116.433 95.5441 116.454 95.771C116.46 95.8426 116.753 96.9154 117.208 98.319C110.801 98.7651 101.828 98.7223 100.162 95.9719C98.7949 93.7155 100.128 90.4765 100.613 88.5049Z" fill="#FE9F73"/>
<path d="M140.912 137.009L133.029 137.121L132.916 129.445L140.768 128.432L140.912 137.009Z" fill="#FE9F73"/>
<path d="M148.505 139.86L132.529 137.834L132.916 134.514C132.916 134.514 134.265 133.068 135.939 134.106C135.939 134.106 138.33 136.396 140.963 134.355L146.572 137.728C146.572 137.728 148.637 138.731 148.505 139.86Z" fill="#E23E3D"/>
<path d="M132.393 138.995L148.9 141.089C148.99 141.101 149.072 141.034 149.083 140.94L149.179 140.118C149.19 140.024 149.126 139.939 149.036 139.927L132.528 137.833L132.393 138.995Z" fill="#472A31"/>
<path d="M142.623 135.354C141.986 136.15 140.707 137.75 139.893 138.768L138.804 138.63C139.531 137.72 141.055 135.814 141.813 134.867L142.623 135.354Z" fill="#D7E4F7"/>
<path d="M141.639 138.989L140.55 138.851C141.142 138.111 142.295 136.668 143.112 135.647L143.922 136.135C143.236 136.992 142.285 138.181 141.639 138.989Z" fill="#D7E4F7"/>
<path d="M116.397 109.635C116.397 109.635 109.612 109.752 104.855 109.582C103.329 109.528 101.97 109.64 101.166 109.453C97.8556 108.688 97.0401 97.9234 100.799 91.3285C104.558 84.7336 117.709 104.982 117.709 104.982L116.397 109.635Z" fill="#727272"/>
<path d="M128.677 137.009L120.794 137.121L120.681 129.445L128.533 128.432L128.677 137.009Z" fill="#FE9F73"/>
<path d="M135.702 140.697L119.926 137.377L120.562 134.099C120.562 134.099 122.015 132.767 123.606 133.937C123.606 133.937 125.818 136.416 128.595 134.595L133.934 138.414C133.934 138.414 135.919 139.582 135.702 140.697Z" fill="#E23E3D"/>
<path d="M119.704 138.524L136.004 141.954C136.093 141.973 136.18 141.913 136.198 141.82L136.355 141.009C136.373 140.916 136.315 140.826 136.226 140.807L119.926 137.376L119.704 138.524Z" fill="#683D46"/>
<path d="M130.176 135.726C129.481 136.467 128.086 137.959 127.198 138.907L126.123 138.681C126.916 137.833 128.578 136.057 129.405 135.174L130.176 135.726Z" fill="#D7E4F7"/>
<path d="M128.923 139.27L127.847 139.044C128.493 138.354 129.75 137.01 130.641 136.058L131.412 136.61C130.664 137.409 129.627 138.517 128.923 139.27Z" fill="#D7E4F7"/>
<path d="M123.704 95.2302C123.704 95.2302 140.372 96.3398 140.854 98.3449C141.335 100.35 142.714 121.668 141.682 130.762C141.682 130.762 135.358 131.216 132.334 130.452L131.598 108.276L126.605 107.68L115.169 93.3574L123.704 95.2302Z" fill="#727272"/>
<path d="M115.695 94.9019C115.695 94.9019 128.55 98.6805 129.031 100.686C129.513 102.691 130.882 121.716 129.851 130.81C129.851 130.81 123.051 131.216 120.026 130.452L119.211 109.533L116.278 109.64L109.165 96.6038L115.695 94.9019Z" fill="#727272"/>
<path d="M124.107 131.058C121.102 131.058 120.03 130.586 119.98 130.563L119.913 130.532L119.124 109.491L120.366 110.101L120.267 110.319L119.371 109.879L120.139 130.367C120.464 130.484 122.023 130.953 125.703 130.776L125.714 131.017C125.126 131.045 124.591 131.058 124.107 131.058Z" fill="#21111D"/>
<path d="M121.289 126.52C120.968 125.231 120.876 112.662 120.873 112.127L121.105 112.126C121.105 112.256 121.2 125.199 121.513 126.459L121.289 126.52Z" fill="#21111D"/>
<path d="M133.235 108.749C131.71 108.236 129.612 108.159 129.591 108.158L129.599 107.916C129.62 107.917 131.75 107.995 133.306 108.519L133.235 108.749Z" fill="#21111D"/>
<path d="M136.665 131.013C134.097 131.013 132.324 130.574 132.306 130.57L132.221 130.548L131.476 108.125L132.427 108.922L132.281 109.11L131.726 108.645L132.446 130.354C132.84 130.443 134.553 130.795 136.89 130.77L136.892 131.011C136.816 131.012 136.74 131.013 136.665 131.013Z" fill="#21111D"/>
<path d="M133.431 126.987C133.112 125.041 133.416 111.865 133.429 111.305L133.661 111.311C133.658 111.448 133.344 125.023 133.66 126.947L133.431 126.987Z" fill="#21111D"/>
<path d="M111.291 109.861C108.331 109.861 104.781 109.756 100.79 109.443L100.808 109.203C112.698 110.136 120.672 109.213 120.751 109.204L120.777 109.443C120.724 109.449 117.17 109.861 111.291 109.861Z" fill="#21111D"/>
<path d="M115.361 88.1497C115.591 88.1456 124.825 92.2826 124.825 92.2826L122.964 95.992L117.782 94.8071L115.361 88.1497Z" fill="#FD7583"/>
<path d="M101.983 70.9103C101.983 70.9103 98.0564 70.7672 96.182 71.8734C93.385 73.5242 94.3813 82.9785 94.3813 82.9785C94.3813 82.9785 96.7581 81.6279 96.9023 81.1777C97.0464 80.7275 101.983 70.9103 101.983 70.9103Z" fill="#E0CBB2"/>
<path d="M101.03 91.4322C101.035 91.4341 101.04 91.4355 101.045 91.4367L103.933 92.1253C103.992 92.139 104.049 92.1012 104.063 92.0406C104.076 91.98 104.04 91.9199 103.982 91.9057L101.093 91.2172C101.035 91.2034 100.977 91.2412 100.963 91.3018C100.951 91.3574 100.981 91.4127 101.03 91.4322Z" fill="#21111D"/>
<path d="M99.5207 89.6431L101.279 90.4352L103.235 91.4013C103.235 91.4013 106.273 91.9507 106.317 91.9404C106.323 91.939 106.064 92.4113 106.064 92.4113C109.833 92.8957 121.712 93.4039 123.662 93.6307C124.838 93.7674 125.968 95.29 126.68 96.4782L125.714 97.1588C125.714 97.1588 115.341 96.6823 115.361 96.9092C115.368 96.9808 115.661 98.0536 116.115 99.4572C109.708 99.9033 100.736 99.8605 99.0694 97.11C97.7025 94.8536 99.0351 91.6147 99.5207 89.6431Z" fill="#F9B59D"/>
<path d="M98.182 71.6485C100.414 71.3266 106.302 71.1045 106.302 71.1045C106.302 71.1045 107.082 71.3177 106.833 71.1975C113.336 72.3936 114.055 77.4171 114.055 77.4171L117.229 91.9312L120.761 92.1305C121.904 94.3867 121.065 100.473 121.065 100.473L103.956 102.481C103.956 102.481 100.258 103.116 97.1307 98.938C95.0617 96.1738 94.3578 87.6869 94.3586 81.4859C94.3588 81.4856 94.7143 72.1486 98.182 71.6485Z" fill="#7FAA9B"/>
<path d="M146.102 82.8872H129.812L124.132 97.9581H140.421L146.102 82.8872Z" fill="#919191"/>
<path d="M124.132 97.9581H124.982L130.662 82.8872H129.812L124.132 97.9581Z" fill="#C4C4C4"/>
<path d="M135.452 89.9424C135.227 90.6347 135.392 91.3193 135.822 91.4714C136.252 91.6237 136.783 91.1858 137.009 90.4933C137.235 89.801 137.07 89.1163 136.64 88.9642C136.21 88.8122 135.678 89.2501 135.452 89.9424Z" fill="#E2F2F1"/>
<path d="M118.747 96.741H124.832V97.958H118.747C118.424 97.958 118.162 97.6855 118.162 97.3495C118.162 97.0133 118.424 96.741 118.747 96.741Z" fill="#C4C4C4"/>
<path d="M120.287 97.3496H124.131V97.158H120.287V97.3496Z" fill="#919191"/>
<path d="M103.933 92.1822C103.953 92.1899 103.974 92.1917 103.996 92.1864C104.054 92.1721 104.09 92.1116 104.077 92.0511C104.059 91.9716 102.271 84.0537 101.51 79.0712C101.5 79.0097 101.445 78.968 101.386 78.9777C101.327 78.9876 101.287 79.0452 101.296 79.1065C102.059 84.0974 103.848 92.0231 103.866 92.1026C103.875 92.1406 103.901 92.1694 103.933 92.1822Z" fill="#21111D"/>
<path d="M114.999 92.0523C115.021 92.061 115.045 92.0621 115.069 92.0543C115.126 92.0357 115.158 91.9724 115.14 91.9131C115.113 91.8248 112.461 83.0567 111.906 80.0254C111.895 79.9643 111.839 79.9244 111.78 79.9358C111.722 79.9474 111.683 80.0064 111.694 80.0673C112.251 83.1117 114.907 91.8924 114.934 91.9807C114.944 92.0151 114.969 92.0406 114.999 92.0523Z" fill="#21111D"/>
<path d="M104.214 75.3584C104.298 75.3673 104.383 75.375 104.47 75.3814C104.519 75.385 104.562 75.3462 104.565 75.2945C104.569 75.2432 104.533 75.1987 104.482 75.1947C100.761 74.9226 100.07 72.0849 100.065 72.0564C100.056 72.0066 100.01 71.9719 99.9618 71.9806C99.9138 71.989 99.8806 72.0347 99.8875 72.0849C99.8917 72.1143 100.578 74.9665 104.214 75.3584Z" fill="#21111D"/>
<path d="M115.758 89.9597C115.807 89.9788 115.862 89.9592 115.889 89.911L116.615 88.6164L116.605 88.573L114.161 77.3959C114.146 77.295 113.934 75.9926 112.874 74.5563C111.88 73.2098 109.921 71.4976 106.229 70.9859C106.17 70.9776 106.115 71.021 106.108 71.0825C106.1 71.144 106.141 71.2008 106.2 71.2089C109.813 71.7094 111.726 73.3745 112.695 74.6833C113.746 76.1015 113.946 77.4202 113.948 77.4333L113.949 77.4417L116.385 88.5795L115.703 89.7974C115.673 89.8511 115.69 89.92 115.742 89.9514C115.747 89.9547 115.753 89.9575 115.758 89.9597Z" fill="#21111D"/>
<path d="M119.583 90.0006C119.638 90.0223 119.7 89.9941 119.722 89.937C119.744 89.8793 119.717 89.8139 119.662 89.7907L116.54 88.4937C116.482 88.473 116.422 88.4987 116.4 88.5565C116.377 88.6142 116.404 88.6796 116.46 88.7028L119.581 89.9998C119.582 90.0001 119.583 90.0004 119.583 90.0006Z" fill="#21111D"/>
<path d="M120.761 92.1301C120.761 92.1301 121.89 94.9057 121.065 100.472L116.936 98.1649L118.162 94.0063L120.761 92.1301Z" fill="#E0CBB2"/>
<path d="M100.202 92.2827C100.215 92.2878 100.229 92.2904 100.243 92.29C100.398 92.285 115.684 91.8072 120.685 92.237C120.808 92.579 121.372 94.3461 121.214 97.5791C121.211 97.6412 121.257 97.6942 121.317 97.6974C121.376 97.7005 121.427 97.6528 121.43 97.5907C121.609 93.9271 120.891 92.1594 120.86 92.0859L120.834 92.0244L120.77 92.0186C115.827 91.5777 100.392 92.0602 100.237 92.0651C100.177 92.067 100.13 92.1189 100.132 92.181C100.133 92.2277 100.162 92.2671 100.202 92.2827Z" fill="#21111D"/>
<path d="M107.19 62.6625L107.312 67.5605C107.312 67.5605 107.415 69.1334 106.097 69.3659L106.396 71.4599C106.507 72.2384 106.078 72.9981 105.364 73.255C105.015 73.3806 104.597 73.4768 104.12 73.4896C102.609 73.5304 101.76 72.3716 101.62 71.7845C101.479 71.1974 101.787 68.3662 101.787 68.3662L101.706 66.9813L101.744 61.6055L107.19 62.6625Z" fill="#FE9F73"/>
<path d="M102.998 68.1111C102.998 68.1111 103.152 70.7442 106.318 70.9104L106.097 69.3659C106.097 69.3659 104.059 69.8501 102.998 68.1111Z" fill="#F07162"/>
<path d="M103.605 65.3301C103.589 65.3305 103.574 65.3249 103.561 65.313C103.535 65.2887 103.534 65.2472 103.557 65.2204C103.565 65.2107 104.409 64.2643 105.217 64.9074C105.244 64.9294 105.25 64.9705 105.228 64.9993C105.207 65.0282 105.168 65.0337 105.14 65.0116C104.424 64.442 103.681 65.2731 103.65 65.3088C103.638 65.3224 103.622 65.3297 103.605 65.3301Z" fill="#49263E"/>
<path d="M101.418 64.7005L102.784 64.9585L103.036 65.2169C103.036 65.2169 102.86 62.8464 102.592 62.3866C102.324 61.927 101.418 64.7005 101.418 64.7005Z" fill="#4C222E"/>
<path d="M106.191 64.8664C106.174 64.8668 106.156 64.8596 106.143 64.8449C106.12 64.8182 106.122 64.7768 106.147 64.7523C106.172 64.7287 106.759 64.1772 107.148 64.5063C107.175 64.5292 107.179 64.5704 107.157 64.5986C107.135 64.6269 107.095 64.6311 107.068 64.6082C106.764 64.3505 106.238 64.8444 106.232 64.8494C106.221 64.8603 106.206 64.8661 106.191 64.8664Z" fill="#49263E"/>
<path d="M104.885 65.5609C104.888 65.6696 104.806 65.7601 104.701 65.7628C104.597 65.7656 104.51 65.6798 104.508 65.5711C104.505 65.4624 104.587 65.372 104.692 65.3692C104.796 65.3665 104.883 65.4523 104.885 65.5609Z" fill="black"/>
<path d="M106.889 65.31C106.891 65.4187 106.809 65.5091 106.705 65.5119C106.6 65.5146 106.513 65.4288 106.511 65.3201C106.508 65.2114 106.591 65.121 106.695 65.1182C106.799 65.1155 106.886 65.2013 106.889 65.31Z" fill="black"/>
<path d="M103.323 65.5348C103.339 66.187 102.845 66.7294 102.219 66.7463C101.593 66.7633 101.072 66.2482 101.056 65.596C101.04 64.9438 101.534 64.4014 102.16 64.3844C102.786 64.3675 103.307 64.8825 103.323 65.5348Z" fill="#FE9F73"/>
<path d="M102.008 66.2261C101.772 66.2325 101.61 66.0523 101.554 65.8696C101.487 65.6532 101.552 65.4396 101.719 65.3252C101.966 65.156 102.197 65.2541 102.315 65.3308C102.263 65.1981 102.184 65.1026 102.079 65.0463C101.852 64.9243 101.578 65.025 101.575 65.026C101.559 65.0323 101.541 65.0234 101.535 65.0062C101.529 64.9891 101.537 64.9705 101.554 64.9642C101.566 64.9596 101.856 64.8527 102.107 64.9877C102.253 65.0655 102.354 65.2078 102.407 65.4101L102.438 65.5236L102.355 65.4427C102.344 65.4312 102.067 65.1654 101.754 65.38C101.58 65.4988 101.57 65.7072 101.614 65.8495C101.659 65.9972 101.789 66.1664 102.006 66.1606C102.008 66.1606 102.01 66.1603 102.012 66.1603C102.03 66.1599 102.044 66.1738 102.045 66.1918C102.045 66.2099 102.032 66.2251 102.014 66.226C102.012 66.226 102.01 66.226 102.008 66.2261Z" fill="#F07162"/>
<path d="M105.585 66.8706C105.572 66.8709 105.559 66.8625 105.554 66.8489C105.548 66.8318 105.557 66.813 105.573 66.8069L106.199 66.5723L105.961 65.0301C105.958 65.0123 105.97 64.9954 105.987 64.9925C106.005 64.9891 106.021 65.0017 106.023 65.0197L106.27 66.6156L105.595 66.8684C105.591 66.8699 105.588 66.8704 105.585 66.8706Z" fill="#F07162"/>
<path d="M105.112 67.5224C105.131 67.5179 106.358 67.4548 106.358 67.4548C106.358 67.4548 106.217 67.9878 105.761 68.0126C105.305 68.0373 105.112 67.5224 105.112 67.5224Z" fill="#FBFDFC"/>
<path d="M101.418 64.7001C101.418 64.7001 100.978 62.411 101.632 61.5356C102.287 60.6602 106.128 59.0555 106.609 59.4714C107.09 59.8873 106.632 60.4203 106.632 60.4203C106.632 60.4203 108.177 59.8578 108.565 61.287C108.954 62.7162 105.619 63.4189 103.604 62.7994C103.604 62.7994 102.293 63.2368 101.418 64.7001Z" fill="#4C222E"/>
<path d="M100.976 102.146C101.23 102.246 101.469 102.324 101.689 102.385C103.011 102.751 103.935 102.599 103.974 102.592C104.033 102.582 104.073 102.524 104.063 102.463C104.053 102.402 103.998 102.36 103.939 102.37C103.93 102.372 103.013 102.521 101.733 102.164C100.552 101.836 98.8096 100.997 97.216 98.8684C95.2155 96.1959 94.4848 87.9674 94.4669 81.7332C94.4667 81.6712 94.4181 81.6207 94.3585 81.6211C94.2988 81.6212 94.2506 81.6717 94.2509 81.734C94.2688 88.0037 95.0116 96.2895 97.0455 99.0069C98.3839 100.795 99.8287 101.695 100.976 102.146Z" fill="#21111D"/>
<path d="M127.273 245.163C127.18 245.089 125.108 243.349 124.945 243.267C123.421 244.339 123.624 247.238 121.945 248.417C123.035 248.657 123.807 248.809 124.116 248.856L125.049 251.013L125.178 251.578C125.238 251.846 125.54 252.041 125.852 252.013C126.164 251.986 126.368 251.747 126.307 251.479L126.361 251.716C126.421 251.984 126.723 252.178 127.035 252.151C127.347 252.124 127.551 251.885 127.49 251.617C127.551 251.885 127.853 252.079 128.165 252.052C128.477 252.025 128.681 251.785 128.62 251.518L128.566 251.281C128.627 251.549 128.929 251.744 129.241 251.716C129.259 251.714 129.277 251.712 129.294 251.709H129.295C129.315 251.706 129.335 251.701 129.354 251.696C129.65 251.622 129.774 251.484 129.804 251.338C129.867 251.032 129.419 249.338 129.223 248.539C128.936 247.29 128.39 246.043 127.273 245.163Z" fill="#F9956E"/>
<path d="M128.628 251.537C128.638 251.537 128.648 251.535 128.658 251.531C128.703 251.514 128.726 251.462 128.71 251.415L127.481 247.979C127.465 247.932 127.415 247.908 127.37 247.925C127.325 247.943 127.302 247.995 127.318 248.042L128.547 251.478C128.56 251.514 128.593 251.537 128.628 251.537Z" fill="#F07162"/>
<path d="M127.509 251.813C127.519 251.813 127.529 251.812 127.539 251.808C127.584 251.79 127.607 251.738 127.59 251.691L126.476 248.574C126.459 248.528 126.409 248.504 126.364 248.521C126.319 248.539 126.296 248.591 126.313 248.638L127.427 251.755C127.44 251.791 127.473 251.813 127.509 251.813Z" fill="#F07162"/>
<path d="M122.636 241.282C124.279 242.675 127.232 245.186 127.84 245.756C128.692 246.556 124.711 250.005 124.711 250.005C124.711 250.005 120.103 247.463 117.57 245.649L122.636 241.282Z" fill="#F9956E"/>
<path d="M126.345 251.748C126.355 251.748 126.366 251.746 126.376 251.742C126.421 251.725 126.443 251.673 126.427 251.626L125.531 249.121C125.515 249.074 125.465 249.05 125.42 249.068C125.375 249.085 125.352 249.137 125.368 249.184L126.264 251.689C126.277 251.726 126.31 251.748 126.345 251.748Z" fill="#F07162"/>
<path d="M139.293 248.897C139.322 248.897 139.351 248.887 139.375 248.865L141.206 247.213C141.258 247.166 141.264 247.084 141.219 247.03C141.174 246.976 141.095 246.97 141.043 247.017L139.212 248.669C139.16 248.716 139.154 248.798 139.199 248.852C139.224 248.882 139.258 248.897 139.293 248.897Z" fill="#21111D"/>
<path d="M102.229 251.995C102.229 251.995 103.688 247.397 119.211 248.251C136.958 249.227 149.047 246.035 152.19 251.995L127.595 261.506L102.229 251.995Z" fill="#605252"/>
<path d="M130.147 260.189C130.147 260.189 116.065 251.35 111.125 250.023C106.186 248.696 102.766 250.446 102.229 251.995C101.692 253.544 101.187 257.724 104.472 260.189C105.893 261.255 122.137 266.288 126.432 267.463C126.432 267.463 130.418 265.716 130.147 260.189Z" fill="#605252"/>
<path d="M127.165 258.491C127.208 258.491 127.249 258.468 127.273 258.427C127.308 258.366 127.289 258.286 127.229 258.249C113.745 249.852 109.327 249.438 109.146 249.424C109.075 249.418 109.017 249.473 109.012 249.545C109.007 249.616 109.059 249.678 109.128 249.684C109.172 249.687 113.694 250.123 127.101 258.472C127.122 258.485 127.144 258.491 127.165 258.491Z" fill="#21111D"/>
<path d="M123.57 268.894L129.939 265.514L126.876 259.25L121.68 262.006C121.68 262.006 113.09 261.93 112.679 262.348C112.268 262.767 121.573 269.953 123.57 268.894Z" fill="#FE9F73"/>
<path d="M125.757 267.733C123.928 265.633 122.934 262.588 122.623 261.506L121.68 262.006C121.68 262.006 113.09 261.93 112.679 262.348C112.268 262.767 121.573 269.953 123.569 268.894L125.757 267.733Z" fill="#472A31"/>
<path d="M124.271 260.189C124.271 260.189 138.353 251.35 143.293 250.023C148.233 248.696 151.652 250.446 152.189 251.995C152.726 253.544 153.231 257.724 149.947 260.189C148.525 261.255 131.143 266.609 126.847 267.783C126.847 267.783 124 265.716 124.271 260.189Z" fill="#605252"/>
<path d="M126.847 267.914C126.888 267.914 126.928 267.893 126.951 267.856C126.989 267.796 126.974 267.715 126.916 267.676C124.54 266.042 124.404 260.938 124.396 260.264C125.382 259.667 137.617 252.281 142.496 250.376C142.56 250.35 142.593 250.275 142.569 250.208C142.545 250.141 142.473 250.107 142.408 250.132C137.328 252.116 124.339 259.997 124.208 260.077L124.147 260.114L124.146 260.188C124.145 260.428 124.132 266.073 126.779 267.893C126.8 267.907 126.824 267.914 126.847 267.914Z" fill="#21111D"/>
<path d="M103.688 251.862C103.727 251.862 103.765 251.843 103.789 251.808C103.797 251.797 104.292 251.129 105.905 251.15C105.977 251.152 106.03 251.093 106.031 251.021C106.032 250.949 105.976 250.891 105.907 250.89C104.145 250.867 103.608 251.625 103.586 251.657C103.546 251.716 103.56 251.797 103.616 251.838C103.638 251.855 103.663 251.862 103.688 251.862Z" fill="#21111D"/>
<path d="M104.489 252.512C104.521 252.512 104.554 252.499 104.578 252.472C104.588 252.462 105.172 251.878 106.763 252.143C106.831 252.155 106.895 252.107 106.906 252.036C106.917 251.965 106.871 251.898 106.803 251.887C105.061 251.597 104.425 252.264 104.399 252.292C104.351 252.344 104.353 252.426 104.403 252.476C104.427 252.5 104.458 252.512 104.489 252.512Z" fill="#21111D"/>
<path d="M130.476 213.841C130.476 213.841 129.736 220.774 128.742 220.843C127.748 220.913 129.428 229.032 132.062 225.054C132.985 223.66 132.944 214.54 130.742 212.589C128.539 210.639 130.476 213.841 130.476 213.841Z" fill="#49263E"/>
<path d="M130.837 212.1C130.837 212.1 131.752 218.65 130.929 219.816C130.929 219.816 130.526 220.435 129.544 220.469L129.621 224.318L125.179 223.789L125.031 212.841C125.031 212.841 126.297 210.135 126.299 210.247C126.3 210.358 130.837 212.1 130.837 212.1Z" fill="#FE9F73"/>
<path d="M129.485 217.565C129.472 217.566 129.46 217.552 129.456 217.533C129.453 217.51 129.462 217.488 129.478 217.483C129.66 217.422 129.772 217.089 129.803 216.98C129.54 216.779 129.377 216.516 129.32 216.196C129.226 215.676 129.445 215.2 129.454 215.18C129.463 215.161 129.481 215.157 129.494 215.17C129.507 215.183 129.51 215.209 129.502 215.228C129.499 215.233 129.288 215.693 129.375 216.176C129.43 216.481 129.59 216.732 129.852 216.923L129.875 216.939L129.866 216.975C129.861 216.995 129.738 217.482 129.491 217.564C129.489 217.565 129.487 217.565 129.485 217.565Z" fill="#F07162"/>
<path d="M129.562 221.778L129.545 220.468C129.545 220.468 127.418 220.369 126.103 219.533C126.103 219.533 127.896 221.279 129.562 221.778Z" fill="#F07162"/>
<path d="M126.546 215.395C126.526 215.395 126.506 215.387 126.49 215.372C126.458 215.341 126.456 215.288 126.486 215.254C126.497 215.243 127.511 214.13 128.464 214.907C128.499 214.935 128.505 214.988 128.478 215.024C128.45 215.061 128.4 215.067 128.365 215.039C127.529 214.357 126.641 215.327 126.604 215.368C126.588 215.385 126.567 215.394 126.546 215.395Z" fill="#49263E"/>
<path d="M129.851 215.17C129.829 215.171 129.806 215.161 129.79 215.142C129.76 215.108 129.763 215.055 129.796 215.024C129.826 214.996 130.533 214.348 130.992 214.747C131.026 214.777 131.031 214.83 131.002 214.865C130.974 214.901 130.923 214.906 130.889 214.876C130.536 214.57 129.91 215.143 129.903 215.149C129.888 215.163 129.87 215.17 129.851 215.17Z" fill="#49263E"/>
<path d="M128.159 215.837C128.161 215.966 128.062 216.072 127.939 216.073C127.815 216.075 127.714 215.972 127.712 215.844C127.71 215.715 127.809 215.609 127.932 215.607C128.056 215.605 128.158 215.708 128.159 215.837Z" fill="black"/>
<path d="M130.779 215.806C130.781 215.935 130.682 216.041 130.559 216.042C130.435 216.044 130.333 215.941 130.332 215.813C130.33 215.684 130.429 215.578 130.552 215.576C130.676 215.574 130.777 215.677 130.779 215.806Z" fill="black"/>
<path d="M128.382 217.954C128.407 217.953 129.964 218.133 129.964 218.133C129.964 218.133 129.683 218.775 129.104 218.709C128.525 218.644 128.382 217.954 128.382 217.954Z" fill="#FBFDFC"/>
<path d="M128.911 212.228L127.833 210.669C127.833 210.669 129.566 211.798 129.422 211.845C129.278 211.891 128.911 212.228 128.911 212.228Z" fill="#FE9F73"/>
<path d="M125.675 211.489C125.675 211.489 125.985 213.931 131.601 214.424C131.601 214.424 132.906 210.81 128.827 209.602C124.749 208.394 124.379 211.652 124.461 211.622C124.544 211.592 125.675 211.489 125.675 211.489Z" fill="#49263E"/>
<path d="M126.523 212.858C126.523 212.858 125.485 214.465 125.004 215.623C125.004 215.623 126.878 225.853 123.098 225.28L122.422 225.27C119.078 225.223 121.393 217.683 121.449 213.681C121.485 211.176 124.405 208.632 126.304 210.158C128.204 211.685 126.523 212.858 126.523 212.858Z" fill="#49263E"/>
<path d="M125.965 216.874C125.974 217.596 125.421 218.19 124.728 218.2C124.035 218.21 123.465 217.633 123.455 216.911C123.445 216.19 123.999 215.596 124.692 215.586C125.385 215.576 125.955 216.153 125.965 216.874Z" fill="#FE9F73"/>
<path d="M124.628 217.701C124.365 217.705 124.186 217.501 124.125 217.296C124.053 217.053 124.129 216.815 124.317 216.69C124.586 216.511 124.833 216.609 124.968 216.695C124.912 216.557 124.829 216.456 124.719 216.395C124.471 216.258 124.169 216.365 124.166 216.367C124.145 216.374 124.122 216.363 124.115 216.341C124.108 216.319 124.119 216.295 124.14 216.288C124.154 216.283 124.478 216.167 124.757 216.321C124.917 216.41 125.028 216.57 125.086 216.796L125.123 216.941L125.019 216.837C125.006 216.824 124.707 216.529 124.361 216.76C124.17 216.888 124.156 217.115 124.202 217.271C124.251 217.435 124.392 217.623 124.633 217.617C124.655 217.616 124.674 217.635 124.675 217.658C124.675 217.681 124.658 217.7 124.636 217.701C124.633 217.701 124.63 217.701 124.628 217.701Z" fill="#F07162"/>
<path d="M131.089 210.993C131.089 210.993 133.036 213.134 132.589 219.291L131.247 213.217L131.089 210.993Z" fill="#49263E"/>
<path d="M129.785 235.135L127.079 223.295H119.705C118.922 223.295 117.844 223.833 117.798 223.856C114.839 225.498 106.697 234.845 107.103 240.735C107.472 246.082 114.861 245.019 122.224 246.258L123.86 239.168L121.198 238.426L129.785 235.135Z" fill="#7FC6A6"/>
<path d="M127.344 236.884V223.295H134.718C135.501 223.295 136.58 223.833 136.626 223.856C139.585 225.498 148.747 235.141 148.341 241.031C147.972 246.378 139.333 246.162 135.283 247.464L133.033 238.987L133.233 238.555L127.344 236.884Z" fill="#7FC6A6"/>
<path d="M139.297 238.732L139.203 253.552C139.203 253.552 126.327 256.003 114.861 252.826C114.58 252.748 115.399 240.578 115.399 240.578C115.399 240.578 115.399 238.217 116.594 237.488C117.789 236.758 127.54 232.251 127.774 232.251C128.007 232.251 139.297 238.732 139.297 238.732Z" fill="#7FC6A6"/>
<path d="M126.951 227.414C127.024 227.414 127.085 227.355 127.09 227.279C127.095 227.199 127.036 227.13 126.96 227.125C122.729 226.848 121.348 223.829 121.334 223.799C121.302 223.726 121.22 223.694 121.15 223.727C121.08 223.761 121.05 223.846 121.082 223.919C121.096 223.951 122.538 227.126 126.942 227.414C126.945 227.414 126.948 227.414 126.951 227.414Z" fill="#21111D"/>
<path d="M131.615 223.295H122.287C122.287 223.295 123.973 226.337 127.197 226.324C128.675 226.318 130.256 225.752 131.615 223.295Z" fill="#FE9F73"/>
<path d="M125.868 242.891C125.276 242.267 125.824 241.473 125.824 241.473C125.604 240.529 125.847 240.115 125.847 240.115C125.847 240.115 128.335 240.884 129.748 241.429C130.546 241.304 130.828 240.898 130.828 240.898L130.848 240.933C130.864 240.213 130.883 239.312 130.883 239.211C130.883 239.039 131.147 238.764 131.559 239.308C131.971 239.851 132.768 241.311 132.768 241.311L134.828 240.052L136.504 246.09C136.504 246.09 131.505 246.827 130.736 246.884C129.967 246.941 127.289 246.284 126.492 245.597C125.696 244.91 125.868 244.295 125.868 244.295C125.276 243.553 125.868 242.891 125.868 242.891Z" fill="#F78C63"/>
<path d="M131.294 238.897V240.767C131.294 240.767 130.764 241.584 129.748 241.429L128.976 241.131L129.584 238.413L131.294 238.897Z" fill="#FD7583"/>
<path d="M127.517 242.401C127.556 242.401 127.592 242.375 127.605 242.334C127.621 242.283 127.594 242.229 127.545 242.213C126.862 241.982 125.88 241.396 125.87 241.39C125.826 241.364 125.769 241.379 125.743 241.426C125.718 241.472 125.733 241.531 125.778 241.558C125.818 241.582 126.787 242.16 127.488 242.396C127.498 242.4 127.507 242.401 127.517 242.401Z" fill="#F07162"/>
<path d="M127.517 243.624C127.561 243.624 127.6 243.592 127.608 243.545C127.617 243.493 127.584 243.443 127.534 243.433C126.675 243.266 125.922 242.812 125.914 242.808C125.87 242.781 125.813 242.796 125.787 242.842C125.762 242.888 125.777 242.947 125.821 242.974C125.852 242.994 126.608 243.45 127.5 243.623C127.506 243.624 127.511 243.624 127.517 243.624Z" fill="#F07162"/>
<path d="M127.311 245.019C127.354 245.019 127.392 244.988 127.401 244.943C127.412 244.891 127.38 244.839 127.33 244.828C126.593 244.662 125.924 244.218 125.917 244.214C125.874 244.185 125.817 244.198 125.789 244.243C125.762 244.288 125.774 244.348 125.817 244.376C125.846 244.395 126.521 244.844 127.291 245.017C127.298 245.019 127.304 245.019 127.311 245.019Z" fill="#F07162"/>
<path d="M133.345 240.162L136.183 239.426C136.183 239.426 137.783 243.559 137.783 243.697C137.783 243.836 136.983 247.482 136.883 247.464C136.783 247.447 135.874 246.468 135.874 246.468L133.345 240.162Z" fill="#4CB7D8"/>
<path d="M138.56 237.469L139.959 237.236C140.051 237.221 140.113 237.131 140.099 237.035C140.084 236.939 139.998 236.874 139.905 236.889L138.723 237.086L136.091 232.861C136.04 232.78 135.936 232.757 135.858 232.81C135.779 232.862 135.757 232.971 135.808 233.053L138.56 237.469Z" fill="#21111D"/>
<path d="M138.036 227.158C137.992 227.158 137.948 227.136 137.921 227.096C136.873 225.527 135.978 225.523 135.979 225.523H135.978C135.902 225.523 135.839 225.459 135.839 225.379C135.839 225.299 135.901 225.234 135.978 225.234C135.978 225.234 135.978 225.234 135.978 225.234C136.029 225.234 137.031 225.256 138.15 226.93C138.193 226.995 138.178 227.086 138.115 227.132C138.091 227.149 138.063 227.158 138.036 227.158Z" fill="#21111D"/>
<path d="M137.737 228.631C137.686 228.631 137.637 228.602 137.613 228.551C136.81 226.868 135.92 226.701 135.911 226.699C135.835 226.687 135.783 226.613 135.795 226.534C135.806 226.456 135.875 226.401 135.952 226.413C135.993 226.419 136.986 226.587 137.862 228.422C137.896 228.493 137.868 228.58 137.799 228.616C137.779 228.626 137.758 228.631 137.737 228.631Z" fill="#21111D"/>
<path d="M129.897 240.417C129.859 240.426 129.818 240.408 129.797 240.371C129.772 240.325 129.787 240.266 129.832 240.239C130.454 239.867 131.299 239.082 131.308 239.074C131.346 239.038 131.404 239.041 131.439 239.081C131.473 239.121 131.47 239.182 131.431 239.218C131.396 239.25 130.564 240.024 129.924 240.406C129.915 240.412 129.906 240.415 129.897 240.417Z" fill="#F07162"/>
<path d="M130.139 241.614C130.096 241.624 130.052 241.6 130.035 241.557C130.015 241.507 130.038 241.451 130.085 241.431C130.892 241.083 131.539 240.476 131.545 240.47C131.584 240.434 131.642 240.438 131.676 240.477C131.711 240.517 131.708 240.578 131.67 240.614C131.643 240.639 130.994 241.248 130.156 241.609C130.15 241.611 130.145 241.613 130.139 241.614Z" fill="#F07162"/>
<path d="M130.617 242.935C130.576 242.944 130.532 242.922 130.514 242.88C130.493 242.831 130.514 242.774 130.561 242.752C131.249 242.431 131.816 241.853 131.821 241.847C131.858 241.809 131.916 241.81 131.952 241.848C131.988 241.886 131.988 241.947 131.951 241.984C131.928 242.009 131.355 242.593 130.636 242.928C130.63 242.931 130.624 242.933 130.617 242.935Z" fill="#F07162"/>
<path d="M117.95 237.375L116.536 237.448C116.442 237.452 116.363 237.378 116.359 237.281C116.354 237.183 116.425 237.102 116.519 237.096L117.715 237.035L119.452 232.335C119.486 232.244 119.584 232.199 119.67 232.234C119.757 232.269 119.801 232.371 119.767 232.461L117.95 237.375Z" fill="#21111D"/>
<path d="M123.861 239.168L122.402 246.446C122.402 246.446 119.402 243.902 119.402 243.624C119.402 243.347 120.352 239.963 120.452 239.897C120.552 239.831 123.861 239.168 123.861 239.168Z" fill="#4CB7D8"/>
<path d="M122.5 246.63L122.352 246.621C122.317 246.618 118.82 246.387 114.778 244.618C114.692 244.581 114.652 244.478 114.688 244.388C114.724 244.299 114.823 244.256 114.909 244.294C118.431 245.835 121.525 246.193 122.225 246.257L123.474 239.402L117.778 237.371C117.69 237.34 117.643 237.24 117.673 237.148C117.703 237.056 117.799 237.007 117.887 237.038L123.86 239.168L122.5 246.63Z" fill="#21111D"/>
<path d="M134.088 246.63L134.236 246.621C134.27 246.618 137.768 246.387 141.81 244.618C141.896 244.581 141.936 244.478 141.9 244.388C141.864 244.299 141.765 244.256 141.679 244.294C138.157 245.835 135.063 246.193 134.363 246.257L133.114 239.402L138.81 237.371C138.898 237.34 138.945 237.24 138.915 237.148C138.885 237.056 138.789 237.007 138.701 237.038L132.728 239.168L134.088 246.63Z" fill="#21111D"/>
<path d="M114.406 254.479H141.402C141.885 254.479 142.277 254.071 142.277 253.568V237.795C142.277 237.292 141.885 236.884 141.402 236.884H114.406C113.923 236.884 113.531 237.292 113.531 237.795V253.568C113.531 254.071 113.923 254.479 114.406 254.479Z" fill="#49263E"/>
<path d="M127.609 245.395C128.244 245.395 128.758 244.859 128.758 244.199C128.758 243.538 128.244 243.002 127.609 243.002C126.975 243.002 126.461 243.538 126.461 244.199C126.461 244.859 126.975 245.395 127.609 245.395Z" fill="white"/>
<path d="M270.415 247.252C270.415 247.252 267.551 254.758 269.953 260.436L214.895 260.917L209.814 260.436L205.336 257.546V253.122L206.58 249.465L210.645 247.252L270.415 247.252Z" fill="white"/>
<path d="M212.316 261.648H271.801C272.188 261.648 272.502 261.321 272.502 260.917C272.502 260.514 272.188 260.186 271.801 260.186H212.316C208.725 260.186 205.804 257.363 205.804 253.892C205.804 250.421 208.725 247.598 212.316 247.598H271.801C272.188 247.598 272.502 247.27 272.502 246.867C272.502 246.463 272.188 246.136 271.801 246.136H212.316C207.951 246.136 204.401 249.615 204.401 253.892C204.401 258.169 207.951 261.648 212.316 261.648Z" fill="#FF424D"/>
<path d="M269.607 254.055H240.415C240.329 254.055 240.259 253.982 240.259 253.892C240.259 253.803 240.329 253.73 240.415 253.73H269.607C269.693 253.73 269.763 253.803 269.763 253.892C269.763 253.982 269.693 254.055 269.607 254.055Z" fill="#AAC9F8"/>
<path d="M236.304 254.055H207.943C207.857 254.055 207.787 253.982 207.787 253.892C207.787 253.803 207.857 253.73 207.943 253.73H236.304C236.39 253.73 236.46 253.803 236.46 253.892C236.46 253.982 236.39 254.055 236.304 254.055Z" fill="#AAC9F8"/>
<path d="M223.257 256.964H208.705C208.619 256.964 208.549 256.891 208.549 256.802C208.549 256.712 208.619 256.639 208.705 256.639H223.257C223.343 256.639 223.412 256.712 223.412 256.802C223.412 256.891 223.343 256.964 223.257 256.964Z" fill="#AAC9F8"/>
<path d="M269.607 256.964H225.391C225.305 256.964 225.235 256.891 225.235 256.802C225.235 256.712 225.305 256.639 225.391 256.639H269.607C269.693 256.639 269.763 256.712 269.763 256.802C269.763 256.891 269.693 256.964 269.607 256.964Z" fill="#AAC9F8"/>
<path d="M215.208 232.775C215.208 232.775 217.866 239.741 215.637 245.011L266.736 245.458L271.451 245.011L275.607 242.329V238.223L274.452 234.829L270.679 232.775L215.208 232.775Z" fill="white"/>
<path d="M269.129 246.136H213.922C213.563 246.136 213.271 245.833 213.271 245.458C213.271 245.083 213.563 244.78 213.922 244.78H269.129C272.462 244.78 275.173 242.159 275.173 238.938C275.173 235.717 272.462 233.096 269.129 233.096H213.922C213.563 233.096 213.271 232.792 213.271 232.418C213.271 232.043 213.563 231.74 213.922 231.74H269.129C273.18 231.74 276.475 234.969 276.475 238.938C276.475 242.907 273.179 246.136 269.129 246.136Z" fill="#258D8C"/>
<path d="M243.051 239.1H215.959C215.873 239.1 215.803 239.028 215.803 238.938C215.803 238.848 215.873 238.776 215.959 238.776H243.051C243.137 238.776 243.207 238.848 243.207 238.938C243.207 239.028 243.137 239.1 243.051 239.1Z" fill="#AAC9F8"/>
<path d="M273.187 239.1H246.866C246.78 239.1 246.711 239.028 246.711 238.938C246.711 238.848 246.78 238.776 246.866 238.776H273.187C273.273 238.776 273.343 238.848 273.343 238.938C273.343 239.028 273.273 239.1 273.187 239.1Z" fill="#AAC9F8"/>
<path d="M272.48 241.801H258.975C258.889 241.801 258.819 241.728 258.819 241.638C258.819 241.548 258.889 241.476 258.975 241.476H272.48C272.566 241.476 272.636 241.548 272.636 241.638C272.636 241.728 272.566 241.801 272.48 241.801Z" fill="#AAC9F8"/>
<path d="M272.48 236.398H215.959C215.873 236.398 215.803 236.326 215.803 236.236C215.803 236.146 215.873 236.074 215.959 236.074H272.48C272.566 236.074 272.636 236.146 272.636 236.236C272.636 236.326 272.566 236.398 272.48 236.398Z" fill="#AAC9F8"/>
<path d="M271.801 261.811H212.316C207.865 261.811 204.245 258.258 204.245 253.892C204.245 249.526 207.866 245.974 212.316 245.974H271.801C272.274 245.974 272.658 246.374 272.658 246.867C272.658 247.359 272.274 247.76 271.801 247.76C271.715 247.76 271.645 247.687 271.645 247.598C271.645 247.508 271.715 247.435 271.801 247.435C272.102 247.435 272.347 247.18 272.347 246.867C272.347 246.553 272.102 246.298 271.801 246.298H212.316C208.037 246.298 204.557 249.705 204.557 253.892C204.557 258.079 208.037 261.486 212.316 261.486H271.801C272.102 261.486 272.347 261.231 272.347 260.917C272.347 260.604 272.102 260.349 271.801 260.349C271.715 260.349 271.645 260.276 271.645 260.186C271.645 260.097 271.715 260.024 271.801 260.024C272.274 260.024 272.658 260.425 272.658 260.917C272.658 261.41 272.274 261.811 271.801 261.811Z" fill="#21111D"/>
<path d="M269.129 246.298H213.922C213.477 246.298 213.115 245.921 213.115 245.458C213.115 244.994 213.477 244.617 213.922 244.617C214.008 244.617 214.078 244.69 214.078 244.779C214.078 244.869 214.008 244.942 213.922 244.942C213.649 244.942 213.427 245.173 213.427 245.458C213.427 245.742 213.649 245.974 213.922 245.974H269.129C273.094 245.974 276.319 242.817 276.319 238.938C276.319 235.058 273.093 231.902 269.129 231.902H213.922C213.649 231.902 213.427 232.133 213.427 232.418C213.427 232.702 213.649 232.934 213.922 232.934C214.008 232.934 214.078 233.006 214.078 233.096C214.078 233.186 214.008 233.258 213.922 233.258C213.477 233.258 213.115 232.881 213.115 232.418C213.115 231.954 213.477 231.577 213.922 231.577H269.129C273.265 231.577 276.631 234.879 276.631 238.938C276.631 242.996 273.265 246.298 269.129 246.298Z" fill="#21111D"/>
<path d="M245.553 250.981C245.553 250.981 247.427 255.843 246.347 259.422L244.824 256.972C244.824 256.972 243.785 258.271 243.148 259.422C243.148 259.422 241.985 251.428 239.732 250.981H245.553Z" fill="#7FC6A6"/>
<path d="M248.259 241.638C248.259 241.638 246.385 246.5 247.465 250.08L248.987 247.629C248.987 247.629 250.027 248.928 250.664 250.08C250.664 250.08 251.826 242.086 254.08 241.638H248.259Z" fill="#4CB7D8"/>
<path d="M269.607 251.143H208.705C208.619 251.143 208.549 251.071 208.549 250.981C208.549 250.891 208.619 250.819 208.705 250.819H269.607C269.693 250.819 269.763 250.891 269.763 250.981C269.763 251.071 269.693 251.143 269.607 251.143Z" fill="#AAC9F8"/>
<path d="M256.994 241.801H215.959C215.873 241.801 215.803 241.728 215.803 241.638C215.803 241.548 215.873 241.476 215.959 241.476H256.994C257.08 241.476 257.15 241.548 257.15 241.638C257.15 241.728 257.08 241.801 256.994 241.801Z" fill="#AAC9F8"/>
<path d="M221.809 255.238L224.5 256.813L227.717 253.517L227.803 252.983L227.016 246.986L220.755 248.2L221.809 255.238Z" fill="#FE9F73"/>
<path d="M226.406 256.987L217.777 258.211C217.697 258.21 217.632 258.206 217.583 258.198C216.737 258.054 216.932 257.479 216.932 257.479L220.715 254.22L220.743 253.819C220.787 253.174 221.501 252.847 222.112 253.191L223.702 254.086C223.702 254.086 227.439 254.142 227.803 252.983L228.141 255.81C228.141 255.81 228.539 256.67 226.406 256.987Z" fill="#3A1F33"/>
<path d="M210.659 255.622L213.35 257.197L216.567 253.901L216.653 253.367L215.866 247.37L209.605 248.585L210.659 255.622Z" fill="#FE9F73"/>
<path d="M215.256 257.372L206.627 258.596C206.547 258.595 206.482 258.591 206.433 258.583C205.587 258.438 205.782 257.863 205.782 257.863L209.565 254.605L209.593 254.204C209.637 253.559 210.351 253.232 210.962 253.576L212.552 254.471C212.552 254.471 216.289 254.527 216.653 253.367L216.991 256.195C216.991 256.195 217.389 257.055 215.256 257.372Z" fill="#3A1F33"/>
<path d="M231.817 231.67C231.817 231.67 242.581 232.197 245.569 231.505C248.558 230.814 249.294 221.095 245.901 215.141C242.507 209.186 230.633 227.468 230.633 227.468L231.817 231.67Z" fill="#49263E"/>
<path d="M225.159 217.236C225.159 217.236 210.171 219.665 209.736 221.475C209.302 223.286 208.057 242.533 208.988 250.744C208.988 250.744 214.698 251.154 217.429 250.464L218.203 231.653L222.798 231.741L232.927 216.972L225.159 217.236Z" fill="#3A1F33"/>
<path d="M232.451 218.367C232.451 218.367 220.845 221.779 220.41 223.589C219.976 225.399 218.739 242.577 219.67 250.788C219.67 250.788 225.81 251.154 228.541 250.465L229.276 231.577L231.925 231.674L238.347 219.904L232.451 218.367Z" fill="#49263E"/>
<path d="M239.646 195.33C239.646 195.33 244.776 195.42 245.968 196.153C247.16 196.886 252.622 206.261 253.801 210.237C253.801 210.237 250.719 213.05 246.747 213.158L245.792 211.283L246.338 215.121L235.934 218.336C232.404 219.426 228.63 219.299 225.175 217.972L224.094 217.556C224.094 217.556 224.111 199.314 227.239 197.386C230.025 195.669 236.062 194.766 239.646 195.33Z" fill="#BAAFB1"/>
<path d="M233.199 186.367V191.531C233.199 191.531 233.13 193.277 234.596 193.495L234.322 195.824C234.22 196.69 234.717 197.519 235.516 197.782C235.906 197.911 236.372 198.005 236.9 198.005C238.576 198.005 239.484 196.696 239.623 196.041C239.763 195.386 239.344 192.259 239.344 192.259L239.395 190.722L239.204 184.767L233.199 186.367Z" fill="#FE9F73"/>
<path d="M237.245 188.949C237.263 188.949 237.28 188.942 237.294 188.929C237.322 188.901 237.323 188.855 237.296 188.826C237.286 188.815 236.326 187.792 235.448 188.529C235.418 188.554 235.414 188.6 235.438 188.631C235.462 188.662 235.506 188.667 235.536 188.642C236.314 187.989 237.16 188.888 237.195 188.926C237.209 188.941 237.227 188.949 237.245 188.949Z" fill="#21111D"/>
<path d="M234.367 188.513C234.387 188.513 234.406 188.504 234.42 188.487C234.445 188.457 234.442 188.411 234.413 188.385C234.385 188.359 233.719 187.766 233.298 188.142C233.268 188.168 233.265 188.214 233.29 188.245C233.315 188.275 233.359 188.279 233.388 188.252C233.718 187.958 234.315 188.489 234.321 188.495C234.335 188.507 234.351 188.513 234.367 188.513Z" fill="#21111D"/>
<path d="M235.833 189.243C235.833 189.364 235.927 189.461 236.043 189.461C236.159 189.461 236.252 189.364 236.252 189.243C236.252 189.123 236.159 189.025 236.043 189.025C235.927 189.025 235.833 189.123 235.833 189.243Z" fill="black"/>
<path d="M233.607 189.025C233.607 189.145 233.701 189.243 233.816 189.243C233.932 189.243 234.026 189.145 234.026 189.025C234.026 188.904 233.932 188.807 233.816 188.807C233.701 188.807 233.607 188.904 233.607 189.025Z" fill="black"/>
<path d="M239.009 185.053L237.84 186.777C237.84 186.777 234.299 188.21 232.483 186.513C230.668 184.816 231.227 184.001 231.759 183.151C232.021 182.732 233.273 181.879 234.809 182.59C235.648 182.978 236.268 181.82 237.245 182.402C238.223 182.984 239.376 183.992 239.247 184.391C239.118 184.789 239.009 185.053 239.009 185.053Z" fill="#21111D"/>
<path d="M238.938 184.326C238.938 184.326 240.55 184.245 241.001 185.862C241.45 187.478 240.845 188.325 240.83 188.807C240.814 189.289 241.128 192.537 238.938 192.295L238.347 186.929L239.109 184.792L238.938 184.326Z" fill="#21111D"/>
<path d="M239.706 190.093C240.197 189.582 240.197 188.753 239.706 188.242C239.215 187.73 238.42 187.73 237.929 188.242C237.438 188.753 237.438 189.582 237.929 190.093C238.42 190.605 239.215 190.605 239.706 190.093Z" fill="#FE9F73"/>
<path d="M238.913 189.97C239.174 189.97 239.349 189.765 239.406 189.561C239.474 189.319 239.396 189.084 239.208 188.963C238.93 188.783 238.677 188.898 238.548 188.987C238.602 188.838 238.687 188.73 238.802 188.664C239.049 188.522 239.357 188.626 239.36 188.627C239.378 188.633 239.398 188.623 239.404 188.604C239.41 188.585 239.4 188.564 239.382 188.558C239.368 188.553 239.043 188.443 238.769 188.6C238.61 188.691 238.502 188.852 238.448 189.077L238.418 189.204L238.507 189.112C238.519 189.099 238.818 188.796 239.171 189.024C239.367 189.151 239.384 189.381 239.339 189.54C239.293 189.706 239.154 189.897 238.914 189.897C238.911 189.897 238.909 189.897 238.907 189.897C238.887 189.897 238.872 189.913 238.872 189.933C238.871 189.953 238.887 189.969 238.906 189.97C238.908 189.97 238.911 189.97 238.913 189.97Z" fill="#F07162"/>
<path d="M237.995 192.012C237.995 192.012 237.897 194.934 234.394 195.213L234.596 193.495C234.596 193.495 236.868 193.971 237.995 192.012Z" fill="#F07162"/>
<path d="M245.933 211.518C250.264 210.816 252.833 208.115 252.858 208.088L252.708 207.935C252.683 207.962 250.16 210.613 245.901 211.303L245.933 211.518Z" fill="#21111D"/>
<path d="M224.857 251.011C227.57 251.011 228.537 250.585 228.583 250.564L228.643 250.537L229.355 231.539L228.234 232.09L228.323 232.287L229.133 231.889L228.439 250.388C228.146 250.493 226.738 250.916 223.415 250.756L223.405 250.974C223.937 251 224.419 251.011 224.857 251.011Z" fill="#21111D"/>
<path d="M227.401 246.914C227.69 245.751 227.773 234.402 227.777 233.92L227.567 233.918C227.566 234.036 227.481 245.722 227.198 246.859L227.401 246.914Z" fill="#21111D"/>
<path d="M213.518 251.081C215.836 251.081 217.531 250.661 217.531 250.661L218.203 231.654L217.345 232.273L217.476 232.443L217.977 232.023L217.327 250.487C216.972 250.567 215.425 250.885 213.315 250.862L213.313 251.08C213.382 251.081 213.45 251.081 213.518 251.081Z" fill="#21111D"/>
<path d="M216.438 247.336C216.726 245.579 216.451 233.682 216.439 233.177L216.23 233.182C216.233 233.306 216.516 245.563 216.231 247.3L216.438 247.336Z" fill="#21111D"/>
<path d="M226.792 219.305L227.978 217.384C228.631 216.284 229.687 214.841 230.785 214.713C232.58 214.505 243.511 214.037 246.979 213.591C246.979 213.591 246.741 213.156 246.746 213.158C246.787 213.167 249.582 212.662 249.582 212.662L251.382 211.773L253 211.044C253.447 212.858 254.674 215.839 253.416 217.915C251.091 221.752 233.314 219.863 231.737 219.36L230.285 220.999L229.988 221.474C229.848 221.698 229.559 221.762 229.344 221.616C229.128 221.47 229.067 221.169 229.207 220.944L229.083 221.143C228.943 221.368 228.654 221.431 228.439 221.285C228.223 221.139 228.162 220.838 228.302 220.614C228.162 220.839 227.873 220.902 227.658 220.756C227.442 220.61 227.381 220.309 227.521 220.084L227.645 219.886C227.505 220.11 227.216 220.174 227.001 220.028C226.992 220.022 226.984 220.015 226.976 220.009C226.974 220.008 226.972 220.006 226.97 220.005C226.966 220.001 226.962 219.998 226.958 219.995C226.958 219.995 226.957 219.994 226.957 219.994C226.956 219.993 226.956 219.993 226.956 219.993C226.927 219.967 226.901 219.939 226.88 219.908C226.626 219.589 226.792 219.305 226.792 219.305Z" fill="#FE9F73"/>
<path d="M246.691 213.307L246.758 213.305C250.289 213.219 253.839 210.391 253.874 210.362L253.939 210.309L251.7 205.14L251.509 205.23L253.68 210.241C253.185 210.621 249.997 212.976 246.819 213.085L245.858 211.047L245.67 211.143L246.691 213.307Z" fill="#21111D"/>
<path d="M248.227 215.373C248.246 215.377 248.268 215.373 248.285 215.359C248.315 215.335 248.321 215.289 248.297 215.257L247.025 213.551C247.001 213.519 246.957 213.513 246.927 213.538C246.896 213.562 246.891 213.608 246.914 213.64L248.187 215.346C248.197 215.36 248.212 215.369 248.227 215.373Z" fill="#F07162"/>
<path d="M227.441 220.164C227.468 220.17 227.496 220.16 227.513 220.136L229.178 217.754C229.201 217.721 229.194 217.676 229.163 217.652C229.132 217.629 229.088 217.636 229.065 217.668L227.4 220.05C227.378 220.082 227.384 220.128 227.415 220.152C227.423 220.158 227.432 220.162 227.441 220.164Z" fill="#F07162"/>
<path d="M228.173 220.861C228.2 220.867 228.229 220.856 228.246 220.831L229.835 218.375C229.857 218.342 229.848 218.297 229.816 218.274C229.784 218.252 229.741 218.261 229.719 218.294L228.13 220.749C228.108 220.783 228.117 220.828 228.149 220.85C228.156 220.856 228.164 220.859 228.173 220.861Z" fill="#F07162"/>
<path d="M229.055 221.305C229.083 221.311 229.113 221.3 229.129 221.274L230.451 219.193C230.472 219.159 230.463 219.114 230.431 219.092C230.399 219.069 230.356 219.079 230.335 219.112L229.013 221.194C228.991 221.227 229 221.272 229.032 221.294C229.039 221.3 229.047 221.303 229.055 221.305Z" fill="#F07162"/>
<path d="M236.427 231.873C231.119 231.873 227.911 231.502 227.863 231.496L227.887 231.279C227.958 231.288 235.158 232.121 245.893 231.279L245.909 231.496C242.306 231.779 239.1 231.873 236.427 231.873Z" fill="#21111D"/>
<path d="M228.991 202.618L228.71 211.883L228.92 211.889L229.201 202.625L228.991 202.618Z" fill="#21111D"/>
<path d="M242.69 203.302L242.498 203.389L246.656 213.359L246.848 213.272L242.69 203.302Z" fill="#21111D"/>
<path d="M245.776 210.677L245.57 210.711L246.033 213.7L246.24 213.665L245.776 210.677Z" fill="#21111D"/>
<path d="M235.095 190.715C235.109 190.715 235.123 190.705 235.128 190.69C235.134 190.671 235.124 190.65 235.105 190.644L234.406 190.403L234.627 188.687C234.629 188.667 234.616 188.649 234.597 188.646C234.577 188.643 234.56 188.657 234.557 188.677L234.329 190.453L235.083 190.713C235.087 190.714 235.091 190.715 235.095 190.715Z" fill="#F07162"/>
<path d="M235.637 191.423C235.615 191.419 234.254 191.386 234.254 191.386C234.254 191.386 234.425 191.972 234.931 191.986C235.437 192 235.637 191.423 235.637 191.423Z" fill="#FBFDFC"/>
<path d="M206.521 205.14H223.158L228.96 220.533H212.323L206.521 205.14Z" fill="#FECC86"/>
<path d="M228.96 220.533H228.092L222.29 205.14H223.158L228.96 220.533Z" fill="#FFB357"/>
<path d="M217.397 212.346C217.628 213.053 217.459 213.752 217.02 213.907C216.581 214.063 216.038 213.616 215.807 212.908C215.577 212.201 215.746 211.502 216.185 211.347C216.624 211.191 217.167 211.639 217.397 212.346Z" fill="#E2F2F1"/>
<path d="M234.46 219.29H228.244V220.533H234.46C234.789 220.533 235.056 220.254 235.056 219.911C235.056 219.568 234.789 219.29 234.46 219.29Z" fill="#FFB357"/>
<path d="M232.886 219.716H228.96V219.912H232.886V219.716Z" fill="#FECC86"/>
<path d="M233.939 220.532H226.617V223.258H233.939V220.532Z" fill="#49263E"/>
<path d="M51.3827 145.652C51.3827 145.652 53.3263 144.661 55.1239 145.196C56.1647 145.505 56.8954 146.48 56.953 147.606L57.0092 148.707L51.4443 146.588C51.4443 146.588 50.6054 147.06 50.6677 146.927C50.7301 146.794 51.3827 145.652 51.3827 145.652Z" fill="#FE9F73"/>
<path d="M56.9462 147.482L57.1832 152.126C57.1832 152.126 57.3342 153.782 55.9511 154.066L56.3244 156.266C56.4632 157.083 56.031 157.897 55.285 158.19C54.9204 158.332 54.4821 158.446 53.9798 158.474C52.387 158.563 51.4607 157.366 51.2962 156.751C51.1318 156.136 51.3782 153.141 51.3782 153.141L51.2551 151.683L51.1475 146.013L56.9462 147.482Z" fill="#FE9F73"/>
<path d="M53.2124 149.885C53.1959 149.886 53.179 149.88 53.1655 149.868C53.1377 149.843 53.1347 149.799 53.1585 149.77C53.1672 149.76 54.0304 148.737 54.9001 149.391C54.9298 149.413 54.9367 149.456 54.9151 149.487C54.8936 149.518 54.8522 149.525 54.8223 149.503C54.0516 148.923 53.2911 149.822 53.2591 149.861C53.2469 149.876 53.2298 149.884 53.2124 149.885Z" fill="#21111D"/>
<path d="M55.9269 149.318C55.9083 149.319 55.8894 149.312 55.8755 149.297C55.8501 149.27 55.8508 149.226 55.8772 149.199C55.9028 149.174 56.5071 148.575 56.9255 148.91C56.9545 148.933 56.9601 148.977 56.9377 149.007C56.9153 149.037 56.8736 149.043 56.8445 149.02C56.5166 148.757 55.975 149.294 55.9694 149.299C55.9575 149.311 55.9424 149.317 55.9269 149.318Z" fill="#21111D"/>
<path d="M54.5687 150.089C54.5745 150.204 54.4902 150.302 54.3802 150.308C54.2702 150.314 54.1764 150.226 54.1706 150.111C54.1647 149.997 54.2491 149.899 54.3591 149.893C54.4691 149.887 54.5629 149.975 54.5687 150.089Z" fill="black"/>
<path d="M56.6745 149.765C56.6804 149.88 56.5961 149.978 56.486 149.984C56.376 149.99 56.2822 149.902 56.2764 149.787C56.2706 149.673 56.3549 149.575 56.4649 149.569C56.5748 149.563 56.6687 149.651 56.6745 149.765Z" fill="black"/>
<path d="M51.379 145.58C51.379 145.58 49.6889 145.589 49.3396 147.149C48.9904 148.709 49.7607 149.481 49.7989 149.938C49.8369 150.395 49.6965 153.5 51.7658 153.154L52.0675 148.022L51.2396 146.031L51.379 145.58Z" fill="#21111D"/>
<path d="M52.9207 150.109C52.9558 150.796 52.4494 151.383 51.7897 151.419C51.1299 151.456 50.5666 150.928 50.5315 150.241C50.4965 149.554 51.0028 148.967 51.6625 148.93C52.3223 148.894 52.8856 149.422 52.9207 150.109Z" fill="#FE9F73"/>
<path d="M51.6766 150.942C51.4285 150.956 51.2528 150.771 51.1883 150.58C51.112 150.354 51.1747 150.127 51.3478 150.001C51.6035 149.815 51.849 149.912 51.9762 149.989C51.9175 149.851 51.8313 149.752 51.7194 149.696C51.4771 149.574 51.1902 149.688 51.1873 149.69C51.1702 149.697 51.1509 149.688 51.1443 149.67C51.1376 149.652 51.1459 149.632 51.163 149.625C51.1758 149.62 51.479 149.499 51.7477 149.633C51.9029 149.711 52.0132 149.858 52.0757 150.07L52.1107 150.189L52.0216 150.106C52.0091 150.094 51.7103 149.822 51.3857 150.058C51.2059 150.188 51.2008 150.408 51.251 150.557C51.303 150.711 51.4446 150.886 51.6727 150.873C51.6751 150.873 51.6771 150.873 51.6795 150.873C51.6976 150.872 51.7131 150.886 51.7144 150.905C51.7156 150.924 51.7017 150.941 51.6834 150.942C51.6813 150.942 51.6789 150.942 51.6766 150.942Z" fill="#F07162"/>
<path d="M52.6482 152.835C52.6482 152.835 52.8834 155.607 56.2264 155.688L55.9512 154.066C55.9512 154.066 53.8149 154.638 52.6482 152.835Z" fill="#F07162"/>
<path d="M55.3424 151.45C55.3285 151.451 55.3151 151.442 55.3097 151.428C55.303 151.41 55.3115 151.39 55.3285 151.383L55.982 151.117L55.6886 149.498C55.6853 149.479 55.6971 149.461 55.7151 149.458C55.7333 149.453 55.7506 149.466 55.7539 149.485L56.0576 151.161L55.3527 151.447C55.3494 151.449 55.3459 151.45 55.3424 151.45Z" fill="#F07162"/>
<path d="M51.3488 153.53L51.4606 151.176L52.0218 151.21L52.1415 153.554L51.3488 153.53Z" fill="#FE9F73"/>
<path d="M51.6885 145.516C51.6885 145.516 51.3473 146.509 52.0709 148.094C52.7947 149.679 50.3958 147.581 50.3958 147.581C50.3958 147.581 50.4333 145.2 51.6885 145.516Z" fill="#21111D"/>
<path d="M52.071 148.094C52.071 148.094 57.1281 147.5 57.3776 146.245C57.6272 144.989 56.4324 145.023 56.4324 145.023C56.4324 145.023 56.5661 143.251 55.0602 143.857C53.5542 144.464 50.7117 144.553 49.9889 146.076C49.2663 147.6 52.071 148.094 52.071 148.094Z" fill="#21111D"/>
<path d="M52.0107 148.984L52.2787 149.936L52.4849 149.636C52.4849 149.636 52.8478 148.227 52.5146 147.578C52.1813 146.93 51.0312 147.952 51.0312 147.952L52.0107 148.984Z" fill="#21111D"/>
<path d="M56.2503 151.985C56.2287 151.98 54.8563 151.932 54.8563 151.932C54.8563 151.932 55.0227 152.525 55.5328 152.544C56.0428 152.564 56.2503 151.985 56.2503 151.985Z" fill="#FBFDFC"/>
<path d="M49.5649 261.28L43.3115 261.37L43.2219 255.226L49.4507 254.415L49.5649 261.28Z" fill="#FE9F73"/>
<path d="M63.7191 261.28L57.4658 261.37L57.3761 255.226L63.6049 254.415L63.7191 261.28Z" fill="#FE9F73"/>
<path d="M63.8911 206.077C62.9358 207.356 62.6885 206.095 62.6885 206.095C62.108 206.727 61.8131 206.607 61.6679 206.398C61.5617 206.245 61.5393 206.046 61.5946 205.866C61.7699 205.294 62.311 203.552 62.711 202.483C62.6176 201.748 61.4354 202.059 60.8421 202.429C60.5363 202.619 60.0155 202.664 60.4938 201.829C60.8846 201.146 62.24 200.072 62.24 200.072L61.6186 195.977L67.103 196.244C67.103 196.244 67.3154 200.95 67.3521 201.658C67.3887 202.367 66.7524 204.789 66.1956 205.544C65.1853 206.913 65.0819 206.099 65.0819 206.099C63.9047 207.419 63.8911 206.077 63.8911 206.077Z" fill="#FE9F73"/>
<path d="M63.501 204.552C63.5015 204.516 63.4801 204.482 63.4457 204.47C63.4029 204.455 63.3564 204.478 63.3416 204.523C63.1359 205.148 62.6234 206.043 62.6183 206.052C62.5951 206.092 62.6077 206.145 62.6465 206.169C62.6854 206.193 62.7357 206.18 62.7589 206.14C62.7803 206.102 63.2852 205.22 63.4965 204.578C63.4993 204.569 63.5007 204.561 63.501 204.552Z" fill="#F07162"/>
<path d="M64.5384 204.571C64.5391 204.531 64.5121 204.494 64.4728 204.486C64.4285 204.476 64.3853 204.506 64.3761 204.552C64.2218 205.34 63.8251 206.026 63.8212 206.033C63.7976 206.074 63.81 206.126 63.8485 206.15C63.8873 206.175 63.9376 206.162 63.961 206.122C63.978 206.093 64.3764 205.404 64.5367 204.587C64.5377 204.581 64.5382 204.576 64.5384 204.571Z" fill="#F07162"/>
<path d="M65.7181 204.782C65.7188 204.742 65.6931 204.706 65.6549 204.697C65.6109 204.686 65.5669 204.715 65.5564 204.761C65.4043 205.437 65.0177 206.045 65.0138 206.051C64.9885 206.091 64.999 206.144 65.0366 206.17C65.0743 206.196 65.1251 206.185 65.1502 206.146C65.1668 206.12 65.5573 205.505 65.716 204.8C65.7173 204.794 65.718 204.788 65.7181 204.782Z" fill="#F07162"/>
<path d="M67.6091 198.01L67.5116 200C67.5116 200 66.5152 200.694 64.6827 200.642L65.1432 198.01H67.6091Z" fill="#E2F2F1"/>
<path d="M52.6686 191.949C52.6686 191.949 53.498 232.701 56.3537 256.22C56.3537 256.22 60.1576 257.467 64.9403 255.137L65.1433 195.073L65.8338 186.075L52.6686 191.949Z" fill="#33192C"/>
<path d="M42.6296 192.343C42.6296 192.343 40.9573 232.516 42.8282 256.188C42.8282 256.188 46.3817 258.52 51.255 256.501L57.1477 198.784L59.6499 183.341L42.6296 192.343Z" fill="#49263E"/>
<path d="M47.653 257.411C44.9648 257.411 42.801 256.326 42.7701 256.31L42.7108 256.28L42.6988 256.212C41.0973 247.183 42.1194 202.687 42.1299 202.238C42.1315 202.164 42.1901 202.105 42.2615 202.105C42.2625 202.105 42.2636 202.105 42.2647 202.105C42.3374 202.107 42.3948 202.17 42.3931 202.245C42.3827 202.692 41.3665 246.934 42.9454 256.093C43.479 256.346 47.4984 258.128 51.2006 256.376C51.2663 256.344 51.3449 256.375 51.3749 256.444C51.4051 256.513 51.3758 256.594 51.3096 256.626C50.0797 257.208 48.8171 257.411 47.653 257.411Z" fill="black"/>
<path d="M59.0921 256.663C58.2252 256.663 57.2956 256.575 56.3256 256.354C56.2546 256.338 56.2096 256.265 56.2251 256.191C56.2407 256.117 56.3122 256.071 56.3818 256.086C60.7503 257.081 64.2832 255.333 64.809 255.053L65.0116 198.546C65.0119 198.471 65.1433 198.309 65.1433 198.233C65.1433 196.277 65.1439 198.409 65.1439 198.409C65.2165 198.41 65.2754 198.471 65.275 198.547L65.0718 255.217L65.0046 255.256C64.974 255.274 62.5285 256.663 59.0921 256.663Z" fill="black"/>
<path d="M63.3684 157.413C63.3684 157.413 66.4889 158.74 67.009 161.313C67.5291 163.886 68.8813 194.952 67.9451 198.01H63.3684V157.413Z" fill="#A7A7A7"/>
<path d="M41.0164 175.319L43.0935 199.811C43.0935 199.811 55.4266 202.643 65.0001 197.407C65.0001 197.407 63.4691 159.401 63.1678 157.86C62.8129 156.046 53.2643 155.898 49.2791 156.343C49.2791 156.343 43.1043 156.181 39.802 158.08L41.0164 175.319Z" fill="#E2F2F1"/>
<path d="M40.7708 169.797V201.252C40.7708 201.252 48.65 202.822 52.4725 201.252C52.4725 201.252 52.4495 157.467 50.8893 156.131C50.6965 156.136 46.7697 156.214 43.9652 156.575C41.1607 156.936 40.7708 169.797 40.7708 169.797Z" fill="#A7A7A7"/>
<path d="M57.2213 156.131C57.2213 156.131 58.0115 194.64 58.7916 200.364C58.7916 200.364 61.9728 200.585 66.0294 199.116C66.0294 199.116 65.2994 158.942 64.2525 157.87C63.2056 156.798 57.2213 156.131 57.2213 156.131Z" fill="#A7A7A7"/>
<path d="M51.3922 156.187C51.3922 156.187 56.3433 156.065 57.1734 156.227C57.1734 156.227 56.5215 158.259 56.4141 158.34C56.3069 158.421 53.1005 159.102 53.1005 159.102C53.1005 159.102 52.0064 158.432 51.9576 158.203C51.9091 157.974 51.3922 156.187 51.3922 156.187Z" fill="#E2F2F1"/>
<path d="M40.7709 179.922C40.6982 179.922 40.6392 179.86 40.6392 179.785V173.3C40.6392 173.224 40.6981 173.163 40.7709 173.163C40.8435 173.163 40.9025 173.224 40.9025 173.3V179.785C40.9025 179.861 40.8435 179.922 40.7709 179.922Z" fill="black"/>
<path d="M52.4726 201.387H52.4723C52.3997 201.387 52.3408 201.326 52.341 201.252C52.4061 173.375 51.6627 163.687 51.6554 163.592C51.6494 163.518 51.7033 163.453 51.7758 163.447C51.8466 163.442 51.9118 163.496 51.9176 163.57C51.9251 163.665 52.6694 173.36 52.6043 201.252C52.604 201.327 52.5451 201.387 52.4726 201.387Z" fill="black"/>
<path d="M66.0293 199.249C66.0285 199.249 66.0274 199.249 66.0264 199.249C65.9538 199.247 65.8961 199.187 65.8976 199.113C66.1546 187.148 64.0637 161.272 64.0426 161.012C64.0366 160.939 64.0905 160.875 64.1629 160.869C64.2397 160.864 64.2991 160.918 64.3048 160.99C64.3261 161.251 66.418 187.14 66.1609 199.119C66.1595 199.191 66.1009 199.249 66.0293 199.249Z" fill="black"/>
<path d="M57.392 164.13C57.3208 164.13 57.2621 164.071 57.2603 163.996L57.0865 155.983L57.2317 155.995C57.4997 156.017 63.8167 156.556 65.6821 158.815C65.7296 158.873 65.7232 158.959 65.6682 159.009C65.6132 159.058 65.5298 159.051 65.4826 158.994C63.8391 157.003 58.3244 156.377 57.3563 156.282L57.5236 163.99C57.5251 164.065 57.4674 164.128 57.3948 164.13C57.3938 164.13 57.393 164.13 57.392 164.13Z" fill="black"/>
<path d="M30.6991 184.797C31.5038 180.545 29.7415 177.859 28.4249 176.443C27.971 177.802 27.6457 179.173 27.5087 180.54C27.3248 182.374 28.2723 184.8 29.7271 187.332C30.1528 186.702 30.4949 185.875 30.6991 184.797Z" fill="#FEC786"/>
<path d="M41.1768 159.894C41.204 159.894 41.231 159.882 41.2483 159.857C42.1117 158.658 43.5225 158.171 43.5367 158.166C43.5836 158.15 43.6093 158.097 43.594 158.049C43.5789 158 43.5282 157.973 43.4815 157.989C43.4215 158.009 42.0035 158.498 41.1052 159.746C41.0755 159.787 41.0836 159.845 41.123 159.876C41.1393 159.888 41.1582 159.894 41.1768 159.894Z" fill="#21111D"/>
<path d="M41.3454 160.756C41.3726 160.756 41.3995 160.743 41.4169 160.719C42.2802 159.52 43.6911 159.032 43.7052 159.028C43.7522 159.012 43.7779 158.959 43.7626 158.91C43.7473 158.862 43.6969 158.835 43.6501 158.851C43.5901 158.871 42.172 159.36 41.2738 160.607C41.2441 160.648 41.2521 160.707 41.2916 160.738C41.3078 160.75 41.3266 160.756 41.3454 160.756Z" fill="#21111D"/>
<path d="M44.9791 257.081C44.9072 257.081 44.8485 257.021 44.8474 256.946L44.6163 240.83C44.6154 240.754 44.6733 240.692 44.7461 240.691C44.7466 240.691 44.7473 240.691 44.7479 240.691C44.8197 240.691 44.8785 240.751 44.8796 240.826L45.1106 256.942C45.1116 257.018 45.0536 257.08 44.9809 257.081C44.9803 257.081 44.9796 257.081 44.9791 257.081Z" fill="black"/>
<path d="M59.2509 256.665C59.1816 256.665 59.1237 256.609 59.1196 256.536L58.2527 240.836C58.2485 240.761 58.3039 240.696 58.3766 240.691C58.4494 240.684 58.5113 240.745 58.5156 240.82L59.3826 256.52C59.3866 256.595 59.3313 256.66 59.2587 256.665C59.256 256.665 59.2534 256.665 59.2509 256.665Z" fill="black"/>
<path d="M4.81068 225.144L12.4347 234.466L89.0039 166.51L81.3799 157.188L4.81068 225.144Z" fill="#FEC786"/>
<path d="M7.15643 228.012L10.0887 231.597L86.658 163.641L83.7257 160.056L7.15643 228.012Z" fill="#F99247"/>
<path d="M10.5678 220.036L18.1918 229.358L20.4456 227.358L12.8216 218.036L10.5678 220.036Z" fill="#4CB7D8"/>
<path d="M4.52303 233.439C6.62842 236.014 10.3384 236.323 12.8096 234.129L18.1903 229.354L10.5661 220.031L5.18537 224.807C2.71407 227 2.41763 230.865 4.52303 233.439Z" fill="#FC4963"/>
<path d="M96.515 151.792L89.0017 166.505C88.2548 167.168 87.1244 167.063 86.4766 166.271C85.8288 165.479 85.909 164.3 86.6558 163.637C85.909 164.3 84.6472 164.034 83.8375 163.044C83.0278 162.054 82.9766 160.714 83.7234 160.051C82.9766 160.714 81.8461 160.609 81.1984 159.817C80.5506 159.025 80.6308 157.845 81.3776 157.183L96.515 151.792Z" fill="#F7D6B2"/>
<path d="M89.0018 166.505C89.0018 166.505 86.5104 165.932 86.6559 163.637L85.0599 165.053L87.4059 167.922L89.0018 166.505Z" fill="#FEC786"/>
<path d="M83.7235 160.051C83.7235 160.051 81.232 159.478 81.3776 157.183L79.7816 158.599L82.1276 161.468L83.7235 160.051Z" fill="#FEC786"/>
<path d="M86.6558 163.637C86.6558 163.637 83.8834 163.416 83.7235 160.051L81.9841 161.595L84.9165 165.181L86.6558 163.637Z" fill="#F99247"/>
<path d="M94.0197 156.679C94.0197 156.679 91.7951 156.207 91.4874 153.582L96.515 151.792L94.0197 156.679Z" fill="#FF424D"/>
<path d="M4.37001 233.574C2.36102 231.095 2.65678 228.795 3.25856 227.301C3.9052 225.697 5.00764 224.691 5.05431 224.649L81.2767 156.998L81.3129 156.985L96.9298 151.424L92.091 160.9L91.7376 160.704L96.1005 152.16L81.4783 157.367L5.31505 224.966C5.30547 224.974 4.2304 225.958 3.62237 227.476C2.8168 229.488 3.17132 231.449 4.67591 233.305L4.37001 233.574Z" fill="black"/>
<path d="M73.7144 179.752L29.6744 218.889L29.9343 219.206L73.9742 180.07L73.7144 179.752Z" fill="black"/>
<path d="M24.6905 218.409L20.3088 219.255L20.3818 219.665L24.7635 218.819L24.6905 218.409Z" fill="black"/>
<path d="M11.7062 230.315L9.21692 230.795L9.28989 231.206L11.7792 230.725L11.7062 230.315Z" fill="black"/>
<path d="M10.2332 232.043L7.7439 232.524L7.81683 232.934L10.3061 232.454L10.2332 232.043Z" fill="black"/>
<path d="M23.4972 220.532L19.1155 221.377L19.1884 221.787L23.5701 220.942L23.4972 220.532Z" fill="black"/>
<path d="M10.71 219.905L10.4048 220.175L18.0123 229.512L18.3176 229.242L10.71 219.905Z" fill="black"/>
<path d="M48.2993 203.934C49.8413 204.147 49.1689 203.068 49.1689 203.068C50.0078 203.094 50.1377 202.794 50.1003 202.538C50.073 202.352 49.9546 202.193 49.794 202.105C49.2845 201.826 47.7259 200.979 46.7212 200.51C46.2925 199.917 47.3451 199.276 48.0169 199.105C48.3631 199.018 48.7645 198.669 47.8612 198.423C47.1231 198.222 45.4335 198.446 45.4335 198.446L43.1199 195.074L39.3903 199.271C39.3903 199.271 42.4068 202.781 42.8579 203.313C43.3088 203.845 45.3929 205.106 46.2978 205.237C47.9398 205.475 47.4653 204.819 47.4653 204.819C49.1928 204.9 48.2993 203.934 48.2993 203.934Z" fill="#FE9F73"/>
<path d="M47.5505 202.561C47.5259 202.536 47.5183 202.496 47.5347 202.462C47.555 202.42 47.604 202.403 47.6446 202.424C48.212 202.719 49.1797 202.983 49.1894 202.985C49.2332 202.997 49.2595 203.044 49.2482 203.089C49.2368 203.135 49.1921 203.162 49.1483 203.151C49.108 203.14 48.1543 202.88 47.5714 202.577C47.5633 202.572 47.5564 202.567 47.5505 202.561Z" fill="#F07162"/>
<path d="M46.8236 203.333C46.7959 203.304 46.7906 203.259 46.813 203.224C46.8383 203.185 46.8891 203.175 46.9266 203.201C47.5669 203.65 48.3118 203.849 48.3191 203.851C48.3632 203.863 48.3896 203.909 48.3786 203.955C48.3675 204 48.323 204.028 48.2791 204.017C48.2476 204.008 47.5001 203.809 46.8352 203.343C46.8311 203.34 46.8272 203.336 46.8236 203.333Z" fill="#F07162"/>
<path d="M46.1247 204.345C46.0977 204.317 46.0919 204.273 46.1129 204.238C46.1371 204.199 46.1876 204.187 46.2258 204.212C46.7893 204.583 47.4747 204.734 47.4816 204.736C47.5259 204.745 47.5543 204.791 47.5451 204.837C47.5359 204.883 47.4925 204.912 47.4481 204.903C47.419 204.896 46.7268 204.743 46.1383 204.356C46.1333 204.353 46.1289 204.349 46.1247 204.345Z" fill="#F07162"/>
<path d="M39.9154 200.055L40.9288 201.233C40.9288 201.233 44.7059 197.84 44.979 197.393C44.914 197.326 43.8429 195.693 43.8429 195.693L39.9154 200.055Z" fill="#E2F2F1"/>
<path d="M46.3819 156.433C46.3819 156.433 39.9495 155.821 36.74 161.362C33.8079 166.424 28.2106 173.537 27.5085 180.54C26.941 186.2 37.1387 197.484 39.8018 200.181L44.5168 194.944C44.5168 194.944 37.012 182.543 36.428 181.013C35.897 179.622 46.8767 164.533 46.8767 164.533L46.3819 156.433Z" fill="#A7A7A7"/>
<path d="M39.802 200.318C39.7713 200.318 39.7405 200.307 39.7155 200.284C39.6607 200.235 39.6549 200.148 39.7028 200.091C40.7786 198.806 43.8385 195.482 44.3495 194.928C41.7276 190.73 36.2969 181.097 36.2958 180.826C36.2954 180.75 36.3543 180.688 36.4269 180.688C36.4269 180.688 36.4272 180.688 36.4275 180.688C36.4912 180.688 36.5446 180.735 36.5565 180.798C36.7097 181.223 41.8013 190.361 44.6272 194.869L44.6844 194.961L44.6118 195.039C44.5765 195.078 41.0665 198.879 39.9013 200.271C39.8752 200.302 39.8387 200.318 39.802 200.318Z" fill="black"/>
<path d="M33.8623 182.008C33.7896 182.008 33.7306 181.947 33.7306 181.871C33.7306 181.795 33.7895 181.734 33.8623 181.734C34.6637 181.734 36.0385 180.907 36.3108 180.738C36.7474 178.881 42.9261 169.812 43.1918 169.422C43.2338 169.36 43.3159 169.346 43.3755 169.39C43.4348 169.434 43.4487 169.519 43.4064 169.581C43.341 169.677 36.8508 179.203 36.5567 180.85L36.546 180.91L36.4963 180.942C36.4286 180.986 34.8247 182.008 33.8623 182.008Z" fill="black"/>
<path d="M30.6989 171.433C30.6744 171.433 30.6497 171.426 30.6276 171.411C30.5666 171.37 30.5491 171.285 30.5886 171.221L37.6674 159.816C41.287 155.784 45.7187 156.318 45.7628 156.324C45.8348 156.334 45.8859 156.403 45.8768 156.478C45.8674 156.553 45.7998 156.605 45.7296 156.596C45.6863 156.591 41.3901 156.078 37.8677 159.994L30.8096 171.37C30.7843 171.411 30.7421 171.433 30.6989 171.433Z" fill="black"/>
<path d="M43.2095 262.15H48.6104L50.8001 259.601L54.8052 262.15H55.6679C55.9651 262.15 56.2376 262.365 56.2935 262.677C56.3688 263.096 56.0699 263.463 55.6905 263.463H43.1324C43.0402 263.463 42.9653 263.384 42.9653 263.285V262.411C42.9655 262.267 43.0748 262.15 43.2095 262.15Z" fill="#FEC786"/>
<path d="M43.2573 262.158V259.788C43.2573 259.788 44.1669 258.48 45.5518 259.148C45.5518 259.148 47.6465 260.736 49.4929 258.814L54.0784 260.988C54.0784 260.988 55.3357 261.437 55.6762 262.158L43.2573 262.158Z" fill="#4C222E"/>
<path d="M43.3034 259.788H43.2114V262.145H43.3034V259.788Z" fill="black"/>
<path d="M47.429 259.814C47.6046 259.814 47.7104 259.798 47.7137 259.797L47.7001 259.7C47.6894 259.702 46.6069 259.864 45.5777 259.107L45.5256 259.188C46.2631 259.73 47.028 259.814 47.429 259.814Z" fill="black"/>
<path d="M44.3734 261.715L44.4248 261.633L43.839 261.211L43.7877 261.293L44.3734 261.715Z" fill="black"/>
<path d="M44.7934 261.595L44.8447 261.514L44.259 261.092L44.2078 261.173L44.7934 261.595Z" fill="black"/>
<path d="M56.118 263.349C56.2662 263.215 56.3514 263.019 56.3514 262.811C56.3514 262.422 56.0549 262.105 55.6908 262.105H43.2739C43.0786 262.105 42.9198 262.275 42.9198 262.484V263.139H43.0118V262.484C43.0118 262.329 43.1294 262.203 43.2739 262.203H55.6908C56.0044 262.203 56.2595 262.476 56.2595 262.811C56.2595 262.99 56.1863 263.159 56.0587 263.275L56.118 263.349Z" fill="black"/>
<path d="M55.649 262.175L55.7323 262.133C55.722 262.11 55.4704 261.559 54.5319 261.131C53.6095 260.711 49.5528 258.788 49.5119 258.769L49.4745 258.859C49.5155 258.878 53.573 260.801 54.4959 261.222C55.3989 261.633 55.6468 262.17 55.649 262.175Z" fill="black"/>
<path d="M57.4307 262.15H62.8316L65.0213 259.601L69.0264 262.15H69.889C70.1863 262.15 70.4587 262.365 70.5149 262.677C70.5901 263.096 70.2912 263.463 69.9118 263.463H57.3538C57.2615 263.463 57.1866 263.384 57.1866 263.285V262.411C57.1866 262.267 57.296 262.15 57.4307 262.15Z" fill="#FEC786"/>
<path d="M57.4785 262.158V259.788C57.4785 259.788 58.3881 258.48 59.773 259.148C59.773 259.148 61.8677 260.736 63.7141 258.814L68.2996 260.988C68.2996 260.988 69.5569 261.437 69.8972 262.158L57.4785 262.158Z" fill="#4C222E"/>
<path d="M57.5246 259.788H57.4326V262.145H57.5246V259.788Z" fill="black"/>
<path d="M61.6502 259.814C61.8257 259.814 61.9315 259.798 61.9349 259.797L61.9213 259.7C61.9106 259.702 60.8281 259.864 59.7989 259.107L59.7468 259.188C60.4843 259.73 61.2492 259.814 61.6502 259.814Z" fill="black"/>
<path d="M58.5946 261.715L58.646 261.633L58.0602 261.211L58.0089 261.293L58.5946 261.715Z" fill="black"/>
<path d="M59.0146 261.595L59.0659 261.514L58.4804 261.092L58.429 261.173L59.0146 261.595Z" fill="black"/>
<path d="M70.3392 263.349C70.4875 263.215 70.5725 263.019 70.5725 262.811C70.5725 262.422 70.2762 262.105 69.912 262.105H57.4951C57.2998 262.105 57.141 262.275 57.141 262.484V263.139H57.233V262.484C57.233 262.329 57.3506 262.203 57.4951 262.203H69.912C70.2257 262.203 70.4807 262.476 70.4807 262.811C70.4807 262.99 70.4075 263.159 70.2799 263.275L70.3392 263.349Z" fill="black"/>
<path d="M69.8702 262.175L69.9534 262.133C69.9431 262.11 69.6915 261.559 68.753 261.131C67.8306 260.711 63.7739 258.788 63.733 258.769L63.6957 258.859C63.7367 258.878 67.7941 260.801 68.7169 261.222C69.62 261.633 69.868 262.17 69.8702 262.175Z" fill="black"/>
<path d="M94.4827 152.664C90.939 152.664 87.5399 150.841 85.8806 147.864C84.9147 146.131 84.6152 144.107 85.0143 142.009C85.4594 139.671 86.7441 137.261 88.8327 134.848C89.0638 134.581 89.4592 134.559 89.7156 134.8C89.972 135.041 89.9925 135.453 89.7613 135.72C86.151 139.891 85.1567 143.972 86.9617 147.21C88.6801 150.293 92.7713 151.982 96.4774 151.138C100.365 150.254 102.857 146.901 103.315 141.94C103.596 138.899 102.85 136.291 101.158 134.398C99.1068 132.103 95.7562 130.897 91.7199 131.001C91.3727 131.012 91.0879 130.725 91.0795 130.366C91.071 130.006 91.3437 129.708 91.6889 129.699C96.0864 129.585 99.7744 130.939 102.073 133.51C104.016 135.683 104.876 138.642 104.56 142.065C104.046 147.626 101.197 151.397 96.7444 152.411C95.9941 152.582 95.235 152.664 94.4827 152.664Z" fill="#FF424D"/>
<path d="M141.841 186.773C138.297 186.773 134.898 184.95 133.238 181.973C132.273 180.24 131.973 178.216 132.372 176.118C132.817 173.779 134.102 171.37 136.191 168.957C136.422 168.69 136.817 168.668 137.073 168.909C137.33 169.15 137.35 169.562 137.119 169.829C133.509 174 132.514 178.081 134.32 181.319C136.038 184.402 140.129 186.091 143.835 185.247C147.723 184.363 150.215 181.01 150.673 176.049C150.954 173.008 150.208 170.4 148.516 168.507C146.465 166.212 143.114 165.005 139.078 165.11C138.728 165.12 138.446 164.835 138.437 164.475C138.429 164.116 138.702 163.817 139.047 163.808C143.444 163.695 147.132 165.048 149.431 167.619C151.374 169.793 152.234 172.751 151.918 176.174C151.404 181.736 148.555 185.506 144.102 186.52C143.352 186.691 142.593 186.773 141.841 186.773Z" fill="#FF424D"/>
<path d="M213.658 189.108C210.114 189.108 206.715 187.286 205.056 184.309C204.09 182.576 203.791 180.551 204.19 178.454C204.635 176.115 205.92 173.706 208.008 171.293C208.239 171.025 208.635 171.004 208.891 171.245C209.147 171.486 209.168 171.898 208.937 172.165C205.326 176.336 204.332 180.416 206.137 183.655C207.856 186.738 211.946 188.427 215.653 187.583C219.54 186.699 222.032 183.346 222.491 178.385C222.772 175.343 222.026 172.735 220.334 170.843C218.282 168.548 214.933 167.339 210.895 167.446C210.89 167.446 210.885 167.446 210.88 167.446C210.542 167.446 210.263 167.165 210.255 166.811C210.246 166.451 210.519 166.153 210.864 166.144C215.261 166.032 218.95 167.383 221.249 169.955C223.192 172.129 224.052 175.087 223.735 178.509C223.222 184.071 220.373 187.842 215.92 188.855C215.17 189.026 214.411 189.108 213.658 189.108Z" fill="#FF424D"/>
<path d="M213.383 184.8L207.492 175.662C207.357 175.452 207.41 175.168 207.612 175.027C207.814 174.886 208.086 174.942 208.222 175.151L213.176 182.836L219.471 166.06C219.559 165.825 219.814 165.708 220.04 165.8C220.266 165.892 220.378 166.158 220.289 166.394L213.383 184.8Z" fill="#2AEBBB"/>
<path d="M122.824 77.6808L122.681 77.7329L122.656 77.6585C122.564 77.3857 122.478 77.1056 122.4 76.8258L122.379 76.7502L122.524 76.706L122.545 76.7817C122.623 77.0587 122.708 77.3361 122.799 77.6064L122.824 77.6808ZM122.351 76.0212L122.204 76.0571L122.187 75.9804C122.122 75.6946 122.066 75.4063 122.019 75.1239L122.006 75.0463L122.155 75.0192L122.168 75.0968C122.215 75.3764 122.271 75.6616 122.334 75.9445L122.351 76.0212ZM131.073 70.4441L131.073 70.4442C130.962 70.5023 130.843 70.551 130.718 70.5891L130.645 70.6112L130.603 70.46L130.675 70.4379C130.791 70.4024 130.902 70.3571 131.005 70.3034L131.005 70.3033C131.14 70.2327 131.264 70.1452 131.373 70.0438L131.429 69.9914L131.53 70.1091L131.474 70.1615C131.354 70.2722 131.22 70.3672 131.073 70.4441ZM129.937 70.6962L129.862 70.6862C129.581 70.6487 129.323 70.5065 129.095 70.2635L129.042 70.2072L129.15 70.0971L129.203 70.1534C129.407 70.3704 129.635 70.4971 129.882 70.53L129.957 70.54L129.937 70.6962ZM131.938 69.5001L131.799 69.4398L131.827 69.367C131.925 69.1215 131.983 68.8459 131.999 68.5476L132.003 68.4689L132.154 68.4777L132.15 68.5563C132.133 68.8723 132.071 69.1654 131.967 69.4273L131.938 69.5001ZM122.059 74.319L121.909 74.3362L121.9 74.2579C121.869 73.9634 121.848 73.6698 121.837 73.3853L121.834 73.3065L121.986 73.3003L121.989 73.379C121.999 73.6599 122.02 73.9498 122.051 74.2407L122.059 74.319ZM128.8 69.5224L128.661 69.5846L128.631 69.5123C128.526 69.258 128.445 68.9723 128.39 68.6635L128.377 68.5861L128.525 68.5574L128.539 68.6349C128.592 68.9323 128.67 69.2065 128.77 69.4502L128.8 69.5224ZM132.101 67.7494L131.953 67.7799L131.938 67.7025C131.886 67.4279 131.805 67.1546 131.695 66.8899L131.665 66.8175L131.804 66.7552L131.834 66.8275C131.948 67.1025 132.033 67.3866 132.087 67.6719L132.101 67.7494ZM121.985 72.5947L121.833 72.5886L121.836 72.5099C121.847 72.2138 121.87 71.92 121.904 71.6368L121.914 71.5587L122.064 71.5784L122.054 71.6565C122.021 71.9352 121.998 72.2244 121.987 72.5161L121.985 72.5947ZM128.46 67.8621L128.309 67.8653L128.307 67.7865C128.302 67.5013 128.316 67.2058 128.349 66.9083L128.358 66.83L128.508 66.8482L128.499 66.9265C128.467 67.217 128.453 67.5052 128.458 67.7835L128.46 67.8621ZM131.34 66.2112L131.296 66.1468C131.234 66.0553 131.168 65.9665 131.1 65.8825C130.993 65.75 130.876 65.6273 130.752 65.518L130.694 65.4672L130.792 65.347L130.849 65.3978C130.98 65.5127 131.103 65.6416 131.216 65.781C131.287 65.8682 131.355 65.9605 131.42 66.0556L131.463 66.12L131.34 66.2112ZM122.18 70.8849L122.032 70.8502L122.049 70.7733C122.111 70.4853 122.188 70.2014 122.277 69.929L122.301 69.8545L122.445 69.9053L122.42 69.98C122.333 70.247 122.258 70.5257 122.197 70.808L122.18 70.8849ZM128.627 66.1571L128.48 66.1202L128.497 66.0436C128.562 65.7632 128.644 65.4804 128.74 65.2033L128.766 65.1292L128.908 65.1828L128.883 65.2569C128.788 65.5286 128.708 65.8056 128.644 66.0805L128.627 66.1571ZM122.697 69.2541L122.561 69.1868L122.593 69.1156C122.713 68.8511 122.849 68.592 122.997 68.3457L123.037 68.279L123.165 68.3627L123.125 68.4294C122.98 68.6703 122.847 68.9239 122.73 69.1829L122.697 69.2541ZM130.134 65.1033L130.065 65.0714C129.823 64.9601 129.561 64.8807 129.285 64.8352L129.21 64.8229L129.234 64.6674L129.309 64.6797C129.597 64.7273 129.873 64.8106 130.126 64.9273L130.195 64.9591L130.134 65.1033ZM123.556 67.7907L123.438 67.6923L123.486 67.6308C123.66 67.4035 123.848 67.1824 124.043 66.9737L124.096 66.9173L124.204 67.0272L124.151 67.0837C123.959 67.2887 123.775 67.5059 123.604 67.7292L123.556 67.7907ZM129.172 64.5354L129.036 64.4664L129.069 64.3955C129.19 64.136 129.327 63.8775 129.475 63.6276L129.515 63.5605L129.643 63.6432L129.604 63.7102C129.458 63.9558 129.324 64.2096 129.205 64.4645L129.172 64.5354ZM128.545 64.7914L128.469 64.7959C128.206 64.8112 127.933 64.8526 127.657 64.9189L127.583 64.9365L127.549 64.783L127.623 64.7652C127.907 64.6969 128.189 64.6542 128.461 64.6384L128.536 64.6341L128.545 64.7914ZM124.698 66.5475L124.601 66.4271L124.659 66.3763C124.875 66.187 125.1 66.0084 125.329 65.8458L125.392 65.8014L125.477 65.9316L125.414 65.976C125.19 66.1358 124.968 66.311 124.756 66.4969L124.698 66.5475ZM126.942 65.1435L126.871 65.1719C126.621 65.2723 126.369 65.3927 126.121 65.53L126.054 65.5671L125.983 65.428L126.05 65.3909C126.302 65.2509 126.561 65.1276 126.817 65.0248L126.887 64.9965L126.942 65.1435ZM130.026 63.0645L129.907 62.9674L129.954 62.9053C130.123 62.6794 130.312 62.4587 130.514 62.2493L130.568 62.1938L130.675 62.3056L130.621 62.3612C130.423 62.566 130.238 62.7817 130.072 63.0026L130.026 63.0645ZM136.609 59.4318L136.535 59.4471C136.265 59.5027 135.992 59.5663 135.724 59.6362L135.651 59.6555L135.614 59.5027L135.688 59.4836C135.958 59.4129 136.233 59.3488 136.506 59.2925L136.58 59.2773L136.609 59.4318ZM134.997 59.8453L134.924 59.8685C134.657 59.9542 134.392 60.0475 134.138 60.1458L134.067 60.1731L134.014 60.0254L134.085 59.9979C134.342 59.8986 134.609 59.8042 134.88 59.7177L134.952 59.6946L134.997 59.8453ZM131.18 61.8395L131.086 61.7161L131.145 61.667C131.359 61.4902 131.589 61.3184 131.829 61.1563L131.892 61.1135L131.975 61.2457L131.911 61.2886C131.675 61.4479 131.449 61.6168 131.239 61.7905L131.18 61.8395ZM133.438 60.4397L133.369 60.4718C133.114 60.5906 132.867 60.7161 132.625 60.851L132.558 60.8882L132.487 60.7492L132.553 60.712C132.798 60.5753 133.048 60.4482 133.308 60.3278L133.377 60.2958L133.438 60.4397Z" fill="#61A3C5"/>
<path d="M140.054 60.6126L140.484 59.4986C140.484 59.4986 143.901 57.8083 143.942 57.7642C143.983 57.7201 145.489 56.103 145.489 56.103L143.149 56.7971L139.586 58.7205L140.054 60.6126Z" fill="#3F9896"/>
<path d="M138.097 57.1166L145.489 56.103L139.586 58.7203L138.097 57.1166Z" fill="#7FC6A6"/>
<path d="M140.484 59.4986L142.056 61.2112L145.489 56.103L140.484 59.4986Z" fill="#7FC6A6"/>
<path d="M254.513 228.391C254.513 228.391 255.147 219.189 258.575 220.975C262.004 222.761 264.799 234.487 265.172 234.836C265.545 235.186 265.433 245.902 265.433 245.902L261.445 243.806C261.445 243.806 260.384 218.191 254.513 228.391Z" fill="#258D8C"/>
<path d="M258.356 209.338C258.356 209.338 266.038 216.5 268.135 228.779C270.231 241.058 263.607 244.672 263.607 244.672C263.607 244.672 262.664 218.853 258.356 209.338Z" fill="#7FC6A6"/>
<path d="M272.607 246.329C272.607 246.329 273.893 220.19 280.377 208.856C280.377 208.856 268.993 215.933 265.218 234.506C265.006 235.551 264.879 236.714 264.719 237.833C264.551 238.997 264.451 240.028 264.477 241.058C264.522 242.876 264.764 244.439 264.835 245.588C265.45 255.512 272.607 246.329 272.607 246.329Z" fill="#258D8C"/>
<path d="M272.387 235.229C272.828 231.503 274.187 227.95 276.369 224.962C277.946 222.803 279.772 221.163 281.197 222.334C284.365 224.935 284.999 241.087 284.999 241.087C284.999 241.087 281.421 229.905 279.856 230.643C278.29 231.381 276.837 246.562 276.837 246.562L270.986 247.067L272.387 235.229Z" fill="#7FC6A6"/>
<path d="M264.407 245.416C264.166 239.71 264.853 234.232 266.448 229.137C267.725 225.06 269.582 221.217 271.968 217.714C276.032 211.75 280.283 208.803 280.325 208.774L280.429 208.939C280.387 208.968 276.161 211.899 272.118 217.836C268.387 223.313 264.054 232.543 264.596 245.408L264.407 245.416Z" fill="#21111D"/>
<path d="M263.512 244.676C263.51 244.611 263.268 238.136 262.503 230.583C261.797 223.616 260.49 214.283 258.27 209.381L258.441 209.297C260.673 214.224 261.984 223.581 262.691 230.563C263.457 238.123 263.699 244.604 263.701 244.669L263.512 244.676Z" fill="#21111D"/>
<path d="M261.351 243.81C261.349 243.768 261.169 239.558 260.575 235.292C259.794 229.683 258.666 226.527 257.312 226.165C256.512 225.952 255.598 226.718 254.594 228.442L254.432 228.34C255.485 226.533 256.469 225.737 257.359 225.974C258.813 226.363 259.959 229.489 260.763 235.265C261.358 239.541 261.538 243.76 261.54 243.802L261.351 243.81Z" fill="#21111D"/>
<path d="M271.08 247.079L270.892 247.055L272.293 235.217C272.74 231.44 274.124 227.873 276.294 224.902C277.668 223.021 278.889 221.998 279.922 221.862C280.409 221.797 280.858 221.93 281.256 222.256C282.59 223.352 283.641 226.856 284.38 232.673C284.928 236.991 285.092 241.043 285.093 241.083L284.904 241.091C284.898 240.93 284.236 224.955 281.139 222.411C280.782 222.119 280.381 222 279.946 222.057C278.965 222.187 277.787 223.184 276.445 225.022C274.295 227.965 272.924 231.499 272.481 235.241L271.08 247.079Z" fill="#21111D"/>
<path d="M277.144 232.477L275.915 234.96L276.083 235.05L277.312 232.568L277.144 232.477Z" fill="#21111D"/>
<path d="M277.168 234.161L275.938 236.486L276.104 236.581L277.334 234.256L277.168 234.161Z" fill="#21111D"/>
<path d="M263.553 217.674L263.38 217.755L264.431 220.159L264.604 220.077L263.553 217.674Z" fill="#21111D"/>
<path d="M263.697 219.541L263.531 219.637L264.426 221.318L264.592 221.223L263.697 219.541Z" fill="#21111D"/>
<path d="M257.654 221.863L257.568 222.039L259.357 222.989L259.443 222.813L257.654 221.863Z" fill="#21111D"/>
<path d="M258.413 222.961L258.315 223.129L259.373 223.8L259.472 223.631L258.413 222.961Z" fill="#21111D"/>
<path d="M259.414 243.141C259.414 243.141 259.748 262.251 264.661 261.803H268.524H269.145H273.008C277.921 262.251 278.255 243.141 278.255 243.141C273.605 242.409 264.063 242.409 259.414 243.141Z" fill="#F99247"/>
<path d="M276.286 245.572L270.918 251.478L271.055 251.614L276.424 245.708L276.286 245.572Z" fill="#21111D"/>
<path d="M274.712 249.416L271.755 252.956L271.898 253.086L274.854 249.545L274.712 249.416Z" fill="#21111D"/>
</svg>
