<svg width="20" height="20" viewBox="0 0 20 20" fill="none" xmlns="http://www.w3.org/2000/svg">
<path d="M14.1667 15.0007C14.1667 14.5586 13.9911 14.1347 13.6786 13.8221C13.366 13.5096 12.9421 13.334 12.5 13.334H7.50004C7.05801 13.334 6.63409 13.5096 6.32153 13.8221C6.00897 14.1347 5.83337 14.5586 5.83337 15.0007" stroke="#5B998A" stroke-width="1.33333" stroke-linecap="round" stroke-linejoin="round"/>
<path d="M15.8333 3.33398H4.16667C3.24619 3.33398 2.5 4.08018 2.5 5.00065V16.6673C2.5 17.5878 3.24619 18.334 4.16667 18.334H15.8333C16.7538 18.334 17.5 17.5878 17.5 16.6673V5.00065C17.5 4.08018 16.7538 3.33398 15.8333 3.33398Z" stroke="#5B998A" stroke-width="1.33333" stroke-linecap="round" stroke-linejoin="round"/>
<path d="M9.99998 10.0003C10.9205 10.0003 11.6666 9.25413 11.6666 8.33366C11.6666 7.41318 10.9205 6.66699 9.99998 6.66699C9.07951 6.66699 8.33331 7.41318 8.33331 8.33366C8.33331 9.25413 9.07951 10.0003 9.99998 10.0003Z" stroke="#5B998A" stroke-width="1.33333" stroke-linecap="round" stroke-linejoin="round"/>
<path d="M6.66669 1.66699V3.33366M13.3334 1.66699V3.33366" stroke="#5B998A" stroke-width="1.33333" stroke-linecap="round" stroke-linejoin="round"/>
</svg>
