<svg width="16" height="16" viewBox="0 0 16 16" fill="none" xmlns="http://www.w3.org/2000/svg">
<g id="healthicons:i-exam-multiple-choice-outline" clip-path="url(#clip0_137_20658)">
<g id="Group">
<path id="Vector" d="M6.51855 3.99999C6.51855 3.88211 6.56226 3.76907 6.64005 3.68572C6.71784 3.60237 6.82335 3.55554 6.93337 3.55554H10.2519C10.3619 3.55554 10.4674 3.60237 10.5452 3.68572C10.623 3.76907 10.6667 3.88211 10.6667 3.99999C10.6667 4.11786 10.623 4.23091 10.5452 4.31426C10.4674 4.39761 10.3619 4.44443 10.2519 4.44443H6.93337C6.82335 4.44443 6.71784 4.39761 6.64005 4.31426C6.56226 4.23091 6.51855 4.11786 6.51855 3.99999ZM6.93337 5.33332C6.82335 5.33332 6.71784 5.38014 6.64005 5.46349C6.56226 5.54684 6.51855 5.65989 6.51855 5.77776C6.51855 5.89564 6.56226 6.00868 6.64005 6.09203C6.71784 6.17538 6.82335 6.22221 6.93337 6.22221H10.2519C10.3619 6.22221 10.4674 6.17538 10.5452 6.09203C10.623 6.00868 10.6667 5.89564 10.6667 5.77776C10.6667 5.65989 10.623 5.54684 10.5452 5.46349C10.4674 5.38014 10.3619 5.33332 10.2519 5.33332H6.93337ZM6.51855 9.77776C6.51855 9.65989 6.56226 9.54684 6.64005 9.46349C6.71784 9.38014 6.82335 9.33332 6.93337 9.33332H10.2519C10.3619 9.33332 10.4674 9.38014 10.5452 9.46349C10.623 9.54684 10.6667 9.65989 10.6667 9.77776C10.6667 9.89564 10.623 10.0087 10.5452 10.092C10.4674 10.1754 10.3619 10.2222 10.2519 10.2222H6.93337C6.82335 10.2222 6.71784 10.1754 6.64005 10.092C6.56226 10.0087 6.51855 9.89564 6.51855 9.77776ZM6.93337 11.1111C6.82335 11.1111 6.71784 11.1579 6.64005 11.2413C6.56226 11.3246 6.51855 11.4377 6.51855 11.5555C6.51855 11.6734 6.56226 11.7865 6.64005 11.8698C6.71784 11.9532 6.82335 12 6.93337 12H10.2519C10.3619 12 10.4674 11.9532 10.5452 11.8698C10.623 11.7865 10.6667 11.6734 10.6667 11.5555C10.6667 11.4377 10.623 11.3246 10.5452 11.2413C10.4674 11.1579 10.3619 11.1111 10.2519 11.1111H6.93337Z" fill="#006633"/>
<path id="Vector_2" fill-rule="evenodd" clip-rule="evenodd" d="M2.37012 9.3333C2.37012 9.21543 2.41382 9.10238 2.49161 9.01903C2.56941 8.93568 2.67492 8.88885 2.78493 8.88885H4.85901C4.96902 8.88885 5.07453 8.93568 5.15233 9.01903C5.23012 9.10238 5.27382 9.21543 5.27382 9.3333V11.5555C5.27382 11.6734 5.23012 11.7864 5.15233 11.8698C5.07453 11.9531 4.96902 12 4.85901 12H2.78493C2.67492 12 2.56941 11.9531 2.49161 11.8698C2.41382 11.7864 2.37012 11.6734 2.37012 11.5555V9.3333ZM3.19975 9.77774V11.1111H4.44419V9.77774H3.19975Z" fill="#006633"/>
<path id="Vector_3" d="M5.56737 4.31424C5.64293 4.23042 5.68474 4.11815 5.6838 4.00162C5.68285 3.88509 5.63923 3.77361 5.56232 3.69121C5.48541 3.60881 5.38136 3.56206 5.2726 3.56105C5.16384 3.56004 5.05906 3.60484 4.98082 3.6858L3.61484 5.14935L3.07848 4.57468C3.00024 4.49373 2.89546 4.44893 2.7867 4.44994C2.67794 4.45095 2.57389 4.4977 2.49698 4.5801C2.42007 4.6625 2.37645 4.77397 2.3755 4.89051C2.37456 5.00704 2.41637 5.11931 2.49193 5.20313L3.61484 6.40624L5.56737 4.31424Z" fill="#006633"/>
<path id="Vector_4" fill-rule="evenodd" clip-rule="evenodd" d="M2.3702 0C1.93013 0 1.50809 0.187301 1.19692 0.520699C0.885752 0.854097 0.710938 1.30628 0.710938 1.77778V14.2222C0.710938 14.6937 0.885752 15.1459 1.19692 15.4793C1.50809 15.8127 1.93013 16 2.3702 16H10.6665C11.1066 16 11.5286 15.8127 11.8398 15.4793C12.1509 15.1459 12.3258 14.6937 12.3258 14.2222V1.77778C12.3258 1.30628 12.1509 0.854097 11.8398 0.520699C11.5286 0.187301 11.1066 0 10.6665 0H2.3702ZM1.54057 1.77778C1.54057 1.54203 1.62797 1.31594 1.78356 1.14924C1.93915 0.98254 2.15017 0.888889 2.3702 0.888889H10.6665C10.8865 0.888889 11.0975 0.98254 11.2531 1.14924C11.4087 1.31594 11.4961 1.54203 11.4961 1.77778V14.2222C11.4961 14.458 11.4087 14.6841 11.2531 14.8508C11.0975 15.0175 10.8865 15.1111 10.6665 15.1111H2.3702C2.15017 15.1111 1.93915 15.0175 1.78356 14.8508C1.62797 14.6841 1.54057 14.458 1.54057 14.2222V1.77778ZM13.1554 4.44444C13.1554 4.09082 13.2865 3.75168 13.5199 3.50164C13.7533 3.25159 14.0698 3.11111 14.3998 3.11111C14.7299 3.11111 15.0464 3.25159 15.2798 3.50164C15.5132 3.75168 15.6443 4.09082 15.6443 4.44444V13.468L14.3998 15.468L13.1554 13.468V4.44444ZM14.3998 4C14.2898 4 14.1843 4.04683 14.1065 4.13018C14.0287 4.21352 13.985 4.32657 13.985 4.44444V5.33333H14.8146V4.44444C14.8146 4.32657 14.7709 4.21352 14.6931 4.13018C14.6154 4.04683 14.5098 4 14.3998 4ZM14.3998 13.8653L13.985 13.1987V6.22222H14.8146V13.1987L14.3998 13.8653Z" fill="#006633"/>
</g>
</g>
<defs>
<clipPath id="clip0_137_20658">
<rect width="16" height="16" fill="white"/>
</clipPath>
</defs>
</svg>
