<svg width="14" height="14" viewBox="0 0 14 14" fill="none" xmlns="http://www.w3.org/2000/svg">
<g id="filter icon">
<path id="Vector" d="M12 2.97694C12 2.63501 12 2.46404 11.9313 2.33338C11.8716 2.21854 11.7762 2.12513 11.6588 2.06655C11.525 2 11.35 2 11 2H3C2.65 2 2.475 2 2.34125 2.06655C2.22365 2.12509 2.12805 2.2185 2.06813 2.33338C2 2.46404 2 2.63501 2 2.97694V3.42694C2 3.57653 2 3.65102 2.0175 3.72124C2.0328 3.78375 2.05812 3.84351 2.0925 3.89831C2.13062 3.95937 2.185 4.01249 2.2925 4.11812L5.45688 7.2089C5.565 7.31453 5.61938 7.36765 5.6575 7.42871C5.69188 7.48366 5.7175 7.5435 5.7325 7.60578C5.75 7.67539 5.75 7.74927 5.75 7.8952V10.7991C5.75 11.3224 5.75 11.5844 5.8625 11.7419C5.91131 11.81 5.97385 11.8677 6.04629 11.9114C6.11872 11.955 6.19953 11.9838 6.28375 11.9959C6.47813 12.024 6.71813 11.9074 7.19688 11.6729L7.69688 11.4287C7.89813 11.331 7.99813 11.2821 8.07125 11.2088C8.13612 11.1441 8.18543 11.0661 8.21563 10.9805C8.25 10.884 8.25 10.7741 8.25 10.5549V7.90008C8.25 7.75049 8.25 7.676 8.2675 7.60578C8.28279 7.54326 8.3081 7.4835 8.3425 7.42871C8.38 7.36765 8.43438 7.31514 8.54063 7.21134L8.54313 7.2089L11.7075 4.11812C11.815 4.01249 11.8688 3.95937 11.9075 3.89831C11.9419 3.84354 11.9673 3.78377 11.9825 3.72124C12 3.65224 12 3.57775 12 3.43182V2.97694Z" stroke="#090D0A" stroke-width="1.33333" stroke-linecap="round" stroke-linejoin="round"/>
</g>
</svg>
