<svg width="13" height="13" viewBox="0 0 13 13" fill="none" xmlns="http://www.w3.org/2000/svg">
<path d="M6.58001 12.6667C6.25809 12.6663 5.94921 12.5394 5.72001 12.3133L1.44668 8.03335C1.33702 7.92432 1.26868 7.78056 1.25335 7.62668L0.666681 1.39335C0.657701 1.2957 0.670371 1.19728 0.703789 1.10509C0.737207 1.0129 0.790549 0.929223 0.860015 0.860015C0.929223 0.790549 1.0129 0.737207 1.10509 0.703789C1.19728 0.670371 1.2957 0.657701 1.39335 0.666681L7.62668 1.25335C7.78056 1.26868 7.92432 1.33702 8.03335 1.44668L12.3133 5.72001C12.5401 5.94745 12.6674 6.25552 12.6674 6.57668C12.6674 6.89785 12.5401 7.20591 12.3133 7.43335L7.43335 12.3133C7.2066 12.539 6.89992 12.666 6.58001 12.6667ZM2.58001 7.26002L6.58001 11.26L11.28 6.56001L7.28001 2.56001L2.07335 2.07335L2.58001 7.26002Z" fill="#858585"/>
</svg>
