<svg width="16" height="16" viewBox="0 0 16 16" fill="none" xmlns="http://www.w3.org/2000/svg">
<g id="gender">
<path id="Vector" d="M13.5 1.75H10.5C10.3011 1.75 10.1103 1.82902 9.96966 1.96967C9.82901 2.11032 9.74999 2.30109 9.74999 2.5C9.74999 2.69891 9.82901 2.88968 9.96966 3.03033C10.1103 3.17098 10.3011 3.25 10.5 3.25H11.6875L9.64249 5.29625C8.57938 4.50174 7.25481 4.13936 5.93531 4.28202C4.61581 4.42468 3.3993 5.0618 2.53058 6.06517C1.66185 7.06854 1.20538 8.3637 1.25302 9.69003C1.30065 11.0164 1.84886 12.2754 2.78733 13.2139C3.72579 14.1524 4.98487 14.7006 6.3112 14.7482C7.63754 14.7959 8.9327 14.3394 9.93607 13.4707C10.9394 12.6019 11.5766 11.3854 11.7192 10.0659C11.8619 8.74642 11.4995 7.42186 10.705 6.35875L12.75 4.3125V5.5C12.75 5.69891 12.829 5.88968 12.9697 6.03033C13.1103 6.17098 13.3011 6.25 13.5 6.25C13.6989 6.25 13.8897 6.17098 14.0303 6.03033C14.171 5.88968 14.25 5.69891 14.25 5.5V2.5C14.25 2.30109 14.171 2.11032 14.0303 1.96967C13.8897 1.82902 13.6989 1.75 13.5 1.75ZM9.15061 12.1538C8.62611 12.678 7.95792 13.035 7.23053 13.1796C6.50314 13.3242 5.74922 13.2498 5.06409 12.966C4.37895 12.6821 3.79337 12.2014 3.38138 11.5848C2.9694 10.9681 2.7495 10.2432 2.7495 9.50156C2.7495 8.75995 2.9694 8.03498 3.38138 7.41833C3.79337 6.80168 4.37895 6.32103 5.06409 6.03716C5.74922 5.75329 6.50314 5.67894 7.23053 5.82351C7.95792 5.96808 8.62611 6.32508 9.15061 6.84937C9.85268 7.55349 10.2469 8.50724 10.2469 9.50156C10.2469 10.4959 9.85268 11.4496 9.15061 12.1538Z" fill="#858585"/>
</g>
</svg>
