<svg width="16" height="16" viewBox="0 0 16 16" fill="none" xmlns="http://www.w3.org/2000/svg">
<g id="healthicons:doctor-male-outline">
<g id="Group">
<path id="Vector" fill-rule="evenodd" clip-rule="evenodd" d="M5.54967 3.10868L5.568 3.02868C5.603 2.88002 5.66033 2.66135 5.77867 2.44602C5.89933 2.22668 6.08633 2.00435 6.37967 1.85802C6.672 1.71235 7.03833 1.65802 7.49133 1.71802C7.99133 1.78468 8.99567 1.95002 9.883 2.40135C10.7753 2.85535 11.6113 3.63635 11.6113 4.93702C11.6113 5.60902 11.3513 6.33002 11.0993 6.80002C10.9783 7.02602 10.8347 7.24202 10.6907 7.35835C10.6577 7.38502 10.6107 7.41835 10.5523 7.44168C10.3923 7.96754 10.0738 8.43114 9.64032 8.7691C9.20684 9.10706 8.67955 9.30289 8.13055 9.32981C7.58156 9.35673 7.03764 9.21343 6.57317 8.9195C6.10871 8.62557 5.74636 8.19536 5.53567 7.68768L5.52767 7.68902L5.40933 7.54535L5.409 7.54468L5.40833 7.54402L5.40667 7.54168L5.401 7.53502C5.37247 7.49951 5.34502 7.46316 5.31867 7.42602C5.24669 7.32619 5.17885 7.22343 5.11533 7.11802C4.95867 6.85868 4.76967 6.48935 4.64867 6.05835C4.528 5.62735 4.47267 5.12202 4.59933 4.60068C4.72267 4.09335 5.01367 3.59402 5.54067 3.14802L5.54967 3.10868ZM6.10967 7.32135C6.25423 7.7371 6.53185 8.09358 6.89952 8.33558C7.26719 8.57757 7.7044 8.69159 8.14343 8.65997C8.58245 8.62834 8.9988 8.45284 9.32799 8.16064C9.65718 7.86845 9.88084 7.47586 9.96433 7.04368L10.002 7.05635C10.0007 7.03749 10 7.01859 10 6.99968C10 6.44802 9.92333 6.06302 9.852 5.82302C9.83807 5.7763 9.82262 5.73006 9.80567 5.68435L9.792 5.68502H9.77867C9.52941 5.6904 9.28023 5.67142 9.03467 5.62835C8.46233 5.53168 7.68733 5.29035 6.77467 4.73135C6.75467 4.77602 6.73467 4.82635 6.71467 4.88235C6.64933 5.06735 6.59567 5.28702 6.54933 5.51902C6.50833 5.72335 6.47467 5.92902 6.44267 6.12168L6.43033 6.19768C6.396 6.40435 6.36167 6.60735 6.32167 6.75435C6.25167 7.00968 6.18033 7.19102 6.10967 7.32102V7.32135ZM5.643 6.70035C5.49244 6.44192 5.37422 6.16596 5.291 5.87868C5.19133 5.52335 5.15467 5.13868 5.24733 4.75835C5.33733 4.38835 5.555 3.99935 6.00267 3.63068C6.08333 3.57602 6.12 3.50268 6.13 3.48302V3.48268C6.1475 3.44665 6.16157 3.40903 6.172 3.37035C6.18267 3.33235 6.19433 3.28035 6.20533 3.23368L6.217 3.18135C6.24867 3.04702 6.28967 2.90068 6.363 2.76702C6.43433 2.63768 6.532 2.52702 6.67733 2.45468C6.82333 2.38168 7.04933 2.33168 7.40333 2.37902C7.88767 2.44335 8.79867 2.59768 9.58067 2.99568C10.3573 3.39068 10.9447 3.98868 10.9447 4.93702C10.9447 5.37368 10.798 5.87035 10.6213 6.26202C10.588 6.00668 10.54 5.79802 10.4907 5.63268C10.4563 5.51452 10.4134 5.399 10.3623 5.28702C10.3431 5.24552 10.322 5.20492 10.299 5.16535L10.2933 5.15635L10.2913 5.15302L10.2903 5.15135L10.2897 5.15035L10.1663 4.95902L9.94567 5.00335L9.941 5.00435L9.90867 5.00868C9.85906 5.01421 9.80923 5.01755 9.75933 5.01868C9.55381 5.02266 9.3484 5.00658 9.146 4.97068C8.60833 4.88002 7.81833 4.63302 6.85867 3.99402L6.62533 3.83835L6.43233 4.04168C6.27333 4.20902 6.16533 4.43735 6.08633 4.65968C6.00567 4.88802 5.94467 5.14302 5.89567 5.38768C5.85504 5.5959 5.81815 5.80482 5.785 6.01435L5.77233 6.08902C5.73667 6.30602 5.70767 6.47168 5.67833 6.57902C5.66739 6.6197 5.65561 6.66015 5.643 6.70035Z" fill="#858585"/>
<path id="Vector_2" fill-rule="evenodd" clip-rule="evenodd" d="M5.97133 9.61834C5.90067 9.47767 5.81367 9.30401 5.66667 9.33767C3.86533 9.74767 2 10.9313 2 12.19V14H14V12.19C14 11.1987 12.8427 10.2537 11.471 9.69667L11.4693 9.69334C11.4678 9.69032 11.4663 9.68732 11.4647 9.68434L11.4537 9.68967C11.0893 9.54301 10.71 9.42301 10.3333 9.33767C10.1657 9.29934 9.99233 9.53001 9.91667 9.67434H6C5.99067 9.65701 5.98133 9.63767 5.97133 9.61834ZM10.4677 10.0583C10.6133 10.0987 10.7583 10.144 10.9013 10.194C10.9053 10.308 10.8967 10.4427 10.878 10.58C10.859 10.7222 10.8287 10.8626 10.7873 11H10.3333C10.2714 11 10.2108 11.0173 10.1582 11.0499C10.1055 11.0824 10.063 11.129 10.0353 11.1843L9.702 11.851C9.67882 11.8973 9.66672 11.9483 9.66667 12V12.6667C9.66667 12.7551 9.70179 12.8399 9.7643 12.9024C9.82681 12.9649 9.91159 13 10 13H10.6667V12.3333H10.3333V12.0787L10.5393 11.6667H11.4607L11.6667 12.0787V12.3333H11.3333V13H12C12.0884 13 12.1732 12.9649 12.2357 12.9024C12.2982 12.8399 12.3333 12.7551 12.3333 12.6667V12C12.3333 11.9483 12.3212 11.8973 12.298 11.851L11.9647 11.1843C11.937 11.129 11.8945 11.0824 11.8418 11.0499C11.7892 11.0173 11.7286 11 11.6667 11H11.478C11.5192 10.8236 11.5468 10.6443 11.5607 10.4637C11.8857 10.6173 12.1877 10.7937 12.4493 10.9843C13.09 11.4517 13.3333 11.889 13.3333 12.19V13.3333H2.66667V12.19C2.66667 11.889 2.91 11.4517 3.55067 10.9843C3.87267 10.7493 4.257 10.5367 4.669 10.3607C4.68044 10.6263 4.72307 10.8897 4.796 11.1453L4.79867 11.1547C4.59939 11.2807 4.45107 11.4732 4.37991 11.698C4.30875 11.9228 4.31933 12.1655 4.40977 12.3833C4.50022 12.6011 4.66471 12.7799 4.8742 12.8881C5.08369 12.9964 5.3247 13.0272 5.55466 12.975C5.78461 12.9228 5.98873 12.791 6.13095 12.6029C6.27317 12.4148 6.34434 12.1825 6.3319 11.947C6.31946 11.7115 6.2242 11.488 6.06296 11.316C5.90171 11.1439 5.68484 11.0344 5.45067 11.0067C5.40807 10.8672 5.37686 10.7245 5.35733 10.58C5.33878 10.4508 5.33108 10.3202 5.33433 10.1897C5.3353 10.1647 5.33697 10.1398 5.33933 10.115C5.37933 10.1027 5.41933 10.0907 5.45933 10.0793L5.59767 10.3413H10.319L10.4677 10.0587V10.0583ZM5.33333 12.3387C5.51267 12.3387 5.66667 12.192 5.66667 12.0003C5.66667 11.809 5.51267 11.662 5.33333 11.662C5.154 11.662 5 11.8087 5 12.0003C5 12.1917 5.154 12.3387 5.33333 12.3387Z" fill="#858585"/>
</g>
</g>
</svg>
