<svg width="14" height="14" viewBox="0 0 14 14" fill="none" xmlns="http://www.w3.org/2000/svg">
<path id="Vector" d="M1.24105 1.39566C1.99684 0.5454 3.01061 0.0480097 4.07895 0.00329795C5.14728 -0.0414138 6.19113 0.369861 7.00103 1.1546C7.81014 0.371074 8.85256 -0.0398666 9.91961 0.00404634C10.9867 0.0479592 11.9996 0.543485 12.7556 1.39142C13.5116 2.23935 13.9549 3.37711 13.9967 4.57692C14.0386 5.77673 13.6759 6.95004 12.9813 7.86195L7.92172 13.5706C7.68926 13.8321 7.3775 13.9851 7.04893 13.999C6.72037 14.0128 6.39929 13.8865 6.15007 13.6453L6.07839 13.5706L1.01951 7.86268C0.325054 6.95152 -0.0379329 5.77913 0.00314107 4.57999C0.0442151 3.38084 0.486322 2.24406 1.24105 1.39566ZM2.16238 2.431C1.62936 3.03039 1.32209 3.83761 1.30438 4.68505C1.28666 5.53249 1.55986 6.35505 2.06725 6.98195L2.16238 7.09406L7.00038 12.5345L10.4557 8.64816L8.15238 6.05798L7.4617 6.83467C7.28021 7.03886 7.06474 7.20084 6.82758 7.31138C6.59042 7.42192 6.33623 7.47885 6.0795 7.47892C5.56103 7.47906 5.06374 7.24758 4.69704 6.8354C4.33033 6.42323 4.12425 5.86412 4.12413 5.28108C4.12401 4.69804 4.32986 4.13883 4.69639 3.72646L6.06601 2.18627C5.52102 1.69699 4.83882 1.4421 4.14181 1.46735C3.44479 1.49259 2.77859 1.79632 2.26273 2.32402L2.16238 2.431ZM7.69171 4.50388C7.8139 4.36651 7.9796 4.28935 8.15238 4.28935C8.32515 4.28935 8.49086 4.36651 8.61305 4.50388L11.3771 7.61209L11.8384 7.09406C12.3801 6.48526 12.6886 5.66225 12.6977 4.80104C12.7068 3.93983 12.416 3.10878 11.8873 2.48563C11.3586 1.86248 10.634 1.49668 9.86861 1.46648C9.10318 1.43628 8.35763 1.74407 7.7914 2.32402L7.69171 2.431L5.61837 4.76253C5.50544 4.88945 5.43787 5.05858 5.4285 5.23782C5.41913 5.41706 5.46861 5.59393 5.56755 5.73485L5.61837 5.79933C5.73132 5.92623 5.88177 6.00207 6.04116 6.01248C6.20055 6.02288 6.35778 5.96711 6.48302 5.85575L6.53971 5.79933L7.69171 4.50388Z" fill="#FEFEFE"/>
</svg>
