<svg width="184" height="199" viewBox="0 0 184 199" fill="none" xmlns="http://www.w3.org/2000/svg">
<path d="M39.624 8.43555H6.5376V43.0253H39.624V8.43555Z" fill="#E0E0E0"/>
<path d="M37.3808 8.43555H4.29443V43.0253H37.3808V8.43555Z" fill="#FAFAFA"/>
<path d="M37.3939 43.0384H4.28564V8.42676H37.3939V43.0384ZM4.30751 43.0384H37.3721V8.45307H4.30751V43.0384Z" fill="#E0E0E0"/>
<path d="M32.9334 13.084H8.7417V38.3761H32.9334V13.084Z" fill="white"/>
<path d="M8.74174 38.543C8.5725 38.7988 8.37278 39.033 8.14701 39.2403C7.75781 39.6482 7.21555 40.2007 6.6077 40.806C5.99985 41.4112 5.4401 41.9419 5.02903 42.319C4.81777 42.5398 4.58316 42.7369 4.32935 42.9067C4.49832 42.6546 4.69812 42.4248 4.92408 42.2225C5.30891 41.8103 5.85116 41.2577 6.46339 40.6525C7.07561 40.0472 7.63536 39.5166 8.04643 39.135C8.254 38.9108 8.48741 38.712 8.74174 38.543Z" fill="#E0E0E0"/>
<path d="M32.9333 38.4814C33.1888 38.6524 33.4223 38.8542 33.6287 39.0823C34.0354 39.4682 34.5907 40.012 35.1898 40.6216C35.7889 41.2313 36.3225 41.7926 36.7029 42.2093C36.9239 42.4192 37.1191 42.6547 37.2845 42.911C37.0328 42.7386 36.801 42.5385 36.5936 42.3145C36.1869 41.9286 35.6315 41.3804 35.0324 40.7664C34.4333 40.1524 33.8954 39.5954 33.515 39.1788C33.2932 38.9712 33.0978 38.737 32.9333 38.4814Z" fill="#E0E0E0"/>
<path d="M32.8679 13.1548C33.0402 12.8999 33.2412 12.6659 33.467 12.4574C33.8519 12.0496 34.3941 11.4926 35.0063 10.8917C35.6186 10.2909 36.1739 9.75586 36.585 9.37431C36.7943 9.15272 37.0292 8.95691 37.2847 8.79102C37.1146 9.04484 36.9149 9.27745 36.69 9.48395C36.3051 9.89182 35.7585 10.4488 35.1506 11.0496C34.5428 11.6505 33.9787 12.1899 33.5676 12.5715C33.3587 12.7935 33.1238 12.9893 32.8679 13.1548Z" fill="#E0E0E0"/>
<path d="M8.67615 13.2157C8.4228 13.0419 8.18959 12.8404 7.98083 12.6148C7.57414 12.2289 7.02314 11.6851 6.42403 11.0754C5.82493 10.4658 5.29141 9.90009 4.91096 9.48784C4.68837 9.27946 4.49295 9.04369 4.32935 8.78613C4.58244 8.95676 4.81438 9.15698 5.02029 9.38258C5.42698 9.76852 5.98235 10.3167 6.58146 10.9263C7.18057 11.5359 7.71845 12.1017 8.09891 12.5183C8.31866 12.7266 8.51248 12.9607 8.67615 13.2157Z" fill="#E0E0E0"/>
<path d="M32.8678 38.3762C32.8678 38.3762 32.8678 38.3324 32.8678 38.2534C32.8678 38.1745 32.8678 38.0517 32.8678 37.8982C32.8678 37.5824 32.8678 37.1263 32.8678 36.5342C32.8678 35.3369 32.8678 33.5958 32.8678 31.3811C32.8678 26.9516 32.8416 20.6406 32.8197 13.0841L32.9115 13.1762H8.78984L8.89917 13.0665C8.89917 22.351 8.89917 31.0478 8.89917 38.3587L8.80733 38.2666L26.2995 38.3148L31.206 38.3367H32.518H31.2366H26.3476L8.82045 38.385H8.6499V38.2929C8.6499 30.9688 8.6499 22.2852 8.6499 13.0008V12.8955H8.75923H32.8809H32.964V12.9876C32.964 20.5704 32.9246 26.8989 32.9159 31.3416C32.9159 33.5344 32.9159 35.2887 32.8897 36.4772C32.8897 37.0605 32.8897 37.5122 32.8897 37.8236C32.8897 37.9727 32.8897 38.0824 32.8897 38.1657C32.8965 38.2366 32.8891 38.3082 32.8678 38.3762Z" fill="#E0E0E0"/>
<path d="M24.8739 21.6846H16.8013V29.7805H24.8739V21.6846Z" fill="#EBEBEB"/>
<path d="M179.373 2.44043H132.232V80.6982H179.373V2.44043Z" fill="#E0E0E0"/>
<path d="M177.803 2.44043H130.662V80.6982H177.803V2.44043Z" fill="#EBEBEB"/>
<path d="M175.796 4.02832H132.669V79.1152H175.796V4.02832Z" fill="white"/>
<path d="M167.4 13.7861H140.882V69.3569H167.4V13.7861Z" fill="#EBEBEB"/>
<path d="M140.882 49.6778C140.821 44.4896 145.474 39.4197 150.599 38.7137C153.043 38.3672 155.641 38.854 157.924 37.9155C161.999 36.2358 163.281 30.8195 167.4 29.1924L167.588 69.3563H140.882V49.6778Z" fill="#E0E0E0"/>
<path d="M104.061 130.33H22.7004V167.963H104.061V130.33Z" fill="#F5F5F5"/>
<path d="M102.124 166.192H24.5635V132.312H102.124V166.192ZM25.0664 165.683H101.621V132.821H25.0664V165.683Z" fill="#E0E0E0"/>
<path d="M123.936 130.33H104.061V167.963H123.936V130.33Z" fill="#E0E0E0"/>
<path d="M24.817 142.798H101.87C101.894 142.793 101.915 142.781 101.93 142.762C101.945 142.743 101.954 142.72 101.954 142.696C101.954 142.671 101.945 142.648 101.93 142.629C101.915 142.611 101.894 142.598 101.87 142.593H24.817C24.7934 142.598 24.7722 142.611 24.757 142.629C24.7417 142.648 24.7334 142.671 24.7334 142.696C24.7334 142.72 24.7417 142.743 24.757 142.762C24.7722 142.781 24.7934 142.793 24.817 142.798Z" fill="#E0E0E0"/>
<path d="M63.5972 142.693C63.8093 139.289 63.8181 135.876 63.6234 132.47C63.6234 132.443 63.6124 132.416 63.5927 132.396C63.573 132.376 63.5463 132.365 63.5185 132.365C63.4906 132.365 63.4639 132.376 63.4443 132.396C63.4246 132.416 63.4135 132.443 63.4135 132.47C63.2167 135.876 63.2255 139.289 63.4398 142.693C63.4398 142.714 63.4481 142.734 63.4628 142.749C63.4776 142.764 63.4976 142.772 63.5185 142.772C63.5394 142.772 63.5594 142.764 63.5741 142.749C63.5889 142.734 63.5972 142.714 63.5972 142.693Z" fill="#E0E0E0"/>
<path d="M84.3385 137.583C84.3394 137.793 84.2783 137.997 84.163 138.172C84.0477 138.346 83.8835 138.482 83.691 138.563C83.4985 138.643 83.2864 138.665 83.0817 138.624C82.877 138.584 82.6888 138.484 82.5409 138.336C82.3931 138.189 82.2923 138.001 82.2513 137.795C82.2103 137.59 82.2309 137.378 82.3105 137.184C82.3902 136.991 82.5252 136.826 82.6986 136.71C82.872 136.593 83.076 136.531 83.2846 136.531C83.5634 136.531 83.8308 136.642 84.0283 136.839C84.2258 137.036 84.3374 137.304 84.3385 137.583Z" fill="#E0E0E0"/>
<path d="M43.8967 137.583C43.8967 137.791 43.8351 137.995 43.7198 138.168C43.6045 138.341 43.4405 138.476 43.2488 138.555C43.057 138.635 42.846 138.656 42.6424 138.615C42.4388 138.575 42.2518 138.474 42.105 138.327C41.9582 138.18 41.8583 137.993 41.8178 137.789C41.7773 137.585 41.7981 137.373 41.8775 137.181C41.9569 136.988 42.0915 136.824 42.2641 136.709C42.4366 136.593 42.6396 136.531 42.8471 136.531C42.985 136.531 43.1214 136.558 43.2488 136.611C43.3761 136.664 43.4918 136.742 43.5893 136.839C43.6867 136.937 43.764 137.053 43.8168 137.181C43.8695 137.308 43.8967 137.445 43.8967 137.583Z" fill="#E0E0E0"/>
<path d="M64.393 149.232C64.393 149.44 64.3315 149.643 64.2161 149.816C64.1008 149.989 63.9369 150.124 63.7451 150.204C63.5533 150.283 63.3423 150.304 63.1387 150.264C62.9351 150.223 62.7481 150.123 62.6013 149.976C62.4546 149.829 62.3546 149.641 62.3141 149.437C62.2736 149.233 62.2944 149.021 62.3738 148.829C62.4533 148.637 62.5878 148.473 62.7604 148.357C62.933 148.241 63.1359 148.18 63.3435 148.18C63.4815 148.179 63.6182 148.206 63.7458 148.259C63.8734 148.311 63.9893 148.389 64.0869 148.487C64.1845 148.584 64.2618 148.701 64.3143 148.828C64.3668 148.956 64.3936 149.093 64.393 149.232Z" fill="#E0E0E0"/>
<path d="M32.4262 167.964L28.2368 191.589H30.5939L38.3167 167.964H32.4262Z" fill="#E0E0E0"/>
<path d="M98.306 167.964L101.809 191.629H99.4518L92.4155 167.964H98.306Z" fill="#E0E0E0"/>
<path d="M114.036 167.964L118.002 191.629H115.645L108.145 167.964H114.036Z" fill="#E0E0E0"/>
<path d="M64.3229 159.902C64.3229 160.11 64.2614 160.313 64.1461 160.486C64.0307 160.659 63.8668 160.794 63.675 160.874C63.4833 160.953 63.2722 160.974 63.0687 160.934C62.8651 160.893 62.6781 160.793 62.5313 160.646C62.3845 160.499 62.2845 160.311 62.244 160.107C62.2035 159.903 62.2243 159.691 62.3038 159.499C62.3832 159.307 62.5177 159.143 62.6903 159.027C62.8629 158.911 63.0658 158.85 63.2734 158.85C63.5514 158.851 63.8177 158.962 64.0143 159.159C64.2108 159.356 64.3218 159.623 64.3229 159.902Z" fill="#E0E0E0"/>
<path d="M24.817 154.451H101.87C101.894 154.446 101.915 154.433 101.93 154.414C101.945 154.395 101.954 154.372 101.954 154.348C101.954 154.324 101.945 154.3 101.93 154.282C101.915 154.263 101.894 154.25 101.87 154.245H24.817C24.7934 154.25 24.7722 154.263 24.757 154.282C24.7417 154.3 24.7334 154.324 24.7334 154.348C24.7334 154.372 24.7417 154.395 24.757 154.414C24.7722 154.433 24.7934 154.446 24.817 154.451Z" fill="#E0E0E0"/>
<path d="M79.502 117.555L79.4758 112.533L54.8778 112.662L54.904 117.684L79.502 117.555Z" fill="#E0E0E0"/>
<path d="M82.456 130.219L82.4153 122.417L54.9967 122.561L55.0374 130.363L82.456 130.219Z" fill="#F5F5F5"/>
<path d="M77.1798 130.172C77.1054 130.172 77.0442 128.418 77.0442 126.273C77.0442 124.129 77.1054 122.37 77.1798 122.37C77.2541 122.37 77.3109 124.124 77.3109 126.273C77.3109 128.422 77.2541 130.172 77.1798 130.172Z" fill="#E0E0E0"/>
<path d="M78.3299 130.172C78.2556 130.172 78.1987 128.418 78.1987 126.273C78.1987 124.129 78.2556 122.37 78.3299 122.37C78.4043 122.37 78.4655 124.124 78.4655 126.273C78.4655 128.422 78.4043 130.172 78.3299 130.172Z" fill="#E0E0E0"/>
<path d="M59.1673 130.172C59.093 130.172 59.0361 128.418 59.0361 126.273C59.0361 124.129 59.093 122.37 59.1673 122.37C59.2417 122.37 59.3029 124.124 59.3029 126.273C59.3029 128.422 59.2417 130.172 59.1673 130.172Z" fill="#E0E0E0"/>
<path d="M60.3218 130.172C60.2475 130.172 60.1863 128.418 60.1863 126.273C60.1863 124.129 60.2475 122.37 60.3218 122.37C60.4514 123.667 60.4952 124.971 60.453 126.273C60.4951 127.574 60.4513 128.877 60.3218 130.172Z" fill="#E0E0E0"/>
<path d="M62.8318 126.396C62.8318 126.322 65.5999 126.261 69.0109 126.261C72.4219 126.261 75.19 126.322 75.19 126.396C75.19 126.471 72.4219 126.532 69.0109 126.532C65.5999 126.532 62.8318 126.471 62.8318 126.396Z" fill="#E0E0E0"/>
<path d="M92.7538 122.375L92.7275 117.354L58.8938 117.531L58.92 122.553L92.7538 122.375Z" fill="#EBEBEB"/>
<path d="M87.9111 121.756C87.5891 121.76 87.2732 121.668 87.0034 121.492C86.7337 121.316 86.5223 121.063 86.3963 120.766C86.2703 120.469 86.2352 120.141 86.2957 119.824C86.3562 119.506 86.5094 119.214 86.7358 118.985C86.9623 118.755 87.2517 118.598 87.5673 118.534C87.8829 118.47 88.2103 118.502 88.508 118.625C88.8056 118.748 89.06 118.957 89.2388 119.226C89.4175 119.494 89.5125 119.81 89.5116 120.133C89.5128 120.345 89.4723 120.555 89.3925 120.752C89.3127 120.948 89.1951 121.126 89.0465 121.277C88.8979 121.428 88.7211 121.548 88.5263 121.63C88.3315 121.712 88.1224 121.755 87.9111 121.756Z" fill="#E0E0E0"/>
<path d="M83.5164 120.634V119.63H60.8684V120.634H83.5164Z" fill="#E0E0E0"/>
<path d="M125.235 89.9215L123.7 90.1715L119.594 86.0358L119.1 82.9658C119.1 82.9658 116.703 83.207 117.635 87.1804C118.566 91.1539 118.094 90.1846 118.094 90.1846C118.094 90.1846 113.061 91.0223 112.715 91.5266C112.461 91.895 113.131 96.9342 113.52 99.662C113.592 100.324 113.883 100.943 114.347 101.42C114.81 101.897 115.42 102.204 116.078 102.293C116.262 102.318 116.449 102.318 116.633 102.293C117.888 102.092 124.142 100.026 124.142 100.026L126.792 99.5875L125.235 89.9215Z" fill="#EBEBEB"/>
<path d="M129.486 88.3633L130.238 99.0424L127.614 99.4678L125.948 89.1571L129.486 88.3633Z" fill="#EBEBEB"/>
<path d="M38.3122 62.142C37.9315 61.2837 37.2963 60.5639 36.493 60.0807C35.7255 59.5736 34.8181 59.3219 33.8998 59.3615C33.1231 59.4135 32.385 59.7203 31.7994 60.2347C31.2137 60.7491 30.8132 61.4424 30.6594 62.2078C30.1167 61.6857 29.4222 61.3507 28.6767 61.2513C27.9312 61.152 27.1736 61.2934 26.5137 61.6552C25.7178 62.1137 25.086 62.8119 24.7077 63.6506C24.2868 64.4904 24.1341 65.4398 24.2704 66.3697C24.4626 67.5524 25.0301 68.6413 25.8884 69.4748C26.8436 70.295 27.9799 70.8753 29.2032 71.1677C31.2016 71.6983 33.8167 72.3342 33.8167 72.3342C33.8167 72.3342 35.2992 70.3651 36.7029 68.8257C37.5817 67.9244 38.2325 66.8251 38.6008 65.6198C38.8777 64.4594 38.7765 63.2405 38.3122 62.142Z" fill="#EBEBEB"/>
<path d="M156.817 97.8763C156.708 97.3061 156.425 96.7837 156.008 96.3808C155.618 95.9686 155.109 95.6907 154.552 95.587C154.077 95.5082 153.589 95.5889 153.165 95.8165C152.74 96.0441 152.402 96.4059 152.204 96.8457C151.95 96.4566 151.579 96.1585 151.145 95.9945C150.711 95.8305 150.236 95.8092 149.79 95.9335C149.246 96.0984 148.768 96.4296 148.421 96.8808C148.052 97.3292 147.829 97.8802 147.782 98.4596C147.735 99.1972 147.925 99.9307 148.325 100.552C148.782 101.177 149.382 101.683 150.074 102.03C151.202 102.63 152.698 103.38 152.698 103.38C152.698 103.38 153.861 102.398 154.919 101.679C155.574 101.261 156.119 100.691 156.507 100.017C156.837 99.3553 156.946 98.6046 156.817 97.8763Z" fill="#EBEBEB"/>
<path d="M100.991 6.78141C101.531 6.53807 101.989 6.14301 102.309 5.64408C102.63 5.14515 102.799 4.56372 102.797 3.9702C102.82 3.58268 102.764 3.19451 102.633 2.82939C102.501 2.46427 102.297 2.12989 102.032 1.84668C101.767 1.56347 101.448 1.33739 101.093 1.18224C100.738 1.0271 100.356 0.946158 99.9685 0.944366C99.5814 0.942575 99.198 1.01997 98.8418 1.17182C98.4855 1.32368 98.1639 1.54679 97.8965 1.82754C97.6292 2.10829 97.4217 2.44076 97.2869 2.80465C97.152 3.16853 97.0926 3.55617 97.1121 3.94388C97.1007 4.54331 97.2665 5.1327 97.5887 5.63769C97.911 6.14269 98.3751 6.54067 98.9226 6.78141C94.5495 7.44364 94.7507 12.2065 94.7507 12.2065L105.089 12.2547C105.089 12.2547 105.325 7.43926 100.991 6.78141Z" fill="#EBEBEB"/>
<path d="M17.8507 98.6615C18.8586 98.2791 19.7326 97.6088 20.3645 96.7334C20.9964 95.858 21.3585 94.816 21.4059 93.7364C21.5809 90.6664 19.4162 88.0833 16.565 87.9166C13.7138 87.7499 11.2649 90.0831 11.0987 93.1312C11.0199 94.218 11.2636 95.3038 11.799 96.2521C12.3344 97.2003 13.1375 97.9684 14.1073 98.4597C6.10469 99.2272 5.99536 107.902 5.99536 107.902L24.7688 109.007C24.7688 109.007 25.6565 100.28 17.8507 98.6615Z" fill="#F5F5F5"/>
<path d="M184 191.627C184 191.693 142.806 191.741 92.0044 191.741C41.2028 191.741 0 191.693 0 191.627C0 191.562 41.1853 191.514 92.0044 191.514C142.823 191.514 184 191.566 184 191.627Z" fill="#090D0A"/>
<path d="M152.287 167.849C158.181 164.612 164.798 158.744 167.347 152.1C160.797 155.625 155.525 161.138 152.287 167.849Z" fill="#5B998A"/>
<path d="M152.619 157.905C158.514 154.669 165.13 148.801 167.68 142.156C161.129 145.682 155.858 151.194 152.619 157.905Z" fill="#5B998A"/>
<path d="M153.45 148.187C159.345 144.946 165.961 139.078 168.511 132.438C161.959 135.963 156.687 141.476 153.45 148.187Z" fill="#5B998A"/>
<path d="M154.688 137.973C160.149 133.934 166.018 127.184 167.763 120.237C161.683 124.654 157.116 130.849 154.688 137.973Z" fill="#5B998A"/>
<path d="M156.314 130.088C159.992 124.11 163.114 115.457 162.349 108.3C158.247 114.81 156.149 122.388 156.314 130.088Z" fill="#5B998A"/>
<path d="M155.492 133.842C153.887 126.422 150.034 117.273 144.533 112.138C146.18 120.227 149.965 127.724 155.492 133.842Z" fill="#5B998A"/>
<path d="M154.32 142.253C152.042 134.662 147.28 125.474 141.122 120.605C143.501 128.88 148.061 136.358 154.32 142.253Z" fill="#5B998A"/>
<path d="M153.03 152.494C150.752 144.907 145.99 135.715 139.837 130.847C142.212 139.122 146.77 146.6 153.03 152.494Z" fill="#5B998A"/>
<path d="M152.422 164.975C150.144 157.383 145.382 148.191 139.225 143.327C141.605 151.601 146.164 159.079 152.422 164.975Z" fill="#5B998A"/>
<path d="M156.454 128.588C156.436 128.627 156.422 128.668 156.415 128.711C156.394 128.804 156.368 128.923 156.336 129.066C156.262 129.399 156.166 129.864 156.039 130.447C155.785 131.649 155.453 133.395 155.077 135.557C154.701 137.719 154.298 140.298 153.909 143.175C153.52 146.052 153.174 149.218 152.881 152.556C152.588 155.893 152.414 159.077 152.291 161.976C152.169 164.875 152.134 167.489 152.138 169.686C152.142 171.883 152.164 173.655 152.212 174.879C152.234 175.479 152.252 175.949 152.26 176.291C152.26 176.44 152.261 176.563 152.282 176.659C152.268 176.662 152.255 176.671 152.246 176.683C152.237 176.696 152.233 176.711 152.235 176.726C152.236 176.741 152.243 176.755 152.255 176.765C152.266 176.775 152.28 176.781 152.295 176.781C152.311 176.781 152.325 176.775 152.336 176.765C152.348 176.755 152.355 176.741 152.356 176.726C152.358 176.711 152.354 176.696 152.345 176.683C152.336 176.671 152.323 176.662 152.309 176.659C152.309 176.563 152.309 176.44 152.309 176.291C152.309 175.949 152.309 175.475 152.309 174.879C152.309 173.651 152.309 171.879 152.309 169.686C152.309 167.493 152.392 164.884 152.514 161.985C152.637 159.086 152.838 155.911 153.122 152.577C153.406 149.244 153.765 146.078 154.132 143.201C154.499 140.324 154.889 137.745 155.247 135.583C155.606 133.421 155.908 131.671 156.122 130.469C156.227 129.877 156.31 129.412 156.367 129.079C156.393 128.93 156.411 128.812 156.428 128.715C156.443 128.674 156.451 128.631 156.454 128.588Z" fill="#5B998A"/>
<path d="M156.454 128.588C156.436 128.627 156.422 128.668 156.415 128.711C156.394 128.804 156.368 128.923 156.336 129.066C156.262 129.399 156.166 129.864 156.039 130.447C155.785 131.649 155.453 133.395 155.077 135.557C154.701 137.719 154.298 140.298 153.909 143.175C153.52 146.052 153.174 149.218 152.881 152.556C152.588 155.893 152.414 159.077 152.291 161.976C152.169 164.875 152.134 167.489 152.138 169.686C152.142 171.883 152.164 173.655 152.212 174.879C152.234 175.479 152.252 175.949 152.26 176.291C152.26 176.44 152.261 176.563 152.282 176.659C152.268 176.662 152.255 176.671 152.246 176.683C152.237 176.696 152.233 176.711 152.235 176.726C152.236 176.741 152.243 176.755 152.255 176.765C152.266 176.775 152.28 176.781 152.295 176.781C152.311 176.781 152.325 176.775 152.336 176.765C152.348 176.755 152.355 176.741 152.356 176.726C152.358 176.711 152.354 176.696 152.345 176.683C152.336 176.671 152.323 176.662 152.309 176.659C152.309 176.563 152.309 176.44 152.309 176.291C152.309 175.949 152.309 175.475 152.309 174.879C152.309 173.651 152.309 171.879 152.309 169.686C152.309 167.493 152.392 164.884 152.514 161.985C152.637 159.086 152.838 155.911 153.122 152.577C153.406 149.244 153.765 146.078 154.132 143.201C154.499 140.324 154.889 137.745 155.247 135.583C155.606 133.421 155.908 131.671 156.122 130.469C156.227 129.877 156.31 129.412 156.367 129.079C156.393 128.93 156.411 128.812 156.428 128.715C156.443 128.674 156.451 128.631 156.454 128.588Z" fill="#5B998A"/>
<path d="M149.724 170.432C152.449 164.634 154.403 156.498 153.017 150.161C149.976 156.453 148.832 163.497 149.724 170.432Z" fill="#090D0A"/>
<path d="M145.084 162.972C147.804 157.174 149.763 149.038 148.377 142.701C145.336 148.993 144.192 156.037 145.084 162.972Z" fill="#090D0A"/>
<path d="M140.939 155.37C143.659 149.577 145.618 141.437 144.232 135.1C141.189 141.391 140.045 148.436 140.939 155.37Z" fill="#090D0A"/>
<path d="M136.85 147.196C138.861 141.056 139.845 132.723 137.724 126.627C135.453 133.254 135.149 140.399 136.85 147.196Z" fill="#090D0A"/>
<path d="M134.178 140.49C133.942 133.977 131.992 125.837 127.933 121.053C128.062 128.007 130.234 134.769 134.178 140.49Z" fill="#090D0A"/>
<path d="M135.416 143.708C130.605 139.217 123.333 134.77 116.804 134.218C121.935 139.158 128.412 142.461 135.416 143.708Z" fill="#090D0A"/>
<path d="M138.674 150.546C133.299 146.323 125.327 142.376 118.457 142.398C124.24 147.066 131.278 149.902 138.674 150.546Z" fill="#090D0A"/>
<path d="M142.727 158.775C137.353 154.551 129.381 150.604 122.511 150.626C128.294 155.294 135.331 158.131 142.727 158.775Z" fill="#090D0A"/>
<path d="M148.412 168.251C143.038 164.028 135.07 160.081 128.196 160.103C133.98 164.768 141.017 167.604 148.412 168.251Z" fill="#090D0A"/>
<path d="M133.544 139.311C133.55 139.347 133.56 139.382 133.575 139.416C133.605 139.499 133.64 139.6 133.688 139.723C133.798 140.008 133.951 140.398 134.126 140.889C134.519 141.907 135.123 143.359 135.897 145.143C137.445 148.713 139.732 153.586 142.57 158.8C143.996 161.406 145.417 163.853 146.755 166.05C148.093 168.247 149.344 170.199 150.433 171.808C151.522 173.418 152.409 174.72 153.056 175.598C153.371 176.036 153.616 176.361 153.795 176.611L153.992 176.869C154.036 176.926 154.062 176.957 154.067 176.953C154.055 176.918 154.037 176.885 154.014 176.856C153.966 176.782 153.905 176.694 153.835 176.58L153.135 175.545C152.519 174.668 151.644 173.352 150.581 171.716C149.519 170.08 148.285 168.133 146.952 165.936C145.618 163.739 144.214 161.287 142.793 158.686C139.955 153.476 137.646 148.626 136.063 145.091C135.267 143.337 134.642 141.876 134.217 140.872C134.012 140.389 133.846 139.995 133.723 139.723L133.588 139.425C133.579 139.384 133.565 139.346 133.544 139.311Z" fill="#090D0A"/>
<path d="M136.601 171.199L163.945 171.05L163.971 176.339L161.164 176.352L158.942 191.562L141.975 191.531L139.461 176.47L136.627 176.484L136.601 171.199Z" fill="#090D0A"/>
<path d="M136.627 176.373C136.627 176.303 142.705 176.216 150.183 176.172C157.661 176.128 163.74 176.172 163.74 176.229C163.74 176.286 157.666 176.386 150.183 176.426C142.701 176.465 136.627 176.443 136.627 176.373Z" fill="#090D0A"/>
<path d="M20.4746 173.564L23.2165 191.629H39.1431L42.8427 173.823L20.4746 173.564Z" fill="#090D0A"/>
<path d="M40.6125 185.142C40.6125 185.194 36.5325 185.233 31.4991 185.233C26.4658 185.233 22.3813 185.194 22.3813 185.142C22.3813 185.089 26.4658 185.05 31.4991 185.05C36.5325 185.05 40.6125 185.089 40.6125 185.142Z" fill="#FAFAFA"/>
<path d="M40.6737 184.251C40.6737 184.303 36.5674 184.347 31.4903 184.347C26.4132 184.347 22.3069 184.303 22.3069 184.251C22.3069 184.199 26.4175 184.159 31.4903 184.159C36.563 184.159 40.6737 184.203 40.6737 184.251Z" fill="#FAFAFA"/>
<path d="M40.6431 183.247C40.6431 183.3 36.5368 183.343 31.4597 183.343C26.3827 183.343 22.2764 183.3 22.2764 183.247C22.2764 183.195 26.387 183.155 31.4597 183.155C36.5325 183.155 40.6431 183.199 40.6431 183.247Z" fill="#FAFAFA"/>
<path d="M25.0444 190.597C24.8246 189.854 24.6623 189.094 24.559 188.325C24.3954 187.566 24.2931 186.795 24.2529 186.019C24.6419 187.52 24.9067 189.052 25.0444 190.597Z" fill="#FAFAFA"/>
<path d="M26.1289 190.409C25.9674 188.931 25.8667 187.448 25.8271 185.962C26.0037 186.687 26.102 187.43 26.1201 188.177C26.2017 188.918 26.2047 189.667 26.1289 190.409Z" fill="#FAFAFA"/>
<path d="M28.1055 190.404C27.8797 189.663 27.7331 188.9 27.6682 188.128C27.5496 187.365 27.5086 186.592 27.5457 185.821C27.6914 186.578 27.7936 187.342 27.8518 188.111C27.9807 188.87 28.0654 189.635 28.1055 190.404Z" fill="#FAFAFA"/>
<path d="M29.4917 190.501C29.3383 189.74 29.2636 188.966 29.2687 188.19C29.2133 187.414 29.2368 186.636 29.3386 185.865C29.4221 186.634 29.4615 187.407 29.4567 188.181C29.5121 188.953 29.5238 189.728 29.4917 190.501Z" fill="#FAFAFA"/>
<path d="M31.9451 190.409C31.8269 189.684 31.7699 188.951 31.7745 188.216C31.7125 187.487 31.7125 186.753 31.7745 186.023C31.8924 186.748 31.948 187.482 31.9407 188.216C32.0053 188.946 32.0067 189.679 31.9451 190.409Z" fill="#FAFAFA"/>
<path d="M33.738 190.501C33.6491 189.749 33.6242 188.99 33.6636 188.234C33.6375 187.475 33.674 186.715 33.7729 185.962C33.8619 186.716 33.8867 187.476 33.8473 188.234C33.8736 188.991 33.837 189.75 33.738 190.501Z" fill="#FAFAFA"/>
<path d="M35.4172 190.26C35.4375 188.675 35.5837 187.094 35.8545 185.532C35.8699 186.325 35.8246 187.119 35.719 187.905C35.681 188.697 35.5801 189.484 35.4172 190.26Z" fill="#FAFAFA"/>
<path d="M37.5864 190.018C37.5872 189.337 37.6769 188.659 37.8532 188.001C37.9666 187.329 38.165 186.675 38.4435 186.054C38.3477 186.724 38.2119 187.387 38.0368 188.04C37.9227 188.707 37.7723 189.368 37.5864 190.018Z" fill="#FAFAFA"/>
<path d="M36.0515 137.908C36.0535 137.937 36.0535 137.967 36.0515 137.996C36.0515 138.066 36.0078 138.149 35.9772 138.255C35.9072 138.492 35.8023 138.816 35.6754 139.228C35.5486 139.641 35.3781 140.167 35.2075 140.772C35.037 141.377 34.8227 142.088 34.6347 142.833C34.4466 143.579 34.1974 144.438 34.0137 145.351C33.83 146.263 33.607 147.232 33.3971 148.258C33.0166 150.32 32.6668 152.596 32.4219 155.004C32.177 157.411 32.0808 159.714 32.0502 161.806C32.0502 162.854 32.0502 163.849 32.0808 164.784C32.1114 165.718 32.1464 166.582 32.1901 167.371C32.2339 168.161 32.2995 168.875 32.3476 169.503C32.3957 170.13 32.4525 170.674 32.505 171.112C32.5575 171.551 32.5837 171.88 32.6099 172.13C32.6099 172.235 32.6099 172.323 32.6099 172.393C32.6099 172.463 32.6099 172.485 32.6099 172.485C32.6067 172.456 32.6067 172.426 32.6099 172.397C32.6099 172.327 32.5968 172.239 32.5706 172.134C32.5356 171.888 32.4919 171.551 32.4306 171.121C32.3694 170.691 32.2995 170.143 32.247 169.516C32.1945 168.889 32.1027 168.174 32.0589 167.38C32.0152 166.586 31.9496 165.722 31.9234 164.788C31.8971 163.854 31.884 162.854 31.8796 161.806C31.8796 159.705 32.0021 157.398 32.2382 154.986C32.4744 152.574 32.8373 150.289 33.2309 148.228C33.4408 147.197 33.6332 146.219 33.8606 145.316C34.088 144.412 34.2979 143.561 34.5078 142.798C34.7177 142.035 34.9451 141.347 35.1069 140.746C35.2687 140.145 35.4612 139.623 35.6055 139.206C35.7498 138.79 35.8635 138.474 35.9422 138.242C35.9801 138.139 36.0107 138.056 36.034 137.992C36.0253 137.935 36.0471 137.908 36.0515 137.908Z" fill="#5B998A"/>
<path d="M33.1739 149.096C33.6147 147.795 34.4908 146.687 35.6534 145.96C35.8354 145.815 36.0503 145.717 36.2792 145.675C36.5081 145.633 36.7438 145.648 36.9653 145.719C37.5207 145.987 37.5688 146.772 37.4026 147.368C37.1151 148.38 36.474 149.255 35.5966 149.833C34.8197 150.407 33.8495 150.652 32.894 150.517" fill="#5B998A"/>
<path d="M32.2075 156.652C32.6185 155.091 33.8605 152.876 35.1461 151.912C35.3435 151.749 35.5709 151.627 35.8152 151.552C35.9381 151.516 36.0679 151.512 36.193 151.539C36.318 151.565 36.4346 151.623 36.5324 151.705C36.6423 151.851 36.7142 152.022 36.7417 152.203C36.7691 152.384 36.7513 152.568 36.6898 152.74C36.4274 153.878 35.8537 154.92 35.0333 155.749C34.2129 156.578 33.1783 157.161 32.0457 157.433" fill="#5B998A"/>
<path d="M31.9407 163.301C32.5803 161.813 33.6037 160.521 34.9056 159.56C35.0449 159.432 35.2084 159.334 35.3865 159.271C35.5645 159.207 35.7534 159.181 35.942 159.192C36.5061 159.293 36.7598 159.981 36.7117 160.556C36.6067 161.731 35.7146 162.674 34.7875 163.402C33.9387 163.992 33.017 164.468 32.0456 164.819" fill="#5B998A"/>
<path d="M32.0894 168.089C32.7103 166.954 33.5734 165.97 34.617 165.208C34.8392 165.037 35.0982 164.919 35.3735 164.866C35.5115 164.842 35.6535 164.856 35.7843 164.906C35.9151 164.956 36.0301 165.041 36.1169 165.151C36.3662 165.524 36.1169 166.028 35.8545 166.388C34.9629 167.625 33.7027 168.546 32.2555 169.019" fill="#5B998A"/>
<path d="M31.967 166.138C30.8784 164.803 29.6708 163.57 28.3593 162.454C28.1538 162.279 27.8957 162.095 27.6377 162.178C27.542 162.219 27.4601 162.286 27.4019 162.373C27.3437 162.459 27.3117 162.56 27.3098 162.665C27.3062 162.874 27.3527 163.082 27.4453 163.27C27.8735 164.235 28.5135 165.091 29.3177 165.774C30.1218 166.457 31.0693 166.949 32.0895 167.213" fill="#5B998A"/>
<path d="M32.0895 159.92L29.2558 156.451C29.006 156.105 28.6947 155.807 28.3375 155.574C28.155 155.462 27.9455 155.403 27.7318 155.403C27.5181 155.403 27.3086 155.462 27.1261 155.574C26.9623 155.709 26.8392 155.887 26.7705 156.089C26.7018 156.29 26.6902 156.507 26.7369 156.714C26.8391 157.13 27.0284 157.518 27.2923 157.854C27.8439 158.703 28.543 159.446 29.3564 160.047C30.1916 160.622 30.9482 160.995 31.9452 160.846" fill="#5B998A"/>
<path d="M32.4742 152.916C31.9204 151.255 30.9364 149.772 29.623 148.618C29.4165 148.411 29.1606 148.26 28.8796 148.179C28.5886 148.154 28.2981 148.233 28.0585 148.4C27.8189 148.567 27.6452 148.814 27.5677 149.096C27.477 149.41 27.4531 149.74 27.4976 150.064C27.542 150.388 27.6538 150.699 27.8257 150.977C28.1649 151.531 28.6109 152.011 29.1376 152.39C30.0918 153.123 31.156 153.701 32.2905 154.1" fill="#5B998A"/>
<path d="M33.6068 146.671C33.3357 144.662 32.2949 142.987 31.0836 141.364C30.83 141.018 30.4714 140.658 30.0516 140.72C29.9186 140.748 29.7949 140.81 29.6918 140.899C29.5886 140.988 29.5094 141.101 29.4612 141.229C29.3644 141.486 29.3256 141.761 29.3475 142.035C29.3996 143.253 29.8081 144.428 30.5221 145.414C31.236 146.4 32.2238 147.153 33.362 147.579" fill="#5B998A"/>
<path d="M34.4026 143.483C34.2694 142.452 34.2343 141.411 34.2977 140.373C34.3642 139.331 34.7202 138.329 35.3254 137.479C35.5861 137.114 35.9436 136.83 36.3574 136.659C36.5648 136.576 36.7897 136.548 37.0108 136.578C37.232 136.607 37.442 136.692 37.6212 136.825C37.7732 136.966 37.8916 137.139 37.9673 137.332C38.0431 137.525 38.0742 137.732 38.0585 137.939C38.0241 138.353 37.916 138.757 37.7393 139.132C36.9871 140.952 35.7277 142.97 34.4114 143.483" fill="#5B998A"/>
<path d="M22.0532 145.876C22.0588 145.961 22.0588 146.046 22.0532 146.13C22.0532 146.315 22.0532 146.569 22.0532 146.858C22.0532 147.148 22.0532 147.564 22.0532 148.012C22.0532 148.459 22.0532 148.972 22.11 149.538C22.1581 150.67 22.2675 152.012 22.438 153.485C22.6085 154.959 22.8753 156.595 23.2208 158.283C23.5662 159.972 23.9992 161.559 24.4277 162.993C24.8563 164.427 25.3023 165.695 25.7134 166.752C25.9014 167.282 26.107 167.752 26.2732 168.173C26.4393 168.594 26.5924 168.945 26.7105 169.234C26.8285 169.523 26.9204 169.734 26.9947 169.905C27.0304 169.983 27.0596 170.064 27.0822 170.146C27.0356 170.075 26.9946 170 26.9597 169.923C26.881 169.756 26.7717 169.537 26.6449 169.265C26.518 168.993 26.3431 168.629 26.1682 168.212C25.9933 167.796 25.779 167.335 25.5778 166.8C25.1405 165.747 24.7032 164.476 24.2659 163.046C23.8286 161.616 23.3913 160.015 23.0459 158.322C22.7004 156.63 22.4467 154.994 22.2718 153.498C22.0969 152.003 22.0313 150.678 22.0313 149.542C22.0051 148.977 22.0313 148.464 22.0051 148.012C21.9788 147.56 22.0051 147.174 22.0051 146.858C22.0051 146.543 22.0051 146.315 22.0357 146.13C22.0291 146.045 22.035 145.959 22.0532 145.876Z" fill="#090D0A"/>
<path d="M22.4949 154.113C22.511 153.126 22.8698 152.175 23.5094 151.425C23.603 151.289 23.7285 151.177 23.8748 151.101C24.0212 151.024 24.184 150.985 24.349 150.986C24.7863 151.052 24.9831 151.574 24.9963 152.017C25.0191 152.767 24.7723 153.5 24.3009 154.083C23.8934 154.641 23.2847 155.019 22.6042 155.135" fill="#090D0A"/>
<path d="M23.4569 159.463C23.4044 158.314 23.7717 156.538 24.4408 155.604C24.541 155.45 24.6702 155.318 24.8212 155.214C24.8977 155.164 24.9849 155.134 25.0755 155.125C25.1661 155.117 25.2574 155.131 25.3416 155.165C25.4473 155.241 25.5326 155.342 25.5898 155.46C25.647 155.577 25.6745 155.706 25.6696 155.836C25.7347 156.668 25.5675 157.501 25.1867 158.242C24.8058 158.984 24.2265 159.604 23.5137 160.034" fill="#090D0A"/>
<path d="M24.7034 164.051C24.8196 162.899 25.2391 161.799 25.9191 160.863C26.0573 160.629 26.282 160.459 26.5444 160.389C26.9511 160.337 27.2747 160.753 27.3622 161.152C27.5458 161.973 27.1348 162.81 26.6625 163.507C26.2089 164.091 25.6812 164.613 25.0926 165.06" fill="#090D0A"/>
<path d="M25.8315 167.275C26.0102 166.368 26.3865 165.511 26.9335 164.766C27.0476 164.603 27.1972 164.468 27.3709 164.372C27.459 164.325 27.5583 164.303 27.6578 164.31C27.7574 164.316 27.8533 164.349 27.935 164.407C28.1886 164.604 28.1318 164.999 28.0268 165.284C27.6863 166.323 27.0265 167.227 26.142 167.867" fill="#090D0A"/>
<path d="M25.3286 165.977C24.3021 165.302 23.2159 164.724 22.0838 164.249C22.0018 164.198 21.9085 164.168 21.8122 164.163C21.716 164.158 21.6199 164.177 21.5328 164.218C21.4759 164.266 21.4343 164.33 21.4133 164.402C21.3924 164.474 21.3928 164.55 21.4147 164.621C21.4586 164.764 21.535 164.895 21.6378 165.003C22.1369 165.565 22.7559 166.006 23.4486 166.295C24.1414 166.583 24.8901 166.711 25.6391 166.67" fill="#090D0A"/>
<path d="M24.0738 161.718L21.3975 159.964C21.1524 159.784 20.8768 159.65 20.5841 159.569C20.4379 159.519 20.2797 159.516 20.1319 159.561C19.9841 159.606 19.8543 159.697 19.7608 159.82C19.6673 159.944 19.615 160.093 19.6113 160.248C19.6076 160.403 19.6526 160.555 19.7401 160.683C19.8975 160.943 20.1094 161.166 20.3611 161.337C20.9194 161.798 21.5565 162.155 22.2415 162.389C22.5468 162.52 22.8756 162.588 23.2079 162.588C23.5402 162.588 23.869 162.52 24.1743 162.389" fill="#090D0A"/>
<path d="M22.8404 156.864C22.1049 155.855 21.1168 155.059 19.9761 154.557C19.7899 154.46 19.5821 154.413 19.3726 154.421C19.172 154.469 18.9941 154.585 18.869 154.75C18.7439 154.914 18.6793 155.117 18.686 155.324C18.6917 155.558 18.7465 155.789 18.8467 156C18.9469 156.212 19.0903 156.4 19.2676 156.552C19.6215 156.854 20.0318 157.082 20.4746 157.223C21.2821 157.516 22.1308 157.679 22.9891 157.706" fill="#090D0A"/>
<path d="M22.2675 152.368C21.6509 151.052 20.5839 150.144 19.4119 149.298C19.1626 149.122 18.8434 148.951 18.5723 149.087C18.4873 149.135 18.4157 149.204 18.3638 149.286C18.3118 149.369 18.2813 149.463 18.2749 149.561C18.2677 149.756 18.3004 149.95 18.3711 150.131C18.6689 150.95 19.2012 151.663 19.9013 152.181C20.6014 152.698 21.4383 152.996 22.3068 153.039" fill="#090D0A"/>
<path d="M22.1234 150.026C21.8127 149.348 21.5667 148.642 21.3887 147.917C21.2077 147.193 21.235 146.433 21.4674 145.724C21.5658 145.418 21.7476 145.146 21.9922 144.939C22.1135 144.842 22.2569 144.777 22.4096 144.749C22.5623 144.722 22.7194 144.733 22.8668 144.781C22.9995 144.845 23.1162 144.939 23.2085 145.054C23.3008 145.169 23.3663 145.304 23.4003 145.448C23.4618 145.736 23.4736 146.033 23.4353 146.325C23.3128 147.728 22.8886 149.373 22.1015 150.004" fill="#090D0A"/>
<path d="M42.1911 145.724C42.2049 145.808 42.2122 145.893 42.213 145.978C42.213 146.162 42.213 146.417 42.2392 146.706C42.2654 146.995 42.2392 147.412 42.2392 147.859C42.2392 148.307 42.2392 148.824 42.213 149.39C42.178 150.526 42.0818 151.872 41.92 153.363C41.7582 154.855 41.4827 156.486 41.1503 158.188C40.818 159.889 40.3632 161.477 39.9259 162.911C39.4886 164.345 39.025 165.613 38.6139 166.665C38.4128 167.196 38.2029 167.665 38.0236 168.077C37.8443 168.49 37.6869 168.845 37.5513 169.13C37.4157 169.415 37.3152 169.621 37.2321 169.788C37.1993 169.866 37.1583 169.941 37.1096 170.011C37.1321 169.929 37.1614 169.848 37.1971 169.77C37.2714 169.599 37.3633 169.376 37.4813 169.099C37.5994 168.823 37.7656 168.455 37.9186 168.038C38.0717 167.621 38.2903 167.161 38.4828 166.617C38.8894 165.564 39.3267 164.288 39.7641 162.858C40.2014 161.429 40.6124 159.837 40.971 158.148C41.3296 156.46 41.5701 154.833 41.7538 153.35C41.9375 151.868 42.0337 150.522 42.0818 149.403C42.1211 148.837 42.1255 148.329 42.1386 147.877C42.1517 147.425 42.1386 147.039 42.1386 146.724C42.1386 146.408 42.1386 146.18 42.1386 145.996C42.144 145.903 42.1617 145.812 42.1911 145.724Z" fill="#5B998A"/>
<path d="M41.745 153.938C41.7248 152.956 41.3663 152.013 40.7305 151.267C40.6369 151.13 40.5114 151.019 40.3651 150.943C40.2187 150.866 40.0559 150.827 39.8908 150.828C39.4535 150.894 39.2568 151.416 39.2436 151.859C39.2208 152.609 39.4676 153.342 39.939 153.924C40.3443 154.486 40.954 154.864 41.6357 154.977" fill="#5B998A"/>
<path d="M40.7831 159.292C40.8356 158.139 40.4683 156.362 39.7992 155.428C39.7003 155.273 39.5708 155.141 39.4187 155.038C39.3423 154.988 39.2551 154.958 39.1645 154.95C39.0738 154.941 38.9825 154.955 38.8984 154.99C38.7927 155.066 38.7074 155.167 38.6502 155.284C38.593 155.401 38.5655 155.53 38.5704 155.661C38.5053 156.492 38.6725 157.325 39.0533 158.067C39.4341 158.808 40.0135 159.428 40.7263 159.858" fill="#5B998A"/>
<path d="M39.5236 163.876C39.4074 162.723 38.9879 161.623 38.3079 160.687C38.1697 160.453 37.945 160.283 37.6826 160.214C37.2759 160.161 36.9566 160.578 36.8648 160.977C36.6811 161.797 37.0922 162.634 37.5645 163.332C38.0154 163.915 38.5402 164.437 39.1257 164.884" fill="#5B998A"/>
<path d="M38.4084 167.099C38.2294 166.193 37.8548 165.337 37.3108 164.591C37.1967 164.428 37.0472 164.293 36.8735 164.196C36.7852 164.15 36.686 164.129 36.5866 164.135C36.4871 164.141 36.3913 164.174 36.3094 164.231C36.0557 164.429 36.1126 164.823 36.2175 165.108C36.5581 166.147 37.2179 167.052 38.1023 167.691" fill="#5B998A"/>
<path d="M38.9113 165.801C39.9399 165.127 41.0274 164.549 42.1605 164.073C42.2417 164.022 42.3343 163.993 42.4299 163.987C42.5254 163.982 42.6208 164.001 42.7071 164.042C42.7635 164.091 42.8049 164.155 42.8266 164.226C42.8482 164.298 42.8493 164.374 42.8296 164.446C42.7822 164.587 42.7063 164.717 42.6065 164.827C42.1063 165.389 41.4865 165.83 40.7931 166.118C40.0997 166.407 39.3504 166.535 38.6008 166.494" fill="#5B998A"/>
<path d="M40.1664 161.544L42.8427 159.789C43.0877 159.61 43.3634 159.476 43.6561 159.395C43.8035 159.356 43.9585 159.36 44.1043 159.404C44.25 159.448 44.3809 159.531 44.4826 159.645C44.5659 159.776 44.6102 159.928 44.6102 160.083C44.6102 160.239 44.5659 160.391 44.4826 160.522C44.3241 160.783 44.1125 161.007 43.8616 161.18C43.3018 161.639 42.6651 161.996 41.9812 162.232C41.6756 162.363 41.3469 162.43 41.0148 162.43C40.6827 162.43 40.354 162.363 40.0483 162.232" fill="#5B998A"/>
<path d="M41.404 156.688C42.1368 155.678 43.1238 154.882 44.264 154.381C44.4502 154.284 44.658 154.237 44.8675 154.245C45.0681 154.293 45.246 154.41 45.3711 154.574C45.4961 154.739 45.5608 154.942 45.554 155.148C45.5486 155.383 45.494 155.613 45.3938 155.825C45.2936 156.036 45.15 156.224 44.9724 156.376C44.6185 156.678 44.2082 156.906 43.7655 157.047C42.9581 157.341 42.1093 157.503 41.251 157.53" fill="#5B998A"/>
<path d="M41.9725 152.192C42.5891 150.877 43.6561 149.969 44.8281 149.122C44.9378 149.016 45.0734 148.94 45.2215 148.902C45.3696 148.864 45.5249 148.866 45.6721 148.907C45.7557 148.956 45.8261 149.025 45.8771 149.108C45.9282 149.19 45.9584 149.284 45.965 149.381C45.9723 149.576 45.9395 149.77 45.8688 149.951C45.5711 150.771 45.0388 151.484 44.3387 152.001C43.6385 152.518 42.8017 152.817 41.9331 152.859" fill="#5B998A"/>
<path d="M42.1168 149.85C42.4264 149.177 42.6724 148.476 42.8515 147.758C43.0325 147.034 43.0052 146.274 42.7728 145.565C42.6744 145.259 42.4926 144.987 42.248 144.78C42.1267 144.683 41.9833 144.618 41.8306 144.59C41.6779 144.562 41.5208 144.573 41.3734 144.622C41.2404 144.685 41.1231 144.778 41.0301 144.892C40.937 145.007 40.8706 145.141 40.8355 145.284C40.7741 145.572 40.7622 145.869 40.8006 146.161C40.923 147.565 41.3472 149.231 42.1343 149.841" fill="#5B998A"/>
<path d="M18.6467 169.985V173.353C18.6467 173.702 18.7849 174.037 19.031 174.283C19.277 174.53 19.6107 174.669 19.9586 174.669H43.022C43.37 174.669 43.7037 174.53 43.9497 174.283C44.1957 174.037 44.334 173.702 44.334 173.353V169.972L18.6467 169.985Z" fill="#090D0A"/>
<g opacity="0.4">
<path d="M20.6453 174.695L20.8377 175.77L42.1213 177.292L42.6591 174.695H20.6453Z" fill="black"/>
</g>
<path d="M85.4798 186.672L85.3092 182.405L77.8926 182.124L78.0063 187.347L80.7044 188.979L85.4798 186.672Z" fill="#A1675B"/>
<path d="M77.8444 186.374V186.865C77.8444 186.865 69.61 190.273 69.5356 191.847L85.9477 191.606L85.6459 186.133C84.4387 186.731 83.1173 187.062 81.7713 187.104C80.4253 187.146 79.0861 186.897 77.8444 186.374Z" fill="#36A9E1"/>
<g opacity="0.6">
<path d="M84.0148 187.905C84.1737 187.951 84.3098 188.055 84.397 188.195C84.4843 188.336 84.5164 188.505 84.4871 188.668C84.4466 188.828 84.3466 188.966 84.2077 189.055C84.0687 189.144 83.9012 189.176 83.7393 189.146C83.5716 189.096 83.428 188.987 83.336 188.838C83.2439 188.689 83.21 188.511 83.2408 188.339C83.2994 188.175 83.4193 188.04 83.5752 187.963C83.7311 187.887 83.9107 187.873 84.076 187.927" fill="white"/>
</g>
<g opacity="0.6">
<path d="M85.952 191.605L85.8821 190.29L70.1741 191.005C70.1741 191.005 69.4482 191.333 69.54 191.851L85.952 191.605Z" fill="white"/>
</g>
<path d="M77.792 186.909C77.792 186.992 78.1943 187.023 78.5922 187.273C78.9902 187.522 79.2088 187.86 79.2788 187.829C79.3488 187.799 79.2263 187.334 78.7409 187.036C78.2555 186.738 77.7745 186.839 77.792 186.909Z" fill="#090D0A"/>
<path d="M76.0776 187.65C76.0776 187.729 76.41 187.861 76.6899 188.194C76.9697 188.527 77.0485 188.891 77.1272 188.887C77.2059 188.882 77.2496 188.426 76.8954 188.01C76.5412 187.593 76.082 187.576 76.0776 187.65Z" fill="#090D0A"/>
<path d="M75.1331 189.728C75.2074 189.728 75.3124 189.343 75.0981 188.909C74.8838 188.475 74.5077 188.299 74.4771 188.369C74.4465 188.44 74.6783 188.668 74.8488 189.027C75.0194 189.387 75.0544 189.724 75.1331 189.728Z" fill="#090D0A"/>
<path d="M84.8457 177.182L86.1445 189.887L91.9519 188.918L92.0831 176.41L84.8457 177.182Z" fill="#A1675B"/>
<path d="M91.93 186.511C91.93 186.511 88.0861 189.756 85.8603 187.48L85.4536 188.725L83.923 197.475C83.8677 197.754 83.9182 198.043 84.0646 198.287C84.211 198.53 84.4428 198.71 84.7145 198.791C84.9225 198.851 85.143 198.851 85.351 198.791C85.559 198.731 85.746 198.614 85.8909 198.453C87.4345 196.721 93.0758 190.309 92.9402 189.528L92.7172 187.436C92.6921 187.223 92.6036 187.021 92.4633 186.859C92.323 186.696 92.1372 186.579 91.93 186.524V186.511Z" fill="#36A9E1"/>
<g opacity="0.6">
<path d="M84.9199 198.816L92.8745 188.786L92.9138 189.225C92.9429 189.413 92.9289 189.605 92.8729 189.786C92.8168 189.968 92.7201 190.134 92.5902 190.273C91.9693 191.282 90.1938 193.575 85.9214 198.417C85.7978 198.557 85.6421 198.665 85.4676 198.732C85.2932 198.798 85.1052 198.821 84.9199 198.799V198.816Z" fill="white"/>
</g>
<g opacity="0.6">
<path d="M91.4489 187.546C91.3793 187.597 91.3207 187.662 91.2767 187.736C91.2327 187.81 91.2041 187.892 91.1927 187.978C91.1812 188.064 91.1872 188.151 91.2102 188.234C91.2332 188.317 91.2727 188.395 91.3265 188.462C91.3802 188.53 91.447 188.586 91.5229 188.627C91.5987 188.667 91.6821 188.693 91.7679 188.7C91.8537 188.708 91.9401 188.698 92.0221 188.672C92.1041 188.645 92.1798 188.602 92.2448 188.546C92.3148 188.492 92.3732 188.425 92.4161 188.348C92.4591 188.271 92.4857 188.186 92.4944 188.099C92.5031 188.011 92.4936 187.922 92.4665 187.838C92.4394 187.755 92.3954 187.677 92.3371 187.611C92.2788 187.545 92.2075 187.492 92.1278 187.455C92.048 187.418 91.9615 187.398 91.8736 187.396C91.7857 187.394 91.6983 187.41 91.6169 187.443C91.5356 187.477 91.462 187.527 91.4008 187.59" fill="white"/>
</g>
<path d="M87.0189 193.869C86.7201 193.555 86.3657 193.299 85.9738 193.115C85.5477 192.993 85.1027 192.953 84.6619 192.996C84.6619 192.97 84.7799 192.874 85.0379 192.812C85.3744 192.746 85.7227 192.775 86.0437 192.896C86.3629 193.009 86.6413 193.215 86.844 193.487C87.0102 193.698 87.0452 193.856 87.0189 193.869Z" fill="#090D0A"/>
<path d="M86.3632 195.385C86.03 195.239 85.6883 195.113 85.3399 195.009C84.9778 194.977 84.6143 194.965 84.251 194.974C84.4119 194.855 84.5986 194.775 84.7961 194.74C84.9935 194.706 85.1963 194.719 85.388 194.777C86.057 194.904 86.4156 195.35 86.3632 195.385Z" fill="#090D0A"/>
<path d="M88.3136 191.882C87.8203 191.614 87.3071 191.386 86.7786 191.198C86.2261 191.085 85.6665 191.01 85.1038 190.974C85.6691 190.77 86.2876 190.77 86.853 190.974C87.4322 191.092 87.9502 191.414 88.3136 191.882Z" fill="#090D0A"/>
<path d="M88.2609 189.268C88.2609 189.334 87.605 189.141 86.8091 189.185C86.0132 189.229 85.401 189.473 85.3704 189.408C85.7793 189.097 86.2823 188.935 86.796 188.949C87.3067 188.879 87.8255 188.992 88.2609 189.268Z" fill="#090D0A"/>
<path d="M86.3543 189.206C86.3238 189.071 86.3238 188.93 86.3543 188.794C86.4302 188.423 86.5788 188.069 86.7916 187.755C86.9268 187.507 87.1407 187.311 87.3994 187.199C87.4881 187.17 87.5833 187.168 87.6729 187.194C87.7625 187.22 87.8424 187.272 87.9023 187.343C88.0075 187.489 88.0529 187.669 88.0291 187.847C87.9636 188.211 87.7744 188.541 87.4938 188.781C87.2132 189.02 86.8584 189.155 86.4898 189.163C86.1218 189.173 85.7589 189.074 85.4474 188.877C85.1359 188.681 84.8898 188.395 84.7406 188.058C84.7029 187.975 84.6833 187.886 84.6833 187.795C84.6833 187.704 84.7029 187.614 84.7406 187.532C84.7937 187.455 84.8689 187.395 84.9563 187.361C85.0438 187.328 85.1393 187.321 85.2304 187.343C85.4968 187.425 85.7367 187.576 85.9257 187.782C86.2009 188.041 86.4287 188.347 86.5992 188.685C86.6722 188.803 86.7185 188.937 86.7347 189.075C86.4849 188.642 86.1725 188.249 85.8076 187.909C85.6361 187.74 85.4259 187.615 85.1954 187.545C85.146 187.532 85.0937 187.534 85.0459 187.552C84.9981 187.571 84.9571 187.603 84.9287 187.646C84.9052 187.701 84.8931 187.759 84.8931 187.819C84.8931 187.879 84.9052 187.937 84.9287 187.992C85.0659 188.278 85.2816 188.518 85.5504 188.685C85.8192 188.852 86.1299 188.939 86.4461 188.935C86.757 188.924 87.0552 188.808 87.2931 188.607C87.5309 188.406 87.6946 188.131 87.758 187.826C87.7764 187.702 87.75 187.576 87.6837 187.47C87.6523 187.429 87.6085 187.4 87.5589 187.385C87.5093 187.371 87.4565 187.373 87.4082 187.392C87.1938 187.482 87.0112 187.635 86.8834 187.83C86.6259 188.253 86.4466 188.719 86.3543 189.206Z" fill="#090D0A"/>
<path d="M68.3244 88.2715C68.3244 88.2715 62.3596 99.7225 61.8523 108.779C61.345 117.835 68.6742 143.864 69.6888 149.789C70.3797 153.833 73.7776 174.051 77.8663 186.357H84.1723C84.1723 186.357 80.0835 145.347 80.2365 141.075C80.3896 136.803 81.942 114.059 81.942 114.059L84.1592 96.7972L68.3244 88.2715Z" fill="#090D0A"/>
<path d="M100.868 92.6963C100.357 92.8673 82.5847 95.9417 82.5847 95.9417C82.5847 95.9417 76.5324 142.732 76.0251 148.885C75.5178 155.038 84.1765 186.339 84.1765 186.339H92.8744C92.8744 186.339 92.7039 165.661 91.3395 159.341C89.9751 153.021 89.9751 151.477 90.8279 147.548C91.6806 143.618 99.6526 124.742 101.865 114.34C104.078 103.937 100.868 92.6963 100.868 92.6963Z" fill="#090D0A"/>
<path d="M81.0672 108.301C81.0672 108.301 81.0672 108.371 81.0672 108.507C81.0672 108.643 81.0322 108.853 81.0016 109.108C80.9404 109.643 80.8486 110.423 80.7305 111.406C80.4812 113.414 80.127 116.305 79.6897 119.866C78.8151 127.014 77.5557 136.869 76.1913 147.754C76.1511 149.103 76.239 150.453 76.4537 151.785C76.6373 153.1 76.8604 154.416 77.114 155.67C77.6125 158.205 78.1723 160.639 78.7408 162.946C79.8734 167.564 81.0148 171.717 81.9899 175.156C82.9651 178.594 83.796 181.41 84.3645 183.335C84.6487 184.291 84.8718 185.037 85.0248 185.559C85.0992 185.804 85.1517 185.997 85.1954 186.133C85.2391 186.269 85.2435 186.335 85.2435 186.335C85.2435 186.335 85.2172 186.269 85.1735 186.142C85.1298 186.015 85.0642 185.813 84.9811 185.572C84.8193 185.054 84.5832 184.313 84.2814 183.379C83.6823 181.458 82.8339 178.673 81.8369 175.217C80.8398 171.761 79.681 167.634 78.5352 163.016C77.9624 160.705 77.3939 158.271 76.8954 155.727C76.6417 154.46 76.4143 153.157 76.2263 151.833C76.0107 150.486 75.9229 149.122 75.9639 147.759C77.3108 136.847 78.614 127.001 79.5323 119.861C80.0002 116.305 80.3807 113.419 80.6474 111.415L80.9623 109.117C80.9973 108.862 81.0279 108.678 81.0497 108.52C81.0716 108.362 81.0672 108.301 81.0672 108.301Z" fill="#5B998A"/>
<path d="M79.0252 106.498C78.7148 106.215 78.4227 105.911 78.1506 105.591C77.4688 104.856 76.7383 104.169 75.9641 103.534C75.1847 102.893 74.362 102.307 73.5021 101.779C73.1339 101.58 72.7777 101.358 72.4351 101.117C72.8378 101.241 73.223 101.416 73.5808 101.639C74.4728 102.127 75.3189 102.695 76.1084 103.336C76.8994 103.978 77.6312 104.69 78.2949 105.463C78.5762 105.78 78.8212 106.127 79.0252 106.498Z" fill="#5B998A"/>
<path d="M91.1777 102.938C91.1777 102.981 90.5699 103.056 89.6428 103.42C88.4422 103.905 87.285 104.492 86.1837 105.174C84.8718 105.968 83.7567 106.753 82.952 107.345C82.1474 107.937 81.6664 108.323 81.6401 108.297C81.7298 108.189 81.831 108.092 81.9419 108.007C82.1518 107.814 82.4579 107.569 82.8515 107.24C83.8742 106.426 84.9478 105.679 86.0657 105.003C87.1758 104.308 88.3557 103.732 89.5859 103.284C89.9605 103.154 90.3452 103.056 90.7361 102.99C90.8808 102.956 91.029 102.938 91.1777 102.938Z" fill="#5B998A"/>
<path d="M103.033 29.8458L105.539 29.3064L104.301 26.2891L102.368 27.2539L103.033 29.8458Z" fill="#36A9E1"/>
<path d="M109.763 34.029C110.384 33.9632 111.95 34.7614 113.305 36.3622L113.375 36.4324C114.32 37.5025 114.91 34.2132 114.971 33.0028C114.988 32.8145 115.046 32.6323 115.142 32.4695C115.237 32.3068 115.368 32.1677 115.525 32.0625C115.682 31.9573 115.86 31.8886 116.046 31.8616C116.233 31.8346 116.423 31.8499 116.603 31.9064L120.6 33.6957L121.4 34.6299C122.008 34.8097 122.016 34.5246 121.903 35.1298L120.639 41.4276L121.181 44.2038L114.547 44.6423V41.5724C113.582 40.8633 112.839 39.8926 112.404 38.7743C112.404 38.7436 112.383 38.7173 112.369 38.691C112.133 38.088 111.792 37.5314 111.364 37.0464C110.895 36.4971 110.372 35.9975 109.803 35.5552C109.758 35.5256 109.711 35.4992 109.663 35.4763C109.571 35.4309 109.49 35.3684 109.422 35.2921C109.31 35.2071 109.227 35.0906 109.182 34.9575C109.136 34.8245 109.132 34.681 109.169 34.5454C109.205 34.4097 109.281 34.2881 109.387 34.1962C109.493 34.1042 109.624 34.046 109.763 34.029Z" fill="#A1675B"/>
<path d="M113.38 19.1703C113.38 19.1703 117.661 18.6396 124.098 13.504C130.535 8.36842 134.021 1.07067 134.742 1.17593C135.464 1.28119 138.752 0.110214 143.523 13.7672C148.294 27.4241 145.644 30.2397 144.455 30.1038C143.265 29.9678 135.368 26.9329 130.247 27.0338C125.126 27.1347 118.37 29.1652 118.37 29.1652L113.38 19.1703Z" fill="#5B998A"/>
<path d="M103.807 25.4642L104.984 28.328L105.508 29.613C105.856 30.4603 106.515 31.1414 107.349 31.5159C108.183 31.8904 109.129 31.9299 109.991 31.6261L119.279 29.3367L115.781 17.6621L105.723 20.8022C104.854 21.1686 104.166 21.8642 103.807 22.7375C103.448 23.6108 103.448 24.5909 103.807 25.4642Z" fill="#090D0A"/>
<path d="M107.454 29.6955L110.564 35.2302L111.985 34.7916L121.693 42.0587L124.103 36.7959C124.103 36.7959 118.457 34.6338 117.346 32.6909C116.235 30.7481 117.407 30.2481 117.407 30.2481L114.67 27.3799L107.454 29.6955Z" fill="#090D0A"/>
<path d="M143.016 13.9613C145.543 21.3555 146.278 27.798 144.66 28.355C143.042 28.912 139.666 23.3641 137.151 15.9787C134.637 8.59322 133.889 2.13753 135.507 1.58055C137.125 1.02357 140.488 6.56704 143.016 13.9613Z" fill="#090D0A"/>
<path d="M136.653 11.7679C136.653 11.7679 140.514 9.84261 142.045 14.9738C143.576 20.1051 139.666 20.5524 139.666 20.5524C138.254 17.7811 137.24 14.8237 136.653 11.7679Z" fill="#36A9E1"/>
<path d="M133.33 5.51367C133.321 5.83327 133.338 6.15306 133.382 6.46975C133.443 7.08374 133.522 7.97841 133.653 9.07483L133.994 10.8291C134.06 11.1492 134.121 11.4782 134.187 11.8203C134.222 11.9869 134.257 12.1623 134.292 12.3378C134.327 12.5132 134.384 12.6842 134.432 12.8597C134.633 13.5614 134.838 14.3025 135.057 15.0525C135.109 15.2411 135.166 15.434 135.219 15.6314C135.271 15.8288 135.359 16.0129 135.424 16.2059L135.862 17.3769L136.299 18.5522C136.373 18.7408 136.435 18.9382 136.522 19.118C136.609 19.2978 136.693 19.4864 136.78 19.6662L137.755 21.745C137.834 21.9073 137.904 22.0739 137.991 22.2318L138.254 22.6704L138.757 23.5475L139.666 25.1702C140.283 26.0824 140.803 26.8061 141.162 27.306C141.336 27.5746 141.532 27.8284 141.748 28.0648C141.612 27.7754 141.449 27.4994 141.262 27.2402C140.921 26.7052 140.44 25.9596 139.85 25.0474L138.975 23.473L138.49 22.5958C138.402 22.4467 138.319 22.2932 138.232 22.1573C138.144 22.0213 138.083 21.8327 138.004 21.6705C137.703 21.0082 137.383 20.3153 137.051 19.6004L136.802 19.0566C136.714 18.8724 136.653 18.6794 136.579 18.4908C136.439 18.1049 136.295 17.719 136.142 17.3243C135.988 16.9296 135.849 16.5436 135.704 16.1621C135.634 15.9691 135.551 15.7849 135.499 15.5919C135.446 15.399 135.385 15.206 135.333 15.0174C135.109 14.2587 134.895 13.5263 134.694 12.8246C134.646 12.6491 134.589 12.4825 134.55 12.3071C134.51 12.1316 134.475 11.965 134.44 11.7939L134.235 10.8159C134.099 10.1844 133.972 9.59672 133.859 9.06167C133.701 7.9828 133.579 7.10567 133.487 6.47852C133.464 6.15282 133.411 5.8299 133.33 5.51367Z" fill="#090D0A"/>
<path d="M117.928 30.5868C118.141 30.6698 118.317 30.8289 118.421 31.0336C118.525 31.2383 118.55 31.4743 118.492 31.6964C118.242 32.5999 117.836 34.012 117.521 34.876C117.435 35.1581 117.297 35.4214 117.114 35.6523C117.024 35.765 116.904 35.8502 116.768 35.8982C116.632 35.9463 116.485 35.9553 116.345 35.9242C116.201 35.8651 116.077 35.7676 115.985 35.6423C115.893 35.5169 115.837 35.3687 115.824 35.2137C115.8 34.8999 115.836 34.5844 115.929 34.284C116.135 33.4419 116.506 32.1788 116.804 31.1526C116.838 31.0416 116.893 30.9385 116.967 30.8492C117.041 30.7599 117.132 30.6862 117.234 30.6324C117.337 30.5785 117.449 30.5456 117.564 30.5355C117.679 30.5255 117.796 30.5384 117.906 30.5737L117.928 30.5868Z" fill="#A1675B"/>
<path d="M119.266 32.1352C119.482 32.2184 119.66 32.3795 119.765 32.5872C119.869 32.7948 119.892 33.034 119.83 33.2579C119.581 34.1614 119.174 35.578 118.859 36.4375C118.774 36.721 118.636 36.9858 118.453 37.2182C118.361 37.3297 118.241 37.4138 118.105 37.461C117.97 37.5082 117.823 37.5168 117.683 37.4857C117.539 37.4275 117.414 37.3302 117.322 37.2047C117.23 37.0792 117.175 36.9305 117.163 36.7752C117.138 36.4615 117.174 36.1459 117.268 35.8455C117.473 35.0034 117.84 33.7404 118.164 32.7141C118.198 32.6032 118.253 32.5 118.327 32.4107C118.401 32.3214 118.492 32.2477 118.594 32.1939C118.697 32.14 118.809 32.1071 118.924 32.0971C119.04 32.087 119.156 32.1 119.266 32.1352Z" fill="#A1675B"/>
<path d="M120.517 33.0687C120.71 33.1332 120.87 33.2702 120.965 33.4509C121.06 33.6316 121.081 33.842 121.024 34.038C120.796 34.823 120.429 36.0466 120.149 36.7966C120.068 37.0426 119.942 37.2716 119.778 37.4719C119.697 37.5812 119.584 37.6624 119.455 37.704C119.326 37.7456 119.188 37.7456 119.059 37.7039C118.93 37.6623 118.817 37.5811 118.737 37.4718C118.656 37.3625 118.612 37.2306 118.61 37.0948C118.592 36.8221 118.624 36.5484 118.706 36.2878C118.899 35.5598 119.235 34.4634 119.528 33.5731C119.56 33.4741 119.612 33.3825 119.679 33.3035C119.747 33.2246 119.83 33.1598 119.922 33.1129C120.015 33.066 120.116 33.038 120.219 33.0304C120.323 33.0228 120.427 33.0359 120.525 33.0687H120.517Z" fill="#A1675B"/>
<path d="M122.095 33.3052C122.291 33.3698 122.454 33.5077 122.55 33.69C122.646 33.8723 122.668 34.0849 122.611 34.2832C122.38 35.0683 122.012 36.3006 121.737 37.0506C121.659 37.2995 121.532 37.5306 121.365 37.7304C121.283 37.839 121.17 37.9195 121.041 37.9604C120.911 38.0014 120.772 38.0008 120.643 37.9588C120.514 37.9168 120.402 37.8354 120.321 37.7261C120.24 37.6167 120.195 37.4848 120.193 37.3488C120.173 37.0747 120.206 36.7992 120.289 36.5375C120.482 35.8051 120.823 34.7086 121.116 33.8096C121.148 33.7104 121.2 33.6187 121.268 33.5397C121.336 33.4607 121.419 33.3959 121.512 33.3491C121.605 33.3022 121.706 33.2742 121.81 33.2667C121.914 33.2592 122.018 33.2723 122.117 33.3052H122.095Z" fill="#A1675B"/>
<path d="M117.197 35.6959C117.285 35.7266 117.6 35.0074 117.91 34.0996C118.221 33.1917 118.396 32.4242 118.312 32.3935C118.229 32.3628 117.906 33.0821 117.6 33.9943C117.294 34.9065 117.114 35.6652 117.197 35.6959Z" fill="#925249"/>
<path d="M118.627 36.959C118.715 36.9853 119.065 36.1608 119.384 35.117C119.703 34.0732 119.909 33.2093 119.821 33.1786C119.734 33.1479 119.384 33.9724 119.069 35.0162C118.754 36.0599 118.544 36.9239 118.627 36.959Z" fill="#925249"/>
<path d="M120.035 37.0291C120.114 37.0642 120.503 36.3668 120.814 35.4371C121.124 34.5073 121.251 33.7179 121.155 33.6828C121.059 33.6477 120.814 34.4021 120.503 35.3143C120.193 36.2265 119.952 36.994 120.035 37.0291Z" fill="#925249"/>
<path d="M113.83 22.1309C112.665 22.6096 111.474 23.0209 110.262 23.3627C109.071 23.7675 107.858 24.0998 106.628 24.3578C107.791 23.8804 108.983 23.4749 110.196 23.1435C111.386 22.7328 112.599 22.3947 113.83 22.1309Z" fill="#5B998A"/>
<path d="M114.211 23.416C113.045 23.8888 111.854 24.2942 110.642 24.6303C109.452 25.0351 108.239 25.3674 107.008 25.6255C108.172 25.1472 109.363 24.7416 110.577 24.4111C111.767 24.0052 112.98 23.6728 114.211 23.416Z" fill="#5B998A"/>
<path d="M114.587 24.7002C113.421 25.173 112.23 25.5784 111.018 25.9145C109.828 26.3205 108.615 26.6528 107.384 26.9096C108.548 26.4322 109.74 26.0267 110.953 25.6953C112.143 25.2906 113.356 24.9583 114.587 24.7002Z" fill="#5B998A"/>
<path d="M114.967 25.9951C113.802 26.4679 112.611 26.8733 111.399 27.2094C110.208 27.6083 108.995 27.9347 107.765 28.187C108.929 27.7096 110.12 27.3041 111.333 26.9727C112.524 26.5739 113.737 26.2474 114.967 25.9951Z" fill="#5B998A"/>
<path d="M119.266 29.337C119.136 29.3974 118.999 29.443 118.859 29.473L117.731 29.7668L114.001 30.6439L110.262 31.5211C109.75 31.6609 109.23 31.7693 108.705 31.8456C108.829 31.7738 108.963 31.722 109.103 31.6921C109.365 31.6044 109.75 31.4947 110.222 31.3676C111.171 31.1044 112.488 30.7755 113.948 30.4334C115.409 30.0913 116.734 29.7975 117.696 29.6001C118.177 29.4993 118.57 29.4247 118.837 29.3765C118.977 29.3407 119.122 29.3274 119.266 29.337Z" fill="#5B998A"/>
<path d="M71.5166 43.6338C69.7673 44.125 66.0546 45.9494 64.371 49.7737C63.7588 51.1684 61.1743 69.5794 61.1743 69.5794L69.4831 77.4736L70.9306 59.8958L71.5166 43.6338Z" fill="#5B998A"/>
<path d="M66.6757 54.5859C66.7413 54.5859 67.6815 59.8049 68.7835 66.265C69.8855 72.725 70.7295 77.9703 70.6683 77.9791C70.607 77.9878 69.6625 72.7645 68.5605 66.3044C67.4584 59.8443 66.6363 54.5991 66.6757 54.5859Z" fill="#090D0A"/>
<path d="M100.864 51.0684C100.872 51.1559 100.872 51.244 100.864 51.3315C100.864 51.5245 100.829 51.7701 100.803 52.0771C100.737 52.7525 100.65 53.6822 100.541 54.8137C100.291 57.1513 99.9546 60.3309 99.5828 63.8438C99.2111 67.3567 98.8263 70.5275 98.5596 72.8651C98.424 73.9966 98.3103 74.922 98.2272 75.5974C98.1835 75.8956 98.1485 76.1412 98.1223 76.3385C98.1153 76.4252 98.0977 76.5106 98.0698 76.5929C98.062 76.5068 98.062 76.4202 98.0698 76.3342C98.0698 76.1368 98.1048 75.8956 98.1266 75.5886C98.1922 74.9088 98.2841 73.9834 98.3934 72.8476C98.6383 70.51 98.975 67.3304 99.3511 63.8175C99.7272 60.3046 100.108 57.1337 100.37 54.7962L100.707 52.0639C100.75 51.7657 100.785 51.5201 100.812 51.3227C100.819 51.2361 100.836 51.1506 100.864 51.0684Z" fill="#090D0A"/>
<path d="M67.7864 77.2099C67.7558 77.2099 67.5328 76.5872 67.148 75.5785C66.6884 74.2569 66.0259 73.0155 65.1845 71.8989C64.6071 71.0951 63.8269 70.4598 62.924 70.0583C62.021 69.6568 61.0277 69.5034 60.0461 69.614C60.1842 69.5509 60.3322 69.5123 60.4834 69.4999C60.9194 69.4365 61.3628 69.4468 61.7954 69.5306C63.2083 69.8312 64.4712 70.6197 65.3638 71.7585C66.2218 72.8925 66.8773 74.1672 67.301 75.5258C67.4759 76.039 67.6028 76.46 67.6815 76.7494C67.7377 76.8973 67.7731 77.0523 67.7864 77.2099Z" fill="#090D0A"/>
<path d="M94.6238 43.6474L99.6003 44.8052C100.265 44.9577 100.882 45.2709 101.398 45.7174C105.648 49.3619 114.171 56.5237 114.171 56.5237L113.651 43.7176L121.369 42.8975C121.369 42.8975 124.61 59.7954 124.334 64.3346C124.015 69.5974 119.305 70.9131 112.444 68.0624C108.214 66.356 104.121 64.3283 100.199 61.997L94.6238 43.6474Z" fill="#5B998A"/>
<path d="M98.096 76.632C98.096 76.632 100.694 92.1528 101.157 94.3895C101.507 99.0953 67.4366 96.5429 66.2559 92.6967L70.6114 78.6231L67.5109 60.3217C67.2267 53.559 71.2061 43.6956 71.2061 43.6956L77.7657 42.4062L87.4476 43.1211L95.4109 43.8491L100.825 53.3353L98.096 76.632Z" fill="#5B998A"/>
<path d="M69.6976 72.4301C69.6057 71.6188 69.4702 70.7504 68.8885 70.1759C68.3069 69.6014 67.1393 70.4961 66.2254 70.4566C63.2779 70.325 60.4442 69.1628 57.4793 69.0312L54.8555 71.7635C55.8525 74.1025 56.8481 76.4342 57.8423 78.7586C58.7169 80.798 59.762 83.0215 61.7999 83.8855C63.5272 84.6223 65.6219 84.1267 67.0475 82.9206C68.4589 81.6525 69.3866 79.9315 69.6713 78.0526C69.9555 76.1899 69.9643 74.2954 69.6976 72.4301Z" fill="#5B998A"/>
<path d="M117.705 64.4C117.603 64.3429 117.51 64.2704 117.429 64.1851C117.19 63.9716 116.967 63.7415 116.76 63.4966C115.377 61.8921 114.512 59.9038 114.281 57.7952C114.246 57.4778 114.231 57.1584 114.237 56.8391C114.229 56.7213 114.239 56.6029 114.268 56.4883C114.307 56.4883 114.32 56.9839 114.442 57.7733C114.75 59.8357 115.593 61.7808 116.887 63.4132C117.364 64.0229 117.731 64.3693 117.705 64.4Z" fill="#090D0A"/>
<path d="M103.807 40.1736C103.868 39.792 104.244 39.5508 104.533 39.2965C105.073 38.856 105.481 38.2751 105.713 37.6174C105.946 36.9597 105.993 36.2505 105.851 35.5676C105.708 34.8847 105.381 34.2543 104.904 33.7454C104.428 33.2366 103.822 32.869 103.151 32.6829C102.814 32.6294 102.489 32.5134 102.194 32.3408C101.507 31.8408 101.664 30.7839 101.376 29.9857C100.759 28.2928 98.2928 28.0779 97.3394 26.5517C96.7578 25.6176 96.8759 24.4334 96.8715 23.3326C96.8672 22.2318 96.596 20.96 95.6165 20.46C95.0917 20.1925 94.4532 20.2057 93.9372 19.9162C92.8746 19.3198 92.8483 17.8374 92.411 16.6971C92.039 15.8076 91.3714 15.0748 90.5216 14.6231C89.6718 14.1713 88.6922 14.0287 87.7494 14.2192C87.7494 14.2192 88.4184 12.5264 86.3894 11.7808C83.9405 10.9037 83.8749 12.6185 82.716 11.601C82.0821 11.0737 81.288 10.7786 80.4646 10.7642C79.6411 10.7499 78.8373 11.0171 78.1855 11.5221C77.8216 11.8796 77.4329 12.2108 77.0223 12.5132C76.4565 12.7758 75.8577 12.9603 75.2425 13.0614C74.1016 13.4062 73.1058 14.1185 72.4093 15.0881C71.7129 16.0578 71.3545 17.2306 71.3898 18.4251L87.8456 44.1689C88.4972 46.6644 91.6457 48.7125 93.8629 50.015C94.3178 50.3094 94.8285 50.5065 95.3628 50.5939C96.0406 50.6452 96.7181 50.4925 97.3088 50.1554C98.6283 49.4823 99.634 48.3195 100.112 46.9144C100.852 47.2014 101.665 47.2386 102.428 47.0205C103.191 46.8023 103.862 46.3405 104.34 45.7053C104.817 45.07 105.075 44.2959 105.075 43.5002C105.074 42.7046 104.815 41.9308 104.336 41.2963C104.074 40.9674 103.733 40.599 103.807 40.1736Z" fill="#090D0A"/>
<path d="M71.884 22.3763L71.5867 20.5694L82.1301 16.9118C85.423 16.0697 89.5292 18.8985 90.2289 22.2359C91.0117 25.9374 91.8163 30.4941 91.7814 33.3492C91.7114 39.09 87.5264 40.4321 87.5264 40.4321L88.3135 46.0062L75.9641 47.9754L71.884 22.3763Z" fill="#A1675B"/>
<path d="M88.6372 27.4641C88.6669 27.6496 88.6238 27.8395 88.517 27.9939C88.4103 28.1483 88.248 28.2554 88.0643 28.2926C87.9729 28.3151 87.8779 28.3188 87.785 28.3034C87.6921 28.288 87.6033 28.2539 87.524 28.203C87.4446 28.1522 87.3764 28.0858 87.3235 28.0077C87.2705 27.9297 87.234 27.8417 87.2159 27.749C87.1877 27.5618 87.233 27.3708 87.3423 27.2163C87.4516 27.0618 87.6163 26.9558 87.8019 26.9205C87.8925 26.9 87.9862 26.8978 88.0775 26.9142C88.1689 26.9305 88.2561 26.9651 88.3339 27.0157C88.4117 27.0664 88.4787 27.1322 88.5308 27.2092C88.5829 27.2862 88.619 27.3728 88.6372 27.4641Z" fill="#090D0A"/>
<path d="M89.3761 24.7932C89.3017 24.8985 88.6983 24.574 87.9286 24.688C87.159 24.802 86.6473 25.2755 86.5511 25.1922C86.4549 25.1089 86.5511 24.973 86.7872 24.7538C87.0874 24.4748 87.4662 24.2957 87.8718 24.2409C88.2734 24.1789 88.6843 24.248 89.0437 24.4382C89.3061 24.5828 89.4111 24.745 89.3761 24.7932Z" fill="#090D0A"/>
<path d="M81.6534 28.1883C81.6755 28.3716 81.6272 28.5564 81.5184 28.7054C81.4096 28.8543 81.2484 28.9562 81.0674 28.9905C80.9772 29.0111 80.8838 29.0134 80.7927 28.9973C80.7015 28.9812 80.6145 28.9471 80.5368 28.8969C80.459 28.8466 80.392 28.7814 80.3397 28.7049C80.2874 28.6283 80.2508 28.5421 80.2322 28.4513C80.2028 28.2639 80.2477 28.0724 80.3571 27.9176C80.4666 27.7628 80.632 27.657 80.8182 27.6227C80.9102 27.6024 81.0055 27.6011 81.0981 27.6188C81.1907 27.6365 81.2787 27.673 81.3568 27.7258C81.4349 27.7787 81.5015 27.847 81.5525 27.9265C81.6035 28.006 81.6378 28.0951 81.6534 28.1883Z" fill="#090D0A"/>
<path d="M81.8064 26.047C81.7277 26.1522 81.1286 25.8322 80.3546 25.9462C79.5805 26.0601 79.0733 26.5292 78.9771 26.4503C78.8808 26.3714 78.9771 26.2311 79.2176 26.0119C79.5171 25.7314 79.896 25.5507 80.3021 25.4946C80.7037 25.4366 81.1134 25.5055 81.4741 25.6919C81.7364 25.841 81.8414 25.9944 81.8064 26.047Z" fill="#090D0A"/>
<path d="M85.4404 31.38C85.8278 31.1908 86.2379 31.0522 86.6605 30.9678C86.8529 30.9195 87.0366 30.8538 87.0497 30.7134C87.0373 30.5066 86.9609 30.3088 86.8311 30.1477L86.0308 28.7267C84.9069 26.7005 84.0629 25.0252 84.146 24.9813C84.2291 24.9375 85.2043 26.5383 86.3325 28.5644C86.608 29.0644 86.8661 29.5424 87.1153 29.9985C87.2724 30.2188 87.3482 30.4871 87.3296 30.7573C87.3115 30.8318 87.2764 30.9011 87.2271 30.9596C87.1778 31.0182 87.1156 31.0646 87.0454 31.095C86.9405 31.1408 86.8303 31.1732 86.7174 31.1914C86.3016 31.3093 85.8724 31.3727 85.4404 31.38Z" fill="#090D0A"/>
<path d="M87.5045 40.468C84.8156 40.9079 82.058 40.6047 79.5281 39.5908C79.5281 39.5908 81.9901 43.2397 87.7057 41.8758L87.5045 40.468Z" fill="#925249"/>
<path d="M83.7874 32.8675C83.4813 33.0209 83.5775 33.2489 83.4113 33.5513C83.3274 33.6953 83.2896 33.8616 83.3029 34.0277C83.3162 34.1939 83.38 34.352 83.4856 34.4807C83.8258 34.7823 84.2696 34.9395 84.7232 34.9191C85.3661 34.8314 85.4316 34.3536 85.5628 33.9021L85.6897 33.3453C85.143 33.2226 84.0235 32.7491 83.7874 32.8675Z" fill="#925249"/>
<path d="M81.5614 22.9859C81.5177 23.2051 80.7305 23.2182 79.8428 23.4594C78.9551 23.7005 78.2554 24.0599 78.0936 23.8977C78.028 23.8144 78.1242 23.5953 78.391 23.3498C78.7465 23.0383 79.1706 22.816 79.6285 22.7009C80.0836 22.5755 80.5621 22.562 81.0235 22.6615C81.3909 22.7404 81.5789 22.8807 81.5614 22.9859Z" fill="#090D0A"/>
<path d="M88.764 22.5909C88.6547 22.7882 88.0949 22.6829 87.4521 22.7662C86.8093 22.8495 86.2889 23.0599 86.1402 22.8934C86.0746 22.8101 86.1402 22.6216 86.3457 22.4243C86.6341 22.1768 86.9895 22.0212 87.3666 21.9775C87.7437 21.9338 88.1252 22.0039 88.4623 22.1788C88.7115 22.3279 88.8121 22.4857 88.764 22.5909Z" fill="#090D0A"/>
<path d="M89.844 18.1791C88.4165 16.6132 86.5077 15.5711 84.4214 15.2188L75.413 17.1441L73.0515 18.8589C72.8329 18.2975 72.6929 17.951 72.6929 17.951C71.779 17.3677 69.317 16.1968 67.4453 18.5562C66.7631 19.3983 66.317 21.5297 66.3914 22.613C66.422 23.0252 66.5007 23.5208 66.1815 23.7708C66.0619 23.8516 65.9285 23.9096 65.7879 23.9418C64.6638 24.3378 63.7309 25.1459 63.1768 26.2036C62.6227 27.2613 62.4885 28.4902 62.8011 29.6432C62.8575 29.7902 62.8871 29.9462 62.8886 30.1037C62.8352 30.3472 62.7121 30.5697 62.5344 30.744C62.0431 31.3877 61.7559 32.1645 61.7099 32.9738C61.6639 33.7831 61.8612 34.5876 62.2764 35.2832C62.5865 35.6737 62.8344 36.1101 63.011 36.5769C63.2253 37.4541 62.6524 38.283 62.2195 39.0636C60.9076 41.4012 60.877 44.6422 62.7924 46.5192C63.2559 46.9578 63.8419 47.3613 64.0518 47.9753C64.1348 48.2828 64.1789 48.5996 64.183 48.9182C64.3098 50.5277 65.3069 52.2513 66.903 52.4574C67.7776 52.5714 68.8228 52.2337 69.4962 52.8214C69.7579 53.111 69.9733 53.4394 70.1347 53.795C70.5265 54.4348 71.1323 54.914 71.8438 55.1473C72.5553 55.3807 73.3264 55.3528 74.0194 55.0688C74.7123 54.7848 75.2822 54.2631 75.6271 53.5969C75.9721 52.9306 76.0698 52.163 75.9027 51.4312C76.7268 51.0277 77.4068 50.3791 77.8497 49.5738C78.2927 48.7685 78.4771 47.8458 78.3779 46.9315C78.3779 46.9315 77.184 41.3441 77.5689 39.7828C77.9537 38.2216 76.6505 35.0419 75.9377 33.5114C75.2249 31.9808 75.601 28.2486 75.6316 26.7662C75.6088 26.3445 75.5324 25.9274 75.4042 25.5251C75.3124 25.1742 75.1943 24.7839 75.0587 24.3629C74.9949 23.9736 74.9511 23.5813 74.9276 23.1875C74.9077 22.8628 74.9637 22.5378 75.0911 22.2386C75.2184 21.9394 75.4136 21.674 75.6611 21.4637C75.9086 21.2534 76.2016 21.1038 76.5169 21.027C76.8321 20.9501 77.1609 20.9481 77.477 21.021C78.1702 21.1902 78.8987 21.1383 79.5611 20.8726C80.2234 20.6069 80.7867 20.1406 81.1723 19.5386C81.8568 20.1374 82.6895 20.5402 83.583 20.7046C84.4764 20.8689 85.3975 20.7889 86.2494 20.4728C86.9959 21.4322 87.8665 22.2876 88.8382 23.0165C89.3242 23.3813 89.8772 23.6465 90.4654 23.797C91.0537 23.9475 91.6658 23.9804 92.2667 23.8936C92.1199 21.7704 91.2668 19.7581 89.844 18.1791Z" fill="#090D0A"/>
<path d="M89.035 19.8936C89.035 19.8936 89.035 19.6874 88.9651 19.3234C88.876 18.8022 88.6745 18.3068 88.3747 17.8718C87.9277 17.2157 87.2653 16.7377 86.503 16.521C86.0305 16.3902 85.536 16.3597 85.0511 16.4315C84.5662 16.5032 84.1015 16.6756 83.6868 16.9376L83.6256 16.9815L83.5731 16.9245C83.1882 16.5319 82.7458 16.2007 82.2612 15.9421C81.1982 15.3956 79.9823 15.2256 78.8109 15.4597C77.8594 15.667 76.9852 16.138 76.2876 16.8192C75.8142 17.2789 75.4263 17.8195 75.1419 18.4156C74.9451 18.8542 74.8795 19.091 74.862 19.0866C74.8445 19.0822 74.862 19.0208 74.9014 18.9024C74.9464 18.7257 75.0049 18.5527 75.0763 18.3849C75.4072 17.6141 75.9146 16.9325 76.5574 16.3953C77.2002 15.8581 77.9603 15.4804 78.7759 15.293C79.6542 15.1113 80.5639 15.1525 81.4222 15.4129C82.2806 15.6733 83.0606 16.1446 83.6912 16.7841H83.5731C84.0078 16.5057 84.4963 16.3227 85.0066 16.2471C85.5168 16.1715 86.0372 16.2051 86.5336 16.3456C87.3272 16.5762 88.0107 17.0872 88.4578 17.7841C88.7584 18.2366 88.9501 18.7531 89.0175 19.2927C89.0319 19.4386 89.0319 19.5855 89.0175 19.7313C89.0303 19.7844 89.0362 19.8389 89.035 19.8936Z" fill="#5B998A"/>
<path d="M63.3652 29.7098C64.0994 29.6189 64.8239 29.4618 65.5299 29.2405C67.2216 28.6702 68.6958 27.5886 69.7499 26.1442C69.8111 26.0521 69.8767 25.9644 69.9335 25.8811L69.9598 25.846H69.9991C70.9292 25.7276 71.8054 25.3423 72.5224 24.7364C73.109 24.248 73.5847 23.6394 73.9174 22.9515C74.2113 22.3118 74.3862 21.6236 74.4334 20.9209C74.4334 20.9209 74.4334 20.9735 74.4334 21.07C74.4419 21.2161 74.4419 21.3625 74.4334 21.5086C74.3844 22.031 74.2468 22.5412 74.0267 23.0172C73.7046 23.7341 73.2264 24.3695 72.6273 24.8768C71.8874 25.5178 70.9741 25.9239 70.0035 26.0434L70.0691 26.0039L69.8854 26.267C69.3003 27.0787 68.5745 27.7784 67.7426 28.3327C67.068 28.787 66.3316 29.1415 65.5561 29.3852C65.0346 29.5518 64.4964 29.6606 63.9512 29.7098C63.7632 29.7098 63.6101 29.7098 63.5139 29.7098C63.4646 29.7162 63.4146 29.7162 63.3652 29.7098Z" fill="#5B998A"/>
<path d="M97.8423 43.415H60.1511C59.0208 43.415 58.1045 44.334 58.1045 45.4675V80.7414C58.1045 81.875 59.0208 82.7939 60.1511 82.7939H97.8423C98.9726 82.7939 99.8889 81.875 99.8889 80.7414V45.4675C99.8889 44.334 98.9726 43.415 97.8423 43.415Z" fill="white"/>
<path d="M97.838 82.7937C97.838 82.7937 97.9779 82.7937 98.2447 82.741C98.6346 82.6563 98.9916 82.4597 99.2723 82.1753C99.5 81.9396 99.672 81.6557 99.7756 81.3445C99.8793 81.0333 99.9121 80.7028 99.8714 80.3772C99.8714 79.6053 99.8714 78.7106 99.8714 77.7063C99.8714 73.6759 99.8714 67.8561 99.8364 60.6636C99.8364 57.063 99.8364 53.1247 99.8364 48.8925C99.8364 47.8356 99.8364 46.7611 99.8364 45.669C99.8843 45.1362 99.7191 44.6062 99.3773 44.1955C99.2046 43.9927 98.9927 43.8272 98.7544 43.7088C98.5162 43.5905 98.2565 43.5218 97.991 43.5069H91.016H60.1555C59.8329 43.5053 59.515 43.5848 59.2309 43.738C58.9467 43.8912 58.7053 44.1133 58.5287 44.384C58.3517 44.6542 58.2463 44.9651 58.2226 45.2875C58.2226 45.6076 58.2226 45.9629 58.2226 46.2962V50.3354C58.2226 53.0106 58.2226 55.642 58.2226 58.2296C58.2226 63.4047 58.2226 68.3999 58.2226 73.1408C58.2226 75.5237 58.2226 77.8423 58.2226 80.0965C58.2226 80.3728 58.2226 80.6666 58.2226 80.9254C58.2702 81.32 58.4369 81.6906 58.7002 81.9876C58.9636 82.2847 59.3111 82.494 59.6963 82.5875C59.9552 82.6401 60.2197 82.6593 60.4835 82.6446H62.8843H74.6215L91.6108 82.6796L96.2331 82.7016H97.4313H97.8423H97.4313H96.2331H91.6108L74.6215 82.741H62.8843H60.4835C60.2036 82.7573 59.9228 82.7367 59.6482 82.6796C59.3681 82.6113 59.1045 82.4872 58.8731 82.3146C58.6417 82.1421 58.4473 81.9247 58.3013 81.6753C58.1555 81.4217 58.0618 81.1414 58.0258 80.8508C57.9952 80.5526 58.0258 80.2807 58.0258 80C58.0258 77.7458 58.0258 75.4272 58.0258 73.0443C58.0258 68.2903 58.0258 63.295 58.0258 58.1331V46.3313C58.0258 45.9892 58.0258 45.6603 58.0258 45.305C58.0526 44.9439 58.1699 44.5954 58.3669 44.2919C58.5649 43.9889 58.8347 43.7397 59.1521 43.5667C59.4696 43.3938 59.8248 43.3024 60.1861 43.3008H91.0466H97.9823C98.2751 43.317 98.5615 43.393 98.824 43.5242C99.0864 43.6554 99.3194 43.8391 99.5085 44.0639C99.8781 44.5113 100.06 45.0853 100.016 45.6647C100.016 46.7581 100.016 47.8326 100.016 48.8881C100.016 53.1203 100.016 57.0586 100.016 60.6592C100.016 67.8517 99.9895 73.6715 99.9808 77.7019C99.9808 78.7062 99.9808 79.6009 99.9808 80.3728C99.9808 80.5658 99.9808 80.7543 99.9808 80.9342C99.9617 81.1069 99.9206 81.2764 99.8583 81.4385C99.7568 81.7219 99.5923 81.9784 99.3773 82.1885C99.0886 82.4753 98.722 82.6706 98.3234 82.7498C98.1647 82.7889 98.001 82.8036 97.838 82.7937Z" fill="#090D0A"/>
<path d="M60.1993 70.3384C60.1993 70.3384 58.5681 70.9568 58.1352 71.5795L58.0127 75.9389C57.453 75.838 55.9268 74.5706 55.0391 74.0399C54.791 73.9108 54.574 73.7289 54.4033 73.5069C54.2326 73.285 54.1123 73.0283 54.0508 72.7549C53.7537 72.6279 53.517 72.3906 53.3904 72.0927C53.2205 71.6377 53.1975 71.1405 53.3248 70.6717C53.0324 70.3453 52.8079 69.9636 52.6645 69.549C52.4021 68.821 53.456 67.7289 53.456 67.7289C53.4365 67.4208 53.4365 67.1117 53.456 66.8036C53.7649 65.8023 54.1844 64.8388 54.7067 63.931C54.9385 63.6678 57.0813 63.1064 58.5944 63.1064C60.1074 63.1064 59.9456 64.3257 59.9456 64.3257C59.9334 64.455 59.8949 64.5806 59.8325 64.6945C59.7701 64.8083 59.685 64.9082 59.5827 64.9879L60.3086 64.887C62.0228 64.7905 61.4937 66.308 61.4937 66.308C63.6409 67.0623 61.5593 68.3561 61.5943 68.457C61.5943 68.457 61.7255 68.6455 61.5943 69.1981C61.4631 69.7507 60.1949 70.4831 60.1949 70.4831" fill="#A1675B"/>
<path d="M60.1074 64.9962C60.1074 65.0313 59.7313 65.0795 59.1453 65.2506C58.3651 65.4519 57.5693 65.5868 56.7664 65.6541C56.5413 65.6788 56.3179 65.7169 56.0973 65.7681C56.0013 65.7916 55.9076 65.8239 55.8175 65.8646C55.7344 65.8997 55.6644 65.9654 55.5595 66.0225C55.4785 66.0584 55.4078 66.1142 55.3539 66.1847C55.2883 66.2593 55.2184 66.3207 55.1571 66.3865C55.0303 66.5005 54.9123 66.6189 54.7898 66.7329C54.6167 66.9066 54.4342 67.0706 54.2432 67.2241C54.112 67.3294 54.0551 67.4039 54.0333 67.3952C54.0114 67.3864 54.0333 67.2811 54.1645 67.1452L54.6367 66.5926L54.9822 66.2154C55.0434 66.1496 55.109 66.0839 55.1659 66.0093C55.2345 65.9195 55.3209 65.8449 55.4195 65.79C55.4939 65.7506 55.577 65.6672 55.6907 65.6146C55.7989 65.5634 55.9116 65.5223 56.0274 65.4918C56.2517 65.4353 56.4796 65.3942 56.7096 65.369C57.6891 65.2462 58.4588 65.1892 59.0929 65.0488C59.4214 64.9466 59.7702 64.9285 60.1074 64.9962Z" fill="#925249"/>
<path d="M61.5941 66.3915C61.2964 66.6524 60.9458 66.8454 60.5665 66.9573C59.893 67.2292 58.9134 67.4353 57.8683 67.716C56.9775 67.9258 56.1404 68.3202 55.4106 68.8738C54.8684 69.3124 54.6585 69.7202 54.6147 69.6939C54.7332 69.3106 54.9631 68.9716 55.2751 68.7203C56.0001 68.0951 56.8638 67.653 57.7939 67.4309C58.861 67.1502 59.8274 66.9924 60.5009 66.7599C61.1743 66.5275 61.5723 66.3433 61.5941 66.3915Z" fill="#925249"/>
<path d="M55.2402 71.0573C55.3701 70.9315 55.5174 70.8251 55.6775 70.7415C55.9793 70.5573 56.421 70.3029 56.9895 70.0091C57.5579 69.7153 58.227 69.3951 58.9923 69.0706C59.3771 68.9039 59.7838 68.7416 60.208 68.5838L60.8596 68.3469C60.9767 68.3027 61.0964 68.2661 61.2182 68.2373C61.3709 68.2106 61.528 68.2453 61.6555 68.3338C61.7702 68.4287 61.8543 68.5556 61.8971 68.6985C61.9399 68.8413 61.9395 68.9937 61.896 69.1364C61.8131 69.3794 61.6611 69.5929 61.4587 69.7503C61.0986 70.0132 60.7133 70.2394 60.3086 70.4257C59.6354 70.707 58.9848 71.0399 58.3626 71.4213C57.8025 71.789 57.3605 72.3115 57.09 72.9256C57.0939 72.7383 57.1466 72.5553 57.2431 72.3949C57.4804 71.9408 57.8222 71.5499 58.2401 71.2546C58.8561 70.8386 59.509 70.4804 60.1905 70.1845C60.5744 70.0022 60.9392 69.7818 61.2794 69.5267C61.4435 69.4083 61.5684 69.2433 61.638 69.053C61.6632 68.9676 61.6634 68.8768 61.6386 68.7912C61.6138 68.7057 61.565 68.6291 61.4981 68.5706C61.38 68.4653 61.1876 68.5399 60.9558 68.6232L60.3086 68.8513C59.8713 69.0048 59.4821 69.1627 59.0973 69.3162C58.3276 69.6275 57.6498 69.9302 57.0813 70.1933C55.9487 70.7283 55.2665 71.0967 55.2402 71.0573Z" fill="#925249"/>
<path d="M85.3398 34.6469C85.3791 34.6469 85.1211 34.9713 84.5439 35.0283C84.3966 35.0333 84.2493 35.0171 84.1066 34.98C83.9276 34.9454 83.7579 34.8737 83.6081 34.7696C83.4418 34.6438 83.312 34.4758 83.232 34.283C83.1746 34.0699 83.1671 33.8463 83.2101 33.6298C83.2557 33.4197 83.3468 33.2221 83.4769 33.0512C83.5272 32.9518 83.6007 32.8661 83.6912 32.8013C83.7457 32.7778 83.8045 32.7656 83.8639 32.7656C83.9233 32.7656 83.9821 32.7778 84.0366 32.8013L84.9418 33.0731C85.2276 33.1404 85.5039 33.2435 85.764 33.3799C85.4669 33.3716 85.1725 33.3215 84.8894 33.2309L83.971 33.0073C83.8836 33.0073 83.8267 32.981 83.7874 33.0073C83.7296 33.0594 83.6822 33.1218 83.6474 33.1914C83.5344 33.3405 83.4553 33.5126 83.4157 33.6956C83.3757 33.8716 83.3757 34.0544 83.4157 34.2304C83.4766 34.3833 83.576 34.5177 83.7043 34.6206C83.9487 34.7869 84.2355 34.8797 84.5308 34.888C84.8158 34.8736 85.0932 34.7909 85.3398 34.6469Z" fill="#090D0A"/>
<path d="M66.3347 73.7239L66.5009 74.0659C66.5099 74.0812 66.5219 74.0945 66.5361 74.1051C66.5504 74.1156 66.5667 74.1232 66.584 74.1272L66.96 74.1798C66.9806 74.1824 67 74.1909 67.016 74.2041C67.0319 74.2174 67.0438 74.2349 67.0503 74.2546C67.0567 74.2744 67.0573 74.2956 67.0522 74.3157C67.0471 74.3358 67.0363 74.3541 67.0213 74.3683L66.7501 74.6358C66.737 74.6477 66.7273 74.6629 66.7219 74.6798C66.7165 74.6968 66.7157 74.7148 66.7195 74.7322L66.7807 75.1092C66.7847 75.1294 66.7828 75.1503 66.7755 75.1695C66.7681 75.1888 66.7555 75.2055 66.739 75.2179C66.7226 75.2302 66.703 75.2377 66.6826 75.2394C66.6621 75.2411 66.6416 75.237 66.6233 75.2276L66.2866 75.0478C66.2704 75.0394 66.2524 75.035 66.2341 75.035C66.2158 75.035 66.1978 75.0394 66.1816 75.0478L65.8449 75.2276C65.8267 75.237 65.8061 75.2411 65.7857 75.2394C65.7652 75.2377 65.7456 75.2302 65.7292 75.2179C65.7128 75.2055 65.7001 75.1888 65.6928 75.1695C65.6854 75.1503 65.6836 75.1294 65.6875 75.1092L65.7487 74.7322C65.7525 74.7148 65.7517 74.6968 65.7463 74.6798C65.741 74.6629 65.7312 74.6477 65.7181 74.6358L65.447 74.3683C65.4319 74.3541 65.4211 74.3358 65.416 74.3157C65.4109 74.2956 65.4116 74.2744 65.418 74.2546C65.4244 74.2349 65.4363 74.2174 65.4522 74.2041C65.4682 74.1909 65.4876 74.1824 65.5082 74.1798L65.8843 74.1272C65.9015 74.1232 65.9178 74.1156 65.9321 74.1051C65.9464 74.0945 65.9584 74.0812 65.9674 74.0659L66.1335 73.7239C66.1432 73.7056 66.1577 73.6902 66.1754 73.6795C66.1931 73.6688 66.2134 73.6631 66.2341 73.6631C66.2548 73.6631 66.2751 73.6688 66.2928 73.6795C66.3106 73.6902 66.325 73.7056 66.3347 73.7239Z" fill="#E0E0E0"/>
<path d="M93.1677 51.471L93.3339 51.8129C93.3429 51.8282 93.3549 51.8416 93.3691 51.8521C93.3834 51.8627 93.3997 51.8702 93.417 51.8743L93.793 51.9269C93.8136 51.9295 93.833 51.9379 93.849 51.9512C93.865 51.9644 93.8768 51.9819 93.8833 52.0017C93.8897 52.0215 93.8904 52.0426 93.8852 52.0628C93.8801 52.0829 93.8694 52.1012 93.8543 52.1154L93.5831 52.3828C93.57 52.3948 93.5603 52.41 93.5549 52.4269C93.5495 52.4439 93.5487 52.4619 93.5525 52.4793L93.6181 52.8563C93.6209 52.8767 93.6182 52.8975 93.6101 52.9164C93.6021 52.9354 93.5891 52.9518 93.5725 52.9639C93.5559 52.9761 93.5363 52.9835 93.5159 52.9854C93.4954 52.9873 93.4748 52.9835 93.4563 52.9746L93.1196 52.7949C93.1035 52.7861 93.0855 52.7814 93.0671 52.7814C93.0488 52.7814 93.0307 52.7861 93.0146 52.7949L92.6823 52.9746C92.6638 52.9835 92.6432 52.9873 92.6227 52.9854C92.6023 52.9835 92.5827 52.9761 92.5661 52.9639C92.5495 52.9518 92.5365 52.9354 92.5285 52.9164C92.5204 52.8975 92.5177 52.8767 92.5205 52.8563L92.5861 52.4793C92.5878 52.4616 92.5856 52.4437 92.5796 52.427C92.5735 52.4103 92.5638 52.3952 92.5511 52.3828L92.28 52.1154C92.2649 52.1012 92.2541 52.0829 92.249 52.0628C92.2439 52.0426 92.2446 52.0215 92.251 52.0017C92.2574 51.9819 92.2693 51.9644 92.2853 51.9512C92.3012 51.9379 92.3206 51.9295 92.3412 51.9269L92.7173 51.8743C92.7345 51.8702 92.7508 51.8627 92.7651 51.8521C92.7794 51.8416 92.7914 51.8282 92.8004 51.8129L92.9665 51.471C92.9762 51.4526 92.9907 51.4373 93.0084 51.4265C93.0261 51.4158 93.0464 51.4102 93.0671 51.4102C93.0878 51.4102 93.1081 51.4158 93.1259 51.4265C93.1436 51.4373 93.158 51.4526 93.1677 51.471Z" fill="#E0E0E0"/>
<path d="M88.3221 75.0657L88.4883 75.4077C88.496 75.424 88.5077 75.4381 88.5221 75.4488C88.5366 75.4595 88.5536 75.4664 88.5714 75.469L88.9475 75.5216C88.968 75.5252 88.9872 75.5343 89.0029 75.548C89.0186 75.5617 89.0303 75.5795 89.0366 75.5994C89.0429 75.6193 89.0436 75.6406 89.0387 75.6609C89.0338 75.6812 89.0234 75.6997 89.0087 75.7145L88.7375 75.9776C88.7242 75.9904 88.7141 76.0063 88.7081 76.0238C88.702 76.0413 88.7001 76.06 88.7026 76.0784L88.7682 76.451C88.7728 76.4718 88.7712 76.4935 88.7637 76.5134C88.7562 76.5334 88.743 76.5507 88.7259 76.5632C88.7087 76.5758 88.6882 76.583 88.667 76.5841C88.6458 76.5852 88.6247 76.5801 88.6064 76.5694L88.274 76.3896C88.2403 76.3764 88.2028 76.3764 88.1691 76.3896L87.8323 76.5694C87.8138 76.5783 87.7932 76.582 87.7728 76.5801C87.7523 76.5782 87.7327 76.5708 87.7161 76.5587C87.6995 76.5465 87.6865 76.5301 87.6785 76.5112C87.6705 76.4922 87.6677 76.4714 87.6705 76.451L87.7361 76.0784C87.7403 76.0604 87.7397 76.0416 87.7343 76.0238C87.7289 76.0061 87.719 75.9902 87.7055 75.9776L87.4344 75.7145C87.4197 75.6997 87.4093 75.6812 87.4043 75.6609C87.3994 75.6406 87.4002 75.6193 87.4065 75.5994C87.4128 75.5795 87.4245 75.5617 87.4402 75.548C87.4559 75.5343 87.4751 75.5252 87.4956 75.5216L87.8717 75.469C87.8895 75.4664 87.9064 75.4595 87.9209 75.4488C87.9354 75.4381 87.947 75.424 87.9548 75.4077L88.121 75.0657C88.1306 75.0474 88.1451 75.032 88.1628 75.0213C88.1805 75.0106 88.2008 75.0049 88.2215 75.0049C88.2422 75.0049 88.2625 75.0106 88.2803 75.0213C88.298 75.032 88.3125 75.0474 88.3221 75.0657Z" fill="#E0E0E0"/>
<path d="M66.4221 54.0974L66.7457 54.7465C66.76 54.7779 66.7819 54.8052 66.8094 54.8258C66.8369 54.8465 66.8691 54.86 66.9032 54.8649L67.6247 54.9702C67.6634 54.9762 67.6996 54.9928 67.7293 55.0184C67.759 55.0439 67.781 55.0772 67.7928 55.1146C67.8047 55.152 67.8058 55.192 67.7962 55.23C67.7866 55.268 67.7666 55.3026 67.7384 55.3298L67.2224 55.8385C67.1969 55.862 67.1778 55.8917 67.1671 55.9248C67.1564 55.9578 67.1543 55.9931 67.1612 56.0271L67.2836 56.7464C67.2897 56.7856 67.2848 56.8258 67.2695 56.8624C67.2542 56.899 67.229 56.9307 67.1969 56.9539C67.1647 56.977 67.1268 56.9908 67.0873 56.9937C67.0478 56.9965 67.0083 56.9883 66.9731 56.97L66.3347 56.6323C66.3039 56.6151 66.2693 56.606 66.2341 56.606C66.1989 56.606 66.1642 56.6151 66.1335 56.6323L65.495 56.97C65.4599 56.9883 65.4204 56.9965 65.3809 56.9937C65.3414 56.9908 65.3035 56.977 65.2713 56.9539C65.2391 56.9307 65.214 56.899 65.1987 56.8624C65.1834 56.8258 65.1785 56.7856 65.1846 56.7464L65.307 56.0271C65.3139 55.9931 65.3118 55.9578 65.3011 55.9248C65.2904 55.8917 65.2713 55.862 65.2458 55.8385L64.7298 55.3298C64.7016 55.3026 64.6816 55.268 64.672 55.23C64.6624 55.192 64.6635 55.152 64.6753 55.1146C64.6872 55.0772 64.7092 55.0439 64.7389 55.0184C64.7686 54.9928 64.8048 54.9762 64.8435 54.9702L65.565 54.8649C65.599 54.86 65.6313 54.8465 65.6588 54.8258C65.6863 54.8052 65.7082 54.7779 65.7224 54.7465L66.046 54.0974C66.0634 54.0623 66.0902 54.0327 66.1235 54.0121C66.1567 53.9914 66.195 53.9805 66.2341 53.9805C66.2732 53.9805 66.3115 53.9914 66.3447 54.0121C66.3779 54.0327 66.4048 54.0623 66.4221 54.0974Z" fill="#E0E0E0"/>
<path d="M92.4067 71.6056L92.6734 72.1494C92.6863 72.1755 92.7054 72.198 92.7291 72.2148C92.7527 72.2317 92.7802 72.2424 92.809 72.2459L93.4081 72.3336C93.441 72.3379 93.4721 72.3516 93.4976 72.3729C93.5231 72.3943 93.542 72.4225 93.5521 72.4543C93.5622 72.486 93.563 72.52 93.5546 72.5522C93.5461 72.5844 93.5287 72.6136 93.5043 72.6362L93.067 73.0748C93.0468 73.0953 93.0316 73.1202 93.0225 73.1476C93.0134 73.175 93.0107 73.2041 93.0145 73.2327L93.1195 73.8291C93.1265 73.8622 93.1238 73.8967 93.1117 73.9283C93.0996 73.9599 93.0787 73.9873 93.0514 74.0072C93.0241 74.0272 92.9917 74.0387 92.958 74.0406C92.9243 74.0425 92.8908 74.0345 92.8615 74.0177L92.3236 73.737C92.2993 73.7219 92.2713 73.7138 92.2427 73.7138C92.2141 73.7138 92.1861 73.7219 92.1618 73.737L91.6239 74.0177C91.5946 74.0345 91.5611 74.0425 91.5274 74.0406C91.4937 74.0387 91.4613 74.0272 91.434 74.0072C91.4067 73.9873 91.3858 73.9599 91.3737 73.9283C91.3616 73.8967 91.3589 73.8622 91.3659 73.8291L91.4708 73.2327C91.4747 73.2041 91.472 73.175 91.4629 73.1476C91.4538 73.1202 91.4386 73.0953 91.4184 73.0748L90.9811 72.6362C90.9567 72.6136 90.9393 72.5844 90.9308 72.5522C90.9224 72.52 90.9232 72.486 90.9333 72.4543C90.9434 72.4225 90.9623 72.3943 90.9878 72.3729C91.0133 72.3516 91.0443 72.3379 91.0773 72.3336L91.6764 72.2459C91.7049 72.2416 91.7321 72.2307 91.7557 72.2139C91.7792 72.1972 91.7985 72.1751 91.8119 72.1494L92.0787 71.6056C92.0911 71.572 92.1135 71.5431 92.1428 71.5226C92.1721 71.5022 92.207 71.4912 92.2427 71.4912C92.2784 71.4912 92.3132 71.5022 92.3426 71.5226C92.3719 71.5431 92.3943 71.572 92.4067 71.6056Z" fill="#E0E0E0"/>
<path d="M69.7457 62.7109V68.1667H68.4863V65.93H66.0111V68.1667H64.7517V62.7109H66.0111V64.8643H68.4863V62.7109H69.7457Z" fill="#090D0A"/>
<path d="M75.0239 66.4126H71.884C71.9472 66.6744 72.1032 66.9041 72.3228 67.059C72.5425 67.214 72.8109 67.2835 73.0779 67.2546C73.271 67.2627 73.4637 67.2311 73.6442 67.1617C73.8247 67.0924 73.9891 66.9867 74.1274 66.8512L74.7746 67.5529C74.554 67.7863 74.2849 67.9682 73.9864 68.0856C73.6879 68.2031 73.3673 68.2533 73.0472 68.2326C71.6041 68.2326 70.6596 67.3204 70.6596 66.0705C70.6562 65.7791 70.7124 65.4901 70.8246 65.2213C70.9368 64.9525 71.1027 64.7095 71.312 64.5074C71.5213 64.3053 71.7697 64.1483 72.0418 64.046C72.3139 63.9437 72.604 63.8984 72.8942 63.9128C73.1858 63.8955 73.4778 63.9405 73.7508 64.0446C74.0239 64.1487 74.2719 64.3096 74.4785 64.5168C74.685 64.7239 74.8455 64.9726 74.9493 65.2465C75.0531 65.5203 75.0979 65.8131 75.0807 66.1056C75.0457 66.1802 75.0326 66.3117 75.0239 66.4126ZM71.8447 65.7065H73.9044C73.8624 65.4631 73.736 65.2424 73.5476 65.0834C73.3592 64.9243 73.1208 64.8371 72.8745 64.8371C72.6282 64.8371 72.3898 64.9243 72.2014 65.0834C72.013 65.2424 71.8867 65.4631 71.8447 65.7065Z" fill="#090D0A"/>
<path d="M75.8591 62.3945H77.0705V68.1792H75.8591V62.3945Z" fill="#090D0A"/>
<path d="M82.7554 66.0703C82.7725 66.3528 82.7308 66.6357 82.633 66.9011C82.5351 67.1665 82.3833 67.4086 82.1871 67.6119C81.9909 67.8153 81.7547 67.9755 81.4934 68.0823C81.2321 68.1891 80.9515 68.2403 80.6695 68.2324C80.4354 68.2436 80.2017 68.204 79.9843 68.1162C79.767 68.0283 79.5711 67.8945 79.4101 67.7237V69.6797H78.1987V63.9784H79.3576V64.4608C79.5211 64.2766 79.724 64.132 79.9513 64.0378C80.1785 63.9436 80.4241 63.9023 80.6695 63.917C80.9508 63.9092 81.2306 63.9601 81.4912 64.0664C81.7518 64.1727 81.9877 64.3321 82.1837 64.5345C82.3798 64.7369 82.5318 64.9779 82.6302 65.2423C82.7286 65.5066 82.7713 65.7886 82.7554 66.0703ZM81.5266 66.0703C81.5088 65.8635 81.4314 65.6664 81.3039 65.503C81.1763 65.3395 81.0041 65.2168 80.8083 65.1497C80.6124 65.0827 80.4014 65.0742 80.2008 65.1253C80.0002 65.1764 79.8188 65.2849 79.6786 65.4376C79.5384 65.5903 79.4455 65.7805 79.4113 65.9852C79.377 66.1899 79.4028 66.4002 79.4856 66.5904C79.5684 66.7806 79.7045 66.9426 79.8774 67.0566C80.0504 67.1706 80.2526 67.2317 80.4596 67.2325C80.6082 67.2344 80.7555 67.2049 80.892 67.1459C81.0284 67.087 81.151 66.9998 81.2517 66.8902C81.3523 66.7805 81.4288 66.6509 81.4762 66.5096C81.5236 66.3684 81.5407 66.2187 81.5266 66.0703Z" fill="#090D0A"/>
<path d="M84.8938 64.066H85.9652V65.0265H84.9245V68.1885H83.7131V65.0265H83.0659V64.0879H83.7131V63.9037C83.6978 63.6898 83.7295 63.4751 83.806 63.2748C83.8825 63.0745 84.0019 62.8935 84.1558 62.7446C84.3098 62.5957 84.4944 62.4825 84.6967 62.413C84.8991 62.3435 85.1141 62.3194 85.3268 62.3425C85.6511 62.3289 85.9726 62.408 86.2539 62.5705L85.9346 63.4476C85.7934 63.3366 85.6199 63.275 85.4405 63.2722C85.0819 63.2722 84.8895 63.4652 84.8895 63.8818L84.8938 64.066Z" fill="#090D0A"/>
<path d="M90.7843 63.9741V68.1668H89.6342V67.658C89.4693 67.8415 89.2665 67.9868 89.0399 68.0837C88.8134 68.1806 88.5685 68.2269 88.3223 68.2194C87.2728 68.2194 86.5381 67.6273 86.5381 66.3292V63.9609H87.7494V66.1538C87.7494 66.8555 88.0599 67.1669 88.5978 67.1669C89.1357 67.1669 89.5599 66.8072 89.5599 66.0354V63.9741H90.7843Z" fill="#090D0A"/>
<path d="M91.917 62.3945H93.1283V68.1792H91.917V62.3945Z" fill="#090D0A"/>
<path d="M72.1945 70.8325H70.2834V70.3369H74.6827V70.8325H72.7586V75.7927H72.1813L72.1945 70.8325Z" fill="#090D0A"/>
<path d="M75.2512 70.3984C75.2535 70.2933 75.2971 70.1934 75.3724 70.1203C75.4477 70.0472 75.5487 70.0069 75.6535 70.008C75.7052 70.0063 75.7568 70.0148 75.8052 70.033C75.8536 70.0512 75.898 70.0788 75.9357 70.1143C75.9735 70.1497 76.0039 70.1923 76.0253 70.2395C76.0467 70.2867 76.0585 70.3377 76.0602 70.3896C76.0498 70.4899 76.0027 70.5828 75.928 70.6503C75.8533 70.7178 75.7563 70.7552 75.6557 70.7552C75.5552 70.7552 75.4582 70.7178 75.3834 70.6503C75.3087 70.5828 75.2616 70.4899 75.2512 70.3896V70.3984ZM75.3737 71.6921H75.929V75.7927H75.3824L75.3737 71.6921Z" fill="#090D0A"/>
<path d="M81.6098 73.7408C81.6244 74.0152 81.5821 74.2898 81.4855 74.547C81.3889 74.8043 81.2402 75.0386 81.0486 75.2352C80.8571 75.4319 80.627 75.5865 80.3728 75.6893C80.1186 75.7922 79.8459 75.841 79.5719 75.8327C79.2654 75.8431 78.9614 75.7738 78.6894 75.6317C78.4174 75.4895 78.1866 75.2793 78.0195 75.0214V77.3063H77.4685V71.6926H78.0064V72.504C78.1693 72.2349 78.4014 72.0147 78.6784 71.8665C78.9554 71.7184 79.2671 71.6477 79.5807 71.662C79.8529 71.6544 80.1238 71.7033 80.3763 71.8057C80.6288 71.908 80.8575 72.0616 81.048 72.2568C81.2386 72.452 81.3868 72.6846 81.4835 72.9399C81.5801 73.1953 81.6231 73.4679 81.6098 73.7408ZM81.0588 73.7408C81.0451 73.4412 80.9439 73.1523 80.7679 72.9099C80.5919 72.6675 80.3488 72.4823 80.0687 72.3773C79.7887 72.2723 79.4841 72.252 79.1926 72.3191C78.9012 72.3862 78.6359 72.5377 78.4296 72.7547C78.2233 72.9718 78.0851 73.2448 78.0321 73.5399C77.9792 73.835 78.0138 74.1392 78.1318 74.4147C78.2497 74.6903 78.4458 74.925 78.6956 75.0898C78.9454 75.2545 79.238 75.3421 79.537 75.3415C79.7447 75.3455 79.951 75.3064 80.1428 75.2265C80.3347 75.1466 80.508 75.0277 80.6518 74.8773C80.7956 74.7269 80.9068 74.5483 80.9783 74.3527C81.0499 74.1571 81.0802 73.9487 81.0675 73.7408H81.0588Z" fill="#090D0A"/>
<path d="M82.1738 75.3234L82.4187 74.8848C82.8469 75.1793 83.3559 75.3326 83.8749 75.3234C84.6533 75.3234 84.9726 75.0559 84.9726 74.6524C84.9726 73.5823 82.3181 74.4244 82.3181 72.8017C82.3181 72.135 82.8954 71.6351 83.9362 71.6351C84.4443 71.6275 84.9449 71.7594 85.3836 72.0166L85.1431 72.4552C84.786 72.2174 84.3648 72.0949 83.9362 72.1043C83.1971 72.1043 82.8735 72.3938 82.8735 72.7841C82.8735 73.8893 85.5236 73.056 85.5236 74.6305C85.5236 75.341 84.9026 75.8015 83.8356 75.8015C83.2445 75.8282 82.6609 75.6603 82.1738 75.3234Z" fill="#090D0A"/>
<path d="M82.2918 55.2779C82.2916 54.6501 82.1234 54.0338 81.8048 53.4934C81.4862 52.953 81.0289 52.5082 80.4805 52.2055C79.9321 51.9027 79.3128 51.7531 78.6871 51.7721C78.0614 51.7912 77.4522 51.9783 76.9232 52.3139C76.3941 52.6495 75.9646 53.1213 75.6793 53.6802C75.394 54.239 75.2635 54.8643 75.3013 55.491C75.3391 56.1177 75.5439 56.7227 75.8943 57.2429C76.2447 57.7631 76.7279 58.1796 77.2934 58.4487V59.3259H80.3545C80.3545 59.3259 80.3764 58.8303 80.3808 58.3829C80.9526 58.0909 81.4334 57.6468 81.7704 57.0992C82.1075 56.5515 82.2879 55.9214 82.2918 55.2779Z" fill="#36A9E1"/>
<path d="M80.3632 59.9126H77.3021C77.246 59.9162 77.1906 59.8976 77.1481 59.8608C77.1055 59.824 77.0792 59.7719 77.0747 59.7158C77.0792 59.6597 77.1055 59.6076 77.1481 59.5708C77.1906 59.534 77.246 59.5154 77.3021 59.519H80.3632C80.4194 59.5154 80.4747 59.534 80.5173 59.5708C80.5598 59.6076 80.5862 59.6597 80.5906 59.7158C80.5862 59.7719 80.5598 59.824 80.5173 59.8608C80.4747 59.8976 80.4194 59.9162 80.3632 59.9126Z" fill="#090D0A"/>
<path d="M80.127 60.0889H77.5032C77.451 60.0889 77.4009 60.1096 77.364 60.1466C77.3271 60.1836 77.3064 60.2338 77.3064 60.2861C77.3064 60.3385 77.3271 60.3886 77.364 60.4256C77.4009 60.4626 77.451 60.4834 77.5032 60.4834H77.7918L78.1766 61.2155C78.1978 61.2578 78.2303 61.2933 78.2704 61.3181C78.3106 61.3429 78.3569 61.3559 78.404 61.3558H79.318C79.365 61.355 79.4108 61.3415 79.4508 61.3168C79.4908 61.2921 79.5235 61.2572 79.5454 61.2155L79.9171 60.4834H80.1139C80.1661 60.4834 80.2161 60.4626 80.253 60.4256C80.2899 60.3886 80.3107 60.3385 80.3107 60.2861C80.3107 60.2338 80.2899 60.1836 80.253 60.1466C80.2161 60.1096 80.1661 60.0889 80.1139 60.0889H80.127Z" fill="#090D0A"/>
<path d="M79.5105 61.2765C79.4477 61.2633 79.3862 61.2443 79.3269 61.2196C79.1847 61.1797 79.0371 61.162 78.8895 61.1672C78.7406 61.1709 78.5931 61.1974 78.4522 61.2459C78.3946 61.2731 78.3346 61.295 78.2729 61.3115C78.3227 61.2716 78.3789 61.2406 78.4391 61.2196C78.5778 61.1612 78.726 61.1286 78.8764 61.1234C79.0253 61.1197 79.1735 61.1434 79.3137 61.1934C79.3839 61.2087 79.4506 61.2369 79.5105 61.2765Z" fill="#5B998A"/>
<path d="M79.9392 60.4931C79.9392 60.4931 79.4626 60.515 78.8722 60.515C78.2819 60.515 77.8096 60.515 77.8096 60.4931C77.8096 60.4713 78.2862 60.4931 78.8722 60.4931C79.4582 60.4931 79.9392 60.4844 79.9392 60.4931Z" fill="#5B998A"/>
<path d="M79.7554 60.8086C79.6689 60.8247 79.5811 60.8335 79.493 60.8348L78.8677 60.8567C78.6184 60.8567 78.3998 60.8567 78.238 60.8567C78.1506 60.8635 78.0629 60.8635 77.9756 60.8567C78.0627 60.8461 78.1508 60.8461 78.238 60.8567H78.8677H79.493C79.5783 60.8305 79.6664 60.8144 79.7554 60.8086Z" fill="#5B998A"/>
<path d="M88.1734 52.375C87.4645 52.6269 86.7319 52.8061 85.9869 52.9098C85.2617 53.0872 84.5202 53.19 83.7742 53.2167C84.4836 52.9675 85.2161 52.7898 85.9607 52.6863C86.6861 52.5089 87.4274 52.4046 88.1734 52.375Z" fill="#090D0A"/>
<path d="M83.9886 48.2607C83.6961 48.8677 83.3367 49.44 82.9172 49.9668C82.5584 50.5354 82.1375 51.062 81.6621 51.5368C81.9546 50.9298 82.314 50.3576 82.7335 49.8308C83.0922 49.2622 83.5132 48.7356 83.9886 48.2607Z" fill="#090D0A"/>
<path d="M78.4434 45.5986C78.5558 46.3812 78.5939 47.1727 78.5571 47.9625C78.5939 48.7523 78.5558 49.5438 78.4434 50.3264C78.331 49.5438 78.293 48.7523 78.3297 47.9625C78.293 47.1727 78.331 46.3812 78.4434 45.5986Z" fill="#090D0A"/>
<path d="M75.4611 51.2597C75.0828 51.0013 74.7491 50.683 74.4728 50.3172C74.1422 50.0008 73.8659 49.632 73.655 49.2256C74.0351 49.48 74.3692 49.7972 74.6433 50.1637C74.9745 50.4812 75.2509 50.8515 75.4611 51.2597Z" fill="#090D0A"/>
<path d="M74.582 53.5235C73.7705 53.4771 72.9652 53.3538 72.1769 53.1553C71.3735 53.0298 70.5832 52.8317 69.8154 52.5635C70.6272 52.6073 71.4328 52.7306 72.2206 52.9317C73.0241 53.0565 73.8145 53.2546 74.582 53.5235Z" fill="#090D0A"/>
<path d="M74.4204 55.9316C74.0297 56.2003 73.5986 56.4046 73.1435 56.5366C72.7146 56.7356 72.2571 56.8658 71.7878 56.9224C72.1775 56.6556 72.607 56.4529 73.0604 56.3218C73.4912 56.1229 73.9499 55.9913 74.4204 55.9316Z" fill="#090D0A"/>
<path d="M86.0045 56.721C85.5733 56.6841 85.1516 56.5729 84.7582 56.3922C84.3385 56.2819 83.9417 56.0979 83.5862 55.8486C84.4375 55.9959 85.2561 56.2927 86.0045 56.7254V56.721Z" fill="#090D0A"/>
<path d="M77.8533 52.4487C77.8533 52.4838 77.6128 52.5496 77.263 52.7557C76.8067 53.0171 76.434 53.4034 76.1885 53.8693C75.943 54.3353 75.8349 54.8617 75.8767 55.3871C75.9029 55.7906 75.9904 56.0362 75.9554 56.0493C75.8152 55.8624 75.733 55.6381 75.7193 55.4046C75.6318 54.8436 75.7276 54.2692 75.9924 53.7672C76.2572 53.2653 76.6769 52.8628 77.1886 52.6197C77.3879 52.4967 77.6196 52.4371 77.8533 52.4487Z" fill="white"/>
<path d="M78.8809 52.2611C78.8809 52.3223 78.8284 52.3879 78.7409 52.4054C78.6535 52.4229 78.5704 52.3835 78.5616 52.3223C78.5529 52.2611 78.6141 52.1955 78.7016 52.178C78.789 52.1605 78.8546 52.1999 78.8809 52.2611Z" fill="white"/>
<path d="M81.8065 54.6816C81.8876 54.8553 81.9179 55.0484 81.8939 55.2386C81.8821 55.6959 81.7715 56.1452 81.57 56.5555C81.3684 56.9659 81.0806 57.3275 80.7263 57.6157C80.4508 57.8305 80.2497 57.9095 80.2322 57.8876C80.7068 57.4962 81.0928 57.0078 81.3642 56.4549C81.6357 55.9021 81.7865 55.2976 81.8065 54.6816Z" fill="white"/>
<path d="M52.9443 34.1394L51.0333 30.2318C52.2347 26.9491 52.1684 23.3344 50.8474 20.0983C49.5264 16.8621 47.0463 14.2385 43.8945 12.7431C40.7426 11.2476 37.1471 10.9885 33.8144 12.0166C30.4818 13.0448 27.6531 15.2858 25.8843 18.2993C24.1155 21.3128 23.5345 24.8808 24.2556 28.302C24.9766 31.7233 26.9475 34.7503 29.7809 36.7883C32.6143 38.8262 36.1053 39.7276 39.5678 39.3154C43.0302 38.9032 46.2137 37.2071 48.4926 34.5604L52.9443 34.1394Z" fill="white"/>
<path d="M52.9444 34.1394L52.6689 34.1745L51.8249 34.2666L48.497 34.6131C48.4903 34.6143 48.4835 34.6142 48.4769 34.6126C48.4703 34.611 48.4642 34.608 48.4588 34.6039C48.4534 34.5998 48.449 34.5945 48.4458 34.5886C48.4426 34.5826 48.4406 34.576 48.4401 34.5692C48.4401 34.5692 48.4401 34.5692 48.4401 34.5429L48.5232 34.5955C47.0124 36.3663 45.0857 37.7318 42.917 38.5689C42.2408 38.8319 41.5447 39.0402 40.8354 39.1917C40.0723 39.3428 39.2991 39.4367 38.5221 39.4724C34.9078 39.6436 31.3691 38.3961 28.6565 35.9946C27.1329 34.6447 25.9173 32.9813 25.0925 31.1177C24.2147 29.1348 23.8104 26.9739 23.9118 24.8067C24.0004 22.5348 24.6479 20.3201 25.7965 18.3598L26.2338 17.6142L26.7455 16.9169L26.9991 16.5705L27.2834 16.2459L27.8519 15.6056C28.0487 15.4039 28.2629 15.2197 28.4685 15.0223C28.6709 14.825 28.884 14.639 29.1069 14.4653C29.541 14.1139 29.9967 13.7901 30.4713 13.4961C32.2553 12.3625 34.2737 11.652 36.3728 11.4187C38.4719 11.1854 40.5964 11.4354 42.5846 12.1497C46.008 13.3626 48.8294 15.8589 50.4561 19.1141C50.8058 19.8204 51.0983 20.5537 51.3307 21.307C51.5322 22.0069 51.69 22.7188 51.803 23.4384C52.1349 25.7414 51.8837 28.0911 51.0727 30.2713V30.2362C51.6849 31.5124 52.1572 32.4948 52.4765 33.1702L52.8307 33.9157L52.9444 34.1613L52.8088 33.9026C52.7213 33.7272 52.5945 33.464 52.4284 33.157C52.1004 32.4948 51.615 31.53 50.9896 30.2757C50.9866 30.2703 50.9849 30.2643 50.9849 30.2581C50.9849 30.2519 50.9866 30.2459 50.9896 30.2406C51.7718 28.0716 52.0047 25.7418 51.6674 23.4603C51.5492 22.7496 51.3885 22.0467 51.1864 21.3552C50.9488 20.6208 50.6565 19.9054 50.3118 19.215C49.4491 17.4863 48.2349 15.958 46.7472 14.7287C45.2596 13.4994 43.5316 12.5964 41.6747 12.0778C39.8178 11.5593 37.8731 11.4367 35.9661 11.718C34.059 11.9993 32.2319 12.6782 30.6025 13.711C30.1327 13.9991 29.6828 14.3186 29.2556 14.6671C29.0371 14.8364 28.8283 15.0179 28.6303 15.2109C28.4291 15.4039 28.193 15.5881 28.0224 15.7898L27.4627 16.417L27.1872 16.7327L26.9335 17.0748L26.435 17.7634L25.9977 18.4958C24.869 20.4245 24.2321 22.6028 24.1435 24.8374C24.0413 26.9703 24.435 29.0979 25.2936 31.0519C26.1016 32.8928 27.2947 34.5381 28.7921 35.8761C31.4649 38.2494 34.951 39.4913 38.5177 39.3408C39.2845 39.3102 40.0478 39.2192 40.8004 39.0689C41.5033 38.924 42.1935 38.7231 42.8645 38.4681C45.0181 37.6502 46.9365 36.3108 48.4489 34.5692C48.4567 34.5611 48.4671 34.556 48.4783 34.5549C48.4895 34.5537 48.5007 34.5564 48.5101 34.5627C48.5194 34.5689 48.5263 34.5783 48.5295 34.5891C48.5327 34.5999 48.532 34.6115 48.5276 34.6218L48.4795 34.5517L51.7811 34.2666L52.6558 34.1964L52.9444 34.1394Z" fill="#090D0A"/>
<path d="M31.4902 26.3408L33.2919 24.534L36.7729 27.6346L43.6036 21.043L45.2784 22.8542L36.5149 31.1256L31.4902 26.3408Z" fill="#090D0A"/>
</svg>
