<svg width="21" height="20" viewBox="0 0 21 20" fill="none" xmlns="http://www.w3.org/2000/svg">
<g id="home">
<path id="Vector" d="M2.3998 10.9001H3.29979V17.2C3.29979 18.1927 4.10708 19 5.09977 19H15.8997C16.8924 19 17.6996 18.1927 17.6996 17.2V10.9001H18.5996C18.7776 10.9 18.9516 10.8472 19.0995 10.7483C19.2475 10.6495 19.3628 10.5089 19.4309 10.3445C19.499 10.18 19.5169 9.99912 19.4822 9.82456C19.4474 9.65001 19.3618 9.48966 19.2359 9.3638L11.136 1.26388C11.0525 1.18023 10.9533 1.11386 10.8441 1.06859C10.735 1.02331 10.6179 1 10.4997 1C10.3815 1 10.2645 1.02331 10.1553 1.06859C10.0461 1.11386 9.94693 1.18023 9.86343 1.26388L1.76351 9.3638C1.63768 9.48966 1.55199 9.65001 1.51728 9.82456C1.48257 9.99912 1.5004 10.18 1.5685 10.3445C1.6366 10.5089 1.75192 10.6495 1.89989 10.7483C2.04786 10.8472 2.22183 10.9 2.3998 10.9001ZM8.69974 17.2V12.7001H12.2997V17.2H8.69974ZM10.4997 3.17276L15.8997 8.5727V12.7001L15.9006 17.2H14.0997V12.7001C14.0997 11.7074 13.2924 10.9001 12.2997 10.9001H8.69974C7.70705 10.9001 6.89975 11.7074 6.89975 12.7001V17.2H5.09977V8.5727L10.4997 3.17276Z" fill="#2DA13B"/>
</g>
</svg>
