<svg width="10" height="10" viewBox="0 0 10 10" fill="none" xmlns="http://www.w3.org/2000/svg">
<g id="codicon:question">
<path id="Vector" fill-rule="evenodd" clip-rule="evenodd" d="M4.6875 0.625C3.61006 0.625 2.57675 1.05301 1.81488 1.81488C1.05301 2.57675 0.625 3.61006 0.625 4.6875C0.625 5.76494 1.05301 6.79825 1.81488 7.56012C2.57675 8.32199 3.61006 8.75 4.6875 8.75C5.76494 8.75 6.79825 8.32199 7.56012 7.56012C8.32199 6.79825 8.75 5.76494 8.75 4.6875C8.75 3.61006 8.32199 2.57675 7.56012 1.81488C6.79825 1.05301 5.76494 0.625 4.6875 0.625ZM4.6875 8.125C3.77582 8.125 2.90148 7.76284 2.25682 7.11818C1.61216 6.47352 1.25 5.59918 1.25 4.6875C1.25 3.77582 1.61216 2.90148 2.25682 2.25682C2.90148 1.61216 3.77582 1.25 4.6875 1.25C5.59918 1.25 6.47352 1.61216 7.11818 2.25682C7.76284 2.90148 8.125 3.77582 8.125 4.6875C8.125 5.59918 7.76284 6.47352 7.11818 7.11818C6.47352 7.76284 5.59918 8.125 4.6875 8.125ZM5.65625 2.8625C5.54827 2.75006 5.41856 2.66076 5.275 2.6C5.09438 2.52768 4.90071 2.49363 4.70625 2.5C4.5175 2.49657 4.33014 2.53277 4.15625 2.60625C4.00688 2.66875 3.875 2.765 3.76875 2.8875C3.66525 3.00008 3.58459 3.13168 3.53125 3.275C3.48166 3.42059 3.45018 3.57172 3.4375 3.725H4.20625C4.20979 3.6258 4.24138 3.52964 4.29736 3.44767C4.35333 3.3657 4.4314 3.30128 4.5225 3.26187C4.58288 3.23808 4.6477 3.22764 4.7125 3.23125C4.7684 3.22237 4.82535 3.22237 4.88125 3.23125C4.9326 3.25067 4.97941 3.28046 5.01875 3.31875C5.06217 3.35632 5.09638 3.40337 5.11875 3.45625C5.14435 3.5154 5.15713 3.5793 5.15625 3.64375C5.15625 3.75187 5.13313 3.85812 5.0875 3.95625C5.04211 4.05806 4.98551 4.15448 4.91875 4.24375L4.7 4.50625C4.625 4.5875 4.55 4.675 4.48125 4.7625C4.41459 4.8496 4.35798 4.94394 4.3125 5.04375C4.26914 5.14212 4.24781 5.24877 4.25 5.35625V5.76875H5V5.4625C5.00212 5.37083 5.02566 5.28094 5.06875 5.2C5.12012 5.11003 5.17864 5.02433 5.24375 4.94375L5.46875 4.66875C5.55066 4.57412 5.62584 4.47388 5.69375 4.36875C5.76558 4.26155 5.82433 4.14615 5.86875 4.025C5.91433 3.89657 5.93758 3.76128 5.9375 3.625C5.93861 3.48301 5.91753 3.34172 5.875 3.20625C5.8278 3.07719 5.75317 2.95991 5.65625 2.8625ZM4.25 6.14375H4.98125V6.875H4.25V6.14375Z" fill="#090D0A"/>
</g>
</svg>
