<svg width="16" height="16" viewBox="0 0 16 16" fill="none" xmlns="http://www.w3.org/2000/svg">
<g id="language">
<g id="Group">
<path id="Vector" d="M2 7.99994C2 11.3137 4.6862 13.9999 8 13.9999C11.3138 13.9999 14 11.3137 14 7.99994C14 4.68614 11.3138 1.99994 8 1.99994C4.6862 1.99994 2 4.68614 2 7.99994Z" stroke="#858585" stroke-linecap="round" stroke-linejoin="round"/>
<path id="Vector_2" d="M8.59999 2.02991C8.59999 2.02991 10.4 4.39991 10.4 7.99991C10.4 11.5999 8.59999 13.9699 8.59999 13.9699M7.39999 13.9699C7.39999 13.9699 5.59999 11.5999 5.59999 7.99991C5.59999 4.39991 7.39999 2.02991 7.39999 2.02991M2.37799 10.0999H13.622M2.37799 5.89991H13.622" stroke="#858585" stroke-linecap="round" stroke-linejoin="round"/>
</g>
</g>
</svg>
