<svg width="20" height="20" viewBox="0 0 20 20" fill="none" xmlns="http://www.w3.org/2000/svg">
<g clip-path="url(#clip0_327_4209)">
<path d="M20.0002 9.98554C19.9984 9.30716 19.7894 8.64552 19.4011 8.08924C19.0129 7.53297 18.4639 7.10862 17.8277 6.87304L17.796 6.79721C16.9693 4.77507 15.3867 3.15502 13.3844 2.28137L13.1102 2.16137C12.8742 1.52714 12.4498 0.980254 11.8941 0.594096C11.3383 0.207938 10.6778 0.000976562 10.001 0.000976562C9.32431 0.000976562 8.66376 0.207938 8.10801 0.594096C7.55227 0.980254 7.12791 1.52714 6.89188 2.16137L6.54354 2.31804C4.559 3.21941 2.99704 4.84939 2.18104 6.87054C1.54383 7.1027 0.993102 7.52462 0.603084 8.07944C0.213067 8.63426 0.00250699 9.29531 -0.000217366 9.97349C-0.00294172 10.6517 0.202301 11.3144 0.587848 11.8723C0.973395 12.4303 1.52071 12.8566 2.15604 13.0939L2.26271 13.3439C3.09883 15.2846 4.63441 16.8398 6.56437 17.7005L6.89188 17.8472C7.12858 18.4805 7.5531 19.0264 8.1086 19.4119C8.66411 19.7973 9.32409 20.0038 10.0002 20.0038C10.6763 20.0038 11.3363 19.7973 11.8918 19.4119C12.4473 19.0264 12.8718 18.4805 13.1085 17.8472L13.4144 17.7114C15.4332 16.8087 17.0204 15.1542 17.8385 13.0997C18.4725 12.8617 19.019 12.4362 19.4052 11.8798C19.7913 11.3235 19.9989 10.6628 20.0002 9.98554ZM10.0002 1.66637C10.3298 1.66637 10.6521 1.76412 10.9262 1.94726C11.2002 2.13039 11.4139 2.39069 11.54 2.69523C11.6662 2.99978 11.6992 3.33489 11.6349 3.65819C11.5705 3.98149 11.4118 4.27846 11.1787 4.51155C10.9456 4.74464 10.6487 4.90337 10.3254 4.96768C10.0021 5.03199 9.66695 4.99898 9.3624 4.87284C9.05786 4.74669 8.79756 4.53307 8.61443 4.25899C8.43129 3.98491 8.33354 3.66267 8.33354 3.33304C8.33354 2.89101 8.50914 2.46709 8.8217 2.15453C9.13426 1.84197 9.55818 1.66637 10.0002 1.66637ZM3.32354 8.32054L3.39188 8.34637L3.40021 8.32554C3.81779 8.3629 4.20382 8.56334 4.47461 8.88341C4.7454 9.20348 4.87913 9.61738 4.8468 10.0354C4.81448 10.4534 4.6187 10.8418 4.30192 11.1164C3.98514 11.3911 3.57288 11.5298 3.15452 11.5025C2.73616 11.4752 2.34541 11.2841 2.06698 10.9707C1.78855 10.6572 1.64488 10.2467 1.66712 9.82802C1.68936 9.40935 1.87571 9.01633 2.18578 8.73414C2.49585 8.45195 2.90464 8.30335 3.32354 8.32054ZM10.0002 18.333C9.67057 18.333 9.34834 18.2353 9.07426 18.0522C8.80018 17.869 8.58656 17.6087 8.46041 17.3042C8.33426 16.9996 8.30126 16.6645 8.36557 16.3412C8.42987 16.0179 8.58861 15.7209 8.8217 15.4879C9.05478 15.2548 9.35176 15.096 9.67506 15.0317C9.99836 14.9674 10.3335 15.0004 10.638 15.1266C10.9426 15.2527 11.2029 15.4663 11.386 15.7404C11.5691 16.0145 11.6669 16.3367 11.6669 16.6664C11.6669 17.1084 11.4913 17.5323 11.1787 17.8449C10.8662 18.1574 10.4422 18.333 10.0002 18.333ZM13.2444 15.928C13.0785 15.1914 12.6669 14.5331 12.0772 14.0615C11.4875 13.5898 10.7549 13.3329 9.99979 13.3329C9.24469 13.3329 8.51207 13.5898 7.9224 14.0615C7.33272 14.5331 6.92109 15.1914 6.75521 15.928C5.61737 15.3071 4.68257 14.3715 4.06271 13.233C4.79705 13.0671 5.45337 12.657 5.92436 12.0696C6.39534 11.4823 6.65312 10.7525 6.65554 9.99967C6.65796 9.24682 6.40487 8.51542 5.93768 7.92507C5.47048 7.33472 4.8168 6.92035 4.08354 6.74971C4.70569 5.62732 5.63166 4.70308 6.75521 4.08304C6.92179 4.81887 7.3336 5.4762 7.92304 5.94711C8.51248 6.41802 9.24451 6.67453 9.99896 6.67453C10.7534 6.67453 11.4854 6.41802 12.0749 5.94711C12.6643 5.4762 13.0761 4.81887 13.2427 4.08304C14.3654 4.70239 15.2919 5.62426 15.9169 6.74387C15.1814 6.91187 14.5248 7.32494 14.055 7.91529C13.5853 8.50563 13.3302 9.23816 13.3316 9.99262C13.3331 10.7471 13.591 11.4786 14.063 12.0671C14.5351 12.6557 15.1932 13.0662 15.9294 13.2314C15.3075 14.3662 14.3765 15.3013 13.2444 15.928ZM16.6669 11.6522C16.3372 11.6522 16.015 11.5545 15.7409 11.3713C15.4668 11.1882 15.2532 10.9279 15.1271 10.6233C15.0009 10.3188 14.9679 9.98369 15.0322 9.66039C15.0965 9.33709 15.2553 9.04012 15.4884 8.80703C15.7215 8.57394 16.0184 8.41521 16.3417 8.3509C16.665 8.28659 17.0001 8.31959 17.3047 8.44574C17.6092 8.57189 17.8695 8.78551 18.0527 9.05959C18.2358 9.33367 18.3335 9.6559 18.3335 9.98554C18.3335 10.4276 18.1579 10.8515 17.8454 11.1641C17.5328 11.4766 17.1089 11.6522 16.6669 11.6522Z" fill="#5B998A"/>
</g>
<defs>
<clipPath id="clip0_327_4209">
<rect width="20" height="20" fill="white"/>
</clipPath>
</defs>
</svg>
