<svg width="16" height="16" viewBox="0 0 16 16" fill="none" xmlns="http://www.w3.org/2000/svg">
<g id="like">
<path id="Vector" d="M13.8422 8.33907C14.1047 7.99219 14.25 7.56719 14.25 7.125C14.25 6.42344 13.8578 5.75938 13.2266 5.38906C13.0641 5.29374 12.879 5.24358 12.6906 5.24375H8.94375L9.0375 3.32344C9.05938 2.85938 8.89531 2.41875 8.57656 2.08281C8.42013 1.91723 8.23141 1.78549 8.02206 1.69573C7.8127 1.60597 7.58716 1.56009 7.35938 1.56094C6.54688 1.56094 5.82812 2.10781 5.6125 2.89063L4.27031 7.75H2.25C1.97344 7.75 1.75 7.97344 1.75 8.25V13.9375C1.75 14.2141 1.97344 14.4375 2.25 14.4375H11.6453C11.7891 14.4375 11.9297 14.4094 12.0594 14.3531C12.8031 14.0359 13.2828 13.3094 13.2828 12.5031C13.2828 12.3063 13.2547 12.1125 13.1984 11.925C13.4609 11.5781 13.6062 11.1531 13.6062 10.7109C13.6062 10.5141 13.5781 10.3203 13.5219 10.1328C13.7844 9.78594 13.9297 9.36094 13.9297 8.91875C13.9266 8.72188 13.8984 8.52657 13.8422 8.33907ZM2.875 13.3125V8.875H4.14062V13.3125H2.875ZM12.8188 7.79688L12.4766 8.09375L12.6938 8.49063C12.7653 8.62136 12.8024 8.76816 12.8016 8.91719C12.8016 9.175 12.6891 9.42031 12.4953 9.58906L12.1531 9.88594L12.3703 10.2828C12.4419 10.4135 12.479 10.5603 12.4781 10.7094C12.4781 10.9672 12.3656 11.2125 12.1719 11.3813L11.8297 11.6781L12.0469 12.075C12.1184 12.2057 12.1555 12.3525 12.1547 12.5016C12.1547 12.8516 11.9484 13.1672 11.6297 13.3109H5.14062V8.825L6.69531 3.19219C6.7354 3.04782 6.82146 2.92044 6.94044 2.82937C7.05943 2.7383 7.20485 2.6885 7.35469 2.6875C7.47344 2.6875 7.59062 2.72188 7.68437 2.79219C7.83906 2.90781 7.92188 3.08281 7.9125 3.26875L7.7625 6.36875H12.675C12.9531 6.53906 13.125 6.82656 13.125 7.125C13.125 7.38281 13.0125 7.62656 12.8188 7.79688Z" fill="#858585"/>
</g>
</svg>
