<svg width="20" height="20" viewBox="0 0 20 20" fill="none" xmlns="http://www.w3.org/2000/svg">
<path d="M16.9531 14.2969H15.5801C15.4863 14.2969 15.3984 14.3379 15.3399 14.4102C15.2031 14.5762 15.0566 14.7364 14.9024 14.8887C14.2713 15.5204 13.5238 16.0238 12.7012 16.3711C11.8489 16.7311 10.933 16.9157 10.0078 16.9141C9.07227 16.9141 8.16602 16.7305 7.31446 16.3711C6.49186 16.0238 5.74436 15.5204 5.11329 14.8887C4.48109 14.2591 3.97699 13.5129 3.62891 12.6914C3.26759 11.8399 3.08594 10.9356 3.08594 10C3.08594 9.06448 3.26954 8.16019 3.62891 7.30862C3.97657 6.48636 4.47657 5.74612 5.11329 5.11136C5.75001 4.47659 6.49024 3.97659 7.31446 3.62894C8.16602 3.26956 9.07227 3.08597 10.0078 3.08597C10.9434 3.08597 11.8496 3.26761 12.7012 3.62894C13.5254 3.97659 14.2656 4.47659 14.9024 5.11136C15.0566 5.26565 15.2012 5.42581 15.3399 5.58987C15.3984 5.66214 15.4883 5.70315 15.5801 5.70315H16.9531C17.0762 5.70315 17.1524 5.56644 17.084 5.46292C15.5859 3.1348 12.9649 1.59378 9.98634 1.60159C5.30665 1.61331 1.55469 5.41214 1.60157 10.086C1.64844 14.6856 5.39454 18.3985 10.0078 18.3985C12.9785 18.3985 15.5879 16.8594 17.084 14.5371C17.1504 14.4336 17.0762 14.2969 16.9531 14.2969ZM18.6895 9.87698L15.918 7.68948C15.8145 7.60745 15.6641 7.68167 15.6641 7.81253V9.2969H9.53126C9.44532 9.2969 9.37501 9.36722 9.37501 9.45315V10.5469C9.37501 10.6328 9.44532 10.7032 9.53126 10.7032H15.6641V12.1875C15.6641 12.3184 15.8164 12.3926 15.918 12.3106L18.6895 10.1231C18.7081 10.1085 18.7232 10.0898 18.7336 10.0685C18.744 10.0471 18.7494 10.0237 18.7494 10C18.7494 9.97632 18.744 9.95291 18.7336 9.93159C18.7232 9.91027 18.7081 9.8916 18.6895 9.87698Z" fill="#5B998A"/>
</svg>
