<svg width="40" height="24" viewBox="0 0 40 24" fill="none" xmlns="http://www.w3.org/2000/svg">
<g id="Mastercard">
<path id="Left" fill-rule="evenodd" clip-rule="evenodd" d="M19.5568 21.1334C17.4854 22.9209 14.7984 24 11.8623 24C5.31093 24 0 18.6274 0 12C0 5.37258 5.31093 0 11.8623 0C14.7984 0 17.4854 1.0791 19.5568 2.86664C21.6282 1.0791 24.3151 0 27.2512 0C33.8026 0 39.1135 5.37258 39.1135 12C39.1135 18.6274 33.8026 24 27.2512 24C24.3151 24 21.6282 22.9209 19.5568 21.1334Z" fill="#ED0006"/>
<path id="Right" fill-rule="evenodd" clip-rule="evenodd" d="M19.5566 21.1334C22.1072 18.9323 23.7245 15.6572 23.7245 12C23.7245 8.34277 22.1072 5.06766 19.5566 2.86664C21.628 1.0791 24.315 0 27.2511 0C33.8025 0 39.1134 5.37258 39.1134 12C39.1134 18.6274 33.8025 24 27.2511 24C24.315 24 21.628 22.9209 19.5566 21.1334Z" fill="#F9A000"/>
<path id="Middle" fill-rule="evenodd" clip-rule="evenodd" d="M19.5567 21.1333C22.1072 18.9323 23.7245 15.6572 23.7245 12C23.7245 8.34278 22.1072 5.06769 19.5567 2.86667C17.0062 5.06769 15.3889 8.34278 15.3889 12C15.3889 15.6572 17.0062 18.9323 19.5567 21.1333Z" fill="#FF5E00"/>
</g>
</svg>
