<svg width="20" height="20" viewBox="0 0 20 20" fill="none" xmlns="http://www.w3.org/2000/svg">
<path d="M9.06871 1C10.785 1.00011 12.4426 1.62453 13.7323 2.75678C15.0221 3.88903 15.856 5.4518 16.0784 7.15358L18.0663 10.2803C18.197 10.4861 18.1705 10.7927 17.8675 10.9235L16.1367 11.6638V14.2525C16.1367 14.7211 15.9505 15.1706 15.6192 15.502C15.2878 15.8333 14.8383 16.0195 14.3697 16.0195H12.6036L12.6027 18.67H4.65121V15.4064C4.65121 14.3638 4.26601 13.377 3.55126 12.4864C2.71874 11.4469 2.19683 10.1934 2.04568 8.87021C1.89452 7.54705 2.12027 6.20811 2.6969 5.00766C3.27354 3.8072 4.1776 2.79409 5.30492 2.08504C6.43224 1.37599 7.73695 0.999866 9.06871 1ZM9.06871 2.767C8.06999 2.76696 7.09157 3.04905 6.24616 3.58079C5.40076 4.11253 4.72276 4.87227 4.29028 5.7725C3.8578 6.67273 3.68843 7.67682 3.80168 8.66911C3.91493 9.66139 4.3062 10.6015 4.9304 11.3811C5.89695 12.5862 6.41821 13.9583 6.41821 15.4064V16.903H10.8357L10.8375 14.2525H14.3697V10.4994L15.7391 9.91275L14.3759 7.77026L14.3255 7.37975C14.1583 6.1039 13.5327 4.93241 12.5655 4.08371C11.5983 3.23501 10.3555 2.76702 9.06871 2.767ZM8.60046 6.09161L9.06871 6.55987L9.53697 6.09161C9.82851 5.80991 10.219 5.65399 10.6244 5.65743C11.0298 5.66087 11.4176 5.8234 11.7044 6.11C11.9911 6.39661 12.1538 6.78437 12.1574 7.18976C12.161 7.59514 12.0052 7.98573 11.7236 8.27739L9.06871 10.9332L6.41379 8.27739C6.26615 8.13474 6.1484 7.9641 6.06741 7.77545C5.98642 7.5868 5.94381 7.38391 5.94206 7.17862C5.94032 6.97333 5.97948 6.76974 6.05726 6.57974C6.13504 6.38975 6.24988 6.21714 6.39508 6.072C6.54028 5.92686 6.71293 5.81209 6.90296 5.73439C7.09299 5.65669 7.29659 5.61761 7.50188 5.61943C7.70717 5.62126 7.91004 5.66395 8.09866 5.74502C8.28728 5.82609 8.45786 5.94391 8.60046 6.09161Z" fill="#5B998A"/>
</svg>
