<svg width="24" height="24" viewBox="0 0 24 24" fill="none" xmlns="http://www.w3.org/2000/svg">
<path d="M12 3C16.8078 3 21 6.969 21 11.55C21 16.0536 16.9023 19.5978 12 19.5978C10.9515 19.5984 9.90952 19.4325 8.913 19.1064C8.4954 19.5114 8.3523 19.6491 7.4658 20.5041C6.8268 20.9865 6.2256 21.1503 5.6883 20.8461C5.1465 20.5401 4.9836 19.9443 5.0943 19.1595L5.4543 17.0724C3.891 15.6018 3 13.6578 3 11.55C3 6.969 7.1913 3 12 3ZM12 4.26C7.8726 4.26 4.26 7.68 4.26 11.55C4.26 13.3905 5.0808 15.0852 6.528 16.347L6.546 16.3623L6.8133 16.5945L6.753 16.9455L6.6288 17.6691L6.5955 17.8617L6.339 19.3539C6.32387 19.4544 6.31486 19.5557 6.312 19.6572V19.7427C6.312 19.7472 6.3111 19.749 6.3102 19.7499C6.3165 19.7409 6.4389 19.7022 6.6486 19.5492L8.6016 17.6538L8.9742 17.7942C9.94208 18.1553 10.9669 18.3398 12 18.3387C16.2444 18.3387 19.74 15.3147 19.74 11.55C19.74 7.6809 16.1274 4.26 12 4.26ZM7.7043 10.0317C7.88561 10.0251 8.0664 10.0551 8.23586 10.1199C8.40532 10.1847 8.55998 10.283 8.69059 10.4089C8.82121 10.5349 8.9251 10.6858 8.99606 10.8528C9.06701 11.0198 9.10359 11.1994 9.10359 11.3808C9.10359 11.5622 9.06701 11.7418 8.99606 11.9088C8.9251 12.0758 8.82121 12.2267 8.69059 12.3527C8.55998 12.4786 8.40532 12.5769 8.23586 12.6417C8.0664 12.7065 7.88561 12.7365 7.7043 12.7299C7.35502 12.7171 7.02431 12.5694 6.78172 12.3178C6.53914 12.0662 6.40359 11.7303 6.40359 11.3808C6.40359 11.0313 6.53914 10.6954 6.78172 10.4438C7.02431 10.1922 7.35502 10.0445 7.7043 10.0317ZM12.2025 10.0317C12.3838 10.0251 12.5646 10.0551 12.7341 10.1199C12.9035 10.1847 13.0582 10.283 13.1888 10.4089C13.3194 10.5349 13.4233 10.6858 13.4943 10.8528C13.5652 11.0198 13.6018 11.1994 13.6018 11.3808C13.6018 11.5622 13.5652 11.7418 13.4943 11.9088C13.4233 12.0758 13.3194 12.2267 13.1888 12.3527C13.0582 12.4786 12.9035 12.5769 12.7341 12.6417C12.5646 12.7065 12.3838 12.7365 12.2025 12.7299C11.8532 12.7171 11.5225 12.5694 11.2799 12.3178C11.0373 12.0662 10.9018 11.7303 10.9018 11.3808C10.9018 11.0313 11.0373 10.6954 11.2799 10.4438C11.5225 10.1922 11.8532 10.0445 12.2025 10.0317ZM16.6998 10.0317C16.8811 10.0251 17.0619 10.0551 17.2314 10.1199C17.4008 10.1847 17.5555 10.283 17.6861 10.4089C17.8167 10.5349 17.9206 10.6858 17.9916 10.8528C18.0625 11.0198 18.0991 11.1994 18.0991 11.3808C18.0991 11.5622 18.0625 11.7418 17.9916 11.9088C17.9206 12.0758 17.8167 12.2267 17.6861 12.3527C17.5555 12.4786 17.4008 12.5769 17.2314 12.6417C17.0619 12.7065 16.8811 12.7365 16.6998 12.7299C16.3505 12.7171 16.0198 12.5694 15.7772 12.3178C15.5346 12.0662 15.3991 11.7303 15.3991 11.3808C15.3991 11.0313 15.5346 10.6954 15.7772 10.4438C16.0198 10.1922 16.3505 10.0445 16.6998 10.0317Z" fill="#2DA13B"/>
</svg>
