<svg width="24" height="24" viewBox="0 0 24 24" fill="none" xmlns="http://www.w3.org/2000/svg">
<g opacity="0.7" clip-path="url(#clip0_143_36744)">
<path d="M7.84001 22.5301C7.61187 22.345 7.4273 22.112 7.2994 21.8476C7.17151 21.5831 7.10343 21.2938 7.10001 21.0001V18.9001H5.50001C5.04822 18.9199 4.59725 18.8456 4.17576 18.6817C3.75426 18.5179 3.37146 18.2681 3.05169 17.9484C2.73193 17.6286 2.48219 17.2458 2.31835 16.8243C2.15451 16.4028 2.08015 15.9519 2.10001 15.5001V6.50007C2.08015 6.04829 2.15451 5.59731 2.31835 5.17582C2.48219 4.75432 2.73193 4.37152 3.05169 4.05176C3.37146 3.73199 3.75426 3.48225 4.17576 3.31841C4.59725 3.15457 5.04822 3.08021 5.50001 3.10007H18.5C18.9518 3.08021 19.4028 3.15457 19.8243 3.31841C20.2458 3.48225 20.6286 3.73199 20.9483 4.05176C21.2681 4.37152 21.5178 4.75432 21.6817 5.17582C21.8455 5.59731 21.9199 6.04829 21.9 6.50007V15.5001C21.9199 15.9519 21.8455 16.4028 21.6817 16.8243C21.5178 17.2458 21.2681 17.6286 20.9483 17.9484C20.6286 18.2681 20.2458 18.5179 19.8243 18.6817C19.4028 18.8456 18.9518 18.9199 18.5 18.9001H13.84L10.12 22.1601C9.85787 22.4996 9.47646 22.7267 9.05308 22.7954C8.62971 22.8641 8.19605 22.7692 7.84001 22.5301ZM12.77 17.4401C13.0242 17.2159 13.3511 17.0915 13.69 17.0901H18.5C18.7151 17.1101 18.932 17.0825 19.1352 17.0092C19.3385 16.9358 19.523 16.8186 19.6758 16.6659C19.8286 16.5131 19.9458 16.3285 20.0191 16.1253C20.0924 15.9221 20.12 15.7052 20.1 15.4901V6.49007C20.12 6.27495 20.0924 6.05807 20.0191 5.85484C19.9458 5.65162 19.8286 5.46705 19.6758 5.31429C19.523 5.16152 19.3385 5.0443 19.1352 4.97098C18.932 4.89766 18.7151 4.87003 18.5 4.89007H5.50001C5.28397 4.8698 5.06613 4.89761 4.86211 4.9715C4.6581 5.04539 4.47297 5.16353 4.32002 5.31744C4.16706 5.47135 4.05008 5.65721 3.97746 5.86168C3.90484 6.06615 3.87839 6.28416 3.90001 6.50007V15.5001C3.87997 15.7152 3.9076 15.9321 3.98092 16.1353C4.05424 16.3385 4.17146 16.5231 4.32422 16.6759C4.47699 16.8286 4.66156 16.9458 4.86478 17.0192C5.068 17.0925 5.28489 17.1201 5.50001 17.1001H8.00001C8.70001 17.3001 8.70001 17.3001 8.90001 18.0001V20.8301L12.77 17.4401Z" fill="#858585"/>
</g>
<defs>
<clipPath id="clip0_143_36744">
<rect width="24" height="24" fill="white"/>
</clipPath>
</defs>
</svg>
