<svg width="22" height="26" viewBox="0 0 22 26" fill="none" xmlns="http://www.w3.org/2000/svg">
<rect x="8" y="17" width="6" height="8" rx="3" fill="#FEFEFE" stroke="#858585" stroke-width="2"/>
<path d="M1.56403 18.0218L2.27113 18.7289L1.56403 18.0218C1.20317 18.3826 1 18.8724 1 19.3832C1 20.2761 1.72386 21 2.61678 21H19.3832C20.2761 21 21 20.2761 21 19.3832C21 18.8724 20.7968 18.3826 20.436 18.0218C18.8771 16.4629 18 14.3471 18 12.1431V9.31455C18 6.34094 15.9094 3.77907 13 3.1803V3C13 1.89543 12.1046 1 11 1C9.89543 1 9 1.89543 9 3V3.1803C6.0906 3.77907 4 6.34094 4 9.31455V12.1431C4 14.3471 3.12292 16.4629 1.56403 18.0218Z" fill="#FEFEFE" stroke="#858585" stroke-width="2"/>
</svg>
