<svg width="24" height="24" viewBox="0 0 24 24" fill="none" xmlns="http://www.w3.org/2000/svg">
<path id="Vector" d="M2.12751 2.39257C3.42315 0.934971 5.16105 0.0823023 6.99248 0.00565362C8.82391 -0.0709951 10.6134 0.634048 12.0018 1.97931C13.3888 0.636126 15.1758 -0.0683427 17.005 0.00693658C18.8343 0.0822159 20.5707 0.931688 21.8667 2.38529C23.1627 3.83889 23.9227 5.78934 23.9944 7.84615C24.0662 9.90297 23.4444 11.9144 22.2536 13.4776L13.5801 23.2639C13.1816 23.7122 12.6471 23.9745 12.0839 23.9982C11.5206 24.022 10.9702 23.8054 10.543 23.392L10.4201 23.2639L1.74773 13.4789C0.557235 11.9169 -0.0650279 9.90708 0.00538469 7.8514C0.0757972 5.79572 0.833695 3.84696 2.12751 2.39257ZM3.70694 4.16743C2.79319 5.19496 2.26644 6.57876 2.23607 8.03152C2.2057 9.48428 2.67405 10.8944 3.54386 11.9691L3.70694 12.1612L12.0007 21.4878L17.9241 14.8254L13.9755 10.3851L12.7915 11.7166C12.4804 12.0666 12.111 12.3443 11.7044 12.5338C11.2979 12.7233 10.8621 12.8209 10.422 12.821C9.53319 12.8212 8.6807 12.4244 8.05206 11.7178C7.42343 11.0113 7.07015 10.0528 7.06994 9.05328C7.06973 8.05379 7.42261 7.09513 8.05095 6.38821L10.3989 3.74789C9.4646 2.90912 8.29512 2.47218 7.10024 2.51546C5.90536 2.55873 4.7633 3.0794 3.87896 3.98404L3.70694 4.16743ZM13.1858 7.72093C13.3953 7.48545 13.6793 7.35316 13.9755 7.35316C14.2717 7.35316 14.5558 7.48545 14.7652 7.72093L19.5035 13.0493L20.2944 12.1612C21.2231 11.1176 21.7518 9.70672 21.7675 8.23036C21.7832 6.754 21.2845 5.32934 20.3782 4.26108C19.4718 3.19282 18.2298 2.56574 16.9176 2.51397C15.6055 2.4622 14.3274 2.98984 13.3567 3.98404L13.1858 4.16743L9.6315 8.16434C9.43789 8.38191 9.32206 8.67185 9.306 8.97912C9.28994 9.28639 9.37477 9.58959 9.54437 9.83118L9.6315 9.94171C9.82512 10.1592 10.083 10.2893 10.3563 10.3071C10.6295 10.3249 10.8991 10.2293 11.1138 10.0384L11.2109 9.94171L13.1858 7.72093Z" fill="#006633"/>
</svg>
