<svg width="30" height="29" viewBox="0 0 30 29" fill="none" xmlns="http://www.w3.org/2000/svg">
<g id="Group 2">
<g id="Group 1">
<rect id="Rectangle 26" x="8" y="20" width="6" height="8" rx="3" fill="#FEFEFE" stroke="#858585" stroke-width="2"/>
<path id="Union" d="M1.56403 21.0218L2.27113 21.7289L1.56403 21.0218C1.20317 21.3826 1 21.8724 1 22.3832C1 23.2761 1.72386 24 2.61678 24H19.3832C20.2761 24 21 23.2761 21 22.3832C21 21.8724 20.7968 21.3826 20.436 21.0218C18.8771 19.4629 18 17.3471 18 15.1431V12.3146C18 9.34094 15.9094 6.77907 13 6.1803V6C13 4.89543 12.1046 4 11 4C9.89543 4 9 4.89543 9 6V6.1803C6.0906 6.77907 4 9.34094 4 12.3146V15.1431C4 17.3471 3.12292 19.4629 1.56403 21.0218Z" fill="#FEFEFE" stroke="#858585" stroke-width="2"/>
</g>
<circle id="Ellipse 2" cx="21.5" cy="8.5" r="7.5" fill="#2DA13B" stroke="#FEFEFE" stroke-width="2"/>
</g>
</svg>
