<svg width="17" height="16" viewBox="0 0 17 16" fill="none" xmlns="http://www.w3.org/2000/svg">
<g id="period">
<path id="Vector" d="M11.72 4.7456V3.3368C11.72 2.8634 10.2152 2 8.36 2C6.5042 2 5 2.8634 5 3.3368V4.7456C5 6.0302 7.3262 7.0904 7.3262 8C7.3262 8.9084 5 9.9686 5 11.2532V12.6632C5 13.136 6.5042 14 8.36 14C10.2152 14 11.72 13.136 11.72 12.6626V11.2526C11.72 9.968 9.3938 8.9078 9.3938 7.9994C9.3938 7.0904 11.72 6.0302 11.72 4.7456ZM5.9246 3.3968C6.3422 3.1334 7.1246 2.7476 8.393 2.7476C9.6608 2.7476 10.7966 3.3968 10.7966 3.3968C10.8818 3.4484 11.2154 3.6266 10.9868 3.7622C10.484 4.0604 9.5 4.3742 8.36 4.3742C7.22 4.3742 6.2696 4.0286 5.7656 3.7298C5.537 3.5948 5.9246 3.3968 5.9246 3.3968ZM8.6606 8C8.6606 8.7158 9.2582 9.1766 9.8912 9.7916C10.3538 10.2404 10.9868 10.8554 10.9868 11.2526V12.0494C10.4048 11.7596 8.6636 11.4764 8.6636 10.547C8.6636 10.0772 8.0558 10.0772 8.0558 10.547C8.0558 11.4764 6.3146 11.7596 5.7326 12.0494V11.2526C5.7326 10.8554 6.3662 10.2398 6.8282 9.7916C7.4612 9.1766 8.0588 8.7158 8.0588 8C8.0588 7.2842 7.4612 6.8234 6.8282 6.2084C6.3656 5.7584 5.7326 5.1434 5.7326 4.7456L5.705 4.1468C6.3206 4.4786 7.2962 4.7936 8.36 4.7936C9.4232 4.7936 10.4036 4.4786 11.0198 4.1468L10.9868 4.7456C10.9868 5.1428 10.3532 5.7584 9.8912 6.2084C9.2588 6.8234 8.6606 7.2842 8.6606 8Z" fill="#006633"/>
</g>
</svg>
