<svg width="16" height="16" viewBox="0 0 16 16" fill="none" xmlns="http://www.w3.org/2000/svg">
<g id="session">
<path id="Vector" d="M11.5 3H4.5C3.1215 3 2 4.1215 2 5.5V9.5C2 10.8785 3.1215 12 4.5 12H11.5C12.8785 12 14 10.8785 14 9.5V5.5C14 4.1215 12.8785 3 11.5 3ZM6.5 11H5V9.75C5 9.3365 5.3365 9 5.75 9C6.1635 9 6.5 9.3365 6.5 9.75V11ZM11 11H9.5V9.75C9.5 9.3365 9.8365 9 10.25 9C10.6635 9 11 9.3365 11 9.75V11ZM13 9.5C13 10.152 12.582 10.7075 12 10.914V9.75C12 8.785 11.215 8 10.25 8C9.285 8 8.5 8.785 8.5 9.75V11H7.5V9.75C7.5 8.785 6.715 8 5.75 8C4.785 8 4 8.785 4 9.75V10.914C3.418 10.7075 3 10.152 3 9.5V5.5C3 4.673 3.673 4 4.5 4H11.5C12.327 4 13 4.673 13 5.5V9.5ZM7 6.25C7 6.9405 6.4405 7.5 5.75 7.5C5.0595 7.5 4.5 6.9405 4.5 6.25C4.5 5.5595 5.0595 5 5.75 5C6.4405 5 7 5.5595 7 6.25ZM11.5 6.25C11.5 6.9405 10.9405 7.5 10.25 7.5C9.5595 7.5 9 6.9405 9 6.25C9 5.5595 9.5595 5 10.25 5C10.9405 5 11.5 5.5595 11.5 6.25ZM4.251 1.3385L5.476 0.1135C5.6275 -0.0375 5.8725 -0.0375 6.024 0.1135L7.2495 1.339C7.4935 1.583 7.3205 2.0005 6.9755 2.0005H4.525C4.18 2.0005 4.007 1.583 4.251 1.3385ZM8.751 0.661C8.507 0.417 8.68 0 9.025 0H11.4755C11.8205 0 11.9935 0.417 11.7495 0.661L10.524 1.8865C10.3725 2.038 10.1275 2.038 9.976 1.8865L8.751 0.661Z" fill="#ABABAB"/>
</g>
</svg>
