<svg width="16" height="16" viewBox="0 0 16 16" fill="none" xmlns="http://www.w3.org/2000/svg">
<g id="eva:pricetags-outline" clip-path="url(#clip0_91_3224)">
<g id="evaPricetagsOutline0">
<g id="evaPricetagsOutline1">
<g id="evaPricetagsOutline2">
<path id="Vector" d="M7.42005 12.0028C7.74197 12.0024 8.05085 11.8755 8.28005 11.6495L12.5534 7.36947C12.663 7.26044 12.7314 7.11668 12.7467 6.9628L13.3334 0.729469C13.3424 0.631823 13.3297 0.533399 13.2963 0.441212C13.2629 0.349024 13.2095 0.265344 13.14 0.196135C13.0708 0.12667 12.9872 0.0733273 12.895 0.0399094C12.8028 0.00649152 12.7044 -0.00617872 12.6067 0.00280197L6.37338 0.589469C6.2195 0.604798 6.07574 0.673144 5.96671 0.782802L1.68671 5.05614C1.45996 5.28357 1.33262 5.59164 1.33262 5.9128C1.33262 6.23397 1.45996 6.54203 1.68671 6.76947L6.56671 11.6495C6.79346 11.8751 7.10014 12.0021 7.42005 12.0028ZM11.42 6.59614L7.42005 10.5961L2.72005 5.89614L6.72005 1.89614L11.9267 1.40947L11.42 6.59614Z" fill="#ABABAB"/>
<path id="Vector_2" d="M9 5.33612C8.44772 5.33612 8 4.88841 8 4.33612C8 3.78384 8.44772 3.33612 9 3.33612C9.55228 3.33612 10 3.78384 10 4.33612C10 4.88841 9.55228 5.33612 9 5.33612Z" fill="#ABABAB"/>
</g>
</g>
</g>
</g>
<defs>
<clipPath id="clip0_91_3224">
<rect width="16" height="16" fill="white" transform="matrix(-1 0 0 1 16 0)"/>
</clipPath>
</defs>
</svg>
