<svg width="20" height="20" viewBox="0 0 20 20" fill="none" xmlns="http://www.w3.org/2000/svg">
<g id="profile">
<g id="Group">
<path id="Vector" fill-rule="evenodd" clip-rule="evenodd" d="M13 7.00004C13 7.95482 12.6208 8.87049 11.9456 9.54562C11.2705 10.2208 10.3548 10.6 9.40005 10.6C8.44527 10.6 7.5296 10.2208 6.85446 9.54562C6.17933 8.87049 5.80005 7.95482 5.80005 7.00004C5.80005 6.04526 6.17933 5.12959 6.85446 4.45446C7.5296 3.77932 8.44527 3.40004 9.40005 3.40004C10.3548 3.40004 11.2705 3.77932 11.9456 4.45446C12.6208 5.12959 13 6.04526 13 7.00004ZM11.2 7.00004C11.2 7.47743 11.0104 7.93527 10.6728 8.27283C10.3353 8.6104 9.87744 8.80004 9.40005 8.80004C8.92266 8.80004 8.46482 8.6104 8.12726 8.27283C7.78969 7.93527 7.60005 7.47743 7.60005 7.00004C7.60005 6.52265 7.78969 6.06481 8.12726 5.72725C8.46482 5.38968 8.92266 5.20004 9.40005 5.20004C9.87744 5.20004 10.3353 5.38968 10.6728 5.72725C11.0104 6.06481 11.2 6.52265 11.2 7.00004Z" fill="#ABABAB"/>
<path id="Vector_2" fill-rule="evenodd" clip-rule="evenodd" d="M9.5 1.00011C4.52955 1.00011 0.5 5.02965 0.5 10.0001C0.5 14.9706 4.52955 19.0001 9.5 19.0001C14.4705 19.0001 18.5 14.9706 18.5 10.0001C18.5 5.02965 14.4705 1.00011 9.5 1.00011ZM2.13636 10.0001C2.13636 11.7101 2.71973 13.2843 3.69745 14.5345C4.3841 13.6328 5.26992 12.902 6.28572 12.3993C7.30152 11.8966 8.41979 11.6355 9.55318 11.6365C10.6719 11.6354 11.7761 11.8897 12.7817 12.38C13.7872 12.8703 14.6676 13.5837 15.3557 14.4657C16.0646 13.536 16.542 12.4507 16.7482 11.2999C16.9544 10.149 16.8836 8.96554 16.5417 7.84746C16.1997 6.72937 15.5965 5.70878 14.7818 4.87014C13.9671 4.03149 12.9644 3.3989 11.8567 3.0247C10.749 2.65051 9.56807 2.54547 8.4117 2.71827C7.25534 2.89107 6.15674 3.33675 5.20681 4.01842C4.25688 4.7001 3.48294 5.59818 2.94901 6.63836C2.41508 7.67853 2.13651 8.8309 2.13636 10.0001ZM9.5 17.3637C7.8096 17.3663 6.17022 16.7848 4.85927 15.7176C5.38694 14.9622 6.08928 14.3454 6.90652 13.9198C7.72377 13.4941 8.63174 13.2722 9.55318 13.2728C10.4631 13.2721 11.3601 13.4885 12.1697 13.904C12.9792 14.3195 13.6779 14.9222 14.2078 15.6619C12.8867 16.7638 11.2203 17.3662 9.5 17.3637Z" fill="#ABABAB"/>
</g>
</g>
</svg>
