<svg width="40" height="40" viewBox="0 0 40 40" fill="none" xmlns="http://www.w3.org/2000/svg">
<path d="M31.2857 6.21484H8.78571C7.45962 6.21484 6.18785 6.74163 5.25017 7.67931C4.31249 8.61699 3.78571 9.88876 3.78571 11.2148V23.7148C3.78571 25.0409 4.31249 26.3127 5.25017 27.2504C6.18785 28.1881 7.45962 28.7148 8.78571 28.7148H22.5357L30.0357 33.7148V28.7148H31.2857C32.6118 28.7148 33.8836 28.1881 34.8212 27.2504C35.7589 26.3127 36.2857 25.0409 36.2857 23.7148V11.2148C36.2857 9.88876 35.7589 8.61699 34.8212 7.67931C33.8836 6.74163 32.6118 6.21484 31.2857 6.21484Z" stroke="#FEFEFE" stroke-linecap="round" stroke-linejoin="round"/>
<path d="M12.5357 18.7148C12.5357 19.0464 12.404 19.3643 12.1696 19.5987C11.9352 19.8331 11.6172 19.9648 11.2857 19.9648C10.9542 19.9648 10.6362 19.8331 10.4018 19.5987C10.1674 19.3643 10.0357 19.0464 10.0357 18.7148C10.0357 18.3833 10.1674 18.0654 10.4018 17.831C10.6362 17.5965 10.9542 17.4648 11.2857 17.4648C11.6172 17.4648 11.9352 17.5965 12.1696 17.831C12.404 18.0654 12.5357 18.3833 12.5357 18.7148ZM20.0357 18.7148C20.0357 19.0464 19.904 19.3643 19.6696 19.5987C19.4352 19.8331 19.1172 19.9648 18.7857 19.9648C18.4542 19.9648 18.1362 19.8331 17.9018 19.5987C17.6674 19.3643 17.5357 19.0464 17.5357 18.7148C17.5357 18.3833 17.6674 18.0654 17.9018 17.831C18.1362 17.5965 18.4542 17.4648 18.7857 17.4648C19.1172 17.4648 19.4352 17.5965 19.6696 17.831C19.904 18.0654 20.0357 18.3833 20.0357 18.7148ZM27.5357 18.7148C27.5357 19.0464 27.404 19.3643 27.1696 19.5987C26.9352 19.8331 26.6172 19.9648 26.2857 19.9648C25.9542 19.9648 25.6362 19.8331 25.4018 19.5987C25.1674 19.3643 25.0357 19.0464 25.0357 18.7148C25.0357 18.3833 25.1674 18.0654 25.4018 17.831C25.6362 17.5965 25.9542 17.4648 26.2857 17.4648C26.6172 17.4648 26.9352 17.5965 27.1696 17.831C27.404 18.0654 27.5357 18.3833 27.5357 18.7148Z" stroke="#FEFEFE" stroke-linecap="round" stroke-linejoin="round"/>
</svg>
