<svg width="16" height="16" viewBox="0 0 16 16" fill="none" xmlns="http://www.w3.org/2000/svg">
<g id="material-symbols:recent-patient-outline-rounded">
<path id="Vector" d="M9.21404 11.9425H4.24281C3.90104 11.9425 3.60836 11.8207 3.36477 11.5771C3.12117 11.3335 2.99959 11.041 3 10.6997V10.2025C3 9.8504 3.09073 9.52665 3.27218 9.23128C3.45363 8.9359 3.69432 8.71075 3.99425 8.55581C4.63636 8.23475 5.28884 7.99386 5.95167 7.83312C6.6145 7.67238 7.28769 7.59222 7.97123 7.59264C8.17837 7.59264 8.3855 7.60051 8.59264 7.61625C8.79977 7.63199 9.00691 7.65519 9.21404 7.68585V8.94419C9.00691 8.90276 8.79977 8.87418 8.59264 8.85844C8.3855 8.84269 8.17837 8.83503 7.97123 8.83544C7.39126 8.83544 6.81646 8.90546 6.24684 9.04548C5.67722 9.1855 5.11277 9.39512 4.55351 9.67434C4.4603 9.72612 4.38511 9.79862 4.32794 9.89183C4.27077 9.98504 4.24239 10.0886 4.24281 10.2025V10.6997H9.21404V11.9425ZM7.97123 6.97123C7.28769 6.97123 6.70253 6.72785 6.21577 6.24108C5.729 5.75432 5.48562 5.16916 5.48562 4.48562C5.48562 3.80207 5.729 3.21692 6.21577 2.73015C6.70253 2.24338 7.28769 2 7.97123 2C8.65478 2 9.23993 2.24338 9.7267 2.73015C10.2135 3.21692 10.4568 3.80207 10.4568 4.48562C10.4568 5.16916 10.2135 5.75432 9.7267 6.24108C9.23993 6.72785 8.65478 6.97123 7.97123 6.97123ZM7.97123 5.72842C8.31301 5.72842 8.60569 5.60663 8.84928 5.36304C9.09287 5.11945 9.21446 4.82697 9.21404 4.48562C9.21404 4.14384 9.09225 3.85116 8.84866 3.60757C8.60506 3.36398 8.31259 3.24239 7.97123 3.24281C7.62946 3.24281 7.33678 3.3646 7.09319 3.60819C6.8496 3.85178 6.72801 4.14426 6.72843 4.48562C6.72843 4.82739 6.85022 5.12007 7.09381 5.36366C7.3374 5.60725 7.62988 5.72884 7.97123 5.72842ZM11.6997 11.3211H11.0783C10.9022 11.3211 10.7545 11.2614 10.6352 11.1421C10.5159 11.0228 10.4564 10.8753 10.4568 10.6997V8.21404C10.4568 8.03798 10.5165 7.89029 10.6358 7.77098C10.7551 7.65167 10.9026 7.59222 11.0783 7.59264H13.4241C13.6001 7.59264 13.7348 7.66513 13.828 7.81013C13.9212 7.95512 13.9264 8.10529 13.8435 8.26064L12.9425 10.0783H13.3774C13.5535 10.0783 13.6855 10.1559 13.7733 10.3113C13.8611 10.4666 13.8638 10.622 13.7814 10.7773L11.9948 13.9154C11.9534 13.9879 11.8937 14.0138 11.8159 13.9931C11.738 13.9724 11.6992 13.9206 11.6997 13.8377V11.3211Z" fill="#006633"/>
</g>
</svg>
