<svg width="16" height="16" viewBox="0 0 16 16" fill="none" xmlns="http://www.w3.org/2000/svg">
<g id="recommended" clip-path="url(#clip0_127_18720)">
<path id="Vector" d="M8 15.5C6.98375 15.5 6.025 15.0538 5.37 14.2756C4.4075 14.3856 3.41563 14.0225 2.69688 13.3038C1.97875 12.585 1.61625 11.5913 1.70312 10.5775C0.94625 9.975 0.5 9.01625 0.5 8C0.5 6.98375 0.94625 6.025 1.725 5.37C1.61563 4.40937 1.97813 3.41563 2.69688 2.69688C3.41563 1.97813 4.4075 1.61375 5.4225 1.70312C6.025 0.946875 6.98375 0.5 8 0.5C9.01625 0.5 9.975 0.94625 10.63 1.72438C11.5938 1.61625 12.5844 1.9775 13.3031 2.69625C14.0213 3.415 14.3838 4.40875 14.2969 5.4225C15.0538 6.025 15.5 6.98375 15.5 8C15.5 9.01625 15.0538 9.975 14.275 10.63C14.3844 11.5906 14.0219 12.5844 13.3031 13.3031C12.5838 14.0219 11.59 14.3819 10.5775 14.2969C9.975 15.0531 9.01625 15.5 8 15.5ZM5.42063 13.0475C5.77125 13.0475 6.09625 13.1981 6.32562 13.47C6.74312 13.9656 7.35313 14.25 8 14.25C8.64688 14.25 9.25688 13.9656 9.67437 13.47C9.92625 13.1706 10.2931 13.0194 10.6844 13.0513C11.3306 13.1056 11.9619 12.8763 12.4194 12.4187C12.8762 11.9619 13.1069 11.3294 13.0519 10.6838C13.0181 10.2938 13.1706 9.92562 13.4706 9.67313C13.9656 9.25625 14.25 8.64563 14.25 7.99937C14.25 7.35312 13.9656 6.7425 13.4706 6.32562C13.1713 6.07375 13.0181 5.705 13.0519 5.315C13.1069 4.66937 12.8769 4.03688 12.4194 3.58C11.9619 3.12313 11.3269 2.89625 10.685 2.9475C10.2937 2.9825 9.92625 2.82812 9.67437 2.52938C9.25688 2.03375 8.64688 1.74937 8 1.74937C7.35313 1.74937 6.74312 2.03375 6.32562 2.52938C6.07312 2.82875 5.705 2.97875 5.31563 2.94813C4.66625 2.89188 4.03813 3.12312 3.58063 3.58063C3.12375 4.0375 2.89313 4.67 2.94813 5.31563C2.98187 5.70563 2.82938 6.07375 2.52938 6.32625C2.03437 6.74312 1.75 7.35375 1.75 8C1.75 8.64625 2.03437 9.25688 2.52938 9.67375C2.82875 9.92562 2.98187 10.2944 2.94813 10.6844C2.89313 11.33 3.12312 11.9625 3.58063 12.4194C4.03813 12.8762 4.67625 13.1038 5.315 13.0519C5.35063 13.0487 5.38562 13.0475 5.42063 13.0475ZM8.50062 9.95938L11.4625 7.10438C11.7106 6.865 11.7181 6.46875 11.4781 6.22062C11.2388 5.9725 10.8431 5.965 10.5944 6.20437L7.62438 9.0675C7.38 9.31188 6.98562 9.31187 6.72437 9.05188L5.30063 7.72875C5.04938 7.49438 4.65313 7.50812 4.4175 7.76125C4.1825 8.01375 4.19688 8.40938 4.45 8.64437L5.8575 9.95187C6.22375 10.3181 6.70563 10.5013 7.18625 10.5013C7.66437 10.5013 8.14 10.3206 8.50125 9.96L8.50062 9.95938Z" fill="#FEFEFE"/>
</g>
<defs>
<clipPath id="clip0_127_18720">
<rect width="15" height="15" fill="white" transform="translate(0.5 0.5)"/>
</clipPath>
</defs>
</svg>
