<svg width="21" height="20" viewBox="0 0 21 20" fill="none" xmlns="http://www.w3.org/2000/svg">
<g id="schedule" clip-path="url(#clip0_127_18534)">
<g id="Group">
<path id="Vector" d="M7.3 17.2H4.6C3.64522 17.2 2.72955 16.8207 2.05442 16.1456C1.37928 15.4705 1 14.5548 1 13.6V5.50003C1 4.54525 1.37928 3.62958 2.05442 2.95445C2.72955 2.27932 3.64522 1.90003 4.6 1.90003H14.5C15.4548 1.90003 16.3705 2.27932 17.0456 2.95445C17.7207 3.62958 18.1 4.54525 18.1 5.50003V8.20003M6.4 1.00003V2.80003M12.7 1.00003V2.80003M1 6.40003H18.1M15.85 13.2787L14.5 14.6287" stroke="#ABABAB" stroke-width="1.33333" stroke-linecap="round" stroke-linejoin="round"/>
<path id="Vector_2" d="M14.5 19.0001C16.9853 19.0001 19 16.9854 19 14.5001C19 12.0148 16.9853 10.0001 14.5 10.0001C12.0147 10.0001 10 12.0148 10 14.5001C10 16.9854 12.0147 19.0001 14.5 19.0001Z" stroke="#ABABAB" stroke-width="1.33333" stroke-linecap="round" stroke-linejoin="round"/>
</g>
</g>
<defs>
<clipPath id="clip0_127_18534">
<rect width="20" height="20" fill="white" transform="translate(0.5 0.000106812)"/>
</clipPath>
</defs>
</svg>
