<svg width="25" height="24" viewBox="0 0 25 24" fill="none" xmlns="http://www.w3.org/2000/svg">
<g id="IC_Search">
<path id="Vector" d="M7.88265 15.5128L4.40963 18.8855L5.55703 20L9.02924 16.6266C10.3212 17.6325 11.9282 18.1797 13.584 18.1774C17.6125 18.1774 20.882 15.0017 20.882 11.0887C20.882 7.17574 17.6125 4 13.584 4C9.55551 4 6.28602 7.17574 6.28602 11.0887C6.28366 12.6971 6.84697 14.2579 7.88265 15.5128ZM9.50929 14.9284C8.48018 13.9005 7.90546 12.5225 7.90779 11.0887C7.90779 8.04214 10.4483 5.57527 13.584 5.57527C16.7205 5.57527 19.2602 8.04214 19.2602 11.0887C19.2602 14.1345 16.7205 16.6021 13.584 16.6021C12.1078 16.6044 10.6892 16.0462 9.63092 15.0466L9.50929 14.9284Z" fill="#ABABAB"/>
</g>
</svg>
