<svg width="20" height="20" viewBox="0 0 20 20" fill="none" xmlns="http://www.w3.org/2000/svg">
<g id="system-uicons:share">
<path id="Vector" d="M14.1027 6.03733L10.0875 2L6.028 6.03733M10.0875 2.0212V14.112M7.03733 9.06533H5.01867C4.48328 9.06533 3.96983 9.27801 3.59125 9.65659C3.21268 10.0352 3 10.5486 3 11.084V15.1213C3 15.6567 3.21268 16.1702 3.59125 16.5487C3.96983 16.9273 4.48328 17.14 5.01867 17.14H15.112C15.6474 17.14 16.1608 16.9273 16.5394 16.5487C16.918 16.1702 17.1307 15.6567 17.1307 15.1213V11.084C17.1307 10.5486 16.918 10.0352 16.5394 9.65659C16.1608 9.27801 15.6474 9.06533 15.112 9.06533H13.0933" stroke="#5B998A" stroke-width="1.2" stroke-linecap="round" stroke-linejoin="round"/>
</g>
</svg>
