<svg width="15" height="14" viewBox="0 0 15 14" fill="none" xmlns="http://www.w3.org/2000/svg">
<g id="sort icon">
<g id="Group">
<path id="Vector" fill-rule="evenodd" clip-rule="evenodd" d="M7.70507 5.39487C7.57384 5.2636 7.50012 5.08559 7.50012 4.89997C7.50012 4.71436 7.57384 4.53634 7.70507 4.40507L9.80507 2.30507C9.86965 2.23821 9.94689 2.18489 10.0323 2.1482C10.1177 2.11151 10.2095 2.0922 10.3025 2.0914C10.3954 2.09059 10.4876 2.1083 10.5736 2.1435C10.6597 2.17869 10.7378 2.23067 10.8035 2.29639C10.8693 2.36212 10.9213 2.44028 10.9564 2.5263C10.9916 2.61233 11.0094 2.70451 11.0085 2.79745C11.0077 2.8904 10.9884 2.98225 10.9517 3.06765C10.9151 3.15306 10.8617 3.2303 10.7949 3.29487L8.69487 5.39487C8.5636 5.5261 8.38559 5.59982 8.19997 5.59982C8.01436 5.59982 7.83634 5.5261 7.70507 5.39487Z" fill="#090D0A"/>
<path id="Vector_2" fill-rule="evenodd" clip-rule="evenodd" d="M12.8949 5.39488C12.7637 5.52611 12.5857 5.59983 12.4 5.59983C12.2144 5.59983 12.0364 5.52611 11.9051 5.39488L9.80514 3.29488C9.67763 3.16286 9.60707 2.98604 9.60867 2.8025C9.61026 2.61896 9.68388 2.44339 9.81367 2.31361C9.94345 2.18382 10.119 2.1102 10.3026 2.10861C10.4861 2.10701 10.6629 2.17757 10.7949 2.30508L12.8949 4.40508C13.0262 4.53635 13.0999 4.71437 13.0999 4.89998C13.0999 5.08559 13.0262 5.26361 12.8949 5.39488Z" fill="#090D0A"/>
<path id="Vector_3" fill-rule="evenodd" clip-rule="evenodd" d="M10.2999 3.5C10.4856 3.5 10.6636 3.57375 10.7949 3.70503C10.9262 3.8363 10.9999 4.01435 10.9999 4.2V9.8C10.9999 9.98565 10.9262 10.1637 10.7949 10.295C10.6636 10.4263 10.4856 10.5 10.2999 10.5C10.1143 10.5 9.93624 10.4263 9.80497 10.295C9.67369 10.1637 9.59994 9.98565 9.59994 9.8V4.2C9.59994 4.01435 9.67369 3.8363 9.80497 3.70503C9.93624 3.57375 10.1143 3.5 10.2999 3.5ZM7.29484 8.6051C7.42607 8.73637 7.49979 8.91439 7.49979 9.1C7.49979 9.28562 7.42607 9.46363 7.29484 9.5949L5.19484 11.6949C5.06282 11.8224 4.886 11.893 4.70246 11.8914C4.51892 11.8898 4.34336 11.8162 4.21357 11.6864C4.08378 11.5566 4.01017 11.381 4.00857 11.1975C4.00698 11.0139 4.07753 10.8371 4.20504 10.7051L6.30504 8.6051C6.43631 8.47387 6.61433 8.40015 6.79994 8.40015C6.98556 8.40015 7.16357 8.47387 7.29484 8.6051Z" fill="#090D0A"/>
<path id="Vector_4" fill-rule="evenodd" clip-rule="evenodd" d="M2.1051 8.6051C2.23637 8.47387 2.41438 8.40015 2.6 8.40015C2.78561 8.40015 2.96363 8.47387 3.0949 8.6051L5.1949 10.7051C5.26175 10.7697 5.31508 10.8469 5.35177 10.9323C5.38845 11.0177 5.40776 11.1096 5.40857 11.2025C5.40938 11.2955 5.39167 11.3876 5.35647 11.4737C5.32128 11.5597 5.2693 11.6378 5.20357 11.7036C5.13785 11.7693 5.05969 11.8213 4.97366 11.8565C4.88764 11.8917 4.79546 11.9094 4.70252 11.9086C4.60957 11.9078 4.51772 11.8885 4.43231 11.8518C4.34691 11.8151 4.26967 11.7618 4.2051 11.6949L2.1051 9.5949C1.97387 9.46363 1.90015 9.28561 1.90015 9.1C1.90015 8.91438 1.97387 8.73637 2.1051 8.6051Z" fill="#090D0A"/>
<path id="Vector_5" fill-rule="evenodd" clip-rule="evenodd" d="M4.7 10.5C4.51435 10.5 4.3363 10.4262 4.20503 10.295C4.07375 10.1637 4 9.98565 4 9.8V4.2C4 4.01435 4.07375 3.8363 4.20503 3.70503C4.3363 3.57375 4.51435 3.5 4.7 3.5C4.88565 3.5 5.0637 3.57375 5.19497 3.70503C5.32625 3.8363 5.4 4.01435 5.4 4.2V9.8C5.4 9.98565 5.32625 10.1637 5.19497 10.295C5.0637 10.4262 4.88565 10.5 4.7 10.5Z" fill="#090D0A"/>
</g>
</g>
</svg>
