<svg width="215" height="43" viewBox="0 0 215 43" fill="none" xmlns="http://www.w3.org/2000/svg">
<path d="M13.4959 42.6875C15.2077 42.6406 16.3267 40.4033 15.3199 38.9915C14.7721 38.2229 13.7599 37.9198 12.9355 37.5628C12.4837 37.3672 11.8963 37.1489 11.5831 36.7451C10.7641 35.6885 11.8735 34.6637 12.6757 34.1171C13.6819 33.4307 14.8807 32.9716 15.6523 31.9894C16.2697 31.204 16.5565 30.2009 16.4671 29.2067C16.2517 26.8037 14.2171 25.7495 12.2245 24.8873C9.43334 23.6795 6.66434 22.5101 5.39354 19.5215C4.00754 16.2629 5.76674 12.1307 8.64854 10.3187C11.8009 8.33685 15.7777 9.00585 18.2923 11.6981C20.7499 14.3297 21.7441 18.5267 20.2741 21.8873C17.3191 28.6421 5.70554 26.7263 3.82394 20.0753C2.84774 16.6253 3.93734 12.4883 6.54434 10.0235C8.73734 7.94985 11.9845 7.00185 14.9437 7.60125C18.4093 8.30385 21.2593 11.1533 22.1059 14.5643C22.5355 16.2953 22.8859 18.1907 22.7071 19.9775C22.5109 21.9401 21.4963 23.6255 20.0623 24.9425C17.4979 27.2969 13.9255 28.3775 10.4977 27.7181C7.27454 27.0983 4.14194 24.6053 2.84234 21.5951C0.685941 16.6013 2.11034 9.51826 7.32314 6.97846C10.9555 5.20906 14.8711 4.88445 18.3055 7.26585C21.0559 9.17325 23.3119 11.9741 24.1789 15.2441C25.1407 18.8723 24.3103 22.7357 21.7099 25.4753C19.5247 27.7775 16.4251 29.0098 13.2853 29.1772C10.3195 29.3357 7.25594 28.5557 4.92134 26.6693C2.20334 24.4727 0.71474 20.9579 0.41234 17.5355C-0.155861 11.0987 3.50414 5.80906 9.31754 3.28726C15.4555 0.625056 22.5013 1.16506 28.8385 2.83726C35.5171 4.60006 41.9174 7.50945 47.9756 10.7879C51.1814 12.5231 54.3062 14.3765 57.6002 15.9467C60.5624 17.3585 63.596 18.6245 66.6956 19.7039C72.2762 21.6479 78.0794 23.0189 84.0128 23.0153C89.6042 23.0123 95.2754 22.1717 100.459 20.0093C105.261 18.0059 109.542 14.8037 112.528 10.5137C113.931 8.49825 115.178 6.36705 115.021 3.82605C114.886 1.62705 113.508 -0.0763477 111.171 0.0940523C108.387 0.296852 106.852 2.89425 105.638 5.08845C105.752 5.11425 105.867 5.14005 105.981 5.16645C105.037 3.45465 103.996 1.56226 102.219 0.587256C100.87 -0.151944 98.9744 -0.288146 97.7282 0.733054C94.8716 3.07365 96.9092 7.73625 98.6366 10.0883C102.707 15.6293 109.51 18.9071 115.869 21.0005C124.989 24.0023 134.902 25.1693 144.371 23.2685C152.539 21.6287 159.977 17.8295 167.251 13.9079C171.563 11.5829 175.846 9.14925 180.353 7.21425C185.203 5.13165 190.754 3.50205 195.98 5.18205C200.394 6.60045 204.556 11.2421 203.302 16.1651C202.24 20.3345 197.061 23.2949 193.246 20.6609C190.002 18.4205 184.58 10.8323 190.683 8.64765C194.542 7.26645 199.624 9.33826 202.505 11.9201C204.196 13.4351 205.485 15.6401 204.523 17.9243C203.591 20.1377 200.973 21.1385 198.727 21.2345C193.915 21.4403 188.919 18.0647 188.83 12.9473C188.791 10.7219 189.663 8.49405 191.444 7.10445C193.299 5.65666 195.741 5.31526 198.025 5.57086C202.576 6.08026 207.449 8.83365 209.663 12.9341C211.752 16.8029 210.963 22.4422 206.689 24.4702C202.839 26.2973 197.596 25.4812 193.78 23.9476C189.912 22.3936 186.391 19.4579 185.203 15.3365C183.871 10.7177 186.288 5.31166 191.686 5.70346C196.714 6.06826 201.106 10.5755 202.096 15.3839C203.008 19.8149 200.695 24.9887 196.226 26.4701C192.117 27.8321 186.637 25.2887 186.541 20.5685C186.454 16.3151 190.853 12.1487 194.963 14.7929C196.734 15.9317 198.024 18.1355 197.552 20.2775C197.073 22.4549 194.474 24.5021 192.389 22.9247C191.013 21.8837 190.472 19.8113 190.879 18.1787C191.415 16.0283 193.677 14.8835 195.731 14.6873C197.901 14.4803 200.364 15.0713 202.122 16.3895C203.158 17.1665 203.939 18.4649 203.103 19.6967C202.02 21.2903 200.404 19.8431 200.047 18.5153C199.573 16.7543 200.446 14.5445 202.14 13.7681C204.34 12.7589 206.734 14.6909 207.061 16.8911C207.212 17.9033 206.946 19.0847 205.883 19.4495C204.897 19.7879 203.544 19.3133 203.041 18.3887C201.798 16.1009 205.382 14.1125 207.168 15.3581C209.416 16.9265 208.52 20.2799 206.374 21.4061C204.336 22.4747 201.857 21.9293 200.375 20.2061C198.95 18.5489 198.444 16.0607 199.219 14.0027C199.943 12.0803 201.648 10.6793 203.556 10.0169C208.173 8.41305 213.61 11.7203 213.744 16.7633C213.858 21.0455 210.275 25.0049 206.108 25.6451C201.398 26.3687 196.48 23.4161 194.359 19.2479C193.429 17.4209 192.985 15.1391 193.631 13.1489C194.464 10.5785 197.157 9.61786 199.669 9.92985C204.828 10.5695 208.144 15.7319 206.63 20.6861C205.918 23.0135 204.285 24.4325 202.545 26.0093C201.068 27.3485 199.735 28.9943 199.896 31.1123C200.023 32.7833 201.124 33.6659 202.584 34.2485C203.319 34.5419 204.761 34.8719 204.772 35.8817C204.784 36.8789 203.572 37.2569 202.827 37.5701C201.549 38.1059 200.224 38.7922 200.398 40.396C200.539 41.7046 201.58 42.8129 202.915 42.8501C203.394 42.8633 203.129 42.1967 202.75 42.1865C201.176 42.1433 200.574 40.0403 201.657 39.0317C202.427 38.3135 203.574 38.1515 204.456 37.6115C205.971 36.6833 205.575 35.0081 204.137 34.2503C203.073 33.6898 201.668 33.5471 200.978 32.4683C200.125 31.1351 200.688 29.2817 201.572 28.1081C203.221 25.9199 205.729 24.6647 206.882 22.0685C208.954 17.4017 206.745 11.9789 202.084 9.97725C199.84 9.01365 196.865 8.81626 194.796 10.3121C193.052 11.5727 192.531 13.7735 192.729 15.8201C193.198 20.6489 197.376 24.751 201.932 25.987C206.571 27.2452 211.397 25.2179 213.51 20.8349C215.613 16.4717 213.526 11.4245 209.084 9.57525C205.02 7.88445 199.413 9.90105 198.387 14.4725C197.469 18.5603 200.844 23.3393 205.293 22.4813C207.389 22.0775 209.12 20.4263 209.079 18.2087C209.046 16.4021 207.84 14.5217 205.927 14.3297C204.183 14.1545 202.237 15.5141 202.223 17.3591C202.21 19.0139 203.881 20.2007 205.436 20.1617C207.444 20.1113 208.012 18.0803 207.533 16.4051C207.022 14.6141 205.371 13.0007 203.457 12.8873C199.59 12.6581 197.82 18.4805 200.927 20.6303C202.56 21.7607 204.311 20.0891 204.029 18.3227C203.693 16.2167 201.207 15.0461 199.398 14.5031C195.632 13.3715 189.743 14.6015 190.189 19.5953C190.333 21.2081 191.181 22.9283 192.658 23.7041C194.491 24.6665 196.576 23.6201 197.569 21.9467C199.783 18.2141 196.04 13.3127 192.009 13.3565C187.645 13.4039 184.969 18.6425 186.348 22.4711C187.839 26.6105 193.138 28.4813 197.068 26.8331C201.677 24.8999 203.72 19.3841 202.471 14.7395C201.194 9.98805 196.848 5.68965 191.849 5.15506C189.415 4.89465 187 5.75445 185.598 7.82445C184.297 9.74325 184.028 12.2579 184.479 14.4929C185.398 19.0475 189.063 22.4465 193.185 24.2471C195.332 25.1849 197.638 25.7513 199.974 25.9349C202.516 26.1347 205.363 26.0015 207.612 24.6772C211.707 22.2671 212.185 16.5275 210.034 12.6701C207.64 8.37586 202.57 5.47545 197.743 4.99845C195.331 4.76025 192.743 5.19285 190.854 6.80745C189.091 8.31405 188.25 10.6427 188.334 12.9299C188.518 17.9261 192.981 21.4487 197.754 21.7667C199.966 21.9143 202.431 21.3491 204.014 19.7039C205.517 18.1409 205.704 15.8687 204.717 13.9853C202.656 10.0499 197.213 7.67385 192.921 7.72725C191.014 7.75125 189.003 8.34825 188.001 10.0985C186.723 12.3305 187.782 14.9111 189.111 16.8491C190.49 18.8615 192.404 21.2051 194.815 21.9665C196.791 22.5905 198.937 22.0403 200.601 20.8751C204.666 18.0263 204.777 12.7277 201.965 8.93626C198.549 4.33006 192.614 3.33465 187.263 4.37265C181.073 5.57325 175.363 8.90385 169.876 11.8643C165.319 14.3237 160.783 16.8455 156.034 18.9239C151.158 21.0581 146.053 22.6625 140.76 23.3285C134.536 24.1115 128.256 23.5763 122.147 22.2299C116.686 21.0263 111.278 19.2047 106.459 16.3277C103.239 14.4047 100.045 11.9081 98.1098 8.63085C96.836 6.47265 95.5946 1.91745 98.8022 0.709653C102.088 -0.527547 104.325 2.92185 105.654 5.33026C105.721 5.45325 105.901 5.57985 105.996 5.40825C106.902 3.77025 107.896 1.95045 109.623 1.05225C111.147 0.259652 113.424 0.351453 114.252 2.08425C115.747 5.21085 113.311 8.78625 111.473 11.1629C107.819 15.8867 102.585 19.0445 96.9158 20.7593C90.7766 22.6169 83.9858 23.0717 77.6492 22.0913C70.4078 20.9711 63.3782 18.3347 56.819 15.1295C53.2226 13.3721 49.8122 11.2805 46.2607 9.43905C42.875 7.68345 39.4039 6.08206 35.8447 4.71106C29.6653 2.33026 22.9633 0.547654 16.2805 1.09065C10.1029 1.59225 3.47534 4.66305 1.01894 10.6997C-1.18906 16.1279 0.224539 23.4359 4.93754 27.1331C9.60374 30.7943 16.9837 30.3616 21.3391 26.4136C26.3659 21.8573 25.6027 14.3021 21.3433 9.51645C19.1485 7.05045 16.1623 5.00685 12.7453 5.08905C10.0213 5.15445 7.05374 6.20025 5.07434 8.11785C1.10894 11.9603 0.386541 18.5573 3.37694 23.2265C7.08974 29.0231 15.2299 29.8691 20.2333 25.3013C22.7473 23.0057 23.3401 20.0681 22.8157 16.8065C22.3207 13.7255 21.3103 10.9685 18.7585 9.00105C13.7947 5.17305 6.38474 7.37385 4.05614 13.1153C2.96114 15.8153 2.79314 19.2647 4.27754 21.8555C5.86814 24.6317 9.13754 26.1299 12.2263 26.3927C15.1519 26.6417 18.1717 25.8281 19.8697 23.2793C21.4501 20.9075 21.5347 17.7749 20.6311 15.1349C19.6471 12.2609 17.3833 9.74685 14.3713 8.98905C11.3023 8.21745 7.98194 9.62685 6.20714 12.2021C4.63814 14.4785 4.15694 17.6729 5.41754 20.1839C6.76934 22.8767 9.38414 24.0257 12.0193 25.1549C13.4515 25.7687 15.1009 26.4209 15.8353 27.8897C16.8199 29.8601 15.8491 31.7789 14.1013 32.8612C12.8977 33.6064 9.85934 35.1778 11.4601 37.0198C12.1663 37.8328 13.4059 38.0164 14.3089 38.53C15.2155 39.0454 15.7051 39.9557 15.2923 40.9846C14.9719 41.7821 14.3071 42.3274 13.4383 42.3515C13.2877 42.3515 13.3363 42.6917 13.4959 42.6875Z" fill="#FAFFFE" fill-opacity="0.7"/>
</svg>
