<svg width="10" height="10" viewBox="0 0 10 10" fill="none" xmlns="http://www.w3.org/2000/svg">
<g id="wi:time-7">
<path id="Vector" d="M1.24658 4.82336C1.24658 4.14336 1.41658 3.51336 1.75325 2.93669C2.08992 2.36002 2.54658 1.90335 3.12325 1.56669C3.69992 1.23002 4.32658 1.06335 5.00325 1.06335C5.50992 1.06335 5.99658 1.16335 6.45992 1.36002C6.92325 1.55669 7.31992 1.82669 7.65658 2.16002C7.99325 2.49335 8.25992 2.89335 8.45658 3.36002C8.65325 3.82669 8.75325 4.31002 8.75325 4.82336C8.75325 5.33002 8.65325 5.81669 8.45658 6.28002C8.25992 6.74336 7.98992 7.14336 7.65658 7.47669C7.32325 7.81002 6.92325 8.07669 6.45992 8.27336C5.99658 8.47002 5.51325 8.57002 5.00325 8.57002C4.49325 8.57002 4.00325 8.47002 3.53992 8.27336C3.07658 8.07669 2.67658 7.80669 2.33992 7.47336C2.00325 7.14002 1.73992 6.74002 1.53992 6.28002C1.33992 5.82002 1.24658 5.33336 1.24658 4.82336ZM2.07325 4.82336C2.07325 5.61336 2.35992 6.30002 2.93658 6.88335C3.51325 7.46002 4.19992 7.74669 5.00325 7.74669C5.52992 7.74669 6.01992 7.61669 6.46658 7.35335C6.91325 7.09002 7.27325 6.73669 7.53658 6.28669C7.79992 5.83669 7.93325 5.35002 7.93325 4.82336C7.93325 4.29669 7.79992 3.80669 7.53658 3.35669C7.27325 2.90669 6.91658 2.55002 6.46658 2.28669C6.01658 2.02335 5.52992 1.89335 5.00325 1.89335C4.47658 1.89335 3.98658 2.02335 3.53992 2.28669C3.09325 2.55002 2.73325 2.90669 2.46658 3.35669C2.19992 3.80669 2.07325 4.29669 2.07325 4.82336ZM3.96325 6.23669C3.95273 6.20066 3.94967 6.16286 3.95425 6.12561C3.95884 6.08835 3.97097 6.05242 3.98992 6.02002L4.71325 4.74002V2.60335C4.71325 2.52669 4.73992 2.46002 4.79325 2.40669C4.84658 2.35335 4.91325 2.32669 4.98992 2.32669C5.06658 2.32669 5.13325 2.35335 5.18658 2.40669C5.23992 2.46002 5.26658 2.52669 5.26658 2.60335V4.82669C5.26658 4.89335 5.24658 4.95002 5.20325 5.00335L4.47658 6.30335C4.42325 6.39335 4.33992 6.44002 4.22658 6.44002C4.17325 6.44002 4.12992 6.43002 4.09325 6.41002C4.03121 6.36897 3.98528 6.30773 3.96325 6.23669Z" fill="#090D0A"/>
</g>
</svg>
