<svg width="17" height="16" viewBox="0 0 17 16" fill="none" xmlns="http://www.w3.org/2000/svg">
<g id="wi:time-8" clip-path="url(#clip0_91_3234)">
<path id="Vector" d="M2.49463 6.016C2.49463 4.928 2.76663 3.92 3.3053 2.99733C3.84396 2.07467 4.57463 1.344 5.4973 0.805333C6.41996 0.266667 7.42263 0 8.5053 0C9.31596 0 10.0946 0.16 10.836 0.474667C11.5773 0.789333 12.212 1.22133 12.7506 1.75467C13.2893 2.288 13.716 2.928 14.0306 3.67467C14.3453 4.42133 14.5053 5.19467 14.5053 6.016C14.5053 6.82667 14.3453 7.60533 14.0306 8.34667C13.716 9.088 13.284 9.728 12.7506 10.2613C12.2173 10.7947 11.5773 11.2213 10.836 11.536C10.0946 11.8507 9.3213 12.0107 8.5053 12.0107C7.6893 12.0107 6.9053 11.8507 6.16396 11.536C5.42263 11.2213 4.78263 10.7893 4.24396 10.256C3.7053 9.72267 3.28396 9.08267 2.96396 8.34667C2.64396 7.61067 2.49463 6.832 2.49463 6.016ZM3.8173 6.016C3.8173 7.28 4.27596 8.37867 5.19863 9.312C6.1213 10.2347 7.21996 10.6933 8.5053 10.6933C9.34796 10.6933 10.132 10.4853 10.8466 10.064C11.5613 9.64267 12.1373 9.07733 12.5586 8.35733C12.98 7.63733 13.1933 6.85867 13.1933 6.016C13.1933 5.17333 12.98 4.38933 12.5586 3.66933C12.1373 2.94933 11.5666 2.37867 10.8466 1.95733C10.1266 1.536 9.34796 1.328 8.5053 1.328C7.66263 1.328 6.87863 1.536 6.16396 1.95733C5.4493 2.37867 4.8733 2.94933 4.44663 3.66933C4.01996 4.38933 3.8173 5.17333 3.8173 6.016ZM5.92396 7.13067C5.95596 7.01333 6.0253 6.92267 6.12663 6.85867L8.0413 5.744V2.464C8.0413 2.34133 8.08396 2.23467 8.1693 2.14933C8.25463 2.064 8.3613 2.02133 8.48396 2.02133C8.60663 2.02133 8.7133 2.064 8.79863 2.14933C8.88396 2.23467 8.92663 2.34133 8.92663 2.464V6.02133C8.92663 6.12267 8.89463 6.208 8.83596 6.288C8.7773 6.368 8.70263 6.416 8.61196 6.44267L6.56396 7.632C6.49996 7.67467 6.43063 7.696 6.3453 7.696C6.17463 7.696 6.04663 7.62133 5.9613 7.472C5.90684 7.36682 5.89353 7.24513 5.92396 7.13067Z" fill="#ABABAB"/>
</g>
<defs>
<clipPath id="clip0_91_3234">
<rect width="16" height="16" fill="white" transform="translate(0.5)"/>
</clipPath>
</defs>
</svg>
