<svg width="17" height="16" viewBox="0 0 17 16" fill="none" xmlns="http://www.w3.org/2000/svg">
<g id="healthicons:i-training-class-outline" clip-path="url(#clip0_349_2885)">
<g id="Group">
<g id="Vector">
<mask id="path-1-inside-1_349_2885" fill="white">
<path fill-rule="evenodd" clip-rule="evenodd" d="M2.5 0V9.33333H9.96233V8.66667H3.16667V0.666667H12.1667V1.37333H12.8333V0H2.5ZM12.8333 3.33333C12.8333 3.51014 12.7631 3.67971 12.6381 3.80474C12.513 3.92976 12.3435 4 12.1667 4C11.9899 4 11.8203 3.92976 11.6953 3.80474C11.5702 3.67971 11.5 3.51014 11.5 3.33333C11.5 3.15652 11.5702 2.98695 11.6953 2.86193C11.8203 2.7369 11.9899 2.66667 12.1667 2.66667C12.3435 2.66667 12.513 2.7369 12.6381 2.86193C12.7631 2.98695 12.8333 3.15652 12.8333 3.33333ZM13.5 3.33333C13.5 3.68696 13.3595 4.02609 13.1095 4.27614C12.8594 4.52619 12.5203 4.66667 12.1667 4.66667C11.813 4.66667 11.4739 4.52619 11.2239 4.27614C10.9738 4.02609 10.8333 3.68696 10.8333 3.33333C10.8333 2.97971 10.9738 2.64057 11.2239 2.39052C11.4739 2.14048 11.813 2 12.1667 2C12.5203 2 12.8594 2.14048 13.1095 2.39052C13.3595 2.64057 13.5 2.97971 13.5 3.33333Z"/>
</mask>
<path fill-rule="evenodd" clip-rule="evenodd" d="M2.5 0V9.33333H9.96233V8.66667H3.16667V0.666667H12.1667V1.37333H12.8333V0H2.5ZM12.8333 3.33333C12.8333 3.51014 12.7631 3.67971 12.6381 3.80474C12.513 3.92976 12.3435 4 12.1667 4C11.9899 4 11.8203 3.92976 11.6953 3.80474C11.5702 3.67971 11.5 3.51014 11.5 3.33333C11.5 3.15652 11.5702 2.98695 11.6953 2.86193C11.8203 2.7369 11.9899 2.66667 12.1667 2.66667C12.3435 2.66667 12.513 2.7369 12.6381 2.86193C12.7631 2.98695 12.8333 3.15652 12.8333 3.33333ZM13.5 3.33333C13.5 3.68696 13.3595 4.02609 13.1095 4.27614C12.8594 4.52619 12.5203 4.66667 12.1667 4.66667C11.813 4.66667 11.4739 4.52619 11.2239 4.27614C10.9738 4.02609 10.8333 3.68696 10.8333 3.33333C10.8333 2.97971 10.9738 2.64057 11.2239 2.39052C11.4739 2.14048 11.813 2 12.1667 2C12.5203 2 12.8594 2.14048 13.1095 2.39052C13.3595 2.64057 13.5 2.97971 13.5 3.33333Z" fill="#ABABAB"/>
<path d="M2.5 0V-4H-1.5V0H2.5ZM2.5 9.33333H-1.5V13.3333H2.5V9.33333ZM9.96233 9.33333V13.3333H13.9623V9.33333H9.96233ZM9.96233 8.66667H13.9623V4.66667H9.96233V8.66667ZM3.16667 8.66667H-0.833333V12.6667H3.16667V8.66667ZM3.16667 0.666667V-3.33333H-0.833333V0.666667H3.16667ZM12.1667 0.666667H16.1667V-3.33333H12.1667V0.666667ZM12.1667 1.37333H8.16667V5.37333H12.1667V1.37333ZM12.8333 1.37333V5.37333H16.8333V1.37333H12.8333ZM12.8333 0H16.8333V-4H12.8333V0ZM12.1667 2.66667V6.66667V2.66667ZM12.1667 2V-2V2ZM-1.5 0V9.33333H6.5V0H-1.5ZM2.5 13.3333H9.96233V5.33333H2.5V13.3333ZM13.9623 9.33333V8.66667H5.96233V9.33333H13.9623ZM9.96233 4.66667H3.16667V12.6667H9.96233V4.66667ZM7.16667 8.66667V0.666667H-0.833333V8.66667H7.16667ZM3.16667 4.66667H12.1667V-3.33333H3.16667V4.66667ZM8.16667 0.666667V1.37333H16.1667V0.666667H8.16667ZM12.1667 5.37333H12.8333V-2.62667H12.1667V5.37333ZM16.8333 1.37333V0H8.83333V1.37333H16.8333ZM12.8333 -4H2.5V4H12.8333V-4ZM8.83333 3.33333C8.83333 2.44929 9.18452 1.60144 9.80964 0.976311L15.4665 6.63316C16.3417 5.75799 16.8333 4.571 16.8333 3.33333H8.83333ZM9.80964 0.976311C10.4348 0.351189 11.2826 1.19209e-07 12.1667 1.19209e-07V8C13.4043 8 14.5913 7.50834 15.4665 6.63316L9.80964 0.976311ZM12.1667 1.19209e-07C13.0507 1.19209e-07 13.8986 0.351189 14.5237 0.976311L8.86683 6.63316C9.74201 7.50834 10.929 8 12.1667 8V1.19209e-07ZM14.5237 0.976311C15.1488 1.60144 15.5 2.44929 15.5 3.33333H7.5C7.5 4.571 7.99166 5.75799 8.86683 6.63316L14.5237 0.976311ZM15.5 3.33333C15.5 4.21738 15.1488 5.06523 14.5237 5.69036L8.86683 0.0335019C7.99166 0.908677 7.5 2.09566 7.5 3.33333H15.5ZM14.5237 5.69036C13.8986 6.31548 13.0507 6.66667 12.1667 6.66667V-1.33333C10.929 -1.33333 9.74201 -0.841669 8.86683 0.0335019L14.5237 5.69036ZM12.1667 6.66667C11.2826 6.66667 10.4348 6.31548 9.80964 5.69036L15.4665 0.0335019C14.5913 -0.841669 13.4043 -1.33333 12.1667 -1.33333V6.66667ZM9.80964 5.69036C9.18452 5.06523 8.83333 4.21738 8.83333 3.33333H16.8333C16.8333 2.09566 16.3417 0.908677 15.4665 0.0335019L9.80964 5.69036ZM9.5 3.33333C9.5 2.62609 9.78095 1.94781 10.281 1.44772L15.9379 7.10457C16.9381 6.10438 17.5 4.74782 17.5 3.33333H9.5ZM10.281 1.44772C10.7811 0.94762 11.4594 0.666667 12.1667 0.666667V8.66667C13.5812 8.66667 14.9377 8.10476 15.9379 7.10457L10.281 1.44772ZM12.1667 0.666667C12.8739 0.666667 13.5522 0.94762 14.0523 1.44772L8.39543 7.10457C9.39562 8.10476 10.7522 8.66667 12.1667 8.66667V0.666667ZM14.0523 1.44772C14.5524 1.94781 14.8333 2.62609 14.8333 3.33333H6.83333C6.83333 4.74782 7.39524 6.10438 8.39543 7.10457L14.0523 1.44772ZM14.8333 3.33333C14.8333 4.04058 14.5524 4.71886 14.0523 5.21895L8.39543 -0.437903C7.39524 0.56229 6.83333 1.91884 6.83333 3.33333H14.8333ZM14.0523 5.21895C13.5522 5.71905 12.8739 6 12.1667 6V-2C10.7522 -2 9.39562 -1.4381 8.39543 -0.437903L14.0523 5.21895ZM12.1667 6C11.4594 6 10.7811 5.71905 10.281 5.21895L15.9379 -0.437903C14.9377 -1.4381 13.5812 -2 12.1667 -2V6ZM10.281 5.21895C9.78095 4.71886 9.5 4.04058 9.5 3.33333H17.5C17.5 1.91884 16.9381 0.56229 15.9379 -0.437903L10.281 5.21895Z" fill="#ABABAB" mask="url(#path-1-inside-1_349_2885)"/>
</g>
<g id="Vector_2">
<mask id="path-3-inside-2_349_2885" fill="white">
<path fill-rule="evenodd" clip-rule="evenodd" d="M10.531 5.27667C10.7169 5.0992 10.964 5.00013 11.221 5H12.5816C13.0696 5 13.524 5.166 13.874 5.49667C14.2107 5.81467 14.386 6.22233 14.4577 6.60867C14.5703 7.216 14.4536 7.87967 14.1666 8.468V11.1667C14.1667 11.3758 14.088 11.5773 13.9464 11.7311C13.8048 11.885 13.6105 11.9799 13.4021 11.9972C13.1936 12.0144 12.9864 11.9527 12.8214 11.8242C12.6564 11.6958 12.5457 11.5099 12.5113 11.3037L12.3333 10.2357L12.1553 11.3037C12.1209 11.5099 12.0103 11.6958 11.8453 11.8242C11.6803 11.9527 11.473 12.0144 11.2646 11.9972C11.0562 11.9799 10.8619 11.885 10.7202 11.7311C10.5786 11.5773 10.5 11.3758 10.5 11.1667V8.031C10.348 8.11878 10.1755 8.16499 9.99998 8.165H8.29932C8.0341 8.165 7.77975 8.05964 7.59221 7.87211C7.40467 7.68457 7.29932 7.43022 7.29932 7.165C7.29932 6.89978 7.40467 6.64543 7.59221 6.45789C7.77975 6.27036 8.0341 6.165 8.29932 6.165H9.59932L10.531 5.27667ZM11.1666 9.15833V11.1667C11.1668 11.2084 11.1825 11.2486 11.2109 11.2793C11.2392 11.31 11.278 11.3289 11.3196 11.3323C11.3612 11.3357 11.4026 11.3234 11.4356 11.2978C11.4685 11.2722 11.4907 11.2352 11.4976 11.194L11.8453 9.10867C11.8583 9.03083 11.8984 8.96011 11.9586 8.90909C12.0187 8.85806 12.0951 8.83004 12.174 8.83H12.4927C12.5716 8.83004 12.6479 8.85806 12.7081 8.90909C12.7682 8.96011 12.8084 9.03083 12.8213 9.10867L13.169 11.194C13.1759 11.2352 13.1981 11.2722 13.2311 11.2978C13.264 11.3234 13.3054 11.3357 13.347 11.3323C13.3886 11.3289 13.4274 11.31 13.4558 11.2793C13.4841 11.2486 13.4999 11.2084 13.5 11.1667V8.389C13.5 8.33564 13.5128 8.28305 13.5373 8.23567C13.7946 7.73867 13.8883 7.19433 13.8023 6.73033C13.75 6.44833 13.6276 6.181 13.4163 5.98133C13.2006 5.77767 12.9146 5.66667 12.5816 5.66667H11.2213C11.1357 5.66667 11.053 5.69967 10.991 5.75867L9.96298 6.73933C9.90103 6.79853 9.81867 6.83159 9.73298 6.83167H8.29932C8.21091 6.83167 8.12613 6.86679 8.06361 6.9293C8.0011 6.99181 7.96598 7.07659 7.96598 7.165C7.96598 7.25341 8.0011 7.33819 8.06361 7.4007C8.12613 7.46321 8.21091 7.49833 8.29932 7.49833H9.99998C10.0857 7.49826 10.168 7.4652 10.23 7.406L10.6033 7.05C10.6505 7.00497 10.71 6.9748 10.7742 6.96323C10.8384 6.95165 10.9046 6.95917 10.9646 6.98487C11.0246 7.01057 11.0757 7.0533 11.1116 7.10778C11.1475 7.16226 11.1667 7.22608 11.1666 7.29133V9.15867"/>
</mask>
<path fill-rule="evenodd" clip-rule="evenodd" d="M10.531 5.27667C10.7169 5.0992 10.964 5.00013 11.221 5H12.5816C13.0696 5 13.524 5.166 13.874 5.49667C14.2107 5.81467 14.386 6.22233 14.4577 6.60867C14.5703 7.216 14.4536 7.87967 14.1666 8.468V11.1667C14.1667 11.3758 14.088 11.5773 13.9464 11.7311C13.8048 11.885 13.6105 11.9799 13.4021 11.9972C13.1936 12.0144 12.9864 11.9527 12.8214 11.8242C12.6564 11.6958 12.5457 11.5099 12.5113 11.3037L12.3333 10.2357L12.1553 11.3037C12.1209 11.5099 12.0103 11.6958 11.8453 11.8242C11.6803 11.9527 11.473 12.0144 11.2646 11.9972C11.0562 11.9799 10.8619 11.885 10.7202 11.7311C10.5786 11.5773 10.5 11.3758 10.5 11.1667V8.031C10.348 8.11878 10.1755 8.16499 9.99998 8.165H8.29932C8.0341 8.165 7.77975 8.05964 7.59221 7.87211C7.40467 7.68457 7.29932 7.43022 7.29932 7.165C7.29932 6.89978 7.40467 6.64543 7.59221 6.45789C7.77975 6.27036 8.0341 6.165 8.29932 6.165H9.59932L10.531 5.27667ZM11.1666 9.15833V11.1667C11.1668 11.2084 11.1825 11.2486 11.2109 11.2793C11.2392 11.31 11.278 11.3289 11.3196 11.3323C11.3612 11.3357 11.4026 11.3234 11.4356 11.2978C11.4685 11.2722 11.4907 11.2352 11.4976 11.194L11.8453 9.10867C11.8583 9.03083 11.8984 8.96011 11.9586 8.90909C12.0187 8.85806 12.0951 8.83004 12.174 8.83H12.4927C12.5716 8.83004 12.6479 8.85806 12.7081 8.90909C12.7682 8.96011 12.8084 9.03083 12.8213 9.10867L13.169 11.194C13.1759 11.2352 13.1981 11.2722 13.2311 11.2978C13.264 11.3234 13.3054 11.3357 13.347 11.3323C13.3886 11.3289 13.4274 11.31 13.4558 11.2793C13.4841 11.2486 13.4999 11.2084 13.5 11.1667V8.389C13.5 8.33564 13.5128 8.28305 13.5373 8.23567C13.7946 7.73867 13.8883 7.19433 13.8023 6.73033C13.75 6.44833 13.6276 6.181 13.4163 5.98133C13.2006 5.77767 12.9146 5.66667 12.5816 5.66667H11.2213C11.1357 5.66667 11.053 5.69967 10.991 5.75867L9.96298 6.73933C9.90103 6.79853 9.81867 6.83159 9.73298 6.83167H8.29932C8.21091 6.83167 8.12613 6.86679 8.06361 6.9293C8.0011 6.99181 7.96598 7.07659 7.96598 7.165C7.96598 7.25341 8.0011 7.33819 8.06361 7.4007C8.12613 7.46321 8.21091 7.49833 8.29932 7.49833H9.99998C10.0857 7.49826 10.168 7.4652 10.23 7.406L10.6033 7.05C10.6505 7.00497 10.71 6.9748 10.7742 6.96323C10.8384 6.95165 10.9046 6.95917 10.9646 6.98487C11.0246 7.01057 11.0757 7.0533 11.1116 7.10778C11.1475 7.16226 11.1667 7.22608 11.1666 7.29133V9.15867" fill="#ABABAB"/>
<path d="M10.531 5.27667L11.2211 6.0004L11.2215 6L10.531 5.27667ZM11.221 5V4L11.2205 4L11.221 5ZM13.874 5.49667L13.1872 6.22356L13.1873 6.22364L13.874 5.49667ZM14.4577 6.60867L13.4744 6.79106L13.4744 6.79107L14.4577 6.60867ZM14.1666 8.468L13.2679 8.02957L13.1666 8.2371V8.468H14.1666ZM14.1666 11.1667H13.1666V11.1667L14.1666 11.1667ZM12.5113 11.3037L13.4977 11.1393L13.4977 11.1393L12.5113 11.3037ZM12.3333 10.2357L13.3197 10.0713H11.3469L12.3333 10.2357ZM12.1553 11.3037L11.1689 11.1393L11.1689 11.1393L12.1553 11.3037ZM10.5 11.1667L11.5 11.1667V11.1667H10.5ZM10.5 8.031H11.5V6.29885L9.99994 7.165L10.5 8.031ZM9.99998 8.165V9.165H10L9.99998 8.165ZM8.29932 8.165V9.165V8.165ZM8.29932 6.165V5.165V6.165ZM9.59932 6.165V7.165H9.99965L10.2894 6.88874L9.59932 6.165ZM11.1666 11.1667H10.1666L10.1667 11.1694L11.1666 11.1667ZM11.4976 11.194L12.4837 11.3607L12.484 11.3585L11.4976 11.194ZM11.8453 9.10867L12.8317 9.27312L12.8318 9.27267L11.8453 9.10867ZM12.174 8.83V7.83L12.1735 7.83L12.174 8.83ZM12.4927 8.83L12.4931 7.83H12.4927V8.83ZM12.8213 9.10867L11.8349 9.27267L11.8349 9.27312L12.8213 9.10867ZM13.169 11.194L12.1826 11.3585L12.183 11.3607L13.169 11.194ZM13.5 11.1667L14.5 11.1694V11.1667H13.5ZM13.5 8.389H14.5V8.38884L13.5 8.389ZM13.5373 8.23567L14.4253 8.69551L14.4253 8.69546L13.5373 8.23567ZM13.8023 6.73033L14.7856 6.54809L14.7855 6.54787L13.8023 6.73033ZM13.4163 5.98133L14.1031 5.25445L14.1029 5.25429L13.4163 5.98133ZM10.991 5.75867L10.3016 5.03425L10.3007 5.0351L10.991 5.75867ZM9.96298 6.73933L9.27273 6.01576L9.27213 6.01633L9.96298 6.73933ZM9.73298 6.83167V7.83167L9.73383 7.83167L9.73298 6.83167ZM9.99998 7.49833V8.49833L10.0008 8.49833L9.99998 7.49833ZM10.23 7.406L9.53988 6.68229L9.53913 6.683L10.23 7.406ZM10.6033 7.05L9.91332 6.32619L9.91321 6.32629L10.6033 7.05ZM11.1666 7.29133L10.1666 7.29114V7.29133H11.1666ZM11.2215 6H11.2215L11.2205 4C10.7065 4.00026 10.2123 4.19841 9.84048 4.55333L11.2215 6ZM11.221 6H12.5816V4H11.221V6ZM12.5816 6C12.8375 6 13.0391 6.08363 13.1872 6.22356L14.5607 4.76977C14.0088 4.24837 13.3018 4 12.5816 4V6ZM13.1873 6.22364C13.3358 6.36384 13.4319 6.56156 13.4744 6.79106L15.4409 6.42627C15.3401 5.88311 15.0855 5.26549 14.5606 4.76969L13.1873 6.22364ZM13.4744 6.79107C13.5419 7.15457 13.4769 7.60107 13.2679 8.02957L15.0654 8.90643C15.4304 8.15826 15.5988 7.27743 15.4409 6.42627L13.4744 6.79107ZM13.1666 8.468V11.1667H15.1666V8.468H13.1666ZM13.1666 11.1667C13.1666 11.1249 13.1824 11.0846 13.2107 11.0538L14.6821 12.4084C14.9937 12.07 15.1667 11.6267 15.1666 11.1666L13.1666 11.1667ZM13.2107 11.0538C13.239 11.023 13.2779 11.004 13.3196 11.0006L13.4845 12.9938C13.943 12.9558 14.3705 12.7469 14.6821 12.4084L13.2107 11.0538ZM13.3196 11.0006C13.3613 10.9971 13.4027 11.0095 13.4357 11.0352L12.207 12.6133C12.57 12.8959 13.026 13.0317 13.4845 12.9938L13.3196 11.0006ZM13.4357 11.0352C13.4687 11.0609 13.4908 11.098 13.4977 11.1393L11.5249 11.468C11.6005 11.9218 11.844 12.3306 12.207 12.6133L13.4357 11.0352ZM13.4977 11.1393L13.3197 10.0713L11.3469 10.4001L11.5249 11.4681L13.4977 11.1393ZM11.3469 10.0713L11.1689 11.1393L13.1417 11.4681L13.3197 10.4001L11.3469 10.0713ZM11.1689 11.1393C11.1758 11.098 11.1979 11.0609 11.2309 11.0352L12.4596 12.6133C12.8226 12.3306 13.0661 11.9218 13.1417 11.468L11.1689 11.1393ZM11.2309 11.0352C11.2639 11.0095 11.3054 10.9971 11.3471 11.0006L11.1821 12.9938C11.6406 13.0317 12.0966 12.8959 12.4596 12.6133L11.2309 11.0352ZM11.3471 11.0006C11.3887 11.004 11.4276 11.023 11.4559 11.0538L9.98453 12.4084C10.2961 12.7469 10.7236 12.9558 11.1821 12.9938L11.3471 11.0006ZM11.4559 11.0538C11.4843 11.0846 11.5 11.1249 11.5 11.1667L9.49998 11.1666C9.49997 11.6267 9.67292 12.07 9.98453 12.4084L11.4559 11.0538ZM11.5 11.1667V8.031H9.49998V11.1667H11.5ZM9.99994 7.165V7.165L10 9.165C10.3511 9.16498 10.696 9.07255 11 8.897L9.99994 7.165ZM9.99998 7.165H8.29932V9.165H9.99998V7.165ZM8.29932 7.165L8.29932 7.165L6.8851 8.57921C7.26017 8.95429 7.76888 9.165 8.29932 9.165V7.165ZM8.29932 7.165L8.29932 7.165H6.29932C6.29932 7.69543 6.51003 8.20414 6.8851 8.57921L8.29932 7.165ZM8.29932 7.165L8.29932 7.165L6.8851 5.75079C6.51003 6.12586 6.29932 6.63457 6.29932 7.165H8.29932ZM8.29932 7.165H8.29932V5.165C7.76888 5.165 7.26018 5.37571 6.8851 5.75079L8.29932 7.165ZM8.29932 7.165H9.59932V5.165H8.29932V7.165ZM10.2894 6.88874L11.2211 6.0004L9.84091 4.55293L8.90924 5.44126L10.2894 6.88874ZM10.1666 9.15833V11.1667H12.1666V9.15833H10.1666ZM10.1667 11.1694C10.1674 11.4616 10.2779 11.7429 10.4762 11.9577L11.9456 10.6009C12.0872 10.7543 12.1661 10.9552 12.1666 11.1639L10.1667 11.1694ZM10.4762 11.9577C10.6744 12.1724 10.9461 12.3049 11.2373 12.3289L11.4019 10.3357C11.6099 10.3529 11.8039 10.4475 11.9456 10.6009L10.4762 11.9577ZM11.2373 12.3289C11.5285 12.353 11.8182 12.2668 12.049 12.0875L10.8221 10.5081C10.987 10.38 11.1939 10.3185 11.4019 10.3357L11.2373 12.3289ZM12.049 12.0875C12.2798 11.9083 12.4349 11.6489 12.4837 11.3607L10.5116 11.0273C10.5464 10.8215 10.6572 10.6362 10.8221 10.5081L12.049 12.0875ZM12.484 11.3585L12.8317 9.27312L10.8589 8.94422L10.5113 11.0296L12.484 11.3585ZM12.8318 9.27267C12.8059 9.42834 12.7256 9.56978 12.6053 9.67183L11.3119 8.14635C11.0711 8.35045 10.9106 8.63333 10.8589 8.94467L12.8318 9.27267ZM12.6053 9.67183C12.4849 9.77388 12.3322 9.82993 12.1744 9.83L12.1735 7.83C11.8579 7.83015 11.5526 7.94224 11.3119 8.14635L12.6053 9.67183ZM12.174 9.83H12.4927V7.83H12.174V9.83ZM12.4922 9.83C12.3344 9.82993 12.1817 9.77388 12.0614 9.67183L13.3548 8.14635C13.114 7.94224 12.8087 7.83015 12.4931 7.83L12.4922 9.83ZM12.0614 9.67183C11.941 9.56978 11.8607 9.42834 11.8349 9.27267L13.8078 8.94467C13.756 8.63333 13.5955 8.35045 13.3548 8.14635L12.0614 9.67183ZM11.8349 9.27312L12.1826 11.3585L14.1554 11.0296L13.8077 8.94422L11.8349 9.27312ZM12.183 11.3607C12.2317 11.6489 12.3868 11.9083 12.6176 12.0875L13.8445 10.5081C14.0094 10.6362 14.1202 10.8215 14.155 11.0273L12.183 11.3607ZM12.6176 12.0875C12.8484 12.2668 13.1381 12.353 13.4293 12.3289L13.2647 10.3357C13.4728 10.3185 13.6797 10.38 13.8445 10.5081L12.6176 12.0875ZM13.4293 12.3289C13.7206 12.3049 13.9922 12.1724 14.1905 11.9577L12.7211 10.6009C12.8627 10.4475 13.0567 10.3529 13.2647 10.3357L13.4293 12.3289ZM14.1905 11.9577C14.3887 11.7429 14.4992 11.4616 14.5 11.1694L12.5 11.1639C12.5006 10.9552 12.5794 10.7543 12.7211 10.6009L14.1905 11.9577ZM14.5 11.1667V8.389H12.5V11.1667H14.5ZM14.5 8.38884C14.5 8.49557 14.4744 8.60074 14.4253 8.69551L12.6493 7.77582C12.5512 7.96537 12.4999 8.17571 12.5 8.38916L14.5 8.38884ZM14.4253 8.69546C14.7674 8.03475 14.9185 7.26539 14.7856 6.54809L12.8191 6.91257C12.8581 7.12328 12.8219 7.44259 12.6493 7.77587L14.4253 8.69546ZM14.7855 6.54787C14.7039 6.10819 14.502 5.63137 14.1031 5.25445L12.7296 6.70822C12.7533 6.73063 12.796 6.78847 12.8191 6.9128L14.7855 6.54787ZM14.1029 5.25429C13.6859 4.86045 13.1475 4.66667 12.5816 4.66667V6.66667C12.6363 6.66667 12.6698 6.67557 12.6879 6.68246C12.7053 6.68908 12.718 6.69729 12.7297 6.70838L14.1029 5.25429ZM12.5816 4.66667H11.2213V6.66667H12.5816V4.66667ZM11.2213 4.66667C10.8795 4.66667 10.5499 4.79799 10.3016 5.03425L11.6803 6.48308C11.5561 6.60135 11.3918 6.66667 11.2213 6.66667V4.66667ZM10.3007 5.0351L9.27273 6.01577L10.6532 7.4629L11.6812 6.48223L10.3007 5.0351ZM9.27213 6.01633C9.39603 5.89794 9.56076 5.83181 9.73213 5.83167L9.73383 7.83167C10.0766 7.83138 10.406 7.69911 10.6538 7.46233L9.27213 6.01633ZM9.73298 5.83167H8.29932V7.83167H9.73298V5.83167ZM8.29932 5.83167C7.9457 5.83167 7.60656 5.97214 7.35651 6.22219L8.77072 7.6364C8.64569 7.76143 8.47612 7.83167 8.29932 7.83167V5.83167ZM7.35651 6.22219C7.10646 6.47224 6.96598 6.81138 6.96598 7.165H8.96598C8.96598 7.34181 8.89575 7.51138 8.77072 7.6364L7.35651 6.22219ZM6.96598 7.165C6.96598 7.51862 7.10646 7.85776 7.35651 8.10781L8.77072 6.6936C8.89575 6.81862 8.96598 6.98819 8.96598 7.165H6.96598ZM7.35651 8.10781C7.60655 8.35786 7.94569 8.49833 8.29932 8.49833V6.49833C8.47613 6.49833 8.6457 6.56857 8.77072 6.6936L7.35651 8.10781ZM8.29932 8.49833H9.99998V6.49833H8.29932V8.49833ZM10.0008 8.49833C10.3436 8.49804 10.673 8.36578 10.9208 8.129L9.53913 6.683C9.66303 6.56461 9.82776 6.49848 9.99913 6.49833L10.0008 8.49833ZM10.9201 8.12971L11.2934 7.77371L9.91321 6.32629L9.53988 6.68229L10.9201 8.12971ZM11.2933 7.77381C11.1989 7.86386 11.08 7.9242 10.9516 7.94736L10.5967 5.97909C10.3399 6.0254 10.1022 6.14609 9.91332 6.32619L11.2933 7.77381ZM10.9516 7.94736C10.8232 7.97052 10.6908 7.95546 10.5708 7.90407L11.3584 6.06567C11.1184 5.96288 10.8536 5.93278 10.5967 5.97909L10.9516 7.94736ZM10.5708 7.90407C10.4508 7.85268 10.3486 7.76721 10.2767 7.65825L11.9465 6.55731C11.8028 6.33939 11.5983 6.16845 11.3584 6.06567L10.5708 7.90407ZM10.2767 7.65825C10.2049 7.54929 10.1666 7.42165 10.1666 7.29114L12.1666 7.29152C12.1667 7.03051 12.0901 6.77522 11.9465 6.55731L10.2767 7.65825ZM10.1666 7.29133V9.15867H12.1666V7.29133H10.1666Z" fill="#ABABAB" mask="url(#path-3-inside-2_349_2885)"/>
</g>
</g>
</g>
<defs>
<clipPath id="clip0_349_2885">
<rect width="16" height="16" fill="white" transform="translate(0.5)"/>
</clipPath>
</defs>
</svg>
