<svg width="16" height="16" viewBox="0 0 16 16" fill="none" xmlns="http://www.w3.org/2000/svg">
<g id="material-symbols:recent-patient-outline-rounded" clip-path="url(#clip0_91_3241)">
<path id="Vector" d="M9.21404 9.94246H4.24281C3.90104 9.94246 3.60836 9.82067 3.36477 9.57708C3.12117 9.33349 2.99959 9.04101 3 8.69966V8.20253C3 7.8504 3.09073 7.52665 3.27218 7.23128C3.45363 6.9359 3.69432 6.71075 3.99425 6.55581C4.63636 6.23475 5.28884 5.99386 5.95167 5.83312C6.6145 5.67238 7.28769 5.59222 7.97123 5.59264C8.17837 5.59264 8.3855 5.60051 8.59264 5.61625C8.79977 5.63199 9.00691 5.65519 9.21404 5.68585V6.94419C9.00691 6.90276 8.79977 6.87418 8.59264 6.85844C8.3855 6.84269 8.17837 6.83503 7.97123 6.83544C7.39126 6.83544 6.81646 6.90546 6.24684 7.04548C5.67722 7.1855 5.11277 7.39512 4.55351 7.67434C4.4603 7.72612 4.38511 7.79862 4.32794 7.89183C4.27077 7.98504 4.24239 8.08861 4.24281 8.20253V8.69966H9.21404V9.94246ZM7.97123 4.97123C7.28769 4.97123 6.70253 4.72785 6.21577 4.24108C5.729 3.75432 5.48562 3.16916 5.48562 2.48562C5.48562 1.80207 5.729 1.21692 6.21577 0.73015C6.70253 0.243383 7.28769 0 7.97123 0C8.65478 0 9.23993 0.243383 9.7267 0.73015C10.2135 1.21692 10.4568 1.80207 10.4568 2.48562C10.4568 3.16916 10.2135 3.75432 9.7267 4.24108C9.23993 4.72785 8.65478 4.97123 7.97123 4.97123ZM7.97123 3.72842C8.31301 3.72842 8.60569 3.60663 8.84928 3.36304C9.09287 3.11945 9.21446 2.82697 9.21404 2.48562C9.21404 2.14384 9.09225 1.85116 8.84866 1.60757C8.60506 1.36398 8.31259 1.24239 7.97123 1.24281C7.62946 1.24281 7.33678 1.3646 7.09319 1.60819C6.8496 1.85178 6.72801 2.14426 6.72843 2.48562C6.72843 2.82739 6.85022 3.12007 7.09381 3.36366C7.3374 3.60725 7.62988 3.72884 7.97123 3.72842ZM11.6997 9.32106H11.0783C10.9022 9.32106 10.7545 9.2614 10.6352 9.1421C10.5159 9.02279 10.4564 8.87531 10.4568 8.69966V6.21404C10.4568 6.03798 10.5165 5.89029 10.6358 5.77098C10.7551 5.65167 10.9026 5.59222 11.0783 5.59264H13.4241C13.6001 5.59264 13.7348 5.66513 13.828 5.81013C13.9212 5.95512 13.9264 6.10529 13.8435 6.26064L12.9425 8.07825H13.3774C13.5535 8.07825 13.6855 8.15593 13.7733 8.31128C13.8611 8.46663 13.8638 8.62198 13.7814 8.77733L11.9948 11.9154C11.9534 11.9879 11.8937 12.0138 11.8159 11.9931C11.738 11.9724 11.6992 11.9206 11.6997 11.8377V9.32106Z" fill="#ABABAB"/>
</g>
<defs>
<clipPath id="clip0_91_3241">
<rect width="16" height="16" fill="white"/>
</clipPath>
</defs>
</svg>
