<svg width="17" height="16" viewBox="0 0 17 16" fill="none" xmlns="http://www.w3.org/2000/svg">
<g id="icons" clip-path="url(#clip0_1074_468)">
<path id="Vector" d="M8.5 16C7.416 16 6.39333 15.524 5.69467 14.694C4.668 14.8113 3.61 14.424 2.84333 13.6573C2.07733 12.8907 1.69067 11.8307 1.78333 10.7493C0.976 10.1067 0.5 9.084 0.5 8C0.5 6.916 0.976 5.89333 1.80667 5.19467C1.69 4.17 2.07667 3.11 2.84333 2.34333C3.61 1.57667 4.668 1.188 5.75067 1.28333C6.39333 0.476667 7.416 0 8.5 0C9.584 0 10.6067 0.476 11.3053 1.306C12.3333 1.19067 13.39 1.576 14.1567 2.34267C14.9227 3.10933 15.3093 4.16933 15.2167 5.25067C16.024 5.89333 16.5 6.916 16.5 8C16.5 9.084 16.024 10.1067 15.1933 10.8053C15.31 11.83 14.9233 12.89 14.1567 13.6567C13.3893 14.4233 12.3293 14.8073 11.2493 14.7167C10.6067 15.5233 9.584 16 8.5 16ZM5.74867 13.384C6.12267 13.384 6.46933 13.5447 6.714 13.8347C7.15933 14.3633 7.81 14.6667 8.5 14.6667C9.19 14.6667 9.84067 14.3633 10.286 13.8347C10.5547 13.5153 10.946 13.354 11.3633 13.388C12.0527 13.446 12.726 13.2013 13.214 12.7133C13.7013 12.226 13.9473 11.5513 13.8887 10.8627C13.8527 10.4467 14.0153 10.054 14.3353 9.78467C14.8633 9.34 15.1667 8.68867 15.1667 7.99933C15.1667 7.31 14.8633 6.65867 14.3353 6.214C14.016 5.94533 13.8527 5.552 13.8887 5.136C13.9473 4.44733 13.702 3.77267 13.214 3.28533C12.726 2.798 12.0487 2.556 11.364 2.61067C10.9467 2.648 10.5547 2.48333 10.286 2.16467C9.84067 1.636 9.19 1.33267 8.5 1.33267C7.81 1.33267 7.15933 1.636 6.714 2.16467C6.44467 2.484 6.052 2.644 5.63667 2.61133C4.944 2.55133 4.274 2.798 3.786 3.286C3.29867 3.77333 3.05267 4.448 3.11133 5.13667C3.14733 5.55267 2.98467 5.94533 2.66467 6.21467C2.13667 6.65933 1.83333 7.31067 1.83333 8C1.83333 8.68933 2.13667 9.34067 2.66467 9.78533C2.984 10.054 3.14733 10.4473 3.11133 10.8633C3.05267 11.552 3.298 12.2267 3.786 12.714C4.274 13.2013 4.95467 13.444 5.636 13.3887C5.674 13.3853 5.71133 13.384 5.74867 13.384ZM9.034 10.09L12.1933 7.04467C12.458 6.78933 12.466 6.36667 12.21 6.102C11.9547 5.83733 11.5327 5.82933 11.2673 6.08467L8.09933 9.13867C7.83867 9.39933 7.418 9.39933 7.13933 9.122L5.62067 7.71067C5.35267 7.46067 4.93 7.47533 4.67867 7.74533C4.428 8.01467 4.44333 8.43667 4.71333 8.68733L6.21467 10.082C6.60533 10.4727 7.11933 10.668 7.632 10.668C8.142 10.668 8.64933 10.4753 9.03467 10.0907L9.034 10.09Z" fill="#858585"/>
</g>
<defs>
<clipPath id="clip0_1074_468">
<rect width="16" height="16" fill="white" transform="translate(0.5)"/>
</clipPath>
</defs>
</svg>
