<svg width="57" height="18" viewBox="0 0 57 18" fill="none" xmlns="http://www.w3.org/2000/svg">
<g id="Visa">
<path id="visa-logo" fill-rule="evenodd" clip-rule="evenodd" d="M14.1816 17.8394H9.3118L5.66003 3.90768C5.48671 3.26682 5.11868 2.70026 4.57733 2.43324C3.22631 1.76219 1.73759 1.22815 0.113525 0.958799V0.422429H7.95842C9.04113 0.422429 9.85316 1.22815 9.9885 2.16389L11.8832 12.2133L16.7507 0.422429H21.4852L14.1816 17.8394ZM24.1919 17.8394H19.5928L23.3799 0.422429H27.979L24.1919 17.8394ZM33.9292 5.24746C34.0645 4.30939 34.8766 3.77302 35.8239 3.77302C37.3126 3.63835 38.9343 3.9077 40.2877 4.57642L41.0998 0.826469C39.7464 0.290098 38.2576 0.020752 36.9066 0.020752C32.4428 0.020752 29.1947 2.43326 29.1947 5.78151C29.1947 8.32869 31.4955 9.66613 33.1195 10.4719C34.8766 11.2752 35.5532 11.8116 35.4179 12.615C35.4179 13.8201 34.0645 14.3565 32.7135 14.3565C31.0894 14.3565 29.4654 13.9548 27.979 13.2837L27.167 17.036C28.7911 17.7047 30.5481 17.9741 32.1722 17.9741C37.1773 18.1064 40.2877 15.6962 40.2877 12.0786C40.2877 7.52297 33.9292 7.25595 33.9292 5.24746ZM56.3835 17.8394L52.7318 0.422429H48.8093C47.9973 0.422429 47.1852 0.958799 46.9146 1.76219L40.1524 17.8394H44.8869L45.8319 15.2945H51.649L52.1904 17.8394H56.3835ZM49.486 5.11276L50.837 11.6769H47.0499L49.486 5.11276Z" fill="#172B85"/>
</g>
</svg>
