<svg width="20" height="20" viewBox="0 0 20 20" fill="none" xmlns="http://www.w3.org/2000/svg">
<path d="M17.56 4.88H3.16C2.96904 4.88 2.78591 4.80414 2.65088 4.66912C2.51586 4.53409 2.44 4.35096 2.44 4.16C2.44 3.96904 2.51586 3.78591 2.65088 3.65088C2.78591 3.51586 2.96904 3.44 3.16 3.44H15.4C15.591 3.44 15.7741 3.36414 15.9091 3.22912C16.0441 3.09409 16.12 2.91096 16.12 2.72C16.12 2.52904 16.0441 2.34591 15.9091 2.21088C15.7741 2.07586 15.591 2 15.4 2H3.16C2.58713 2 2.03773 2.22757 1.63265 2.63265C1.22757 3.03773 1 3.58713 1 4.16V15.68C1 16.2529 1.22757 16.8023 1.63265 17.2074C2.03773 17.6124 2.58713 17.84 3.16 17.84H17.56C17.9419 17.84 18.3082 17.6883 18.5782 17.4182C18.8483 17.1482 19 16.7819 19 16.4V6.32C19 5.93809 18.8483 5.57182 18.5782 5.30177C18.3082 5.03171 17.9419 4.88 17.56 4.88ZM17.56 16.4H3.16C2.96904 16.4 2.78591 16.3241 2.65088 16.1891C2.51586 16.0541 2.44 15.871 2.44 15.68V6.1967C2.67119 6.27865 2.91472 6.32036 3.16 6.32H17.56V16.4ZM13.24 11C13.24 10.7864 13.3033 10.5776 13.422 10.4C13.5407 10.2224 13.7094 10.084 13.9067 10.0022C14.104 9.92047 14.3212 9.89908 14.5307 9.94075C14.7402 9.98242 14.9326 10.0853 15.0837 10.2363C15.2347 10.3874 15.3376 10.5798 15.3792 10.7893C15.4209 10.9988 15.3995 11.216 15.3178 11.4133C15.236 11.6106 15.0976 11.7793 14.92 11.898C14.7424 12.0167 14.5336 12.08 14.32 12.08C14.0336 12.08 13.7589 11.9662 13.5563 11.7637C13.3538 11.5611 13.24 11.2864 13.24 11Z" fill="#5B998A"/>
</svg>
